%TF.GenerationSoftware,KiCad,Pcbnew,6.0.11-2627ca5db0~126~ubuntu20.04.1*%
%TF.CreationDate,2024-10-06T15:46:28-05:00*%
%TF.ProjectId,modbus_rtu_mirror_side_88x37x59mm,6d6f6462-7573-45f7-9274-755f6d697272,rev?*%
%TF.SameCoordinates,Original*%
%TF.FileFunction,Copper,L2,Bot*%
%TF.FilePolarity,Positive*%
%FSLAX46Y46*%
G04 Gerber Fmt 4.6, Leading zero omitted, Abs format (unit mm)*
G04 Created by KiCad (PCBNEW 6.0.11-2627ca5db0~126~ubuntu20.04.1) date 2024-10-06 15:46:28*
%MOMM*%
%LPD*%
G01*
G04 APERTURE LIST*
%TA.AperFunction,ComponentPad*%
%ADD10R,1.800000X1.800000*%
%TD*%
%TA.AperFunction,ComponentPad*%
%ADD11C,1.800000*%
%TD*%
%TA.AperFunction,ComponentPad*%
%ADD12C,2.000000*%
%TD*%
%TA.AperFunction,ComponentPad*%
%ADD13R,2.000000X2.000000*%
%TD*%
%TA.AperFunction,ComponentPad*%
%ADD14R,1.700000X1.700000*%
%TD*%
%TA.AperFunction,ComponentPad*%
%ADD15O,1.700000X1.700000*%
%TD*%
%TA.AperFunction,HeatsinkPad*%
%ADD16C,0.475000*%
%TD*%
%TA.AperFunction,ComponentPad*%
%ADD17C,2.100000*%
%TD*%
%TA.AperFunction,ComponentPad*%
%ADD18C,1.750000*%
%TD*%
%TA.AperFunction,ViaPad*%
%ADD19C,0.800000*%
%TD*%
%TA.AperFunction,Conductor*%
%ADD20C,0.250000*%
%TD*%
G04 APERTURE END LIST*
D10*
%TO.P,D3,1,K*%
%TO.N,Net-(D3-Pad1)*%
X131463000Y-104300000D03*
D11*
%TO.P,D3,2,A*%
%TO.N,+3.3V*%
X134003000Y-104300000D03*
%TD*%
D12*
%TO.P,BT1,1,+*%
%TO.N,+BATT*%
X113237000Y-109375000D03*
X123237000Y-109375000D03*
D13*
%TO.P,BT1,2,-*%
%TO.N,GND*%
X118237000Y-112875000D03*
%TD*%
D14*
%TO.P,J3,1,Pin_1*%
%TO.N,GND*%
X101473000Y-122174000D03*
D15*
%TO.P,J3,2,Pin_2*%
%TO.N,/ESP_TXD*%
X101473000Y-119634000D03*
%TO.P,J3,3,Pin_3*%
%TO.N,/ESP_RXD*%
X101473000Y-117094000D03*
%TO.P,J3,4,Pin_4*%
%TO.N,+3.3V*%
X101473000Y-114554000D03*
%TO.P,J3,5,Pin_5*%
%TO.N,/ESP_EN*%
X101473000Y-112014000D03*
%TO.P,J3,6,Pin_6*%
%TO.N,/ESP_IO0*%
X101473000Y-109474000D03*
%TD*%
D10*
%TO.P,D2,1,K*%
%TO.N,Net-(D2-Pad1)*%
X136563000Y-104300000D03*
D11*
%TO.P,D2,2,A*%
%TO.N,/STP_LED*%
X139103000Y-104300000D03*
%TD*%
D10*
%TO.P,D4,1,K*%
%TO.N,Net-(D4-Pad1)*%
X126363000Y-104300000D03*
D11*
%TO.P,D4,2,A*%
%TO.N,+3.3V*%
X128903000Y-104300000D03*
%TD*%
D16*
%TO.P,U1,39,GND*%
%TO.N,GND*%
X137689500Y-114889000D03*
X136164500Y-114889000D03*
X138452000Y-115651500D03*
X136927000Y-115651500D03*
X137689500Y-117939000D03*
X137689500Y-116414000D03*
X135402000Y-115651500D03*
X136927000Y-117176500D03*
X138452000Y-117176500D03*
X136164500Y-117939000D03*
X136164500Y-116414000D03*
X135402000Y-117176500D03*
%TD*%
D14*
%TO.P,J1,1,Pin_1*%
%TO.N,Net-(J1-Pad1)*%
X115840000Y-135980000D03*
D15*
%TO.P,J1,2,Pin_2*%
%TO.N,Net-(J1-Pad2)*%
X113300000Y-135980000D03*
%TO.P,J1,3,Pin_3*%
%TO.N,Net-(J1-Pad3)*%
X110760000Y-135980000D03*
%TO.P,J1,4,Pin_4*%
%TO.N,Net-(J1-Pad4)*%
X108220000Y-135980000D03*
%TD*%
D10*
%TO.P,D1,1,K*%
%TO.N,Net-(D1-Pad1)*%
X141663000Y-104300000D03*
D11*
%TO.P,D1,2,A*%
%TO.N,+3.3V*%
X144203000Y-104300000D03*
%TD*%
D17*
%TO.P,SW1,*%
%TO.N,*%
X113340000Y-105357500D03*
X106330000Y-105357500D03*
D18*
%TO.P,SW1,1,1*%
%TO.N,/STP_SW*%
X107580000Y-102867500D03*
%TO.P,SW1,2,2*%
%TO.N,GND*%
X112080000Y-102867500D03*
%TD*%
D14*
%TO.P,J2,1,Pin_1*%
%TO.N,+5V*%
X143780000Y-135980000D03*
D15*
%TO.P,J2,2,Pin_2*%
%TO.N,GND*%
X141240000Y-135980000D03*
%TO.P,J2,3,Pin_3*%
%TO.N,Net-(J2-Pad3)*%
X138700000Y-135980000D03*
%TO.P,J2,4,Pin_4*%
%TO.N,Net-(J2-Pad4)*%
X136160000Y-135980000D03*
%TD*%
D10*
%TO.P,D5,1,K*%
%TO.N,Net-(D5-Pad1)*%
X121263000Y-104300000D03*
D11*
%TO.P,D5,2,A*%
%TO.N,+3.3V*%
X123803000Y-104300000D03*
%TD*%
D10*
%TO.P,D6,1,K*%
%TO.N,Net-(D6-Pad1)*%
X116163000Y-104300000D03*
D11*
%TO.P,D6,2,A*%
%TO.N,+3.3V*%
X118703000Y-104300000D03*
%TD*%
D19*
%TO.N,GND*%
X106264200Y-121135600D03*
X108741200Y-128003100D03*
%TO.N,+3.3V*%
X118979800Y-116481200D03*
%TO.N,+5V*%
X115601273Y-131261429D03*
%TO.N,Net-(D1-Pad1)*%
X144526000Y-128608500D03*
%TO.N,Net-(D2-Pad1)*%
X141986000Y-128578800D03*
%TO.N,Net-(D3-Pad1)*%
X139319000Y-128582500D03*
%TO.N,/TX2_LED*%
X131271400Y-124489700D03*
X105696000Y-123783900D03*
X137933400Y-128952500D03*
%TO.N,Net-(U1-Pad31)*%
X104446200Y-123788400D03*
X135373900Y-129452300D03*
%TO.N,Net-(D4-Pad1)*%
X136344000Y-128356700D03*
%TO.N,Net-(D5-Pad1)*%
X126679300Y-125584000D03*
%TO.N,Net-(D6-Pad1)*%
X131534700Y-127654400D03*
%TO.N,/RX2_LED*%
X129479300Y-124488200D03*
X108721700Y-124834700D03*
X132551000Y-127879500D03*
%TO.N,/RX1_LED*%
X128372800Y-128113200D03*
X106867100Y-127023700D03*
%TO.N,/ESP_TXD*%
X127869000Y-122138500D03*
%TO.N,/ESP_RXD*%
X119741900Y-121379400D03*
%TO.N,/ESP_IO0*%
X125430900Y-124780700D03*
%TO.N,Net-(U1-Pad27)*%
X127673100Y-127278800D03*
X108534300Y-126257600D03*
%TO.N,/I2C0_SCL*%
X119271200Y-117497900D03*
X108460300Y-118618000D03*
%TO.N,Net-(J1-Pad3)*%
X104597100Y-129511200D03*
%TO.N,Net-(J1-Pad4)*%
X103588300Y-129506500D03*
%TO.N,Net-(J2-Pad3)*%
X108394300Y-131018200D03*
%TO.N,Net-(J2-Pad4)*%
X110021300Y-137959500D03*
%TD*%
D20*
%TO.N,GND*%
X106264200Y-122174000D02*
X106264200Y-121135600D01*
X107809000Y-127070900D02*
X108741200Y-128003100D01*
X106264200Y-122174000D02*
X107809000Y-123718800D01*
X141240000Y-121489500D02*
X141240000Y-135980000D01*
X112827100Y-102867500D02*
X114826500Y-104866900D01*
X107809000Y-123718800D02*
X107809000Y-127070900D01*
X114826500Y-108139200D02*
X118237000Y-111549700D01*
X137689500Y-117939000D02*
X141240000Y-121489500D01*
X101473000Y-122174000D02*
X102648300Y-122174000D01*
X112080000Y-102867500D02*
X112827100Y-102867500D01*
X106264200Y-122174000D02*
X102648300Y-122174000D01*
X118237000Y-112875000D02*
X118237000Y-111549700D01*
X114826500Y-104866900D02*
X114826500Y-108139200D01*
%TO.N,+3.3V*%
X104648000Y-114554000D02*
X106575200Y-116481200D01*
X122577600Y-103074600D02*
X123803000Y-104300000D01*
X118703000Y-104300000D02*
X119928400Y-103074600D01*
X101473000Y-114554000D02*
X104648000Y-114554000D01*
X106575200Y-116481200D02*
X118979800Y-116481200D01*
X119928400Y-103074600D02*
X122577600Y-103074600D01*
%TO.N,+5V*%
X135073595Y-130177300D02*
X136019300Y-130177300D01*
X139970000Y-134128000D02*
X139970000Y-137303000D01*
X143780000Y-137271000D02*
X143780000Y-135980000D01*
X140716000Y-138049000D02*
X143002000Y-138049000D01*
X136019300Y-130177300D02*
X139970000Y-134128000D01*
X134648900Y-129752605D02*
X135073595Y-130177300D01*
X115601273Y-131261429D02*
X117123502Y-129739200D01*
X143002000Y-138049000D02*
X143780000Y-137271000D01*
X134648900Y-129739200D02*
X134648900Y-129752605D01*
X139970000Y-137303000D02*
X140716000Y-138049000D01*
X117123502Y-129739200D02*
X134648900Y-129739200D01*
%TO.N,Net-(D1-Pad1)*%
X141663000Y-104300000D02*
X141663000Y-105525300D01*
X144526000Y-108388300D02*
X144526000Y-128608500D01*
X141663000Y-105525300D02*
X144526000Y-108388300D01*
%TO.N,Net-(D2-Pad1)*%
X136563000Y-105525300D02*
X141986000Y-110948300D01*
X136563000Y-104300000D02*
X136563000Y-105525300D01*
X141986000Y-110948300D02*
X141986000Y-128578800D01*
%TO.N,Net-(D3-Pad1)*%
X139319000Y-128582500D02*
X133223000Y-122486500D01*
X131463000Y-106238650D02*
X131463000Y-104300000D01*
X133223000Y-107998650D02*
X131463000Y-106238650D01*
X133223000Y-122486500D02*
X133223000Y-107998650D01*
%TO.N,/TX2_LED*%
X133438100Y-128658500D02*
X133258100Y-128838500D01*
X137933400Y-128952500D02*
X137748400Y-129137500D01*
X116163900Y-128838500D02*
X115823500Y-129178900D01*
X136084900Y-129137500D02*
X135605900Y-128658500D01*
X135605900Y-128658500D02*
X133438100Y-128658500D01*
X107968200Y-129178900D02*
X105696000Y-126906700D01*
X105696000Y-126906700D02*
X105696000Y-123783900D01*
X137748400Y-129137500D02*
X136084900Y-129137500D01*
X133258100Y-128838500D02*
X116163900Y-128838500D01*
X133438100Y-128658500D02*
X133438100Y-126656400D01*
X115823500Y-129178900D02*
X107968200Y-129178900D01*
X133438100Y-126656400D02*
X131271400Y-124489700D01*
%TO.N,Net-(U1-Pad31)*%
X104446200Y-126365000D02*
X104446200Y-123788400D01*
X135210500Y-129288900D02*
X116350400Y-129288900D01*
X135373900Y-129452300D02*
X135210500Y-129288900D01*
X107728600Y-129647400D02*
X104446200Y-126365000D01*
X116350400Y-129288900D02*
X115991900Y-129647400D01*
X115991900Y-129647400D02*
X107728600Y-129647400D01*
%TO.N,Net-(D4-Pad1)*%
X131953000Y-110236000D02*
X131953000Y-123965700D01*
X126363000Y-104646000D02*
X131953000Y-110236000D01*
X131953000Y-123965700D02*
X136344000Y-128356700D01*
X126363000Y-104300000D02*
X126363000Y-104646000D01*
%TO.N,Net-(D5-Pad1)*%
X128500100Y-123763200D02*
X126679300Y-125584000D01*
X130810000Y-122428000D02*
X129474800Y-123763200D01*
X121263000Y-104300000D02*
X121263000Y-105642000D01*
X130810000Y-112268000D02*
X130810000Y-122428000D01*
X129474800Y-123763200D02*
X128500100Y-123763200D01*
X124945300Y-106403300D02*
X130810000Y-112268000D01*
X122024300Y-106403300D02*
X124945300Y-106403300D01*
X121263000Y-105642000D02*
X122024300Y-106403300D01*
%TO.N,Net-(D6-Pad1)*%
X128376900Y-123314100D02*
X129087000Y-122604000D01*
X116163000Y-104860000D02*
X116163000Y-104300000D01*
X131534700Y-127654400D02*
X129955800Y-126075500D01*
X129087000Y-113027250D02*
X123501750Y-107442000D01*
X127923300Y-123314100D02*
X128376900Y-123314100D01*
X126378900Y-126309300D02*
X125906400Y-125836800D01*
X125906400Y-125836800D02*
X125906400Y-125331000D01*
X123501750Y-107442000D02*
X118745000Y-107442000D01*
X129955800Y-126075500D02*
X127213600Y-126075500D01*
X118745000Y-107442000D02*
X116163000Y-104860000D01*
X125906400Y-125331000D02*
X127923300Y-123314100D01*
X129087000Y-122604000D02*
X129087000Y-113027250D01*
X127213600Y-126075500D02*
X126979800Y-126309300D01*
X126979800Y-126309300D02*
X126378900Y-126309300D01*
%TO.N,/RX2_LED*%
X127166400Y-126759600D02*
X127400200Y-126525800D01*
X132260100Y-127985700D02*
X132260100Y-127879500D01*
X131866000Y-128379800D02*
X132260100Y-127985700D01*
X132260100Y-127879500D02*
X132551000Y-127879500D01*
X110646600Y-126759600D02*
X127166400Y-126759600D01*
X132260100Y-127269000D02*
X129479300Y-124488200D01*
X130109100Y-128379800D02*
X131866000Y-128379800D01*
X128255100Y-126525800D02*
X130109100Y-128379800D01*
X127400200Y-126525800D02*
X128255100Y-126525800D01*
X108721700Y-124834700D02*
X110646600Y-126759600D01*
X132260100Y-127879500D02*
X132260100Y-127269000D01*
%TO.N,/RX1_LED*%
X128372800Y-128113200D02*
X116252300Y-128113200D01*
X116252300Y-128113200D02*
X115637000Y-128728500D01*
X115637000Y-128728500D02*
X108411800Y-128728500D01*
X106867100Y-127183800D02*
X106867100Y-127023700D01*
X108411800Y-128728500D02*
X106867100Y-127183800D01*
%TO.N,+BATT*%
X120015000Y-114681000D02*
X115824000Y-114681000D01*
X115824000Y-114681000D02*
X113237000Y-112094000D01*
X123237000Y-109375000D02*
X123237000Y-111459000D01*
X123237000Y-111459000D02*
X120015000Y-114681000D01*
X113237000Y-112094000D02*
X113237000Y-109375000D01*
%TO.N,/ESP_TXD*%
X108676500Y-122138500D02*
X106172000Y-119634000D01*
X127869000Y-122138500D02*
X108676500Y-122138500D01*
X106172000Y-119634000D02*
X101473000Y-119634000D01*
%TO.N,/ESP_RXD*%
X101473000Y-117094000D02*
X105029000Y-117094000D01*
X109314400Y-121379400D02*
X119741900Y-121379400D01*
X105029000Y-117094000D02*
X109314400Y-121379400D01*
%TO.N,/ESP_IO0*%
X128186400Y-122863800D02*
X127347800Y-122863800D01*
X108490300Y-115316000D02*
X122089200Y-115316000D01*
X127347800Y-122863800D02*
X125430900Y-124780700D01*
X122089200Y-115316000D02*
X128636700Y-121863500D01*
X128636700Y-121863500D02*
X128636700Y-122413500D01*
X101473000Y-109474000D02*
X102648300Y-109474000D01*
X102648300Y-109474000D02*
X108490300Y-115316000D01*
X128636700Y-122413500D02*
X128186400Y-122863800D01*
%TO.N,Net-(U1-Pad27)*%
X109555500Y-127278800D02*
X127673100Y-127278800D01*
X108534300Y-126257600D02*
X109555500Y-127278800D01*
%TO.N,/I2C0_SCL*%
X108460300Y-118618000D02*
X118151100Y-118618000D01*
X118151100Y-118618000D02*
X119271200Y-117497900D01*
%TO.N,Net-(J1-Pad3)*%
X104597100Y-129870100D02*
X104597100Y-129511200D01*
X110760000Y-135980000D02*
X110707000Y-135980000D01*
X110707000Y-135980000D02*
X104597100Y-129870100D01*
%TO.N,Net-(J1-Pad4)*%
X108220000Y-134804700D02*
X103588300Y-130173000D01*
X108220000Y-135980000D02*
X108220000Y-134804700D01*
X103588300Y-130173000D02*
X103588300Y-129506500D01*
%TO.N,Net-(J2-Pad3)*%
X115680300Y-132207000D02*
X109583100Y-132207000D01*
X138700000Y-134531200D02*
X134358400Y-130189600D01*
X109583100Y-132207000D02*
X108394300Y-131018200D01*
X117697700Y-130189600D02*
X115680300Y-132207000D01*
X138700000Y-135980000D02*
X138700000Y-134531200D01*
X134358400Y-130189600D02*
X117697700Y-130189600D01*
%TO.N,Net-(J2-Pad4)*%
X117602000Y-133858000D02*
X116840000Y-133096000D01*
X116586000Y-138049000D02*
X117602000Y-137033000D01*
X134196500Y-130664600D02*
X135128000Y-131596100D01*
X116840000Y-133096000D02*
X116840000Y-131684300D01*
X117859700Y-130664600D02*
X134196500Y-130664600D01*
X135128000Y-134948000D02*
X136160000Y-135980000D01*
X110021300Y-137959500D02*
X110110800Y-138049000D01*
X117602000Y-137033000D02*
X117602000Y-133858000D01*
X135128000Y-131596100D02*
X135128000Y-134948000D01*
X116840000Y-131684300D02*
X117859700Y-130664600D01*
X110110800Y-138049000D02*
X116586000Y-138049000D01*
%TD*%
%TA.AperFunction,Conductor*%
%TO.N,GND*%
G36*
X106053105Y-119979502D02*
G01*
X106074079Y-119996405D01*
X108432389Y-122354715D01*
X108439816Y-122362819D01*
X108464045Y-122391694D01*
X108473594Y-122397207D01*
X108496685Y-122410539D01*
X108505956Y-122416445D01*
X108536816Y-122438054D01*
X108547466Y-122440908D01*
X108550634Y-122442385D01*
X108553910Y-122443577D01*
X108563455Y-122449088D01*
X108597199Y-122455038D01*
X108600558Y-122455630D01*
X108611285Y-122458008D01*
X108647693Y-122467764D01*
X108658669Y-122466804D01*
X108658672Y-122466804D01*
X108685243Y-122464479D01*
X108696224Y-122464000D01*
X126983084Y-122464000D01*
X127051205Y-122484002D01*
X127097698Y-122537658D01*
X127107802Y-122607932D01*
X127078308Y-122672512D01*
X127072179Y-122679095D01*
X125603283Y-124147991D01*
X125540971Y-124182017D01*
X125497743Y-124183818D01*
X125430900Y-124175018D01*
X125274138Y-124195656D01*
X125128059Y-124256164D01*
X125002618Y-124352418D01*
X124906364Y-124477859D01*
X124845856Y-124623938D01*
X124825218Y-124780700D01*
X124845856Y-124937462D01*
X124906364Y-125083541D01*
X125002618Y-125208982D01*
X125128059Y-125305236D01*
X125274138Y-125365744D01*
X125430900Y-125386382D01*
X125439088Y-125385304D01*
X125447346Y-125385304D01*
X125447346Y-125386775D01*
X125508595Y-125396323D01*
X125561697Y-125443448D01*
X125580900Y-125510309D01*
X125580900Y-125817090D01*
X125580420Y-125828072D01*
X125578330Y-125851964D01*
X125577136Y-125865607D01*
X125579990Y-125876256D01*
X125586891Y-125902010D01*
X125589270Y-125912742D01*
X125595812Y-125949845D01*
X125601323Y-125959390D01*
X125602515Y-125962666D01*
X125603992Y-125965834D01*
X125606846Y-125976484D01*
X125613170Y-125985515D01*
X125628455Y-126007344D01*
X125634361Y-126016615D01*
X125647693Y-126039706D01*
X125653206Y-126049255D01*
X125661651Y-126056341D01*
X125682082Y-126073485D01*
X125690185Y-126080911D01*
X125828279Y-126219005D01*
X125862305Y-126281317D01*
X125857240Y-126352132D01*
X125814693Y-126408968D01*
X125748173Y-126433779D01*
X125739184Y-126434100D01*
X110833616Y-126434100D01*
X110765495Y-126414098D01*
X110744521Y-126397195D01*
X109354409Y-125007083D01*
X109320383Y-124944771D01*
X109318582Y-124901542D01*
X109326304Y-124842888D01*
X109327382Y-124834700D01*
X109306744Y-124677938D01*
X109246236Y-124531859D01*
X109149982Y-124406418D01*
X109024541Y-124310164D01*
X108894174Y-124256164D01*
X108886091Y-124252816D01*
X108878462Y-124249656D01*
X108721700Y-124229018D01*
X108564938Y-124249656D01*
X108557309Y-124252816D01*
X108549226Y-124256164D01*
X108418859Y-124310164D01*
X108293418Y-124406418D01*
X108197164Y-124531859D01*
X108136656Y-124677938D01*
X108116018Y-124834700D01*
X108136656Y-124991462D01*
X108197164Y-125137541D01*
X108293418Y-125262982D01*
X108418859Y-125359236D01*
X108481793Y-125385304D01*
X108548436Y-125412909D01*
X108603717Y-125457458D01*
X108626138Y-125524821D01*
X108608580Y-125593612D01*
X108556617Y-125641991D01*
X108516665Y-125654240D01*
X108377538Y-125672556D01*
X108231459Y-125733064D01*
X108224908Y-125738091D01*
X108116198Y-125821507D01*
X108106018Y-125829318D01*
X108009764Y-125954759D01*
X107949256Y-126100838D01*
X107928618Y-126257600D01*
X107949256Y-126414362D01*
X108009764Y-126560441D01*
X108106018Y-126685882D01*
X108231459Y-126782136D01*
X108377538Y-126842644D01*
X108534300Y-126863282D01*
X108601143Y-126854482D01*
X108671290Y-126865421D01*
X108706683Y-126890309D01*
X109311389Y-127495015D01*
X109318816Y-127503119D01*
X109343045Y-127531994D01*
X109352594Y-127537507D01*
X109375685Y-127550839D01*
X109384956Y-127556745D01*
X109415816Y-127578354D01*
X109426466Y-127581208D01*
X109429634Y-127582685D01*
X109432910Y-127583877D01*
X109442455Y-127589388D01*
X109476199Y-127595338D01*
X109479558Y-127595930D01*
X109490285Y-127598308D01*
X109526693Y-127608064D01*
X109537678Y-127607103D01*
X109537680Y-127607103D01*
X109564228Y-127604780D01*
X109575210Y-127604300D01*
X116011973Y-127604300D01*
X116080094Y-127624302D01*
X116126587Y-127677958D01*
X116136691Y-127748232D01*
X116107197Y-127812812D01*
X116084240Y-127833515D01*
X116081752Y-127835257D01*
X116072485Y-127841161D01*
X116049394Y-127854493D01*
X116039845Y-127860006D01*
X116032759Y-127868451D01*
X116015615Y-127888882D01*
X116008189Y-127896985D01*
X115539079Y-128366095D01*
X115476767Y-128400121D01*
X115449984Y-128403000D01*
X108598816Y-128403000D01*
X108530695Y-128382998D01*
X108509721Y-128366095D01*
X107474169Y-127330543D01*
X107440143Y-127268231D01*
X107446858Y-127193224D01*
X107448984Y-127188092D01*
X107448985Y-127188089D01*
X107452144Y-127180462D01*
X107455371Y-127155955D01*
X107471704Y-127031888D01*
X107472782Y-127023700D01*
X107452144Y-126866938D01*
X107391636Y-126720859D01*
X107295382Y-126595418D01*
X107169941Y-126499164D01*
X107023862Y-126438656D01*
X106999389Y-126435434D01*
X106875288Y-126419096D01*
X106867100Y-126418018D01*
X106858912Y-126419096D01*
X106734812Y-126435434D01*
X106710338Y-126438656D01*
X106564259Y-126499164D01*
X106438818Y-126595418D01*
X106342564Y-126720859D01*
X106313417Y-126791226D01*
X106305748Y-126809741D01*
X106261200Y-126865022D01*
X106193836Y-126887443D01*
X106125045Y-126869885D01*
X106100244Y-126850618D01*
X106058405Y-126808779D01*
X106024379Y-126746467D01*
X106021500Y-126719684D01*
X106021500Y-124353186D01*
X106041502Y-124285065D01*
X106070796Y-124253223D01*
X106117736Y-124217205D01*
X106124282Y-124212182D01*
X106220536Y-124086741D01*
X106281044Y-123940662D01*
X106301682Y-123783900D01*
X106281044Y-123627138D01*
X106220536Y-123481059D01*
X106124282Y-123355618D01*
X105998841Y-123259364D01*
X105863626Y-123203356D01*
X105860391Y-123202016D01*
X105852762Y-123198856D01*
X105696000Y-123178218D01*
X105539238Y-123198856D01*
X105531609Y-123202016D01*
X105528374Y-123203356D01*
X105393159Y-123259364D01*
X105267718Y-123355618D01*
X105171464Y-123481059D01*
X105169401Y-123479476D01*
X105127404Y-123519516D01*
X105057689Y-123532948D01*
X104991780Y-123506557D01*
X104969711Y-123484223D01*
X104879505Y-123366664D01*
X104874482Y-123360118D01*
X104749041Y-123263864D01*
X104602962Y-123203356D01*
X104446200Y-123182718D01*
X104289438Y-123203356D01*
X104143359Y-123263864D01*
X104017918Y-123360118D01*
X103921664Y-123485559D01*
X103861156Y-123631638D01*
X103840518Y-123788400D01*
X103861156Y-123945162D01*
X103921664Y-124091241D01*
X104017918Y-124216682D01*
X104024464Y-124221705D01*
X104071404Y-124257723D01*
X104113271Y-124315061D01*
X104120700Y-124357686D01*
X104120700Y-126345290D01*
X104120220Y-126356272D01*
X104116936Y-126393807D01*
X104125598Y-126426132D01*
X104126691Y-126430210D01*
X104129070Y-126440942D01*
X104135612Y-126478045D01*
X104141123Y-126487590D01*
X104142315Y-126490866D01*
X104143792Y-126494034D01*
X104146646Y-126504684D01*
X104152970Y-126513715D01*
X104168255Y-126535544D01*
X104174161Y-126544815D01*
X104178778Y-126552811D01*
X104193006Y-126577455D01*
X104214413Y-126595418D01*
X104221882Y-126601685D01*
X104229985Y-126609111D01*
X107484489Y-129863615D01*
X107491916Y-129871719D01*
X107516145Y-129900594D01*
X107525694Y-129906107D01*
X107548785Y-129919439D01*
X107558056Y-129925345D01*
X107588916Y-129946954D01*
X107599566Y-129949808D01*
X107602734Y-129951285D01*
X107606010Y-129952477D01*
X107615555Y-129957988D01*
X107649299Y-129963938D01*
X107652658Y-129964530D01*
X107663385Y-129966908D01*
X107699793Y-129976664D01*
X107710769Y-129975704D01*
X107710772Y-129975704D01*
X107737343Y-129973379D01*
X107748324Y-129972900D01*
X115972190Y-129972900D01*
X115983172Y-129973380D01*
X116009720Y-129975703D01*
X116009722Y-129975703D01*
X116020707Y-129976664D01*
X116057115Y-129966908D01*
X116067842Y-129964530D01*
X116071201Y-129963938D01*
X116104945Y-129957988D01*
X116110559Y-129954747D01*
X116178621Y-129950421D01*
X116240661Y-129984940D01*
X116274190Y-130047520D01*
X116268563Y-130118293D01*
X116239956Y-130162420D01*
X115773656Y-130628720D01*
X115711344Y-130662746D01*
X115668116Y-130664547D01*
X115601273Y-130655747D01*
X115444511Y-130676385D01*
X115298432Y-130736893D01*
X115172991Y-130833147D01*
X115167968Y-130839693D01*
X115151283Y-130861438D01*
X115076737Y-130958588D01*
X115016229Y-131104667D01*
X115015151Y-131112855D01*
X115007396Y-131171760D01*
X114995591Y-131261429D01*
X115016229Y-131418191D01*
X115076737Y-131564270D01*
X115081765Y-131570823D01*
X115081767Y-131570826D01*
X115164615Y-131678796D01*
X115190216Y-131745016D01*
X115175951Y-131814565D01*
X115126350Y-131865361D01*
X115064653Y-131881500D01*
X109770116Y-131881500D01*
X109701995Y-131861498D01*
X109681021Y-131844595D01*
X109027009Y-131190583D01*
X108992983Y-131128271D01*
X108991182Y-131085042D01*
X108998904Y-131026388D01*
X108999982Y-131018200D01*
X108979344Y-130861438D01*
X108918836Y-130715359D01*
X108822582Y-130589918D01*
X108697141Y-130493664D01*
X108551062Y-130433156D01*
X108394300Y-130412518D01*
X108237538Y-130433156D01*
X108091459Y-130493664D01*
X107966018Y-130589918D01*
X107869764Y-130715359D01*
X107809256Y-130861438D01*
X107788618Y-131018200D01*
X107789696Y-131026388D01*
X107801080Y-131112855D01*
X107809256Y-131174962D01*
X107869764Y-131321041D01*
X107874791Y-131327592D01*
X107950164Y-131425820D01*
X107966018Y-131446482D01*
X108091459Y-131542736D01*
X108237538Y-131603244D01*
X108394300Y-131623882D01*
X108461143Y-131615082D01*
X108531290Y-131626021D01*
X108566683Y-131650909D01*
X109338989Y-132423215D01*
X109346415Y-132431318D01*
X109370645Y-132460194D01*
X109380194Y-132465707D01*
X109403285Y-132479039D01*
X109412556Y-132484945D01*
X109443416Y-132506554D01*
X109454066Y-132509408D01*
X109457234Y-132510885D01*
X109460510Y-132512077D01*
X109470055Y-132517588D01*
X109503799Y-132523538D01*
X109507158Y-132524130D01*
X109517885Y-132526508D01*
X109554293Y-132536264D01*
X109565278Y-132535303D01*
X109565280Y-132535303D01*
X109591828Y-132532980D01*
X109602810Y-132532500D01*
X115660590Y-132532500D01*
X115671572Y-132532980D01*
X115698120Y-132535303D01*
X115698122Y-132535303D01*
X115709107Y-132536264D01*
X115745515Y-132526508D01*
X115756242Y-132524130D01*
X115759601Y-132523538D01*
X115793345Y-132517588D01*
X115802890Y-132512077D01*
X115806166Y-132510885D01*
X115809334Y-132509408D01*
X115819984Y-132506554D01*
X115850844Y-132484945D01*
X115860115Y-132479039D01*
X115883206Y-132465707D01*
X115892755Y-132460194D01*
X115916985Y-132431317D01*
X115924411Y-132423215D01*
X116299405Y-132048221D01*
X116361717Y-132014195D01*
X116432532Y-132019260D01*
X116489368Y-132061807D01*
X116514179Y-132128327D01*
X116514500Y-132137316D01*
X116514500Y-133076290D01*
X116514020Y-133087272D01*
X116510736Y-133124807D01*
X116513590Y-133135456D01*
X116520491Y-133161210D01*
X116522870Y-133171942D01*
X116529412Y-133209045D01*
X116534923Y-133218590D01*
X116536115Y-133221866D01*
X116537592Y-133225034D01*
X116540446Y-133235684D01*
X116546770Y-133244715D01*
X116562055Y-133266544D01*
X116567961Y-133275815D01*
X116581293Y-133298906D01*
X116586806Y-133308455D01*
X116595251Y-133315541D01*
X116615682Y-133332685D01*
X116623785Y-133340111D01*
X117239595Y-133955921D01*
X117273621Y-134018233D01*
X117276500Y-134045016D01*
X117276500Y-136845984D01*
X117256498Y-136914105D01*
X117239595Y-136935079D01*
X116488079Y-137686595D01*
X116425767Y-137720621D01*
X116398984Y-137723500D01*
X110655928Y-137723500D01*
X110587807Y-137703498D01*
X110547901Y-137661644D01*
X110545836Y-137656659D01*
X110449582Y-137531218D01*
X110324141Y-137434964D01*
X110178062Y-137374456D01*
X110021300Y-137353818D01*
X109864538Y-137374456D01*
X109718459Y-137434964D01*
X109593018Y-137531218D01*
X109496764Y-137656659D01*
X109436256Y-137802738D01*
X109415618Y-137959500D01*
X109436256Y-138116262D01*
X109496764Y-138262341D01*
X109593018Y-138387782D01*
X109718459Y-138484036D01*
X109864538Y-138544544D01*
X110021300Y-138565182D01*
X110029488Y-138564104D01*
X110169874Y-138545622D01*
X110178062Y-138544544D01*
X110324141Y-138484036D01*
X110432960Y-138400537D01*
X110499179Y-138374937D01*
X110509663Y-138374500D01*
X116566290Y-138374500D01*
X116577272Y-138374980D01*
X116603820Y-138377303D01*
X116603822Y-138377303D01*
X116614807Y-138378264D01*
X116651215Y-138368508D01*
X116661942Y-138366130D01*
X116665301Y-138365538D01*
X116699045Y-138359588D01*
X116708590Y-138354077D01*
X116711866Y-138352885D01*
X116715034Y-138351408D01*
X116725684Y-138348554D01*
X116756550Y-138326941D01*
X116765815Y-138321039D01*
X116788906Y-138307707D01*
X116798455Y-138302194D01*
X116822685Y-138273317D01*
X116830111Y-138265215D01*
X117783905Y-137311421D01*
X117846217Y-137277395D01*
X117917032Y-137282460D01*
X117973868Y-137325007D01*
X117998679Y-137391527D01*
X117999000Y-137400516D01*
X117999000Y-139873000D01*
X117978998Y-139941121D01*
X117925342Y-139987614D01*
X117873000Y-139999000D01*
X100127000Y-139999000D01*
X100058879Y-139978998D01*
X100012386Y-139925342D01*
X100001000Y-139873000D01*
X100001000Y-129506500D01*
X102982618Y-129506500D01*
X103003256Y-129663262D01*
X103063764Y-129809341D01*
X103093456Y-129848036D01*
X103150354Y-129922187D01*
X103160018Y-129934782D01*
X103166564Y-129939805D01*
X103213504Y-129975823D01*
X103255371Y-130033161D01*
X103262800Y-130075786D01*
X103262800Y-130153290D01*
X103262320Y-130164272D01*
X103259036Y-130201807D01*
X103261890Y-130212456D01*
X103268791Y-130238210D01*
X103271170Y-130248942D01*
X103277712Y-130286045D01*
X103283223Y-130295590D01*
X103284415Y-130298866D01*
X103285892Y-130302034D01*
X103288746Y-130312684D01*
X103295070Y-130321715D01*
X103310355Y-130343544D01*
X103316261Y-130352815D01*
X103329593Y-130375906D01*
X103335106Y-130385455D01*
X103343551Y-130392541D01*
X103363982Y-130409685D01*
X103372085Y-130417111D01*
X107789758Y-134834784D01*
X107823784Y-134897096D01*
X107818719Y-134967911D01*
X107776172Y-135024747D01*
X107759039Y-135035540D01*
X107727996Y-135051769D01*
X107642002Y-135096726D01*
X107637201Y-135100586D01*
X107637198Y-135100588D01*
X107515694Y-135198280D01*
X107481447Y-135225815D01*
X107349024Y-135383630D01*
X107346056Y-135389028D01*
X107346053Y-135389033D01*
X107283142Y-135503469D01*
X107249776Y-135564162D01*
X107187484Y-135760532D01*
X107186798Y-135766649D01*
X107186797Y-135766653D01*
X107165207Y-135959137D01*
X107164520Y-135965262D01*
X107181759Y-136170553D01*
X107238544Y-136368586D01*
X107241359Y-136374063D01*
X107241360Y-136374066D01*
X107317321Y-136521870D01*
X107332712Y-136551818D01*
X107460677Y-136713270D01*
X107617564Y-136846791D01*
X107622942Y-136849797D01*
X107622944Y-136849798D01*
X107653387Y-136866812D01*
X107797398Y-136947297D01*
X107881280Y-136974552D01*
X107987471Y-137009056D01*
X107987475Y-137009057D01*
X107993329Y-137010959D01*
X108197894Y-137035351D01*
X108204029Y-137034879D01*
X108204031Y-137034879D01*
X108276625Y-137029293D01*
X108403300Y-137019546D01*
X108409230Y-137017890D01*
X108409232Y-137017890D01*
X108595797Y-136965800D01*
X108595796Y-136965800D01*
X108601725Y-136964145D01*
X108607214Y-136961372D01*
X108607220Y-136961370D01*
X108780116Y-136874033D01*
X108785610Y-136871258D01*
X108801345Y-136858965D01*
X108943101Y-136748213D01*
X108947951Y-136744424D01*
X108973857Y-136714412D01*
X109078540Y-136593134D01*
X109078540Y-136593133D01*
X109082564Y-136588472D01*
X109092673Y-136570678D01*
X109181276Y-136414707D01*
X109184323Y-136409344D01*
X109249351Y-136213863D01*
X109275171Y-136009474D01*
X109275583Y-135980000D01*
X109255480Y-135774970D01*
X109195935Y-135577749D01*
X109099218Y-135395849D01*
X108984244Y-135254877D01*
X108972906Y-135240975D01*
X108972903Y-135240972D01*
X108969011Y-135236200D01*
X108915711Y-135192106D01*
X108815025Y-135108811D01*
X108815021Y-135108808D01*
X108810275Y-135104882D01*
X108629055Y-135006897D01*
X108623167Y-135005074D01*
X108622676Y-135004868D01*
X108567628Y-134960033D01*
X108545500Y-134888712D01*
X108545500Y-134824410D01*
X108545980Y-134813428D01*
X108548303Y-134786880D01*
X108548303Y-134786878D01*
X108549264Y-134775893D01*
X108539508Y-134739485D01*
X108537130Y-134728758D01*
X108535271Y-134718216D01*
X108530588Y-134691655D01*
X108525077Y-134682110D01*
X108523885Y-134678834D01*
X108522408Y-134675666D01*
X108519554Y-134665016D01*
X108497945Y-134634156D01*
X108492039Y-134624885D01*
X108478707Y-134601794D01*
X108473194Y-134592245D01*
X108444317Y-134568015D01*
X108436215Y-134560589D01*
X104007949Y-130132323D01*
X103973923Y-130070011D01*
X103978988Y-129999196D01*
X104021535Y-129942360D01*
X104088055Y-129917549D01*
X104157429Y-129932640D01*
X104173748Y-129943265D01*
X104216179Y-129975823D01*
X104294259Y-130035736D01*
X104299454Y-130037888D01*
X104331459Y-130064743D01*
X104338394Y-130073008D01*
X104343906Y-130082555D01*
X104352351Y-130089641D01*
X104372782Y-130106785D01*
X104380885Y-130114211D01*
X109745493Y-135478820D01*
X109779519Y-135541132D01*
X109776500Y-135606013D01*
X109727484Y-135760532D01*
X109726798Y-135766649D01*
X109726797Y-135766653D01*
X109705207Y-135959137D01*
X109704520Y-135965262D01*
X109721759Y-136170553D01*
X109778544Y-136368586D01*
X109781359Y-136374063D01*
X109781360Y-136374066D01*
X109857321Y-136521870D01*
X109872712Y-136551818D01*
X110000677Y-136713270D01*
X110157564Y-136846791D01*
X110162942Y-136849797D01*
X110162944Y-136849798D01*
X110193387Y-136866812D01*
X110337398Y-136947297D01*
X110421280Y-136974552D01*
X110527471Y-137009056D01*
X110527475Y-137009057D01*
X110533329Y-137010959D01*
X110737894Y-137035351D01*
X110744029Y-137034879D01*
X110744031Y-137034879D01*
X110816625Y-137029293D01*
X110943300Y-137019546D01*
X110949230Y-137017890D01*
X110949232Y-137017890D01*
X111135797Y-136965800D01*
X111135796Y-136965800D01*
X111141725Y-136964145D01*
X111147214Y-136961372D01*
X111147220Y-136961370D01*
X111320116Y-136874033D01*
X111325610Y-136871258D01*
X111341345Y-136858965D01*
X111483101Y-136748213D01*
X111487951Y-136744424D01*
X111513857Y-136714412D01*
X111618540Y-136593134D01*
X111618540Y-136593133D01*
X111622564Y-136588472D01*
X111632673Y-136570678D01*
X111721276Y-136414707D01*
X111724323Y-136409344D01*
X111789351Y-136213863D01*
X111815171Y-136009474D01*
X111815583Y-135980000D01*
X111814138Y-135965262D01*
X112244520Y-135965262D01*
X112261759Y-136170553D01*
X112318544Y-136368586D01*
X112321359Y-136374063D01*
X112321360Y-136374066D01*
X112397321Y-136521870D01*
X112412712Y-136551818D01*
X112540677Y-136713270D01*
X112697564Y-136846791D01*
X112702942Y-136849797D01*
X112702944Y-136849798D01*
X112733387Y-136866812D01*
X112877398Y-136947297D01*
X112961280Y-136974552D01*
X113067471Y-137009056D01*
X113067475Y-137009057D01*
X113073329Y-137010959D01*
X113277894Y-137035351D01*
X113284029Y-137034879D01*
X113284031Y-137034879D01*
X113356625Y-137029293D01*
X113483300Y-137019546D01*
X113489230Y-137017890D01*
X113489232Y-137017890D01*
X113675797Y-136965800D01*
X113675796Y-136965800D01*
X113681725Y-136964145D01*
X113687214Y-136961372D01*
X113687220Y-136961370D01*
X113860116Y-136874033D01*
X113865610Y-136871258D01*
X113881345Y-136858965D01*
X113893142Y-136849748D01*
X114789500Y-136849748D01*
X114790707Y-136855816D01*
X114794331Y-136874033D01*
X114801133Y-136908231D01*
X114845448Y-136974552D01*
X114911769Y-137018867D01*
X114923938Y-137021288D01*
X114923939Y-137021288D01*
X114964184Y-137029293D01*
X114970252Y-137030500D01*
X116709748Y-137030500D01*
X116715816Y-137029293D01*
X116756061Y-137021288D01*
X116756062Y-137021288D01*
X116768231Y-137018867D01*
X116834552Y-136974552D01*
X116878867Y-136908231D01*
X116885670Y-136874033D01*
X116889293Y-136855816D01*
X116890500Y-136849748D01*
X116890500Y-135110252D01*
X116886011Y-135087684D01*
X116881288Y-135063939D01*
X116881288Y-135063938D01*
X116878867Y-135051769D01*
X116834552Y-134985448D01*
X116768231Y-134941133D01*
X116756062Y-134938712D01*
X116756061Y-134938712D01*
X116715816Y-134930707D01*
X116709748Y-134929500D01*
X114970252Y-134929500D01*
X114964184Y-134930707D01*
X114923939Y-134938712D01*
X114923938Y-134938712D01*
X114911769Y-134941133D01*
X114845448Y-134985448D01*
X114801133Y-135051769D01*
X114798712Y-135063938D01*
X114798712Y-135063939D01*
X114793989Y-135087684D01*
X114789500Y-135110252D01*
X114789500Y-136849748D01*
X113893142Y-136849748D01*
X114023101Y-136748213D01*
X114027951Y-136744424D01*
X114053857Y-136714412D01*
X114158540Y-136593134D01*
X114158540Y-136593133D01*
X114162564Y-136588472D01*
X114172673Y-136570678D01*
X114261276Y-136414707D01*
X114264323Y-136409344D01*
X114329351Y-136213863D01*
X114355171Y-136009474D01*
X114355583Y-135980000D01*
X114335480Y-135774970D01*
X114275935Y-135577749D01*
X114179218Y-135395849D01*
X114064244Y-135254877D01*
X114052906Y-135240975D01*
X114052903Y-135240972D01*
X114049011Y-135236200D01*
X113995711Y-135192106D01*
X113895025Y-135108811D01*
X113895021Y-135108808D01*
X113890275Y-135104882D01*
X113709055Y-135006897D01*
X113512254Y-134945977D01*
X113506129Y-134945333D01*
X113506128Y-134945333D01*
X113313498Y-134925087D01*
X113313496Y-134925087D01*
X113307369Y-134924443D01*
X113220529Y-134932346D01*
X113108342Y-134942555D01*
X113108339Y-134942556D01*
X113102203Y-134943114D01*
X112904572Y-135001280D01*
X112899109Y-135004136D01*
X112899107Y-135004137D01*
X112894325Y-135006637D01*
X112722002Y-135096726D01*
X112717201Y-135100586D01*
X112717198Y-135100588D01*
X112595694Y-135198280D01*
X112561447Y-135225815D01*
X112429024Y-135383630D01*
X112426056Y-135389028D01*
X112426053Y-135389033D01*
X112363142Y-135503469D01*
X112329776Y-135564162D01*
X112267484Y-135760532D01*
X112266798Y-135766649D01*
X112266797Y-135766653D01*
X112245207Y-135959137D01*
X112244520Y-135965262D01*
X111814138Y-135965262D01*
X111795480Y-135774970D01*
X111735935Y-135577749D01*
X111639218Y-135395849D01*
X111524244Y-135254877D01*
X111512906Y-135240975D01*
X111512903Y-135240972D01*
X111509011Y-135236200D01*
X111455711Y-135192106D01*
X111355025Y-135108811D01*
X111355021Y-135108808D01*
X111350275Y-135104882D01*
X111169055Y-135006897D01*
X110972254Y-134945977D01*
X110966129Y-134945333D01*
X110966128Y-134945333D01*
X110773498Y-134925087D01*
X110773496Y-134925087D01*
X110767369Y-134924443D01*
X110680529Y-134932346D01*
X110568342Y-134942555D01*
X110568339Y-134942556D01*
X110562203Y-134943114D01*
X110364572Y-135001280D01*
X110331042Y-135018809D01*
X110261408Y-135032645D01*
X110195347Y-135006637D01*
X110183571Y-134996244D01*
X105145191Y-129957865D01*
X105111165Y-129895553D01*
X105116230Y-129824738D01*
X105120687Y-129815278D01*
X105121636Y-129814041D01*
X105182144Y-129667962D01*
X105202782Y-129511200D01*
X105182144Y-129354438D01*
X105121636Y-129208359D01*
X105025382Y-129082918D01*
X104899941Y-128986664D01*
X104753862Y-128926156D01*
X104742165Y-128924616D01*
X104605288Y-128906596D01*
X104597100Y-128905518D01*
X104588912Y-128906596D01*
X104452036Y-128924616D01*
X104440338Y-128926156D01*
X104294259Y-128986664D01*
X104287708Y-128991691D01*
X104287703Y-128991694D01*
X104172141Y-129080368D01*
X104105921Y-129105969D01*
X104036372Y-129091704D01*
X104017143Y-129077487D01*
X104016582Y-129078218D01*
X104010036Y-129073195D01*
X103891141Y-128981964D01*
X103745062Y-128921456D01*
X103588300Y-128900818D01*
X103431538Y-128921456D01*
X103285459Y-128981964D01*
X103160018Y-129078218D01*
X103063764Y-129203659D01*
X103003256Y-129349738D01*
X102982618Y-129506500D01*
X100001000Y-129506500D01*
X100001000Y-123419411D01*
X100021002Y-123351290D01*
X100074658Y-123304797D01*
X100144932Y-123294693D01*
X100209512Y-123324187D01*
X100227826Y-123343846D01*
X100254715Y-123379724D01*
X100267276Y-123392285D01*
X100369351Y-123468786D01*
X100384946Y-123477324D01*
X100505394Y-123522478D01*
X100520649Y-123526105D01*
X100571514Y-123531631D01*
X100578328Y-123532000D01*
X101200885Y-123532000D01*
X101216124Y-123527525D01*
X101217329Y-123526135D01*
X101219000Y-123518452D01*
X101219000Y-123513884D01*
X101727000Y-123513884D01*
X101731475Y-123529123D01*
X101732865Y-123530328D01*
X101740548Y-123531999D01*
X102367669Y-123531999D01*
X102374490Y-123531629D01*
X102425352Y-123526105D01*
X102440604Y-123522479D01*
X102561054Y-123477324D01*
X102576649Y-123468786D01*
X102678724Y-123392285D01*
X102691285Y-123379724D01*
X102767786Y-123277649D01*
X102776324Y-123262054D01*
X102821478Y-123141606D01*
X102825105Y-123126351D01*
X102830631Y-123075486D01*
X102831000Y-123068672D01*
X102831000Y-122446115D01*
X102826525Y-122430876D01*
X102825135Y-122429671D01*
X102817452Y-122428000D01*
X101745115Y-122428000D01*
X101729876Y-122432475D01*
X101728671Y-122433865D01*
X101727000Y-122441548D01*
X101727000Y-123513884D01*
X101219000Y-123513884D01*
X101219000Y-122046000D01*
X101239002Y-121977879D01*
X101292658Y-121931386D01*
X101345000Y-121920000D01*
X102812884Y-121920000D01*
X102828123Y-121915525D01*
X102829328Y-121914135D01*
X102830999Y-121906452D01*
X102830999Y-121279331D01*
X102830629Y-121272510D01*
X102825105Y-121221648D01*
X102821479Y-121206396D01*
X102776324Y-121085946D01*
X102767786Y-121070351D01*
X102691285Y-120968276D01*
X102678724Y-120955715D01*
X102576649Y-120879214D01*
X102561054Y-120870676D01*
X102440606Y-120825522D01*
X102425351Y-120821895D01*
X102374486Y-120816369D01*
X102367672Y-120816000D01*
X101991932Y-120816000D01*
X101923811Y-120795998D01*
X101877318Y-120742342D01*
X101867214Y-120672068D01*
X101896708Y-120607488D01*
X101935121Y-120577534D01*
X102033116Y-120528033D01*
X102038610Y-120525258D01*
X102200951Y-120398424D01*
X102335564Y-120242472D01*
X102356387Y-120205818D01*
X102434275Y-120068709D01*
X102437323Y-120063344D01*
X102443184Y-120045726D01*
X102483666Y-119987403D01*
X102549254Y-119960224D01*
X102562741Y-119959500D01*
X105984984Y-119959500D01*
X106053105Y-119979502D01*
G37*
%TD.AperFunction*%
%TA.AperFunction,Conductor*%
G36*
X145759121Y-100021002D02*
G01*
X145805614Y-100074658D01*
X145817000Y-100127000D01*
X145817000Y-107376359D01*
X145796998Y-107444480D01*
X145743342Y-107490973D01*
X145712711Y-107495937D01*
X145710739Y-107496516D01*
X145707658Y-107499000D01*
X145700198Y-107499000D01*
X145700000Y-107498918D01*
X145699802Y-107499000D01*
X145699235Y-107499235D01*
X145698918Y-107500000D01*
X145699000Y-107500198D01*
X145699000Y-126499802D01*
X145698918Y-126500000D01*
X145699000Y-126500198D01*
X145699235Y-126500765D01*
X145700000Y-126501082D01*
X145700198Y-126501000D01*
X145715510Y-126501000D01*
X145770075Y-126523611D01*
X145810558Y-126581935D01*
X145817000Y-126621708D01*
X145817000Y-139873000D01*
X145796998Y-139941121D01*
X145743342Y-139987614D01*
X145691000Y-139999000D01*
X134127000Y-139999000D01*
X134058879Y-139978998D01*
X134012386Y-139925342D01*
X134001000Y-139873000D01*
X134001000Y-131233616D01*
X134021002Y-131165495D01*
X134074658Y-131119002D01*
X134144932Y-131108898D01*
X134209512Y-131138392D01*
X134216095Y-131144521D01*
X134765595Y-131694021D01*
X134799621Y-131756333D01*
X134802500Y-131783116D01*
X134802500Y-134928290D01*
X134802020Y-134939272D01*
X134800204Y-134960033D01*
X134798736Y-134976807D01*
X134808491Y-135013210D01*
X134810870Y-135023942D01*
X134817412Y-135061045D01*
X134822923Y-135070590D01*
X134824115Y-135073866D01*
X134825592Y-135077034D01*
X134828446Y-135087684D01*
X134843238Y-135108808D01*
X134850055Y-135118544D01*
X134855961Y-135127815D01*
X134865743Y-135144757D01*
X134874806Y-135160455D01*
X134883251Y-135167541D01*
X134903675Y-135184679D01*
X134911779Y-135192106D01*
X135158257Y-135438584D01*
X135192283Y-135500896D01*
X135189264Y-135565776D01*
X135127484Y-135760532D01*
X135126798Y-135766649D01*
X135126797Y-135766653D01*
X135105207Y-135959137D01*
X135104520Y-135965262D01*
X135121759Y-136170553D01*
X135178544Y-136368586D01*
X135181359Y-136374063D01*
X135181360Y-136374066D01*
X135257321Y-136521870D01*
X135272712Y-136551818D01*
X135400677Y-136713270D01*
X135557564Y-136846791D01*
X135562942Y-136849797D01*
X135562944Y-136849798D01*
X135593387Y-136866812D01*
X135737398Y-136947297D01*
X135821280Y-136974552D01*
X135927471Y-137009056D01*
X135927475Y-137009057D01*
X135933329Y-137010959D01*
X136137894Y-137035351D01*
X136144029Y-137034879D01*
X136144031Y-137034879D01*
X136216625Y-137029293D01*
X136343300Y-137019546D01*
X136349230Y-137017890D01*
X136349232Y-137017890D01*
X136535797Y-136965800D01*
X136535796Y-136965800D01*
X136541725Y-136964145D01*
X136547214Y-136961372D01*
X136547220Y-136961370D01*
X136720116Y-136874033D01*
X136725610Y-136871258D01*
X136741345Y-136858965D01*
X136883101Y-136748213D01*
X136887951Y-136744424D01*
X136913857Y-136714412D01*
X137018540Y-136593134D01*
X137018540Y-136593133D01*
X137022564Y-136588472D01*
X137032673Y-136570678D01*
X137121276Y-136414707D01*
X137124323Y-136409344D01*
X137189351Y-136213863D01*
X137215171Y-136009474D01*
X137215583Y-135980000D01*
X137195480Y-135774970D01*
X137135935Y-135577749D01*
X137039218Y-135395849D01*
X136924244Y-135254877D01*
X136912906Y-135240975D01*
X136912903Y-135240972D01*
X136909011Y-135236200D01*
X136855711Y-135192106D01*
X136755025Y-135108811D01*
X136755021Y-135108808D01*
X136750275Y-135104882D01*
X136569055Y-135006897D01*
X136372254Y-134945977D01*
X136366129Y-134945333D01*
X136366128Y-134945333D01*
X136173498Y-134925087D01*
X136173496Y-134925087D01*
X136167369Y-134924443D01*
X136080529Y-134932346D01*
X135968342Y-134942555D01*
X135968339Y-134942556D01*
X135962203Y-134943114D01*
X135764572Y-135001280D01*
X135759112Y-135004134D01*
X135754779Y-135005885D01*
X135684126Y-135012858D01*
X135618483Y-134978156D01*
X135490405Y-134850079D01*
X135456380Y-134787767D01*
X135453500Y-134760983D01*
X135453500Y-132049216D01*
X135473502Y-131981095D01*
X135527158Y-131934602D01*
X135597432Y-131924498D01*
X135662012Y-131953992D01*
X135668595Y-131960121D01*
X138337595Y-134629121D01*
X138371621Y-134691433D01*
X138374500Y-134718216D01*
X138374500Y-134888688D01*
X138354498Y-134956809D01*
X138303436Y-134999107D01*
X138304572Y-135001280D01*
X138122002Y-135096726D01*
X138117201Y-135100586D01*
X138117198Y-135100588D01*
X137995694Y-135198280D01*
X137961447Y-135225815D01*
X137829024Y-135383630D01*
X137826056Y-135389028D01*
X137826053Y-135389033D01*
X137763142Y-135503469D01*
X137729776Y-135564162D01*
X137667484Y-135760532D01*
X137666798Y-135766649D01*
X137666797Y-135766653D01*
X137645207Y-135959137D01*
X137644520Y-135965262D01*
X137661759Y-136170553D01*
X137718544Y-136368586D01*
X137721359Y-136374063D01*
X137721360Y-136374066D01*
X137797321Y-136521870D01*
X137812712Y-136551818D01*
X137940677Y-136713270D01*
X138097564Y-136846791D01*
X138102942Y-136849797D01*
X138102944Y-136849798D01*
X138133387Y-136866812D01*
X138277398Y-136947297D01*
X138361280Y-136974552D01*
X138467471Y-137009056D01*
X138467475Y-137009057D01*
X138473329Y-137010959D01*
X138677894Y-137035351D01*
X138684029Y-137034879D01*
X138684031Y-137034879D01*
X138756625Y-137029293D01*
X138883300Y-137019546D01*
X138889230Y-137017890D01*
X138889232Y-137017890D01*
X139075797Y-136965800D01*
X139075796Y-136965800D01*
X139081725Y-136964145D01*
X139087214Y-136961372D01*
X139087220Y-136961370D01*
X139260116Y-136874033D01*
X139265610Y-136871258D01*
X139281345Y-136858965D01*
X139423095Y-136748218D01*
X139423096Y-136748217D01*
X139427951Y-136744424D01*
X139431726Y-136740051D01*
X139494732Y-136707619D01*
X139565403Y-136714412D01*
X139621183Y-136758334D01*
X139644500Y-136831357D01*
X139644500Y-137283290D01*
X139644020Y-137294272D01*
X139642260Y-137314393D01*
X139640736Y-137331807D01*
X139646923Y-137354896D01*
X139650491Y-137368210D01*
X139652870Y-137378942D01*
X139659412Y-137416045D01*
X139664923Y-137425590D01*
X139666115Y-137428866D01*
X139667592Y-137432034D01*
X139670446Y-137442684D01*
X139676770Y-137451715D01*
X139692055Y-137473544D01*
X139697961Y-137482815D01*
X139698331Y-137483455D01*
X139716806Y-137515455D01*
X139735592Y-137531218D01*
X139745675Y-137539679D01*
X139753780Y-137547106D01*
X140471901Y-138265228D01*
X140479327Y-138273331D01*
X140503545Y-138302194D01*
X140513088Y-138307704D01*
X140513092Y-138307707D01*
X140536179Y-138321036D01*
X140545448Y-138326940D01*
X140576316Y-138348554D01*
X140586964Y-138351407D01*
X140590135Y-138352886D01*
X140593411Y-138354078D01*
X140602955Y-138359588D01*
X140640076Y-138366134D01*
X140650783Y-138368508D01*
X140687193Y-138378263D01*
X140698168Y-138377303D01*
X140698170Y-138377303D01*
X140724731Y-138374979D01*
X140735712Y-138374500D01*
X142982290Y-138374500D01*
X142993272Y-138374980D01*
X143019820Y-138377303D01*
X143019822Y-138377303D01*
X143030807Y-138378264D01*
X143067215Y-138368508D01*
X143077942Y-138366130D01*
X143081301Y-138365538D01*
X143115045Y-138359588D01*
X143124590Y-138354077D01*
X143127866Y-138352885D01*
X143131034Y-138351408D01*
X143141684Y-138348554D01*
X143172550Y-138326941D01*
X143181815Y-138321039D01*
X143204906Y-138307707D01*
X143214455Y-138302194D01*
X143238685Y-138273317D01*
X143246111Y-138265215D01*
X143996215Y-137515111D01*
X144004319Y-137507684D01*
X144024749Y-137490541D01*
X144033194Y-137483455D01*
X144051519Y-137451715D01*
X144052039Y-137450815D01*
X144057945Y-137441544D01*
X144059032Y-137439991D01*
X144079554Y-137410684D01*
X144082408Y-137400033D01*
X144083888Y-137396860D01*
X144085079Y-137393588D01*
X144090588Y-137384045D01*
X144097134Y-137346924D01*
X144099508Y-137336217D01*
X144109263Y-137299807D01*
X144107746Y-137282460D01*
X144105979Y-137262269D01*
X144105500Y-137251288D01*
X144105500Y-137156500D01*
X144125502Y-137088379D01*
X144179158Y-137041886D01*
X144231500Y-137030500D01*
X144649748Y-137030500D01*
X144655816Y-137029293D01*
X144696061Y-137021288D01*
X144696062Y-137021288D01*
X144708231Y-137018867D01*
X144774552Y-136974552D01*
X144818867Y-136908231D01*
X144825670Y-136874033D01*
X144829293Y-136855816D01*
X144830500Y-136849748D01*
X144830500Y-135110252D01*
X144826011Y-135087684D01*
X144821288Y-135063939D01*
X144821288Y-135063938D01*
X144818867Y-135051769D01*
X144774552Y-134985448D01*
X144708231Y-134941133D01*
X144696062Y-134938712D01*
X144696061Y-134938712D01*
X144655816Y-134930707D01*
X144649748Y-134929500D01*
X142910252Y-134929500D01*
X142904184Y-134930707D01*
X142863939Y-134938712D01*
X142863938Y-134938712D01*
X142851769Y-134941133D01*
X142785448Y-134985448D01*
X142741133Y-135051769D01*
X142738712Y-135063938D01*
X142738712Y-135063939D01*
X142733989Y-135087684D01*
X142729500Y-135110252D01*
X142729500Y-135394016D01*
X142709498Y-135462137D01*
X142655842Y-135508630D01*
X142585568Y-135518734D01*
X142520988Y-135489240D01*
X142487950Y-135444258D01*
X142442972Y-135340814D01*
X142438105Y-135331739D01*
X142322426Y-135152926D01*
X142316136Y-135144757D01*
X142172806Y-134987240D01*
X142165273Y-134980215D01*
X141998139Y-134848222D01*
X141989552Y-134842517D01*
X141803117Y-134739599D01*
X141793705Y-134735369D01*
X141592959Y-134664280D01*
X141582988Y-134661646D01*
X141511837Y-134648972D01*
X141498540Y-134650432D01*
X141494000Y-134664989D01*
X141494000Y-137298517D01*
X141498064Y-137312359D01*
X141511478Y-137314393D01*
X141518184Y-137313534D01*
X141528262Y-137311392D01*
X141732255Y-137250191D01*
X141741842Y-137246433D01*
X141933095Y-137152739D01*
X141941945Y-137147464D01*
X142115328Y-137023792D01*
X142123200Y-137017139D01*
X142274052Y-136866812D01*
X142280730Y-136858965D01*
X142405003Y-136686020D01*
X142410313Y-136677183D01*
X142490543Y-136514851D01*
X142538657Y-136462644D01*
X142607358Y-136444737D01*
X142674834Y-136466816D01*
X142719663Y-136521870D01*
X142729500Y-136570678D01*
X142729500Y-136849748D01*
X142730707Y-136855816D01*
X142734331Y-136874033D01*
X142741133Y-136908231D01*
X142785448Y-136974552D01*
X142851769Y-137018867D01*
X142863938Y-137021288D01*
X142863939Y-137021288D01*
X142904184Y-137029293D01*
X142910252Y-137030500D01*
X143255984Y-137030500D01*
X143324105Y-137050502D01*
X143370598Y-137104158D01*
X143380702Y-137174432D01*
X143351208Y-137239012D01*
X143345079Y-137245595D01*
X142904079Y-137686595D01*
X142841767Y-137720621D01*
X142814984Y-137723500D01*
X140903018Y-137723500D01*
X140834897Y-137703498D01*
X140813923Y-137686595D01*
X140558985Y-137431657D01*
X140524959Y-137369345D01*
X140530024Y-137298530D01*
X140572571Y-137241694D01*
X140639091Y-137216883D01*
X140693029Y-137224852D01*
X140855001Y-137286703D01*
X140864899Y-137289579D01*
X140968250Y-137310606D01*
X140982299Y-137309410D01*
X140986000Y-137299065D01*
X140986000Y-134663102D01*
X140982082Y-134649758D01*
X140967806Y-134647771D01*
X140929324Y-134653660D01*
X140919288Y-134656051D01*
X140716868Y-134722212D01*
X140707359Y-134726209D01*
X140518463Y-134824542D01*
X140509743Y-134830033D01*
X140497155Y-134839485D01*
X140430671Y-134864392D01*
X140361275Y-134849401D01*
X140311000Y-134799271D01*
X140295500Y-134738726D01*
X140295500Y-134147711D01*
X140295980Y-134136729D01*
X140298303Y-134110176D01*
X140299264Y-134099194D01*
X140296410Y-134088542D01*
X140289511Y-134062792D01*
X140287133Y-134052065D01*
X140282504Y-134025815D01*
X140282502Y-134025810D01*
X140280588Y-134014955D01*
X140275075Y-134005407D01*
X140273883Y-134002131D01*
X140272409Y-133998969D01*
X140269554Y-133988316D01*
X140247945Y-133957456D01*
X140242039Y-133948185D01*
X140228707Y-133925094D01*
X140223194Y-133915545D01*
X140194317Y-133891315D01*
X140186215Y-133883889D01*
X136263411Y-129961085D01*
X136255984Y-129952981D01*
X136238841Y-129932551D01*
X136238842Y-129932551D01*
X136231755Y-129924106D01*
X136220398Y-129917549D01*
X136199115Y-129905261D01*
X136189844Y-129899355D01*
X136168015Y-129884070D01*
X136158984Y-129877746D01*
X136148334Y-129874892D01*
X136145166Y-129873415D01*
X136141890Y-129872223D01*
X136132345Y-129866712D01*
X136098601Y-129860762D01*
X136095242Y-129860170D01*
X136084515Y-129857792D01*
X136048107Y-129848036D01*
X136037120Y-129848997D01*
X136036957Y-129848983D01*
X135970839Y-129823119D01*
X135929200Y-129765616D01*
X135925259Y-129694729D01*
X135931531Y-129675243D01*
X135955783Y-129616695D01*
X135955784Y-129616690D01*
X135958944Y-129609062D01*
X135963565Y-129573963D01*
X135992288Y-129509036D01*
X136051554Y-129469945D01*
X136077503Y-129464891D01*
X136093628Y-129463480D01*
X136104612Y-129463000D01*
X137574642Y-129463000D01*
X137630206Y-129477888D01*
X137630559Y-129477036D01*
X137638185Y-129480195D01*
X137638187Y-129480196D01*
X137769009Y-129534384D01*
X137776638Y-129537544D01*
X137933400Y-129558182D01*
X137941588Y-129557104D01*
X138081974Y-129538622D01*
X138090162Y-129537544D01*
X138236241Y-129477036D01*
X138361682Y-129380782D01*
X138457936Y-129255341D01*
X138518444Y-129109262D01*
X138539082Y-128952500D01*
X138534526Y-128917892D01*
X138532054Y-128899115D01*
X138542994Y-128828966D01*
X138589223Y-128776881D01*
X138526046Y-128757510D01*
X138479015Y-128700548D01*
X138461098Y-128657291D01*
X138461095Y-128657287D01*
X138457936Y-128649659D01*
X138361682Y-128524218D01*
X138347665Y-128513462D01*
X138267224Y-128451738D01*
X138236241Y-128427964D01*
X138090162Y-128367456D01*
X137933400Y-128346818D01*
X137776638Y-128367456D01*
X137630559Y-128427964D01*
X137599576Y-128451738D01*
X137519136Y-128513462D01*
X137505118Y-128524218D01*
X137408864Y-128649659D01*
X137405703Y-128657291D01*
X137373838Y-128734219D01*
X137329289Y-128789499D01*
X137257429Y-128812000D01*
X136993958Y-128812000D01*
X136925837Y-128791998D01*
X136879344Y-128738342D01*
X136869240Y-128668068D01*
X136877549Y-128637782D01*
X136925884Y-128521091D01*
X136929044Y-128513462D01*
X136932414Y-128487868D01*
X136941870Y-128416041D01*
X136949682Y-128356700D01*
X136929044Y-128199938D01*
X136868536Y-128053859D01*
X136772282Y-127928418D01*
X136646841Y-127832164D01*
X136500762Y-127771656D01*
X136344000Y-127751018D01*
X136277157Y-127759818D01*
X136207010Y-127748879D01*
X136171617Y-127723991D01*
X132315405Y-123867779D01*
X132281379Y-123805467D01*
X132278500Y-123778684D01*
X132278500Y-110255710D01*
X132278980Y-110244728D01*
X132281303Y-110218180D01*
X132281303Y-110218178D01*
X132282264Y-110207193D01*
X132272508Y-110170785D01*
X132270130Y-110160058D01*
X132268936Y-110153287D01*
X132263588Y-110122955D01*
X132258077Y-110113410D01*
X132256885Y-110110134D01*
X132255408Y-110106966D01*
X132252554Y-110096316D01*
X132230945Y-110065456D01*
X132225039Y-110056185D01*
X132211707Y-110033094D01*
X132206194Y-110023545D01*
X132177317Y-109999315D01*
X132169215Y-109991889D01*
X127499129Y-105321803D01*
X127465103Y-105259491D01*
X127462954Y-105222494D01*
X127463500Y-105219748D01*
X127463500Y-104271069D01*
X127798164Y-104271069D01*
X127811392Y-104472894D01*
X127861178Y-104668928D01*
X127945856Y-104852607D01*
X128062588Y-105017780D01*
X128207466Y-105158913D01*
X128375637Y-105271282D01*
X128380940Y-105273560D01*
X128380943Y-105273562D01*
X128545580Y-105344295D01*
X128561470Y-105351122D01*
X128657361Y-105372820D01*
X128728278Y-105388867D01*
X128758740Y-105395760D01*
X128764509Y-105395987D01*
X128764512Y-105395987D01*
X128840683Y-105398979D01*
X128960842Y-105403700D01*
X129047132Y-105391189D01*
X129155286Y-105375508D01*
X129155291Y-105375507D01*
X129161007Y-105374678D01*
X129166479Y-105372820D01*
X129166481Y-105372820D01*
X129347067Y-105311519D01*
X129347069Y-105311518D01*
X129352531Y-105309664D01*
X129513089Y-105219748D01*
X130362500Y-105219748D01*
X130374133Y-105278231D01*
X130418448Y-105344552D01*
X130484769Y-105388867D01*
X130496938Y-105391288D01*
X130496939Y-105391288D01*
X130537184Y-105399293D01*
X130543252Y-105400500D01*
X131011500Y-105400500D01*
X131079621Y-105420502D01*
X131126114Y-105474158D01*
X131137500Y-105526500D01*
X131137500Y-106218940D01*
X131137020Y-106229922D01*
X131133736Y-106267457D01*
X131136590Y-106278106D01*
X131143491Y-106303860D01*
X131145870Y-106314592D01*
X131152412Y-106351695D01*
X131157923Y-106361240D01*
X131159115Y-106364516D01*
X131160592Y-106367684D01*
X131163446Y-106378334D01*
X131169770Y-106387365D01*
X131185055Y-106409194D01*
X131190961Y-106418465D01*
X131204229Y-106441445D01*
X131209806Y-106451105D01*
X131218251Y-106458191D01*
X131238682Y-106475335D01*
X131246785Y-106482761D01*
X132860595Y-108096571D01*
X132894621Y-108158883D01*
X132897500Y-108185666D01*
X132897500Y-122466790D01*
X132897020Y-122477772D01*
X132893736Y-122515307D01*
X132903491Y-122551710D01*
X132905870Y-122562442D01*
X132912412Y-122599545D01*
X132917923Y-122609090D01*
X132919115Y-122612366D01*
X132920592Y-122615534D01*
X132923446Y-122626184D01*
X132929770Y-122635215D01*
X132945055Y-122657044D01*
X132950961Y-122666315D01*
X132958340Y-122679095D01*
X132969806Y-122698955D01*
X132991365Y-122717045D01*
X132998682Y-122723185D01*
X133006785Y-122730611D01*
X138686291Y-128410117D01*
X138720317Y-128472429D01*
X138722118Y-128515657D01*
X138713318Y-128582500D01*
X138714396Y-128590688D01*
X138714396Y-128590689D01*
X138720346Y-128635885D01*
X138709406Y-128706034D01*
X138663177Y-128758119D01*
X138726354Y-128777490D01*
X138773385Y-128834452D01*
X138791302Y-128877709D01*
X138791305Y-128877713D01*
X138794464Y-128885341D01*
X138890718Y-129010782D01*
X139016159Y-129107036D01*
X139162238Y-129167544D01*
X139319000Y-129188182D01*
X139327188Y-129187104D01*
X139467574Y-129168622D01*
X139475762Y-129167544D01*
X139621841Y-129107036D01*
X139747282Y-129010782D01*
X139843536Y-128885341D01*
X139904044Y-128739262D01*
X139924682Y-128582500D01*
X139905835Y-128439342D01*
X139905122Y-128433926D01*
X139904044Y-128425738D01*
X139843536Y-128279659D01*
X139772255Y-128186764D01*
X139752305Y-128160764D01*
X139747282Y-128154218D01*
X139621841Y-128057964D01*
X139475762Y-127997456D01*
X139319000Y-127976818D01*
X139252157Y-127985618D01*
X139182010Y-127974679D01*
X139146617Y-127949791D01*
X133585405Y-122388579D01*
X133551379Y-122326267D01*
X133548500Y-122299484D01*
X133548500Y-118609420D01*
X135835575Y-118609420D01*
X135838358Y-118613138D01*
X135976400Y-118664475D01*
X135989991Y-118667864D01*
X136141808Y-118688121D01*
X136155804Y-118688414D01*
X136308331Y-118674533D01*
X136322055Y-118671716D01*
X136467719Y-118624387D01*
X136480469Y-118618603D01*
X136482299Y-118617512D01*
X136489802Y-118609420D01*
X137360575Y-118609420D01*
X137363358Y-118613138D01*
X137501400Y-118664475D01*
X137514991Y-118667864D01*
X137666808Y-118688121D01*
X137680804Y-118688414D01*
X137833331Y-118674533D01*
X137847055Y-118671716D01*
X137992719Y-118624387D01*
X138005469Y-118618603D01*
X138007299Y-118617512D01*
X138016887Y-118607171D01*
X138013381Y-118598757D01*
X137702312Y-118287688D01*
X137688368Y-118280074D01*
X137686533Y-118280205D01*
X137679923Y-118284453D01*
X137367334Y-118597041D01*
X137360575Y-118609420D01*
X136489802Y-118609420D01*
X136491887Y-118607171D01*
X136488381Y-118598757D01*
X136177312Y-118287688D01*
X136163368Y-118280074D01*
X136161533Y-118280205D01*
X136154923Y-118284453D01*
X135842334Y-118597041D01*
X135835575Y-118609420D01*
X133548500Y-118609420D01*
X133548500Y-117846920D01*
X135073075Y-117846920D01*
X135075858Y-117850638D01*
X135213900Y-117901975D01*
X135227491Y-117905364D01*
X135315542Y-117917112D01*
X135380419Y-117945947D01*
X135419407Y-118005280D01*
X135424277Y-118029709D01*
X135429990Y-118087971D01*
X135432901Y-118101664D01*
X135481246Y-118246993D01*
X135486213Y-118257743D01*
X135495988Y-118266680D01*
X135504607Y-118263018D01*
X135815816Y-117951808D01*
X135822193Y-117940129D01*
X136505574Y-117940129D01*
X136505705Y-117941967D01*
X136509955Y-117948579D01*
X136822122Y-118260747D01*
X136834501Y-118267506D01*
X136854006Y-118252905D01*
X136920527Y-118228094D01*
X136989901Y-118243186D01*
X137014533Y-118260779D01*
X137020988Y-118266680D01*
X137029607Y-118263018D01*
X137340816Y-117951808D01*
X137347193Y-117940129D01*
X138030574Y-117940129D01*
X138030705Y-117941967D01*
X138034955Y-117948579D01*
X138347122Y-118260747D01*
X138359501Y-118267506D01*
X138363317Y-118264649D01*
X138413646Y-118132157D01*
X138417128Y-118118596D01*
X138430321Y-118024724D01*
X138459609Y-117960050D01*
X138519213Y-117921477D01*
X138543676Y-117916778D01*
X138595840Y-117912031D01*
X138609555Y-117909216D01*
X138755219Y-117861887D01*
X138767969Y-117856103D01*
X138769799Y-117855012D01*
X138779387Y-117844671D01*
X138775881Y-117836257D01*
X138464812Y-117525188D01*
X138450868Y-117517574D01*
X138449033Y-117517705D01*
X138442423Y-117521953D01*
X138064505Y-117899870D01*
X138064503Y-117899872D01*
X138038185Y-117926191D01*
X138030574Y-117940129D01*
X137347193Y-117940129D01*
X137348427Y-117937870D01*
X137348295Y-117936034D01*
X137344046Y-117929422D01*
X136966130Y-117551505D01*
X136966128Y-117551503D01*
X136939809Y-117525185D01*
X136925871Y-117517574D01*
X136924033Y-117517705D01*
X136917421Y-117521955D01*
X136539505Y-117899870D01*
X136539503Y-117899872D01*
X136513185Y-117926191D01*
X136505574Y-117940129D01*
X135822193Y-117940129D01*
X135823427Y-117937870D01*
X135823295Y-117936034D01*
X135819046Y-117929422D01*
X135441130Y-117551505D01*
X135441128Y-117551503D01*
X135414809Y-117525185D01*
X135400871Y-117517574D01*
X135399033Y-117517705D01*
X135392421Y-117521955D01*
X135079834Y-117834541D01*
X135073075Y-117846920D01*
X133548500Y-117846920D01*
X133548500Y-117173037D01*
X134652544Y-117173037D01*
X134667490Y-117325470D01*
X134670401Y-117339164D01*
X134718746Y-117484493D01*
X134723713Y-117495243D01*
X134733488Y-117504180D01*
X134742107Y-117500518D01*
X135053316Y-117189308D01*
X135059693Y-117177629D01*
X135743074Y-117177629D01*
X135743205Y-117179468D01*
X135747453Y-117186077D01*
X135777005Y-117215630D01*
X135777004Y-117215630D01*
X135777005Y-117215631D01*
X136151690Y-117590315D01*
X136165630Y-117597927D01*
X136167466Y-117597795D01*
X136174078Y-117593546D01*
X136551995Y-117215630D01*
X136551997Y-117215628D01*
X136578315Y-117189309D01*
X136584693Y-117177629D01*
X137268074Y-117177629D01*
X137268205Y-117179468D01*
X137272453Y-117186077D01*
X137302005Y-117215630D01*
X137302004Y-117215630D01*
X137302005Y-117215631D01*
X137676690Y-117590315D01*
X137690630Y-117597927D01*
X137692466Y-117597795D01*
X137699078Y-117593546D01*
X138076995Y-117215630D01*
X138076997Y-117215628D01*
X138103315Y-117189309D01*
X138109692Y-117177630D01*
X138793073Y-117177630D01*
X138793205Y-117179466D01*
X138797454Y-117186078D01*
X139109622Y-117498247D01*
X139122001Y-117505006D01*
X139125817Y-117502149D01*
X139176146Y-117369657D01*
X139179628Y-117356096D01*
X139201374Y-117201369D01*
X139201980Y-117193487D01*
X139202162Y-117180447D01*
X139201777Y-117172577D01*
X139184359Y-117017290D01*
X139181257Y-117003637D01*
X139130889Y-116859000D01*
X139128976Y-116855009D01*
X139121271Y-116848159D01*
X139112220Y-116852155D01*
X138800684Y-117163692D01*
X138793073Y-117177630D01*
X138109692Y-117177630D01*
X138110926Y-117175371D01*
X138110795Y-117173533D01*
X138106545Y-117166921D01*
X137728630Y-116789005D01*
X137728628Y-116789003D01*
X137702309Y-116762685D01*
X137688371Y-116755074D01*
X137686533Y-116755205D01*
X137679921Y-116759455D01*
X137302005Y-117137370D01*
X137302003Y-117137372D01*
X137275685Y-117163691D01*
X137268074Y-117177629D01*
X136584693Y-117177629D01*
X136585926Y-117175371D01*
X136585795Y-117173533D01*
X136581545Y-117166921D01*
X136203630Y-116789005D01*
X136203628Y-116789003D01*
X136177309Y-116762685D01*
X136163371Y-116755074D01*
X136161533Y-116755205D01*
X136154921Y-116759455D01*
X135777005Y-117137370D01*
X135777003Y-117137372D01*
X135750685Y-117163691D01*
X135743074Y-117177629D01*
X135059693Y-117177629D01*
X135060927Y-117175370D01*
X135060795Y-117173534D01*
X135056546Y-117166922D01*
X134743825Y-116854201D01*
X134731445Y-116847441D01*
X134727231Y-116850596D01*
X134675227Y-116993473D01*
X134671935Y-117007081D01*
X134652740Y-117159031D01*
X134652544Y-117173037D01*
X133548500Y-117173037D01*
X133548500Y-116321920D01*
X135073075Y-116321920D01*
X135087362Y-116341005D01*
X135112173Y-116407525D01*
X135097082Y-116476899D01*
X135080075Y-116500886D01*
X135074003Y-116507621D01*
X135077827Y-116516451D01*
X135389188Y-116827812D01*
X135403132Y-116835426D01*
X135404967Y-116835295D01*
X135411577Y-116831047D01*
X135789495Y-116453130D01*
X135789497Y-116453128D01*
X135815815Y-116426809D01*
X135822193Y-116415129D01*
X136505574Y-116415129D01*
X136505705Y-116416968D01*
X136509953Y-116423577D01*
X136539505Y-116453130D01*
X136539504Y-116453130D01*
X136539505Y-116453131D01*
X136914190Y-116827815D01*
X136928130Y-116835427D01*
X136929966Y-116835295D01*
X136936578Y-116831046D01*
X137314495Y-116453130D01*
X137314497Y-116453128D01*
X137340815Y-116426809D01*
X137347193Y-116415129D01*
X138030574Y-116415129D01*
X138030705Y-116416968D01*
X138034953Y-116423577D01*
X138064505Y-116453130D01*
X138064504Y-116453130D01*
X138064505Y-116453131D01*
X138439190Y-116827815D01*
X138453130Y-116835427D01*
X138454966Y-116835295D01*
X138461578Y-116831046D01*
X138773900Y-116518725D01*
X138780659Y-116506347D01*
X138765745Y-116486425D01*
X138740934Y-116419905D01*
X138756025Y-116350530D01*
X138774218Y-116325246D01*
X138779387Y-116319671D01*
X138775881Y-116311257D01*
X138464812Y-116000188D01*
X138450868Y-115992574D01*
X138449033Y-115992705D01*
X138442423Y-115996953D01*
X138064505Y-116374870D01*
X138064503Y-116374872D01*
X138038185Y-116401191D01*
X138030574Y-116415129D01*
X137347193Y-116415129D01*
X137348426Y-116412871D01*
X137348295Y-116411033D01*
X137344045Y-116404421D01*
X136966130Y-116026505D01*
X136966128Y-116026503D01*
X136939809Y-116000185D01*
X136925871Y-115992574D01*
X136924033Y-115992705D01*
X136917421Y-115996955D01*
X136539505Y-116374870D01*
X136539503Y-116374872D01*
X136513185Y-116401191D01*
X136505574Y-116415129D01*
X135822193Y-116415129D01*
X135823426Y-116412871D01*
X135823295Y-116411033D01*
X135819045Y-116404421D01*
X135441130Y-116026505D01*
X135441128Y-116026503D01*
X135414809Y-116000185D01*
X135400871Y-115992574D01*
X135399033Y-115992705D01*
X135392421Y-115996955D01*
X135079834Y-116309541D01*
X135073075Y-116321920D01*
X133548500Y-116321920D01*
X133548500Y-115648037D01*
X134652544Y-115648037D01*
X134667490Y-115800470D01*
X134670401Y-115814164D01*
X134718746Y-115959493D01*
X134723713Y-115970243D01*
X134733488Y-115979180D01*
X134742107Y-115975518D01*
X135053316Y-115664308D01*
X135059693Y-115652629D01*
X135743074Y-115652629D01*
X135743205Y-115654468D01*
X135747453Y-115661077D01*
X135777005Y-115690630D01*
X135777004Y-115690630D01*
X135777005Y-115690631D01*
X136151690Y-116065315D01*
X136165630Y-116072927D01*
X136167466Y-116072795D01*
X136174078Y-116068546D01*
X136551995Y-115690630D01*
X136551997Y-115690628D01*
X136578315Y-115664309D01*
X136584693Y-115652629D01*
X137268074Y-115652629D01*
X137268205Y-115654468D01*
X137272453Y-115661077D01*
X137302005Y-115690630D01*
X137302004Y-115690630D01*
X137302005Y-115690631D01*
X137676690Y-116065315D01*
X137690630Y-116072927D01*
X137692466Y-116072795D01*
X137699078Y-116068546D01*
X138076995Y-115690630D01*
X138076997Y-115690628D01*
X138103315Y-115664309D01*
X138109692Y-115652630D01*
X138793073Y-115652630D01*
X138793205Y-115654466D01*
X138797454Y-115661078D01*
X139109622Y-115973247D01*
X139122001Y-115980006D01*
X139125817Y-115977149D01*
X139176146Y-115844657D01*
X139179628Y-115831096D01*
X139201374Y-115676369D01*
X139201980Y-115668487D01*
X139202162Y-115655447D01*
X139201777Y-115647577D01*
X139184359Y-115492290D01*
X139181257Y-115478637D01*
X139130889Y-115334000D01*
X139128976Y-115330009D01*
X139121271Y-115323159D01*
X139112220Y-115327155D01*
X138800684Y-115638692D01*
X138793073Y-115652630D01*
X138109692Y-115652630D01*
X138110926Y-115650371D01*
X138110795Y-115648533D01*
X138106545Y-115641921D01*
X137728630Y-115264005D01*
X137728628Y-115264003D01*
X137702309Y-115237685D01*
X137688371Y-115230074D01*
X137686533Y-115230205D01*
X137679921Y-115234455D01*
X137302005Y-115612370D01*
X137302003Y-115612372D01*
X137275685Y-115638691D01*
X137268074Y-115652629D01*
X136584693Y-115652629D01*
X136585926Y-115650371D01*
X136585795Y-115648533D01*
X136581545Y-115641921D01*
X136203630Y-115264005D01*
X136203628Y-115264003D01*
X136177309Y-115237685D01*
X136163371Y-115230074D01*
X136161533Y-115230205D01*
X136154921Y-115234455D01*
X135777005Y-115612370D01*
X135777003Y-115612372D01*
X135750685Y-115638691D01*
X135743074Y-115652629D01*
X135059693Y-115652629D01*
X135060927Y-115650370D01*
X135060795Y-115648534D01*
X135056546Y-115641922D01*
X134743825Y-115329201D01*
X134731445Y-115322441D01*
X134727231Y-115325596D01*
X134675227Y-115468473D01*
X134671935Y-115482081D01*
X134652740Y-115634031D01*
X134652544Y-115648037D01*
X133548500Y-115648037D01*
X133548500Y-114982621D01*
X135074003Y-114982621D01*
X135077827Y-114991451D01*
X135389188Y-115302812D01*
X135403132Y-115310426D01*
X135404967Y-115310295D01*
X135411577Y-115306047D01*
X135789495Y-114928130D01*
X135789497Y-114928128D01*
X135815815Y-114901809D01*
X135822192Y-114890130D01*
X136505573Y-114890130D01*
X136505705Y-114891966D01*
X136509954Y-114898578D01*
X136539505Y-114928130D01*
X136539504Y-114928130D01*
X136539505Y-114928131D01*
X136914190Y-115302815D01*
X136928130Y-115310427D01*
X136929966Y-115310295D01*
X136936578Y-115306046D01*
X137314495Y-114928130D01*
X137314497Y-114928128D01*
X137340815Y-114901809D01*
X137347192Y-114890130D01*
X138030573Y-114890130D01*
X138030705Y-114891966D01*
X138034954Y-114898578D01*
X138064505Y-114928130D01*
X138064504Y-114928130D01*
X138064505Y-114928131D01*
X138439190Y-115302815D01*
X138453130Y-115310427D01*
X138454966Y-115310295D01*
X138461578Y-115306046D01*
X138773900Y-114993725D01*
X138780659Y-114981346D01*
X138776689Y-114976043D01*
X138774232Y-114974844D01*
X138629948Y-114923467D01*
X138616323Y-114920272D01*
X138540041Y-114911175D01*
X138474768Y-114883247D01*
X138434956Y-114824464D01*
X138429746Y-114800106D01*
X138421859Y-114729790D01*
X138418757Y-114716137D01*
X138368389Y-114571500D01*
X138366476Y-114567509D01*
X138358771Y-114560659D01*
X138349720Y-114564655D01*
X138038184Y-114876192D01*
X138030573Y-114890130D01*
X137347192Y-114890130D01*
X137348426Y-114887871D01*
X137348295Y-114886034D01*
X137344044Y-114879420D01*
X137031325Y-114566701D01*
X137018945Y-114559941D01*
X137000329Y-114573877D01*
X136933809Y-114598688D01*
X136864435Y-114583597D01*
X136841110Y-114567183D01*
X136833771Y-114560659D01*
X136824720Y-114564655D01*
X136513184Y-114876192D01*
X136505573Y-114890130D01*
X135822192Y-114890130D01*
X135823426Y-114887871D01*
X135823295Y-114886034D01*
X135819044Y-114879420D01*
X135506325Y-114566701D01*
X135493945Y-114559941D01*
X135489731Y-114563096D01*
X135437727Y-114705973D01*
X135434435Y-114719582D01*
X135424052Y-114801770D01*
X135395670Y-114866847D01*
X135336610Y-114906248D01*
X135312217Y-114911288D01*
X135247902Y-114918048D01*
X135234238Y-114921053D01*
X135089243Y-114970412D01*
X135081889Y-114973873D01*
X135074003Y-114982621D01*
X133548500Y-114982621D01*
X133548500Y-114220121D01*
X135836503Y-114220121D01*
X135840327Y-114228951D01*
X136151688Y-114540312D01*
X136165632Y-114547926D01*
X136167467Y-114547795D01*
X136174077Y-114543547D01*
X136486400Y-114231225D01*
X136492463Y-114220121D01*
X137361503Y-114220121D01*
X137365327Y-114228951D01*
X137676688Y-114540312D01*
X137690632Y-114547926D01*
X137692467Y-114547795D01*
X137699077Y-114543547D01*
X138011400Y-114231225D01*
X138018159Y-114218846D01*
X138014189Y-114213543D01*
X138011732Y-114212344D01*
X137867448Y-114160967D01*
X137853822Y-114157771D01*
X137701729Y-114139635D01*
X137687733Y-114139537D01*
X137535402Y-114155548D01*
X137521738Y-114158553D01*
X137376743Y-114207912D01*
X137369389Y-114211373D01*
X137361503Y-114220121D01*
X136492463Y-114220121D01*
X136493159Y-114218846D01*
X136489189Y-114213543D01*
X136486732Y-114212344D01*
X136342448Y-114160967D01*
X136328822Y-114157771D01*
X136176729Y-114139635D01*
X136162733Y-114139537D01*
X136010402Y-114155548D01*
X135996738Y-114158553D01*
X135851743Y-114207912D01*
X135844389Y-114211373D01*
X135836503Y-114220121D01*
X133548500Y-114220121D01*
X133548500Y-108018360D01*
X133548980Y-108007378D01*
X133551303Y-107980830D01*
X133551303Y-107980828D01*
X133552264Y-107969843D01*
X133542508Y-107933435D01*
X133540130Y-107922708D01*
X133539538Y-107919349D01*
X133533588Y-107885605D01*
X133528077Y-107876060D01*
X133526885Y-107872784D01*
X133525408Y-107869616D01*
X133522554Y-107858966D01*
X133500945Y-107828106D01*
X133495039Y-107818835D01*
X133481707Y-107795744D01*
X133476194Y-107786195D01*
X133447317Y-107761965D01*
X133439215Y-107754539D01*
X131825405Y-106140729D01*
X131791379Y-106078417D01*
X131788500Y-106051634D01*
X131788500Y-105526500D01*
X131808502Y-105458379D01*
X131862158Y-105411886D01*
X131914500Y-105400500D01*
X132382748Y-105400500D01*
X132388816Y-105399293D01*
X132429061Y-105391288D01*
X132429062Y-105391288D01*
X132441231Y-105388867D01*
X132507552Y-105344552D01*
X132551867Y-105278231D01*
X132563500Y-105219748D01*
X132563500Y-104271069D01*
X132898164Y-104271069D01*
X132911392Y-104472894D01*
X132961178Y-104668928D01*
X133045856Y-104852607D01*
X133162588Y-105017780D01*
X133307466Y-105158913D01*
X133475637Y-105271282D01*
X133480940Y-105273560D01*
X133480943Y-105273562D01*
X133645580Y-105344295D01*
X133661470Y-105351122D01*
X133757361Y-105372820D01*
X133828278Y-105388867D01*
X133858740Y-105395760D01*
X133864509Y-105395987D01*
X133864512Y-105395987D01*
X133940683Y-105398979D01*
X134060842Y-105403700D01*
X134147132Y-105391189D01*
X134255286Y-105375508D01*
X134255291Y-105375507D01*
X134261007Y-105374678D01*
X134266479Y-105372820D01*
X134266481Y-105372820D01*
X134447067Y-105311519D01*
X134447069Y-105311518D01*
X134452531Y-105309664D01*
X134613089Y-105219748D01*
X135462500Y-105219748D01*
X135474133Y-105278231D01*
X135518448Y-105344552D01*
X135584769Y-105388867D01*
X135596938Y-105391288D01*
X135596939Y-105391288D01*
X135637184Y-105399293D01*
X135643252Y-105400500D01*
X136109671Y-105400500D01*
X136177792Y-105420502D01*
X136224285Y-105474158D01*
X136235191Y-105537482D01*
X136233736Y-105554107D01*
X136240886Y-105580790D01*
X136243491Y-105590510D01*
X136245870Y-105601242D01*
X136252412Y-105638345D01*
X136257923Y-105647890D01*
X136259115Y-105651166D01*
X136260592Y-105654334D01*
X136263446Y-105664984D01*
X136269770Y-105674015D01*
X136285055Y-105695844D01*
X136290961Y-105705115D01*
X136298367Y-105717942D01*
X136309806Y-105737755D01*
X136318251Y-105744841D01*
X136338682Y-105761985D01*
X136346785Y-105769411D01*
X141623595Y-111046221D01*
X141657621Y-111108533D01*
X141660500Y-111135316D01*
X141660500Y-128009514D01*
X141640498Y-128077635D01*
X141611204Y-128109477D01*
X141557718Y-128150518D01*
X141461464Y-128275959D01*
X141400956Y-128422038D01*
X141380318Y-128578800D01*
X141400956Y-128735562D01*
X141461464Y-128881641D01*
X141557718Y-129007082D01*
X141683159Y-129103336D01*
X141829238Y-129163844D01*
X141986000Y-129184482D01*
X141994188Y-129183404D01*
X142134574Y-129164922D01*
X142142762Y-129163844D01*
X142288841Y-129103336D01*
X142414282Y-129007082D01*
X142510536Y-128881641D01*
X142571044Y-128735562D01*
X142591682Y-128578800D01*
X142571044Y-128422038D01*
X142510536Y-128275959D01*
X142414282Y-128150518D01*
X142360796Y-128109477D01*
X142318929Y-128052139D01*
X142311500Y-128009514D01*
X142311500Y-110968013D01*
X142311979Y-110957032D01*
X142314303Y-110930470D01*
X142314303Y-110930468D01*
X142315263Y-110919493D01*
X142305508Y-110883083D01*
X142303133Y-110872372D01*
X142298501Y-110846106D01*
X142296588Y-110835255D01*
X142291079Y-110825712D01*
X142289888Y-110822440D01*
X142288408Y-110819267D01*
X142285554Y-110808616D01*
X142263945Y-110777756D01*
X142258039Y-110768485D01*
X142244707Y-110745394D01*
X142239194Y-110735845D01*
X142210317Y-110711615D01*
X142202215Y-110704189D01*
X137113621Y-105615595D01*
X137079595Y-105553283D01*
X137084660Y-105482468D01*
X137127207Y-105425632D01*
X137193727Y-105400821D01*
X137202716Y-105400500D01*
X137482748Y-105400500D01*
X137488816Y-105399293D01*
X137529061Y-105391288D01*
X137529062Y-105391288D01*
X137541231Y-105388867D01*
X137607552Y-105344552D01*
X137651867Y-105278231D01*
X137663500Y-105219748D01*
X137663500Y-104271069D01*
X137998164Y-104271069D01*
X138011392Y-104472894D01*
X138061178Y-104668928D01*
X138145856Y-104852607D01*
X138262588Y-105017780D01*
X138407466Y-105158913D01*
X138575637Y-105271282D01*
X138580940Y-105273560D01*
X138580943Y-105273562D01*
X138745580Y-105344295D01*
X138761470Y-105351122D01*
X138857361Y-105372820D01*
X138928278Y-105388867D01*
X138958740Y-105395760D01*
X138964509Y-105395987D01*
X138964512Y-105395987D01*
X139040683Y-105398979D01*
X139160842Y-105403700D01*
X139247132Y-105391189D01*
X139355286Y-105375508D01*
X139355291Y-105375507D01*
X139361007Y-105374678D01*
X139366479Y-105372820D01*
X139366481Y-105372820D01*
X139547067Y-105311519D01*
X139547069Y-105311518D01*
X139552531Y-105309664D01*
X139713089Y-105219748D01*
X140562500Y-105219748D01*
X140574133Y-105278231D01*
X140618448Y-105344552D01*
X140684769Y-105388867D01*
X140696938Y-105391288D01*
X140696939Y-105391288D01*
X140737184Y-105399293D01*
X140743252Y-105400500D01*
X141209671Y-105400500D01*
X141277792Y-105420502D01*
X141324285Y-105474158D01*
X141335191Y-105537482D01*
X141333736Y-105554107D01*
X141340886Y-105580790D01*
X141343491Y-105590510D01*
X141345870Y-105601242D01*
X141352412Y-105638345D01*
X141357923Y-105647890D01*
X141359115Y-105651166D01*
X141360592Y-105654334D01*
X141363446Y-105664984D01*
X141369770Y-105674015D01*
X141385055Y-105695844D01*
X141390961Y-105705115D01*
X141398367Y-105717942D01*
X141409806Y-105737755D01*
X141418251Y-105744841D01*
X141438682Y-105761985D01*
X141446785Y-105769411D01*
X144163595Y-108486222D01*
X144197621Y-108548534D01*
X144200500Y-108575317D01*
X144200500Y-128039214D01*
X144180498Y-128107335D01*
X144151204Y-128139177D01*
X144097718Y-128180218D01*
X144092695Y-128186764D01*
X144076303Y-128208126D01*
X144001464Y-128305659D01*
X143940956Y-128451738D01*
X143920318Y-128608500D01*
X143940956Y-128765262D01*
X144001464Y-128911341D01*
X144097718Y-129036782D01*
X144223159Y-129133036D01*
X144369238Y-129193544D01*
X144526000Y-129214182D01*
X144534188Y-129213104D01*
X144547975Y-129211289D01*
X144682762Y-129193544D01*
X144828841Y-129133036D01*
X144954282Y-129036782D01*
X145050536Y-128911341D01*
X145111044Y-128765262D01*
X145131682Y-128608500D01*
X145111044Y-128451738D01*
X145050536Y-128305659D01*
X144975697Y-128208126D01*
X144959305Y-128186764D01*
X144954282Y-128180218D01*
X144900796Y-128139177D01*
X144858929Y-128081839D01*
X144851500Y-128039214D01*
X144851500Y-108407998D01*
X144851980Y-108397016D01*
X144854302Y-108370480D01*
X144854302Y-108370478D01*
X144855263Y-108359493D01*
X144845512Y-108323103D01*
X144843132Y-108312369D01*
X144838502Y-108286112D01*
X144836588Y-108275255D01*
X144831076Y-108265707D01*
X144829883Y-108262430D01*
X144828406Y-108259262D01*
X144825553Y-108248616D01*
X144803942Y-108217752D01*
X144798038Y-108208484D01*
X144784864Y-108185666D01*
X144779194Y-108175845D01*
X144750331Y-108151626D01*
X144742227Y-108144200D01*
X142213621Y-105615595D01*
X142179596Y-105553283D01*
X142184660Y-105482468D01*
X142227207Y-105425632D01*
X142293727Y-105400821D01*
X142302716Y-105400500D01*
X142582748Y-105400500D01*
X142588816Y-105399293D01*
X142629061Y-105391288D01*
X142629062Y-105391288D01*
X142641231Y-105388867D01*
X142707552Y-105344552D01*
X142751867Y-105278231D01*
X142763500Y-105219748D01*
X142763500Y-104271069D01*
X143098164Y-104271069D01*
X143111392Y-104472894D01*
X143161178Y-104668928D01*
X143245856Y-104852607D01*
X143362588Y-105017780D01*
X143507466Y-105158913D01*
X143675637Y-105271282D01*
X143680940Y-105273560D01*
X143680943Y-105273562D01*
X143845580Y-105344295D01*
X143861470Y-105351122D01*
X143957361Y-105372820D01*
X144028278Y-105388867D01*
X144058740Y-105395760D01*
X144064509Y-105395987D01*
X144064512Y-105395987D01*
X144140683Y-105398979D01*
X144260842Y-105403700D01*
X144347132Y-105391189D01*
X144455286Y-105375508D01*
X144455291Y-105375507D01*
X144461007Y-105374678D01*
X144466479Y-105372820D01*
X144466481Y-105372820D01*
X144647067Y-105311519D01*
X144647069Y-105311518D01*
X144652531Y-105309664D01*
X144829001Y-105210837D01*
X144891433Y-105158913D01*
X144980073Y-105085191D01*
X144984505Y-105081505D01*
X145113837Y-104926001D01*
X145212664Y-104749531D01*
X145216290Y-104738851D01*
X145275820Y-104563481D01*
X145275820Y-104563479D01*
X145277678Y-104558007D01*
X145278507Y-104552291D01*
X145278508Y-104552286D01*
X145295809Y-104432956D01*
X145306700Y-104357842D01*
X145308215Y-104300000D01*
X145289708Y-104098591D01*
X145234807Y-103903926D01*
X145145351Y-103722527D01*
X145127079Y-103698057D01*
X145027788Y-103565091D01*
X145027787Y-103565090D01*
X145024335Y-103560467D01*
X145001350Y-103539220D01*
X144880053Y-103427094D01*
X144880051Y-103427092D01*
X144875812Y-103423174D01*
X144848374Y-103405862D01*
X144709637Y-103318325D01*
X144704757Y-103315246D01*
X144516898Y-103240298D01*
X144318526Y-103200839D01*
X144312752Y-103200763D01*
X144312748Y-103200763D01*
X144210257Y-103199422D01*
X144116286Y-103198192D01*
X144110589Y-103199171D01*
X144110588Y-103199171D01*
X143922646Y-103231465D01*
X143922645Y-103231465D01*
X143916949Y-103232444D01*
X143727193Y-103302449D01*
X143722232Y-103305401D01*
X143722231Y-103305401D01*
X143591794Y-103383003D01*
X143553371Y-103405862D01*
X143401305Y-103539220D01*
X143276089Y-103698057D01*
X143181914Y-103877053D01*
X143121937Y-104070213D01*
X143098164Y-104271069D01*
X142763500Y-104271069D01*
X142763500Y-103380252D01*
X142751867Y-103321769D01*
X142707552Y-103255448D01*
X142672322Y-103231908D01*
X142651547Y-103218026D01*
X142641231Y-103211133D01*
X142629062Y-103208712D01*
X142629061Y-103208712D01*
X142588816Y-103200707D01*
X142582748Y-103199500D01*
X140743252Y-103199500D01*
X140737184Y-103200707D01*
X140696939Y-103208712D01*
X140696938Y-103208712D01*
X140684769Y-103211133D01*
X140674453Y-103218026D01*
X140653678Y-103231908D01*
X140618448Y-103255448D01*
X140574133Y-103321769D01*
X140562500Y-103380252D01*
X140562500Y-105219748D01*
X139713089Y-105219748D01*
X139729001Y-105210837D01*
X139791433Y-105158913D01*
X139880073Y-105085191D01*
X139884505Y-105081505D01*
X140013837Y-104926001D01*
X140112664Y-104749531D01*
X140116290Y-104738851D01*
X140175820Y-104563481D01*
X140175820Y-104563479D01*
X140177678Y-104558007D01*
X140178507Y-104552291D01*
X140178508Y-104552286D01*
X140195809Y-104432956D01*
X140206700Y-104357842D01*
X140208215Y-104300000D01*
X140189708Y-104098591D01*
X140134807Y-103903926D01*
X140045351Y-103722527D01*
X140027079Y-103698057D01*
X139927788Y-103565091D01*
X139927787Y-103565090D01*
X139924335Y-103560467D01*
X139901350Y-103539220D01*
X139780053Y-103427094D01*
X139780051Y-103427092D01*
X139775812Y-103423174D01*
X139748374Y-103405862D01*
X139609637Y-103318325D01*
X139604757Y-103315246D01*
X139416898Y-103240298D01*
X139218526Y-103200839D01*
X139212752Y-103200763D01*
X139212748Y-103200763D01*
X139110257Y-103199422D01*
X139016286Y-103198192D01*
X139010589Y-103199171D01*
X139010588Y-103199171D01*
X138822646Y-103231465D01*
X138822645Y-103231465D01*
X138816949Y-103232444D01*
X138627193Y-103302449D01*
X138622232Y-103305401D01*
X138622231Y-103305401D01*
X138491794Y-103383003D01*
X138453371Y-103405862D01*
X138301305Y-103539220D01*
X138176089Y-103698057D01*
X138081914Y-103877053D01*
X138021937Y-104070213D01*
X137998164Y-104271069D01*
X137663500Y-104271069D01*
X137663500Y-103380252D01*
X137651867Y-103321769D01*
X137607552Y-103255448D01*
X137572322Y-103231908D01*
X137551547Y-103218026D01*
X137541231Y-103211133D01*
X137529062Y-103208712D01*
X137529061Y-103208712D01*
X137488816Y-103200707D01*
X137482748Y-103199500D01*
X135643252Y-103199500D01*
X135637184Y-103200707D01*
X135596939Y-103208712D01*
X135596938Y-103208712D01*
X135584769Y-103211133D01*
X135574453Y-103218026D01*
X135553678Y-103231908D01*
X135518448Y-103255448D01*
X135474133Y-103321769D01*
X135462500Y-103380252D01*
X135462500Y-105219748D01*
X134613089Y-105219748D01*
X134629001Y-105210837D01*
X134691433Y-105158913D01*
X134780073Y-105085191D01*
X134784505Y-105081505D01*
X134913837Y-104926001D01*
X135012664Y-104749531D01*
X135016290Y-104738851D01*
X135075820Y-104563481D01*
X135075820Y-104563479D01*
X135077678Y-104558007D01*
X135078507Y-104552291D01*
X135078508Y-104552286D01*
X135095809Y-104432956D01*
X135106700Y-104357842D01*
X135108215Y-104300000D01*
X135089708Y-104098591D01*
X135034807Y-103903926D01*
X134945351Y-103722527D01*
X134927079Y-103698057D01*
X134827788Y-103565091D01*
X134827787Y-103565090D01*
X134824335Y-103560467D01*
X134801350Y-103539220D01*
X134680053Y-103427094D01*
X134680051Y-103427092D01*
X134675812Y-103423174D01*
X134648374Y-103405862D01*
X134509637Y-103318325D01*
X134504757Y-103315246D01*
X134316898Y-103240298D01*
X134118526Y-103200839D01*
X134112752Y-103200763D01*
X134112748Y-103200763D01*
X134010257Y-103199422D01*
X133916286Y-103198192D01*
X133910589Y-103199171D01*
X133910588Y-103199171D01*
X133722646Y-103231465D01*
X133722645Y-103231465D01*
X133716949Y-103232444D01*
X133527193Y-103302449D01*
X133522232Y-103305401D01*
X133522231Y-103305401D01*
X133391794Y-103383003D01*
X133353371Y-103405862D01*
X133201305Y-103539220D01*
X133076089Y-103698057D01*
X132981914Y-103877053D01*
X132921937Y-104070213D01*
X132898164Y-104271069D01*
X132563500Y-104271069D01*
X132563500Y-103380252D01*
X132551867Y-103321769D01*
X132507552Y-103255448D01*
X132472322Y-103231908D01*
X132451547Y-103218026D01*
X132441231Y-103211133D01*
X132429062Y-103208712D01*
X132429061Y-103208712D01*
X132388816Y-103200707D01*
X132382748Y-103199500D01*
X130543252Y-103199500D01*
X130537184Y-103200707D01*
X130496939Y-103208712D01*
X130496938Y-103208712D01*
X130484769Y-103211133D01*
X130474453Y-103218026D01*
X130453678Y-103231908D01*
X130418448Y-103255448D01*
X130374133Y-103321769D01*
X130362500Y-103380252D01*
X130362500Y-105219748D01*
X129513089Y-105219748D01*
X129529001Y-105210837D01*
X129591433Y-105158913D01*
X129680073Y-105085191D01*
X129684505Y-105081505D01*
X129813837Y-104926001D01*
X129912664Y-104749531D01*
X129916290Y-104738851D01*
X129975820Y-104563481D01*
X129975820Y-104563479D01*
X129977678Y-104558007D01*
X129978507Y-104552291D01*
X129978508Y-104552286D01*
X129995809Y-104432956D01*
X130006700Y-104357842D01*
X130008215Y-104300000D01*
X129989708Y-104098591D01*
X129934807Y-103903926D01*
X129845351Y-103722527D01*
X129827079Y-103698057D01*
X129727788Y-103565091D01*
X129727787Y-103565090D01*
X129724335Y-103560467D01*
X129701350Y-103539220D01*
X129580053Y-103427094D01*
X129580051Y-103427092D01*
X129575812Y-103423174D01*
X129548374Y-103405862D01*
X129409637Y-103318325D01*
X129404757Y-103315246D01*
X129216898Y-103240298D01*
X129018526Y-103200839D01*
X129012752Y-103200763D01*
X129012748Y-103200763D01*
X128910257Y-103199422D01*
X128816286Y-103198192D01*
X128810589Y-103199171D01*
X128810588Y-103199171D01*
X128622646Y-103231465D01*
X128622645Y-103231465D01*
X128616949Y-103232444D01*
X128427193Y-103302449D01*
X128422232Y-103305401D01*
X128422231Y-103305401D01*
X128291794Y-103383003D01*
X128253371Y-103405862D01*
X128101305Y-103539220D01*
X127976089Y-103698057D01*
X127881914Y-103877053D01*
X127821937Y-104070213D01*
X127798164Y-104271069D01*
X127463500Y-104271069D01*
X127463500Y-103380252D01*
X127451867Y-103321769D01*
X127407552Y-103255448D01*
X127372322Y-103231908D01*
X127351547Y-103218026D01*
X127341231Y-103211133D01*
X127329062Y-103208712D01*
X127329061Y-103208712D01*
X127288816Y-103200707D01*
X127282748Y-103199500D01*
X125443252Y-103199500D01*
X125437184Y-103200707D01*
X125396939Y-103208712D01*
X125396938Y-103208712D01*
X125384769Y-103211133D01*
X125374453Y-103218026D01*
X125353678Y-103231908D01*
X125318448Y-103255448D01*
X125274133Y-103321769D01*
X125262500Y-103380252D01*
X125262500Y-105219748D01*
X125274133Y-105278231D01*
X125318448Y-105344552D01*
X125384769Y-105388867D01*
X125396938Y-105391288D01*
X125396939Y-105391288D01*
X125437184Y-105399293D01*
X125443252Y-105400500D01*
X126604984Y-105400500D01*
X126673105Y-105420502D01*
X126694079Y-105437405D01*
X131590595Y-110333921D01*
X131624621Y-110396233D01*
X131627500Y-110423016D01*
X131627500Y-123798652D01*
X131607498Y-123866773D01*
X131553842Y-123913266D01*
X131483568Y-123923370D01*
X131453282Y-123915061D01*
X131435792Y-123907816D01*
X131435789Y-123907815D01*
X131428162Y-123904656D01*
X131271400Y-123884018D01*
X131114638Y-123904656D01*
X130968559Y-123965164D01*
X130916151Y-124005378D01*
X130851622Y-124054893D01*
X130843118Y-124061418D01*
X130746864Y-124186859D01*
X130686356Y-124332938D01*
X130665718Y-124489700D01*
X130686356Y-124646462D01*
X130746864Y-124792541D01*
X130843118Y-124917982D01*
X130968559Y-125014236D01*
X131114638Y-125074744D01*
X131271400Y-125095382D01*
X131338243Y-125086582D01*
X131408390Y-125097521D01*
X131443783Y-125122409D01*
X133075695Y-126754321D01*
X133109721Y-126816633D01*
X133112600Y-126843416D01*
X133112600Y-127298013D01*
X133092598Y-127366134D01*
X133038942Y-127412627D01*
X132968668Y-127422731D01*
X132909897Y-127397976D01*
X132860396Y-127359993D01*
X132860392Y-127359991D01*
X132853841Y-127354964D01*
X132707762Y-127294456D01*
X132693488Y-127292577D01*
X132684027Y-127291331D01*
X132619100Y-127262607D01*
X132580009Y-127203342D01*
X132576389Y-127188289D01*
X132575009Y-127180462D01*
X132570688Y-127155955D01*
X132565177Y-127146410D01*
X132563985Y-127143134D01*
X132562508Y-127139966D01*
X132559654Y-127129316D01*
X132538045Y-127098456D01*
X132532139Y-127089185D01*
X132518807Y-127066094D01*
X132513294Y-127056545D01*
X132484417Y-127032315D01*
X132476315Y-127024889D01*
X130112009Y-124660583D01*
X130077983Y-124598271D01*
X130076182Y-124555042D01*
X130083904Y-124496388D01*
X130084982Y-124488200D01*
X130064344Y-124331438D01*
X130003836Y-124185359D01*
X129907582Y-124059918D01*
X129901036Y-124054895D01*
X129901034Y-124054893D01*
X129869262Y-124030514D01*
X129827394Y-123973177D01*
X129823172Y-123902306D01*
X129856870Y-123841456D01*
X131026215Y-122672111D01*
X131034319Y-122664684D01*
X131054749Y-122647541D01*
X131063194Y-122640455D01*
X131079411Y-122612366D01*
X131082039Y-122607815D01*
X131087945Y-122598544D01*
X131090236Y-122595272D01*
X131109554Y-122567684D01*
X131112408Y-122557034D01*
X131113885Y-122553866D01*
X131115077Y-122550590D01*
X131120588Y-122541045D01*
X131127130Y-122503942D01*
X131129509Y-122493210D01*
X131139264Y-122456807D01*
X131135980Y-122419272D01*
X131135500Y-122408290D01*
X131135500Y-112287713D01*
X131135979Y-112276732D01*
X131138303Y-112250170D01*
X131138303Y-112250168D01*
X131139263Y-112239193D01*
X131129508Y-112202783D01*
X131127133Y-112192072D01*
X131120588Y-112154955D01*
X131115078Y-112145411D01*
X131113886Y-112142135D01*
X131112407Y-112138964D01*
X131109554Y-112128316D01*
X131087940Y-112097448D01*
X131082036Y-112088179D01*
X131068709Y-112065096D01*
X131068707Y-112065093D01*
X131063194Y-112055545D01*
X131052985Y-112046978D01*
X131034331Y-112031326D01*
X131026227Y-112023900D01*
X125189410Y-106187084D01*
X125181983Y-106178980D01*
X125164841Y-106158551D01*
X125164842Y-106158551D01*
X125157755Y-106150106D01*
X125148206Y-106144593D01*
X125125115Y-106131261D01*
X125115844Y-106125355D01*
X125094015Y-106110070D01*
X125084984Y-106103746D01*
X125074334Y-106100892D01*
X125071166Y-106099415D01*
X125067890Y-106098223D01*
X125058345Y-106092712D01*
X125024601Y-106086762D01*
X125021242Y-106086170D01*
X125010515Y-106083792D01*
X124974107Y-106074036D01*
X124963122Y-106074997D01*
X124963120Y-106074997D01*
X124936572Y-106077320D01*
X124925590Y-106077800D01*
X122211316Y-106077800D01*
X122143195Y-106057798D01*
X122122221Y-106040895D01*
X121696921Y-105615595D01*
X121662895Y-105553283D01*
X121667960Y-105482468D01*
X121710507Y-105425632D01*
X121777027Y-105400821D01*
X121786016Y-105400500D01*
X122182748Y-105400500D01*
X122188816Y-105399293D01*
X122229061Y-105391288D01*
X122229062Y-105391288D01*
X122241231Y-105388867D01*
X122307552Y-105344552D01*
X122351867Y-105278231D01*
X122363500Y-105219748D01*
X122363500Y-103625016D01*
X122383502Y-103556895D01*
X122437158Y-103510402D01*
X122507432Y-103500298D01*
X122572012Y-103529792D01*
X122578595Y-103535921D01*
X122763798Y-103721124D01*
X122797824Y-103783436D01*
X122792759Y-103854251D01*
X122786212Y-103868884D01*
X122781914Y-103877053D01*
X122721937Y-104070213D01*
X122698164Y-104271069D01*
X122711392Y-104472894D01*
X122761178Y-104668928D01*
X122845856Y-104852607D01*
X122962588Y-105017780D01*
X123107466Y-105158913D01*
X123275637Y-105271282D01*
X123280940Y-105273560D01*
X123280943Y-105273562D01*
X123445580Y-105344295D01*
X123461470Y-105351122D01*
X123557361Y-105372820D01*
X123628278Y-105388867D01*
X123658740Y-105395760D01*
X123664509Y-105395987D01*
X123664512Y-105395987D01*
X123740683Y-105398979D01*
X123860842Y-105403700D01*
X123947132Y-105391189D01*
X124055286Y-105375508D01*
X124055291Y-105375507D01*
X124061007Y-105374678D01*
X124066479Y-105372820D01*
X124066481Y-105372820D01*
X124247067Y-105311519D01*
X124247069Y-105311518D01*
X124252531Y-105309664D01*
X124429001Y-105210837D01*
X124491433Y-105158913D01*
X124580073Y-105085191D01*
X124584505Y-105081505D01*
X124713837Y-104926001D01*
X124812664Y-104749531D01*
X124816290Y-104738851D01*
X124875820Y-104563481D01*
X124875820Y-104563479D01*
X124877678Y-104558007D01*
X124878507Y-104552291D01*
X124878508Y-104552286D01*
X124895809Y-104432956D01*
X124906700Y-104357842D01*
X124908215Y-104300000D01*
X124889708Y-104098591D01*
X124834807Y-103903926D01*
X124745351Y-103722527D01*
X124727079Y-103698057D01*
X124627788Y-103565091D01*
X124627787Y-103565090D01*
X124624335Y-103560467D01*
X124601350Y-103539220D01*
X124480053Y-103427094D01*
X124480051Y-103427092D01*
X124475812Y-103423174D01*
X124448374Y-103405862D01*
X124309637Y-103318325D01*
X124304757Y-103315246D01*
X124116898Y-103240298D01*
X123918526Y-103200839D01*
X123912752Y-103200763D01*
X123912748Y-103200763D01*
X123810257Y-103199422D01*
X123716286Y-103198192D01*
X123710589Y-103199171D01*
X123710588Y-103199171D01*
X123522646Y-103231465D01*
X123522645Y-103231465D01*
X123516949Y-103232444D01*
X123426640Y-103265761D01*
X123357999Y-103291084D01*
X123287166Y-103295896D01*
X123225293Y-103261967D01*
X122821711Y-102858385D01*
X122814284Y-102850281D01*
X122797141Y-102829851D01*
X122797140Y-102829850D01*
X122790055Y-102821406D01*
X122780506Y-102815893D01*
X122757415Y-102802561D01*
X122748144Y-102796655D01*
X122726315Y-102781370D01*
X122717284Y-102775046D01*
X122706634Y-102772192D01*
X122703466Y-102770715D01*
X122700190Y-102769523D01*
X122690645Y-102764012D01*
X122656901Y-102758062D01*
X122653542Y-102757470D01*
X122642815Y-102755092D01*
X122606407Y-102745336D01*
X122595422Y-102746297D01*
X122595420Y-102746297D01*
X122568872Y-102748620D01*
X122557890Y-102749100D01*
X119948113Y-102749100D01*
X119937132Y-102748621D01*
X119910570Y-102746297D01*
X119910568Y-102746297D01*
X119899593Y-102745337D01*
X119863183Y-102755092D01*
X119852476Y-102757466D01*
X119815355Y-102764012D01*
X119805811Y-102769522D01*
X119802535Y-102770714D01*
X119799364Y-102772193D01*
X119788716Y-102775046D01*
X119779687Y-102781368D01*
X119757849Y-102796659D01*
X119748579Y-102802564D01*
X119725492Y-102815893D01*
X119725488Y-102815896D01*
X119715945Y-102821406D01*
X119701392Y-102838750D01*
X119691720Y-102850276D01*
X119684294Y-102858379D01*
X119279654Y-103263019D01*
X119217342Y-103297045D01*
X119143869Y-103290954D01*
X119022267Y-103242440D01*
X119016898Y-103240298D01*
X118818526Y-103200839D01*
X118812752Y-103200763D01*
X118812748Y-103200763D01*
X118710257Y-103199422D01*
X118616286Y-103198192D01*
X118610589Y-103199171D01*
X118610588Y-103199171D01*
X118422646Y-103231465D01*
X118422645Y-103231465D01*
X118416949Y-103232444D01*
X118227193Y-103302449D01*
X118222232Y-103305401D01*
X118222231Y-103305401D01*
X118091794Y-103383003D01*
X118053371Y-103405862D01*
X117901305Y-103539220D01*
X117776089Y-103698057D01*
X117681914Y-103877053D01*
X117621937Y-104070213D01*
X117598164Y-104271069D01*
X117611392Y-104472894D01*
X117661178Y-104668928D01*
X117745856Y-104852607D01*
X117862588Y-105017780D01*
X118007466Y-105158913D01*
X118175637Y-105271282D01*
X118180940Y-105273560D01*
X118180943Y-105273562D01*
X118345580Y-105344295D01*
X118361470Y-105351122D01*
X118457361Y-105372820D01*
X118528278Y-105388867D01*
X118558740Y-105395760D01*
X118564509Y-105395987D01*
X118564512Y-105395987D01*
X118640683Y-105398979D01*
X118760842Y-105403700D01*
X118847132Y-105391189D01*
X118955286Y-105375508D01*
X118955291Y-105375507D01*
X118961007Y-105374678D01*
X118966479Y-105372820D01*
X118966481Y-105372820D01*
X119147067Y-105311519D01*
X119147069Y-105311518D01*
X119152531Y-105309664D01*
X119329001Y-105210837D01*
X119391433Y-105158913D01*
X119480073Y-105085191D01*
X119484505Y-105081505D01*
X119613837Y-104926001D01*
X119712664Y-104749531D01*
X119716290Y-104738851D01*
X119775820Y-104563481D01*
X119775820Y-104563479D01*
X119777678Y-104558007D01*
X119778507Y-104552291D01*
X119778508Y-104552286D01*
X119795809Y-104432956D01*
X119806700Y-104357842D01*
X119808215Y-104300000D01*
X119789708Y-104098591D01*
X119734807Y-103903926D01*
X119716810Y-103867432D01*
X119704619Y-103797490D01*
X119732177Y-103732060D01*
X119740720Y-103722607D01*
X119947405Y-103515922D01*
X120009717Y-103481896D01*
X120080532Y-103486961D01*
X120137368Y-103529508D01*
X120162179Y-103596028D01*
X120162500Y-103605017D01*
X120162500Y-105219748D01*
X120174133Y-105278231D01*
X120218448Y-105344552D01*
X120284769Y-105388867D01*
X120296938Y-105391288D01*
X120296939Y-105391288D01*
X120337184Y-105399293D01*
X120343252Y-105400500D01*
X120811500Y-105400500D01*
X120879621Y-105420502D01*
X120926114Y-105474158D01*
X120937500Y-105526500D01*
X120937500Y-105622290D01*
X120937020Y-105633272D01*
X120933736Y-105670807D01*
X120943491Y-105707210D01*
X120945870Y-105717942D01*
X120952412Y-105755045D01*
X120957923Y-105764590D01*
X120959115Y-105767866D01*
X120960592Y-105771034D01*
X120963446Y-105781684D01*
X120969770Y-105790715D01*
X120985055Y-105812544D01*
X120990961Y-105821815D01*
X121004293Y-105844906D01*
X121009806Y-105854455D01*
X121018251Y-105861541D01*
X121038682Y-105878685D01*
X121046785Y-105886111D01*
X121780189Y-106619515D01*
X121787616Y-106627619D01*
X121811845Y-106656494D01*
X121821394Y-106662007D01*
X121844485Y-106675339D01*
X121853756Y-106681245D01*
X121884616Y-106702854D01*
X121895266Y-106705708D01*
X121898434Y-106707185D01*
X121901710Y-106708377D01*
X121911255Y-106713888D01*
X121944999Y-106719838D01*
X121948358Y-106720430D01*
X121959085Y-106722808D01*
X121995493Y-106732564D01*
X122006469Y-106731604D01*
X122006472Y-106731604D01*
X122033043Y-106729279D01*
X122044024Y-106728800D01*
X124758284Y-106728800D01*
X124826405Y-106748802D01*
X124847379Y-106765705D01*
X130447595Y-112365922D01*
X130481621Y-112428234D01*
X130484500Y-112455017D01*
X130484500Y-122240984D01*
X130464498Y-122309105D01*
X130447595Y-122330079D01*
X129376879Y-123400795D01*
X129314567Y-123434821D01*
X129287784Y-123437700D01*
X129017816Y-123437700D01*
X128949695Y-123417698D01*
X128903202Y-123364042D01*
X128893098Y-123293768D01*
X128922592Y-123229188D01*
X128928721Y-123222605D01*
X129303215Y-122848111D01*
X129311319Y-122840684D01*
X129331749Y-122823541D01*
X129340194Y-122816455D01*
X129345707Y-122806906D01*
X129359039Y-122783815D01*
X129364945Y-122774544D01*
X129380230Y-122752715D01*
X129386554Y-122743684D01*
X129389408Y-122733034D01*
X129390885Y-122729866D01*
X129392077Y-122726590D01*
X129397588Y-122717045D01*
X129404130Y-122679942D01*
X129406509Y-122669210D01*
X129407722Y-122664684D01*
X129416264Y-122632807D01*
X129414078Y-122607815D01*
X129412980Y-122595272D01*
X129412500Y-122584290D01*
X129412500Y-113046963D01*
X129412979Y-113035982D01*
X129415303Y-113009420D01*
X129415303Y-113009418D01*
X129416263Y-112998443D01*
X129406508Y-112962033D01*
X129404133Y-112951322D01*
X129399501Y-112925056D01*
X129397588Y-112914205D01*
X129392078Y-112904661D01*
X129390886Y-112901385D01*
X129389407Y-112898214D01*
X129386554Y-112887566D01*
X129364940Y-112856698D01*
X129359036Y-112847429D01*
X129345709Y-112824346D01*
X129345707Y-112824343D01*
X129340194Y-112814795D01*
X129311331Y-112790576D01*
X129303227Y-112783150D01*
X123745860Y-107225784D01*
X123738433Y-107217680D01*
X123721291Y-107197251D01*
X123721292Y-107197251D01*
X123714205Y-107188806D01*
X123704656Y-107183293D01*
X123681565Y-107169961D01*
X123672294Y-107164055D01*
X123650465Y-107148770D01*
X123641434Y-107142446D01*
X123630784Y-107139592D01*
X123627616Y-107138115D01*
X123624340Y-107136923D01*
X123614795Y-107131412D01*
X123581051Y-107125462D01*
X123577692Y-107124870D01*
X123566965Y-107122492D01*
X123530557Y-107112736D01*
X123519572Y-107113697D01*
X123519570Y-107113697D01*
X123493022Y-107116020D01*
X123482040Y-107116500D01*
X118932017Y-107116500D01*
X118863896Y-107096498D01*
X118842922Y-107079595D01*
X118067187Y-106303860D01*
X117240748Y-105477422D01*
X117206723Y-105415110D01*
X117211787Y-105344295D01*
X117225077Y-105318326D01*
X117244973Y-105288549D01*
X117244974Y-105288547D01*
X117251867Y-105278231D01*
X117263500Y-105219748D01*
X117263500Y-103380252D01*
X117251867Y-103321769D01*
X117207552Y-103255448D01*
X117172322Y-103231908D01*
X117151547Y-103218026D01*
X117141231Y-103211133D01*
X117129062Y-103208712D01*
X117129061Y-103208712D01*
X117088816Y-103200707D01*
X117082748Y-103199500D01*
X115243252Y-103199500D01*
X115237184Y-103200707D01*
X115196939Y-103208712D01*
X115196938Y-103208712D01*
X115184769Y-103211133D01*
X115174453Y-103218026D01*
X115153678Y-103231908D01*
X115118448Y-103255448D01*
X115074133Y-103321769D01*
X115062500Y-103380252D01*
X115062500Y-105219748D01*
X115074133Y-105278231D01*
X115118448Y-105344552D01*
X115184769Y-105388867D01*
X115196938Y-105391288D01*
X115196939Y-105391288D01*
X115237184Y-105399293D01*
X115243252Y-105400500D01*
X116190984Y-105400500D01*
X116259105Y-105420502D01*
X116280079Y-105437405D01*
X117434956Y-106592283D01*
X118500895Y-107658222D01*
X118508321Y-107666325D01*
X118532545Y-107695194D01*
X118565184Y-107714038D01*
X118574452Y-107719942D01*
X118605316Y-107741553D01*
X118615962Y-107744406D01*
X118619130Y-107745883D01*
X118622407Y-107747076D01*
X118631955Y-107752588D01*
X118661508Y-107757799D01*
X118669069Y-107759132D01*
X118679803Y-107761512D01*
X118716193Y-107771263D01*
X118727169Y-107770303D01*
X118727172Y-107770303D01*
X118753731Y-107767979D01*
X118764712Y-107767500D01*
X123314734Y-107767500D01*
X123382855Y-107787502D01*
X123403829Y-107804405D01*
X123584069Y-107984645D01*
X123618095Y-108046957D01*
X123613030Y-108117772D01*
X123570483Y-108174608D01*
X123503963Y-108199419D01*
X123470393Y-108197319D01*
X123368691Y-108177089D01*
X123368688Y-108177089D01*
X123363024Y-108175962D01*
X123357249Y-108175886D01*
X123357245Y-108175886D01*
X123246504Y-108174437D01*
X123142406Y-108173074D01*
X123136709Y-108174053D01*
X123136708Y-108174053D01*
X122930654Y-108209459D01*
X122930653Y-108209459D01*
X122924957Y-108210438D01*
X122717957Y-108286804D01*
X122528341Y-108399614D01*
X122362457Y-108545090D01*
X122225863Y-108718360D01*
X122123131Y-108913620D01*
X122057703Y-109124333D01*
X122031770Y-109343440D01*
X122046200Y-109563604D01*
X122047621Y-109569200D01*
X122047622Y-109569205D01*
X122071838Y-109664553D01*
X122100511Y-109777452D01*
X122102928Y-109782694D01*
X122102928Y-109782695D01*
X122139759Y-109862586D01*
X122192883Y-109977821D01*
X122320222Y-110158002D01*
X122478264Y-110311961D01*
X122483060Y-110315166D01*
X122483063Y-110315168D01*
X122566362Y-110370826D01*
X122661717Y-110434540D01*
X122667020Y-110436818D01*
X122667023Y-110436820D01*
X122835238Y-110509091D01*
X122889931Y-110554360D01*
X122911500Y-110624859D01*
X122911500Y-111271984D01*
X122891498Y-111340105D01*
X122874595Y-111361079D01*
X119917079Y-114318595D01*
X119854767Y-114352621D01*
X119827984Y-114355500D01*
X119763661Y-114355500D01*
X119695540Y-114335498D01*
X119649047Y-114281842D01*
X119638943Y-114211568D01*
X119662835Y-114153935D01*
X119681786Y-114128649D01*
X119690324Y-114113054D01*
X119735478Y-113992606D01*
X119739105Y-113977351D01*
X119744631Y-113926486D01*
X119745000Y-113919672D01*
X119745000Y-113147115D01*
X119740525Y-113131876D01*
X119739135Y-113130671D01*
X119731452Y-113129000D01*
X116747116Y-113129000D01*
X116731877Y-113133475D01*
X116730672Y-113134865D01*
X116729001Y-113142548D01*
X116729001Y-113919669D01*
X116729371Y-113926490D01*
X116734895Y-113977352D01*
X116738521Y-113992604D01*
X116783676Y-114113054D01*
X116792214Y-114128649D01*
X116811165Y-114153935D01*
X116836013Y-114220442D01*
X116820960Y-114289824D01*
X116770785Y-114340054D01*
X116710339Y-114355500D01*
X116011017Y-114355500D01*
X115942896Y-114335498D01*
X115921922Y-114318595D01*
X114206211Y-112602885D01*
X116729000Y-112602885D01*
X116733475Y-112618124D01*
X116734865Y-112619329D01*
X116742548Y-112621000D01*
X117964885Y-112621000D01*
X117980124Y-112616525D01*
X117981329Y-112615135D01*
X117983000Y-112607452D01*
X117983000Y-112602885D01*
X118491000Y-112602885D01*
X118495475Y-112618124D01*
X118496865Y-112619329D01*
X118504548Y-112621000D01*
X119726884Y-112621000D01*
X119742123Y-112616525D01*
X119743328Y-112615135D01*
X119744999Y-112607452D01*
X119744999Y-111830331D01*
X119744629Y-111823510D01*
X119739105Y-111772648D01*
X119735479Y-111757396D01*
X119690324Y-111636946D01*
X119681786Y-111621351D01*
X119605285Y-111519276D01*
X119592724Y-111506715D01*
X119490649Y-111430214D01*
X119475054Y-111421676D01*
X119354606Y-111376522D01*
X119339351Y-111372895D01*
X119288486Y-111367369D01*
X119281672Y-111367000D01*
X118509115Y-111367000D01*
X118493876Y-111371475D01*
X118492671Y-111372865D01*
X118491000Y-111380548D01*
X118491000Y-112602885D01*
X117983000Y-112602885D01*
X117983000Y-111385116D01*
X117978525Y-111369877D01*
X117977135Y-111368672D01*
X117969452Y-111367001D01*
X117192331Y-111367001D01*
X117185510Y-111367371D01*
X117134648Y-111372895D01*
X117119396Y-111376521D01*
X116998946Y-111421676D01*
X116983351Y-111430214D01*
X116881276Y-111506715D01*
X116868715Y-111519276D01*
X116792214Y-111621351D01*
X116783676Y-111636946D01*
X116738522Y-111757394D01*
X116734895Y-111772649D01*
X116729369Y-111823514D01*
X116729000Y-111830328D01*
X116729000Y-112602885D01*
X114206211Y-112602885D01*
X113599405Y-111996079D01*
X113565380Y-111933767D01*
X113562500Y-111906984D01*
X113562500Y-110622669D01*
X113582502Y-110554548D01*
X113636158Y-110508055D01*
X113647993Y-110503358D01*
X113727379Y-110476410D01*
X113757039Y-110459800D01*
X113870545Y-110396233D01*
X113919884Y-110368602D01*
X113928461Y-110361469D01*
X114085086Y-110231204D01*
X114089518Y-110227518D01*
X114115402Y-110196397D01*
X114226908Y-110062326D01*
X114226910Y-110062323D01*
X114230602Y-110057884D01*
X114338410Y-109865379D01*
X114340266Y-109859912D01*
X114340268Y-109859907D01*
X114407475Y-109661921D01*
X114407476Y-109661916D01*
X114409331Y-109656452D01*
X114410159Y-109650743D01*
X114410160Y-109650738D01*
X114429346Y-109518413D01*
X114440991Y-109438098D01*
X114442643Y-109375000D01*
X114422454Y-109155289D01*
X114420540Y-109148500D01*
X114364134Y-108948500D01*
X114362565Y-108942936D01*
X114264980Y-108745053D01*
X114257455Y-108734975D01*
X114136420Y-108572891D01*
X114136420Y-108572890D01*
X114132967Y-108568267D01*
X113970949Y-108418499D01*
X113784350Y-108300764D01*
X113579421Y-108219006D01*
X113573761Y-108217880D01*
X113573757Y-108217879D01*
X113368691Y-108177089D01*
X113368688Y-108177089D01*
X113363024Y-108175962D01*
X113357249Y-108175886D01*
X113357245Y-108175886D01*
X113246504Y-108174437D01*
X113142406Y-108173074D01*
X113136709Y-108174053D01*
X113136708Y-108174053D01*
X112930654Y-108209459D01*
X112930653Y-108209459D01*
X112924957Y-108210438D01*
X112717957Y-108286804D01*
X112528341Y-108399614D01*
X112362457Y-108545090D01*
X112225863Y-108718360D01*
X112123131Y-108913620D01*
X112057703Y-109124333D01*
X112031770Y-109343440D01*
X112046200Y-109563604D01*
X112047621Y-109569200D01*
X112047622Y-109569205D01*
X112071838Y-109664553D01*
X112100511Y-109777452D01*
X112102928Y-109782694D01*
X112102928Y-109782695D01*
X112139759Y-109862586D01*
X112192883Y-109977821D01*
X112320222Y-110158002D01*
X112478264Y-110311961D01*
X112483060Y-110315166D01*
X112483063Y-110315168D01*
X112566362Y-110370826D01*
X112661717Y-110434540D01*
X112667020Y-110436818D01*
X112667023Y-110436820D01*
X112835238Y-110509091D01*
X112889931Y-110554360D01*
X112911500Y-110624859D01*
X112911500Y-112074290D01*
X112911020Y-112085272D01*
X112909955Y-112097449D01*
X112907736Y-112122807D01*
X112912976Y-112142362D01*
X112917491Y-112159210D01*
X112919870Y-112169942D01*
X112926412Y-112207045D01*
X112931923Y-112216590D01*
X112933115Y-112219866D01*
X112934592Y-112223034D01*
X112937446Y-112233684D01*
X112943770Y-112242715D01*
X112959055Y-112264544D01*
X112964961Y-112273815D01*
X112978293Y-112296906D01*
X112983806Y-112306455D01*
X112992251Y-112313541D01*
X113012682Y-112330685D01*
X113020785Y-112338111D01*
X115458078Y-114775405D01*
X115492104Y-114837717D01*
X115487039Y-114908533D01*
X115444492Y-114965368D01*
X115377972Y-114990179D01*
X115368983Y-114990500D01*
X108677316Y-114990500D01*
X108609195Y-114970498D01*
X108588221Y-114953595D01*
X102892411Y-109257785D01*
X102884984Y-109249681D01*
X102867841Y-109229251D01*
X102867842Y-109229251D01*
X102860755Y-109220806D01*
X102851206Y-109215293D01*
X102828115Y-109201961D01*
X102818844Y-109196055D01*
X102797015Y-109180770D01*
X102787984Y-109174446D01*
X102777334Y-109171592D01*
X102774166Y-109170115D01*
X102770890Y-109168923D01*
X102761345Y-109163412D01*
X102727601Y-109157462D01*
X102724242Y-109156870D01*
X102713515Y-109154492D01*
X102677107Y-109144736D01*
X102666122Y-109145697D01*
X102666120Y-109145697D01*
X102639572Y-109148020D01*
X102628590Y-109148500D01*
X102564269Y-109148500D01*
X102496148Y-109128498D01*
X102449008Y-109071991D01*
X102448935Y-109071749D01*
X102352218Y-108889849D01*
X102278859Y-108799902D01*
X102225906Y-108734975D01*
X102225903Y-108734972D01*
X102222011Y-108730200D01*
X102202216Y-108713824D01*
X102068025Y-108602811D01*
X102068021Y-108602809D01*
X102063275Y-108598882D01*
X101882055Y-108500897D01*
X101685254Y-108439977D01*
X101679129Y-108439333D01*
X101679128Y-108439333D01*
X101486498Y-108419087D01*
X101486496Y-108419087D01*
X101480369Y-108418443D01*
X101393529Y-108426346D01*
X101281342Y-108436555D01*
X101281339Y-108436556D01*
X101275203Y-108437114D01*
X101077572Y-108495280D01*
X100895002Y-108590726D01*
X100890201Y-108594586D01*
X100890198Y-108594588D01*
X100879971Y-108602811D01*
X100734447Y-108719815D01*
X100602024Y-108877630D01*
X100599056Y-108883028D01*
X100599053Y-108883033D01*
X100516217Y-109033713D01*
X100502776Y-109058162D01*
X100440484Y-109254532D01*
X100439798Y-109260649D01*
X100439797Y-109260653D01*
X100427386Y-109371305D01*
X100417520Y-109459262D01*
X100418036Y-109465406D01*
X100434079Y-109656452D01*
X100434759Y-109664553D01*
X100436458Y-109670478D01*
X100468636Y-109782695D01*
X100491544Y-109862586D01*
X100494359Y-109868063D01*
X100494360Y-109868066D01*
X100574265Y-110023545D01*
X100585712Y-110045818D01*
X100713677Y-110207270D01*
X100870564Y-110340791D01*
X100875942Y-110343797D01*
X100875944Y-110343798D01*
X100960481Y-110391044D01*
X101050398Y-110441297D01*
X101145238Y-110472113D01*
X101240471Y-110503056D01*
X101240475Y-110503057D01*
X101246329Y-110504959D01*
X101450894Y-110529351D01*
X101457029Y-110528879D01*
X101457031Y-110528879D01*
X101513039Y-110524569D01*
X101656300Y-110513546D01*
X101662230Y-110511890D01*
X101662232Y-110511890D01*
X101848797Y-110459800D01*
X101848796Y-110459800D01*
X101854725Y-110458145D01*
X101860214Y-110455372D01*
X101860220Y-110455370D01*
X102033116Y-110368033D01*
X102038610Y-110365258D01*
X102200951Y-110238424D01*
X102214191Y-110223086D01*
X102331540Y-110087134D01*
X102331540Y-110087133D01*
X102335564Y-110082472D01*
X102420834Y-109932370D01*
X102471873Y-109883019D01*
X102541491Y-109869096D01*
X102607585Y-109895022D01*
X102619485Y-109905511D01*
X108246189Y-115532215D01*
X108253616Y-115540319D01*
X108277845Y-115569194D01*
X108287394Y-115574707D01*
X108310485Y-115588039D01*
X108319756Y-115593945D01*
X108350616Y-115615554D01*
X108361266Y-115618408D01*
X108364434Y-115619885D01*
X108367710Y-115621077D01*
X108377255Y-115626588D01*
X108410999Y-115632538D01*
X108414358Y-115633130D01*
X108425085Y-115635508D01*
X108461493Y-115645264D01*
X108472469Y-115644304D01*
X108472472Y-115644304D01*
X108499043Y-115641979D01*
X108510024Y-115641500D01*
X118834955Y-115641500D01*
X118903076Y-115661502D01*
X118949569Y-115715158D01*
X118959673Y-115785432D01*
X118930179Y-115850012D01*
X118870453Y-115888396D01*
X118851402Y-115892422D01*
X118823038Y-115896156D01*
X118676959Y-115956664D01*
X118551518Y-116052918D01*
X118546495Y-116059464D01*
X118510477Y-116106404D01*
X118453139Y-116148271D01*
X118410514Y-116155700D01*
X106762217Y-116155700D01*
X106694096Y-116135698D01*
X106673122Y-116118795D01*
X104892110Y-114337784D01*
X104884683Y-114329680D01*
X104867541Y-114309251D01*
X104867542Y-114309251D01*
X104860455Y-114300806D01*
X104850906Y-114295293D01*
X104827815Y-114281961D01*
X104818544Y-114276055D01*
X104796715Y-114260770D01*
X104787684Y-114254446D01*
X104777034Y-114251592D01*
X104773866Y-114250115D01*
X104770590Y-114248923D01*
X104761045Y-114243412D01*
X104727301Y-114237462D01*
X104723942Y-114236870D01*
X104713215Y-114234492D01*
X104676807Y-114224736D01*
X104665822Y-114225697D01*
X104665820Y-114225697D01*
X104639272Y-114228020D01*
X104628290Y-114228500D01*
X102564269Y-114228500D01*
X102496148Y-114208498D01*
X102449008Y-114151991D01*
X102448935Y-114151749D01*
X102352218Y-113969849D01*
X102278859Y-113879902D01*
X102225906Y-113814975D01*
X102225903Y-113814972D01*
X102222011Y-113810200D01*
X102204786Y-113795950D01*
X102068025Y-113682811D01*
X102068021Y-113682809D01*
X102063275Y-113678882D01*
X101882055Y-113580897D01*
X101685254Y-113519977D01*
X101679129Y-113519333D01*
X101679128Y-113519333D01*
X101486498Y-113499087D01*
X101486496Y-113499087D01*
X101480369Y-113498443D01*
X101393529Y-113506346D01*
X101281342Y-113516555D01*
X101281339Y-113516556D01*
X101275203Y-113517114D01*
X101077572Y-113575280D01*
X100895002Y-113670726D01*
X100890201Y-113674586D01*
X100890198Y-113674588D01*
X100879971Y-113682811D01*
X100734447Y-113799815D01*
X100602024Y-113957630D01*
X100599056Y-113963028D01*
X100599053Y-113963033D01*
X100516579Y-114113054D01*
X100502776Y-114138162D01*
X100440484Y-114334532D01*
X100417520Y-114539262D01*
X100434759Y-114744553D01*
X100436458Y-114750478D01*
X100489138Y-114934194D01*
X100491544Y-114942586D01*
X100494359Y-114948063D01*
X100494360Y-114948066D01*
X100570330Y-115095888D01*
X100585712Y-115125818D01*
X100713677Y-115287270D01*
X100718370Y-115291264D01*
X100718371Y-115291265D01*
X100755847Y-115323159D01*
X100870564Y-115420791D01*
X101050398Y-115521297D01*
X101108942Y-115540319D01*
X101240471Y-115583056D01*
X101240475Y-115583057D01*
X101246329Y-115584959D01*
X101450894Y-115609351D01*
X101457029Y-115608879D01*
X101457031Y-115608879D01*
X101513039Y-115604569D01*
X101656300Y-115593546D01*
X101662230Y-115591890D01*
X101662232Y-115591890D01*
X101786104Y-115557304D01*
X101854725Y-115538145D01*
X101860214Y-115535372D01*
X101860220Y-115535370D01*
X102033116Y-115448033D01*
X102038610Y-115445258D01*
X102200951Y-115318424D01*
X102211635Y-115306047D01*
X102331540Y-115167134D01*
X102331540Y-115167133D01*
X102335564Y-115162472D01*
X102356387Y-115125818D01*
X102418518Y-115016446D01*
X102437323Y-114983344D01*
X102443184Y-114965726D01*
X102483666Y-114907403D01*
X102549254Y-114880224D01*
X102562741Y-114879500D01*
X104460984Y-114879500D01*
X104529105Y-114899502D01*
X104550079Y-114916405D01*
X105447837Y-115814164D01*
X106331095Y-116697422D01*
X106338521Y-116705525D01*
X106362745Y-116734394D01*
X106372288Y-116739904D01*
X106372292Y-116739907D01*
X106395379Y-116753236D01*
X106404648Y-116759140D01*
X106435516Y-116780754D01*
X106446164Y-116783607D01*
X106449335Y-116785086D01*
X106452611Y-116786278D01*
X106462155Y-116791788D01*
X106499276Y-116798334D01*
X106509983Y-116800708D01*
X106546393Y-116810463D01*
X106557368Y-116809503D01*
X106557370Y-116809503D01*
X106583931Y-116807179D01*
X106594912Y-116806700D01*
X118410514Y-116806700D01*
X118478635Y-116826702D01*
X118510477Y-116855996D01*
X118551518Y-116909482D01*
X118676959Y-117005736D01*
X118684587Y-117008895D01*
X118684591Y-117008898D01*
X118689686Y-117011008D01*
X118744967Y-117055556D01*
X118767389Y-117122919D01*
X118750763Y-117189718D01*
X118746664Y-117195059D01*
X118743506Y-117202684D01*
X118743505Y-117202685D01*
X118738144Y-117215628D01*
X118686156Y-117341138D01*
X118665518Y-117497900D01*
X118669111Y-117525188D01*
X118674318Y-117564742D01*
X118663379Y-117634890D01*
X118638491Y-117670283D01*
X118053179Y-118255595D01*
X117990867Y-118289621D01*
X117964084Y-118292500D01*
X109029586Y-118292500D01*
X108961465Y-118272498D01*
X108929623Y-118243204D01*
X108893605Y-118196264D01*
X108888582Y-118189718D01*
X108763141Y-118093464D01*
X108617062Y-118032956D01*
X108592399Y-118029709D01*
X108468488Y-118013396D01*
X108460300Y-118012318D01*
X108452112Y-118013396D01*
X108328202Y-118029709D01*
X108303538Y-118032956D01*
X108157459Y-118093464D01*
X108032018Y-118189718D01*
X107935764Y-118315159D01*
X107875256Y-118461238D01*
X107854618Y-118618000D01*
X107875256Y-118774762D01*
X107935764Y-118920841D01*
X108032018Y-119046282D01*
X108157459Y-119142536D01*
X108303538Y-119203044D01*
X108460300Y-119223682D01*
X108468488Y-119222604D01*
X108608874Y-119204122D01*
X108617062Y-119203044D01*
X108763141Y-119142536D01*
X108888582Y-119046282D01*
X108929623Y-118992796D01*
X108986961Y-118950929D01*
X109029586Y-118943500D01*
X118131390Y-118943500D01*
X118142372Y-118943980D01*
X118168920Y-118946303D01*
X118168922Y-118946303D01*
X118179907Y-118947264D01*
X118216315Y-118937508D01*
X118227042Y-118935130D01*
X118230401Y-118934538D01*
X118264145Y-118928588D01*
X118273690Y-118923077D01*
X118276966Y-118921885D01*
X118280134Y-118920408D01*
X118290784Y-118917554D01*
X118321644Y-118895945D01*
X118330915Y-118890039D01*
X118354006Y-118876707D01*
X118363555Y-118871194D01*
X118387785Y-118842317D01*
X118395211Y-118834215D01*
X119098817Y-118130609D01*
X119161129Y-118096583D01*
X119204357Y-118094782D01*
X119271200Y-118103582D01*
X119279388Y-118102504D01*
X119285769Y-118101664D01*
X119427962Y-118082944D01*
X119574041Y-118022436D01*
X119699482Y-117926182D01*
X119795736Y-117800741D01*
X119856244Y-117654662D01*
X119876882Y-117497900D01*
X119856244Y-117341138D01*
X119795736Y-117195059D01*
X119699482Y-117069618D01*
X119574041Y-116973364D01*
X119566413Y-116970205D01*
X119566409Y-116970202D01*
X119561314Y-116968092D01*
X119506033Y-116923544D01*
X119483611Y-116856181D01*
X119500237Y-116789382D01*
X119504336Y-116784041D01*
X119511935Y-116765697D01*
X119561684Y-116645591D01*
X119564844Y-116637962D01*
X119585482Y-116481200D01*
X119564844Y-116324438D01*
X119504336Y-116178359D01*
X119408082Y-116052918D01*
X119282641Y-115956664D01*
X119136562Y-115896156D01*
X119108199Y-115892422D01*
X119043272Y-115863700D01*
X119004180Y-115804435D01*
X119003335Y-115733443D01*
X119041005Y-115673264D01*
X119105230Y-115643005D01*
X119124645Y-115641500D01*
X121902184Y-115641500D01*
X121970305Y-115661502D01*
X121991279Y-115678405D01*
X127687856Y-121374983D01*
X127721882Y-121437295D01*
X127716817Y-121508110D01*
X127674270Y-121564946D01*
X127646979Y-121580487D01*
X127566159Y-121613964D01*
X127559608Y-121618991D01*
X127447649Y-121704900D01*
X127440718Y-121710218D01*
X127435695Y-121716764D01*
X127399677Y-121763704D01*
X127342339Y-121805571D01*
X127299714Y-121813000D01*
X120400846Y-121813000D01*
X120332725Y-121792998D01*
X120286232Y-121739342D01*
X120276128Y-121669068D01*
X120284436Y-121638786D01*
X120326944Y-121536162D01*
X120347582Y-121379400D01*
X120326944Y-121222638D01*
X120266436Y-121076559D01*
X120170182Y-120951118D01*
X120044741Y-120854864D01*
X119898662Y-120794356D01*
X119741900Y-120773718D01*
X119585138Y-120794356D01*
X119439059Y-120854864D01*
X119313618Y-120951118D01*
X119308595Y-120957664D01*
X119272577Y-121004604D01*
X119215239Y-121046471D01*
X119172614Y-121053900D01*
X109501416Y-121053900D01*
X109433295Y-121033898D01*
X109412321Y-121016995D01*
X105273111Y-116877785D01*
X105265684Y-116869681D01*
X105260241Y-116863195D01*
X105241455Y-116840806D01*
X105224550Y-116831046D01*
X105208815Y-116821961D01*
X105199544Y-116816055D01*
X105177715Y-116800770D01*
X105168684Y-116794446D01*
X105158034Y-116791592D01*
X105154866Y-116790115D01*
X105151590Y-116788923D01*
X105142045Y-116783412D01*
X105108301Y-116777462D01*
X105104942Y-116776870D01*
X105094215Y-116774492D01*
X105057807Y-116764736D01*
X105046822Y-116765697D01*
X105046820Y-116765697D01*
X105020272Y-116768020D01*
X105009290Y-116768500D01*
X102564269Y-116768500D01*
X102496148Y-116748498D01*
X102449008Y-116691991D01*
X102448935Y-116691749D01*
X102352218Y-116509849D01*
X102266233Y-116404421D01*
X102225906Y-116354975D01*
X102225903Y-116354972D01*
X102222011Y-116350200D01*
X102215173Y-116344543D01*
X102068025Y-116222811D01*
X102068021Y-116222809D01*
X102063275Y-116218882D01*
X101882055Y-116120897D01*
X101685254Y-116059977D01*
X101679129Y-116059333D01*
X101679128Y-116059333D01*
X101486498Y-116039087D01*
X101486496Y-116039087D01*
X101480369Y-116038443D01*
X101393529Y-116046346D01*
X101281342Y-116056555D01*
X101281339Y-116056556D01*
X101275203Y-116057114D01*
X101077572Y-116115280D01*
X101072107Y-116118137D01*
X101000256Y-116155700D01*
X100895002Y-116210726D01*
X100890201Y-116214586D01*
X100890198Y-116214588D01*
X100879971Y-116222811D01*
X100734447Y-116339815D01*
X100602024Y-116497630D01*
X100599056Y-116503028D01*
X100599053Y-116503033D01*
X100529377Y-116629774D01*
X100502776Y-116678162D01*
X100440484Y-116874532D01*
X100439798Y-116880649D01*
X100439797Y-116880653D01*
X100425176Y-117011008D01*
X100417520Y-117079262D01*
X100418036Y-117085406D01*
X100427885Y-117202689D01*
X100434759Y-117284553D01*
X100436458Y-117290478D01*
X100484037Y-117456405D01*
X100491544Y-117482586D01*
X100494359Y-117488063D01*
X100494360Y-117488066D01*
X100582897Y-117660341D01*
X100585712Y-117665818D01*
X100713677Y-117827270D01*
X100718370Y-117831264D01*
X100718371Y-117831265D01*
X100841475Y-117936034D01*
X100870564Y-117960791D01*
X101050398Y-118061297D01*
X101120338Y-118084022D01*
X101240471Y-118123056D01*
X101240475Y-118123057D01*
X101246329Y-118124959D01*
X101450894Y-118149351D01*
X101457029Y-118148879D01*
X101457031Y-118148879D01*
X101513039Y-118144569D01*
X101656300Y-118133546D01*
X101662230Y-118131890D01*
X101662232Y-118131890D01*
X101819532Y-118087971D01*
X101854725Y-118078145D01*
X101860214Y-118075372D01*
X101860220Y-118075370D01*
X102033116Y-117988033D01*
X102038610Y-117985258D01*
X102200951Y-117858424D01*
X102212823Y-117844671D01*
X102331540Y-117707134D01*
X102331540Y-117707133D01*
X102335564Y-117702472D01*
X102356387Y-117665818D01*
X102399278Y-117590315D01*
X102437323Y-117523344D01*
X102443184Y-117505726D01*
X102483666Y-117447403D01*
X102549254Y-117420224D01*
X102562741Y-117419500D01*
X104841984Y-117419500D01*
X104910105Y-117439502D01*
X104931079Y-117456405D01*
X109070289Y-121595615D01*
X109077706Y-121603707D01*
X109079628Y-121605997D01*
X109108100Y-121671035D01*
X109096891Y-121741141D01*
X109049559Y-121794058D01*
X108983116Y-121813000D01*
X108863516Y-121813000D01*
X108795395Y-121792998D01*
X108774421Y-121776095D01*
X106416111Y-119417785D01*
X106408684Y-119409681D01*
X106391541Y-119389251D01*
X106391542Y-119389251D01*
X106384455Y-119380806D01*
X106374906Y-119375293D01*
X106351815Y-119361961D01*
X106342544Y-119356055D01*
X106320715Y-119340770D01*
X106311684Y-119334446D01*
X106301034Y-119331592D01*
X106297866Y-119330115D01*
X106294590Y-119328923D01*
X106285045Y-119323412D01*
X106251301Y-119317462D01*
X106247942Y-119316870D01*
X106237215Y-119314492D01*
X106200807Y-119304736D01*
X106189822Y-119305697D01*
X106189820Y-119305697D01*
X106163272Y-119308020D01*
X106152290Y-119308500D01*
X102564269Y-119308500D01*
X102496148Y-119288498D01*
X102449008Y-119231991D01*
X102448935Y-119231749D01*
X102352218Y-119049849D01*
X102271541Y-118950929D01*
X102225906Y-118894975D01*
X102225903Y-118894972D01*
X102222011Y-118890200D01*
X102199037Y-118871194D01*
X102068025Y-118762811D01*
X102068021Y-118762809D01*
X102063275Y-118758882D01*
X101882055Y-118660897D01*
X101685254Y-118599977D01*
X101679129Y-118599333D01*
X101679128Y-118599333D01*
X101486498Y-118579087D01*
X101486496Y-118579087D01*
X101480369Y-118578443D01*
X101393529Y-118586346D01*
X101281342Y-118596555D01*
X101281339Y-118596556D01*
X101275203Y-118597114D01*
X101077572Y-118655280D01*
X100895002Y-118750726D01*
X100890201Y-118754586D01*
X100890198Y-118754588D01*
X100791162Y-118834215D01*
X100734447Y-118879815D01*
X100602024Y-119037630D01*
X100599056Y-119043028D01*
X100599053Y-119043033D01*
X100505743Y-119212765D01*
X100502776Y-119218162D01*
X100440484Y-119414532D01*
X100417520Y-119619262D01*
X100434759Y-119824553D01*
X100436458Y-119830478D01*
X100484037Y-119996405D01*
X100491544Y-120022586D01*
X100494359Y-120028063D01*
X100494360Y-120028066D01*
X100515248Y-120068709D01*
X100585712Y-120205818D01*
X100713677Y-120367270D01*
X100870564Y-120500791D01*
X100919308Y-120528033D01*
X101012315Y-120580013D01*
X101062020Y-120630707D01*
X101076428Y-120700226D01*
X101050964Y-120766499D01*
X100993713Y-120808484D01*
X100950844Y-120816001D01*
X100578331Y-120816001D01*
X100571510Y-120816371D01*
X100520648Y-120821895D01*
X100505396Y-120825521D01*
X100384946Y-120870676D01*
X100369351Y-120879214D01*
X100267276Y-120955715D01*
X100254715Y-120968276D01*
X100227826Y-121004154D01*
X100170967Y-121046669D01*
X100100149Y-121051695D01*
X100037855Y-121017635D01*
X100003865Y-120955304D01*
X100001000Y-120928589D01*
X100001000Y-111999262D01*
X100417520Y-111999262D01*
X100418036Y-112005406D01*
X100431853Y-112169942D01*
X100434759Y-112204553D01*
X100436458Y-112210478D01*
X100454620Y-112273815D01*
X100491544Y-112402586D01*
X100494359Y-112408063D01*
X100494360Y-112408066D01*
X100582897Y-112580341D01*
X100585712Y-112585818D01*
X100713677Y-112747270D01*
X100718370Y-112751264D01*
X100718371Y-112751265D01*
X100831364Y-112847429D01*
X100870564Y-112880791D01*
X100875942Y-112883797D01*
X100875944Y-112883798D01*
X100914342Y-112905258D01*
X101050398Y-112981297D01*
X101145238Y-113012113D01*
X101240471Y-113043056D01*
X101240475Y-113043057D01*
X101246329Y-113044959D01*
X101450894Y-113069351D01*
X101457029Y-113068879D01*
X101457031Y-113068879D01*
X101513039Y-113064569D01*
X101656300Y-113053546D01*
X101662230Y-113051890D01*
X101662232Y-113051890D01*
X101848797Y-112999800D01*
X101848796Y-112999800D01*
X101854725Y-112998145D01*
X101860214Y-112995372D01*
X101860220Y-112995370D01*
X102033116Y-112908033D01*
X102038610Y-112905258D01*
X102043568Y-112901385D01*
X102154398Y-112814795D01*
X102200951Y-112778424D01*
X102335564Y-112622472D01*
X102338943Y-112616525D01*
X102374056Y-112554714D01*
X102437323Y-112443344D01*
X102502351Y-112247863D01*
X102528171Y-112043474D01*
X102528583Y-112014000D01*
X102508480Y-111808970D01*
X102448935Y-111611749D01*
X102352218Y-111429849D01*
X102266031Y-111324174D01*
X102225906Y-111274975D01*
X102225903Y-111274972D01*
X102222011Y-111270200D01*
X102204786Y-111255950D01*
X102068025Y-111142811D01*
X102068021Y-111142809D01*
X102063275Y-111138882D01*
X101882055Y-111040897D01*
X101685254Y-110979977D01*
X101679129Y-110979333D01*
X101679128Y-110979333D01*
X101486498Y-110959087D01*
X101486496Y-110959087D01*
X101480369Y-110958443D01*
X101393529Y-110966346D01*
X101281342Y-110976555D01*
X101281339Y-110976556D01*
X101275203Y-110977114D01*
X101077572Y-111035280D01*
X100895002Y-111130726D01*
X100890201Y-111134586D01*
X100890198Y-111134588D01*
X100879971Y-111142811D01*
X100734447Y-111259815D01*
X100602024Y-111417630D01*
X100599056Y-111423028D01*
X100599053Y-111423033D01*
X100537539Y-111534928D01*
X100502776Y-111598162D01*
X100440484Y-111794532D01*
X100439798Y-111800649D01*
X100439797Y-111800653D01*
X100418207Y-111993137D01*
X100417520Y-111999262D01*
X100001000Y-111999262D01*
X100001000Y-108127000D01*
X100021002Y-108058879D01*
X100074658Y-108012386D01*
X100127000Y-108001000D01*
X104999802Y-108001000D01*
X105000000Y-108001082D01*
X105000765Y-108000765D01*
X105001000Y-108000198D01*
X105001082Y-108000000D01*
X105001000Y-107999802D01*
X105001000Y-106034736D01*
X105021002Y-105966615D01*
X105074658Y-105920122D01*
X105144932Y-105910018D01*
X105209512Y-105939512D01*
X105236963Y-105975880D01*
X105237820Y-105975385D01*
X105240575Y-105980155D01*
X105242898Y-105985138D01*
X105368402Y-106164377D01*
X105523123Y-106319098D01*
X105527631Y-106322255D01*
X105527634Y-106322257D01*
X105697852Y-106441445D01*
X105702361Y-106444602D01*
X105707343Y-106446925D01*
X105707348Y-106446928D01*
X105895688Y-106534752D01*
X105900670Y-106537075D01*
X105905978Y-106538497D01*
X105905980Y-106538498D01*
X105971745Y-106556120D01*
X106112023Y-106593707D01*
X106330000Y-106612777D01*
X106547977Y-106593707D01*
X106688255Y-106556120D01*
X106754020Y-106538498D01*
X106754022Y-106538497D01*
X106759330Y-106537075D01*
X106764312Y-106534752D01*
X106952652Y-106446928D01*
X106952657Y-106446925D01*
X106957639Y-106444602D01*
X106962148Y-106441445D01*
X107132366Y-106322257D01*
X107132369Y-106322255D01*
X107136877Y-106319098D01*
X107291598Y-106164377D01*
X107417102Y-105985138D01*
X107425740Y-105966615D01*
X107507252Y-105791812D01*
X107507253Y-105791810D01*
X107509575Y-105786830D01*
X107514243Y-105769411D01*
X107530909Y-105707210D01*
X107566207Y-105575477D01*
X107585277Y-105357500D01*
X107566207Y-105139523D01*
X107509575Y-104928170D01*
X107506215Y-104920964D01*
X107419425Y-104734843D01*
X107419423Y-104734840D01*
X107417102Y-104729862D01*
X107291598Y-104550623D01*
X107136877Y-104395902D01*
X107132369Y-104392745D01*
X107132366Y-104392743D01*
X106962148Y-104273555D01*
X106962145Y-104273553D01*
X106957639Y-104270398D01*
X106952657Y-104268075D01*
X106952652Y-104268072D01*
X106764312Y-104180248D01*
X106764311Y-104180247D01*
X106759330Y-104177925D01*
X106754022Y-104176503D01*
X106754020Y-104176502D01*
X106649608Y-104148525D01*
X106547977Y-104121293D01*
X106330000Y-104102223D01*
X106112023Y-104121293D01*
X106010392Y-104148525D01*
X105905980Y-104176502D01*
X105905978Y-104176503D01*
X105900670Y-104177925D01*
X105895690Y-104180247D01*
X105895688Y-104180248D01*
X105707343Y-104268075D01*
X105707340Y-104268077D01*
X105702362Y-104270398D01*
X105523123Y-104395902D01*
X105368402Y-104550623D01*
X105242898Y-104729862D01*
X105240575Y-104734843D01*
X105237820Y-104739615D01*
X105236496Y-104738851D01*
X105194277Y-104786800D01*
X105125999Y-104806260D01*
X105058039Y-104785718D01*
X105011974Y-104731694D01*
X105001000Y-104680264D01*
X105001000Y-104010630D01*
X111301700Y-104010630D01*
X111306981Y-104017684D01*
X111475919Y-104116404D01*
X111485202Y-104120851D01*
X111688002Y-104198293D01*
X111697900Y-104201169D01*
X111910625Y-104244448D01*
X111920853Y-104245667D01*
X112137788Y-104253622D01*
X112148074Y-104253155D01*
X112363400Y-104225572D01*
X112378539Y-104222354D01*
X112379026Y-104224647D01*
X112440222Y-104224281D01*
X112500177Y-104262306D01*
X112530056Y-104326709D01*
X112520373Y-104397042D01*
X112494543Y-104434482D01*
X112378402Y-104550623D01*
X112252898Y-104729862D01*
X112250577Y-104734840D01*
X112250575Y-104734843D01*
X112163785Y-104920964D01*
X112160425Y-104928170D01*
X112103793Y-105139523D01*
X112084723Y-105357500D01*
X112103793Y-105575477D01*
X112139091Y-105707210D01*
X112155758Y-105769411D01*
X112160425Y-105786830D01*
X112162747Y-105791810D01*
X112162748Y-105791812D01*
X112244261Y-105966615D01*
X112252898Y-105985138D01*
X112378402Y-106164377D01*
X112533123Y-106319098D01*
X112537631Y-106322255D01*
X112537634Y-106322257D01*
X112707852Y-106441445D01*
X112712361Y-106444602D01*
X112717343Y-106446925D01*
X112717348Y-106446928D01*
X112905688Y-106534752D01*
X112910670Y-106537075D01*
X112915978Y-106538497D01*
X112915980Y-106538498D01*
X112981745Y-106556120D01*
X113122023Y-106593707D01*
X113340000Y-106612777D01*
X113557977Y-106593707D01*
X113698255Y-106556120D01*
X113764020Y-106538498D01*
X113764022Y-106538497D01*
X113769330Y-106537075D01*
X113774312Y-106534752D01*
X113962652Y-106446928D01*
X113962657Y-106446925D01*
X113967639Y-106444602D01*
X113972148Y-106441445D01*
X114142366Y-106322257D01*
X114142369Y-106322255D01*
X114146877Y-106319098D01*
X114301598Y-106164377D01*
X114427102Y-105985138D01*
X114435740Y-105966615D01*
X114517252Y-105791812D01*
X114517253Y-105791810D01*
X114519575Y-105786830D01*
X114524243Y-105769411D01*
X114540909Y-105707210D01*
X114576207Y-105575477D01*
X114595277Y-105357500D01*
X114576207Y-105139523D01*
X114519575Y-104928170D01*
X114516215Y-104920964D01*
X114429425Y-104734843D01*
X114429423Y-104734840D01*
X114427102Y-104729862D01*
X114301598Y-104550623D01*
X114146877Y-104395902D01*
X114142369Y-104392745D01*
X114142366Y-104392743D01*
X113972148Y-104273555D01*
X113972145Y-104273553D01*
X113967639Y-104270398D01*
X113962657Y-104268075D01*
X113962652Y-104268072D01*
X113774312Y-104180248D01*
X113774311Y-104180247D01*
X113769330Y-104177925D01*
X113764022Y-104176503D01*
X113764020Y-104176502D01*
X113659608Y-104148525D01*
X113557977Y-104121293D01*
X113340000Y-104102223D01*
X113122023Y-104121293D01*
X113053289Y-104139710D01*
X113014084Y-104150215D01*
X112943108Y-104148525D01*
X112884312Y-104108731D01*
X112856364Y-104043466D01*
X112856034Y-104016629D01*
X112856622Y-104010424D01*
X112848585Y-103995295D01*
X112092812Y-103239522D01*
X112078868Y-103231908D01*
X112077035Y-103232039D01*
X112070420Y-103236290D01*
X111308460Y-103998250D01*
X111301700Y-104010630D01*
X105001000Y-104010630D01*
X105001000Y-102839226D01*
X106500262Y-102839226D01*
X106513190Y-103036466D01*
X106561845Y-103228047D01*
X106644599Y-103407554D01*
X106758679Y-103568974D01*
X106900266Y-103706902D01*
X107064617Y-103816717D01*
X107069919Y-103818995D01*
X107069921Y-103818996D01*
X107193144Y-103871937D01*
X107246228Y-103894744D01*
X107286807Y-103903926D01*
X107433381Y-103937093D01*
X107433387Y-103937094D01*
X107439018Y-103938368D01*
X107444789Y-103938595D01*
X107444791Y-103938595D01*
X107505384Y-103940975D01*
X107636528Y-103946128D01*
X107734337Y-103931947D01*
X107826432Y-103918594D01*
X107826437Y-103918593D01*
X107832146Y-103917765D01*
X107837610Y-103915910D01*
X107837615Y-103915909D01*
X108013848Y-103856086D01*
X108013853Y-103856084D01*
X108019320Y-103854228D01*
X108082231Y-103818996D01*
X108186742Y-103760467D01*
X108186746Y-103760464D01*
X108191780Y-103757645D01*
X108196217Y-103753954D01*
X108196221Y-103753952D01*
X108339314Y-103634943D01*
X108343752Y-103631252D01*
X108405880Y-103556551D01*
X108466452Y-103483721D01*
X108466454Y-103483717D01*
X108470145Y-103479280D01*
X108472964Y-103474246D01*
X108472967Y-103474242D01*
X108563905Y-103311861D01*
X108563905Y-103311860D01*
X108566728Y-103306820D01*
X108568584Y-103301353D01*
X108568586Y-103301348D01*
X108628409Y-103125115D01*
X108628410Y-103125110D01*
X108630265Y-103119646D01*
X108631093Y-103113937D01*
X108631094Y-103113932D01*
X108658095Y-102927702D01*
X108658628Y-102924028D01*
X108660108Y-102867500D01*
X108659271Y-102858385D01*
X108657467Y-102838750D01*
X110692971Y-102838750D01*
X110705467Y-103055467D01*
X110706903Y-103065688D01*
X110754627Y-103277448D01*
X110757706Y-103287277D01*
X110839379Y-103488414D01*
X110844022Y-103497605D01*
X110928279Y-103635101D01*
X110938735Y-103644561D01*
X110947513Y-103640777D01*
X111707978Y-102880312D01*
X111714356Y-102868632D01*
X112444408Y-102868632D01*
X112444539Y-102870465D01*
X112448790Y-102877080D01*
X113208388Y-103636678D01*
X113220398Y-103643236D01*
X113232138Y-103634268D01*
X113266507Y-103586440D01*
X113271816Y-103577603D01*
X113367994Y-103383003D01*
X113371792Y-103373410D01*
X113434897Y-103165708D01*
X113437074Y-103155638D01*
X113465646Y-102938613D01*
X113466165Y-102931938D01*
X113467658Y-102870864D01*
X113467464Y-102864146D01*
X113449530Y-102646007D01*
X113447845Y-102635827D01*
X113394962Y-102425291D01*
X113391642Y-102415540D01*
X113305080Y-102216459D01*
X113300213Y-102207384D01*
X113231144Y-102100618D01*
X113220458Y-102091415D01*
X113210891Y-102095819D01*
X112452022Y-102854688D01*
X112444408Y-102868632D01*
X111714356Y-102868632D01*
X111715592Y-102866368D01*
X111715461Y-102864535D01*
X111711210Y-102857920D01*
X110951858Y-102098568D01*
X110940322Y-102092268D01*
X110928039Y-102101891D01*
X110876279Y-102177768D01*
X110871191Y-102186724D01*
X110779795Y-102383621D01*
X110776232Y-102393308D01*
X110718223Y-102602479D01*
X110716292Y-102612600D01*
X110693222Y-102828462D01*
X110692971Y-102838750D01*
X108657467Y-102838750D01*
X108642550Y-102676423D01*
X108642021Y-102670666D01*
X108588368Y-102480424D01*
X108578138Y-102459678D01*
X108503497Y-102308324D01*
X108500943Y-102303145D01*
X108382677Y-102144767D01*
X108332699Y-102098568D01*
X108241769Y-102014513D01*
X108241767Y-102014511D01*
X108237528Y-102010593D01*
X108070359Y-101905117D01*
X108064999Y-101902979D01*
X108064996Y-101902977D01*
X107978563Y-101868494D01*
X107886767Y-101831871D01*
X107881107Y-101830745D01*
X107881103Y-101830744D01*
X107698569Y-101794436D01*
X107698567Y-101794436D01*
X107692902Y-101793309D01*
X107687127Y-101793233D01*
X107687123Y-101793233D01*
X107588687Y-101791945D01*
X107495256Y-101790722D01*
X107489559Y-101791701D01*
X107489558Y-101791701D01*
X107306144Y-101823217D01*
X107300447Y-101824196D01*
X107115002Y-101892610D01*
X107110041Y-101895562D01*
X107110040Y-101895562D01*
X106950096Y-101990718D01*
X106950093Y-101990720D01*
X106945128Y-101993674D01*
X106940788Y-101997480D01*
X106940784Y-101997483D01*
X106825520Y-102098568D01*
X106796517Y-102124003D01*
X106792942Y-102128538D01*
X106792941Y-102128539D01*
X106730785Y-102207384D01*
X106674145Y-102279231D01*
X106582110Y-102454161D01*
X106523495Y-102642933D01*
X106500262Y-102839226D01*
X105001000Y-102839226D01*
X105001000Y-101726069D01*
X111303365Y-101726069D01*
X111310111Y-101738401D01*
X112067188Y-102495478D01*
X112081132Y-102503092D01*
X112082965Y-102502961D01*
X112089580Y-102498710D01*
X112851190Y-101737100D01*
X112858211Y-101724244D01*
X112850718Y-101713961D01*
X112843435Y-101709122D01*
X112653398Y-101604215D01*
X112643989Y-101599987D01*
X112439364Y-101527526D01*
X112429401Y-101524894D01*
X112215687Y-101486826D01*
X112205434Y-101485856D01*
X111988366Y-101483203D01*
X111978082Y-101483923D01*
X111763507Y-101516758D01*
X111753479Y-101519147D01*
X111547147Y-101586587D01*
X111537637Y-101590584D01*
X111345095Y-101690815D01*
X111336370Y-101696309D01*
X111311819Y-101714743D01*
X111303365Y-101726069D01*
X105001000Y-101726069D01*
X105001000Y-100127000D01*
X105021002Y-100058879D01*
X105074658Y-100012386D01*
X105127000Y-100001000D01*
X145691000Y-100001000D01*
X145759121Y-100021002D01*
G37*
%TD.AperFunction*%
%TD*%
M02*
