%TF.GenerationSoftware,KiCad,Pcbnew,6.0.11-2627ca5db0~126~ubuntu20.04.1*%
%TF.CreationDate,2025-02-01T21:45:14-05:00*%
%TF.ProjectId,modbus_rtu_mirror_side_esp32_88x37x59mm,6d6f6462-7573-45f7-9274-755f6d697272,rev?*%
%TF.SameCoordinates,Original*%
%TF.FileFunction,Copper,L1,Top*%
%TF.FilePolarity,Positive*%
%FSLAX46Y46*%
G04 Gerber Fmt 4.6, Leading zero omitted, Abs format (unit mm)*
G04 Created by KiCad (PCBNEW 6.0.11-2627ca5db0~126~ubuntu20.04.1) date 2025-02-01 21:45:14*
%MOMM*%
%LPD*%
G01*
G04 APERTURE LIST*
G04 Aperture macros list*
%AMRoundRect*
0 Rectangle with rounded corners*
0 $1 Rounding radius*
0 $2 $3 $4 $5 $6 $7 $8 $9 X,Y pos of 4 corners*
0 Add a 4 corners polygon primitive as box body*
4,1,4,$2,$3,$4,$5,$6,$7,$8,$9,$2,$3,0*
0 Add four circle primitives for the rounded corners*
1,1,$1+$1,$2,$3*
1,1,$1+$1,$4,$5*
1,1,$1+$1,$6,$7*
1,1,$1+$1,$8,$9*
0 Add four rect primitives between the rounded corners*
20,1,$1+$1,$2,$3,$4,$5,0*
20,1,$1+$1,$4,$5,$6,$7,0*
20,1,$1+$1,$6,$7,$8,$9,0*
20,1,$1+$1,$8,$9,$2,$3,0*%
G04 Aperture macros list end*
%TA.AperFunction,SMDPad,CuDef*%
%ADD10RoundRect,0.250000X-0.350000X-0.450000X0.350000X-0.450000X0.350000X0.450000X-0.350000X0.450000X0*%
%TD*%
%TA.AperFunction,SMDPad,CuDef*%
%ADD11RoundRect,0.250000X0.450000X-0.350000X0.450000X0.350000X-0.450000X0.350000X-0.450000X-0.350000X0*%
%TD*%
%TA.AperFunction,SMDPad,CuDef*%
%ADD12RoundRect,0.250000X-0.337500X-0.475000X0.337500X-0.475000X0.337500X0.475000X-0.337500X0.475000X0*%
%TD*%
%TA.AperFunction,ComponentPad*%
%ADD13R,1.800000X1.800000*%
%TD*%
%TA.AperFunction,ComponentPad*%
%ADD14C,1.800000*%
%TD*%
%TA.AperFunction,SMDPad,CuDef*%
%ADD15RoundRect,0.150000X-0.825000X-0.150000X0.825000X-0.150000X0.825000X0.150000X-0.825000X0.150000X0*%
%TD*%
%TA.AperFunction,ComponentPad*%
%ADD16C,2.000000*%
%TD*%
%TA.AperFunction,ComponentPad*%
%ADD17R,2.000000X2.000000*%
%TD*%
%TA.AperFunction,ComponentPad*%
%ADD18R,1.700000X1.700000*%
%TD*%
%TA.AperFunction,ComponentPad*%
%ADD19O,1.700000X1.700000*%
%TD*%
%TA.AperFunction,SMDPad,CuDef*%
%ADD20RoundRect,0.100000X-0.100000X0.637500X-0.100000X-0.637500X0.100000X-0.637500X0.100000X0.637500X0*%
%TD*%
%TA.AperFunction,SMDPad,CuDef*%
%ADD21RoundRect,0.250000X-0.475000X0.337500X-0.475000X-0.337500X0.475000X-0.337500X0.475000X0.337500X0*%
%TD*%
%TA.AperFunction,SMDPad,CuDef*%
%ADD22R,0.900000X1.500000*%
%TD*%
%TA.AperFunction,SMDPad,CuDef*%
%ADD23R,1.500000X0.900000*%
%TD*%
%TA.AperFunction,HeatsinkPad*%
%ADD24C,0.475000*%
%TD*%
%TA.AperFunction,SMDPad,CuDef*%
%ADD25R,1.050000X1.050000*%
%TD*%
%TA.AperFunction,SMDPad,CuDef*%
%ADD26R,4.200000X4.200000*%
%TD*%
%TA.AperFunction,SMDPad,CuDef*%
%ADD27RoundRect,0.250000X0.350000X0.450000X-0.350000X0.450000X-0.350000X-0.450000X0.350000X-0.450000X0*%
%TD*%
%TA.AperFunction,ComponentPad*%
%ADD28C,2.100000*%
%TD*%
%TA.AperFunction,ComponentPad*%
%ADD29C,1.750000*%
%TD*%
%TA.AperFunction,SMDPad,CuDef*%
%ADD30R,1.500000X2.000000*%
%TD*%
%TA.AperFunction,SMDPad,CuDef*%
%ADD31R,3.800000X2.000000*%
%TD*%
%TA.AperFunction,ViaPad*%
%ADD32C,0.800000*%
%TD*%
%TA.AperFunction,Conductor*%
%ADD33C,0.250000*%
%TD*%
G04 APERTURE END LIST*
D10*
%TO.P,R10,1*%
%TO.N,Net-(J1-Pad3)*%
X103267000Y-138684000D03*
%TO.P,R10,2*%
%TO.N,Net-(R10-Pad2)*%
X105267000Y-138684000D03*
%TD*%
D11*
%TO.P,R4,1*%
%TO.N,/TX2_LED*%
X139319000Y-131810000D03*
%TO.P,R4,2*%
%TO.N,Net-(D3-Pad1)*%
X139319000Y-129810000D03*
%TD*%
D10*
%TO.P,R11,1*%
%TO.N,+3.3V*%
X104283000Y-110236000D03*
%TO.P,R11,2*%
%TO.N,/ESP_EN*%
X106283000Y-110236000D03*
%TD*%
D12*
%TO.P,C9,1*%
%TO.N,+3.3V*%
X112754500Y-120015000D03*
%TO.P,C9,2*%
%TO.N,GND*%
X114829500Y-120015000D03*
%TD*%
%TO.P,C6,1*%
%TO.N,+3.3V*%
X110087500Y-123698000D03*
%TO.P,C6,2*%
%TO.N,GND*%
X112162500Y-123698000D03*
%TD*%
D10*
%TO.P,R7,1*%
%TO.N,/RX1_LED*%
X131461000Y-129921000D03*
%TO.P,R7,2*%
%TO.N,Net-(D6-Pad1)*%
X133461000Y-129921000D03*
%TD*%
D13*
%TO.P,D2,1,K*%
%TO.N,Net-(D2-Pad1)*%
X136563000Y-105800000D03*
D14*
%TO.P,D2,2,A*%
%TO.N,/STP_LED*%
X139103000Y-105800000D03*
%TD*%
D12*
%TO.P,C8,1*%
%TO.N,+3.3V*%
X105240000Y-122174000D03*
%TO.P,C8,2*%
%TO.N,GND*%
X107315000Y-122174000D03*
%TD*%
D15*
%TO.P,U5,1,A0*%
%TO.N,GND*%
X105094000Y-116078000D03*
%TO.P,U5,2,A1*%
X105094000Y-117348000D03*
%TO.P,U5,3,A2*%
X105094000Y-118618000D03*
%TO.P,U5,4,VSS*%
X105094000Y-119888000D03*
%TO.P,U5,5,SDA*%
%TO.N,/I2C0_SDA*%
X110044000Y-119888000D03*
%TO.P,U5,6,SCL*%
%TO.N,/I2C0_SCL*%
X110044000Y-118618000D03*
%TO.P,U5,7,WP*%
%TO.N,GND*%
X110044000Y-117348000D03*
%TO.P,U5,8,VDD*%
%TO.N,+3.3V*%
X110044000Y-116078000D03*
%TD*%
D16*
%TO.P,BT1,1,+*%
%TO.N,+BATT*%
X113237000Y-109375000D03*
X123237000Y-109375000D03*
D17*
%TO.P,BT1,2,-*%
%TO.N,GND*%
X118237000Y-112875000D03*
%TD*%
D10*
%TO.P,R12,1*%
%TO.N,+3.3V*%
X112792000Y-117983000D03*
%TO.P,R12,2*%
%TO.N,/I2C0_SDA*%
X114792000Y-117983000D03*
%TD*%
D13*
%TO.P,D1,1,K*%
%TO.N,Net-(D1-Pad1)*%
X141663000Y-105800000D03*
D14*
%TO.P,D1,2,A*%
%TO.N,+3.3V*%
X144203000Y-105800000D03*
%TD*%
D11*
%TO.P,R2,1*%
%TO.N,GND*%
X144526000Y-131810000D03*
%TO.P,R2,2*%
%TO.N,Net-(D1-Pad1)*%
X144526000Y-129810000D03*
%TD*%
D13*
%TO.P,D3,1,K*%
%TO.N,Net-(D3-Pad1)*%
X131463000Y-105800000D03*
D14*
%TO.P,D3,2,A*%
%TO.N,+3.3V*%
X134003000Y-105800000D03*
%TD*%
D11*
%TO.P,R3,1*%
%TO.N,GND*%
X141986000Y-131810000D03*
%TO.P,R3,2*%
%TO.N,Net-(D2-Pad1)*%
X141986000Y-129810000D03*
%TD*%
D10*
%TO.P,R6,1*%
%TO.N,/TX1_LED*%
X127143000Y-129921000D03*
%TO.P,R6,2*%
%TO.N,Net-(D5-Pad1)*%
X129143000Y-129921000D03*
%TD*%
D18*
%TO.P,J3,1,Pin_1*%
%TO.N,GND*%
X101473000Y-122174000D03*
D19*
%TO.P,J3,2,Pin_2*%
%TO.N,/ESP_TXD*%
X101473000Y-119634000D03*
%TO.P,J3,3,Pin_3*%
%TO.N,/ESP_RXD*%
X101473000Y-117094000D03*
%TO.P,J3,4,Pin_4*%
%TO.N,+3.3V*%
X101473000Y-114554000D03*
%TO.P,J3,5,Pin_5*%
%TO.N,/ESP_EN*%
X101473000Y-112014000D03*
%TO.P,J3,6,Pin_6*%
%TO.N,/ESP_IO0*%
X101473000Y-109474000D03*
%TD*%
D10*
%TO.P,R8,1*%
%TO.N,+3.3V*%
X108093000Y-108585000D03*
%TO.P,R8,2*%
%TO.N,/STP_SW*%
X110093000Y-108585000D03*
%TD*%
D20*
%TO.P,U2,1,A1*%
%TO.N,/RX2_LED*%
X107573000Y-125153500D03*
%TO.P,U2,2,VCCA*%
%TO.N,+3.3V*%
X106923000Y-125153500D03*
%TO.P,U2,3,A2*%
%TO.N,Net-(U1-Pad27)*%
X106273000Y-125153500D03*
%TO.P,U2,4,A3*%
%TO.N,/TX2_LED*%
X105623000Y-125153500D03*
%TO.P,U2,5,A4*%
%TO.N,/RX1_LED*%
X104973000Y-125153500D03*
%TO.P,U2,6,A5*%
%TO.N,Net-(U1-Pad31)*%
X104323000Y-125153500D03*
%TO.P,U2,7,A6*%
%TO.N,/TX1_LED*%
X103673000Y-125153500D03*
%TO.P,U2,8,A7*%
%TO.N,unconnected-(U2-Pad8)*%
X103023000Y-125153500D03*
%TO.P,U2,9,A8*%
%TO.N,unconnected-(U2-Pad9)*%
X102373000Y-125153500D03*
%TO.P,U2,10,OE*%
%TO.N,Net-(R1-Pad2)*%
X101723000Y-125153500D03*
%TO.P,U2,11,GND*%
%TO.N,GND*%
X101723000Y-130878500D03*
%TO.P,U2,12,B8*%
%TO.N,unconnected-(U2-Pad12)*%
X102373000Y-130878500D03*
%TO.P,U2,13,B7*%
%TO.N,unconnected-(U2-Pad13)*%
X103023000Y-130878500D03*
%TO.P,U2,14,B6*%
%TO.N,Net-(J1-Pad4)*%
X103673000Y-130878500D03*
%TO.P,U2,15,B5*%
%TO.N,Net-(R10-Pad2)*%
X104323000Y-130878500D03*
%TO.P,U2,16,B4*%
%TO.N,Net-(J1-Pad2)*%
X104973000Y-130878500D03*
%TO.P,U2,17,B3*%
%TO.N,Net-(J1-Pad1)*%
X105623000Y-130878500D03*
%TO.P,U2,18,B2*%
%TO.N,Net-(J2-Pad4)*%
X106273000Y-130878500D03*
%TO.P,U2,19,VCCB*%
%TO.N,+5V*%
X106923000Y-130878500D03*
%TO.P,U2,20,B1*%
%TO.N,Net-(J2-Pad3)*%
X107573000Y-130878500D03*
%TD*%
D21*
%TO.P,C2,1*%
%TO.N,+5V*%
X122047000Y-126597500D03*
%TO.P,C2,2*%
%TO.N,GND*%
X122047000Y-128672500D03*
%TD*%
D10*
%TO.P,R1,1*%
%TO.N,+3.3V*%
X110252000Y-130810000D03*
%TO.P,R1,2*%
%TO.N,Net-(R1-Pad2)*%
X112252000Y-130810000D03*
%TD*%
D13*
%TO.P,D4,1,K*%
%TO.N,Net-(D4-Pad1)*%
X126363000Y-105800000D03*
D14*
%TO.P,D4,2,A*%
%TO.N,+3.3V*%
X128903000Y-105800000D03*
%TD*%
D21*
%TO.P,C1,1*%
%TO.N,+5V*%
X124206000Y-126597500D03*
%TO.P,C1,2*%
%TO.N,GND*%
X124206000Y-128672500D03*
%TD*%
%TO.P,C4,1*%
%TO.N,+3.3V*%
X110109000Y-126597500D03*
%TO.P,C4,2*%
%TO.N,GND*%
X110109000Y-128672500D03*
%TD*%
D22*
%TO.P,U1,1,GND*%
%TO.N,GND*%
X144267000Y-108344000D03*
%TO.P,U1,2,VDD*%
%TO.N,+3.3V*%
X142997000Y-108344000D03*
%TO.P,U1,3,EN*%
%TO.N,/ESP_EN*%
X141727000Y-108344000D03*
%TO.P,U1,4,SENSOR_VP*%
%TO.N,unconnected-(U1-Pad4)*%
X140457000Y-108344000D03*
%TO.P,U1,5,SENSOR_VN*%
%TO.N,unconnected-(U1-Pad5)*%
X139187000Y-108344000D03*
%TO.P,U1,6,IO34*%
%TO.N,unconnected-(U1-Pad6)*%
X137917000Y-108344000D03*
%TO.P,U1,7,IO35*%
%TO.N,unconnected-(U1-Pad7)*%
X136647000Y-108344000D03*
%TO.P,U1,8,IO32*%
%TO.N,/I2C0_SDA*%
X135377000Y-108344000D03*
%TO.P,U1,9,IO33*%
%TO.N,/I2C0_SCL*%
X134107000Y-108344000D03*
%TO.P,U1,10,IO25*%
%TO.N,unconnected-(U1-Pad10)*%
X132837000Y-108344000D03*
%TO.P,U1,11,IO26*%
%TO.N,unconnected-(U1-Pad11)*%
X131567000Y-108344000D03*
%TO.P,U1,12,IO27*%
%TO.N,/STP_SW*%
X130297000Y-108344000D03*
%TO.P,U1,13,IO14*%
%TO.N,unconnected-(U1-Pad13)*%
X129027000Y-108344000D03*
%TO.P,U1,14,IO12*%
%TO.N,unconnected-(U1-Pad14)*%
X127757000Y-108344000D03*
D23*
%TO.P,U1,15,GND*%
%TO.N,GND*%
X126507000Y-111384000D03*
%TO.P,U1,16,IO13*%
%TO.N,Net-(U1-Pad16)*%
X126507000Y-112654000D03*
%TO.P,U1,17,SHD/SD2*%
%TO.N,unconnected-(U1-Pad17)*%
X126507000Y-113924000D03*
%TO.P,U1,18,SWP/SD3*%
%TO.N,unconnected-(U1-Pad18)*%
X126507000Y-115194000D03*
%TO.P,U1,19,SCS/CMD*%
%TO.N,unconnected-(U1-Pad19)*%
X126507000Y-116464000D03*
%TO.P,U1,20,SCK/CLK*%
%TO.N,unconnected-(U1-Pad20)*%
X126507000Y-117734000D03*
%TO.P,U1,21,SDO/SD0*%
%TO.N,unconnected-(U1-Pad21)*%
X126507000Y-119004000D03*
%TO.P,U1,22,SDI/SD1*%
%TO.N,unconnected-(U1-Pad22)*%
X126507000Y-120274000D03*
%TO.P,U1,23,IO15*%
%TO.N,unconnected-(U1-Pad23)*%
X126507000Y-121544000D03*
%TO.P,U1,24,IO2*%
%TO.N,unconnected-(U1-Pad24)*%
X126507000Y-122814000D03*
D22*
%TO.P,U1,25,IO0*%
%TO.N,/ESP_IO0*%
X127757000Y-125844000D03*
%TO.P,U1,26,IO4*%
%TO.N,/RX2_LED*%
X129027000Y-125844000D03*
%TO.P,U1,27,IO16*%
%TO.N,Net-(U1-Pad27)*%
X130297000Y-125844000D03*
%TO.P,U1,28,IO17*%
%TO.N,/TX2_LED*%
X131567000Y-125844000D03*
%TO.P,U1,29,IO5*%
%TO.N,unconnected-(U1-Pad29)*%
X132837000Y-125844000D03*
%TO.P,U1,30,IO18*%
%TO.N,/RX1_LED*%
X134107000Y-125844000D03*
%TO.P,U1,31,IO19*%
%TO.N,Net-(U1-Pad31)*%
X135377000Y-125844000D03*
%TO.P,U1,32,NC*%
%TO.N,unconnected-(U1-Pad32)*%
X136647000Y-125844000D03*
%TO.P,U1,33,IO21*%
%TO.N,/TX1_LED*%
X137917000Y-125844000D03*
%TO.P,U1,34,RXD0/IO3*%
%TO.N,/ESP_RXD*%
X139187000Y-125844000D03*
%TO.P,U1,35,TXD0/IO1*%
%TO.N,/ESP_TXD*%
X140457000Y-125844000D03*
%TO.P,U1,36,IO22*%
%TO.N,Net-(U1-Pad36)*%
X141727000Y-125844000D03*
%TO.P,U1,37,IO23*%
%TO.N,/STP_LED*%
X142997000Y-125844000D03*
%TO.P,U1,38,GND*%
%TO.N,GND*%
X144267000Y-125844000D03*
D24*
%TO.P,U1,39,GND*%
X137689500Y-114889000D03*
X136164500Y-114889000D03*
X138452000Y-115651500D03*
D25*
X135402000Y-117939000D03*
X136927000Y-117939000D03*
D24*
X136927000Y-115651500D03*
X137689500Y-117939000D03*
D25*
X135402000Y-114889000D03*
D24*
X137689500Y-116414000D03*
D26*
X136927000Y-116414000D03*
D24*
X135402000Y-115651500D03*
D25*
X138452000Y-117939000D03*
D24*
X136927000Y-117176500D03*
D25*
X136927000Y-114889000D03*
X135402000Y-116414000D03*
D24*
X138452000Y-117176500D03*
D25*
X138452000Y-116414000D03*
D24*
X136164500Y-117939000D03*
X136164500Y-116414000D03*
X135402000Y-117176500D03*
D25*
X138452000Y-114889000D03*
X136927000Y-116414000D03*
%TD*%
D12*
%TO.P,C5,1*%
%TO.N,+5V*%
X103229500Y-133985000D03*
%TO.P,C5,2*%
%TO.N,GND*%
X105304500Y-133985000D03*
%TD*%
D18*
%TO.P,J1,1,Pin_1*%
%TO.N,Net-(J1-Pad1)*%
X115840000Y-135980000D03*
D19*
%TO.P,J1,2,Pin_2*%
%TO.N,Net-(J1-Pad2)*%
X113300000Y-135980000D03*
%TO.P,J1,3,Pin_3*%
%TO.N,Net-(J1-Pad3)*%
X110760000Y-135980000D03*
%TO.P,J1,4,Pin_4*%
%TO.N,Net-(J1-Pad4)*%
X108220000Y-135980000D03*
%TD*%
D27*
%TO.P,R9,1*%
%TO.N,Net-(J1-Pad3)*%
X105251000Y-136271000D03*
%TO.P,R9,2*%
%TO.N,GND*%
X103251000Y-136271000D03*
%TD*%
D10*
%TO.P,R13,1*%
%TO.N,+3.3V*%
X112792000Y-115951000D03*
%TO.P,R13,2*%
%TO.N,/I2C0_SCL*%
X114792000Y-115951000D03*
%TD*%
D15*
%TO.P,U4,1,32KHZ*%
%TO.N,unconnected-(U4-Pad1)*%
X117540000Y-115824000D03*
%TO.P,U4,2,VCC*%
%TO.N,+3.3V*%
X117540000Y-117094000D03*
%TO.P,U4,3,~{INT}/SQW*%
%TO.N,unconnected-(U4-Pad3)*%
X117540000Y-118364000D03*
%TO.P,U4,4,~{RST}*%
%TO.N,unconnected-(U4-Pad4)*%
X117540000Y-119634000D03*
%TO.P,U4,5,GND*%
%TO.N,GND*%
X122490000Y-119634000D03*
%TO.P,U4,6,VBAT*%
%TO.N,+BATT*%
X122490000Y-118364000D03*
%TO.P,U4,7,SDA*%
%TO.N,/I2C0_SDA*%
X122490000Y-117094000D03*
%TO.P,U4,8,SCL*%
%TO.N,/I2C0_SCL*%
X122490000Y-115824000D03*
%TD*%
D13*
%TO.P,D6,1,K*%
%TO.N,Net-(D6-Pad1)*%
X116163000Y-105800000D03*
D14*
%TO.P,D6,2,A*%
%TO.N,+3.3V*%
X118703000Y-105800000D03*
%TD*%
D28*
%TO.P,SW1,*%
%TO.N,*%
X113340000Y-105357500D03*
X106330000Y-105357500D03*
D29*
%TO.P,SW1,1,1*%
%TO.N,/STP_SW*%
X107580000Y-102867500D03*
%TO.P,SW1,2,2*%
%TO.N,GND*%
X112080000Y-102867500D03*
%TD*%
D30*
%TO.P,U3,1,GND*%
%TO.N,GND*%
X114921000Y-128753000D03*
%TO.P,U3,2,VO*%
%TO.N,+3.3V*%
X117221000Y-128753000D03*
D31*
X117221000Y-122453000D03*
D30*
%TO.P,U3,3,VI*%
%TO.N,+5V*%
X119521000Y-128753000D03*
%TD*%
D18*
%TO.P,J2,1,Pin_1*%
%TO.N,+5V*%
X143780000Y-135980000D03*
D19*
%TO.P,J2,2,Pin_2*%
%TO.N,GND*%
X141240000Y-135980000D03*
%TO.P,J2,3,Pin_3*%
%TO.N,Net-(J2-Pad3)*%
X138700000Y-135980000D03*
%TO.P,J2,4,Pin_4*%
%TO.N,Net-(J2-Pad4)*%
X136160000Y-135980000D03*
%TD*%
D21*
%TO.P,C3,1*%
%TO.N,+3.3V*%
X112268000Y-126597500D03*
%TO.P,C3,2*%
%TO.N,GND*%
X112268000Y-128672500D03*
%TD*%
D13*
%TO.P,D5,1,K*%
%TO.N,Net-(D5-Pad1)*%
X121263000Y-105800000D03*
D14*
%TO.P,D5,2,A*%
%TO.N,+3.3V*%
X123803000Y-105800000D03*
%TD*%
D12*
%TO.P,C7,1*%
%TO.N,/ESP_EN*%
X104215000Y-113157000D03*
%TO.P,C7,2*%
%TO.N,GND*%
X106290000Y-113157000D03*
%TD*%
D11*
%TO.P,R5,1*%
%TO.N,/RX2_LED*%
X136779000Y-131810000D03*
%TO.P,R5,2*%
%TO.N,Net-(D4-Pad1)*%
X136779000Y-129810000D03*
%TD*%
D32*
%TO.N,GND*%
X106264200Y-121135600D03*
X108741200Y-128003100D03*
%TO.N,+3.3V*%
X118979800Y-116481200D03*
%TO.N,+5V*%
X115601273Y-131261429D03*
%TO.N,Net-(D1-Pad1)*%
X144526000Y-128608500D03*
%TO.N,Net-(D2-Pad1)*%
X141986000Y-128582500D03*
%TO.N,/STP_LED*%
X139065000Y-102399500D03*
%TO.N,Net-(D3-Pad1)*%
X139319000Y-128582500D03*
%TO.N,/TX2_LED*%
X131271400Y-124489700D03*
X105696000Y-123783900D03*
X137933400Y-128952500D03*
%TO.N,Net-(U1-Pad31)*%
X104446200Y-123788400D03*
X135373900Y-129452300D03*
%TO.N,Net-(D4-Pad1)*%
X136344000Y-128356700D03*
%TO.N,Net-(D5-Pad1)*%
X126679300Y-125584000D03*
%TO.N,Net-(D6-Pad1)*%
X131534700Y-127654400D03*
%TO.N,/RX2_LED*%
X129479300Y-124488200D03*
X108721700Y-124834700D03*
X132551000Y-127879500D03*
%TO.N,/RX1_LED*%
X128372800Y-128113200D03*
X106867100Y-127023700D03*
%TO.N,/STP_SW*%
X130131300Y-104096300D03*
X121158000Y-102350100D03*
%TO.N,/ESP_TXD*%
X127869000Y-122138500D03*
%TO.N,/ESP_RXD*%
X119741900Y-121379400D03*
%TO.N,/ESP_EN*%
X137795000Y-101346000D03*
X142367000Y-103848500D03*
%TO.N,/ESP_IO0*%
X125430900Y-124780700D03*
%TO.N,Net-(U1-Pad27)*%
X127673100Y-127278800D03*
X108534300Y-126257600D03*
%TO.N,/I2C0_SCL*%
X119271200Y-117497900D03*
X108460300Y-118618000D03*
%TO.N,Net-(J1-Pad4)*%
X103588300Y-129506500D03*
%TO.N,Net-(J2-Pad3)*%
X108394300Y-131018200D03*
%TO.N,Net-(J2-Pad4)*%
X116840000Y-132842000D03*
%TO.N,Net-(R10-Pad2)*%
X104597100Y-129511200D03*
X109601000Y-139192000D03*
%TD*%
D33*
%TO.N,Net-(J1-Pad1)*%
X115840000Y-135980000D02*
X114664700Y-135980000D01*
X112910000Y-133858000D02*
X107848500Y-133858000D01*
X107848500Y-133858000D02*
X105623000Y-131632500D01*
X114664700Y-135612700D02*
X112910000Y-133858000D01*
X105623000Y-131632500D02*
X105623000Y-130878500D01*
X114664700Y-135980000D02*
X114664700Y-135612700D01*
%TO.N,GND*%
X105507700Y-115664300D02*
X105094000Y-116078000D01*
X114853800Y-127970200D02*
X115951000Y-126873000D01*
X107315000Y-122174000D02*
X106276600Y-121135600D01*
X112162500Y-123498500D02*
X112162500Y-123698000D01*
X126507000Y-111384000D02*
X131046700Y-111384000D01*
X105938700Y-118618000D02*
X106243400Y-118922700D01*
X125095000Y-117815300D02*
X125095000Y-111765000D01*
X139302300Y-114384000D02*
X144267000Y-109419300D01*
X139302300Y-114889000D02*
X139302300Y-114384000D01*
X135402000Y-117939000D02*
X135402000Y-117176500D01*
X143469900Y-127716400D02*
X143469900Y-131810000D01*
X136927000Y-116414000D02*
X137689500Y-116414000D01*
X114926800Y-120112300D02*
X114829500Y-120015000D01*
X114853800Y-128753000D02*
X113845700Y-128753000D01*
X138452000Y-116414000D02*
X137689500Y-116414000D01*
X134976900Y-114889000D02*
X134551700Y-114889000D01*
X106290000Y-114882000D02*
X105507700Y-115664300D01*
X138452000Y-114889000D02*
X139302300Y-114889000D01*
X106290000Y-113157000D02*
X106290000Y-114882000D01*
X110044000Y-117348000D02*
X106243400Y-117348000D01*
X135402000Y-115651500D02*
X135402000Y-116414000D01*
X110109000Y-128672500D02*
X112268000Y-128672500D01*
X106243400Y-119516500D02*
X105871900Y-119888000D01*
X136164500Y-114889000D02*
X135402000Y-114889000D01*
X122490000Y-119634000D02*
X120415900Y-119634000D01*
X141240000Y-133953000D02*
X141986000Y-133207000D01*
X106276600Y-121135600D02*
X106264200Y-121135600D01*
X101473000Y-122174000D02*
X101473000Y-123349300D01*
X122047000Y-128672500D02*
X124206000Y-128672500D01*
X144267000Y-125844000D02*
X144267000Y-126919300D01*
X106264200Y-120280300D02*
X105871900Y-119888000D01*
X106243400Y-118922700D02*
X106243400Y-119516500D01*
X115951000Y-126873000D02*
X120247500Y-126873000D01*
X106243400Y-118313300D02*
X105938700Y-118618000D01*
X112162500Y-123498500D02*
X110838000Y-122174000D01*
X100457000Y-124365300D02*
X100457000Y-134112000D01*
X141240000Y-135980000D02*
X141240000Y-133953000D01*
X102728500Y-132588000D02*
X101723000Y-131582500D01*
X109439600Y-128003100D02*
X108741200Y-128003100D01*
X103443500Y-135846000D02*
X105304500Y-133985000D01*
X131046700Y-111384000D02*
X134551700Y-114889000D01*
X136927000Y-116414000D02*
X136927000Y-115651500D01*
X137689500Y-114889000D02*
X138452000Y-114889000D01*
X101473000Y-123349300D02*
X100457000Y-124365300D01*
X105871900Y-119888000D02*
X105094000Y-119888000D01*
X114921000Y-128753000D02*
X114853800Y-128753000D01*
X141986000Y-133207000D02*
X141986000Y-131810000D01*
X125095000Y-111765000D02*
X125476000Y-111384000D01*
X114926800Y-120734200D02*
X114926800Y-120112300D01*
X138452000Y-117939000D02*
X137689500Y-117939000D01*
X106243400Y-116400000D02*
X105507700Y-115664300D01*
X123276300Y-119634000D02*
X125095000Y-117815300D01*
X103251000Y-136038500D02*
X103443500Y-135846000D01*
X106264200Y-121135600D02*
X106264200Y-120280300D01*
X114853800Y-128753000D02*
X114853800Y-127970200D01*
X110838000Y-122174000D02*
X107315000Y-122174000D01*
X143469900Y-131810000D02*
X144526000Y-131810000D01*
X100457000Y-134112000D02*
X102191000Y-135846000D01*
X110109000Y-128672500D02*
X109439600Y-128003100D01*
X101723000Y-131582500D02*
X101723000Y-130878500D01*
X135402000Y-117176500D02*
X135402000Y-116414000D01*
X136164500Y-116414000D02*
X136927000Y-116414000D01*
X136164500Y-114889000D02*
X136927000Y-114889000D01*
X105938700Y-118618000D02*
X105094000Y-118618000D01*
X136927000Y-117939000D02*
X136164500Y-117939000D01*
X135402000Y-115314100D02*
X135402000Y-115651500D01*
X136927000Y-114889000D02*
X137689500Y-114889000D01*
X118237000Y-112875000D02*
X116911700Y-112875000D01*
X114926800Y-120734200D02*
X112162500Y-123498500D01*
X105304500Y-133985000D02*
X103907500Y-132588000D01*
X136927000Y-117176500D02*
X136927000Y-116414000D01*
X106243400Y-117348000D02*
X105094000Y-117348000D01*
X138452000Y-116414000D02*
X138452000Y-117176500D01*
X106243400Y-117348000D02*
X106243400Y-118313300D01*
X125476000Y-111384000D02*
X126507000Y-111384000D01*
X112268000Y-128672500D02*
X113765200Y-128672500D01*
X106243400Y-117348000D02*
X106243400Y-116400000D01*
X113765200Y-128672500D02*
X113845700Y-128753000D01*
X120415900Y-119634000D02*
X119315700Y-120734200D01*
X103251000Y-136271000D02*
X103251000Y-136038500D01*
X102191000Y-135846000D02*
X103443500Y-135846000D01*
X138452000Y-117939000D02*
X138452000Y-117176500D01*
X144267000Y-126919300D02*
X143469900Y-127716400D01*
X106290000Y-113157000D02*
X116629700Y-113157000D01*
X144267000Y-108344000D02*
X144267000Y-109419300D01*
X135402000Y-114889000D02*
X134976900Y-114889000D01*
X103907500Y-132588000D02*
X102728500Y-132588000D01*
X134976900Y-114889000D02*
X135402000Y-115314100D01*
X120247500Y-126873000D02*
X122047000Y-128672500D01*
X138452000Y-116414000D02*
X138452000Y-115651500D01*
X119315700Y-120734200D02*
X114926800Y-120734200D01*
X136164500Y-117939000D02*
X135402000Y-117939000D01*
X116629700Y-113157000D02*
X116911700Y-112875000D01*
X136164500Y-116414000D02*
X135402000Y-116414000D01*
X122490000Y-119634000D02*
X123276300Y-119634000D01*
%TO.N,+3.3V*%
X101197200Y-126724200D02*
X101197200Y-124261496D01*
X114542700Y-114200300D02*
X112792000Y-115951000D01*
X132700000Y-102997000D02*
X134003000Y-104300000D01*
X110087500Y-124060700D02*
X107220900Y-124060700D01*
X103782000Y-114554000D02*
X104463000Y-114554000D01*
X111379000Y-108585000D02*
X111379000Y-109855000D01*
X143637000Y-107061000D02*
X143637000Y-106366000D01*
X110087500Y-126576000D02*
X110109000Y-126597500D01*
X123803000Y-104300000D02*
X123731000Y-104300000D01*
X119879000Y-103124000D02*
X122555000Y-103124000D01*
X105271800Y-128064600D02*
X102537600Y-128064600D01*
X104283000Y-110236000D02*
X105321500Y-109197500D01*
X109131500Y-110236000D02*
X108535200Y-109639700D01*
X143256000Y-103124000D02*
X144203000Y-104071000D01*
X119562400Y-111323900D02*
X119562400Y-114009700D01*
X103782000Y-121909400D02*
X103864000Y-121991400D01*
X116270100Y-108031600D02*
X117520400Y-108031600D01*
X110087500Y-123698000D02*
X110087500Y-124060700D01*
X142997000Y-108344000D02*
X142997000Y-107701000D01*
X142997000Y-107701000D02*
X143637000Y-107061000D01*
X116270100Y-108031600D02*
X119562400Y-111323900D01*
X110252000Y-131334000D02*
X110252000Y-130810000D01*
X105240000Y-122174000D02*
X105057400Y-121991400D01*
X110252000Y-130810000D02*
X109315700Y-130810000D01*
X128903000Y-104300000D02*
X127600000Y-102997000D01*
X112268000Y-126597500D02*
X110109000Y-126597500D01*
X117221000Y-122453000D02*
X116642800Y-122453000D01*
X125106000Y-102997000D02*
X123803000Y-104300000D01*
X101197200Y-124261496D02*
X101633696Y-123825000D01*
X107173800Y-124107800D02*
X105240000Y-122174000D01*
X108093000Y-109197500D02*
X108093000Y-108585000D01*
X103782000Y-114554000D02*
X101473000Y-114554000D01*
X112792000Y-116078000D02*
X112792000Y-117983000D01*
X130206000Y-102997000D02*
X132700000Y-102997000D01*
X113538000Y-132080000D02*
X110998000Y-132080000D01*
X127600000Y-102997000D02*
X125106000Y-102997000D01*
X109315700Y-130810000D02*
X107870600Y-129364900D01*
X107220900Y-124060700D02*
X107173800Y-124107800D01*
X106572100Y-129364900D02*
X105271800Y-128064600D01*
X118703000Y-104300000D02*
X119879000Y-103124000D01*
X118367000Y-117094000D02*
X118979800Y-116481200D01*
X110998000Y-132080000D02*
X110252000Y-131334000D01*
X101633696Y-123825000D02*
X102030400Y-123825000D01*
X112268000Y-107696000D02*
X111379000Y-108585000D01*
X105252500Y-112044500D02*
X105537000Y-111760000D01*
X128903000Y-105800000D02*
X128903000Y-104300000D01*
X105057400Y-121991400D02*
X103864000Y-121991400D01*
X144203000Y-104071000D02*
X144203000Y-105800000D01*
X115418000Y-130556000D02*
X115062000Y-130556000D01*
X135128000Y-103124000D02*
X143256000Y-103124000D01*
X119371800Y-114200300D02*
X114542700Y-114200300D01*
X103782000Y-114554000D02*
X103782000Y-121909400D01*
X112792000Y-116078000D02*
X110044000Y-116078000D01*
X116642800Y-122453000D02*
X116412500Y-122453000D01*
X105537000Y-111760000D02*
X107696000Y-111760000D01*
X102537600Y-128064600D02*
X101197200Y-126724200D01*
X102030400Y-123825000D02*
X103864000Y-121991400D01*
X117221000Y-128753000D02*
X115418000Y-130556000D01*
X107870600Y-129364900D02*
X106572100Y-129364900D01*
X134003000Y-104300000D02*
X134003000Y-104249000D01*
X123803000Y-104372000D02*
X123803000Y-105800000D01*
X108535200Y-110920800D02*
X108535200Y-109639700D01*
X105252500Y-113764500D02*
X105252500Y-112044500D01*
X112792000Y-117983000D02*
X112754500Y-118020500D01*
X122555000Y-103124000D02*
X123731000Y-104300000D01*
X111379000Y-109855000D02*
X110998000Y-110236000D01*
X123731000Y-104300000D02*
X123803000Y-104372000D01*
X117520400Y-108031600D02*
X118703000Y-106849000D01*
X118703000Y-106849000D02*
X118703000Y-104300000D01*
X134003000Y-104249000D02*
X134003000Y-105800000D01*
X108535200Y-109639700D02*
X108093000Y-109197500D01*
X128903000Y-104300000D02*
X130206000Y-102997000D01*
X105321500Y-109197500D02*
X108093000Y-109197500D01*
X107696000Y-111760000D02*
X108535200Y-110920800D01*
X116412500Y-122453000D02*
X112268000Y-126597500D01*
X104463000Y-114554000D02*
X105252500Y-113764500D01*
X112792000Y-115951000D02*
X112792000Y-116078000D01*
X119562400Y-114009700D02*
X119371800Y-114200300D01*
X115934500Y-107696000D02*
X112268000Y-107696000D01*
X115062000Y-130556000D02*
X113538000Y-132080000D01*
X110087500Y-124060700D02*
X110087500Y-126576000D01*
X112754500Y-118020500D02*
X112754500Y-120015000D01*
X143637000Y-106366000D02*
X144203000Y-105800000D01*
X117540000Y-117094000D02*
X118367000Y-117094000D01*
X106923000Y-124358600D02*
X107173800Y-124107800D01*
X116270100Y-108031600D02*
X115934500Y-107696000D01*
X110998000Y-110236000D02*
X109131500Y-110236000D01*
X106923000Y-125153500D02*
X106923000Y-124358600D01*
X134003000Y-104249000D02*
X135128000Y-103124000D01*
%TO.N,+5V*%
X105297104Y-128726300D02*
X106385704Y-129814900D01*
X106923000Y-131581200D02*
X106923000Y-130878500D01*
X120015000Y-130175000D02*
X124587000Y-130175000D01*
X102489000Y-133985000D02*
X100965000Y-132461000D01*
X119521000Y-129681000D02*
X120015000Y-130175000D01*
X106576500Y-129814900D02*
X106923000Y-130161400D01*
X124587000Y-130175000D02*
X125352800Y-129409200D01*
X124206000Y-126597500D02*
X122047000Y-126597500D01*
X103229500Y-133985000D02*
X102489000Y-133985000D01*
X125352800Y-127744300D02*
X124206000Y-126597500D01*
X100965000Y-129667000D02*
X101905700Y-128726300D01*
X119521000Y-128891000D02*
X119521000Y-128753000D01*
X117150571Y-131261429D02*
X119521000Y-128891000D01*
X114147702Y-132715000D02*
X108056800Y-132715000D01*
X115601273Y-131261429D02*
X114147702Y-132715000D01*
X115601273Y-131261429D02*
X117150571Y-131261429D01*
X119521000Y-128753000D02*
X119521000Y-129681000D01*
X100965000Y-132461000D02*
X100965000Y-129667000D01*
X108056800Y-132715000D02*
X106923000Y-131581200D01*
X106385704Y-129814900D02*
X106576500Y-129814900D01*
X101905700Y-128726300D02*
X105297104Y-128726300D01*
X106923000Y-130161400D02*
X106923000Y-130878500D01*
X125352800Y-129409200D02*
X125352800Y-127744300D01*
%TO.N,Net-(D1-Pad1)*%
X144526000Y-128608500D02*
X144526000Y-129810000D01*
%TO.N,Net-(D2-Pad1)*%
X141986000Y-129810000D02*
X141986000Y-128582500D01*
%TO.N,/STP_LED*%
X142997000Y-125844000D02*
X142997000Y-119139400D01*
X139103000Y-101943000D02*
X139065000Y-101981000D01*
X142997000Y-119139400D02*
X145042400Y-117094000D01*
X144780000Y-101219000D02*
X139827000Y-101219000D01*
X139827000Y-101219000D02*
X139103000Y-101943000D01*
X145542000Y-106570700D02*
X145542000Y-101981000D01*
X145042400Y-107070300D02*
X145542000Y-106570700D01*
X139065000Y-101981000D02*
X139065000Y-102399500D01*
X145542000Y-101981000D02*
X144780000Y-101219000D01*
X145042400Y-117094000D02*
X145042400Y-107070300D01*
%TO.N,Net-(D3-Pad1)*%
X139319000Y-129810000D02*
X139319000Y-128582500D01*
%TO.N,/TX2_LED*%
X139319000Y-131810000D02*
X137933500Y-130424500D01*
X137933500Y-128952500D02*
X137933400Y-128952500D01*
X137933500Y-130424500D02*
X137933500Y-128952500D01*
X131567000Y-125844000D02*
X131567000Y-124768700D01*
X105696000Y-123783900D02*
X105623000Y-123856900D01*
X131550400Y-124768700D02*
X131271400Y-124489700D01*
X105623000Y-123856900D02*
X105623000Y-125153500D01*
X131567000Y-124768700D02*
X131550400Y-124768700D01*
%TO.N,Net-(U1-Pad31)*%
X135377000Y-125844000D02*
X135377000Y-129449200D01*
X104323000Y-125153500D02*
X104323000Y-123911600D01*
X104323000Y-123911600D02*
X104446200Y-123788400D01*
X135377000Y-129449200D02*
X135373900Y-129452300D01*
%TO.N,Net-(D4-Pad1)*%
X136344000Y-129375000D02*
X136344000Y-128356700D01*
X136779000Y-129810000D02*
X136344000Y-129375000D01*
%TO.N,Net-(D5-Pad1)*%
X129143000Y-129921000D02*
X126679300Y-127457300D01*
X126679300Y-127457300D02*
X126679300Y-125584000D01*
%TO.N,Net-(D6-Pad1)*%
X131534700Y-127994700D02*
X131534700Y-127654400D01*
X133461000Y-129921000D02*
X131534700Y-127994700D01*
%TO.N,/RX2_LED*%
X129027000Y-124768700D02*
X129307500Y-124488200D01*
X134539700Y-129680500D02*
X134539700Y-128697700D01*
X108721700Y-124834700D02*
X107891800Y-124834700D01*
X136779000Y-131810000D02*
X136669200Y-131810000D01*
X134539700Y-128697700D02*
X133721500Y-127879500D01*
X129307500Y-124488200D02*
X129479300Y-124488200D01*
X107891800Y-124834700D02*
X107573000Y-125153500D01*
X133721500Y-127879500D02*
X132551000Y-127879500D01*
X136669200Y-131810000D02*
X134539700Y-129680500D01*
X129027000Y-125844000D02*
X129027000Y-124768700D01*
%TO.N,/TX1_LED*%
X103673000Y-125851300D02*
X103673000Y-125153500D01*
X105264300Y-126775400D02*
X104597100Y-126775400D01*
X125075200Y-124055400D02*
X124587000Y-124543600D01*
X124587000Y-125222000D02*
X115525000Y-125222000D01*
X137917000Y-124768700D02*
X136894600Y-123746300D01*
X124714000Y-125222000D02*
X124460000Y-125222000D01*
X128465300Y-124055400D02*
X125075200Y-124055400D01*
X106266600Y-127777700D02*
X105264300Y-126775400D01*
X127143000Y-129921000D02*
X125803200Y-128581200D01*
X124587000Y-124543600D02*
X124587000Y-125222000D01*
X109041700Y-127277800D02*
X107926200Y-127277800D01*
X107926200Y-127277800D02*
X107426300Y-127777700D01*
X125803200Y-128581200D02*
X125803200Y-126311200D01*
X104597100Y-126775400D02*
X103673000Y-125851300D01*
X107426300Y-127777700D02*
X106266600Y-127777700D01*
X137917000Y-125844000D02*
X137917000Y-124768700D01*
X136894600Y-123746300D02*
X128774400Y-123746300D01*
X128774400Y-123746300D02*
X128465300Y-124055400D01*
X113194300Y-127552700D02*
X109316600Y-127552700D01*
X109316600Y-127552700D02*
X109041700Y-127277800D01*
X125803200Y-126311200D02*
X124714000Y-125222000D01*
X115525000Y-125222000D02*
X113194300Y-127552700D01*
%TO.N,/RX1_LED*%
X104973000Y-125843200D02*
X104973000Y-125153500D01*
X132626205Y-126929400D02*
X131150000Y-126929400D01*
X130808500Y-129268500D02*
X131461000Y-129921000D01*
X131150000Y-126929400D02*
X130808500Y-127270900D01*
X106867100Y-127023700D02*
X106153500Y-127023700D01*
X134107000Y-125844000D02*
X134107000Y-127254000D01*
X134107000Y-127254000D02*
X132950805Y-127254000D01*
X106153500Y-127023700D02*
X104973000Y-125843200D01*
X130808500Y-128113200D02*
X130808500Y-129268500D01*
X130808500Y-127270900D02*
X130808500Y-128113200D01*
X132950805Y-127254000D02*
X132626205Y-126929400D01*
X130808500Y-128113200D02*
X128372800Y-128113200D01*
%TO.N,+BATT*%
X124257100Y-110395100D02*
X123237000Y-109375000D01*
X123270800Y-118364000D02*
X124257100Y-117377700D01*
X124257100Y-117377700D02*
X124257100Y-110395100D01*
X122490000Y-118364000D02*
X123270800Y-118364000D01*
%TO.N,/STP_SW*%
X130238000Y-107209700D02*
X130238000Y-104203000D01*
X107580000Y-102867500D02*
X110093000Y-105380500D01*
X130297000Y-108344000D02*
X130297000Y-107268700D01*
X130297000Y-107268700D02*
X130238000Y-107209700D01*
X110093000Y-105380500D02*
X110093000Y-108585000D01*
X114402856Y-102350100D02*
X111372456Y-105380500D01*
X111372456Y-105380500D02*
X110093000Y-105380500D01*
X121158000Y-102350100D02*
X114402856Y-102350100D01*
X130238000Y-104203000D02*
X130131300Y-104096300D01*
%TO.N,/ESP_TXD*%
X140457000Y-125844000D02*
X140457000Y-124768700D01*
X137826800Y-122138500D02*
X127869000Y-122138500D01*
X140457000Y-124768700D02*
X137826800Y-122138500D01*
%TO.N,/ESP_RXD*%
X121967600Y-123605100D02*
X119741900Y-121379400D01*
X128486300Y-122936000D02*
X127817200Y-123605100D01*
X137354300Y-122936000D02*
X128486300Y-122936000D01*
X139187000Y-125844000D02*
X139187000Y-124768700D01*
X127817200Y-123605100D02*
X121967600Y-123605100D01*
X139187000Y-124768700D02*
X137354300Y-122936000D01*
%TO.N,/ESP_EN*%
X103124000Y-109347000D02*
X103885800Y-108585200D01*
X103124000Y-111415500D02*
X103124000Y-109347000D01*
X105663800Y-108585200D02*
X107950000Y-106299000D01*
X106861500Y-104067500D02*
X106045000Y-103251000D01*
X103468500Y-111760000D02*
X103124000Y-111415500D01*
X104215000Y-112014000D02*
X105993000Y-110236000D01*
X142888000Y-106921000D02*
X142621000Y-107188000D01*
X102648300Y-112014000D02*
X101473000Y-112014000D01*
X107950000Y-104648000D02*
X107369500Y-104067500D01*
X105993000Y-110236000D02*
X106283000Y-110236000D01*
X104215000Y-112014000D02*
X103961000Y-111760000D01*
X106807000Y-101346000D02*
X137795000Y-101346000D01*
X142113000Y-107188000D02*
X141727000Y-107574000D01*
X142888000Y-104369500D02*
X142888000Y-106921000D01*
X105918000Y-102235000D02*
X106807000Y-101346000D01*
X141727000Y-107574000D02*
X141727000Y-108344000D01*
X142367000Y-103848500D02*
X142888000Y-104369500D01*
X102902300Y-111760000D02*
X102648300Y-112014000D01*
X107950000Y-106299000D02*
X107950000Y-104648000D01*
X105918000Y-103251000D02*
X105918000Y-102235000D01*
X106045000Y-103251000D02*
X105918000Y-103251000D01*
X107369500Y-104067500D02*
X106861500Y-104067500D01*
X103505000Y-111760000D02*
X102902300Y-111760000D01*
X103961000Y-111760000D02*
X103468500Y-111760000D01*
X103885800Y-108585200D02*
X105663800Y-108585200D01*
X104215000Y-113157000D02*
X104215000Y-112014000D01*
X142621000Y-107188000D02*
X142113000Y-107188000D01*
%TO.N,/ESP_IO0*%
X127757000Y-125844000D02*
X127757000Y-124768700D01*
X125430900Y-124780700D02*
X125442900Y-124768700D01*
X125442900Y-124768700D02*
X127757000Y-124768700D01*
%TO.N,Net-(U1-Pad27)*%
X107167405Y-126298700D02*
X107360705Y-126492000D01*
X108299900Y-126492000D02*
X108534300Y-126257600D01*
X107360705Y-126492000D02*
X108299900Y-126492000D01*
X106486700Y-126298700D02*
X107167405Y-126298700D01*
X106273000Y-125153500D02*
X106273000Y-126085000D01*
X130297000Y-126919300D02*
X128032600Y-126919300D01*
X106273000Y-126085000D02*
X106486700Y-126298700D01*
X128032600Y-126919300D02*
X127673100Y-127278800D01*
X130297000Y-125844000D02*
X130297000Y-126919300D01*
%TO.N,/I2C0_SDA*%
X134433300Y-110363000D02*
X126746000Y-110363000D01*
X113792000Y-120637800D02*
X113359600Y-121070200D01*
X121539000Y-111307200D02*
X123791000Y-113559200D01*
X135377000Y-109419300D02*
X134433300Y-110363000D01*
X115772600Y-119545400D02*
X115772600Y-119327200D01*
X124148000Y-107765000D02*
X122486000Y-107765000D01*
X111226200Y-121070200D02*
X110044000Y-119888000D01*
X121691200Y-117094000D02*
X119358000Y-119427200D01*
X114792000Y-118598000D02*
X114792000Y-117983000D01*
X114599400Y-118598000D02*
X113792000Y-119405400D01*
X122490000Y-117094000D02*
X121691200Y-117094000D01*
X126746000Y-110363000D02*
X124148000Y-107765000D01*
X121539000Y-108712000D02*
X121539000Y-111307200D01*
X118603800Y-120271900D02*
X116499100Y-120271900D01*
X123791000Y-113559200D02*
X123791000Y-116606200D01*
X116499100Y-120271900D02*
X115772600Y-119545400D01*
X123791000Y-116606200D02*
X123303200Y-117094000D01*
X123303200Y-117094000D02*
X122490000Y-117094000D01*
X122486000Y-107765000D02*
X121539000Y-108712000D01*
X115772600Y-119327200D02*
X115043400Y-118598000D01*
X115043400Y-118598000D02*
X114792000Y-118598000D01*
X135377000Y-108344000D02*
X135377000Y-109419300D01*
X119358000Y-119517700D02*
X118603800Y-120271900D01*
X113359600Y-121070200D02*
X111226200Y-121070200D01*
X114792000Y-118598000D02*
X114599400Y-118598000D01*
X119358000Y-119427200D02*
X119358000Y-119517700D01*
X113792000Y-119405400D02*
X113792000Y-120637800D01*
%TO.N,/I2C0_SCL*%
X134107000Y-109225000D02*
X134107000Y-108344000D01*
X121402300Y-114736300D02*
X122490000Y-115824000D01*
X120904000Y-114238000D02*
X120904000Y-108458000D01*
X119705200Y-115191800D02*
X119705200Y-117063900D01*
X124714000Y-107315000D02*
X127127000Y-109728000D01*
X122047000Y-107315000D02*
X124714000Y-107315000D01*
X119705200Y-115191800D02*
X120946800Y-115191800D01*
X115551200Y-115191800D02*
X119705200Y-115191800D01*
X120904000Y-108458000D02*
X122047000Y-107315000D01*
X127127000Y-109728000D02*
X133604000Y-109728000D01*
X114792000Y-115951000D02*
X115551200Y-115191800D01*
X110044000Y-118618000D02*
X108460300Y-118618000D01*
X120946800Y-115191800D02*
X121402300Y-114736300D01*
X133604000Y-109728000D02*
X134107000Y-109225000D01*
X119705200Y-117063900D02*
X119271200Y-117497900D01*
X121402300Y-114736300D02*
X120904000Y-114238000D01*
%TO.N,Net-(J1-Pad2)*%
X108158300Y-134804700D02*
X104973000Y-131619400D01*
X104973000Y-131619400D02*
X104973000Y-130878500D01*
X113300000Y-135980000D02*
X112124700Y-135980000D01*
X111311800Y-134804700D02*
X108158300Y-134804700D01*
X112124700Y-135617600D02*
X111311800Y-134804700D01*
X112124700Y-135980000D02*
X112124700Y-135617600D01*
%TO.N,Net-(J1-Pad3)*%
X109931800Y-138049000D02*
X106600000Y-138049000D01*
X105251000Y-136700000D02*
X105251000Y-136271000D01*
X110760000Y-137220800D02*
X110760000Y-135980000D01*
X109931800Y-138049000D02*
X110760000Y-137220800D01*
X103267000Y-138684000D02*
X105251000Y-136700000D01*
X106600000Y-138049000D02*
X105251000Y-136700000D01*
%TO.N,Net-(J1-Pad4)*%
X103588300Y-129506500D02*
X103588300Y-130793800D01*
X103588300Y-130793800D02*
X103673000Y-130878500D01*
%TO.N,Net-(J2-Pad3)*%
X108394300Y-131018200D02*
X107712700Y-131018200D01*
X107712700Y-131018200D02*
X107573000Y-130878500D01*
%TO.N,Net-(J2-Pad4)*%
X108054900Y-133350000D02*
X116332000Y-133350000D01*
X106273000Y-130878500D02*
X106273000Y-131568100D01*
X116332000Y-133350000D02*
X116840000Y-132842000D01*
X106273000Y-131568100D02*
X108054900Y-133350000D01*
%TO.N,Net-(R1-Pad2)*%
X109171600Y-129600500D02*
X108485700Y-128914600D01*
X102719600Y-127357600D02*
X101723000Y-126361000D01*
X111042500Y-129600500D02*
X109171600Y-129600500D01*
X106766600Y-128914600D02*
X105209600Y-127357600D01*
X105209600Y-127357600D02*
X102719600Y-127357600D01*
X101723000Y-126361000D02*
X101723000Y-125153500D01*
X112252000Y-130810000D02*
X111042500Y-129600500D01*
X108485700Y-128914600D02*
X106766600Y-128914600D01*
%TO.N,Net-(R10-Pad2)*%
X109220000Y-138811000D02*
X105394000Y-138811000D01*
X109601000Y-139192000D02*
X109220000Y-138811000D01*
X104323000Y-129785300D02*
X104597100Y-129511200D01*
X105394000Y-138811000D02*
X105267000Y-138684000D01*
X104323000Y-130878500D02*
X104323000Y-129785300D01*
%TD*%
%TA.AperFunction,Conductor*%
%TO.N,GND*%
G36*
X145735032Y-106942160D02*
G01*
X145791868Y-106984707D01*
X145816679Y-107051227D01*
X145817000Y-107060216D01*
X145817000Y-107376359D01*
X145796998Y-107444480D01*
X145743342Y-107490973D01*
X145712711Y-107495937D01*
X145710739Y-107496516D01*
X145707658Y-107499000D01*
X145700198Y-107499000D01*
X145700000Y-107498918D01*
X145699802Y-107499000D01*
X145699235Y-107499235D01*
X145698918Y-107500000D01*
X145699000Y-107500198D01*
X145699000Y-126499802D01*
X145698918Y-126500000D01*
X145699000Y-126500198D01*
X145699235Y-126500765D01*
X145700000Y-126501082D01*
X145700198Y-126501000D01*
X145715510Y-126501000D01*
X145770075Y-126523611D01*
X145810558Y-126581935D01*
X145817000Y-126621708D01*
X145817000Y-130935455D01*
X145796998Y-131003576D01*
X145743342Y-131050069D01*
X145673068Y-131060173D01*
X145608488Y-131030679D01*
X145583856Y-131001758D01*
X145577937Y-130992193D01*
X145568901Y-130980792D01*
X145454171Y-130866261D01*
X145442760Y-130857249D01*
X145304757Y-130772184D01*
X145291576Y-130766037D01*
X145261590Y-130756091D01*
X145203230Y-130715660D01*
X145175994Y-130650096D01*
X145188528Y-130580214D01*
X145226399Y-130535147D01*
X145290576Y-130487745D01*
X145290579Y-130487742D01*
X145298150Y-130482150D01*
X145322054Y-130449787D01*
X145373041Y-130380757D01*
X145373042Y-130380754D01*
X145378634Y-130373184D01*
X145423519Y-130245369D01*
X145426500Y-130213834D01*
X145426500Y-129406166D01*
X145423519Y-129374631D01*
X145378634Y-129246816D01*
X145373042Y-129239246D01*
X145373041Y-129239243D01*
X145303742Y-129145421D01*
X145298150Y-129137850D01*
X145241624Y-129096099D01*
X145196757Y-129062959D01*
X145196754Y-129062958D01*
X145189184Y-129057366D01*
X145180303Y-129054247D01*
X145180297Y-129054244D01*
X145140943Y-129040424D01*
X145083298Y-128998981D01*
X145057210Y-128932951D01*
X145066283Y-128873324D01*
X145067651Y-128870023D01*
X145111044Y-128765262D01*
X145131682Y-128608500D01*
X145111044Y-128451738D01*
X145050536Y-128305659D01*
X144954282Y-128180218D01*
X144828841Y-128083964D01*
X144682762Y-128023456D01*
X144526000Y-128002818D01*
X144369238Y-128023456D01*
X144223159Y-128083964D01*
X144097718Y-128180218D01*
X144001464Y-128305659D01*
X143940956Y-128451738D01*
X143920318Y-128608500D01*
X143940956Y-128765262D01*
X143984350Y-128870023D01*
X143985717Y-128873324D01*
X143993306Y-128943913D01*
X143961527Y-129007400D01*
X143911057Y-129040424D01*
X143871703Y-129054244D01*
X143871697Y-129054247D01*
X143862816Y-129057366D01*
X143855246Y-129062958D01*
X143855243Y-129062959D01*
X143810376Y-129096099D01*
X143753850Y-129137850D01*
X143748258Y-129145421D01*
X143678959Y-129239243D01*
X143678958Y-129239246D01*
X143673366Y-129246816D01*
X143628481Y-129374631D01*
X143625500Y-129406166D01*
X143625500Y-130213834D01*
X143628481Y-130245369D01*
X143673366Y-130373184D01*
X143678958Y-130380754D01*
X143678959Y-130380757D01*
X143729946Y-130449787D01*
X143753850Y-130482150D01*
X143761421Y-130487742D01*
X143825685Y-130535209D01*
X143868596Y-130591771D01*
X143874115Y-130662552D01*
X143840490Y-130725082D01*
X143790700Y-130756084D01*
X143759218Y-130766587D01*
X143746038Y-130772761D01*
X143608193Y-130858063D01*
X143596792Y-130867099D01*
X143482261Y-130981829D01*
X143473249Y-130993240D01*
X143388184Y-131131243D01*
X143382038Y-131144422D01*
X143375538Y-131164018D01*
X143335106Y-131222377D01*
X143269541Y-131249613D01*
X143199660Y-131237079D01*
X143147649Y-131188753D01*
X143136421Y-131164224D01*
X143129413Y-131143218D01*
X143123239Y-131130038D01*
X143037937Y-130992193D01*
X143028901Y-130980792D01*
X142914171Y-130866261D01*
X142902760Y-130857249D01*
X142764757Y-130772184D01*
X142751576Y-130766037D01*
X142721590Y-130756091D01*
X142663230Y-130715660D01*
X142635994Y-130650096D01*
X142648528Y-130580214D01*
X142686399Y-130535147D01*
X142750576Y-130487745D01*
X142750579Y-130487742D01*
X142758150Y-130482150D01*
X142782054Y-130449787D01*
X142833041Y-130380757D01*
X142833042Y-130380754D01*
X142838634Y-130373184D01*
X142883519Y-130245369D01*
X142886500Y-130213834D01*
X142886500Y-129406166D01*
X142883519Y-129374631D01*
X142838634Y-129246816D01*
X142833042Y-129239246D01*
X142833041Y-129239243D01*
X142763742Y-129145421D01*
X142758150Y-129137850D01*
X142701624Y-129096099D01*
X142656757Y-129062959D01*
X142656754Y-129062958D01*
X142649184Y-129057366D01*
X142591541Y-129037124D01*
X142533897Y-128995681D01*
X142507808Y-128929652D01*
X142516881Y-128870023D01*
X142567884Y-128746891D01*
X142571044Y-128739262D01*
X142591682Y-128582500D01*
X142573463Y-128444109D01*
X142572122Y-128433926D01*
X142571044Y-128425738D01*
X142510536Y-128279659D01*
X142414282Y-128154218D01*
X142288841Y-128057964D01*
X142142762Y-127997456D01*
X141986000Y-127976818D01*
X141829238Y-127997456D01*
X141683159Y-128057964D01*
X141557718Y-128154218D01*
X141461464Y-128279659D01*
X141400956Y-128425738D01*
X141399878Y-128433926D01*
X141398537Y-128444109D01*
X141380318Y-128582500D01*
X141400956Y-128739262D01*
X141404116Y-128746891D01*
X141455119Y-128870023D01*
X141462708Y-128940613D01*
X141430929Y-129004100D01*
X141380459Y-129037123D01*
X141322816Y-129057366D01*
X141315246Y-129062958D01*
X141315243Y-129062959D01*
X141270376Y-129096099D01*
X141213850Y-129137850D01*
X141208258Y-129145421D01*
X141138959Y-129239243D01*
X141138958Y-129239246D01*
X141133366Y-129246816D01*
X141088481Y-129374631D01*
X141085500Y-129406166D01*
X141085500Y-130213834D01*
X141088481Y-130245369D01*
X141133366Y-130373184D01*
X141138958Y-130380754D01*
X141138959Y-130380757D01*
X141189946Y-130449787D01*
X141213850Y-130482150D01*
X141221421Y-130487742D01*
X141285685Y-130535209D01*
X141328596Y-130591771D01*
X141334115Y-130662552D01*
X141300490Y-130725082D01*
X141250700Y-130756084D01*
X141219218Y-130766587D01*
X141206038Y-130772761D01*
X141068193Y-130858063D01*
X141056792Y-130867099D01*
X140942261Y-130981829D01*
X140933249Y-130993240D01*
X140848184Y-131131243D01*
X140842037Y-131144424D01*
X140790862Y-131298710D01*
X140787995Y-131312086D01*
X140778328Y-131406438D01*
X140778000Y-131412855D01*
X140778000Y-131537885D01*
X140782475Y-131553124D01*
X140783865Y-131554329D01*
X140791548Y-131556000D01*
X142114000Y-131556000D01*
X142182121Y-131576002D01*
X142228614Y-131629658D01*
X142240000Y-131682000D01*
X142240000Y-132899884D01*
X142244475Y-132915123D01*
X142245865Y-132916328D01*
X142253548Y-132917999D01*
X142483095Y-132917999D01*
X142489614Y-132917662D01*
X142585206Y-132907743D01*
X142598600Y-132904851D01*
X142752784Y-132853412D01*
X142765962Y-132847239D01*
X142903807Y-132761937D01*
X142915208Y-132752901D01*
X143029739Y-132638171D01*
X143038751Y-132626760D01*
X143123816Y-132488757D01*
X143129962Y-132475578D01*
X143136462Y-132455982D01*
X143176894Y-132397623D01*
X143242459Y-132370387D01*
X143312340Y-132382921D01*
X143364351Y-132431247D01*
X143375579Y-132455776D01*
X143382587Y-132476782D01*
X143388761Y-132489962D01*
X143474063Y-132627807D01*
X143483099Y-132639208D01*
X143597829Y-132753739D01*
X143609240Y-132762751D01*
X143747243Y-132847816D01*
X143760424Y-132853963D01*
X143914710Y-132905138D01*
X143928086Y-132908005D01*
X144022438Y-132917672D01*
X144028854Y-132918000D01*
X144253885Y-132918000D01*
X144269124Y-132913525D01*
X144270329Y-132912135D01*
X144272000Y-132904452D01*
X144272000Y-131682000D01*
X144292002Y-131613879D01*
X144345658Y-131567386D01*
X144398000Y-131556000D01*
X144654000Y-131556000D01*
X144722121Y-131576002D01*
X144768614Y-131629658D01*
X144780000Y-131682000D01*
X144780000Y-132899884D01*
X144784475Y-132915123D01*
X144785865Y-132916328D01*
X144793548Y-132917999D01*
X145023095Y-132917999D01*
X145029614Y-132917662D01*
X145125206Y-132907743D01*
X145138600Y-132904851D01*
X145292784Y-132853412D01*
X145305962Y-132847239D01*
X145443807Y-132761937D01*
X145455208Y-132752901D01*
X145569739Y-132638171D01*
X145578751Y-132626760D01*
X145583740Y-132618666D01*
X145636512Y-132571173D01*
X145706583Y-132559749D01*
X145771707Y-132588023D01*
X145811207Y-132647017D01*
X145817000Y-132684782D01*
X145817000Y-139873000D01*
X145796998Y-139941121D01*
X145743342Y-139987614D01*
X145691000Y-139999000D01*
X134127000Y-139999000D01*
X134058879Y-139978998D01*
X134012386Y-139925342D01*
X134001000Y-139873000D01*
X134001000Y-135965262D01*
X135104520Y-135965262D01*
X135121759Y-136170553D01*
X135123458Y-136176478D01*
X135169395Y-136336678D01*
X135178544Y-136368586D01*
X135181359Y-136374063D01*
X135181360Y-136374066D01*
X135265892Y-136538548D01*
X135272712Y-136551818D01*
X135400677Y-136713270D01*
X135405370Y-136717264D01*
X135405371Y-136717265D01*
X135479541Y-136780388D01*
X135557564Y-136846791D01*
X135562942Y-136849797D01*
X135562944Y-136849798D01*
X135593387Y-136866812D01*
X135737398Y-136947297D01*
X135810170Y-136970942D01*
X135927471Y-137009056D01*
X135927475Y-137009057D01*
X135933329Y-137010959D01*
X136137894Y-137035351D01*
X136144029Y-137034879D01*
X136144031Y-137034879D01*
X136216625Y-137029293D01*
X136343300Y-137019546D01*
X136349230Y-137017890D01*
X136349232Y-137017890D01*
X136504451Y-136974552D01*
X136541725Y-136964145D01*
X136547214Y-136961372D01*
X136547220Y-136961370D01*
X136720116Y-136874033D01*
X136725610Y-136871258D01*
X136741345Y-136858965D01*
X136883101Y-136748213D01*
X136887951Y-136744424D01*
X136945992Y-136677183D01*
X137018540Y-136593134D01*
X137018540Y-136593133D01*
X137022564Y-136588472D01*
X137032673Y-136570678D01*
X137104217Y-136444737D01*
X137124323Y-136409344D01*
X137189351Y-136213863D01*
X137215171Y-136009474D01*
X137215583Y-135980000D01*
X137214138Y-135965262D01*
X137644520Y-135965262D01*
X137661759Y-136170553D01*
X137663458Y-136176478D01*
X137709395Y-136336678D01*
X137718544Y-136368586D01*
X137721359Y-136374063D01*
X137721360Y-136374066D01*
X137805892Y-136538548D01*
X137812712Y-136551818D01*
X137940677Y-136713270D01*
X137945370Y-136717264D01*
X137945371Y-136717265D01*
X138019541Y-136780388D01*
X138097564Y-136846791D01*
X138102942Y-136849797D01*
X138102944Y-136849798D01*
X138133387Y-136866812D01*
X138277398Y-136947297D01*
X138350170Y-136970942D01*
X138467471Y-137009056D01*
X138467475Y-137009057D01*
X138473329Y-137010959D01*
X138677894Y-137035351D01*
X138684029Y-137034879D01*
X138684031Y-137034879D01*
X138756625Y-137029293D01*
X138883300Y-137019546D01*
X138889230Y-137017890D01*
X138889232Y-137017890D01*
X139044451Y-136974552D01*
X139081725Y-136964145D01*
X139087214Y-136961372D01*
X139087220Y-136961370D01*
X139260116Y-136874033D01*
X139265610Y-136871258D01*
X139281345Y-136858965D01*
X139423101Y-136748213D01*
X139427951Y-136744424D01*
X139485992Y-136677183D01*
X139558540Y-136593134D01*
X139558540Y-136593133D01*
X139562564Y-136588472D01*
X139572673Y-136570678D01*
X139644217Y-136444737D01*
X139664323Y-136409344D01*
X139674365Y-136379158D01*
X139688496Y-136336678D01*
X139728978Y-136278354D01*
X139794566Y-136251175D01*
X139864437Y-136263770D01*
X139916406Y-136312141D01*
X139930971Y-136348751D01*
X139938564Y-136382444D01*
X139941645Y-136392275D01*
X140021770Y-136589603D01*
X140026413Y-136598794D01*
X140137694Y-136780388D01*
X140143777Y-136788699D01*
X140283213Y-136949667D01*
X140290580Y-136956883D01*
X140454434Y-137092916D01*
X140462881Y-137098831D01*
X140646756Y-137206279D01*
X140656042Y-137210729D01*
X140855001Y-137286703D01*
X140864899Y-137289579D01*
X140968250Y-137310606D01*
X140982299Y-137309410D01*
X140986000Y-137299065D01*
X140986000Y-137298517D01*
X141494000Y-137298517D01*
X141498064Y-137312359D01*
X141511478Y-137314393D01*
X141518184Y-137313534D01*
X141528262Y-137311392D01*
X141732255Y-137250191D01*
X141741842Y-137246433D01*
X141933095Y-137152739D01*
X141941945Y-137147464D01*
X142115328Y-137023792D01*
X142123200Y-137017139D01*
X142274052Y-136866812D01*
X142280730Y-136858965D01*
X142405003Y-136686020D01*
X142410313Y-136677183D01*
X142490543Y-136514851D01*
X142538657Y-136462644D01*
X142607358Y-136444737D01*
X142674834Y-136466816D01*
X142719663Y-136521870D01*
X142729500Y-136570678D01*
X142729500Y-136849748D01*
X142730707Y-136855816D01*
X142736234Y-136883600D01*
X142741133Y-136908231D01*
X142785448Y-136974552D01*
X142851769Y-137018867D01*
X142863938Y-137021288D01*
X142863939Y-137021288D01*
X142904184Y-137029293D01*
X142910252Y-137030500D01*
X144649748Y-137030500D01*
X144655816Y-137029293D01*
X144696061Y-137021288D01*
X144696062Y-137021288D01*
X144708231Y-137018867D01*
X144774552Y-136974552D01*
X144818867Y-136908231D01*
X144823767Y-136883600D01*
X144829293Y-136855816D01*
X144830500Y-136849748D01*
X144830500Y-135110252D01*
X144818867Y-135051769D01*
X144774552Y-134985448D01*
X144708231Y-134941133D01*
X144696062Y-134938712D01*
X144696061Y-134938712D01*
X144655816Y-134930707D01*
X144649748Y-134929500D01*
X142910252Y-134929500D01*
X142904184Y-134930707D01*
X142863939Y-134938712D01*
X142863938Y-134938712D01*
X142851769Y-134941133D01*
X142785448Y-134985448D01*
X142741133Y-135051769D01*
X142729500Y-135110252D01*
X142729500Y-135394016D01*
X142709498Y-135462137D01*
X142655842Y-135508630D01*
X142585568Y-135518734D01*
X142520988Y-135489240D01*
X142487950Y-135444258D01*
X142442972Y-135340814D01*
X142438105Y-135331739D01*
X142322426Y-135152926D01*
X142316136Y-135144757D01*
X142172806Y-134987240D01*
X142165273Y-134980215D01*
X141998139Y-134848222D01*
X141989552Y-134842517D01*
X141803117Y-134739599D01*
X141793705Y-134735369D01*
X141592959Y-134664280D01*
X141582988Y-134661646D01*
X141511837Y-134648972D01*
X141498540Y-134650432D01*
X141494000Y-134664989D01*
X141494000Y-137298517D01*
X140986000Y-137298517D01*
X140986000Y-134663102D01*
X140982082Y-134649758D01*
X140967806Y-134647771D01*
X140929324Y-134653660D01*
X140919288Y-134656051D01*
X140716868Y-134722212D01*
X140707359Y-134726209D01*
X140518463Y-134824542D01*
X140509738Y-134830036D01*
X140339433Y-134957905D01*
X140331726Y-134964748D01*
X140184590Y-135118717D01*
X140178104Y-135126727D01*
X140058098Y-135302649D01*
X140053000Y-135311623D01*
X139963338Y-135504783D01*
X139959775Y-135514470D01*
X139931012Y-135618185D01*
X139893533Y-135678483D01*
X139829405Y-135708946D01*
X139758986Y-135699903D01*
X139704636Y-135654224D01*
X139688973Y-135620933D01*
X139686758Y-135613596D01*
X139675935Y-135577749D01*
X139579218Y-135395849D01*
X139476908Y-135270405D01*
X139452906Y-135240975D01*
X139452903Y-135240972D01*
X139449011Y-135236200D01*
X139427312Y-135218249D01*
X139295025Y-135108811D01*
X139295021Y-135108809D01*
X139290275Y-135104882D01*
X139109055Y-135006897D01*
X138912254Y-134945977D01*
X138906129Y-134945333D01*
X138906128Y-134945333D01*
X138713498Y-134925087D01*
X138713496Y-134925087D01*
X138707369Y-134924443D01*
X138620529Y-134932346D01*
X138508342Y-134942555D01*
X138508339Y-134942556D01*
X138502203Y-134943114D01*
X138304572Y-135001280D01*
X138122002Y-135096726D01*
X138117201Y-135100586D01*
X138117198Y-135100588D01*
X137988756Y-135203858D01*
X137961447Y-135225815D01*
X137829024Y-135383630D01*
X137826056Y-135389028D01*
X137826053Y-135389033D01*
X137765681Y-135498850D01*
X137729776Y-135564162D01*
X137667484Y-135760532D01*
X137666798Y-135766649D01*
X137666797Y-135766653D01*
X137661609Y-135812910D01*
X137644520Y-135965262D01*
X137214138Y-135965262D01*
X137195480Y-135774970D01*
X137135935Y-135577749D01*
X137039218Y-135395849D01*
X136936908Y-135270405D01*
X136912906Y-135240975D01*
X136912903Y-135240972D01*
X136909011Y-135236200D01*
X136887312Y-135218249D01*
X136755025Y-135108811D01*
X136755021Y-135108809D01*
X136750275Y-135104882D01*
X136569055Y-135006897D01*
X136372254Y-134945977D01*
X136366129Y-134945333D01*
X136366128Y-134945333D01*
X136173498Y-134925087D01*
X136173496Y-134925087D01*
X136167369Y-134924443D01*
X136080529Y-134932346D01*
X135968342Y-134942555D01*
X135968339Y-134942556D01*
X135962203Y-134943114D01*
X135764572Y-135001280D01*
X135582002Y-135096726D01*
X135577201Y-135100586D01*
X135577198Y-135100588D01*
X135448756Y-135203858D01*
X135421447Y-135225815D01*
X135289024Y-135383630D01*
X135286056Y-135389028D01*
X135286053Y-135389033D01*
X135225681Y-135498850D01*
X135189776Y-135564162D01*
X135127484Y-135760532D01*
X135126798Y-135766649D01*
X135126797Y-135766653D01*
X135121609Y-135812910D01*
X135104520Y-135965262D01*
X134001000Y-135965262D01*
X134001000Y-131000198D01*
X134001082Y-131000000D01*
X134000765Y-130999235D01*
X134000198Y-130999000D01*
X134000000Y-130998918D01*
X133999802Y-130999000D01*
X133994020Y-130999000D01*
X133974514Y-130974802D01*
X133976372Y-130973305D01*
X133955747Y-130952676D01*
X133940662Y-130883300D01*
X133965479Y-130816782D01*
X134007381Y-130780947D01*
X134015302Y-130776753D01*
X134024184Y-130773634D01*
X134031754Y-130768042D01*
X134031757Y-130768041D01*
X134125579Y-130698742D01*
X134133150Y-130693150D01*
X134156760Y-130661185D01*
X134208041Y-130591757D01*
X134208042Y-130591754D01*
X134213634Y-130584184D01*
X134258519Y-130456369D01*
X134261500Y-130424834D01*
X134261500Y-130166816D01*
X134281502Y-130098695D01*
X134335158Y-130052202D01*
X134405432Y-130042098D01*
X134470012Y-130071592D01*
X134476595Y-130077721D01*
X135841595Y-131442721D01*
X135875621Y-131505033D01*
X135878500Y-131531816D01*
X135878500Y-132213834D01*
X135881481Y-132245369D01*
X135926366Y-132373184D01*
X135931958Y-132380754D01*
X135931959Y-132380757D01*
X135984782Y-132452272D01*
X136006850Y-132482150D01*
X136014421Y-132487742D01*
X136108243Y-132557041D01*
X136108246Y-132557042D01*
X136115816Y-132562634D01*
X136243631Y-132607519D01*
X136251277Y-132608242D01*
X136251278Y-132608242D01*
X136257248Y-132608806D01*
X136275166Y-132610500D01*
X137282834Y-132610500D01*
X137300752Y-132608806D01*
X137306722Y-132608242D01*
X137306723Y-132608242D01*
X137314369Y-132607519D01*
X137442184Y-132562634D01*
X137449754Y-132557042D01*
X137449757Y-132557041D01*
X137543579Y-132487742D01*
X137551150Y-132482150D01*
X137573218Y-132452272D01*
X137626041Y-132380757D01*
X137626042Y-132380754D01*
X137631634Y-132373184D01*
X137676519Y-132245369D01*
X137679500Y-132213834D01*
X137679500Y-131406166D01*
X137676519Y-131374631D01*
X137631634Y-131246816D01*
X137626042Y-131239246D01*
X137626041Y-131239243D01*
X137556742Y-131145421D01*
X137551150Y-131137850D01*
X137517937Y-131113318D01*
X137449757Y-131062959D01*
X137449754Y-131062958D01*
X137442184Y-131057366D01*
X137314369Y-131012481D01*
X137306723Y-131011758D01*
X137306722Y-131011758D01*
X137300752Y-131011194D01*
X137282834Y-131009500D01*
X136381216Y-131009500D01*
X136313095Y-130989498D01*
X136292121Y-130972595D01*
X136141273Y-130821747D01*
X136107247Y-130759435D01*
X136112312Y-130688620D01*
X136154859Y-130631784D01*
X136221379Y-130606973D01*
X136243531Y-130608575D01*
X136243631Y-130607519D01*
X136275166Y-130610500D01*
X137282834Y-130610500D01*
X137303198Y-130608575D01*
X137306722Y-130608242D01*
X137306723Y-130608242D01*
X137314369Y-130607519D01*
X137442184Y-130562634D01*
X137449756Y-130557041D01*
X137449760Y-130557039D01*
X137463915Y-130546584D01*
X137530593Y-130522202D01*
X137599869Y-130537739D01*
X137641987Y-130575667D01*
X137655556Y-130595046D01*
X137661461Y-130604315D01*
X137672272Y-130623040D01*
X137680306Y-130636955D01*
X137688751Y-130644041D01*
X137709182Y-130661185D01*
X137717285Y-130668611D01*
X138381595Y-131332921D01*
X138415621Y-131395233D01*
X138418500Y-131422016D01*
X138418500Y-132213834D01*
X138421481Y-132245369D01*
X138466366Y-132373184D01*
X138471958Y-132380754D01*
X138471959Y-132380757D01*
X138524782Y-132452272D01*
X138546850Y-132482150D01*
X138554421Y-132487742D01*
X138648243Y-132557041D01*
X138648246Y-132557042D01*
X138655816Y-132562634D01*
X138783631Y-132607519D01*
X138791277Y-132608242D01*
X138791278Y-132608242D01*
X138797248Y-132608806D01*
X138815166Y-132610500D01*
X139822834Y-132610500D01*
X139840752Y-132608806D01*
X139846722Y-132608242D01*
X139846723Y-132608242D01*
X139854369Y-132607519D01*
X139982184Y-132562634D01*
X139989754Y-132557042D01*
X139989757Y-132557041D01*
X140083579Y-132487742D01*
X140091150Y-132482150D01*
X140113218Y-132452272D01*
X140166041Y-132380757D01*
X140166042Y-132380754D01*
X140171634Y-132373184D01*
X140216519Y-132245369D01*
X140219500Y-132213834D01*
X140219500Y-132207095D01*
X140778001Y-132207095D01*
X140778338Y-132213614D01*
X140788257Y-132309206D01*
X140791149Y-132322600D01*
X140842588Y-132476784D01*
X140848761Y-132489962D01*
X140934063Y-132627807D01*
X140943099Y-132639208D01*
X141057829Y-132753739D01*
X141069240Y-132762751D01*
X141207243Y-132847816D01*
X141220424Y-132853963D01*
X141374710Y-132905138D01*
X141388086Y-132908005D01*
X141482438Y-132917672D01*
X141488854Y-132918000D01*
X141713885Y-132918000D01*
X141729124Y-132913525D01*
X141730329Y-132912135D01*
X141732000Y-132904452D01*
X141732000Y-132082115D01*
X141727525Y-132066876D01*
X141726135Y-132065671D01*
X141718452Y-132064000D01*
X140796116Y-132064000D01*
X140780877Y-132068475D01*
X140779672Y-132069865D01*
X140778001Y-132077548D01*
X140778001Y-132207095D01*
X140219500Y-132207095D01*
X140219500Y-131406166D01*
X140216519Y-131374631D01*
X140171634Y-131246816D01*
X140166042Y-131239246D01*
X140166041Y-131239243D01*
X140096742Y-131145421D01*
X140091150Y-131137850D01*
X140057937Y-131113318D01*
X139989757Y-131062959D01*
X139989754Y-131062958D01*
X139982184Y-131057366D01*
X139854369Y-131012481D01*
X139846723Y-131011758D01*
X139846722Y-131011758D01*
X139840752Y-131011194D01*
X139822834Y-131009500D01*
X139031016Y-131009500D01*
X138962895Y-130989498D01*
X138941921Y-130972595D01*
X138794921Y-130825595D01*
X138760895Y-130763283D01*
X138765960Y-130692468D01*
X138808507Y-130635632D01*
X138875027Y-130610821D01*
X138884016Y-130610500D01*
X139822834Y-130610500D01*
X139843198Y-130608575D01*
X139846722Y-130608242D01*
X139846723Y-130608242D01*
X139854369Y-130607519D01*
X139982184Y-130562634D01*
X139989754Y-130557042D01*
X139989757Y-130557041D01*
X140083579Y-130487742D01*
X140091150Y-130482150D01*
X140115054Y-130449787D01*
X140166041Y-130380757D01*
X140166042Y-130380754D01*
X140171634Y-130373184D01*
X140216519Y-130245369D01*
X140219500Y-130213834D01*
X140219500Y-129406166D01*
X140216519Y-129374631D01*
X140171634Y-129246816D01*
X140166042Y-129239246D01*
X140166041Y-129239243D01*
X140096742Y-129145421D01*
X140091150Y-129137850D01*
X140034624Y-129096099D01*
X139989757Y-129062959D01*
X139989754Y-129062958D01*
X139982184Y-129057366D01*
X139924541Y-129037124D01*
X139866897Y-128995681D01*
X139840808Y-128929652D01*
X139849881Y-128870023D01*
X139900884Y-128746891D01*
X139904044Y-128739262D01*
X139924682Y-128582500D01*
X139906463Y-128444109D01*
X139905122Y-128433926D01*
X139904044Y-128425738D01*
X139843536Y-128279659D01*
X139747282Y-128154218D01*
X139621841Y-128057964D01*
X139475762Y-127997456D01*
X139319000Y-127976818D01*
X139162238Y-127997456D01*
X139016159Y-128057964D01*
X138890718Y-128154218D01*
X138794464Y-128279659D01*
X138733956Y-128425738D01*
X138732878Y-128433926D01*
X138731537Y-128444109D01*
X138713318Y-128582500D01*
X138714396Y-128590688D01*
X138714396Y-128590689D01*
X138720346Y-128635885D01*
X138709406Y-128706034D01*
X138662278Y-128759132D01*
X138593924Y-128778322D01*
X138526046Y-128757510D01*
X138479015Y-128700548D01*
X138461098Y-128657291D01*
X138461095Y-128657287D01*
X138457936Y-128649659D01*
X138378783Y-128546505D01*
X138366705Y-128530764D01*
X138361682Y-128524218D01*
X138347665Y-128513462D01*
X138302835Y-128479063D01*
X138236241Y-128427964D01*
X138090162Y-128367456D01*
X137933400Y-128346818D01*
X137776638Y-128367456D01*
X137630559Y-128427964D01*
X137563965Y-128479063D01*
X137519136Y-128513462D01*
X137505118Y-128524218D01*
X137500095Y-128530764D01*
X137488017Y-128546505D01*
X137408864Y-128649659D01*
X137348356Y-128795738D01*
X137347278Y-128803926D01*
X137334637Y-128899946D01*
X137305915Y-128964873D01*
X137246650Y-129003965D01*
X137209715Y-129009500D01*
X136850431Y-129009500D01*
X136782310Y-128989498D01*
X136735817Y-128935842D01*
X136725713Y-128865568D01*
X136755207Y-128800988D01*
X136761336Y-128794405D01*
X136765736Y-128790005D01*
X136772282Y-128784982D01*
X136868536Y-128659541D01*
X136921877Y-128530764D01*
X136925884Y-128521091D01*
X136929044Y-128513462D01*
X136949682Y-128356700D01*
X136929044Y-128199938D01*
X136923149Y-128185705D01*
X136918180Y-128173710D01*
X136868536Y-128053859D01*
X136772282Y-127928418D01*
X136646841Y-127832164D01*
X136500762Y-127771656D01*
X136344000Y-127751018D01*
X136187238Y-127771656D01*
X136041159Y-127832164D01*
X135915718Y-127928418D01*
X135914832Y-127929573D01*
X135855283Y-127962090D01*
X135784468Y-127957025D01*
X135727632Y-127914478D01*
X135702821Y-127847958D01*
X135702500Y-127838969D01*
X135702500Y-126920500D01*
X135722502Y-126852379D01*
X135776158Y-126805886D01*
X135828500Y-126794500D01*
X135846748Y-126794500D01*
X135852816Y-126793293D01*
X135893061Y-126785288D01*
X135893062Y-126785288D01*
X135905231Y-126782867D01*
X135915548Y-126775973D01*
X135915551Y-126775972D01*
X135941997Y-126758301D01*
X136009749Y-126737085D01*
X136082003Y-126758301D01*
X136108449Y-126775972D01*
X136108452Y-126775973D01*
X136118769Y-126782867D01*
X136130938Y-126785288D01*
X136130939Y-126785288D01*
X136171184Y-126793293D01*
X136177252Y-126794500D01*
X137116748Y-126794500D01*
X137122816Y-126793293D01*
X137163061Y-126785288D01*
X137163062Y-126785288D01*
X137175231Y-126782867D01*
X137185548Y-126775973D01*
X137185551Y-126775972D01*
X137211997Y-126758301D01*
X137279749Y-126737085D01*
X137352003Y-126758301D01*
X137378449Y-126775972D01*
X137378452Y-126775973D01*
X137388769Y-126782867D01*
X137400938Y-126785288D01*
X137400939Y-126785288D01*
X137441184Y-126793293D01*
X137447252Y-126794500D01*
X138386748Y-126794500D01*
X138392816Y-126793293D01*
X138433061Y-126785288D01*
X138433062Y-126785288D01*
X138445231Y-126782867D01*
X138455548Y-126775973D01*
X138455551Y-126775972D01*
X138481997Y-126758301D01*
X138549749Y-126737085D01*
X138622003Y-126758301D01*
X138648449Y-126775972D01*
X138648452Y-126775973D01*
X138658769Y-126782867D01*
X138670938Y-126785288D01*
X138670939Y-126785288D01*
X138711184Y-126793293D01*
X138717252Y-126794500D01*
X139656748Y-126794500D01*
X139662816Y-126793293D01*
X139703061Y-126785288D01*
X139703062Y-126785288D01*
X139715231Y-126782867D01*
X139725548Y-126775973D01*
X139725551Y-126775972D01*
X139751997Y-126758301D01*
X139819749Y-126737085D01*
X139892003Y-126758301D01*
X139918449Y-126775972D01*
X139918452Y-126775973D01*
X139928769Y-126782867D01*
X139940938Y-126785288D01*
X139940939Y-126785288D01*
X139981184Y-126793293D01*
X139987252Y-126794500D01*
X140926748Y-126794500D01*
X140932816Y-126793293D01*
X140973061Y-126785288D01*
X140973062Y-126785288D01*
X140985231Y-126782867D01*
X140995548Y-126775973D01*
X140995551Y-126775972D01*
X141021997Y-126758301D01*
X141089749Y-126737085D01*
X141162003Y-126758301D01*
X141188449Y-126775972D01*
X141188452Y-126775973D01*
X141198769Y-126782867D01*
X141210938Y-126785288D01*
X141210939Y-126785288D01*
X141251184Y-126793293D01*
X141257252Y-126794500D01*
X142196748Y-126794500D01*
X142202816Y-126793293D01*
X142243061Y-126785288D01*
X142243062Y-126785288D01*
X142255231Y-126782867D01*
X142265548Y-126775973D01*
X142265551Y-126775972D01*
X142291997Y-126758301D01*
X142359749Y-126737085D01*
X142432003Y-126758301D01*
X142458449Y-126775972D01*
X142458452Y-126775973D01*
X142468769Y-126782867D01*
X142480938Y-126785288D01*
X142480939Y-126785288D01*
X142521184Y-126793293D01*
X142527252Y-126794500D01*
X143269354Y-126794500D01*
X143337475Y-126814502D01*
X143370180Y-126844935D01*
X143448715Y-126949724D01*
X143461276Y-126962285D01*
X143563351Y-127038786D01*
X143578946Y-127047324D01*
X143699394Y-127092478D01*
X143714649Y-127096105D01*
X143765514Y-127101631D01*
X143772328Y-127102000D01*
X143994885Y-127102000D01*
X144010124Y-127097525D01*
X144011329Y-127096135D01*
X144013000Y-127088452D01*
X144013000Y-127083884D01*
X144521000Y-127083884D01*
X144525475Y-127099123D01*
X144526865Y-127100328D01*
X144534548Y-127101999D01*
X144761669Y-127101999D01*
X144768490Y-127101629D01*
X144819352Y-127096105D01*
X144834604Y-127092479D01*
X144955054Y-127047324D01*
X144970649Y-127038786D01*
X145072724Y-126962285D01*
X145085285Y-126949724D01*
X145161786Y-126847649D01*
X145170324Y-126832054D01*
X145215478Y-126711606D01*
X145219105Y-126696351D01*
X145224631Y-126645486D01*
X145225000Y-126638672D01*
X145225000Y-126116115D01*
X145220525Y-126100876D01*
X145219135Y-126099671D01*
X145211452Y-126098000D01*
X144539115Y-126098000D01*
X144523876Y-126102475D01*
X144522671Y-126103865D01*
X144521000Y-126111548D01*
X144521000Y-127083884D01*
X144013000Y-127083884D01*
X144013000Y-125571885D01*
X144521000Y-125571885D01*
X144525475Y-125587124D01*
X144526865Y-125588329D01*
X144534548Y-125590000D01*
X145206884Y-125590000D01*
X145222123Y-125585525D01*
X145223328Y-125584135D01*
X145224999Y-125576452D01*
X145224999Y-125049331D01*
X145224629Y-125042510D01*
X145219105Y-124991648D01*
X145215479Y-124976396D01*
X145170324Y-124855946D01*
X145161786Y-124840351D01*
X145085285Y-124738276D01*
X145072724Y-124725715D01*
X144970649Y-124649214D01*
X144955054Y-124640676D01*
X144834606Y-124595522D01*
X144819351Y-124591895D01*
X144768486Y-124586369D01*
X144761672Y-124586000D01*
X144539115Y-124586000D01*
X144523876Y-124590475D01*
X144522671Y-124591865D01*
X144521000Y-124599548D01*
X144521000Y-125571885D01*
X144013000Y-125571885D01*
X144013000Y-124604116D01*
X144008525Y-124588877D01*
X144007135Y-124587672D01*
X143999452Y-124586001D01*
X143772331Y-124586001D01*
X143765510Y-124586371D01*
X143714648Y-124591895D01*
X143699396Y-124595521D01*
X143578946Y-124640676D01*
X143563352Y-124649214D01*
X143524064Y-124678658D01*
X143457558Y-124703505D01*
X143388175Y-124688452D01*
X143337946Y-124638277D01*
X143322500Y-124577831D01*
X143322500Y-119326416D01*
X143342502Y-119258295D01*
X143359405Y-119237321D01*
X144297016Y-118299711D01*
X145258622Y-117338105D01*
X145266726Y-117330678D01*
X145295594Y-117306455D01*
X145314439Y-117273815D01*
X145320343Y-117264547D01*
X145335631Y-117242713D01*
X145341953Y-117233684D01*
X145344806Y-117223038D01*
X145346283Y-117219870D01*
X145347476Y-117216593D01*
X145352988Y-117207045D01*
X145359532Y-117169931D01*
X145361912Y-117159196D01*
X145368810Y-117133454D01*
X145371663Y-117122807D01*
X145369581Y-117099000D01*
X145368379Y-117085269D01*
X145367900Y-117074288D01*
X145367900Y-107257316D01*
X145387902Y-107189195D01*
X145404805Y-107168221D01*
X145601905Y-106971121D01*
X145664217Y-106937095D01*
X145735032Y-106942160D01*
G37*
%TD.AperFunction*%
%TA.AperFunction,Conductor*%
G36*
X100209512Y-123324187D02*
G01*
X100227826Y-123343846D01*
X100254715Y-123379724D01*
X100267276Y-123392285D01*
X100369351Y-123468786D01*
X100384946Y-123477324D01*
X100505394Y-123522478D01*
X100520649Y-123526105D01*
X100571514Y-123531631D01*
X100578328Y-123532000D01*
X101162181Y-123531999D01*
X101230302Y-123552001D01*
X101276795Y-123605657D01*
X101286899Y-123675930D01*
X101257406Y-123740511D01*
X101251276Y-123747094D01*
X100980985Y-124017385D01*
X100972881Y-124024812D01*
X100966395Y-124030255D01*
X100944006Y-124049041D01*
X100938493Y-124058590D01*
X100925161Y-124081681D01*
X100919255Y-124090952D01*
X100897646Y-124121812D01*
X100894792Y-124132462D01*
X100893315Y-124135630D01*
X100892123Y-124138906D01*
X100886612Y-124148451D01*
X100881431Y-124177835D01*
X100880070Y-124185554D01*
X100877692Y-124196281D01*
X100867936Y-124232689D01*
X100868897Y-124243674D01*
X100868897Y-124243676D01*
X100871220Y-124270224D01*
X100871700Y-124281206D01*
X100871700Y-126704490D01*
X100871220Y-126715472D01*
X100869201Y-126738552D01*
X100867936Y-126753007D01*
X100876586Y-126785288D01*
X100877691Y-126789410D01*
X100880070Y-126800142D01*
X100886612Y-126837245D01*
X100892123Y-126846790D01*
X100893315Y-126850066D01*
X100894792Y-126853234D01*
X100897646Y-126863884D01*
X100903970Y-126872915D01*
X100919255Y-126894744D01*
X100925161Y-126904015D01*
X100926908Y-126907040D01*
X100944006Y-126936655D01*
X100959581Y-126949724D01*
X100972882Y-126960885D01*
X100980985Y-126968311D01*
X102198379Y-128185705D01*
X102232405Y-128248017D01*
X102227340Y-128318832D01*
X102184793Y-128375668D01*
X102118273Y-128400479D01*
X102109284Y-128400800D01*
X101925410Y-128400800D01*
X101914428Y-128400320D01*
X101887880Y-128397997D01*
X101887878Y-128397997D01*
X101876893Y-128397036D01*
X101840485Y-128406792D01*
X101829758Y-128409170D01*
X101826399Y-128409762D01*
X101792655Y-128415712D01*
X101783110Y-128421223D01*
X101779834Y-128422415D01*
X101776666Y-128423892D01*
X101766016Y-128426746D01*
X101741220Y-128444109D01*
X101735156Y-128448355D01*
X101725885Y-128454261D01*
X101709845Y-128463522D01*
X101693245Y-128473106D01*
X101669015Y-128501982D01*
X101661589Y-128510085D01*
X100748785Y-129422889D01*
X100740681Y-129430316D01*
X100711806Y-129454545D01*
X100706293Y-129464094D01*
X100692961Y-129487185D01*
X100687055Y-129496456D01*
X100665446Y-129527316D01*
X100662592Y-129537966D01*
X100661115Y-129541134D01*
X100659923Y-129544410D01*
X100654412Y-129553955D01*
X100649865Y-129579744D01*
X100647870Y-129591058D01*
X100645492Y-129601785D01*
X100635736Y-129638193D01*
X100636697Y-129649178D01*
X100636697Y-129649180D01*
X100639020Y-129675728D01*
X100639500Y-129686710D01*
X100639500Y-132441290D01*
X100639020Y-132452272D01*
X100636876Y-132476782D01*
X100635736Y-132489807D01*
X100638590Y-132500456D01*
X100645491Y-132526210D01*
X100647870Y-132536942D01*
X100654412Y-132574045D01*
X100659923Y-132583590D01*
X100661115Y-132586866D01*
X100662592Y-132590034D01*
X100665446Y-132600684D01*
X100683705Y-132626760D01*
X100687055Y-132631544D01*
X100692961Y-132640815D01*
X100696542Y-132647017D01*
X100711806Y-132673455D01*
X100735606Y-132693426D01*
X100740682Y-132697685D01*
X100748785Y-132705111D01*
X102244895Y-134201222D01*
X102252321Y-134209325D01*
X102276545Y-134238194D01*
X102309184Y-134257038D01*
X102318452Y-134262942D01*
X102349316Y-134284553D01*
X102359961Y-134287405D01*
X102364444Y-134289496D01*
X102366251Y-134290437D01*
X102368154Y-134291225D01*
X102368784Y-134291519D01*
X102369438Y-134292095D01*
X102374172Y-134294559D01*
X102375936Y-134295577D01*
X102375078Y-134297064D01*
X102422055Y-134338452D01*
X102441500Y-134405698D01*
X102441500Y-134513834D01*
X102444481Y-134545369D01*
X102489366Y-134673184D01*
X102494958Y-134680754D01*
X102494959Y-134680757D01*
X102521605Y-134716832D01*
X102569850Y-134782150D01*
X102678816Y-134862634D01*
X102687705Y-134865755D01*
X102690941Y-134867469D01*
X102741784Y-134917021D01*
X102757767Y-134986195D01*
X102733814Y-135053029D01*
X102671859Y-135098348D01*
X102584216Y-135127588D01*
X102571038Y-135133761D01*
X102433193Y-135219063D01*
X102421792Y-135228099D01*
X102307261Y-135342829D01*
X102298249Y-135354240D01*
X102213184Y-135492243D01*
X102207037Y-135505424D01*
X102155862Y-135659710D01*
X102152995Y-135673086D01*
X102143328Y-135767438D01*
X102143000Y-135773855D01*
X102143000Y-135998885D01*
X102147475Y-136014124D01*
X102148865Y-136015329D01*
X102156548Y-136017000D01*
X103379000Y-136017000D01*
X103447121Y-136037002D01*
X103493614Y-136090658D01*
X103505000Y-136143000D01*
X103505000Y-137460884D01*
X103509475Y-137476123D01*
X103510865Y-137477328D01*
X103518548Y-137478999D01*
X103648095Y-137478999D01*
X103654612Y-137478662D01*
X103700224Y-137473929D01*
X103770045Y-137486794D01*
X103821828Y-137535364D01*
X103839130Y-137604220D01*
X103816460Y-137671500D01*
X103802323Y-137688351D01*
X103744079Y-137746595D01*
X103681767Y-137780621D01*
X103654984Y-137783500D01*
X102863166Y-137783500D01*
X102845248Y-137785194D01*
X102839278Y-137785758D01*
X102839277Y-137785758D01*
X102831631Y-137786481D01*
X102703816Y-137831366D01*
X102696246Y-137836958D01*
X102696243Y-137836959D01*
X102611794Y-137899335D01*
X102594850Y-137911850D01*
X102589258Y-137919421D01*
X102519959Y-138013243D01*
X102519958Y-138013246D01*
X102514366Y-138020816D01*
X102469481Y-138148631D01*
X102466500Y-138180166D01*
X102466500Y-139187834D01*
X102469481Y-139219369D01*
X102514366Y-139347184D01*
X102519958Y-139354754D01*
X102519959Y-139354757D01*
X102521166Y-139356391D01*
X102594850Y-139456150D01*
X102602421Y-139461742D01*
X102696243Y-139531041D01*
X102696246Y-139531042D01*
X102703816Y-139536634D01*
X102831631Y-139581519D01*
X102839277Y-139582242D01*
X102839278Y-139582242D01*
X102845248Y-139582806D01*
X102863166Y-139584500D01*
X103670834Y-139584500D01*
X103688752Y-139582806D01*
X103694722Y-139582242D01*
X103694723Y-139582242D01*
X103702369Y-139581519D01*
X103830184Y-139536634D01*
X103837754Y-139531042D01*
X103837757Y-139531041D01*
X103931579Y-139461742D01*
X103939150Y-139456150D01*
X104012834Y-139356391D01*
X104014041Y-139354757D01*
X104014042Y-139354754D01*
X104019634Y-139347184D01*
X104064519Y-139219369D01*
X104067500Y-139187834D01*
X104067500Y-138396016D01*
X104087502Y-138327895D01*
X104104405Y-138306921D01*
X104251405Y-138159921D01*
X104313717Y-138125895D01*
X104384532Y-138130960D01*
X104441368Y-138173507D01*
X104466179Y-138240027D01*
X104466500Y-138249016D01*
X104466500Y-139187834D01*
X104469481Y-139219369D01*
X104514366Y-139347184D01*
X104519958Y-139354754D01*
X104519959Y-139354757D01*
X104521166Y-139356391D01*
X104594850Y-139456150D01*
X104602421Y-139461742D01*
X104696243Y-139531041D01*
X104696246Y-139531042D01*
X104703816Y-139536634D01*
X104831631Y-139581519D01*
X104839277Y-139582242D01*
X104839278Y-139582242D01*
X104845248Y-139582806D01*
X104863166Y-139584500D01*
X105670834Y-139584500D01*
X105688752Y-139582806D01*
X105694722Y-139582242D01*
X105694723Y-139582242D01*
X105702369Y-139581519D01*
X105830184Y-139536634D01*
X105837754Y-139531042D01*
X105837757Y-139531041D01*
X105931579Y-139461742D01*
X105939150Y-139456150D01*
X106012834Y-139356391D01*
X106014041Y-139354757D01*
X106014042Y-139354754D01*
X106019634Y-139347184D01*
X106064034Y-139220751D01*
X106105476Y-139163107D01*
X106171506Y-139137018D01*
X106182916Y-139136500D01*
X108877512Y-139136500D01*
X108945633Y-139156502D01*
X108992126Y-139210158D01*
X109002434Y-139246053D01*
X109015956Y-139348762D01*
X109076464Y-139494841D01*
X109172718Y-139620282D01*
X109298159Y-139716536D01*
X109382962Y-139751663D01*
X109394860Y-139756591D01*
X109450141Y-139801139D01*
X109472562Y-139868503D01*
X109455004Y-139937294D01*
X109403042Y-139985672D01*
X109346642Y-139999000D01*
X100127000Y-139999000D01*
X100058879Y-139978998D01*
X100012386Y-139925342D01*
X100001000Y-139873000D01*
X100001000Y-136768095D01*
X102143001Y-136768095D01*
X102143338Y-136774614D01*
X102153257Y-136870206D01*
X102156149Y-136883600D01*
X102207588Y-137037784D01*
X102213761Y-137050962D01*
X102299063Y-137188807D01*
X102308099Y-137200208D01*
X102422829Y-137314739D01*
X102434240Y-137323751D01*
X102572243Y-137408816D01*
X102585424Y-137414963D01*
X102739710Y-137466138D01*
X102753086Y-137469005D01*
X102847438Y-137478672D01*
X102853854Y-137479000D01*
X102978885Y-137479000D01*
X102994124Y-137474525D01*
X102995329Y-137473135D01*
X102997000Y-137465452D01*
X102997000Y-136543115D01*
X102992525Y-136527876D01*
X102991135Y-136526671D01*
X102983452Y-136525000D01*
X102161116Y-136525000D01*
X102145877Y-136529475D01*
X102144672Y-136530865D01*
X102143001Y-136538548D01*
X102143001Y-136768095D01*
X100001000Y-136768095D01*
X100001000Y-123419411D01*
X100021002Y-123351290D01*
X100074658Y-123304797D01*
X100144932Y-123294693D01*
X100209512Y-123324187D01*
G37*
%TD.AperFunction*%
%TA.AperFunction,Conductor*%
G36*
X103006215Y-129071802D02*
G01*
X103052708Y-129125458D01*
X103062812Y-129195732D01*
X103054505Y-129226013D01*
X103003256Y-129349738D01*
X102982618Y-129506500D01*
X103003256Y-129663262D01*
X103006415Y-129670889D01*
X103006416Y-129670892D01*
X103045928Y-129766282D01*
X103053517Y-129836872D01*
X103021738Y-129900359D01*
X102960679Y-129936586D01*
X102929519Y-129940500D01*
X102878354Y-129940500D01*
X102874650Y-129940941D01*
X102874647Y-129940941D01*
X102869808Y-129941517D01*
X102852154Y-129943618D01*
X102843514Y-129947456D01*
X102843513Y-129947456D01*
X102818877Y-129958399D01*
X102749847Y-129989061D01*
X102748132Y-129985199D01*
X102701854Y-130000353D01*
X102646912Y-129986046D01*
X102645713Y-129988759D01*
X102599264Y-129968224D01*
X102543327Y-129943494D01*
X102517646Y-129940500D01*
X102420921Y-129940500D01*
X102352800Y-129920498D01*
X102320959Y-129891205D01*
X102261653Y-129813917D01*
X102250080Y-129802344D01*
X102136176Y-129714941D01*
X102121993Y-129706753D01*
X101989351Y-129651811D01*
X101973531Y-129647572D01*
X101940960Y-129643284D01*
X101926778Y-129645495D01*
X101923000Y-129658652D01*
X101923000Y-132097965D01*
X101927044Y-132111736D01*
X101940583Y-132113765D01*
X101973533Y-132109428D01*
X101989348Y-132105190D01*
X102121993Y-132050247D01*
X102136176Y-132042059D01*
X102250080Y-131954656D01*
X102261653Y-131943083D01*
X102320959Y-131865795D01*
X102378297Y-131823928D01*
X102420921Y-131816500D01*
X102517646Y-131816500D01*
X102521350Y-131816059D01*
X102521353Y-131816059D01*
X102528746Y-131815179D01*
X102543846Y-131813382D01*
X102598457Y-131789125D01*
X102646153Y-131767939D01*
X102647868Y-131771801D01*
X102694146Y-131756647D01*
X102749088Y-131770954D01*
X102750287Y-131768241D01*
X102852673Y-131813506D01*
X102878354Y-131816500D01*
X103167646Y-131816500D01*
X103171350Y-131816059D01*
X103171353Y-131816059D01*
X103178746Y-131815179D01*
X103193846Y-131813382D01*
X103248457Y-131789125D01*
X103296153Y-131767939D01*
X103297868Y-131771801D01*
X103344146Y-131756647D01*
X103399088Y-131770954D01*
X103400287Y-131768241D01*
X103502673Y-131813506D01*
X103528354Y-131816500D01*
X103817646Y-131816500D01*
X103821350Y-131816059D01*
X103821353Y-131816059D01*
X103828746Y-131815179D01*
X103843846Y-131813382D01*
X103898457Y-131789125D01*
X103946153Y-131767939D01*
X103947868Y-131771801D01*
X103994146Y-131756647D01*
X104049088Y-131770954D01*
X104050287Y-131768241D01*
X104152673Y-131813506D01*
X104178354Y-131816500D01*
X104467646Y-131816500D01*
X104471350Y-131816059D01*
X104471353Y-131816059D01*
X104478746Y-131815179D01*
X104493846Y-131813382D01*
X104562292Y-131782980D01*
X104632664Y-131773608D01*
X104696935Y-131803770D01*
X104709960Y-131817142D01*
X104714293Y-131822306D01*
X104719806Y-131831855D01*
X104728252Y-131838942D01*
X104748682Y-131856085D01*
X104756785Y-131863511D01*
X105527774Y-132634500D01*
X105561800Y-132696812D01*
X105561800Y-132750378D01*
X105558500Y-132765548D01*
X105558500Y-133712885D01*
X105562975Y-133728124D01*
X105564365Y-133729329D01*
X105572048Y-133731000D01*
X106381884Y-133731000D01*
X106397124Y-133726525D01*
X106411874Y-133709503D01*
X106471600Y-133671119D01*
X106542596Y-133671119D01*
X106596193Y-133702920D01*
X107749240Y-134855967D01*
X107783266Y-134918279D01*
X107778201Y-134989094D01*
X107735654Y-135045930D01*
X107718529Y-135056718D01*
X107642002Y-135096726D01*
X107637201Y-135100586D01*
X107637198Y-135100588D01*
X107508756Y-135203858D01*
X107481447Y-135225815D01*
X107349024Y-135383630D01*
X107346056Y-135389028D01*
X107346053Y-135389033D01*
X107285681Y-135498850D01*
X107249776Y-135564162D01*
X107187484Y-135760532D01*
X107186798Y-135766649D01*
X107186797Y-135766653D01*
X107181609Y-135812910D01*
X107164520Y-135965262D01*
X107181759Y-136170553D01*
X107183458Y-136176478D01*
X107229395Y-136336678D01*
X107238544Y-136368586D01*
X107241359Y-136374063D01*
X107241360Y-136374066D01*
X107325892Y-136538548D01*
X107332712Y-136551818D01*
X107460677Y-136713270D01*
X107465370Y-136717264D01*
X107465371Y-136717265D01*
X107539541Y-136780388D01*
X107617564Y-136846791D01*
X107622942Y-136849797D01*
X107622944Y-136849798D01*
X107653387Y-136866812D01*
X107797398Y-136947297D01*
X107870170Y-136970942D01*
X107987471Y-137009056D01*
X107987475Y-137009057D01*
X107993329Y-137010959D01*
X108197894Y-137035351D01*
X108204029Y-137034879D01*
X108204031Y-137034879D01*
X108276625Y-137029293D01*
X108403300Y-137019546D01*
X108409230Y-137017890D01*
X108409232Y-137017890D01*
X108564451Y-136974552D01*
X108601725Y-136964145D01*
X108607214Y-136961372D01*
X108607220Y-136961370D01*
X108780116Y-136874033D01*
X108785610Y-136871258D01*
X108801345Y-136858965D01*
X108943101Y-136748213D01*
X108947951Y-136744424D01*
X109005992Y-136677183D01*
X109078540Y-136593134D01*
X109078540Y-136593133D01*
X109082564Y-136588472D01*
X109092673Y-136570678D01*
X109164217Y-136444737D01*
X109184323Y-136409344D01*
X109249351Y-136213863D01*
X109275171Y-136009474D01*
X109275583Y-135980000D01*
X109255480Y-135774970D01*
X109195935Y-135577749D01*
X109099218Y-135395849D01*
X109089253Y-135383630D01*
X109064428Y-135353193D01*
X109050272Y-135335835D01*
X109022718Y-135270405D01*
X109034913Y-135200463D01*
X109082985Y-135148218D01*
X109147915Y-135130200D01*
X109831470Y-135130200D01*
X109899591Y-135150202D01*
X109946084Y-135203858D01*
X109956188Y-135274132D01*
X109927993Y-135337189D01*
X109889024Y-135383630D01*
X109886056Y-135389028D01*
X109886053Y-135389033D01*
X109825681Y-135498850D01*
X109789776Y-135564162D01*
X109727484Y-135760532D01*
X109726798Y-135766649D01*
X109726797Y-135766653D01*
X109721609Y-135812910D01*
X109704520Y-135965262D01*
X109721759Y-136170553D01*
X109723458Y-136176478D01*
X109769395Y-136336678D01*
X109778544Y-136368586D01*
X109781359Y-136374063D01*
X109781360Y-136374066D01*
X109865892Y-136538548D01*
X109872712Y-136551818D01*
X110000677Y-136713270D01*
X110005370Y-136717264D01*
X110005371Y-136717265D01*
X110079541Y-136780388D01*
X110157564Y-136846791D01*
X110337398Y-136947297D01*
X110336928Y-136948138D01*
X110387100Y-136990181D01*
X110408224Y-137057963D01*
X110389349Y-137126404D01*
X110371336Y-137149138D01*
X109833879Y-137686595D01*
X109771567Y-137720621D01*
X109744784Y-137723500D01*
X106787016Y-137723500D01*
X106718895Y-137703498D01*
X106697921Y-137686595D01*
X106044580Y-137033254D01*
X106010554Y-136970942D01*
X106014792Y-136902411D01*
X106045974Y-136813616D01*
X106048519Y-136806369D01*
X106051500Y-136774834D01*
X106051500Y-135767166D01*
X106048519Y-135735631D01*
X106003634Y-135607816D01*
X105998042Y-135600246D01*
X105998041Y-135600243D01*
X105928742Y-135506421D01*
X105923150Y-135498850D01*
X105814184Y-135418366D01*
X105814880Y-135417423D01*
X105770544Y-135374215D01*
X105754560Y-135305041D01*
X105778511Y-135238206D01*
X105840468Y-135192885D01*
X105958784Y-135153412D01*
X105971962Y-135147239D01*
X106109807Y-135061937D01*
X106121208Y-135052901D01*
X106235739Y-134938171D01*
X106244751Y-134926760D01*
X106329816Y-134788757D01*
X106335963Y-134775576D01*
X106387138Y-134621290D01*
X106390005Y-134607914D01*
X106399672Y-134513562D01*
X106400000Y-134507146D01*
X106400000Y-134257115D01*
X106395525Y-134241876D01*
X106394135Y-134240671D01*
X106386452Y-134239000D01*
X105176500Y-134239000D01*
X105108379Y-134218998D01*
X105061886Y-134165342D01*
X105050500Y-134113000D01*
X105050500Y-132770116D01*
X105046025Y-132754877D01*
X105044635Y-132753672D01*
X105036952Y-132752001D01*
X104919905Y-132752001D01*
X104913386Y-132752338D01*
X104817794Y-132762257D01*
X104804400Y-132765149D01*
X104650216Y-132816588D01*
X104637038Y-132822761D01*
X104499193Y-132908063D01*
X104487792Y-132917099D01*
X104373261Y-133031829D01*
X104364249Y-133043240D01*
X104279184Y-133181243D01*
X104273037Y-133194424D01*
X104224389Y-133341092D01*
X104183958Y-133399451D01*
X104118394Y-133426688D01*
X104048512Y-133414154D01*
X103996500Y-133365830D01*
X103985913Y-133343172D01*
X103983778Y-133337092D01*
X103969634Y-133296816D01*
X103964042Y-133289246D01*
X103964041Y-133289243D01*
X103894742Y-133195421D01*
X103889150Y-133187850D01*
X103820591Y-133137211D01*
X103787757Y-133112959D01*
X103787754Y-133112958D01*
X103780184Y-133107366D01*
X103652369Y-133062481D01*
X103644723Y-133061758D01*
X103644722Y-133061758D01*
X103638752Y-133061194D01*
X103620834Y-133059500D01*
X102838166Y-133059500D01*
X102820248Y-133061194D01*
X102814278Y-133061758D01*
X102814277Y-133061758D01*
X102806631Y-133062481D01*
X102678816Y-133107366D01*
X102671246Y-133112958D01*
X102671243Y-133112959D01*
X102638409Y-133137211D01*
X102569850Y-133187850D01*
X102489366Y-133296816D01*
X102488601Y-133298994D01*
X102441665Y-133347151D01*
X102372490Y-133363132D01*
X102305657Y-133339177D01*
X102290776Y-133326449D01*
X101327404Y-132363078D01*
X101293380Y-132300767D01*
X101290500Y-132273984D01*
X101290500Y-132224876D01*
X101310502Y-132156755D01*
X101364158Y-132110262D01*
X101434432Y-132100158D01*
X101449112Y-132103170D01*
X101472465Y-132109428D01*
X101505040Y-132113716D01*
X101519222Y-132111505D01*
X101523000Y-132098348D01*
X101523000Y-129640920D01*
X101523700Y-129640920D01*
X101523701Y-129590419D01*
X101555501Y-129536825D01*
X102003621Y-129088705D01*
X102065933Y-129054679D01*
X102092716Y-129051800D01*
X102938094Y-129051800D01*
X103006215Y-129071802D01*
G37*
%TD.AperFunction*%
%TA.AperFunction,Conductor*%
G36*
X124595104Y-125567502D02*
G01*
X124616078Y-125584405D01*
X124626078Y-125594405D01*
X124660104Y-125656717D01*
X124655039Y-125727532D01*
X124612492Y-125784368D01*
X124545972Y-125809179D01*
X124536983Y-125809500D01*
X123677166Y-125809500D01*
X123659248Y-125811194D01*
X123653278Y-125811758D01*
X123653277Y-125811758D01*
X123645631Y-125812481D01*
X123517816Y-125857366D01*
X123510246Y-125862958D01*
X123510243Y-125862959D01*
X123477910Y-125886841D01*
X123408850Y-125937850D01*
X123403258Y-125945421D01*
X123333959Y-126039243D01*
X123333958Y-126039246D01*
X123328366Y-126046816D01*
X123283481Y-126174631D01*
X123283394Y-126175553D01*
X123250656Y-126235255D01*
X123188283Y-126269168D01*
X123161720Y-126272000D01*
X123091280Y-126272000D01*
X123023159Y-126251998D01*
X122976666Y-126198342D01*
X122969822Y-126177839D01*
X122969519Y-126174631D01*
X122924634Y-126046816D01*
X122919042Y-126039246D01*
X122919041Y-126039243D01*
X122849742Y-125945421D01*
X122844150Y-125937850D01*
X122775090Y-125886841D01*
X122742757Y-125862959D01*
X122742754Y-125862958D01*
X122735184Y-125857366D01*
X122607369Y-125812481D01*
X122599723Y-125811758D01*
X122599722Y-125811758D01*
X122593752Y-125811194D01*
X122575834Y-125809500D01*
X121518166Y-125809500D01*
X121500248Y-125811194D01*
X121494278Y-125811758D01*
X121494277Y-125811758D01*
X121486631Y-125812481D01*
X121358816Y-125857366D01*
X121351246Y-125862958D01*
X121351243Y-125862959D01*
X121318910Y-125886841D01*
X121249850Y-125937850D01*
X121244258Y-125945421D01*
X121174959Y-126039243D01*
X121174958Y-126039246D01*
X121169366Y-126046816D01*
X121124481Y-126174631D01*
X121121500Y-126206166D01*
X121121500Y-126988834D01*
X121124481Y-127020369D01*
X121169366Y-127148184D01*
X121174958Y-127155754D01*
X121174959Y-127155757D01*
X121198001Y-127186953D01*
X121249850Y-127257150D01*
X121257421Y-127262742D01*
X121351243Y-127332041D01*
X121351246Y-127332042D01*
X121358816Y-127337634D01*
X121398469Y-127351559D01*
X121404973Y-127353843D01*
X121462619Y-127395286D01*
X121488707Y-127461316D01*
X121474956Y-127530968D01*
X121425731Y-127582129D01*
X121403101Y-127592250D01*
X121255216Y-127641588D01*
X121242038Y-127647761D01*
X121104193Y-127733063D01*
X121092792Y-127742099D01*
X120978261Y-127856829D01*
X120969249Y-127868240D01*
X120884184Y-128006243D01*
X120878037Y-128019424D01*
X120826862Y-128173710D01*
X120823995Y-128187086D01*
X120814328Y-128281438D01*
X120814000Y-128287855D01*
X120814000Y-128400385D01*
X120818475Y-128415624D01*
X120819865Y-128416829D01*
X120827548Y-128418500D01*
X124334000Y-128418500D01*
X124402121Y-128438502D01*
X124448614Y-128492158D01*
X124460000Y-128544500D01*
X124460000Y-128800500D01*
X124439998Y-128868621D01*
X124386342Y-128915114D01*
X124334000Y-128926500D01*
X120832116Y-128926500D01*
X120816877Y-128930975D01*
X120815672Y-128932365D01*
X120814001Y-128940048D01*
X120814001Y-129057095D01*
X120814338Y-129063614D01*
X120824257Y-129159206D01*
X120827149Y-129172600D01*
X120878588Y-129326784D01*
X120884761Y-129339962D01*
X120970063Y-129477807D01*
X120979099Y-129489208D01*
X121093829Y-129603739D01*
X121105240Y-129612751D01*
X121110899Y-129616239D01*
X121158393Y-129669010D01*
X121169818Y-129739081D01*
X121141545Y-129804206D01*
X121082552Y-129843707D01*
X121044785Y-129849500D01*
X120597500Y-129849500D01*
X120529379Y-129829498D01*
X120482886Y-129775842D01*
X120471500Y-129723500D01*
X120471500Y-127733252D01*
X120467045Y-127710853D01*
X120462288Y-127686939D01*
X120462288Y-127686938D01*
X120459867Y-127674769D01*
X120450869Y-127661302D01*
X120422443Y-127618761D01*
X120415552Y-127608448D01*
X120349231Y-127564133D01*
X120337062Y-127561712D01*
X120337061Y-127561712D01*
X120296816Y-127553707D01*
X120290748Y-127552500D01*
X118751252Y-127552500D01*
X118745184Y-127553707D01*
X118704939Y-127561712D01*
X118704938Y-127561712D01*
X118692769Y-127564133D01*
X118626448Y-127608448D01*
X118619557Y-127618761D01*
X118591132Y-127661302D01*
X118582133Y-127674769D01*
X118579712Y-127686938D01*
X118579712Y-127686939D01*
X118574955Y-127710853D01*
X118570500Y-127733252D01*
X118570500Y-129328984D01*
X118550498Y-129397105D01*
X118533595Y-129418079D01*
X118386595Y-129565079D01*
X118324283Y-129599105D01*
X118253468Y-129594040D01*
X118196632Y-129551493D01*
X118171821Y-129484973D01*
X118171500Y-129475984D01*
X118171500Y-127733252D01*
X118167045Y-127710853D01*
X118162288Y-127686939D01*
X118162288Y-127686938D01*
X118159867Y-127674769D01*
X118150869Y-127661302D01*
X118122443Y-127618761D01*
X118115552Y-127608448D01*
X118049231Y-127564133D01*
X118037062Y-127561712D01*
X118037061Y-127561712D01*
X117996816Y-127553707D01*
X117990748Y-127552500D01*
X116451252Y-127552500D01*
X116445184Y-127553707D01*
X116404939Y-127561712D01*
X116404938Y-127561712D01*
X116392769Y-127564133D01*
X116382453Y-127571026D01*
X116364627Y-127582937D01*
X116326448Y-127608448D01*
X116324168Y-127605036D01*
X116281933Y-127628099D01*
X116211118Y-127623034D01*
X116154282Y-127580487D01*
X116137168Y-127549207D01*
X116124325Y-127514948D01*
X116115786Y-127499351D01*
X116039285Y-127397276D01*
X116026724Y-127384715D01*
X115924649Y-127308214D01*
X115909054Y-127299676D01*
X115788606Y-127254522D01*
X115773351Y-127250895D01*
X115722486Y-127245369D01*
X115715672Y-127245000D01*
X115193115Y-127245000D01*
X115177876Y-127249475D01*
X115176671Y-127250865D01*
X115175000Y-127258548D01*
X115175000Y-128881000D01*
X115154998Y-128949121D01*
X115101342Y-128995614D01*
X115049000Y-129007000D01*
X114793000Y-129007000D01*
X114724879Y-128986998D01*
X114678386Y-128933342D01*
X114667000Y-128881000D01*
X114667000Y-127263116D01*
X114662525Y-127247877D01*
X114661135Y-127246672D01*
X114653452Y-127245001D01*
X114266515Y-127245001D01*
X114198394Y-127224999D01*
X114151901Y-127171343D01*
X114141797Y-127101069D01*
X114171291Y-127036489D01*
X114177420Y-127029906D01*
X115622921Y-125584405D01*
X115685233Y-125550379D01*
X115712016Y-125547500D01*
X124526983Y-125547500D01*
X124595104Y-125567502D01*
G37*
%TD.AperFunction*%
%TA.AperFunction,Conductor*%
G36*
X112464121Y-128438502D02*
G01*
X112510614Y-128492158D01*
X112522000Y-128544500D01*
X112522000Y-128800500D01*
X112501998Y-128868621D01*
X112448342Y-128915114D01*
X112396000Y-128926500D01*
X109981000Y-128926500D01*
X109912879Y-128906498D01*
X109866386Y-128852842D01*
X109855000Y-128800500D01*
X109855000Y-128544500D01*
X109875002Y-128476379D01*
X109928658Y-128429886D01*
X109981000Y-128418500D01*
X112396000Y-128418500D01*
X112464121Y-128438502D01*
G37*
%TD.AperFunction*%
%TA.AperFunction,Conductor*%
G36*
X108922804Y-127623302D02*
G01*
X108943779Y-127640205D01*
X109014426Y-127710853D01*
X109048451Y-127773166D01*
X109043385Y-127843981D01*
X109032590Y-127866063D01*
X108946186Y-128006238D01*
X108940037Y-128019424D01*
X108888862Y-128173710D01*
X108885995Y-128187086D01*
X108876328Y-128281438D01*
X108876000Y-128287855D01*
X108876000Y-128545847D01*
X108855998Y-128613968D01*
X108802342Y-128660461D01*
X108732068Y-128670565D01*
X108687000Y-128654966D01*
X108677808Y-128649659D01*
X108665513Y-128642560D01*
X108656244Y-128636655D01*
X108634415Y-128621370D01*
X108625384Y-128615046D01*
X108614734Y-128612192D01*
X108611566Y-128610715D01*
X108608290Y-128609523D01*
X108598745Y-128604012D01*
X108565001Y-128598062D01*
X108561642Y-128597470D01*
X108550915Y-128595092D01*
X108514507Y-128585336D01*
X108503522Y-128586297D01*
X108503520Y-128586297D01*
X108476972Y-128588620D01*
X108465990Y-128589100D01*
X106953616Y-128589100D01*
X106885495Y-128569098D01*
X106864521Y-128552195D01*
X106630621Y-128318295D01*
X106596595Y-128255983D01*
X106601660Y-128185168D01*
X106644207Y-128128332D01*
X106710727Y-128103521D01*
X106719716Y-128103200D01*
X107406590Y-128103200D01*
X107417572Y-128103680D01*
X107444120Y-128106003D01*
X107444122Y-128106003D01*
X107455107Y-128106964D01*
X107491515Y-128097208D01*
X107502242Y-128094830D01*
X107505601Y-128094238D01*
X107539345Y-128088288D01*
X107548890Y-128082777D01*
X107552166Y-128081585D01*
X107555334Y-128080108D01*
X107565984Y-128077254D01*
X107596844Y-128055645D01*
X107606115Y-128049739D01*
X107629206Y-128036407D01*
X107638755Y-128030894D01*
X107662979Y-128002025D01*
X107670406Y-127993920D01*
X108024123Y-127640204D01*
X108086435Y-127606179D01*
X108113218Y-127603300D01*
X108854683Y-127603300D01*
X108922804Y-127623302D01*
G37*
%TD.AperFunction*%
%TA.AperFunction,Conductor*%
G36*
X112799640Y-108041502D02*
G01*
X112846133Y-108095158D01*
X112856237Y-108165432D01*
X112826743Y-108230012D01*
X112775129Y-108265712D01*
X112723376Y-108284804D01*
X112723368Y-108284808D01*
X112717957Y-108286804D01*
X112712996Y-108289756D01*
X112712995Y-108289756D01*
X112579824Y-108368985D01*
X112528341Y-108399614D01*
X112362457Y-108545090D01*
X112225863Y-108718360D01*
X112123131Y-108913620D01*
X112086349Y-109032078D01*
X112064362Y-109102889D01*
X112057703Y-109124333D01*
X112031770Y-109343440D01*
X112046200Y-109563604D01*
X112047621Y-109569200D01*
X112047622Y-109569205D01*
X112090396Y-109737623D01*
X112100511Y-109777452D01*
X112102928Y-109782694D01*
X112102928Y-109782695D01*
X112155300Y-109896298D01*
X112192883Y-109977821D01*
X112320222Y-110158002D01*
X112478264Y-110311961D01*
X112483060Y-110315166D01*
X112483063Y-110315168D01*
X112611325Y-110400869D01*
X112661717Y-110434540D01*
X112667020Y-110436818D01*
X112667023Y-110436820D01*
X112841754Y-110511890D01*
X112864436Y-110521635D01*
X112925949Y-110535554D01*
X113073995Y-110569054D01*
X113074001Y-110569055D01*
X113079632Y-110570329D01*
X113085403Y-110570556D01*
X113085405Y-110570556D01*
X113153211Y-110573220D01*
X113300098Y-110578991D01*
X113420731Y-110561500D01*
X113512738Y-110548160D01*
X113512743Y-110548159D01*
X113518452Y-110547331D01*
X113523916Y-110545476D01*
X113523921Y-110545475D01*
X113721907Y-110478268D01*
X113721912Y-110478266D01*
X113727379Y-110476410D01*
X113757039Y-110459800D01*
X113904406Y-110377270D01*
X113919884Y-110368602D01*
X113928461Y-110361469D01*
X114076405Y-110238424D01*
X114089518Y-110227518D01*
X114143985Y-110162029D01*
X114226908Y-110062326D01*
X114226910Y-110062323D01*
X114230602Y-110057884D01*
X114304730Y-109925519D01*
X114335586Y-109870422D01*
X114335587Y-109870420D01*
X114338410Y-109865379D01*
X114340266Y-109859912D01*
X114340268Y-109859907D01*
X114407475Y-109661921D01*
X114407476Y-109661916D01*
X114409331Y-109656452D01*
X114410159Y-109650743D01*
X114410160Y-109650738D01*
X114436496Y-109469099D01*
X114440991Y-109438098D01*
X114442643Y-109375000D01*
X114422454Y-109155289D01*
X114414473Y-109126988D01*
X114364134Y-108948500D01*
X114362565Y-108942936D01*
X114264980Y-108745053D01*
X114257455Y-108734975D01*
X114136420Y-108572891D01*
X114136420Y-108572890D01*
X114132967Y-108568267D01*
X114023123Y-108466728D01*
X113975189Y-108422418D01*
X113975186Y-108422416D01*
X113970949Y-108418499D01*
X113784350Y-108300764D01*
X113693528Y-108264530D01*
X113637669Y-108220710D01*
X113614368Y-108153645D01*
X113631024Y-108084630D01*
X113682348Y-108035576D01*
X113740218Y-108021500D01*
X115747484Y-108021500D01*
X115815605Y-108041502D01*
X115836579Y-108058405D01*
X116025989Y-108247815D01*
X116033415Y-108255918D01*
X116057645Y-108284794D01*
X116067192Y-108290306D01*
X116070988Y-108293491D01*
X116079092Y-108300918D01*
X118930078Y-111151905D01*
X118964104Y-111214217D01*
X118959039Y-111285033D01*
X118916492Y-111341868D01*
X118849972Y-111366679D01*
X118840983Y-111367000D01*
X118509115Y-111367000D01*
X118493876Y-111371475D01*
X118492671Y-111372865D01*
X118491000Y-111380548D01*
X118491000Y-113003000D01*
X118470998Y-113071121D01*
X118417342Y-113117614D01*
X118365000Y-113129000D01*
X116747116Y-113129000D01*
X116731877Y-113133475D01*
X116730672Y-113134865D01*
X116729001Y-113142548D01*
X116729001Y-113748800D01*
X116708999Y-113816921D01*
X116655343Y-113863414D01*
X116603001Y-113874800D01*
X114562410Y-113874800D01*
X114551428Y-113874320D01*
X114524880Y-113871997D01*
X114524878Y-113871997D01*
X114513893Y-113871036D01*
X114477485Y-113880792D01*
X114466758Y-113883170D01*
X114463399Y-113883762D01*
X114429655Y-113889712D01*
X114420110Y-113895223D01*
X114416834Y-113896415D01*
X114413666Y-113897892D01*
X114403016Y-113900746D01*
X114393985Y-113907070D01*
X114372156Y-113922355D01*
X114362885Y-113928261D01*
X114343326Y-113939554D01*
X114330245Y-113947106D01*
X114316881Y-113963033D01*
X114306015Y-113975982D01*
X114298589Y-113984085D01*
X113269079Y-115013595D01*
X113206767Y-115047621D01*
X113179984Y-115050500D01*
X112388166Y-115050500D01*
X112370248Y-115052194D01*
X112364278Y-115052758D01*
X112364277Y-115052758D01*
X112356631Y-115053481D01*
X112228816Y-115098366D01*
X112221246Y-115103958D01*
X112221243Y-115103959D01*
X112149278Y-115157114D01*
X112119850Y-115178850D01*
X112114258Y-115186421D01*
X112044959Y-115280243D01*
X112044958Y-115280246D01*
X112039366Y-115287816D01*
X111994481Y-115415631D01*
X111991500Y-115447166D01*
X111991500Y-115626500D01*
X111971498Y-115694621D01*
X111917842Y-115741114D01*
X111865500Y-115752500D01*
X111241468Y-115752500D01*
X111173347Y-115732498D01*
X111152450Y-115715673D01*
X111146829Y-115710061D01*
X111075350Y-115638707D01*
X110970518Y-115587464D01*
X110940027Y-115583016D01*
X110906744Y-115578160D01*
X110906740Y-115578160D01*
X110902218Y-115577500D01*
X109185782Y-115577500D01*
X109181232Y-115578170D01*
X109181229Y-115578170D01*
X109126574Y-115586216D01*
X109126573Y-115586216D01*
X109116888Y-115587642D01*
X109066992Y-115612140D01*
X109021493Y-115634478D01*
X109021491Y-115634479D01*
X109012145Y-115639068D01*
X108929707Y-115721650D01*
X108878464Y-115826482D01*
X108868500Y-115894782D01*
X108868500Y-116261218D01*
X108869170Y-116265768D01*
X108869170Y-116265771D01*
X108876323Y-116314358D01*
X108878642Y-116330112D01*
X108930068Y-116434855D01*
X108936924Y-116441699D01*
X108960177Y-116508333D01*
X108943614Y-116577370D01*
X108898474Y-116623102D01*
X108819322Y-116669911D01*
X108806896Y-116679551D01*
X108700551Y-116785896D01*
X108690911Y-116798322D01*
X108614352Y-116927779D01*
X108608107Y-116942210D01*
X108569061Y-117076605D01*
X108569101Y-117090706D01*
X108576370Y-117094000D01*
X111505878Y-117094000D01*
X111519409Y-117090027D01*
X111520544Y-117082129D01*
X111479893Y-116942210D01*
X111473648Y-116927779D01*
X111397089Y-116798322D01*
X111387449Y-116785896D01*
X111281104Y-116679551D01*
X111268677Y-116669911D01*
X111214640Y-116637954D01*
X111166187Y-116586061D01*
X111153482Y-116516211D01*
X111180557Y-116450579D01*
X111238817Y-116410005D01*
X111278779Y-116403500D01*
X111876084Y-116403500D01*
X111944205Y-116423502D01*
X111990698Y-116477158D01*
X111994964Y-116487746D01*
X112039366Y-116614184D01*
X112044958Y-116621754D01*
X112044959Y-116621757D01*
X112089122Y-116681548D01*
X112119850Y-116723150D01*
X112127421Y-116728742D01*
X112221243Y-116798041D01*
X112221246Y-116798042D01*
X112228816Y-116803634D01*
X112314415Y-116833694D01*
X112355486Y-116848117D01*
X112413132Y-116889560D01*
X112439220Y-116955590D01*
X112425469Y-117025242D01*
X112376244Y-117076403D01*
X112355485Y-117085883D01*
X112228816Y-117130366D01*
X112221246Y-117135958D01*
X112221243Y-117135959D01*
X112141229Y-117195059D01*
X112119850Y-117210850D01*
X112114258Y-117218421D01*
X112044959Y-117312243D01*
X112044958Y-117312246D01*
X112039366Y-117319816D01*
X111994481Y-117447631D01*
X111991500Y-117479166D01*
X111991500Y-118486834D01*
X111994481Y-118518369D01*
X112039366Y-118646184D01*
X112044958Y-118653754D01*
X112044959Y-118653757D01*
X112099953Y-118728212D01*
X112119850Y-118755150D01*
X112127421Y-118760742D01*
X112221243Y-118830041D01*
X112221246Y-118830042D01*
X112228816Y-118835634D01*
X112307392Y-118863228D01*
X112365036Y-118904670D01*
X112391125Y-118970699D01*
X112377374Y-119040352D01*
X112328150Y-119091513D01*
X112307392Y-119100993D01*
X112203816Y-119137366D01*
X112196246Y-119142958D01*
X112196243Y-119142959D01*
X112128568Y-119192945D01*
X112094850Y-119217850D01*
X112089258Y-119225421D01*
X112019959Y-119319243D01*
X112019958Y-119319246D01*
X112014366Y-119326816D01*
X111969481Y-119454631D01*
X111966500Y-119486166D01*
X111966500Y-120543834D01*
X111969481Y-120575369D01*
X111972026Y-120582615D01*
X111973671Y-120590114D01*
X111970755Y-120590754D01*
X111973737Y-120647845D01*
X111938520Y-120709492D01*
X111875565Y-120742313D01*
X111851154Y-120744700D01*
X111413218Y-120744700D01*
X111345097Y-120724698D01*
X111324123Y-120707796D01*
X111098633Y-120482306D01*
X111064608Y-120419994D01*
X111069672Y-120349179D01*
X111098554Y-120304194D01*
X111150935Y-120251721D01*
X111150935Y-120251720D01*
X111158293Y-120244350D01*
X111209536Y-120139518D01*
X111219500Y-120071218D01*
X111219500Y-119704782D01*
X111218778Y-119699874D01*
X111210784Y-119645574D01*
X111210784Y-119645573D01*
X111209358Y-119635888D01*
X111176516Y-119568997D01*
X111162522Y-119540493D01*
X111162521Y-119540491D01*
X111157932Y-119531145D01*
X111075350Y-119448707D01*
X110970518Y-119397464D01*
X110934161Y-119392160D01*
X110906744Y-119388160D01*
X110906740Y-119388160D01*
X110902218Y-119387500D01*
X109185782Y-119387500D01*
X109181232Y-119388170D01*
X109181229Y-119388170D01*
X109126574Y-119396216D01*
X109126573Y-119396216D01*
X109116888Y-119397642D01*
X109082487Y-119414532D01*
X109021493Y-119444478D01*
X109021491Y-119444479D01*
X109012145Y-119449068D01*
X108929707Y-119531650D01*
X108878464Y-119636482D01*
X108874526Y-119663474D01*
X108870255Y-119692754D01*
X108868500Y-119704782D01*
X108868500Y-120071218D01*
X108869170Y-120075768D01*
X108869170Y-120075771D01*
X108877216Y-120130426D01*
X108878642Y-120140112D01*
X108930068Y-120244855D01*
X109012650Y-120327293D01*
X109117482Y-120378536D01*
X109147973Y-120382984D01*
X109181256Y-120387840D01*
X109181260Y-120387840D01*
X109185782Y-120388500D01*
X110031983Y-120388500D01*
X110100104Y-120408502D01*
X110121079Y-120425405D01*
X110555564Y-120859891D01*
X110982101Y-121286428D01*
X110989527Y-121294531D01*
X111013745Y-121323394D01*
X111023288Y-121328904D01*
X111023292Y-121328907D01*
X111046379Y-121342236D01*
X111055648Y-121348140D01*
X111086516Y-121369754D01*
X111097164Y-121372607D01*
X111100335Y-121374086D01*
X111103611Y-121375278D01*
X111113155Y-121380788D01*
X111150276Y-121387334D01*
X111160983Y-121389708D01*
X111197393Y-121399463D01*
X111208368Y-121398503D01*
X111208370Y-121398503D01*
X111234931Y-121396179D01*
X111245912Y-121395700D01*
X113339890Y-121395700D01*
X113350872Y-121396180D01*
X113377420Y-121398503D01*
X113377422Y-121398503D01*
X113388407Y-121399464D01*
X113424815Y-121389708D01*
X113435542Y-121387330D01*
X113438901Y-121386738D01*
X113472645Y-121380788D01*
X113482190Y-121375277D01*
X113485466Y-121374085D01*
X113488634Y-121372608D01*
X113499284Y-121369754D01*
X113530150Y-121348141D01*
X113539415Y-121342239D01*
X113562506Y-121328907D01*
X113572055Y-121323394D01*
X113596285Y-121294517D01*
X113603711Y-121286415D01*
X113821000Y-121069126D01*
X113883312Y-121035100D01*
X113954127Y-121040165D01*
X113999114Y-121069049D01*
X114013829Y-121083739D01*
X114025240Y-121092751D01*
X114163243Y-121177816D01*
X114176424Y-121183963D01*
X114330710Y-121235138D01*
X114344086Y-121238005D01*
X114438438Y-121247672D01*
X114444854Y-121248000D01*
X114557385Y-121248000D01*
X114572624Y-121243525D01*
X114573829Y-121242135D01*
X114575500Y-121234452D01*
X114575500Y-119887000D01*
X114595502Y-119818879D01*
X114649158Y-119772386D01*
X114701500Y-119761000D01*
X114957500Y-119761000D01*
X115025621Y-119781002D01*
X115072114Y-119834658D01*
X115083500Y-119887000D01*
X115083500Y-121229884D01*
X115087975Y-121245123D01*
X115093249Y-121249693D01*
X115131633Y-121309419D01*
X115131633Y-121374670D01*
X115132133Y-121374769D01*
X115120500Y-121433252D01*
X115120500Y-123232484D01*
X115100498Y-123300605D01*
X115083595Y-123321579D01*
X112632579Y-125772595D01*
X112570267Y-125806621D01*
X112543484Y-125809500D01*
X111739166Y-125809500D01*
X111721248Y-125811194D01*
X111715278Y-125811758D01*
X111715277Y-125811758D01*
X111707631Y-125812481D01*
X111579816Y-125857366D01*
X111572246Y-125862958D01*
X111572243Y-125862959D01*
X111539910Y-125886841D01*
X111470850Y-125937850D01*
X111465258Y-125945421D01*
X111395959Y-126039243D01*
X111395958Y-126039246D01*
X111390366Y-126046816D01*
X111345481Y-126174631D01*
X111345394Y-126175553D01*
X111312656Y-126235255D01*
X111250283Y-126269168D01*
X111223720Y-126272000D01*
X111153280Y-126272000D01*
X111085159Y-126251998D01*
X111038666Y-126198342D01*
X111031822Y-126177839D01*
X111031519Y-126174631D01*
X110986634Y-126046816D01*
X110981042Y-126039246D01*
X110981041Y-126039243D01*
X110911742Y-125945421D01*
X110906150Y-125937850D01*
X110837090Y-125886841D01*
X110804757Y-125862959D01*
X110804754Y-125862958D01*
X110797184Y-125857366D01*
X110669369Y-125812481D01*
X110661723Y-125811758D01*
X110661722Y-125811758D01*
X110655752Y-125811194D01*
X110637834Y-125809500D01*
X110539000Y-125809500D01*
X110470879Y-125789498D01*
X110424386Y-125735842D01*
X110413000Y-125683500D01*
X110413000Y-124742280D01*
X110433002Y-124674159D01*
X110486658Y-124627666D01*
X110507161Y-124620822D01*
X110510369Y-124620519D01*
X110638184Y-124575634D01*
X110645754Y-124570042D01*
X110645757Y-124570041D01*
X110739579Y-124500742D01*
X110747150Y-124495150D01*
X110774507Y-124458112D01*
X110822041Y-124393757D01*
X110822042Y-124393754D01*
X110827634Y-124386184D01*
X110843843Y-124340027D01*
X110885286Y-124282381D01*
X110951316Y-124256293D01*
X111020968Y-124270044D01*
X111072129Y-124319269D01*
X111082250Y-124341899D01*
X111131588Y-124489784D01*
X111137761Y-124502962D01*
X111223063Y-124640807D01*
X111232099Y-124652208D01*
X111346829Y-124766739D01*
X111358240Y-124775751D01*
X111496243Y-124860816D01*
X111509424Y-124866963D01*
X111663710Y-124918138D01*
X111677086Y-124921005D01*
X111771438Y-124930672D01*
X111777854Y-124931000D01*
X111890385Y-124931000D01*
X111905624Y-124926525D01*
X111906829Y-124925135D01*
X111908500Y-124917452D01*
X111908500Y-124912884D01*
X112416500Y-124912884D01*
X112420975Y-124928123D01*
X112422365Y-124929328D01*
X112430048Y-124930999D01*
X112547095Y-124930999D01*
X112553614Y-124930662D01*
X112649206Y-124920743D01*
X112662600Y-124917851D01*
X112816784Y-124866412D01*
X112829962Y-124860239D01*
X112967807Y-124774937D01*
X112979208Y-124765901D01*
X113093739Y-124651171D01*
X113102751Y-124639760D01*
X113187816Y-124501757D01*
X113193963Y-124488576D01*
X113245138Y-124334290D01*
X113248005Y-124320914D01*
X113257672Y-124226562D01*
X113258000Y-124220146D01*
X113258000Y-123970115D01*
X113253525Y-123954876D01*
X113252135Y-123953671D01*
X113244452Y-123952000D01*
X112434615Y-123952000D01*
X112419376Y-123956475D01*
X112418171Y-123957865D01*
X112416500Y-123965548D01*
X112416500Y-124912884D01*
X111908500Y-124912884D01*
X111908500Y-123425885D01*
X112416500Y-123425885D01*
X112420975Y-123441124D01*
X112422365Y-123442329D01*
X112430048Y-123444000D01*
X113239884Y-123444000D01*
X113255123Y-123439525D01*
X113256328Y-123438135D01*
X113257999Y-123430452D01*
X113257999Y-123175905D01*
X113257662Y-123169386D01*
X113247743Y-123073794D01*
X113244851Y-123060400D01*
X113193412Y-122906216D01*
X113187239Y-122893038D01*
X113101937Y-122755193D01*
X113092901Y-122743792D01*
X112978171Y-122629261D01*
X112966760Y-122620249D01*
X112828757Y-122535184D01*
X112815576Y-122529037D01*
X112661290Y-122477862D01*
X112647914Y-122474995D01*
X112553562Y-122465328D01*
X112547145Y-122465000D01*
X112434615Y-122465000D01*
X112419376Y-122469475D01*
X112418171Y-122470865D01*
X112416500Y-122478548D01*
X112416500Y-123425885D01*
X111908500Y-123425885D01*
X111908500Y-122483116D01*
X111904025Y-122467877D01*
X111902635Y-122466672D01*
X111894952Y-122465001D01*
X111777905Y-122465001D01*
X111771386Y-122465338D01*
X111675794Y-122475257D01*
X111662400Y-122478149D01*
X111508216Y-122529588D01*
X111495038Y-122535761D01*
X111357193Y-122621063D01*
X111345792Y-122630099D01*
X111231261Y-122744829D01*
X111222249Y-122756240D01*
X111137184Y-122894243D01*
X111131037Y-122907424D01*
X111082389Y-123054092D01*
X111041958Y-123112451D01*
X110976394Y-123139688D01*
X110906512Y-123127154D01*
X110854500Y-123078830D01*
X110843913Y-123056172D01*
X110830753Y-123018699D01*
X110827634Y-123009816D01*
X110822042Y-123002246D01*
X110822041Y-123002243D01*
X110752742Y-122908421D01*
X110747150Y-122900850D01*
X110694801Y-122862184D01*
X110645757Y-122825959D01*
X110645754Y-122825958D01*
X110638184Y-122820366D01*
X110510369Y-122775481D01*
X110502723Y-122774758D01*
X110502722Y-122774758D01*
X110496752Y-122774194D01*
X110478834Y-122772500D01*
X109696166Y-122772500D01*
X109678248Y-122774194D01*
X109672278Y-122774758D01*
X109672277Y-122774758D01*
X109664631Y-122775481D01*
X109536816Y-122820366D01*
X109529246Y-122825958D01*
X109529243Y-122825959D01*
X109480199Y-122862184D01*
X109427850Y-122900850D01*
X109422258Y-122908421D01*
X109352959Y-123002243D01*
X109352958Y-123002246D01*
X109347366Y-123009816D01*
X109302481Y-123137631D01*
X109299500Y-123169166D01*
X109299500Y-123609200D01*
X109279498Y-123677321D01*
X109225842Y-123723814D01*
X109173500Y-123735200D01*
X107313717Y-123735200D01*
X107245596Y-123715198D01*
X107224622Y-123698295D01*
X107081062Y-123554735D01*
X107047036Y-123492423D01*
X107052101Y-123421608D01*
X107056481Y-123414226D01*
X107061000Y-123393452D01*
X107061000Y-123388884D01*
X107569000Y-123388884D01*
X107573475Y-123404123D01*
X107574865Y-123405328D01*
X107582548Y-123406999D01*
X107699595Y-123406999D01*
X107706114Y-123406662D01*
X107801706Y-123396743D01*
X107815100Y-123393851D01*
X107969284Y-123342412D01*
X107982462Y-123336239D01*
X108120307Y-123250937D01*
X108131708Y-123241901D01*
X108246239Y-123127171D01*
X108255251Y-123115760D01*
X108340316Y-122977757D01*
X108346463Y-122964576D01*
X108397638Y-122810290D01*
X108400505Y-122796914D01*
X108410172Y-122702562D01*
X108410500Y-122696146D01*
X108410500Y-122446115D01*
X108406025Y-122430876D01*
X108404635Y-122429671D01*
X108396952Y-122428000D01*
X107587115Y-122428000D01*
X107571876Y-122432475D01*
X107570671Y-122433865D01*
X107569000Y-122441548D01*
X107569000Y-123388884D01*
X107061000Y-123388884D01*
X107061000Y-121901885D01*
X107569000Y-121901885D01*
X107573475Y-121917124D01*
X107574865Y-121918329D01*
X107582548Y-121920000D01*
X108392384Y-121920000D01*
X108407623Y-121915525D01*
X108408828Y-121914135D01*
X108410499Y-121906452D01*
X108410499Y-121651905D01*
X108410162Y-121645386D01*
X108400243Y-121549794D01*
X108397351Y-121536400D01*
X108345912Y-121382216D01*
X108339739Y-121369038D01*
X108254437Y-121231193D01*
X108245401Y-121219792D01*
X108130671Y-121105261D01*
X108119260Y-121096249D01*
X107981257Y-121011184D01*
X107968076Y-121005037D01*
X107813790Y-120953862D01*
X107800414Y-120950995D01*
X107706062Y-120941328D01*
X107699645Y-120941000D01*
X107587115Y-120941000D01*
X107571876Y-120945475D01*
X107570671Y-120946865D01*
X107569000Y-120954548D01*
X107569000Y-121901885D01*
X107061000Y-121901885D01*
X107061000Y-120959116D01*
X107056525Y-120943877D01*
X107055135Y-120942672D01*
X107047452Y-120941001D01*
X106930405Y-120941001D01*
X106923886Y-120941338D01*
X106828294Y-120951257D01*
X106814900Y-120954149D01*
X106660716Y-121005588D01*
X106647538Y-121011761D01*
X106509693Y-121097063D01*
X106498292Y-121106099D01*
X106383761Y-121220829D01*
X106374749Y-121232240D01*
X106289684Y-121370243D01*
X106283537Y-121383424D01*
X106234889Y-121530092D01*
X106194458Y-121588451D01*
X106128894Y-121615688D01*
X106059012Y-121603154D01*
X106007000Y-121554830D01*
X105996413Y-121532172D01*
X105983253Y-121494699D01*
X105980134Y-121485816D01*
X105974542Y-121478246D01*
X105974541Y-121478243D01*
X105905242Y-121384421D01*
X105899650Y-121376850D01*
X105860787Y-121348145D01*
X105798257Y-121301959D01*
X105798254Y-121301958D01*
X105790684Y-121296366D01*
X105662869Y-121251481D01*
X105655223Y-121250758D01*
X105655222Y-121250758D01*
X105649252Y-121250194D01*
X105631334Y-121248500D01*
X104848666Y-121248500D01*
X104830748Y-121250194D01*
X104824778Y-121250758D01*
X104824777Y-121250758D01*
X104817131Y-121251481D01*
X104689316Y-121296366D01*
X104681746Y-121301958D01*
X104681743Y-121301959D01*
X104619213Y-121348145D01*
X104580350Y-121376850D01*
X104574758Y-121384421D01*
X104505459Y-121478243D01*
X104505458Y-121478246D01*
X104499866Y-121485816D01*
X104475004Y-121556615D01*
X104466213Y-121581648D01*
X104424770Y-121639293D01*
X104358741Y-121665382D01*
X104347330Y-121665900D01*
X104233500Y-121665900D01*
X104165379Y-121645898D01*
X104118886Y-121592242D01*
X104107500Y-121539900D01*
X104107500Y-120822000D01*
X104127502Y-120753879D01*
X104181158Y-120707386D01*
X104233500Y-120696000D01*
X104821885Y-120696000D01*
X104837124Y-120691525D01*
X104838329Y-120690135D01*
X104840000Y-120682452D01*
X104840000Y-120677884D01*
X105348000Y-120677884D01*
X105352475Y-120693123D01*
X105353865Y-120694328D01*
X105361548Y-120695999D01*
X105982984Y-120695999D01*
X105987920Y-120695805D01*
X106016336Y-120693570D01*
X106028931Y-120691270D01*
X106174790Y-120648893D01*
X106189221Y-120642648D01*
X106318678Y-120566089D01*
X106331104Y-120556449D01*
X106437449Y-120450104D01*
X106447089Y-120437678D01*
X106523648Y-120308221D01*
X106529893Y-120293790D01*
X106568939Y-120159395D01*
X106568899Y-120145294D01*
X106561630Y-120142000D01*
X105366115Y-120142000D01*
X105350876Y-120146475D01*
X105349671Y-120147865D01*
X105348000Y-120155548D01*
X105348000Y-120677884D01*
X104840000Y-120677884D01*
X104840000Y-119615885D01*
X105348000Y-119615885D01*
X105352475Y-119631124D01*
X105353865Y-119632329D01*
X105361548Y-119634000D01*
X106555878Y-119634000D01*
X106569409Y-119630027D01*
X106570544Y-119622129D01*
X106529893Y-119482210D01*
X106523648Y-119467779D01*
X106447088Y-119338322D01*
X106440811Y-119330230D01*
X106414861Y-119264146D01*
X106428759Y-119194523D01*
X106440811Y-119175770D01*
X106447088Y-119167678D01*
X106523648Y-119038221D01*
X106529893Y-119023790D01*
X106568939Y-118889395D01*
X106568899Y-118875294D01*
X106561630Y-118872000D01*
X105366115Y-118872000D01*
X105350876Y-118876475D01*
X105349671Y-118877865D01*
X105348000Y-118885548D01*
X105348000Y-119615885D01*
X104840000Y-119615885D01*
X104840000Y-118618000D01*
X107854618Y-118618000D01*
X107875256Y-118774762D01*
X107935764Y-118920841D01*
X107969643Y-118964993D01*
X108016728Y-119026355D01*
X108032018Y-119046282D01*
X108038564Y-119051305D01*
X108054402Y-119063458D01*
X108157459Y-119142536D01*
X108303538Y-119203044D01*
X108311726Y-119204122D01*
X108373526Y-119212258D01*
X108460300Y-119223682D01*
X108468488Y-119222604D01*
X108608874Y-119204122D01*
X108617062Y-119203044D01*
X108763141Y-119142536D01*
X108868367Y-119061794D01*
X108934586Y-119036194D01*
X109004135Y-119050459D01*
X109008520Y-119053170D01*
X109012650Y-119057293D01*
X109117482Y-119108536D01*
X109147973Y-119112984D01*
X109181256Y-119117840D01*
X109181260Y-119117840D01*
X109185782Y-119118500D01*
X110902218Y-119118500D01*
X110906768Y-119117830D01*
X110906771Y-119117830D01*
X110961426Y-119109784D01*
X110961427Y-119109784D01*
X110971112Y-119108358D01*
X111022579Y-119083089D01*
X111066507Y-119061522D01*
X111066509Y-119061521D01*
X111075855Y-119056932D01*
X111126010Y-119006689D01*
X111150935Y-118981721D01*
X111150935Y-118981720D01*
X111158293Y-118974350D01*
X111176533Y-118937036D01*
X111188178Y-118913211D01*
X111209536Y-118869518D01*
X111218530Y-118807867D01*
X111218840Y-118805744D01*
X111218840Y-118805740D01*
X111219500Y-118801218D01*
X111219500Y-118434782D01*
X111209358Y-118365888D01*
X111157932Y-118261145D01*
X111151076Y-118254301D01*
X111127823Y-118187667D01*
X111144386Y-118118630D01*
X111189526Y-118072898D01*
X111268678Y-118026089D01*
X111281104Y-118016449D01*
X111387449Y-117910104D01*
X111397089Y-117897678D01*
X111473648Y-117768221D01*
X111479893Y-117753790D01*
X111518939Y-117619395D01*
X111518899Y-117605294D01*
X111511630Y-117602000D01*
X108582122Y-117602000D01*
X108568591Y-117605973D01*
X108567456Y-117613871D01*
X108608107Y-117753790D01*
X108614354Y-117768225D01*
X108652109Y-117832067D01*
X108669568Y-117900883D01*
X108647051Y-117968214D01*
X108591706Y-118012683D01*
X108527210Y-118021127D01*
X108460300Y-118012318D01*
X108303538Y-118032956D01*
X108157459Y-118093464D01*
X108032018Y-118189718D01*
X107935764Y-118315159D01*
X107875256Y-118461238D01*
X107854618Y-118618000D01*
X104840000Y-118618000D01*
X104840000Y-118345885D01*
X105348000Y-118345885D01*
X105352475Y-118361124D01*
X105353865Y-118362329D01*
X105361548Y-118364000D01*
X106555878Y-118364000D01*
X106569409Y-118360027D01*
X106570544Y-118352129D01*
X106529893Y-118212210D01*
X106523648Y-118197779D01*
X106447088Y-118068322D01*
X106440811Y-118060230D01*
X106414861Y-117994146D01*
X106428759Y-117924523D01*
X106440811Y-117905770D01*
X106447088Y-117897678D01*
X106523648Y-117768221D01*
X106529893Y-117753790D01*
X106568939Y-117619395D01*
X106568899Y-117605294D01*
X106561630Y-117602000D01*
X105366115Y-117602000D01*
X105350876Y-117606475D01*
X105349671Y-117607865D01*
X105348000Y-117615548D01*
X105348000Y-118345885D01*
X104840000Y-118345885D01*
X104840000Y-117075885D01*
X105348000Y-117075885D01*
X105352475Y-117091124D01*
X105353865Y-117092329D01*
X105361548Y-117094000D01*
X106555878Y-117094000D01*
X106569409Y-117090027D01*
X106570544Y-117082129D01*
X106529893Y-116942210D01*
X106523648Y-116927779D01*
X106447088Y-116798322D01*
X106440811Y-116790230D01*
X106414861Y-116724146D01*
X106428759Y-116654523D01*
X106440811Y-116635770D01*
X106447088Y-116627678D01*
X106523648Y-116498221D01*
X106529893Y-116483790D01*
X106568939Y-116349395D01*
X106568899Y-116335294D01*
X106561630Y-116332000D01*
X105366115Y-116332000D01*
X105350876Y-116336475D01*
X105349671Y-116337865D01*
X105348000Y-116345548D01*
X105348000Y-117075885D01*
X104840000Y-117075885D01*
X104840000Y-115805885D01*
X105348000Y-115805885D01*
X105352475Y-115821124D01*
X105353865Y-115822329D01*
X105361548Y-115824000D01*
X106555878Y-115824000D01*
X106569409Y-115820027D01*
X106570544Y-115812129D01*
X106529893Y-115672210D01*
X106523648Y-115657779D01*
X106447089Y-115528322D01*
X106437449Y-115515896D01*
X106331104Y-115409551D01*
X106318678Y-115399911D01*
X106189221Y-115323352D01*
X106174790Y-115317107D01*
X106028935Y-115274731D01*
X106016333Y-115272430D01*
X105987916Y-115270193D01*
X105982986Y-115270000D01*
X105366115Y-115270000D01*
X105350876Y-115274475D01*
X105349671Y-115275865D01*
X105348000Y-115283548D01*
X105348000Y-115805885D01*
X104840000Y-115805885D01*
X104840000Y-115288116D01*
X104835525Y-115272877D01*
X104834135Y-115271672D01*
X104826452Y-115270001D01*
X104233500Y-115270001D01*
X104165379Y-115249999D01*
X104118886Y-115196343D01*
X104107500Y-115144001D01*
X104107500Y-115005500D01*
X104127502Y-114937379D01*
X104181158Y-114890886D01*
X104233500Y-114879500D01*
X104443290Y-114879500D01*
X104454272Y-114879980D01*
X104480820Y-114882303D01*
X104480822Y-114882303D01*
X104491807Y-114883264D01*
X104528215Y-114873508D01*
X104538942Y-114871130D01*
X104542301Y-114870538D01*
X104576045Y-114864588D01*
X104585590Y-114859077D01*
X104588866Y-114857885D01*
X104592034Y-114856408D01*
X104602684Y-114853554D01*
X104633544Y-114831945D01*
X104642815Y-114826039D01*
X104665906Y-114812707D01*
X104675455Y-114807194D01*
X104699685Y-114778317D01*
X104707111Y-114770215D01*
X105273843Y-114203483D01*
X105336155Y-114169457D01*
X105406970Y-114174522D01*
X105451956Y-114203405D01*
X105474329Y-114225739D01*
X105485740Y-114234751D01*
X105623743Y-114319816D01*
X105636924Y-114325963D01*
X105791210Y-114377138D01*
X105804586Y-114380005D01*
X105898938Y-114389672D01*
X105905354Y-114390000D01*
X106017885Y-114390000D01*
X106033124Y-114385525D01*
X106034329Y-114384135D01*
X106036000Y-114376452D01*
X106036000Y-114371884D01*
X106544000Y-114371884D01*
X106548475Y-114387123D01*
X106549865Y-114388328D01*
X106557548Y-114389999D01*
X106674595Y-114389999D01*
X106681114Y-114389662D01*
X106776706Y-114379743D01*
X106790100Y-114376851D01*
X106944284Y-114325412D01*
X106957462Y-114319239D01*
X107095307Y-114233937D01*
X107106708Y-114224901D01*
X107221239Y-114110171D01*
X107230251Y-114098760D01*
X107315316Y-113960757D01*
X107321463Y-113947576D01*
X107372638Y-113793290D01*
X107375505Y-113779914D01*
X107385172Y-113685562D01*
X107385500Y-113679146D01*
X107385500Y-113429115D01*
X107381025Y-113413876D01*
X107379635Y-113412671D01*
X107371952Y-113411000D01*
X106562115Y-113411000D01*
X106546876Y-113415475D01*
X106545671Y-113416865D01*
X106544000Y-113424548D01*
X106544000Y-114371884D01*
X106036000Y-114371884D01*
X106036000Y-113029000D01*
X106056002Y-112960879D01*
X106109658Y-112914386D01*
X106162000Y-112903000D01*
X107367384Y-112903000D01*
X107382623Y-112898525D01*
X107383828Y-112897135D01*
X107385499Y-112889452D01*
X107385499Y-112634905D01*
X107385162Y-112628386D01*
X107382516Y-112602885D01*
X116729000Y-112602885D01*
X116733475Y-112618124D01*
X116734865Y-112619329D01*
X116742548Y-112621000D01*
X117964885Y-112621000D01*
X117980124Y-112616525D01*
X117981329Y-112615135D01*
X117983000Y-112607452D01*
X117983000Y-111385116D01*
X117978525Y-111369877D01*
X117977135Y-111368672D01*
X117969452Y-111367001D01*
X117192331Y-111367001D01*
X117185510Y-111367371D01*
X117134648Y-111372895D01*
X117119396Y-111376521D01*
X116998946Y-111421676D01*
X116983351Y-111430214D01*
X116881276Y-111506715D01*
X116868715Y-111519276D01*
X116792214Y-111621351D01*
X116783676Y-111636946D01*
X116738522Y-111757394D01*
X116734895Y-111772649D01*
X116729369Y-111823514D01*
X116729000Y-111830328D01*
X116729000Y-112602885D01*
X107382516Y-112602885D01*
X107375243Y-112532794D01*
X107372351Y-112519400D01*
X107320912Y-112365216D01*
X107314741Y-112352042D01*
X107268800Y-112277804D01*
X107249962Y-112209352D01*
X107271123Y-112141582D01*
X107325563Y-112096011D01*
X107375944Y-112085500D01*
X107676290Y-112085500D01*
X107687272Y-112085980D01*
X107713820Y-112088303D01*
X107713822Y-112088303D01*
X107724807Y-112089264D01*
X107761215Y-112079508D01*
X107771942Y-112077130D01*
X107775301Y-112076538D01*
X107809045Y-112070588D01*
X107818590Y-112065077D01*
X107821866Y-112063885D01*
X107825034Y-112062408D01*
X107835684Y-112059554D01*
X107866544Y-112037945D01*
X107875815Y-112032039D01*
X107898906Y-112018707D01*
X107908455Y-112013194D01*
X107932685Y-111984317D01*
X107940111Y-111976215D01*
X108751415Y-111164911D01*
X108759519Y-111157484D01*
X108775494Y-111144079D01*
X108788394Y-111133255D01*
X108800986Y-111111445D01*
X108807239Y-111100615D01*
X108813145Y-111091344D01*
X108815043Y-111088634D01*
X108834754Y-111060484D01*
X108837608Y-111049834D01*
X108839085Y-111046666D01*
X108840277Y-111043390D01*
X108845788Y-111033845D01*
X108852330Y-110996742D01*
X108854709Y-110986010D01*
X108864464Y-110949607D01*
X108861180Y-110912072D01*
X108860700Y-110901090D01*
X108860700Y-110667079D01*
X108880702Y-110598958D01*
X108934358Y-110552465D01*
X109004632Y-110542361D01*
X109016136Y-110545249D01*
X109018455Y-110546588D01*
X109046318Y-110551501D01*
X109055558Y-110553130D01*
X109066285Y-110555508D01*
X109102693Y-110565264D01*
X109113669Y-110564304D01*
X109113672Y-110564304D01*
X109140243Y-110561979D01*
X109151224Y-110561500D01*
X110978290Y-110561500D01*
X110989272Y-110561980D01*
X111015820Y-110564303D01*
X111015822Y-110564303D01*
X111026807Y-110565264D01*
X111063215Y-110555508D01*
X111073942Y-110553130D01*
X111077713Y-110552465D01*
X111111045Y-110546588D01*
X111120590Y-110541077D01*
X111123866Y-110539885D01*
X111127034Y-110538408D01*
X111137684Y-110535554D01*
X111168544Y-110513945D01*
X111177815Y-110508039D01*
X111200906Y-110494707D01*
X111210455Y-110489194D01*
X111234679Y-110460325D01*
X111242106Y-110452220D01*
X111595228Y-110099099D01*
X111603332Y-110091673D01*
X111614297Y-110082472D01*
X111632194Y-110067455D01*
X111637704Y-110057912D01*
X111637707Y-110057908D01*
X111651036Y-110034821D01*
X111656941Y-110025551D01*
X111672232Y-110003713D01*
X111678554Y-109994684D01*
X111681407Y-109984036D01*
X111682886Y-109980865D01*
X111684078Y-109977589D01*
X111689588Y-109968045D01*
X111696134Y-109930924D01*
X111698508Y-109920217D01*
X111708263Y-109883807D01*
X111706407Y-109862586D01*
X111704979Y-109846269D01*
X111704500Y-109835288D01*
X111704500Y-108772016D01*
X111724502Y-108703895D01*
X111741405Y-108682921D01*
X112365921Y-108058405D01*
X112428233Y-108024379D01*
X112455016Y-108021500D01*
X112731519Y-108021500D01*
X112799640Y-108041502D01*
G37*
%TD.AperFunction*%
%TA.AperFunction,Conductor*%
G36*
X144463121Y-108110002D02*
G01*
X144509614Y-108163658D01*
X144521000Y-108216000D01*
X144521000Y-109583884D01*
X144525475Y-109599123D01*
X144526865Y-109600328D01*
X144534548Y-109601999D01*
X144590900Y-109601999D01*
X144659021Y-109622001D01*
X144705514Y-109675657D01*
X144716900Y-109727999D01*
X144716900Y-116906983D01*
X144696898Y-116975104D01*
X144679995Y-116996078D01*
X142780784Y-118895290D01*
X142772681Y-118902716D01*
X142743806Y-118926945D01*
X142738293Y-118936494D01*
X142724961Y-118959585D01*
X142719055Y-118968856D01*
X142697446Y-118999716D01*
X142694592Y-119010366D01*
X142693115Y-119013534D01*
X142691923Y-119016810D01*
X142686412Y-119026355D01*
X142682270Y-119049849D01*
X142679870Y-119063458D01*
X142677492Y-119074185D01*
X142667736Y-119110593D01*
X142668697Y-119121578D01*
X142668697Y-119121580D01*
X142671020Y-119148128D01*
X142671500Y-119159110D01*
X142671500Y-124767500D01*
X142651498Y-124835621D01*
X142597842Y-124882114D01*
X142545500Y-124893500D01*
X142527252Y-124893500D01*
X142521184Y-124894707D01*
X142480939Y-124902712D01*
X142480938Y-124902712D01*
X142468769Y-124905133D01*
X142458452Y-124912027D01*
X142458449Y-124912028D01*
X142432003Y-124929699D01*
X142364251Y-124950915D01*
X142291997Y-124929699D01*
X142265551Y-124912028D01*
X142265548Y-124912027D01*
X142255231Y-124905133D01*
X142243062Y-124902712D01*
X142243061Y-124902712D01*
X142202816Y-124894707D01*
X142196748Y-124893500D01*
X141257252Y-124893500D01*
X141251184Y-124894707D01*
X141210939Y-124902712D01*
X141210938Y-124902712D01*
X141198769Y-124905133D01*
X141188452Y-124912027D01*
X141188449Y-124912028D01*
X141162003Y-124929699D01*
X141094251Y-124950915D01*
X141021997Y-124929699D01*
X140995551Y-124912028D01*
X140995548Y-124912027D01*
X140985231Y-124905133D01*
X140973062Y-124902712D01*
X140973061Y-124902712D01*
X140932816Y-124894707D01*
X140926748Y-124893500D01*
X140910330Y-124893500D01*
X140842209Y-124873498D01*
X140795716Y-124819842D01*
X140784809Y-124756521D01*
X140785303Y-124750875D01*
X140785303Y-124750874D01*
X140786264Y-124739894D01*
X140779520Y-124714723D01*
X140776511Y-124703492D01*
X140774133Y-124692765D01*
X140769504Y-124666515D01*
X140769501Y-124666506D01*
X140767588Y-124655655D01*
X140762075Y-124646107D01*
X140760883Y-124642831D01*
X140759409Y-124639669D01*
X140756554Y-124629016D01*
X140734945Y-124598156D01*
X140729039Y-124588885D01*
X140715707Y-124565794D01*
X140710194Y-124556245D01*
X140681317Y-124532015D01*
X140673215Y-124524589D01*
X138070911Y-121922285D01*
X138063484Y-121914181D01*
X138046341Y-121893751D01*
X138046342Y-121893751D01*
X138039255Y-121885306D01*
X138029706Y-121879793D01*
X138006615Y-121866461D01*
X137997344Y-121860555D01*
X137975515Y-121845270D01*
X137966484Y-121838946D01*
X137955834Y-121836092D01*
X137952666Y-121834615D01*
X137949390Y-121833423D01*
X137939845Y-121827912D01*
X137906101Y-121821962D01*
X137902742Y-121821370D01*
X137892015Y-121818992D01*
X137855607Y-121809236D01*
X137844622Y-121810197D01*
X137844620Y-121810197D01*
X137818072Y-121812520D01*
X137807090Y-121813000D01*
X128438286Y-121813000D01*
X128370165Y-121792998D01*
X128338323Y-121763704D01*
X128302305Y-121716764D01*
X128297282Y-121710218D01*
X128171841Y-121613964D01*
X128025762Y-121553456D01*
X127869000Y-121532818D01*
X127712238Y-121553456D01*
X127631716Y-121586809D01*
X127561129Y-121594398D01*
X127497642Y-121562619D01*
X127461414Y-121501561D01*
X127457500Y-121470400D01*
X127457500Y-121074252D01*
X127453013Y-121051695D01*
X127448288Y-121027939D01*
X127448288Y-121027938D01*
X127445867Y-121015769D01*
X127438973Y-121005452D01*
X127438972Y-121005449D01*
X127421301Y-120979003D01*
X127400085Y-120911251D01*
X127421301Y-120838997D01*
X127438972Y-120812551D01*
X127438973Y-120812548D01*
X127445867Y-120802231D01*
X127450790Y-120777484D01*
X127456293Y-120749816D01*
X127457500Y-120743748D01*
X127457500Y-119804252D01*
X127452875Y-119781002D01*
X127448288Y-119757939D01*
X127448288Y-119757938D01*
X127445867Y-119745769D01*
X127438973Y-119735452D01*
X127438972Y-119735449D01*
X127421301Y-119709003D01*
X127400085Y-119641251D01*
X127421301Y-119568997D01*
X127438972Y-119542551D01*
X127438973Y-119542548D01*
X127445867Y-119532231D01*
X127448375Y-119519626D01*
X127456293Y-119479816D01*
X127457500Y-119473748D01*
X127457500Y-118558669D01*
X134319001Y-118558669D01*
X134319371Y-118565490D01*
X134324895Y-118616352D01*
X134328521Y-118631604D01*
X134373676Y-118752054D01*
X134382214Y-118767649D01*
X134458715Y-118869724D01*
X134471276Y-118882285D01*
X134573351Y-118958786D01*
X134588946Y-118967324D01*
X134709394Y-119012478D01*
X134724649Y-119016105D01*
X134775514Y-119021631D01*
X134782328Y-119022000D01*
X136654885Y-119022000D01*
X136670124Y-119017525D01*
X136671329Y-119016135D01*
X136673000Y-119008452D01*
X136673000Y-119003884D01*
X137181000Y-119003884D01*
X137185475Y-119019123D01*
X137186865Y-119020328D01*
X137194548Y-119021999D01*
X139071669Y-119021999D01*
X139078490Y-119021629D01*
X139129352Y-119016105D01*
X139144604Y-119012479D01*
X139265054Y-118967324D01*
X139280649Y-118958786D01*
X139382724Y-118882285D01*
X139395285Y-118869724D01*
X139471786Y-118767649D01*
X139480324Y-118752054D01*
X139525478Y-118631606D01*
X139529105Y-118616351D01*
X139534631Y-118565486D01*
X139535000Y-118558672D01*
X139535000Y-116686115D01*
X139530525Y-116670876D01*
X139529135Y-116669671D01*
X139521452Y-116668000D01*
X139072479Y-116668000D01*
X139061454Y-116671237D01*
X139064692Y-116678327D01*
X139086273Y-116699908D01*
X139120299Y-116762220D01*
X139115235Y-116833036D01*
X139086275Y-116878100D01*
X138800684Y-117163692D01*
X138793073Y-117177630D01*
X138793205Y-117179466D01*
X138797454Y-117186078D01*
X139086275Y-117474900D01*
X139120300Y-117537212D01*
X139115235Y-117608028D01*
X139086274Y-117653091D01*
X139007432Y-117731932D01*
X138928589Y-117810775D01*
X138866276Y-117844800D01*
X138795461Y-117839734D01*
X138750399Y-117810774D01*
X138718812Y-117779187D01*
X138708723Y-117773678D01*
X138706000Y-117780979D01*
X138706000Y-118067000D01*
X138685998Y-118135121D01*
X138632342Y-118181614D01*
X138580000Y-118193000D01*
X138297490Y-118193000D01*
X138286465Y-118196237D01*
X138289703Y-118203328D01*
X138323774Y-118237399D01*
X138357800Y-118299711D01*
X138352735Y-118370526D01*
X138323774Y-118415589D01*
X138244932Y-118494431D01*
X138166090Y-118573274D01*
X138103778Y-118607300D01*
X138032963Y-118602235D01*
X137987900Y-118573275D01*
X137702308Y-118287684D01*
X137688370Y-118280073D01*
X137686534Y-118280205D01*
X137679922Y-118284454D01*
X137391100Y-118573275D01*
X137328788Y-118607300D01*
X137257972Y-118602235D01*
X137212908Y-118573273D01*
X137193808Y-118554172D01*
X137183723Y-118548666D01*
X137181000Y-118555968D01*
X137181000Y-119003884D01*
X136673000Y-119003884D01*
X136673000Y-118559479D01*
X136669763Y-118548454D01*
X136662673Y-118551692D01*
X136641092Y-118573273D01*
X136578780Y-118607299D01*
X136507964Y-118602235D01*
X136462900Y-118573275D01*
X136177308Y-118287684D01*
X136163370Y-118280073D01*
X136161534Y-118280205D01*
X136154922Y-118284454D01*
X135866100Y-118573275D01*
X135803788Y-118607300D01*
X135732972Y-118602235D01*
X135687909Y-118573274D01*
X135609068Y-118494432D01*
X135530225Y-118415589D01*
X135496200Y-118353276D01*
X135501266Y-118282461D01*
X135530226Y-118237399D01*
X135561813Y-118205812D01*
X135567322Y-118195723D01*
X135560021Y-118193000D01*
X135274000Y-118193000D01*
X135205879Y-118172998D01*
X135159386Y-118119342D01*
X135148000Y-118067000D01*
X135148000Y-117784490D01*
X135144763Y-117773465D01*
X135137672Y-117776703D01*
X135103601Y-117810774D01*
X135041289Y-117844800D01*
X134970474Y-117839735D01*
X134925411Y-117810774D01*
X134846569Y-117731932D01*
X134767726Y-117653090D01*
X134733700Y-117590778D01*
X134738765Y-117519963D01*
X134767725Y-117474900D01*
X135053316Y-117189308D01*
X135059693Y-117177629D01*
X135743074Y-117177629D01*
X135743205Y-117179468D01*
X135747453Y-117186077D01*
X135777005Y-117215630D01*
X135777004Y-117215630D01*
X135777005Y-117215631D01*
X136151690Y-117590315D01*
X136165630Y-117597927D01*
X136167466Y-117597795D01*
X136174078Y-117593546D01*
X136551995Y-117215630D01*
X136551997Y-117215628D01*
X136578315Y-117189309D01*
X136584693Y-117177629D01*
X137268074Y-117177629D01*
X137268205Y-117179468D01*
X137272453Y-117186077D01*
X137302005Y-117215630D01*
X137302004Y-117215630D01*
X137302005Y-117215631D01*
X137676690Y-117590315D01*
X137690630Y-117597927D01*
X137692466Y-117597795D01*
X137699078Y-117593546D01*
X138076995Y-117215630D01*
X138076997Y-117215628D01*
X138103315Y-117189309D01*
X138110926Y-117175371D01*
X138110795Y-117173533D01*
X138106545Y-117166921D01*
X137728630Y-116789005D01*
X137728628Y-116789003D01*
X137702309Y-116762685D01*
X137688371Y-116755074D01*
X137686533Y-116755205D01*
X137679921Y-116759455D01*
X137302005Y-117137370D01*
X137302003Y-117137372D01*
X137275685Y-117163691D01*
X137268074Y-117177629D01*
X136584693Y-117177629D01*
X136585926Y-117175371D01*
X136585795Y-117173533D01*
X136581545Y-117166921D01*
X136203630Y-116789005D01*
X136203628Y-116789003D01*
X136177309Y-116762685D01*
X136163371Y-116755074D01*
X136161533Y-116755205D01*
X136154921Y-116759455D01*
X135777005Y-117137370D01*
X135777003Y-117137372D01*
X135750685Y-117163691D01*
X135743074Y-117177629D01*
X135059693Y-117177629D01*
X135060927Y-117175370D01*
X135060795Y-117173534D01*
X135056546Y-117166922D01*
X134767725Y-116878100D01*
X134733700Y-116815788D01*
X134738765Y-116744972D01*
X134767727Y-116699908D01*
X134786828Y-116680808D01*
X134792334Y-116670723D01*
X134785032Y-116668000D01*
X134337116Y-116668000D01*
X134321877Y-116672475D01*
X134320672Y-116673865D01*
X134319001Y-116681548D01*
X134319001Y-118558669D01*
X127457500Y-118558669D01*
X127457500Y-118534252D01*
X127452820Y-118510722D01*
X127448288Y-118487939D01*
X127448288Y-118487938D01*
X127445867Y-118475769D01*
X127438973Y-118465452D01*
X127438972Y-118465449D01*
X127421301Y-118439003D01*
X127400085Y-118371251D01*
X127421301Y-118298997D01*
X127438972Y-118272551D01*
X127438973Y-118272548D01*
X127445867Y-118262231D01*
X127450807Y-118237399D01*
X127456293Y-118209816D01*
X127457500Y-118203748D01*
X127457500Y-117264252D01*
X127448672Y-117219870D01*
X127448288Y-117217939D01*
X127448288Y-117217938D01*
X127445867Y-117205769D01*
X127438973Y-117195452D01*
X127438972Y-117195449D01*
X127421301Y-117169003D01*
X127400085Y-117101251D01*
X127421301Y-117028997D01*
X127438972Y-117002551D01*
X127438973Y-117002548D01*
X127445867Y-116992231D01*
X127457500Y-116933748D01*
X127457500Y-116141885D01*
X134319000Y-116141885D01*
X134323475Y-116157124D01*
X134324865Y-116158329D01*
X134332548Y-116160000D01*
X134781521Y-116160000D01*
X134792546Y-116156763D01*
X134789308Y-116149673D01*
X134767727Y-116128092D01*
X134733701Y-116065780D01*
X134738765Y-115994964D01*
X134767725Y-115949900D01*
X135053316Y-115664308D01*
X135059693Y-115652629D01*
X135743074Y-115652629D01*
X135743205Y-115654468D01*
X135747453Y-115661077D01*
X135777005Y-115690630D01*
X135777004Y-115690630D01*
X135777005Y-115690631D01*
X136151690Y-116065315D01*
X136165630Y-116072927D01*
X136167466Y-116072795D01*
X136174078Y-116068546D01*
X136551995Y-115690630D01*
X136551997Y-115690628D01*
X136578315Y-115664309D01*
X136584693Y-115652629D01*
X137268074Y-115652629D01*
X137268205Y-115654468D01*
X137272453Y-115661077D01*
X137302005Y-115690630D01*
X137302004Y-115690630D01*
X137302005Y-115690631D01*
X137676690Y-116065315D01*
X137690630Y-116072927D01*
X137692466Y-116072795D01*
X137699078Y-116068546D01*
X138076995Y-115690630D01*
X138076997Y-115690628D01*
X138103315Y-115664309D01*
X138110926Y-115650371D01*
X138110795Y-115648533D01*
X138106545Y-115641921D01*
X137728630Y-115264005D01*
X137728628Y-115264003D01*
X137702309Y-115237685D01*
X137688371Y-115230074D01*
X137686533Y-115230205D01*
X137679921Y-115234455D01*
X137302005Y-115612370D01*
X137302003Y-115612372D01*
X137275685Y-115638691D01*
X137268074Y-115652629D01*
X136584693Y-115652629D01*
X136585926Y-115650371D01*
X136585795Y-115648533D01*
X136581545Y-115641921D01*
X136203630Y-115264005D01*
X136203628Y-115264003D01*
X136177309Y-115237685D01*
X136163371Y-115230074D01*
X136161533Y-115230205D01*
X136154921Y-115234455D01*
X135777005Y-115612370D01*
X135777003Y-115612372D01*
X135750685Y-115638691D01*
X135743074Y-115652629D01*
X135059693Y-115652629D01*
X135060927Y-115650370D01*
X135060795Y-115648534D01*
X135056546Y-115641922D01*
X134767725Y-115353100D01*
X134733700Y-115290788D01*
X134738765Y-115219972D01*
X134767726Y-115174909D01*
X134846568Y-115096068D01*
X134925411Y-115017225D01*
X134987724Y-114983200D01*
X135058539Y-114988266D01*
X135103601Y-115017226D01*
X135135188Y-115048813D01*
X135145277Y-115054322D01*
X135148000Y-115047021D01*
X135148000Y-114761000D01*
X135168002Y-114692879D01*
X135221658Y-114646386D01*
X135274000Y-114635000D01*
X135556510Y-114635000D01*
X135567535Y-114631763D01*
X135564297Y-114624672D01*
X135530226Y-114590601D01*
X135496200Y-114528289D01*
X135501265Y-114457474D01*
X135530226Y-114412411D01*
X135609068Y-114333569D01*
X135687910Y-114254726D01*
X135750222Y-114220700D01*
X135821037Y-114225765D01*
X135866100Y-114254725D01*
X136151692Y-114540316D01*
X136165630Y-114547927D01*
X136167466Y-114547795D01*
X136174078Y-114543546D01*
X136462900Y-114254725D01*
X136525212Y-114220700D01*
X136596028Y-114225765D01*
X136641092Y-114254727D01*
X136660192Y-114273828D01*
X136670277Y-114279334D01*
X136673000Y-114272032D01*
X136673000Y-114268521D01*
X137181000Y-114268521D01*
X137184237Y-114279546D01*
X137191327Y-114276308D01*
X137212908Y-114254727D01*
X137275220Y-114220701D01*
X137346036Y-114225765D01*
X137391100Y-114254725D01*
X137676692Y-114540316D01*
X137690630Y-114547927D01*
X137692466Y-114547795D01*
X137699078Y-114543546D01*
X137987900Y-114254725D01*
X138050212Y-114220700D01*
X138121028Y-114225765D01*
X138166091Y-114254726D01*
X138244932Y-114333568D01*
X138323775Y-114412411D01*
X138357800Y-114474724D01*
X138352734Y-114545539D01*
X138323774Y-114590601D01*
X138292187Y-114622188D01*
X138286678Y-114632277D01*
X138293979Y-114635000D01*
X138580000Y-114635000D01*
X138648121Y-114655002D01*
X138694614Y-114708658D01*
X138706000Y-114761000D01*
X138706000Y-115043510D01*
X138709237Y-115054535D01*
X138716328Y-115051297D01*
X138750399Y-115017226D01*
X138812711Y-114983200D01*
X138883526Y-114988265D01*
X138928589Y-115017226D01*
X139007431Y-115096068D01*
X139086274Y-115174910D01*
X139120300Y-115237222D01*
X139115235Y-115308037D01*
X139086275Y-115353100D01*
X138800684Y-115638692D01*
X138793073Y-115652630D01*
X138793205Y-115654466D01*
X138797454Y-115661078D01*
X139086275Y-115949900D01*
X139120300Y-116012212D01*
X139115235Y-116083028D01*
X139086273Y-116128092D01*
X139067172Y-116147192D01*
X139061666Y-116157277D01*
X139068968Y-116160000D01*
X139516884Y-116160000D01*
X139532123Y-116155525D01*
X139533328Y-116154135D01*
X139534999Y-116146452D01*
X139534999Y-114269331D01*
X139534629Y-114262510D01*
X139529105Y-114211648D01*
X139525479Y-114196396D01*
X139480324Y-114075946D01*
X139471786Y-114060351D01*
X139395285Y-113958276D01*
X139382724Y-113945715D01*
X139280649Y-113869214D01*
X139265054Y-113860676D01*
X139144606Y-113815522D01*
X139129351Y-113811895D01*
X139078486Y-113806369D01*
X139071672Y-113806000D01*
X137199115Y-113806000D01*
X137183876Y-113810475D01*
X137182671Y-113811865D01*
X137181000Y-113819548D01*
X137181000Y-114268521D01*
X136673000Y-114268521D01*
X136673000Y-113824116D01*
X136668525Y-113808877D01*
X136667135Y-113807672D01*
X136659452Y-113806001D01*
X134782331Y-113806001D01*
X134775510Y-113806371D01*
X134724648Y-113811895D01*
X134709396Y-113815521D01*
X134588946Y-113860676D01*
X134573351Y-113869214D01*
X134471276Y-113945715D01*
X134458715Y-113958276D01*
X134382214Y-114060351D01*
X134373676Y-114075946D01*
X134328522Y-114196394D01*
X134324895Y-114211649D01*
X134319369Y-114262514D01*
X134319000Y-114269328D01*
X134319000Y-116141885D01*
X127457500Y-116141885D01*
X127457500Y-115994252D01*
X127445867Y-115935769D01*
X127438973Y-115925452D01*
X127438972Y-115925449D01*
X127421301Y-115899003D01*
X127400085Y-115831251D01*
X127421301Y-115758997D01*
X127438972Y-115732551D01*
X127438973Y-115732548D01*
X127445867Y-115722231D01*
X127457500Y-115663748D01*
X127457500Y-114724252D01*
X127445867Y-114665769D01*
X127438973Y-114655452D01*
X127438972Y-114655449D01*
X127421301Y-114629003D01*
X127400085Y-114561251D01*
X127421301Y-114488997D01*
X127438972Y-114462551D01*
X127438973Y-114462548D01*
X127445867Y-114452231D01*
X127457500Y-114393748D01*
X127457500Y-113454252D01*
X127445867Y-113395769D01*
X127438973Y-113385452D01*
X127438972Y-113385449D01*
X127421301Y-113359003D01*
X127400085Y-113291251D01*
X127421301Y-113218997D01*
X127438972Y-113192551D01*
X127438973Y-113192548D01*
X127445867Y-113182231D01*
X127453761Y-113142548D01*
X127456293Y-113129816D01*
X127457500Y-113123748D01*
X127457500Y-112381646D01*
X127477502Y-112313525D01*
X127507935Y-112280820D01*
X127612724Y-112202285D01*
X127625285Y-112189724D01*
X127701786Y-112087649D01*
X127710324Y-112072054D01*
X127755478Y-111951606D01*
X127759105Y-111936351D01*
X127764631Y-111885486D01*
X127765000Y-111878672D01*
X127765000Y-111656115D01*
X127760525Y-111640876D01*
X127759135Y-111639671D01*
X127751452Y-111638000D01*
X125267116Y-111638000D01*
X125251877Y-111642475D01*
X125250672Y-111643865D01*
X125249001Y-111651548D01*
X125249001Y-111878669D01*
X125249371Y-111885490D01*
X125254895Y-111936352D01*
X125258521Y-111951604D01*
X125303676Y-112072054D01*
X125312214Y-112087649D01*
X125388715Y-112189724D01*
X125401276Y-112202285D01*
X125506065Y-112280820D01*
X125548580Y-112337679D01*
X125556500Y-112381646D01*
X125556500Y-113123748D01*
X125557707Y-113129816D01*
X125560240Y-113142548D01*
X125568133Y-113182231D01*
X125575027Y-113192548D01*
X125575028Y-113192551D01*
X125592699Y-113218997D01*
X125613915Y-113286749D01*
X125592699Y-113359003D01*
X125575028Y-113385449D01*
X125575027Y-113385452D01*
X125568133Y-113395769D01*
X125556500Y-113454252D01*
X125556500Y-114393748D01*
X125568133Y-114452231D01*
X125575027Y-114462548D01*
X125575028Y-114462551D01*
X125592699Y-114488997D01*
X125613915Y-114556749D01*
X125592699Y-114629003D01*
X125575028Y-114655449D01*
X125575027Y-114655452D01*
X125568133Y-114665769D01*
X125556500Y-114724252D01*
X125556500Y-115663748D01*
X125568133Y-115722231D01*
X125575027Y-115732548D01*
X125575028Y-115732551D01*
X125592699Y-115758997D01*
X125613915Y-115826749D01*
X125592699Y-115899003D01*
X125575028Y-115925449D01*
X125575027Y-115925452D01*
X125568133Y-115935769D01*
X125556500Y-115994252D01*
X125556500Y-116933748D01*
X125568133Y-116992231D01*
X125575027Y-117002548D01*
X125575028Y-117002551D01*
X125592699Y-117028997D01*
X125613915Y-117096749D01*
X125592699Y-117169003D01*
X125575028Y-117195449D01*
X125575027Y-117195452D01*
X125568133Y-117205769D01*
X125565712Y-117217938D01*
X125565712Y-117217939D01*
X125565328Y-117219870D01*
X125556500Y-117264252D01*
X125556500Y-118203748D01*
X125557707Y-118209816D01*
X125563194Y-118237399D01*
X125568133Y-118262231D01*
X125575027Y-118272548D01*
X125575028Y-118272551D01*
X125592699Y-118298997D01*
X125613915Y-118366749D01*
X125592699Y-118439003D01*
X125575028Y-118465449D01*
X125575027Y-118465452D01*
X125568133Y-118475769D01*
X125565712Y-118487938D01*
X125565712Y-118487939D01*
X125561180Y-118510722D01*
X125556500Y-118534252D01*
X125556500Y-119473748D01*
X125557707Y-119479816D01*
X125565626Y-119519626D01*
X125568133Y-119532231D01*
X125575027Y-119542548D01*
X125575028Y-119542551D01*
X125592699Y-119568997D01*
X125613915Y-119636749D01*
X125592699Y-119709003D01*
X125575028Y-119735449D01*
X125575027Y-119735452D01*
X125568133Y-119745769D01*
X125565712Y-119757938D01*
X125565712Y-119757939D01*
X125561125Y-119781002D01*
X125556500Y-119804252D01*
X125556500Y-120743748D01*
X125557707Y-120749816D01*
X125563211Y-120777484D01*
X125568133Y-120802231D01*
X125575027Y-120812548D01*
X125575028Y-120812551D01*
X125592699Y-120838997D01*
X125613915Y-120906749D01*
X125592699Y-120979003D01*
X125575028Y-121005449D01*
X125575027Y-121005452D01*
X125568133Y-121015769D01*
X125565712Y-121027938D01*
X125565712Y-121027939D01*
X125560987Y-121051695D01*
X125556500Y-121074252D01*
X125556500Y-122013748D01*
X125557707Y-122019816D01*
X125562481Y-122043814D01*
X125568133Y-122072231D01*
X125575027Y-122082548D01*
X125575028Y-122082551D01*
X125592699Y-122108997D01*
X125613915Y-122176749D01*
X125592699Y-122249003D01*
X125575028Y-122275449D01*
X125575027Y-122275452D01*
X125568133Y-122285769D01*
X125556500Y-122344252D01*
X125556500Y-123153600D01*
X125536498Y-123221721D01*
X125482842Y-123268214D01*
X125430500Y-123279600D01*
X122154616Y-123279600D01*
X122086495Y-123259598D01*
X122065521Y-123242695D01*
X120374609Y-121551783D01*
X120340583Y-121489471D01*
X120338782Y-121446242D01*
X120344941Y-121399464D01*
X120347582Y-121379400D01*
X120326944Y-121222638D01*
X120266436Y-121076559D01*
X120170182Y-120951118D01*
X120157437Y-120941338D01*
X120112359Y-120906749D01*
X120044741Y-120854864D01*
X119898662Y-120794356D01*
X119741900Y-120773718D01*
X119585138Y-120794356D01*
X119439059Y-120854864D01*
X119371441Y-120906749D01*
X119326364Y-120941338D01*
X119313618Y-120951118D01*
X119217364Y-121076559D01*
X119185809Y-121152740D01*
X119176705Y-121174718D01*
X119132156Y-121229999D01*
X119060296Y-121252500D01*
X115780721Y-121252500D01*
X115712600Y-121232498D01*
X115666107Y-121178842D01*
X115656003Y-121108568D01*
X115685497Y-121043988D01*
X115691548Y-121037482D01*
X115760739Y-120968171D01*
X115769751Y-120956760D01*
X115854816Y-120818757D01*
X115860963Y-120805576D01*
X115912138Y-120651290D01*
X115915005Y-120637914D01*
X115924672Y-120543562D01*
X115925000Y-120537146D01*
X115925000Y-120462316D01*
X115945002Y-120394195D01*
X115998658Y-120347702D01*
X116068932Y-120337598D01*
X116133512Y-120367092D01*
X116140095Y-120373221D01*
X116254989Y-120488115D01*
X116262415Y-120496218D01*
X116286645Y-120525094D01*
X116296194Y-120530607D01*
X116319285Y-120543939D01*
X116328556Y-120549845D01*
X116359416Y-120571454D01*
X116370067Y-120574308D01*
X116373240Y-120575788D01*
X116376512Y-120576979D01*
X116386055Y-120582488D01*
X116423176Y-120589034D01*
X116433883Y-120591408D01*
X116470293Y-120601163D01*
X116481268Y-120600203D01*
X116481270Y-120600203D01*
X116507831Y-120597879D01*
X116518812Y-120597400D01*
X118584090Y-120597400D01*
X118595072Y-120597880D01*
X118621620Y-120600203D01*
X118621622Y-120600203D01*
X118632607Y-120601164D01*
X118669015Y-120591408D01*
X118679742Y-120589030D01*
X118683101Y-120588438D01*
X118716845Y-120582488D01*
X118726390Y-120576977D01*
X118729666Y-120575785D01*
X118732834Y-120574308D01*
X118743484Y-120571454D01*
X118774344Y-120549845D01*
X118783615Y-120543939D01*
X118806706Y-120530607D01*
X118816255Y-120525094D01*
X118840485Y-120496217D01*
X118847911Y-120488115D01*
X119436155Y-119899871D01*
X121013456Y-119899871D01*
X121054107Y-120039790D01*
X121060352Y-120054221D01*
X121136911Y-120183678D01*
X121146551Y-120196104D01*
X121252896Y-120302449D01*
X121265322Y-120312089D01*
X121394779Y-120388648D01*
X121409210Y-120394893D01*
X121555065Y-120437269D01*
X121567667Y-120439570D01*
X121596084Y-120441807D01*
X121601014Y-120442000D01*
X122217885Y-120442000D01*
X122233124Y-120437525D01*
X122234329Y-120436135D01*
X122236000Y-120428452D01*
X122236000Y-120423884D01*
X122744000Y-120423884D01*
X122748475Y-120439123D01*
X122749865Y-120440328D01*
X122757548Y-120441999D01*
X123378984Y-120441999D01*
X123383920Y-120441805D01*
X123412336Y-120439570D01*
X123424931Y-120437270D01*
X123570790Y-120394893D01*
X123585221Y-120388648D01*
X123714678Y-120312089D01*
X123727104Y-120302449D01*
X123833449Y-120196104D01*
X123843089Y-120183678D01*
X123919648Y-120054221D01*
X123925893Y-120039790D01*
X123964939Y-119905395D01*
X123964899Y-119891294D01*
X123957630Y-119888000D01*
X122762115Y-119888000D01*
X122746876Y-119892475D01*
X122745671Y-119893865D01*
X122744000Y-119901548D01*
X122744000Y-120423884D01*
X122236000Y-120423884D01*
X122236000Y-119906115D01*
X122231525Y-119890876D01*
X122230135Y-119889671D01*
X122222452Y-119888000D01*
X121028122Y-119888000D01*
X121014591Y-119891973D01*
X121013456Y-119899871D01*
X119436155Y-119899871D01*
X119574215Y-119761811D01*
X119582319Y-119754384D01*
X119602749Y-119737241D01*
X119611194Y-119730155D01*
X119628456Y-119700256D01*
X119630039Y-119697515D01*
X119635945Y-119688244D01*
X119642104Y-119679448D01*
X119657554Y-119657384D01*
X119660408Y-119646734D01*
X119661885Y-119643566D01*
X119663077Y-119640290D01*
X119668588Y-119630745D01*
X119673208Y-119604542D01*
X119708199Y-119537327D01*
X121099405Y-118146121D01*
X121161717Y-118112095D01*
X121232532Y-118117160D01*
X121289368Y-118159707D01*
X121314179Y-118226227D01*
X121314500Y-118235216D01*
X121314500Y-118547218D01*
X121315170Y-118551768D01*
X121315170Y-118551771D01*
X121323216Y-118606426D01*
X121324642Y-118616112D01*
X121376068Y-118720855D01*
X121382924Y-118727699D01*
X121406177Y-118794333D01*
X121389614Y-118863370D01*
X121344474Y-118909102D01*
X121265322Y-118955911D01*
X121252896Y-118965551D01*
X121146551Y-119071896D01*
X121136911Y-119084322D01*
X121060352Y-119213779D01*
X121054107Y-119228210D01*
X121015061Y-119362605D01*
X121015101Y-119376706D01*
X121022370Y-119380000D01*
X123951878Y-119380000D01*
X123965409Y-119376027D01*
X123966544Y-119368129D01*
X123925893Y-119228210D01*
X123919648Y-119213779D01*
X123843089Y-119084322D01*
X123833449Y-119071896D01*
X123727104Y-118965551D01*
X123714674Y-118955909D01*
X123635542Y-118909111D01*
X123587089Y-118857218D01*
X123574383Y-118787368D01*
X123597060Y-118727595D01*
X123604293Y-118720350D01*
X123608864Y-118710999D01*
X123608866Y-118710996D01*
X123651240Y-118624306D01*
X123655536Y-118615518D01*
X123662759Y-118566007D01*
X123664840Y-118551744D01*
X123664840Y-118551740D01*
X123665500Y-118547218D01*
X123665500Y-118481816D01*
X123685502Y-118413695D01*
X123702405Y-118392721D01*
X124473315Y-117621811D01*
X124481419Y-117614384D01*
X124489188Y-117607865D01*
X124510294Y-117590155D01*
X124516132Y-117580043D01*
X124529139Y-117557515D01*
X124535045Y-117548244D01*
X124550330Y-117526415D01*
X124556654Y-117517384D01*
X124559508Y-117506734D01*
X124560985Y-117503566D01*
X124562177Y-117500290D01*
X124567688Y-117490745D01*
X124574230Y-117453642D01*
X124576609Y-117442910D01*
X124579785Y-117431058D01*
X124586364Y-117406507D01*
X124583079Y-117368957D01*
X124582600Y-117357976D01*
X124582600Y-110414813D01*
X124583079Y-110403832D01*
X124585403Y-110377270D01*
X124585403Y-110377268D01*
X124586363Y-110366293D01*
X124576608Y-110329883D01*
X124574233Y-110319172D01*
X124573527Y-110315168D01*
X124567688Y-110282055D01*
X124562178Y-110272511D01*
X124560986Y-110269235D01*
X124559507Y-110266064D01*
X124556654Y-110255416D01*
X124535040Y-110224548D01*
X124529136Y-110215279D01*
X124515807Y-110192192D01*
X124515804Y-110192188D01*
X124510294Y-110182645D01*
X124481430Y-110158425D01*
X124473327Y-110150999D01*
X124351753Y-110029425D01*
X124317727Y-109967113D01*
X124322792Y-109896298D01*
X124330911Y-109878769D01*
X124338410Y-109865379D01*
X124340266Y-109859912D01*
X124340268Y-109859907D01*
X124407475Y-109661921D01*
X124407476Y-109661916D01*
X124409331Y-109656452D01*
X124410159Y-109650743D01*
X124410160Y-109650738D01*
X124436496Y-109469099D01*
X124440991Y-109438098D01*
X124442643Y-109375000D01*
X124422454Y-109155289D01*
X124414473Y-109126988D01*
X124364134Y-108948500D01*
X124362565Y-108942936D01*
X124264980Y-108745053D01*
X124257455Y-108734975D01*
X124136420Y-108572891D01*
X124136420Y-108572890D01*
X124132967Y-108568267D01*
X124023123Y-108466728D01*
X123975189Y-108422418D01*
X123975186Y-108422416D01*
X123970949Y-108418499D01*
X123819690Y-108323062D01*
X123772751Y-108269795D01*
X123762062Y-108199608D01*
X123791016Y-108134784D01*
X123850421Y-108095904D01*
X123886925Y-108090500D01*
X123960984Y-108090500D01*
X124029105Y-108110502D01*
X124050079Y-108127405D01*
X126133580Y-110210906D01*
X126167606Y-110273218D01*
X126162541Y-110344033D01*
X126119994Y-110400869D01*
X126053474Y-110425680D01*
X126044485Y-110426001D01*
X125712331Y-110426001D01*
X125705510Y-110426371D01*
X125654648Y-110431895D01*
X125639396Y-110435521D01*
X125518946Y-110480676D01*
X125503351Y-110489214D01*
X125401276Y-110565715D01*
X125388715Y-110578276D01*
X125312214Y-110680351D01*
X125303676Y-110695946D01*
X125258522Y-110816394D01*
X125254895Y-110831649D01*
X125249369Y-110882514D01*
X125249000Y-110889328D01*
X125249000Y-111111885D01*
X125253475Y-111127124D01*
X125254865Y-111128329D01*
X125262548Y-111130000D01*
X127746884Y-111130000D01*
X127762123Y-111125525D01*
X127763328Y-111124135D01*
X127764999Y-111116452D01*
X127764999Y-110889331D01*
X127764630Y-110882512D01*
X127758720Y-110828106D01*
X127771249Y-110758224D01*
X127819570Y-110706209D01*
X127883983Y-110688500D01*
X134413590Y-110688500D01*
X134424572Y-110688980D01*
X134451120Y-110691303D01*
X134451122Y-110691303D01*
X134462107Y-110692264D01*
X134498515Y-110682508D01*
X134509242Y-110680130D01*
X134512601Y-110679538D01*
X134546345Y-110673588D01*
X134555890Y-110668077D01*
X134559166Y-110666885D01*
X134562334Y-110665408D01*
X134572984Y-110662554D01*
X134603844Y-110640945D01*
X134613115Y-110635039D01*
X134636206Y-110621707D01*
X134645755Y-110616194D01*
X134669979Y-110587325D01*
X134677406Y-110579220D01*
X135593228Y-109663399D01*
X135601332Y-109655973D01*
X135621750Y-109638840D01*
X135630194Y-109631755D01*
X135635704Y-109622212D01*
X135635707Y-109622208D01*
X135649036Y-109599121D01*
X135654941Y-109589851D01*
X135670232Y-109568013D01*
X135676554Y-109558984D01*
X135679407Y-109548336D01*
X135680886Y-109545165D01*
X135682078Y-109541889D01*
X135687588Y-109532345D01*
X135694134Y-109495224D01*
X135696508Y-109484517D01*
X135706263Y-109448107D01*
X135705303Y-109437130D01*
X135705303Y-109437126D01*
X135704809Y-109431485D01*
X135718796Y-109361880D01*
X135768194Y-109310886D01*
X135830329Y-109294500D01*
X135846748Y-109294500D01*
X135852816Y-109293293D01*
X135893061Y-109285288D01*
X135893062Y-109285288D01*
X135905231Y-109282867D01*
X135915548Y-109275973D01*
X135915551Y-109275972D01*
X135941997Y-109258301D01*
X136009749Y-109237085D01*
X136082003Y-109258301D01*
X136108449Y-109275972D01*
X136108452Y-109275973D01*
X136118769Y-109282867D01*
X136130938Y-109285288D01*
X136130939Y-109285288D01*
X136171184Y-109293293D01*
X136177252Y-109294500D01*
X137116748Y-109294500D01*
X137122816Y-109293293D01*
X137163061Y-109285288D01*
X137163062Y-109285288D01*
X137175231Y-109282867D01*
X137185548Y-109275973D01*
X137185551Y-109275972D01*
X137211997Y-109258301D01*
X137279749Y-109237085D01*
X137352003Y-109258301D01*
X137378449Y-109275972D01*
X137378452Y-109275973D01*
X137388769Y-109282867D01*
X137400938Y-109285288D01*
X137400939Y-109285288D01*
X137441184Y-109293293D01*
X137447252Y-109294500D01*
X138386748Y-109294500D01*
X138392816Y-109293293D01*
X138433061Y-109285288D01*
X138433062Y-109285288D01*
X138445231Y-109282867D01*
X138455548Y-109275973D01*
X138455551Y-109275972D01*
X138481997Y-109258301D01*
X138549749Y-109237085D01*
X138622003Y-109258301D01*
X138648449Y-109275972D01*
X138648452Y-109275973D01*
X138658769Y-109282867D01*
X138670938Y-109285288D01*
X138670939Y-109285288D01*
X138711184Y-109293293D01*
X138717252Y-109294500D01*
X139656748Y-109294500D01*
X139662816Y-109293293D01*
X139703061Y-109285288D01*
X139703062Y-109285288D01*
X139715231Y-109282867D01*
X139725548Y-109275973D01*
X139725551Y-109275972D01*
X139751997Y-109258301D01*
X139819749Y-109237085D01*
X139892003Y-109258301D01*
X139918449Y-109275972D01*
X139918452Y-109275973D01*
X139928769Y-109282867D01*
X139940938Y-109285288D01*
X139940939Y-109285288D01*
X139981184Y-109293293D01*
X139987252Y-109294500D01*
X140926748Y-109294500D01*
X140932816Y-109293293D01*
X140973061Y-109285288D01*
X140973062Y-109285288D01*
X140985231Y-109282867D01*
X140995548Y-109275973D01*
X140995551Y-109275972D01*
X141021997Y-109258301D01*
X141089749Y-109237085D01*
X141162003Y-109258301D01*
X141188449Y-109275972D01*
X141188452Y-109275973D01*
X141198769Y-109282867D01*
X141210938Y-109285288D01*
X141210939Y-109285288D01*
X141251184Y-109293293D01*
X141257252Y-109294500D01*
X142196748Y-109294500D01*
X142202816Y-109293293D01*
X142243061Y-109285288D01*
X142243062Y-109285288D01*
X142255231Y-109282867D01*
X142265548Y-109275973D01*
X142265551Y-109275972D01*
X142291997Y-109258301D01*
X142359749Y-109237085D01*
X142432003Y-109258301D01*
X142458449Y-109275972D01*
X142458452Y-109275973D01*
X142468769Y-109282867D01*
X142480938Y-109285288D01*
X142480939Y-109285288D01*
X142521184Y-109293293D01*
X142527252Y-109294500D01*
X143269354Y-109294500D01*
X143337475Y-109314502D01*
X143370180Y-109344935D01*
X143448715Y-109449724D01*
X143461276Y-109462285D01*
X143563351Y-109538786D01*
X143578946Y-109547324D01*
X143699394Y-109592478D01*
X143714649Y-109596105D01*
X143765514Y-109601631D01*
X143772328Y-109602000D01*
X143994885Y-109602000D01*
X144010124Y-109597525D01*
X144011329Y-109596135D01*
X144013000Y-109588452D01*
X144013000Y-108216000D01*
X144033002Y-108147879D01*
X144086658Y-108101386D01*
X144139000Y-108090000D01*
X144395000Y-108090000D01*
X144463121Y-108110002D01*
G37*
%TD.AperFunction*%
%TA.AperFunction,Conductor*%
G36*
X105209512Y-105939512D02*
G01*
X105236963Y-105975880D01*
X105237820Y-105975385D01*
X105240575Y-105980155D01*
X105242898Y-105985138D01*
X105368402Y-106164377D01*
X105523123Y-106319098D01*
X105527631Y-106322255D01*
X105527634Y-106322257D01*
X105668602Y-106420964D01*
X105702361Y-106444602D01*
X105707343Y-106446925D01*
X105707348Y-106446928D01*
X105894781Y-106534329D01*
X105900670Y-106537075D01*
X105905978Y-106538497D01*
X105905980Y-106538498D01*
X105948802Y-106549972D01*
X106112023Y-106593707D01*
X106330000Y-106612777D01*
X106547977Y-106593707D01*
X106711198Y-106549972D01*
X106754020Y-106538498D01*
X106754022Y-106538497D01*
X106759330Y-106537075D01*
X106765219Y-106534329D01*
X106952652Y-106446928D01*
X106952657Y-106446925D01*
X106957639Y-106444602D01*
X107066912Y-106368088D01*
X107134186Y-106345400D01*
X107203047Y-106362685D01*
X107251631Y-106414455D01*
X107264514Y-106484273D01*
X107237605Y-106549972D01*
X107228278Y-106560396D01*
X105565879Y-108222795D01*
X105503567Y-108256821D01*
X105476784Y-108259700D01*
X103905510Y-108259700D01*
X103894528Y-108259220D01*
X103867980Y-108256897D01*
X103867978Y-108256897D01*
X103856993Y-108255936D01*
X103820585Y-108265692D01*
X103809858Y-108268070D01*
X103806499Y-108268662D01*
X103772755Y-108274612D01*
X103763210Y-108280123D01*
X103759934Y-108281315D01*
X103756766Y-108282792D01*
X103746116Y-108285646D01*
X103727582Y-108298624D01*
X103715256Y-108307255D01*
X103705985Y-108313161D01*
X103685774Y-108324830D01*
X103673345Y-108332006D01*
X103652019Y-108357421D01*
X103649115Y-108360882D01*
X103641689Y-108368985D01*
X102907785Y-109102889D01*
X102899681Y-109110316D01*
X102870806Y-109134545D01*
X102865293Y-109144094D01*
X102851961Y-109167185D01*
X102846055Y-109176456D01*
X102824446Y-109207316D01*
X102821592Y-109217966D01*
X102820115Y-109221134D01*
X102818923Y-109224410D01*
X102813412Y-109233955D01*
X102808705Y-109260653D01*
X102806870Y-109271058D01*
X102804492Y-109281785D01*
X102794736Y-109318193D01*
X102795697Y-109329178D01*
X102795697Y-109329180D01*
X102798020Y-109355728D01*
X102798500Y-109366710D01*
X102798500Y-111369728D01*
X102778498Y-111437849D01*
X102744768Y-111472943D01*
X102731747Y-111482060D01*
X102722479Y-111487964D01*
X102699392Y-111501293D01*
X102699388Y-111501296D01*
X102689845Y-111506806D01*
X102665625Y-111535670D01*
X102658199Y-111543773D01*
X102618387Y-111583585D01*
X102556075Y-111617611D01*
X102485260Y-111612546D01*
X102428424Y-111569999D01*
X102418040Y-111553643D01*
X102355111Y-111435290D01*
X102352218Y-111429849D01*
X102251270Y-111306075D01*
X102225906Y-111274975D01*
X102225903Y-111274972D01*
X102222011Y-111270200D01*
X102203960Y-111255267D01*
X102068025Y-111142811D01*
X102068021Y-111142809D01*
X102063275Y-111138882D01*
X101882055Y-111040897D01*
X101685254Y-110979977D01*
X101679129Y-110979333D01*
X101679128Y-110979333D01*
X101486498Y-110959087D01*
X101486496Y-110959087D01*
X101480369Y-110958443D01*
X101393529Y-110966346D01*
X101281342Y-110976555D01*
X101281339Y-110976556D01*
X101275203Y-110977114D01*
X101077572Y-111035280D01*
X100895002Y-111130726D01*
X100890201Y-111134586D01*
X100890198Y-111134588D01*
X100739254Y-111255950D01*
X100734447Y-111259815D01*
X100602024Y-111417630D01*
X100599056Y-111423028D01*
X100599053Y-111423033D01*
X100530674Y-111547416D01*
X100502776Y-111598162D01*
X100440484Y-111794532D01*
X100439798Y-111800649D01*
X100439797Y-111800653D01*
X100424576Y-111936352D01*
X100417520Y-111999262D01*
X100418036Y-112005406D01*
X100432641Y-112179326D01*
X100434759Y-112204553D01*
X100436458Y-112210478D01*
X100485540Y-112381646D01*
X100491544Y-112402586D01*
X100494359Y-112408063D01*
X100494360Y-112408066D01*
X100551578Y-112519400D01*
X100585712Y-112585818D01*
X100713677Y-112747270D01*
X100870564Y-112880791D01*
X101050398Y-112981297D01*
X101145238Y-113012113D01*
X101240471Y-113043056D01*
X101240475Y-113043057D01*
X101246329Y-113044959D01*
X101450894Y-113069351D01*
X101457029Y-113068879D01*
X101457031Y-113068879D01*
X101513039Y-113064569D01*
X101656300Y-113053546D01*
X101662230Y-113051890D01*
X101662232Y-113051890D01*
X101786104Y-113017304D01*
X101854725Y-112998145D01*
X101860214Y-112995372D01*
X101860220Y-112995370D01*
X101992952Y-112928322D01*
X102038610Y-112905258D01*
X102200951Y-112778424D01*
X102335564Y-112622472D01*
X102338943Y-112616525D01*
X102394117Y-112519400D01*
X102437323Y-112443344D01*
X102443184Y-112425726D01*
X102483666Y-112367403D01*
X102549254Y-112340224D01*
X102562741Y-112339500D01*
X102628590Y-112339500D01*
X102639572Y-112339980D01*
X102666120Y-112342303D01*
X102666122Y-112342303D01*
X102677107Y-112343264D01*
X102713515Y-112333508D01*
X102724242Y-112331130D01*
X102727601Y-112330538D01*
X102761345Y-112324588D01*
X102770890Y-112319077D01*
X102774166Y-112317885D01*
X102777334Y-112316408D01*
X102787984Y-112313554D01*
X102818844Y-112291945D01*
X102828115Y-112286039D01*
X102851206Y-112272707D01*
X102860755Y-112267194D01*
X102884979Y-112238325D01*
X102892406Y-112230220D01*
X103000223Y-112122404D01*
X103062535Y-112088379D01*
X103089318Y-112085500D01*
X103413137Y-112085500D01*
X103424122Y-112085980D01*
X103429046Y-112086411D01*
X103439693Y-112089264D01*
X103450669Y-112088304D01*
X103450672Y-112088304D01*
X103477243Y-112085979D01*
X103488224Y-112085500D01*
X103544121Y-112085500D01*
X103612242Y-112105502D01*
X103658735Y-112159158D01*
X103668839Y-112229432D01*
X103639345Y-112294012D01*
X103618981Y-112312851D01*
X103579373Y-112342107D01*
X103555350Y-112359850D01*
X103549758Y-112367421D01*
X103480459Y-112461243D01*
X103480458Y-112461246D01*
X103474866Y-112468816D01*
X103429981Y-112596631D01*
X103427000Y-112628166D01*
X103427000Y-113685834D01*
X103429981Y-113717369D01*
X103474866Y-113845184D01*
X103480458Y-113852754D01*
X103480459Y-113852757D01*
X103502923Y-113883170D01*
X103555350Y-113954150D01*
X103576605Y-113969849D01*
X103618981Y-114001149D01*
X103661891Y-114057710D01*
X103667411Y-114128492D01*
X103633787Y-114191021D01*
X103571694Y-114225446D01*
X103544121Y-114228500D01*
X102564269Y-114228500D01*
X102496148Y-114208498D01*
X102449008Y-114151991D01*
X102448935Y-114151749D01*
X102352218Y-113969849D01*
X102274306Y-113874320D01*
X102225906Y-113814975D01*
X102225903Y-113814972D01*
X102222011Y-113810200D01*
X102217262Y-113806271D01*
X102068025Y-113682811D01*
X102068021Y-113682809D01*
X102063275Y-113678882D01*
X101882055Y-113580897D01*
X101685254Y-113519977D01*
X101679129Y-113519333D01*
X101679128Y-113519333D01*
X101486498Y-113499087D01*
X101486496Y-113499087D01*
X101480369Y-113498443D01*
X101393529Y-113506346D01*
X101281342Y-113516555D01*
X101281339Y-113516556D01*
X101275203Y-113517114D01*
X101077572Y-113575280D01*
X100895002Y-113670726D01*
X100890201Y-113674586D01*
X100890198Y-113674588D01*
X100834422Y-113719433D01*
X100734447Y-113799815D01*
X100602024Y-113957630D01*
X100599056Y-113963028D01*
X100599053Y-113963033D01*
X100508092Y-114128492D01*
X100502776Y-114138162D01*
X100500913Y-114144035D01*
X100447016Y-114313942D01*
X100440484Y-114334532D01*
X100439798Y-114340649D01*
X100439797Y-114340653D01*
X100424763Y-114474685D01*
X100417520Y-114539262D01*
X100419489Y-114562705D01*
X100426516Y-114646386D01*
X100434759Y-114744553D01*
X100436458Y-114750478D01*
X100483306Y-114913855D01*
X100491544Y-114942586D01*
X100494359Y-114948063D01*
X100494360Y-114948066D01*
X100574478Y-115103959D01*
X100585712Y-115125818D01*
X100713677Y-115287270D01*
X100718370Y-115291264D01*
X100718371Y-115291265D01*
X100843738Y-115397960D01*
X100870564Y-115420791D01*
X100875942Y-115423797D01*
X100875944Y-115423798D01*
X100913870Y-115444994D01*
X101050398Y-115521297D01*
X101145238Y-115552113D01*
X101240471Y-115583056D01*
X101240475Y-115583057D01*
X101246329Y-115584959D01*
X101450894Y-115609351D01*
X101457029Y-115608879D01*
X101457031Y-115608879D01*
X101513039Y-115604569D01*
X101656300Y-115593546D01*
X101662230Y-115591890D01*
X101662232Y-115591890D01*
X101848797Y-115539800D01*
X101848796Y-115539800D01*
X101854725Y-115538145D01*
X101860214Y-115535372D01*
X101860220Y-115535370D01*
X102033116Y-115448033D01*
X102038610Y-115445258D01*
X102062081Y-115426921D01*
X102151055Y-115357407D01*
X102200951Y-115318424D01*
X102219704Y-115296699D01*
X102331540Y-115167134D01*
X102331540Y-115167133D01*
X102335564Y-115162472D01*
X102356387Y-115125818D01*
X102398720Y-115051297D01*
X102437323Y-114983344D01*
X102443184Y-114965726D01*
X102483666Y-114907403D01*
X102549254Y-114880224D01*
X102562741Y-114879500D01*
X103330500Y-114879500D01*
X103398621Y-114899502D01*
X103445114Y-114953158D01*
X103456500Y-115005500D01*
X103456500Y-121886384D01*
X103436498Y-121954505D01*
X103419595Y-121975479D01*
X102983236Y-122411838D01*
X102920924Y-122445864D01*
X102850109Y-122440799D01*
X102834954Y-122431807D01*
X102817452Y-122428000D01*
X101345000Y-122428000D01*
X101276879Y-122407998D01*
X101230386Y-122354342D01*
X101219000Y-122302000D01*
X101219000Y-122046000D01*
X101239002Y-121977879D01*
X101292658Y-121931386D01*
X101345000Y-121920000D01*
X102812884Y-121920000D01*
X102828123Y-121915525D01*
X102829328Y-121914135D01*
X102830999Y-121906452D01*
X102830999Y-121279331D01*
X102830629Y-121272510D01*
X102825105Y-121221648D01*
X102821479Y-121206396D01*
X102776324Y-121085946D01*
X102767786Y-121070351D01*
X102691285Y-120968276D01*
X102678724Y-120955715D01*
X102576649Y-120879214D01*
X102561054Y-120870676D01*
X102440606Y-120825522D01*
X102425351Y-120821895D01*
X102374486Y-120816369D01*
X102367672Y-120816000D01*
X101991932Y-120816000D01*
X101923811Y-120795998D01*
X101877318Y-120742342D01*
X101867214Y-120672068D01*
X101896708Y-120607488D01*
X101935121Y-120577534D01*
X102038610Y-120525258D01*
X102075779Y-120496219D01*
X102145423Y-120441807D01*
X102200951Y-120398424D01*
X102209390Y-120388648D01*
X102331540Y-120247134D01*
X102331540Y-120247133D01*
X102335564Y-120242472D01*
X102356387Y-120205818D01*
X102430263Y-120075771D01*
X102437323Y-120063344D01*
X102502351Y-119867863D01*
X102528171Y-119663474D01*
X102528449Y-119643566D01*
X102528534Y-119637522D01*
X102528534Y-119637518D01*
X102528583Y-119634000D01*
X102508480Y-119428970D01*
X102448935Y-119231749D01*
X102352218Y-119049849D01*
X102249170Y-118923500D01*
X102225906Y-118894975D01*
X102225903Y-118894972D01*
X102222011Y-118890200D01*
X102217262Y-118886271D01*
X102068025Y-118762811D01*
X102068021Y-118762809D01*
X102063275Y-118758882D01*
X101882055Y-118660897D01*
X101685254Y-118599977D01*
X101679129Y-118599333D01*
X101679128Y-118599333D01*
X101486498Y-118579087D01*
X101486496Y-118579087D01*
X101480369Y-118578443D01*
X101393529Y-118586346D01*
X101281342Y-118596555D01*
X101281339Y-118596556D01*
X101275203Y-118597114D01*
X101077572Y-118655280D01*
X100895002Y-118750726D01*
X100890201Y-118754586D01*
X100890198Y-118754588D01*
X100754328Y-118863830D01*
X100734447Y-118879815D01*
X100602024Y-119037630D01*
X100599056Y-119043028D01*
X100599053Y-119043033D01*
X100508550Y-119207659D01*
X100502776Y-119218162D01*
X100500913Y-119224035D01*
X100442692Y-119407573D01*
X100440484Y-119414532D01*
X100439798Y-119420649D01*
X100439797Y-119420653D01*
X100423158Y-119568997D01*
X100417520Y-119619262D01*
X100434759Y-119824553D01*
X100436458Y-119830478D01*
X100458147Y-119906115D01*
X100491544Y-120022586D01*
X100494359Y-120028063D01*
X100494360Y-120028066D01*
X100582897Y-120200341D01*
X100585712Y-120205818D01*
X100713677Y-120367270D01*
X100718370Y-120371264D01*
X100718371Y-120371265D01*
X100860249Y-120492012D01*
X100870564Y-120500791D01*
X101004750Y-120575785D01*
X101012315Y-120580013D01*
X101062020Y-120630707D01*
X101076428Y-120700226D01*
X101050964Y-120766499D01*
X100993713Y-120808484D01*
X100950844Y-120816001D01*
X100578331Y-120816001D01*
X100571510Y-120816371D01*
X100520648Y-120821895D01*
X100505396Y-120825521D01*
X100384946Y-120870676D01*
X100369351Y-120879214D01*
X100267276Y-120955715D01*
X100254715Y-120968276D01*
X100227826Y-121004154D01*
X100170967Y-121046669D01*
X100100149Y-121051695D01*
X100037855Y-121017635D01*
X100003865Y-120955304D01*
X100001000Y-120928589D01*
X100001000Y-117079262D01*
X100417520Y-117079262D01*
X100419543Y-117103351D01*
X100434071Y-117276355D01*
X100434759Y-117284553D01*
X100436458Y-117290478D01*
X100483714Y-117455278D01*
X100491544Y-117482586D01*
X100494359Y-117488063D01*
X100494360Y-117488066D01*
X100580146Y-117654988D01*
X100585712Y-117665818D01*
X100713677Y-117827270D01*
X100718370Y-117831264D01*
X100718371Y-117831265D01*
X100830007Y-117926274D01*
X100870564Y-117960791D01*
X101050398Y-118061297D01*
X101120338Y-118084022D01*
X101240471Y-118123056D01*
X101240475Y-118123057D01*
X101246329Y-118124959D01*
X101450894Y-118149351D01*
X101457029Y-118148879D01*
X101457031Y-118148879D01*
X101513039Y-118144569D01*
X101656300Y-118133546D01*
X101662230Y-118131890D01*
X101662232Y-118131890D01*
X101833676Y-118084022D01*
X101854725Y-118078145D01*
X101860214Y-118075372D01*
X101860220Y-118075370D01*
X102008873Y-118000279D01*
X102038610Y-117985258D01*
X102051213Y-117975412D01*
X102134803Y-117910104D01*
X102200951Y-117858424D01*
X102278812Y-117768221D01*
X102331540Y-117707134D01*
X102331540Y-117707133D01*
X102335564Y-117702472D01*
X102356387Y-117665818D01*
X102395265Y-117597379D01*
X102437323Y-117523344D01*
X102502351Y-117327863D01*
X102528171Y-117123474D01*
X102528583Y-117094000D01*
X102508480Y-116888970D01*
X102448935Y-116691749D01*
X102352218Y-116509849D01*
X102261125Y-116398158D01*
X102225906Y-116354975D01*
X102225903Y-116354972D01*
X102222011Y-116350200D01*
X102215173Y-116344543D01*
X102068025Y-116222811D01*
X102068021Y-116222809D01*
X102063275Y-116218882D01*
X101882055Y-116120897D01*
X101685254Y-116059977D01*
X101679129Y-116059333D01*
X101679128Y-116059333D01*
X101486498Y-116039087D01*
X101486496Y-116039087D01*
X101480369Y-116038443D01*
X101393529Y-116046346D01*
X101281342Y-116056555D01*
X101281339Y-116056556D01*
X101275203Y-116057114D01*
X101077572Y-116115280D01*
X100895002Y-116210726D01*
X100890201Y-116214586D01*
X100890198Y-116214588D01*
X100758562Y-116320426D01*
X100734447Y-116339815D01*
X100602024Y-116497630D01*
X100599056Y-116503028D01*
X100599053Y-116503033D01*
X100506583Y-116671237D01*
X100502776Y-116678162D01*
X100440484Y-116874532D01*
X100439798Y-116880649D01*
X100439797Y-116880653D01*
X100426124Y-117002551D01*
X100417520Y-117079262D01*
X100001000Y-117079262D01*
X100001000Y-109459262D01*
X100417520Y-109459262D01*
X100418036Y-109465406D01*
X100434079Y-109656452D01*
X100434759Y-109664553D01*
X100436458Y-109670478D01*
X100471312Y-109792027D01*
X100491544Y-109862586D01*
X100494359Y-109868063D01*
X100494360Y-109868066D01*
X100577287Y-110029425D01*
X100585712Y-110045818D01*
X100713677Y-110207270D01*
X100718370Y-110211264D01*
X100718371Y-110211265D01*
X100857771Y-110329903D01*
X100870564Y-110340791D01*
X100875942Y-110343797D01*
X100875944Y-110343798D01*
X100935835Y-110377270D01*
X101050398Y-110441297D01*
X101108960Y-110460325D01*
X101240471Y-110503056D01*
X101240475Y-110503057D01*
X101246329Y-110504959D01*
X101450894Y-110529351D01*
X101457029Y-110528879D01*
X101457031Y-110528879D01*
X101513039Y-110524569D01*
X101656300Y-110513546D01*
X101662230Y-110511890D01*
X101662232Y-110511890D01*
X101811982Y-110470079D01*
X101854725Y-110458145D01*
X101860214Y-110455372D01*
X101860220Y-110455370D01*
X102033116Y-110368033D01*
X102038610Y-110365258D01*
X102050907Y-110355651D01*
X102139833Y-110286174D01*
X102200951Y-110238424D01*
X102212928Y-110224549D01*
X102331540Y-110087134D01*
X102331540Y-110087133D01*
X102335564Y-110082472D01*
X102356387Y-110045818D01*
X102397994Y-109972576D01*
X102437323Y-109903344D01*
X102502351Y-109707863D01*
X102528171Y-109503474D01*
X102528474Y-109481826D01*
X102528534Y-109477522D01*
X102528534Y-109477518D01*
X102528583Y-109474000D01*
X102508480Y-109268970D01*
X102448935Y-109071749D01*
X102352218Y-108889849D01*
X102277586Y-108798342D01*
X102225906Y-108734975D01*
X102225903Y-108734972D01*
X102222011Y-108730200D01*
X102164861Y-108682921D01*
X102068025Y-108602811D01*
X102068021Y-108602809D01*
X102063275Y-108598882D01*
X101882055Y-108500897D01*
X101685254Y-108439977D01*
X101679129Y-108439333D01*
X101679128Y-108439333D01*
X101486498Y-108419087D01*
X101486496Y-108419087D01*
X101480369Y-108418443D01*
X101393529Y-108426346D01*
X101281342Y-108436555D01*
X101281339Y-108436556D01*
X101275203Y-108437114D01*
X101077572Y-108495280D01*
X100895002Y-108590726D01*
X100890201Y-108594586D01*
X100890198Y-108594588D01*
X100741898Y-108713824D01*
X100734447Y-108719815D01*
X100602024Y-108877630D01*
X100599056Y-108883028D01*
X100599053Y-108883033D01*
X100543350Y-108984358D01*
X100502776Y-109058162D01*
X100440484Y-109254532D01*
X100439798Y-109260649D01*
X100439797Y-109260653D01*
X100423887Y-109402500D01*
X100417520Y-109459262D01*
X100001000Y-109459262D01*
X100001000Y-108127000D01*
X100021002Y-108058879D01*
X100074658Y-108012386D01*
X100127000Y-108001000D01*
X104999802Y-108001000D01*
X105000000Y-108001082D01*
X105000765Y-108000765D01*
X105001000Y-108000198D01*
X105001082Y-108000000D01*
X105001000Y-107999802D01*
X105001000Y-106034736D01*
X105021002Y-105966615D01*
X105074658Y-105920122D01*
X105144932Y-105910018D01*
X105209512Y-105939512D01*
G37*
%TD.AperFunction*%
%TA.AperFunction,Conductor*%
G36*
X111266940Y-101691502D02*
G01*
X111309362Y-101737034D01*
X111310108Y-101738398D01*
X112067188Y-102495478D01*
X112081132Y-102503092D01*
X112082965Y-102502961D01*
X112089580Y-102498710D01*
X112864002Y-101724288D01*
X112864005Y-101724291D01*
X112901386Y-101686912D01*
X112961770Y-101671500D01*
X120684754Y-101671500D01*
X120752875Y-101691502D01*
X120799368Y-101745158D01*
X120809472Y-101815432D01*
X120779978Y-101880012D01*
X120761458Y-101897462D01*
X120736268Y-101916791D01*
X120736264Y-101916795D01*
X120729718Y-101921818D01*
X120724695Y-101928364D01*
X120688677Y-101975304D01*
X120631339Y-102017171D01*
X120588714Y-102024600D01*
X114422566Y-102024600D01*
X114411584Y-102024120D01*
X114385036Y-102021797D01*
X114385034Y-102021797D01*
X114374049Y-102020836D01*
X114337641Y-102030592D01*
X114326914Y-102032970D01*
X114323555Y-102033562D01*
X114289811Y-102039512D01*
X114280266Y-102045023D01*
X114276990Y-102046215D01*
X114273822Y-102047692D01*
X114263172Y-102050546D01*
X114254141Y-102056870D01*
X114232312Y-102072155D01*
X114223041Y-102078061D01*
X114202181Y-102090105D01*
X114190401Y-102096906D01*
X114179948Y-102109363D01*
X114166171Y-102125782D01*
X114158745Y-102133885D01*
X113646950Y-102645680D01*
X113584638Y-102679706D01*
X113513823Y-102674641D01*
X113456987Y-102632094D01*
X113435651Y-102587280D01*
X113394963Y-102425294D01*
X113391642Y-102415540D01*
X113305080Y-102216459D01*
X113300213Y-102207384D01*
X113231144Y-102100618D01*
X113220458Y-102091415D01*
X113210891Y-102095819D01*
X111308460Y-103998250D01*
X111301700Y-104010630D01*
X111306981Y-104017684D01*
X111475919Y-104116404D01*
X111485202Y-104120851D01*
X111688002Y-104198293D01*
X111697900Y-104201169D01*
X111795137Y-104220952D01*
X111857903Y-104254134D01*
X111892765Y-104315982D01*
X111888656Y-104386859D01*
X111859112Y-104433518D01*
X111274535Y-105018095D01*
X111212223Y-105052121D01*
X111185440Y-105055000D01*
X110280016Y-105055000D01*
X110211895Y-105034998D01*
X110190921Y-105018095D01*
X108600062Y-103427236D01*
X108566036Y-103364924D01*
X108569844Y-103297640D01*
X108628409Y-103125114D01*
X108628409Y-103125113D01*
X108630265Y-103119646D01*
X108631093Y-103113937D01*
X108631094Y-103113932D01*
X108649099Y-102989749D01*
X108658628Y-102924028D01*
X108660108Y-102867500D01*
X108658681Y-102851964D01*
X108657467Y-102838750D01*
X110692971Y-102838750D01*
X110705467Y-103055467D01*
X110706903Y-103065688D01*
X110754627Y-103277448D01*
X110757706Y-103287277D01*
X110839379Y-103488414D01*
X110844022Y-103497605D01*
X110928279Y-103635101D01*
X110938735Y-103644561D01*
X110947513Y-103640777D01*
X111707978Y-102880312D01*
X111715592Y-102866368D01*
X111715461Y-102864535D01*
X111711210Y-102857920D01*
X110951858Y-102098568D01*
X110940322Y-102092268D01*
X110928039Y-102101891D01*
X110876279Y-102177768D01*
X110871191Y-102186724D01*
X110779795Y-102383621D01*
X110776232Y-102393308D01*
X110718223Y-102602479D01*
X110716292Y-102612600D01*
X110693222Y-102828462D01*
X110692971Y-102838750D01*
X108657467Y-102838750D01*
X108642550Y-102676423D01*
X108642021Y-102670666D01*
X108588368Y-102480424D01*
X108578138Y-102459678D01*
X108503497Y-102308324D01*
X108500943Y-102303145D01*
X108407320Y-102177768D01*
X108386130Y-102149391D01*
X108386129Y-102149390D01*
X108382677Y-102144767D01*
X108369741Y-102132809D01*
X108241769Y-102014513D01*
X108241767Y-102014511D01*
X108237528Y-102010593D01*
X108212476Y-101994786D01*
X108070359Y-101905117D01*
X108071495Y-101903317D01*
X108026711Y-101861028D01*
X108009639Y-101792115D01*
X108032534Y-101724911D01*
X108088128Y-101680754D01*
X108135524Y-101671500D01*
X111198819Y-101671500D01*
X111266940Y-101691502D01*
G37*
%TD.AperFunction*%
%TD*%
M02*
