%TF.GenerationSoftware,KiCad,Pcbnew,6.0.11-2627ca5db0~126~ubuntu20.04.1*%
%TF.CreationDate,2025-02-01T21:45:14-05:00*%
%TF.ProjectId,modbus_rtu_mirror_side_esp32_88x37x59mm,6d6f6462-7573-45f7-9274-755f6d697272,rev?*%
%TF.SameCoordinates,Original*%
%TF.FileFunction,Soldermask,Top*%
%TF.FilePolarity,Negative*%
%FSLAX46Y46*%
G04 Gerber Fmt 4.6, Leading zero omitted, Abs format (unit mm)*
G04 Created by KiCad (PCBNEW 6.0.11-2627ca5db0~126~ubuntu20.04.1) date 2025-02-01 21:45:14*
%MOMM*%
%LPD*%
G01*
G04 APERTURE LIST*
G04 Aperture macros list*
%AMRoundRect*
0 Rectangle with rounded corners*
0 $1 Rounding radius*
0 $2 $3 $4 $5 $6 $7 $8 $9 X,Y pos of 4 corners*
0 Add a 4 corners polygon primitive as box body*
4,1,4,$2,$3,$4,$5,$6,$7,$8,$9,$2,$3,0*
0 Add four circle primitives for the rounded corners*
1,1,$1+$1,$2,$3*
1,1,$1+$1,$4,$5*
1,1,$1+$1,$6,$7*
1,1,$1+$1,$8,$9*
0 Add four rect primitives between the rounded corners*
20,1,$1+$1,$2,$3,$4,$5,0*
20,1,$1+$1,$4,$5,$6,$7,0*
20,1,$1+$1,$6,$7,$8,$9,0*
20,1,$1+$1,$8,$9,$2,$3,0*%
G04 Aperture macros list end*
%ADD10RoundRect,0.250000X-0.350000X-0.450000X0.350000X-0.450000X0.350000X0.450000X-0.350000X0.450000X0*%
%ADD11RoundRect,0.250000X0.450000X-0.350000X0.450000X0.350000X-0.450000X0.350000X-0.450000X-0.350000X0*%
%ADD12RoundRect,0.250000X-0.337500X-0.475000X0.337500X-0.475000X0.337500X0.475000X-0.337500X0.475000X0*%
%ADD13R,1.800000X1.800000*%
%ADD14C,1.800000*%
%ADD15RoundRect,0.150000X-0.825000X-0.150000X0.825000X-0.150000X0.825000X0.150000X-0.825000X0.150000X0*%
%ADD16C,2.000000*%
%ADD17R,2.000000X2.000000*%
%ADD18R,1.700000X1.700000*%
%ADD19O,1.700000X1.700000*%
%ADD20RoundRect,0.100000X-0.100000X0.637500X-0.100000X-0.637500X0.100000X-0.637500X0.100000X0.637500X0*%
%ADD21RoundRect,0.250000X-0.475000X0.337500X-0.475000X-0.337500X0.475000X-0.337500X0.475000X0.337500X0*%
%ADD22R,0.900000X1.500000*%
%ADD23R,1.500000X0.900000*%
%ADD24C,0.475000*%
%ADD25R,4.200000X4.200000*%
%ADD26RoundRect,0.250000X0.350000X0.450000X-0.350000X0.450000X-0.350000X-0.450000X0.350000X-0.450000X0*%
%ADD27C,2.100000*%
%ADD28C,1.750000*%
%ADD29R,1.500000X2.000000*%
%ADD30R,3.800000X2.000000*%
G04 APERTURE END LIST*
D10*
%TO.C,R10*%
X103267000Y-138684000D03*
X105267000Y-138684000D03*
%TD*%
D11*
%TO.C,R4*%
X139319000Y-131810000D03*
X139319000Y-129810000D03*
%TD*%
D10*
%TO.C,R11*%
X104283000Y-110236000D03*
X106283000Y-110236000D03*
%TD*%
D12*
%TO.C,C9*%
X112754500Y-120015000D03*
X114829500Y-120015000D03*
%TD*%
%TO.C,C6*%
X110087500Y-123698000D03*
X112162500Y-123698000D03*
%TD*%
D10*
%TO.C,R7*%
X131461000Y-129921000D03*
X133461000Y-129921000D03*
%TD*%
D13*
%TO.C,D2*%
X136563000Y-105800000D03*
D14*
X139103000Y-105800000D03*
%TD*%
D12*
%TO.C,C8*%
X105240000Y-122174000D03*
X107315000Y-122174000D03*
%TD*%
D15*
%TO.C,U5*%
X105094000Y-116078000D03*
X105094000Y-117348000D03*
X105094000Y-118618000D03*
X105094000Y-119888000D03*
X110044000Y-119888000D03*
X110044000Y-118618000D03*
X110044000Y-117348000D03*
X110044000Y-116078000D03*
%TD*%
D16*
%TO.C,BT1*%
X113237000Y-109375000D03*
X123237000Y-109375000D03*
D17*
X118237000Y-112875000D03*
%TD*%
D10*
%TO.C,R12*%
X112792000Y-117983000D03*
X114792000Y-117983000D03*
%TD*%
D13*
%TO.C,D1*%
X141663000Y-105800000D03*
D14*
X144203000Y-105800000D03*
%TD*%
D11*
%TO.C,R2*%
X144526000Y-131810000D03*
X144526000Y-129810000D03*
%TD*%
D13*
%TO.C,D3*%
X131463000Y-105800000D03*
D14*
X134003000Y-105800000D03*
%TD*%
D11*
%TO.C,R3*%
X141986000Y-131810000D03*
X141986000Y-129810000D03*
%TD*%
D10*
%TO.C,R6*%
X127143000Y-129921000D03*
X129143000Y-129921000D03*
%TD*%
D18*
%TO.C,J3*%
X101473000Y-122174000D03*
D19*
X101473000Y-119634000D03*
X101473000Y-117094000D03*
X101473000Y-114554000D03*
X101473000Y-112014000D03*
X101473000Y-109474000D03*
%TD*%
D10*
%TO.C,R8*%
X108093000Y-108585000D03*
X110093000Y-108585000D03*
%TD*%
D20*
%TO.C,U2*%
X107573000Y-125153500D03*
X106923000Y-125153500D03*
X106273000Y-125153500D03*
X105623000Y-125153500D03*
X104973000Y-125153500D03*
X104323000Y-125153500D03*
X103673000Y-125153500D03*
X103023000Y-125153500D03*
X102373000Y-125153500D03*
X101723000Y-125153500D03*
X101723000Y-130878500D03*
X102373000Y-130878500D03*
X103023000Y-130878500D03*
X103673000Y-130878500D03*
X104323000Y-130878500D03*
X104973000Y-130878500D03*
X105623000Y-130878500D03*
X106273000Y-130878500D03*
X106923000Y-130878500D03*
X107573000Y-130878500D03*
%TD*%
D21*
%TO.C,C2*%
X122047000Y-126597500D03*
X122047000Y-128672500D03*
%TD*%
D10*
%TO.C,R1*%
X110252000Y-130810000D03*
X112252000Y-130810000D03*
%TD*%
D13*
%TO.C,D4*%
X126363000Y-105800000D03*
D14*
X128903000Y-105800000D03*
%TD*%
D21*
%TO.C,C1*%
X124206000Y-126597500D03*
X124206000Y-128672500D03*
%TD*%
%TO.C,C4*%
X110109000Y-126597500D03*
X110109000Y-128672500D03*
%TD*%
D22*
%TO.C,U1*%
X144267000Y-108344000D03*
X142997000Y-108344000D03*
X141727000Y-108344000D03*
X140457000Y-108344000D03*
X139187000Y-108344000D03*
X137917000Y-108344000D03*
X136647000Y-108344000D03*
X135377000Y-108344000D03*
X134107000Y-108344000D03*
X132837000Y-108344000D03*
X131567000Y-108344000D03*
X130297000Y-108344000D03*
X129027000Y-108344000D03*
X127757000Y-108344000D03*
D23*
X126507000Y-111384000D03*
X126507000Y-112654000D03*
X126507000Y-113924000D03*
X126507000Y-115194000D03*
X126507000Y-116464000D03*
X126507000Y-117734000D03*
X126507000Y-119004000D03*
X126507000Y-120274000D03*
X126507000Y-121544000D03*
X126507000Y-122814000D03*
D22*
X127757000Y-125844000D03*
X129027000Y-125844000D03*
X130297000Y-125844000D03*
X131567000Y-125844000D03*
X132837000Y-125844000D03*
X134107000Y-125844000D03*
X135377000Y-125844000D03*
X136647000Y-125844000D03*
X137917000Y-125844000D03*
X139187000Y-125844000D03*
X140457000Y-125844000D03*
X141727000Y-125844000D03*
X142997000Y-125844000D03*
X144267000Y-125844000D03*
D24*
X137689500Y-114889000D03*
X136164500Y-114889000D03*
X138452000Y-115651500D03*
X136927000Y-115651500D03*
X137689500Y-117939000D03*
X137689500Y-116414000D03*
D25*
X136927000Y-116414000D03*
D24*
X135402000Y-115651500D03*
X136927000Y-117176500D03*
X138452000Y-117176500D03*
X136164500Y-117939000D03*
X136164500Y-116414000D03*
X135402000Y-117176500D03*
%TD*%
D12*
%TO.C,C5*%
X103229500Y-133985000D03*
X105304500Y-133985000D03*
%TD*%
D18*
%TO.C,J1*%
X115840000Y-135980000D03*
D19*
X113300000Y-135980000D03*
X110760000Y-135980000D03*
X108220000Y-135980000D03*
%TD*%
D26*
%TO.C,R9*%
X105251000Y-136271000D03*
X103251000Y-136271000D03*
%TD*%
D10*
%TO.C,R13*%
X112792000Y-115951000D03*
X114792000Y-115951000D03*
%TD*%
D15*
%TO.C,U4*%
X117540000Y-115824000D03*
X117540000Y-117094000D03*
X117540000Y-118364000D03*
X117540000Y-119634000D03*
X122490000Y-119634000D03*
X122490000Y-118364000D03*
X122490000Y-117094000D03*
X122490000Y-115824000D03*
%TD*%
D13*
%TO.C,D6*%
X116163000Y-105800000D03*
D14*
X118703000Y-105800000D03*
%TD*%
D27*
%TO.C,SW1*%
X113340000Y-105357500D03*
X106330000Y-105357500D03*
D28*
X107580000Y-102867500D03*
X112080000Y-102867500D03*
%TD*%
D29*
%TO.C,U3*%
X114921000Y-128753000D03*
X117221000Y-128753000D03*
D30*
X117221000Y-122453000D03*
D29*
X119521000Y-128753000D03*
%TD*%
D18*
%TO.C,J2*%
X143780000Y-135980000D03*
D19*
X141240000Y-135980000D03*
X138700000Y-135980000D03*
X136160000Y-135980000D03*
%TD*%
D21*
%TO.C,C3*%
X112268000Y-126597500D03*
X112268000Y-128672500D03*
%TD*%
D13*
%TO.C,D5*%
X121263000Y-105800000D03*
D14*
X123803000Y-105800000D03*
%TD*%
D12*
%TO.C,C7*%
X104215000Y-113157000D03*
X106290000Y-113157000D03*
%TD*%
D11*
%TO.C,R5*%
X136779000Y-131810000D03*
X136779000Y-129810000D03*
%TD*%
M02*
