%TF.GenerationSoftware,KiCad,Pcbnew,6.0.11-2627ca5db0~126~ubuntu20.04.1*%
%TF.CreationDate,2024-10-06T15:46:28-05:00*%
%TF.ProjectId,modbus_rtu_mirror_side_88x37x59mm,6d6f6462-7573-45f7-9274-755f6d697272,rev?*%
%TF.SameCoordinates,Original*%
%TF.FileFunction,Legend,Top*%
%TF.FilePolarity,Positive*%
%FSLAX46Y46*%
G04 Gerber Fmt 4.6, Leading zero omitted, Abs format (unit mm)*
G04 Created by KiCad (PCBNEW 6.0.11-2627ca5db0~126~ubuntu20.04.1) date 2024-10-06 15:46:28*
%MOMM*%
%LPD*%
G01*
G04 APERTURE LIST*
%ADD10C,0.187500*%
%ADD11C,0.200000*%
%ADD12C,0.150000*%
%ADD13C,0.120000*%
G04 APERTURE END LIST*
D10*
X143944571Y-139775285D02*
X143944571Y-139203857D01*
X144230285Y-139489571D02*
X143658857Y-139489571D01*
X143480285Y-138489571D02*
X143480285Y-138846714D01*
X143837428Y-138882428D01*
X143801714Y-138846714D01*
X143766000Y-138775285D01*
X143766000Y-138596714D01*
X143801714Y-138525285D01*
X143837428Y-138489571D01*
X143908857Y-138453857D01*
X144087428Y-138453857D01*
X144158857Y-138489571D01*
X144194571Y-138525285D01*
X144230285Y-138596714D01*
X144230285Y-138775285D01*
X144194571Y-138846714D01*
X144158857Y-138882428D01*
X143480285Y-138239571D02*
X144230285Y-137989571D01*
X143480285Y-137739571D01*
X136090428Y-139721714D02*
X136090428Y-139471714D01*
X136483285Y-139364571D02*
X136483285Y-139721714D01*
X135733285Y-139721714D01*
X135733285Y-139364571D01*
X136483285Y-139043142D02*
X135733285Y-139043142D01*
X136483285Y-138614571D01*
X135733285Y-138614571D01*
X135804714Y-138293142D02*
X135769000Y-138257428D01*
X135733285Y-138186000D01*
X135733285Y-138007428D01*
X135769000Y-137936000D01*
X135804714Y-137900285D01*
X135876142Y-137864571D01*
X135947571Y-137864571D01*
X136054714Y-137900285D01*
X136483285Y-138328857D01*
X136483285Y-137864571D01*
D11*
X148688904Y-139506523D02*
X147888904Y-139506523D01*
X148460333Y-139239857D01*
X147888904Y-138973190D01*
X148688904Y-138973190D01*
X147888904Y-138439857D02*
X147888904Y-138287476D01*
X147927000Y-138211285D01*
X148003190Y-138135095D01*
X148155571Y-138097000D01*
X148422238Y-138097000D01*
X148574619Y-138135095D01*
X148650809Y-138211285D01*
X148688904Y-138287476D01*
X148688904Y-138439857D01*
X148650809Y-138516047D01*
X148574619Y-138592238D01*
X148422238Y-138630333D01*
X148155571Y-138630333D01*
X148003190Y-138592238D01*
X147927000Y-138516047D01*
X147888904Y-138439857D01*
X148688904Y-137754142D02*
X147888904Y-137754142D01*
X147888904Y-137563666D01*
X147927000Y-137449380D01*
X148003190Y-137373190D01*
X148079380Y-137335095D01*
X148231761Y-137297000D01*
X148346047Y-137297000D01*
X148498428Y-137335095D01*
X148574619Y-137373190D01*
X148650809Y-137449380D01*
X148688904Y-137563666D01*
X148688904Y-137754142D01*
X148269857Y-136687476D02*
X148307952Y-136573190D01*
X148346047Y-136535095D01*
X148422238Y-136497000D01*
X148536523Y-136497000D01*
X148612714Y-136535095D01*
X148650809Y-136573190D01*
X148688904Y-136649380D01*
X148688904Y-136954142D01*
X147888904Y-136954142D01*
X147888904Y-136687476D01*
X147927000Y-136611285D01*
X147965095Y-136573190D01*
X148041285Y-136535095D01*
X148117476Y-136535095D01*
X148193666Y-136573190D01*
X148231761Y-136611285D01*
X148269857Y-136687476D01*
X148269857Y-136954142D01*
X147888904Y-136154142D02*
X148536523Y-136154142D01*
X148612714Y-136116047D01*
X148650809Y-136077952D01*
X148688904Y-136001761D01*
X148688904Y-135849380D01*
X148650809Y-135773190D01*
X148612714Y-135735095D01*
X148536523Y-135697000D01*
X147888904Y-135697000D01*
X148650809Y-135354142D02*
X148688904Y-135239857D01*
X148688904Y-135049380D01*
X148650809Y-134973190D01*
X148612714Y-134935095D01*
X148536523Y-134897000D01*
X148460333Y-134897000D01*
X148384142Y-134935095D01*
X148346047Y-134973190D01*
X148307952Y-135049380D01*
X148269857Y-135201761D01*
X148231761Y-135277952D01*
X148193666Y-135316047D01*
X148117476Y-135354142D01*
X148041285Y-135354142D01*
X147965095Y-135316047D01*
X147927000Y-135277952D01*
X147888904Y-135201761D01*
X147888904Y-135011285D01*
X147927000Y-134897000D01*
X148688904Y-133487476D02*
X148307952Y-133754142D01*
X148688904Y-133944619D02*
X147888904Y-133944619D01*
X147888904Y-133639857D01*
X147927000Y-133563666D01*
X147965095Y-133525571D01*
X148041285Y-133487476D01*
X148155571Y-133487476D01*
X148231761Y-133525571D01*
X148269857Y-133563666D01*
X148307952Y-133639857D01*
X148307952Y-133944619D01*
X147888904Y-133258904D02*
X147888904Y-132801761D01*
X148688904Y-133030333D02*
X147888904Y-133030333D01*
X147888904Y-132535095D02*
X148536523Y-132535095D01*
X148612714Y-132497000D01*
X148650809Y-132458904D01*
X148688904Y-132382714D01*
X148688904Y-132230333D01*
X148650809Y-132154142D01*
X148612714Y-132116047D01*
X148536523Y-132077952D01*
X147888904Y-132077952D01*
X148688904Y-131087476D02*
X147888904Y-131087476D01*
X148460333Y-130820809D01*
X147888904Y-130554142D01*
X148688904Y-130554142D01*
X148688904Y-130173190D02*
X147888904Y-130173190D01*
X148688904Y-129335095D02*
X148307952Y-129601761D01*
X148688904Y-129792238D02*
X147888904Y-129792238D01*
X147888904Y-129487476D01*
X147927000Y-129411285D01*
X147965095Y-129373190D01*
X148041285Y-129335095D01*
X148155571Y-129335095D01*
X148231761Y-129373190D01*
X148269857Y-129411285D01*
X148307952Y-129487476D01*
X148307952Y-129792238D01*
X148688904Y-128535095D02*
X148307952Y-128801761D01*
X148688904Y-128992238D02*
X147888904Y-128992238D01*
X147888904Y-128687476D01*
X147927000Y-128611285D01*
X147965095Y-128573190D01*
X148041285Y-128535095D01*
X148155571Y-128535095D01*
X148231761Y-128573190D01*
X148269857Y-128611285D01*
X148307952Y-128687476D01*
X148307952Y-128992238D01*
X147888904Y-128039857D02*
X147888904Y-127887476D01*
X147927000Y-127811285D01*
X148003190Y-127735095D01*
X148155571Y-127697000D01*
X148422238Y-127697000D01*
X148574619Y-127735095D01*
X148650809Y-127811285D01*
X148688904Y-127887476D01*
X148688904Y-128039857D01*
X148650809Y-128116047D01*
X148574619Y-128192238D01*
X148422238Y-128230333D01*
X148155571Y-128230333D01*
X148003190Y-128192238D01*
X147927000Y-128116047D01*
X147888904Y-128039857D01*
X148688904Y-126897000D02*
X148307952Y-127163666D01*
X148688904Y-127354142D02*
X147888904Y-127354142D01*
X147888904Y-127049380D01*
X147927000Y-126973190D01*
X147965095Y-126935095D01*
X148041285Y-126897000D01*
X148155571Y-126897000D01*
X148231761Y-126935095D01*
X148269857Y-126973190D01*
X148307952Y-127049380D01*
X148307952Y-127354142D01*
X149938809Y-139544619D02*
X149976904Y-139430333D01*
X149976904Y-139239857D01*
X149938809Y-139163666D01*
X149900714Y-139125571D01*
X149824523Y-139087476D01*
X149748333Y-139087476D01*
X149672142Y-139125571D01*
X149634047Y-139163666D01*
X149595952Y-139239857D01*
X149557857Y-139392238D01*
X149519761Y-139468428D01*
X149481666Y-139506523D01*
X149405476Y-139544619D01*
X149329285Y-139544619D01*
X149253095Y-139506523D01*
X149215000Y-139468428D01*
X149176904Y-139392238D01*
X149176904Y-139201761D01*
X149215000Y-139087476D01*
X149976904Y-138744619D02*
X149176904Y-138744619D01*
X149976904Y-138363666D02*
X149176904Y-138363666D01*
X149176904Y-138173190D01*
X149215000Y-138058904D01*
X149291190Y-137982714D01*
X149367380Y-137944619D01*
X149519761Y-137906523D01*
X149634047Y-137906523D01*
X149786428Y-137944619D01*
X149862619Y-137982714D01*
X149938809Y-138058904D01*
X149976904Y-138173190D01*
X149976904Y-138363666D01*
X149557857Y-137563666D02*
X149557857Y-137297000D01*
X149976904Y-137182714D02*
X149976904Y-137563666D01*
X149176904Y-137563666D01*
X149176904Y-137182714D01*
X149557857Y-135963666D02*
X149595952Y-135849380D01*
X149634047Y-135811285D01*
X149710238Y-135773190D01*
X149824523Y-135773190D01*
X149900714Y-135811285D01*
X149938809Y-135849380D01*
X149976904Y-135925571D01*
X149976904Y-136230333D01*
X149176904Y-136230333D01*
X149176904Y-135963666D01*
X149215000Y-135887476D01*
X149253095Y-135849380D01*
X149329285Y-135811285D01*
X149405476Y-135811285D01*
X149481666Y-135849380D01*
X149519761Y-135887476D01*
X149557857Y-135963666D01*
X149557857Y-136230333D01*
X149176904Y-135277952D02*
X149176904Y-135125571D01*
X149215000Y-135049380D01*
X149291190Y-134973190D01*
X149443571Y-134935095D01*
X149710238Y-134935095D01*
X149862619Y-134973190D01*
X149938809Y-135049380D01*
X149976904Y-135125571D01*
X149976904Y-135277952D01*
X149938809Y-135354142D01*
X149862619Y-135430333D01*
X149710238Y-135468428D01*
X149443571Y-135468428D01*
X149291190Y-135430333D01*
X149215000Y-135354142D01*
X149176904Y-135277952D01*
X149748333Y-134630333D02*
X149748333Y-134249380D01*
X149976904Y-134706523D02*
X149176904Y-134439857D01*
X149976904Y-134173190D01*
X149976904Y-133449380D02*
X149595952Y-133716047D01*
X149976904Y-133906523D02*
X149176904Y-133906523D01*
X149176904Y-133601761D01*
X149215000Y-133525571D01*
X149253095Y-133487476D01*
X149329285Y-133449380D01*
X149443571Y-133449380D01*
X149519761Y-133487476D01*
X149557857Y-133525571D01*
X149595952Y-133601761D01*
X149595952Y-133906523D01*
X149976904Y-133106523D02*
X149176904Y-133106523D01*
X149176904Y-132916047D01*
X149215000Y-132801761D01*
X149291190Y-132725571D01*
X149367380Y-132687476D01*
X149519761Y-132649380D01*
X149634047Y-132649380D01*
X149786428Y-132687476D01*
X149862619Y-132725571D01*
X149938809Y-132801761D01*
X149976904Y-132916047D01*
X149976904Y-133106523D01*
D10*
X115286285Y-139612571D02*
X115286285Y-139184000D01*
X116036285Y-139398285D02*
X115286285Y-139398285D01*
X115286285Y-139005428D02*
X116036285Y-138505428D01*
X115286285Y-138505428D02*
X116036285Y-139005428D01*
X115357714Y-138255428D02*
X115322000Y-138219714D01*
X115286285Y-138148285D01*
X115286285Y-137969714D01*
X115322000Y-137898285D01*
X115357714Y-137862571D01*
X115429142Y-137826857D01*
X115500571Y-137826857D01*
X115607714Y-137862571D01*
X116036285Y-138291142D01*
X116036285Y-137826857D01*
X139023285Y-139293142D02*
X138666142Y-139543142D01*
X139023285Y-139721714D02*
X138273285Y-139721714D01*
X138273285Y-139436000D01*
X138309000Y-139364571D01*
X138344714Y-139328857D01*
X138416142Y-139293142D01*
X138523285Y-139293142D01*
X138594714Y-139328857D01*
X138630428Y-139364571D01*
X138666142Y-139436000D01*
X138666142Y-139721714D01*
X138273285Y-139043142D02*
X139023285Y-138543142D01*
X138273285Y-138543142D02*
X139023285Y-139043142D01*
X138344714Y-138293142D02*
X138309000Y-138257428D01*
X138273285Y-138186000D01*
X138273285Y-138007428D01*
X138309000Y-137936000D01*
X138344714Y-137900285D01*
X138416142Y-137864571D01*
X138487571Y-137864571D01*
X138594714Y-137900285D01*
X139023285Y-138328857D01*
X139023285Y-137864571D01*
X113623285Y-139166142D02*
X113266142Y-139416142D01*
X113623285Y-139594714D02*
X112873285Y-139594714D01*
X112873285Y-139309000D01*
X112909000Y-139237571D01*
X112944714Y-139201857D01*
X113016142Y-139166142D01*
X113123285Y-139166142D01*
X113194714Y-139201857D01*
X113230428Y-139237571D01*
X113266142Y-139309000D01*
X113266142Y-139594714D01*
X112873285Y-138916142D02*
X113623285Y-138416142D01*
X112873285Y-138416142D02*
X113623285Y-138916142D01*
X113623285Y-137737571D02*
X113623285Y-138166142D01*
X113623285Y-137951857D02*
X112873285Y-137951857D01*
X112980428Y-138023285D01*
X113051857Y-138094714D01*
X113087571Y-138166142D01*
X110690428Y-139594714D02*
X110690428Y-139344714D01*
X111083285Y-139237571D02*
X111083285Y-139594714D01*
X110333285Y-139594714D01*
X110333285Y-139237571D01*
X111083285Y-138916142D02*
X110333285Y-138916142D01*
X111083285Y-138487571D01*
X110333285Y-138487571D01*
X111083285Y-137737571D02*
X111083285Y-138166142D01*
X111083285Y-137951857D02*
X110333285Y-137951857D01*
X110440428Y-138023285D01*
X110511857Y-138094714D01*
X110547571Y-138166142D01*
X140849000Y-139382428D02*
X140813285Y-139453857D01*
X140813285Y-139561000D01*
X140849000Y-139668142D01*
X140920428Y-139739571D01*
X140991857Y-139775285D01*
X141134714Y-139811000D01*
X141241857Y-139811000D01*
X141384714Y-139775285D01*
X141456142Y-139739571D01*
X141527571Y-139668142D01*
X141563285Y-139561000D01*
X141563285Y-139489571D01*
X141527571Y-139382428D01*
X141491857Y-139346714D01*
X141241857Y-139346714D01*
X141241857Y-139489571D01*
X141563285Y-139025285D02*
X140813285Y-139025285D01*
X141563285Y-138596714D01*
X140813285Y-138596714D01*
X141563285Y-138239571D02*
X140813285Y-138239571D01*
X140813285Y-138061000D01*
X140849000Y-137953857D01*
X140920428Y-137882428D01*
X140991857Y-137846714D01*
X141134714Y-137811000D01*
X141241857Y-137811000D01*
X141384714Y-137846714D01*
X141456142Y-137882428D01*
X141527571Y-137953857D01*
X141563285Y-138061000D01*
X141563285Y-138239571D01*
X107793285Y-139739571D02*
X107793285Y-139311000D01*
X108543285Y-139525285D02*
X107793285Y-139525285D01*
X107793285Y-139132428D02*
X108543285Y-138632428D01*
X107793285Y-138632428D02*
X108543285Y-139132428D01*
X108543285Y-137953857D02*
X108543285Y-138382428D01*
X108543285Y-138168142D02*
X107793285Y-138168142D01*
X107900428Y-138239571D01*
X107971857Y-138311000D01*
X108007571Y-138382428D01*
D12*
%TO.C,R10*%
X100703142Y-139263380D02*
X100369809Y-138787190D01*
X100131714Y-139263380D02*
X100131714Y-138263380D01*
X100512666Y-138263380D01*
X100607904Y-138311000D01*
X100655523Y-138358619D01*
X100703142Y-138453857D01*
X100703142Y-138596714D01*
X100655523Y-138691952D01*
X100607904Y-138739571D01*
X100512666Y-138787190D01*
X100131714Y-138787190D01*
X101655523Y-139263380D02*
X101084095Y-139263380D01*
X101369809Y-139263380D02*
X101369809Y-138263380D01*
X101274571Y-138406238D01*
X101179333Y-138501476D01*
X101084095Y-138549095D01*
X102274571Y-138263380D02*
X102369809Y-138263380D01*
X102465047Y-138311000D01*
X102512666Y-138358619D01*
X102560285Y-138453857D01*
X102607904Y-138644333D01*
X102607904Y-138882428D01*
X102560285Y-139072904D01*
X102512666Y-139168142D01*
X102465047Y-139215761D01*
X102369809Y-139263380D01*
X102274571Y-139263380D01*
X102179333Y-139215761D01*
X102131714Y-139168142D01*
X102084095Y-139072904D01*
X102036476Y-138882428D01*
X102036476Y-138644333D01*
X102084095Y-138453857D01*
X102131714Y-138358619D01*
X102179333Y-138311000D01*
X102274571Y-138263380D01*
%TO.C,R4*%
X139771380Y-128182666D02*
X139295190Y-128516000D01*
X139771380Y-128754095D02*
X138771380Y-128754095D01*
X138771380Y-128373142D01*
X138819000Y-128277904D01*
X138866619Y-128230285D01*
X138961857Y-128182666D01*
X139104714Y-128182666D01*
X139199952Y-128230285D01*
X139247571Y-128277904D01*
X139295190Y-128373142D01*
X139295190Y-128754095D01*
X139104714Y-127325523D02*
X139771380Y-127325523D01*
X138723761Y-127563619D02*
X139438047Y-127801714D01*
X139438047Y-127182666D01*
%TO.C,R11*%
X104640142Y-109291380D02*
X104306809Y-108815190D01*
X104068714Y-109291380D02*
X104068714Y-108291380D01*
X104449666Y-108291380D01*
X104544904Y-108339000D01*
X104592523Y-108386619D01*
X104640142Y-108481857D01*
X104640142Y-108624714D01*
X104592523Y-108719952D01*
X104544904Y-108767571D01*
X104449666Y-108815190D01*
X104068714Y-108815190D01*
X105592523Y-109291380D02*
X105021095Y-109291380D01*
X105306809Y-109291380D02*
X105306809Y-108291380D01*
X105211571Y-108434238D01*
X105116333Y-108529476D01*
X105021095Y-108577095D01*
X106544904Y-109291380D02*
X105973476Y-109291380D01*
X106259190Y-109291380D02*
X106259190Y-108291380D01*
X106163952Y-108434238D01*
X106068714Y-108529476D01*
X105973476Y-108577095D01*
%TO.C,D3*%
X131994904Y-101792380D02*
X131994904Y-100792380D01*
X132233000Y-100792380D01*
X132375857Y-100840000D01*
X132471095Y-100935238D01*
X132518714Y-101030476D01*
X132566333Y-101220952D01*
X132566333Y-101363809D01*
X132518714Y-101554285D01*
X132471095Y-101649523D01*
X132375857Y-101744761D01*
X132233000Y-101792380D01*
X131994904Y-101792380D01*
X132899666Y-100792380D02*
X133518714Y-100792380D01*
X133185380Y-101173333D01*
X133328238Y-101173333D01*
X133423476Y-101220952D01*
X133471095Y-101268571D01*
X133518714Y-101363809D01*
X133518714Y-101601904D01*
X133471095Y-101697142D01*
X133423476Y-101744761D01*
X133328238Y-101792380D01*
X133042523Y-101792380D01*
X132947285Y-101744761D01*
X132899666Y-101697142D01*
%TO.C,C9*%
X113879333Y-123166142D02*
X113831714Y-123213761D01*
X113688857Y-123261380D01*
X113593619Y-123261380D01*
X113450761Y-123213761D01*
X113355523Y-123118523D01*
X113307904Y-123023285D01*
X113260285Y-122832809D01*
X113260285Y-122689952D01*
X113307904Y-122499476D01*
X113355523Y-122404238D01*
X113450761Y-122309000D01*
X113593619Y-122261380D01*
X113688857Y-122261380D01*
X113831714Y-122309000D01*
X113879333Y-122356619D01*
X114355523Y-123261380D02*
X114546000Y-123261380D01*
X114641238Y-123213761D01*
X114688857Y-123166142D01*
X114784095Y-123023285D01*
X114831714Y-122832809D01*
X114831714Y-122451857D01*
X114784095Y-122356619D01*
X114736476Y-122309000D01*
X114641238Y-122261380D01*
X114450761Y-122261380D01*
X114355523Y-122309000D01*
X114307904Y-122356619D01*
X114260285Y-122451857D01*
X114260285Y-122689952D01*
X114307904Y-122785190D01*
X114355523Y-122832809D01*
X114450761Y-122880428D01*
X114641238Y-122880428D01*
X114736476Y-122832809D01*
X114784095Y-122785190D01*
X114831714Y-122689952D01*
%TO.C,C6*%
X110958333Y-122375142D02*
X110910714Y-122422761D01*
X110767857Y-122470380D01*
X110672619Y-122470380D01*
X110529761Y-122422761D01*
X110434523Y-122327523D01*
X110386904Y-122232285D01*
X110339285Y-122041809D01*
X110339285Y-121898952D01*
X110386904Y-121708476D01*
X110434523Y-121613238D01*
X110529761Y-121518000D01*
X110672619Y-121470380D01*
X110767857Y-121470380D01*
X110910714Y-121518000D01*
X110958333Y-121565619D01*
X111815476Y-121470380D02*
X111625000Y-121470380D01*
X111529761Y-121518000D01*
X111482142Y-121565619D01*
X111386904Y-121708476D01*
X111339285Y-121898952D01*
X111339285Y-122279904D01*
X111386904Y-122375142D01*
X111434523Y-122422761D01*
X111529761Y-122470380D01*
X111720238Y-122470380D01*
X111815476Y-122422761D01*
X111863095Y-122375142D01*
X111910714Y-122279904D01*
X111910714Y-122041809D01*
X111863095Y-121946571D01*
X111815476Y-121898952D01*
X111720238Y-121851333D01*
X111529761Y-121851333D01*
X111434523Y-121898952D01*
X111386904Y-121946571D01*
X111339285Y-122041809D01*
%TO.C,R7*%
X132294333Y-128723380D02*
X131961000Y-128247190D01*
X131722904Y-128723380D02*
X131722904Y-127723380D01*
X132103857Y-127723380D01*
X132199095Y-127771000D01*
X132246714Y-127818619D01*
X132294333Y-127913857D01*
X132294333Y-128056714D01*
X132246714Y-128151952D01*
X132199095Y-128199571D01*
X132103857Y-128247190D01*
X131722904Y-128247190D01*
X132627666Y-127723380D02*
X133294333Y-127723380D01*
X132865761Y-128723380D01*
%TO.C,C8*%
X106005333Y-124055142D02*
X105957714Y-124102761D01*
X105814857Y-124150380D01*
X105719619Y-124150380D01*
X105576761Y-124102761D01*
X105481523Y-124007523D01*
X105433904Y-123912285D01*
X105386285Y-123721809D01*
X105386285Y-123578952D01*
X105433904Y-123388476D01*
X105481523Y-123293238D01*
X105576761Y-123198000D01*
X105719619Y-123150380D01*
X105814857Y-123150380D01*
X105957714Y-123198000D01*
X106005333Y-123245619D01*
X106576761Y-123578952D02*
X106481523Y-123531333D01*
X106433904Y-123483714D01*
X106386285Y-123388476D01*
X106386285Y-123340857D01*
X106433904Y-123245619D01*
X106481523Y-123198000D01*
X106576761Y-123150380D01*
X106767238Y-123150380D01*
X106862476Y-123198000D01*
X106910095Y-123245619D01*
X106957714Y-123340857D01*
X106957714Y-123388476D01*
X106910095Y-123483714D01*
X106862476Y-123531333D01*
X106767238Y-123578952D01*
X106576761Y-123578952D01*
X106481523Y-123626571D01*
X106433904Y-123674190D01*
X106386285Y-123769428D01*
X106386285Y-123959904D01*
X106433904Y-124055142D01*
X106481523Y-124102761D01*
X106576761Y-124150380D01*
X106767238Y-124150380D01*
X106862476Y-124102761D01*
X106910095Y-124055142D01*
X106957714Y-123959904D01*
X106957714Y-123769428D01*
X106910095Y-123674190D01*
X106862476Y-123626571D01*
X106767238Y-123578952D01*
%TO.C,U5*%
X108458095Y-120991380D02*
X108458095Y-121800904D01*
X108505714Y-121896142D01*
X108553333Y-121943761D01*
X108648571Y-121991380D01*
X108839047Y-121991380D01*
X108934285Y-121943761D01*
X108981904Y-121896142D01*
X109029523Y-121800904D01*
X109029523Y-120991380D01*
X109981904Y-120991380D02*
X109505714Y-120991380D01*
X109458095Y-121467571D01*
X109505714Y-121419952D01*
X109600952Y-121372333D01*
X109839047Y-121372333D01*
X109934285Y-121419952D01*
X109981904Y-121467571D01*
X110029523Y-121562809D01*
X110029523Y-121800904D01*
X109981904Y-121896142D01*
X109934285Y-121943761D01*
X109839047Y-121991380D01*
X109600952Y-121991380D01*
X109505714Y-121943761D01*
X109458095Y-121896142D01*
%TO.C,BT1*%
X119229285Y-106989571D02*
X119372142Y-107037190D01*
X119419761Y-107084809D01*
X119467380Y-107180047D01*
X119467380Y-107322904D01*
X119419761Y-107418142D01*
X119372142Y-107465761D01*
X119276904Y-107513380D01*
X118895952Y-107513380D01*
X118895952Y-106513380D01*
X119229285Y-106513380D01*
X119324523Y-106561000D01*
X119372142Y-106608619D01*
X119419761Y-106703857D01*
X119419761Y-106799095D01*
X119372142Y-106894333D01*
X119324523Y-106941952D01*
X119229285Y-106989571D01*
X118895952Y-106989571D01*
X119753095Y-106513380D02*
X120324523Y-106513380D01*
X120038809Y-107513380D02*
X120038809Y-106513380D01*
X121181666Y-107513380D02*
X120610238Y-107513380D01*
X120895952Y-107513380D02*
X120895952Y-106513380D01*
X120800714Y-106656238D01*
X120705476Y-106751476D01*
X120610238Y-106799095D01*
X112585571Y-111712142D02*
X113728428Y-111712142D01*
X113157000Y-112283571D02*
X113157000Y-111140714D01*
X122745571Y-111712142D02*
X123888428Y-111712142D01*
X123317000Y-112283571D02*
X123317000Y-111140714D01*
%TO.C,R12*%
X112887890Y-121991380D02*
X112554557Y-121515190D01*
X112316462Y-121991380D02*
X112316462Y-120991380D01*
X112697414Y-120991380D01*
X112792652Y-121039000D01*
X112840271Y-121086619D01*
X112887890Y-121181857D01*
X112887890Y-121324714D01*
X112840271Y-121419952D01*
X112792652Y-121467571D01*
X112697414Y-121515190D01*
X112316462Y-121515190D01*
X113840271Y-121991380D02*
X113268843Y-121991380D01*
X113554557Y-121991380D02*
X113554557Y-120991380D01*
X113459319Y-121134238D01*
X113364081Y-121229476D01*
X113268843Y-121277095D01*
X114221224Y-121086619D02*
X114268843Y-121039000D01*
X114364081Y-120991380D01*
X114602176Y-120991380D01*
X114697414Y-121039000D01*
X114745033Y-121086619D01*
X114792652Y-121181857D01*
X114792652Y-121277095D01*
X114745033Y-121419952D01*
X114173605Y-121991380D01*
X114792652Y-121991380D01*
%TO.C,R2*%
X145105380Y-128182666D02*
X144629190Y-128516000D01*
X145105380Y-128754095D02*
X144105380Y-128754095D01*
X144105380Y-128373142D01*
X144153000Y-128277904D01*
X144200619Y-128230285D01*
X144295857Y-128182666D01*
X144438714Y-128182666D01*
X144533952Y-128230285D01*
X144581571Y-128277904D01*
X144629190Y-128373142D01*
X144629190Y-128754095D01*
X144200619Y-127801714D02*
X144153000Y-127754095D01*
X144105380Y-127658857D01*
X144105380Y-127420761D01*
X144153000Y-127325523D01*
X144200619Y-127277904D01*
X144295857Y-127230285D01*
X144391095Y-127230285D01*
X144533952Y-127277904D01*
X145105380Y-127849333D01*
X145105380Y-127230285D01*
%TO.C,R3*%
X142438380Y-128182666D02*
X141962190Y-128516000D01*
X142438380Y-128754095D02*
X141438380Y-128754095D01*
X141438380Y-128373142D01*
X141486000Y-128277904D01*
X141533619Y-128230285D01*
X141628857Y-128182666D01*
X141771714Y-128182666D01*
X141866952Y-128230285D01*
X141914571Y-128277904D01*
X141962190Y-128373142D01*
X141962190Y-128754095D01*
X141438380Y-127849333D02*
X141438380Y-127230285D01*
X141819333Y-127563619D01*
X141819333Y-127420761D01*
X141866952Y-127325523D01*
X141914571Y-127277904D01*
X142009809Y-127230285D01*
X142247904Y-127230285D01*
X142343142Y-127277904D01*
X142390761Y-127325523D01*
X142438380Y-127420761D01*
X142438380Y-127706476D01*
X142390761Y-127801714D01*
X142343142Y-127849333D01*
%TO.C,R6*%
X127976333Y-128723380D02*
X127643000Y-128247190D01*
X127404904Y-128723380D02*
X127404904Y-127723380D01*
X127785857Y-127723380D01*
X127881095Y-127771000D01*
X127928714Y-127818619D01*
X127976333Y-127913857D01*
X127976333Y-128056714D01*
X127928714Y-128151952D01*
X127881095Y-128199571D01*
X127785857Y-128247190D01*
X127404904Y-128247190D01*
X128833476Y-127723380D02*
X128643000Y-127723380D01*
X128547761Y-127771000D01*
X128500142Y-127818619D01*
X128404904Y-127961476D01*
X128357285Y-128151952D01*
X128357285Y-128532904D01*
X128404904Y-128628142D01*
X128452523Y-128675761D01*
X128547761Y-128723380D01*
X128738238Y-128723380D01*
X128833476Y-128675761D01*
X128881095Y-128628142D01*
X128928714Y-128532904D01*
X128928714Y-128294809D01*
X128881095Y-128199571D01*
X128833476Y-128151952D01*
X128738238Y-128104333D01*
X128547761Y-128104333D01*
X128452523Y-128151952D01*
X128404904Y-128199571D01*
X128357285Y-128294809D01*
%TO.C,J3*%
X100377666Y-124293380D02*
X100377666Y-125007666D01*
X100330047Y-125150523D01*
X100234809Y-125245761D01*
X100091952Y-125293380D01*
X99996714Y-125293380D01*
X100758619Y-124293380D02*
X101377666Y-124293380D01*
X101044333Y-124674333D01*
X101187190Y-124674333D01*
X101282428Y-124721952D01*
X101330047Y-124769571D01*
X101377666Y-124864809D01*
X101377666Y-125102904D01*
X101330047Y-125198142D01*
X101282428Y-125245761D01*
X101187190Y-125293380D01*
X100901476Y-125293380D01*
X100806238Y-125245761D01*
X100758619Y-125198142D01*
%TO.C,R8*%
X108926333Y-107387380D02*
X108593000Y-106911190D01*
X108354904Y-107387380D02*
X108354904Y-106387380D01*
X108735857Y-106387380D01*
X108831095Y-106435000D01*
X108878714Y-106482619D01*
X108926333Y-106577857D01*
X108926333Y-106720714D01*
X108878714Y-106815952D01*
X108831095Y-106863571D01*
X108735857Y-106911190D01*
X108354904Y-106911190D01*
X109497761Y-106815952D02*
X109402523Y-106768333D01*
X109354904Y-106720714D01*
X109307285Y-106625476D01*
X109307285Y-106577857D01*
X109354904Y-106482619D01*
X109402523Y-106435000D01*
X109497761Y-106387380D01*
X109688238Y-106387380D01*
X109783476Y-106435000D01*
X109831095Y-106482619D01*
X109878714Y-106577857D01*
X109878714Y-106625476D01*
X109831095Y-106720714D01*
X109783476Y-106768333D01*
X109688238Y-106815952D01*
X109497761Y-106815952D01*
X109402523Y-106863571D01*
X109354904Y-106911190D01*
X109307285Y-107006428D01*
X109307285Y-107196904D01*
X109354904Y-107292142D01*
X109402523Y-107339761D01*
X109497761Y-107387380D01*
X109688238Y-107387380D01*
X109783476Y-107339761D01*
X109831095Y-107292142D01*
X109878714Y-107196904D01*
X109878714Y-107006428D01*
X109831095Y-106911190D01*
X109783476Y-106863571D01*
X109688238Y-106815952D01*
%TO.C,U2*%
X108300380Y-131063904D02*
X109109904Y-131063904D01*
X109205142Y-131016285D01*
X109252761Y-130968666D01*
X109300380Y-130873428D01*
X109300380Y-130682952D01*
X109252761Y-130587714D01*
X109205142Y-130540095D01*
X109109904Y-130492476D01*
X108300380Y-130492476D01*
X108395619Y-130063904D02*
X108348000Y-130016285D01*
X108300380Y-129921047D01*
X108300380Y-129682952D01*
X108348000Y-129587714D01*
X108395619Y-129540095D01*
X108490857Y-129492476D01*
X108586095Y-129492476D01*
X108728952Y-129540095D01*
X109300380Y-130111523D01*
X109300380Y-129492476D01*
%TO.C,C2*%
X122404142Y-124880666D02*
X122451761Y-124928285D01*
X122499380Y-125071142D01*
X122499380Y-125166380D01*
X122451761Y-125309238D01*
X122356523Y-125404476D01*
X122261285Y-125452095D01*
X122070809Y-125499714D01*
X121927952Y-125499714D01*
X121737476Y-125452095D01*
X121642238Y-125404476D01*
X121547000Y-125309238D01*
X121499380Y-125166380D01*
X121499380Y-125071142D01*
X121547000Y-124928285D01*
X121594619Y-124880666D01*
X121594619Y-124499714D02*
X121547000Y-124452095D01*
X121499380Y-124356857D01*
X121499380Y-124118761D01*
X121547000Y-124023523D01*
X121594619Y-123975904D01*
X121689857Y-123928285D01*
X121785095Y-123928285D01*
X121927952Y-123975904D01*
X122499380Y-124547333D01*
X122499380Y-123928285D01*
%TO.C,D2*%
X137094904Y-101792380D02*
X137094904Y-100792380D01*
X137333000Y-100792380D01*
X137475857Y-100840000D01*
X137571095Y-100935238D01*
X137618714Y-101030476D01*
X137666333Y-101220952D01*
X137666333Y-101363809D01*
X137618714Y-101554285D01*
X137571095Y-101649523D01*
X137475857Y-101744761D01*
X137333000Y-101792380D01*
X137094904Y-101792380D01*
X138047285Y-100887619D02*
X138094904Y-100840000D01*
X138190142Y-100792380D01*
X138428238Y-100792380D01*
X138523476Y-100840000D01*
X138571095Y-100887619D01*
X138618714Y-100982857D01*
X138618714Y-101078095D01*
X138571095Y-101220952D01*
X137999666Y-101792380D01*
X138618714Y-101792380D01*
%TO.C,R1*%
X111085333Y-133040380D02*
X110752000Y-132564190D01*
X110513904Y-133040380D02*
X110513904Y-132040380D01*
X110894857Y-132040380D01*
X110990095Y-132088000D01*
X111037714Y-132135619D01*
X111085333Y-132230857D01*
X111085333Y-132373714D01*
X111037714Y-132468952D01*
X110990095Y-132516571D01*
X110894857Y-132564190D01*
X110513904Y-132564190D01*
X112037714Y-133040380D02*
X111466285Y-133040380D01*
X111752000Y-133040380D02*
X111752000Y-132040380D01*
X111656761Y-132183238D01*
X111561523Y-132278476D01*
X111466285Y-132326095D01*
%TO.C,C1*%
X124563142Y-124880666D02*
X124610761Y-124928285D01*
X124658380Y-125071142D01*
X124658380Y-125166380D01*
X124610761Y-125309238D01*
X124515523Y-125404476D01*
X124420285Y-125452095D01*
X124229809Y-125499714D01*
X124086952Y-125499714D01*
X123896476Y-125452095D01*
X123801238Y-125404476D01*
X123706000Y-125309238D01*
X123658380Y-125166380D01*
X123658380Y-125071142D01*
X123706000Y-124928285D01*
X123753619Y-124880666D01*
X124658380Y-123928285D02*
X124658380Y-124499714D01*
X124658380Y-124214000D02*
X123658380Y-124214000D01*
X123801238Y-124309238D01*
X123896476Y-124404476D01*
X123944095Y-124499714D01*
%TO.C,C4*%
X109815333Y-125579142D02*
X109767714Y-125626761D01*
X109624857Y-125674380D01*
X109529619Y-125674380D01*
X109386761Y-125626761D01*
X109291523Y-125531523D01*
X109243904Y-125436285D01*
X109196285Y-125245809D01*
X109196285Y-125102952D01*
X109243904Y-124912476D01*
X109291523Y-124817238D01*
X109386761Y-124722000D01*
X109529619Y-124674380D01*
X109624857Y-124674380D01*
X109767714Y-124722000D01*
X109815333Y-124769619D01*
X110672476Y-125007714D02*
X110672476Y-125674380D01*
X110434380Y-124626761D02*
X110196285Y-125341047D01*
X110815333Y-125341047D01*
%TO.C,D4*%
X126894904Y-101792380D02*
X126894904Y-100792380D01*
X127133000Y-100792380D01*
X127275857Y-100840000D01*
X127371095Y-100935238D01*
X127418714Y-101030476D01*
X127466333Y-101220952D01*
X127466333Y-101363809D01*
X127418714Y-101554285D01*
X127371095Y-101649523D01*
X127275857Y-101744761D01*
X127133000Y-101792380D01*
X126894904Y-101792380D01*
X128323476Y-101125714D02*
X128323476Y-101792380D01*
X128085380Y-100744761D02*
X127847285Y-101459047D01*
X128466333Y-101459047D01*
%TO.C,U1*%
X144018095Y-106132380D02*
X144018095Y-106941904D01*
X144065714Y-107037142D01*
X144113333Y-107084761D01*
X144208571Y-107132380D01*
X144399047Y-107132380D01*
X144494285Y-107084761D01*
X144541904Y-107037142D01*
X144589523Y-106941904D01*
X144589523Y-106132380D01*
X145589523Y-107132380D02*
X145018095Y-107132380D01*
X145303809Y-107132380D02*
X145303809Y-106132380D01*
X145208571Y-106275238D01*
X145113333Y-106370476D01*
X145018095Y-106418095D01*
%TO.C,C5*%
X100798333Y-134215142D02*
X100750714Y-134262761D01*
X100607857Y-134310380D01*
X100512619Y-134310380D01*
X100369761Y-134262761D01*
X100274523Y-134167523D01*
X100226904Y-134072285D01*
X100179285Y-133881809D01*
X100179285Y-133738952D01*
X100226904Y-133548476D01*
X100274523Y-133453238D01*
X100369761Y-133358000D01*
X100512619Y-133310380D01*
X100607857Y-133310380D01*
X100750714Y-133358000D01*
X100798333Y-133405619D01*
X101703095Y-133310380D02*
X101226904Y-133310380D01*
X101179285Y-133786571D01*
X101226904Y-133738952D01*
X101322142Y-133691333D01*
X101560238Y-133691333D01*
X101655476Y-133738952D01*
X101703095Y-133786571D01*
X101750714Y-133881809D01*
X101750714Y-134119904D01*
X101703095Y-134215142D01*
X101655476Y-134262761D01*
X101560238Y-134310380D01*
X101322142Y-134310380D01*
X101226904Y-134262761D01*
X101179285Y-134215142D01*
%TO.C,J1*%
X116800380Y-133810333D02*
X117514666Y-133810333D01*
X117657523Y-133857952D01*
X117752761Y-133953190D01*
X117800380Y-134096047D01*
X117800380Y-134191285D01*
X117800380Y-132810333D02*
X117800380Y-133381761D01*
X117800380Y-133096047D02*
X116800380Y-133096047D01*
X116943238Y-133191285D01*
X117038476Y-133286523D01*
X117086095Y-133381761D01*
%TO.C,R9*%
X100798333Y-136596380D02*
X100465000Y-136120190D01*
X100226904Y-136596380D02*
X100226904Y-135596380D01*
X100607857Y-135596380D01*
X100703095Y-135644000D01*
X100750714Y-135691619D01*
X100798333Y-135786857D01*
X100798333Y-135929714D01*
X100750714Y-136024952D01*
X100703095Y-136072571D01*
X100607857Y-136120190D01*
X100226904Y-136120190D01*
X101274523Y-136596380D02*
X101465000Y-136596380D01*
X101560238Y-136548761D01*
X101607857Y-136501142D01*
X101703095Y-136358285D01*
X101750714Y-136167809D01*
X101750714Y-135786857D01*
X101703095Y-135691619D01*
X101655476Y-135644000D01*
X101560238Y-135596380D01*
X101369761Y-135596380D01*
X101274523Y-135644000D01*
X101226904Y-135691619D01*
X101179285Y-135786857D01*
X101179285Y-136024952D01*
X101226904Y-136120190D01*
X101274523Y-136167809D01*
X101369761Y-136215428D01*
X101560238Y-136215428D01*
X101655476Y-136167809D01*
X101703095Y-136120190D01*
X101750714Y-136024952D01*
%TO.C,R13*%
X110482142Y-115514380D02*
X110148809Y-115038190D01*
X109910714Y-115514380D02*
X109910714Y-114514380D01*
X110291666Y-114514380D01*
X110386904Y-114562000D01*
X110434523Y-114609619D01*
X110482142Y-114704857D01*
X110482142Y-114847714D01*
X110434523Y-114942952D01*
X110386904Y-114990571D01*
X110291666Y-115038190D01*
X109910714Y-115038190D01*
X111434523Y-115514380D02*
X110863095Y-115514380D01*
X111148809Y-115514380D02*
X111148809Y-114514380D01*
X111053571Y-114657238D01*
X110958333Y-114752476D01*
X110863095Y-114800095D01*
X111767857Y-114514380D02*
X112386904Y-114514380D01*
X112053571Y-114895333D01*
X112196428Y-114895333D01*
X112291666Y-114942952D01*
X112339285Y-114990571D01*
X112386904Y-115085809D01*
X112386904Y-115323904D01*
X112339285Y-115419142D01*
X112291666Y-115466761D01*
X112196428Y-115514380D01*
X111910714Y-115514380D01*
X111815476Y-115466761D01*
X111767857Y-115419142D01*
%TO.C,U4*%
X119507095Y-120737380D02*
X119507095Y-121546904D01*
X119554714Y-121642142D01*
X119602333Y-121689761D01*
X119697571Y-121737380D01*
X119888047Y-121737380D01*
X119983285Y-121689761D01*
X120030904Y-121642142D01*
X120078523Y-121546904D01*
X120078523Y-120737380D01*
X120983285Y-121070714D02*
X120983285Y-121737380D01*
X120745190Y-120689761D02*
X120507095Y-121404047D01*
X121126142Y-121404047D01*
%TO.C,D1*%
X142194904Y-101792380D02*
X142194904Y-100792380D01*
X142433000Y-100792380D01*
X142575857Y-100840000D01*
X142671095Y-100935238D01*
X142718714Y-101030476D01*
X142766333Y-101220952D01*
X142766333Y-101363809D01*
X142718714Y-101554285D01*
X142671095Y-101649523D01*
X142575857Y-101744761D01*
X142433000Y-101792380D01*
X142194904Y-101792380D01*
X143718714Y-101792380D02*
X143147285Y-101792380D01*
X143433000Y-101792380D02*
X143433000Y-100792380D01*
X143337761Y-100935238D01*
X143242523Y-101030476D01*
X143147285Y-101078095D01*
%TO.C,SW1*%
X108496666Y-104952261D02*
X108639523Y-104999880D01*
X108877619Y-104999880D01*
X108972857Y-104952261D01*
X109020476Y-104904642D01*
X109068095Y-104809404D01*
X109068095Y-104714166D01*
X109020476Y-104618928D01*
X108972857Y-104571309D01*
X108877619Y-104523690D01*
X108687142Y-104476071D01*
X108591904Y-104428452D01*
X108544285Y-104380833D01*
X108496666Y-104285595D01*
X108496666Y-104190357D01*
X108544285Y-104095119D01*
X108591904Y-104047500D01*
X108687142Y-103999880D01*
X108925238Y-103999880D01*
X109068095Y-104047500D01*
X109401428Y-103999880D02*
X109639523Y-104999880D01*
X109830000Y-104285595D01*
X110020476Y-104999880D01*
X110258571Y-103999880D01*
X111163333Y-104999880D02*
X110591904Y-104999880D01*
X110877619Y-104999880D02*
X110877619Y-103999880D01*
X110782380Y-104142738D01*
X110687142Y-104237976D01*
X110591904Y-104285595D01*
%TO.C,U3*%
X116419380Y-131952904D02*
X117228904Y-131952904D01*
X117324142Y-131905285D01*
X117371761Y-131857666D01*
X117419380Y-131762428D01*
X117419380Y-131571952D01*
X117371761Y-131476714D01*
X117324142Y-131429095D01*
X117228904Y-131381476D01*
X116419380Y-131381476D01*
X116419380Y-131000523D02*
X116419380Y-130381476D01*
X116800333Y-130714809D01*
X116800333Y-130571952D01*
X116847952Y-130476714D01*
X116895571Y-130429095D01*
X116990809Y-130381476D01*
X117228904Y-130381476D01*
X117324142Y-130429095D01*
X117371761Y-130476714D01*
X117419380Y-130571952D01*
X117419380Y-130857666D01*
X117371761Y-130952904D01*
X117324142Y-131000523D01*
%TO.C,J2*%
X145562380Y-136313333D02*
X146276666Y-136313333D01*
X146419523Y-136360952D01*
X146514761Y-136456190D01*
X146562380Y-136599047D01*
X146562380Y-136694285D01*
X145657619Y-135884761D02*
X145610000Y-135837142D01*
X145562380Y-135741904D01*
X145562380Y-135503809D01*
X145610000Y-135408571D01*
X145657619Y-135360952D01*
X145752857Y-135313333D01*
X145848095Y-135313333D01*
X145990952Y-135360952D01*
X146562380Y-135932380D01*
X146562380Y-135313333D01*
%TO.C,C3*%
X112101333Y-125579142D02*
X112053714Y-125626761D01*
X111910857Y-125674380D01*
X111815619Y-125674380D01*
X111672761Y-125626761D01*
X111577523Y-125531523D01*
X111529904Y-125436285D01*
X111482285Y-125245809D01*
X111482285Y-125102952D01*
X111529904Y-124912476D01*
X111577523Y-124817238D01*
X111672761Y-124722000D01*
X111815619Y-124674380D01*
X111910857Y-124674380D01*
X112053714Y-124722000D01*
X112101333Y-124769619D01*
X112434666Y-124674380D02*
X113053714Y-124674380D01*
X112720380Y-125055333D01*
X112863238Y-125055333D01*
X112958476Y-125102952D01*
X113006095Y-125150571D01*
X113053714Y-125245809D01*
X113053714Y-125483904D01*
X113006095Y-125579142D01*
X112958476Y-125626761D01*
X112863238Y-125674380D01*
X112577523Y-125674380D01*
X112482285Y-125626761D01*
X112434666Y-125579142D01*
%TO.C,D5*%
X121794904Y-101792380D02*
X121794904Y-100792380D01*
X122033000Y-100792380D01*
X122175857Y-100840000D01*
X122271095Y-100935238D01*
X122318714Y-101030476D01*
X122366333Y-101220952D01*
X122366333Y-101363809D01*
X122318714Y-101554285D01*
X122271095Y-101649523D01*
X122175857Y-101744761D01*
X122033000Y-101792380D01*
X121794904Y-101792380D01*
X123271095Y-100792380D02*
X122794904Y-100792380D01*
X122747285Y-101268571D01*
X122794904Y-101220952D01*
X122890142Y-101173333D01*
X123128238Y-101173333D01*
X123223476Y-101220952D01*
X123271095Y-101268571D01*
X123318714Y-101363809D01*
X123318714Y-101601904D01*
X123271095Y-101697142D01*
X123223476Y-101744761D01*
X123128238Y-101792380D01*
X122890142Y-101792380D01*
X122794904Y-101744761D01*
X122747285Y-101697142D01*
%TO.C,D6*%
X116694904Y-101792380D02*
X116694904Y-100792380D01*
X116933000Y-100792380D01*
X117075857Y-100840000D01*
X117171095Y-100935238D01*
X117218714Y-101030476D01*
X117266333Y-101220952D01*
X117266333Y-101363809D01*
X117218714Y-101554285D01*
X117171095Y-101649523D01*
X117075857Y-101744761D01*
X116933000Y-101792380D01*
X116694904Y-101792380D01*
X118123476Y-100792380D02*
X117933000Y-100792380D01*
X117837761Y-100840000D01*
X117790142Y-100887619D01*
X117694904Y-101030476D01*
X117647285Y-101220952D01*
X117647285Y-101601904D01*
X117694904Y-101697142D01*
X117742523Y-101744761D01*
X117837761Y-101792380D01*
X118028238Y-101792380D01*
X118123476Y-101744761D01*
X118171095Y-101697142D01*
X118218714Y-101601904D01*
X118218714Y-101363809D01*
X118171095Y-101268571D01*
X118123476Y-101220952D01*
X118028238Y-101173333D01*
X117837761Y-101173333D01*
X117742523Y-101220952D01*
X117694904Y-101268571D01*
X117647285Y-101363809D01*
%TO.C,C7*%
X104831833Y-112371142D02*
X104784214Y-112418761D01*
X104641357Y-112466380D01*
X104546119Y-112466380D01*
X104403261Y-112418761D01*
X104308023Y-112323523D01*
X104260404Y-112228285D01*
X104212785Y-112037809D01*
X104212785Y-111894952D01*
X104260404Y-111704476D01*
X104308023Y-111609238D01*
X104403261Y-111514000D01*
X104546119Y-111466380D01*
X104641357Y-111466380D01*
X104784214Y-111514000D01*
X104831833Y-111561619D01*
X105165166Y-111466380D02*
X105831833Y-111466380D01*
X105403261Y-112466380D01*
%TO.C,R5*%
X137231380Y-128182666D02*
X136755190Y-128516000D01*
X137231380Y-128754095D02*
X136231380Y-128754095D01*
X136231380Y-128373142D01*
X136279000Y-128277904D01*
X136326619Y-128230285D01*
X136421857Y-128182666D01*
X136564714Y-128182666D01*
X136659952Y-128230285D01*
X136707571Y-128277904D01*
X136755190Y-128373142D01*
X136755190Y-128754095D01*
X136231380Y-127277904D02*
X136231380Y-127754095D01*
X136707571Y-127801714D01*
X136659952Y-127754095D01*
X136612333Y-127658857D01*
X136612333Y-127420761D01*
X136659952Y-127325523D01*
X136707571Y-127277904D01*
X136802809Y-127230285D01*
X137040904Y-127230285D01*
X137136142Y-127277904D01*
X137183761Y-127325523D01*
X137231380Y-127420761D01*
X137231380Y-127658857D01*
X137183761Y-127754095D01*
X137136142Y-127801714D01*
D13*
%TO.C,R10*%
X104039936Y-139419000D02*
X104494064Y-139419000D01*
X104039936Y-137949000D02*
X104494064Y-137949000D01*
%TO.C,R4*%
X140054000Y-131037064D02*
X140054000Y-130582936D01*
X138584000Y-131037064D02*
X138584000Y-130582936D01*
%TO.C,R11*%
X105055936Y-110971000D02*
X105510064Y-110971000D01*
X105055936Y-109501000D02*
X105510064Y-109501000D01*
%TO.C,D3*%
X131173000Y-103064000D02*
X131173000Y-103220000D01*
X131173000Y-105380000D02*
X131173000Y-105536000D01*
X131173000Y-105535516D02*
G75*
G03*
X134405335Y-105378608I1560000J1235516D01*
G01*
X131692039Y-105380000D02*
G75*
G03*
X133774130Y-105379837I1040961J1080000D01*
G01*
X133774130Y-103220163D02*
G75*
G03*
X131692039Y-103220000I-1041130J-1079837D01*
G01*
X134405335Y-103221392D02*
G75*
G03*
X131173000Y-103064484I-1672335J-1078608D01*
G01*
%TO.C,C9*%
X113530748Y-119280000D02*
X114053252Y-119280000D01*
X113530748Y-120750000D02*
X114053252Y-120750000D01*
%TO.C,C6*%
X110863748Y-124433000D02*
X111386252Y-124433000D01*
X110863748Y-122963000D02*
X111386252Y-122963000D01*
%TO.C,R7*%
X132233936Y-130656000D02*
X132688064Y-130656000D01*
X132233936Y-129186000D02*
X132688064Y-129186000D01*
%TO.C,C8*%
X106016248Y-122909000D02*
X106538752Y-122909000D01*
X106016248Y-121439000D02*
X106538752Y-121439000D01*
%TO.C,U5*%
X107569000Y-115423000D02*
X109519000Y-115423000D01*
X107569000Y-120543000D02*
X109519000Y-120543000D01*
X107569000Y-120543000D02*
X105619000Y-120543000D01*
X107569000Y-115423000D02*
X104119000Y-115423000D01*
%TO.C,BT1*%
X118872000Y-111605000D02*
X117602000Y-111605000D01*
X124897000Y-107815000D02*
X111577000Y-107815000D01*
X124897000Y-114435000D02*
X111577000Y-114435000D01*
X111577000Y-114435000D02*
X111577000Y-107815000D01*
X124897000Y-114435000D02*
X124897000Y-107815000D01*
%TO.C,R12*%
X113564936Y-117248000D02*
X114019064Y-117248000D01*
X113564936Y-118718000D02*
X114019064Y-118718000D01*
%TO.C,R2*%
X143791000Y-131037064D02*
X143791000Y-130582936D01*
X145261000Y-131037064D02*
X145261000Y-130582936D01*
%TO.C,R3*%
X141251000Y-131037064D02*
X141251000Y-130582936D01*
X142721000Y-131037064D02*
X142721000Y-130582936D01*
%TO.C,R6*%
X127915936Y-129186000D02*
X128370064Y-129186000D01*
X127915936Y-130656000D02*
X128370064Y-130656000D01*
%TO.C,J3*%
X102803000Y-120904000D02*
X102803000Y-108144000D01*
X102803000Y-120904000D02*
X100143000Y-120904000D01*
X100143000Y-120904000D02*
X100143000Y-108144000D01*
X102803000Y-122174000D02*
X102803000Y-123504000D01*
X102803000Y-123504000D02*
X101473000Y-123504000D01*
X102803000Y-108144000D02*
X100143000Y-108144000D01*
%TO.C,R8*%
X108865936Y-107850000D02*
X109320064Y-107850000D01*
X108865936Y-109320000D02*
X109320064Y-109320000D01*
%TO.C,U2*%
X108033000Y-128016000D02*
X108033000Y-130216000D01*
X101263000Y-128016000D02*
X101263000Y-130216000D01*
X108033000Y-128016000D02*
X108033000Y-124416000D01*
X101263000Y-128016000D02*
X101263000Y-125816000D01*
%TO.C,C2*%
X121312000Y-127373748D02*
X121312000Y-127896252D01*
X122782000Y-127373748D02*
X122782000Y-127896252D01*
%TO.C,D2*%
X136273000Y-103064000D02*
X136273000Y-103220000D01*
X136273000Y-105380000D02*
X136273000Y-105536000D01*
X136792039Y-105380000D02*
G75*
G03*
X138874130Y-105379837I1040961J1080000D01*
G01*
X139505335Y-103221392D02*
G75*
G03*
X136273000Y-103064484I-1672335J-1078608D01*
G01*
X138874130Y-103220163D02*
G75*
G03*
X136792039Y-103220000I-1041130J-1079837D01*
G01*
X136273000Y-105535516D02*
G75*
G03*
X139505335Y-105378608I1560000J1235516D01*
G01*
%TO.C,R1*%
X111024936Y-130075000D02*
X111479064Y-130075000D01*
X111024936Y-131545000D02*
X111479064Y-131545000D01*
%TO.C,C1*%
X124941000Y-127373748D02*
X124941000Y-127896252D01*
X123471000Y-127373748D02*
X123471000Y-127896252D01*
%TO.C,C4*%
X110844000Y-127373748D02*
X110844000Y-127896252D01*
X109374000Y-127373748D02*
X109374000Y-127896252D01*
%TO.C,D4*%
X126073000Y-105380000D02*
X126073000Y-105536000D01*
X126073000Y-103064000D02*
X126073000Y-103220000D01*
X128674130Y-103220163D02*
G75*
G03*
X126592039Y-103220000I-1041130J-1079837D01*
G01*
X126073000Y-105535516D02*
G75*
G03*
X129305335Y-105378608I1560000J1235516D01*
G01*
X129305335Y-103221392D02*
G75*
G03*
X126073000Y-103064484I-1672335J-1078608D01*
G01*
X126592039Y-105380000D02*
G75*
G03*
X128674130Y-105379837I1040961J1080000D01*
G01*
%TO.C,U1*%
X145462000Y-107974000D02*
X145462000Y-107594000D01*
X126917000Y-107974000D02*
X126137000Y-107974000D01*
X151877000Y-126214000D02*
X145462000Y-126214000D01*
X126137000Y-107974000D02*
X126137000Y-108974000D01*
X126137000Y-126214000D02*
X126137000Y-125214000D01*
X151877000Y-107974000D02*
X151877000Y-126214000D01*
X126917000Y-126214000D02*
X126137000Y-126214000D01*
X151877000Y-107974000D02*
X145462000Y-107974000D01*
%TO.C,C5*%
X104005748Y-134720000D02*
X104528252Y-134720000D01*
X104005748Y-133250000D02*
X104528252Y-133250000D01*
%TO.C,J1*%
X117170000Y-134650000D02*
X117170000Y-135980000D01*
X106890000Y-134650000D02*
X106890000Y-137310000D01*
X114570000Y-137310000D02*
X106890000Y-137310000D01*
X114570000Y-134650000D02*
X106890000Y-134650000D01*
X114570000Y-134650000D02*
X114570000Y-137310000D01*
X115840000Y-134650000D02*
X117170000Y-134650000D01*
%TO.C,R9*%
X104478064Y-135536000D02*
X104023936Y-135536000D01*
X104478064Y-137006000D02*
X104023936Y-137006000D01*
%TO.C,R13*%
X113564936Y-116686000D02*
X114019064Y-116686000D01*
X113564936Y-115216000D02*
X114019064Y-115216000D01*
%TO.C,U4*%
X120015000Y-120289000D02*
X121965000Y-120289000D01*
X120015000Y-115169000D02*
X121965000Y-115169000D01*
X120015000Y-115169000D02*
X116565000Y-115169000D01*
X120015000Y-120289000D02*
X118065000Y-120289000D01*
%TO.C,D1*%
X141373000Y-105380000D02*
X141373000Y-105536000D01*
X141373000Y-103064000D02*
X141373000Y-103220000D01*
X143974130Y-103220163D02*
G75*
G03*
X141892039Y-103220000I-1041130J-1079837D01*
G01*
X144605335Y-103221392D02*
G75*
G03*
X141373000Y-103064484I-1672335J-1078608D01*
G01*
X141892039Y-105380000D02*
G75*
G03*
X143974130Y-105379837I1040961J1080000D01*
G01*
X141373000Y-105535516D02*
G75*
G03*
X144605335Y-105378608I1560000J1235516D01*
G01*
%TO.C,SW1*%
X106490000Y-103837500D02*
X107030000Y-103837500D01*
X113170000Y-107177500D02*
X113690000Y-107177500D01*
X105970000Y-100167500D02*
X113690000Y-100167500D01*
X106490000Y-106667500D02*
X106490000Y-107177500D01*
X113170000Y-106667500D02*
X113170000Y-107177500D01*
X113690000Y-100167500D02*
X113690000Y-104067500D01*
X105970000Y-107177500D02*
X106490000Y-107177500D01*
X112630000Y-103837500D02*
X113170000Y-103837500D01*
X113690000Y-106667500D02*
X113690000Y-107177500D01*
X108130000Y-103837500D02*
X111530000Y-103837500D01*
X105970000Y-100167500D02*
X105970000Y-104067500D01*
X113170000Y-103837500D02*
X113170000Y-104067500D01*
X105970000Y-106667500D02*
X105970000Y-107177500D01*
X106490000Y-103837500D02*
X106490000Y-104067500D01*
%TO.C,U3*%
X113811000Y-129703000D02*
X113811000Y-123693000D01*
X120631000Y-127453000D02*
X120631000Y-123693000D01*
X113811000Y-123693000D02*
X115071000Y-123693000D01*
X120631000Y-123693000D02*
X119371000Y-123693000D01*
%TO.C,J2*%
X142510000Y-137310000D02*
X134830000Y-137310000D01*
X145110000Y-134650000D02*
X145110000Y-135980000D01*
X142510000Y-134650000D02*
X142510000Y-137310000D01*
X134830000Y-134650000D02*
X134830000Y-137310000D01*
X142510000Y-134650000D02*
X134830000Y-134650000D01*
X143780000Y-134650000D02*
X145110000Y-134650000D01*
%TO.C,C3*%
X113003000Y-127373748D02*
X113003000Y-127896252D01*
X111533000Y-127373748D02*
X111533000Y-127896252D01*
%TO.C,D5*%
X120973000Y-103064000D02*
X120973000Y-103220000D01*
X120973000Y-105380000D02*
X120973000Y-105536000D01*
X123574130Y-103220163D02*
G75*
G03*
X121492039Y-103220000I-1041130J-1079837D01*
G01*
X121492039Y-105380000D02*
G75*
G03*
X123574130Y-105379837I1040961J1080000D01*
G01*
X120973000Y-105535516D02*
G75*
G03*
X124205335Y-105378608I1560000J1235516D01*
G01*
X124205335Y-103221392D02*
G75*
G03*
X120973000Y-103064484I-1672335J-1078608D01*
G01*
%TO.C,D6*%
X115873000Y-103064000D02*
X115873000Y-103220000D01*
X115873000Y-105380000D02*
X115873000Y-105536000D01*
X118474130Y-103220163D02*
G75*
G03*
X116392039Y-103220000I-1041130J-1079837D01*
G01*
X115873000Y-105535516D02*
G75*
G03*
X119105335Y-105378608I1560000J1235516D01*
G01*
X116392039Y-105380000D02*
G75*
G03*
X118474130Y-105379837I1040961J1080000D01*
G01*
X119105335Y-103221392D02*
G75*
G03*
X115873000Y-103064484I-1672335J-1078608D01*
G01*
%TO.C,C7*%
X104991248Y-112422000D02*
X105513752Y-112422000D01*
X104991248Y-113892000D02*
X105513752Y-113892000D01*
%TO.C,R5*%
X136044000Y-131037064D02*
X136044000Y-130582936D01*
X137514000Y-131037064D02*
X137514000Y-130582936D01*
%TD*%
M02*
