%TF.GenerationSoftware,KiCad,Pcbnew,6.0.11-2627ca5db0~126~ubuntu20.04.1*%
%TF.CreationDate,2025-02-01T21:45:14-05:00*%
%TF.ProjectId,modbus_rtu_mirror_side_esp32_88x37x59mm,6d6f6462-7573-45f7-9274-755f6d697272,rev?*%
%TF.SameCoordinates,Original*%
%TF.FileFunction,Legend,Bot*%
%TF.FilePolarity,Positive*%
%FSLAX46Y46*%
G04 Gerber Fmt 4.6, Leading zero omitted, Abs format (unit mm)*
G04 Created by KiCad (PCBNEW 6.0.11-2627ca5db0~126~ubuntu20.04.1) date 2025-02-01 21:45:14*
%MOMM*%
%LPD*%
G01*
G04 APERTURE LIST*
%ADD10C,0.200000*%
%ADD11C,0.187500*%
%ADD12C,0.010000*%
G04 APERTURE END LIST*
D10*
X109712380Y-125565904D02*
X109979047Y-125184952D01*
X110169523Y-125565904D02*
X110169523Y-124765904D01*
X109864761Y-124765904D01*
X109788571Y-124804000D01*
X109750476Y-124842095D01*
X109712380Y-124918285D01*
X109712380Y-125032571D01*
X109750476Y-125108761D01*
X109788571Y-125146857D01*
X109864761Y-125184952D01*
X110169523Y-125184952D01*
X109445714Y-124765904D02*
X108912380Y-125565904D01*
X108912380Y-124765904D02*
X109445714Y-125565904D01*
X108188571Y-125565904D02*
X108645714Y-125565904D01*
X108417142Y-125565904D02*
X108417142Y-124765904D01*
X108493333Y-124880190D01*
X108569523Y-124956380D01*
X108645714Y-124994476D01*
X107083809Y-124765904D02*
X106931428Y-124765904D01*
X106855238Y-124804000D01*
X106779047Y-124880190D01*
X106740952Y-125032571D01*
X106740952Y-125299238D01*
X106779047Y-125451619D01*
X106855238Y-125527809D01*
X106931428Y-125565904D01*
X107083809Y-125565904D01*
X107160000Y-125527809D01*
X107236190Y-125451619D01*
X107274285Y-125299238D01*
X107274285Y-125032571D01*
X107236190Y-124880190D01*
X107160000Y-124804000D01*
X107083809Y-124765904D01*
X106398095Y-125565904D02*
X106398095Y-124765904D01*
X105940952Y-125565904D01*
X105940952Y-124765904D01*
X105179047Y-125565904D02*
X105560000Y-125565904D01*
X105560000Y-124765904D01*
X104760000Y-125184952D02*
X104760000Y-125565904D01*
X105026666Y-124765904D02*
X104760000Y-125184952D01*
X104493333Y-124765904D01*
X103617142Y-125565904D02*
X103617142Y-124765904D01*
X103236190Y-125565904D02*
X103236190Y-124765904D01*
X102779047Y-125565904D01*
X102779047Y-124765904D01*
X102398095Y-125565904D02*
X102398095Y-124765904D01*
X102093333Y-124765904D01*
X102017142Y-124804000D01*
X101979047Y-124842095D01*
X101940952Y-124918285D01*
X101940952Y-125032571D01*
X101979047Y-125108761D01*
X102017142Y-125146857D01*
X102093333Y-125184952D01*
X102398095Y-125184952D01*
X101598095Y-124765904D02*
X101598095Y-125413523D01*
X101560000Y-125489714D01*
X101521904Y-125527809D01*
X101445714Y-125565904D01*
X101293333Y-125565904D01*
X101217142Y-125527809D01*
X101179047Y-125489714D01*
X101140952Y-125413523D01*
X101140952Y-124765904D01*
X100874285Y-124765904D02*
X100417142Y-124765904D01*
X100645714Y-125565904D02*
X100645714Y-124765904D01*
X109712380Y-126853904D02*
X109979047Y-126472952D01*
X110169523Y-126853904D02*
X110169523Y-126053904D01*
X109864761Y-126053904D01*
X109788571Y-126092000D01*
X109750476Y-126130095D01*
X109712380Y-126206285D01*
X109712380Y-126320571D01*
X109750476Y-126396761D01*
X109788571Y-126434857D01*
X109864761Y-126472952D01*
X110169523Y-126472952D01*
X109331428Y-126853904D02*
X109179047Y-126853904D01*
X109102857Y-126815809D01*
X109064761Y-126777714D01*
X108988571Y-126663428D01*
X108950476Y-126511047D01*
X108950476Y-126206285D01*
X108988571Y-126130095D01*
X109026666Y-126092000D01*
X109102857Y-126053904D01*
X109255238Y-126053904D01*
X109331428Y-126092000D01*
X109369523Y-126130095D01*
X109407619Y-126206285D01*
X109407619Y-126396761D01*
X109369523Y-126472952D01*
X109331428Y-126511047D01*
X109255238Y-126549142D01*
X109102857Y-126549142D01*
X109026666Y-126511047D01*
X108988571Y-126472952D01*
X108950476Y-126396761D01*
X107998095Y-126434857D02*
X107388571Y-126434857D01*
X107388571Y-126663428D02*
X107998095Y-126663428D01*
X105940952Y-126777714D02*
X105979047Y-126815809D01*
X106093333Y-126853904D01*
X106169523Y-126853904D01*
X106283809Y-126815809D01*
X106360000Y-126739619D01*
X106398095Y-126663428D01*
X106436190Y-126511047D01*
X106436190Y-126396761D01*
X106398095Y-126244380D01*
X106360000Y-126168190D01*
X106283809Y-126092000D01*
X106169523Y-126053904D01*
X106093333Y-126053904D01*
X105979047Y-126092000D01*
X105940952Y-126130095D01*
X105217142Y-126853904D02*
X105598095Y-126853904D01*
X105598095Y-126053904D01*
X104798095Y-126053904D02*
X104645714Y-126053904D01*
X104569523Y-126092000D01*
X104493333Y-126168190D01*
X104455238Y-126320571D01*
X104455238Y-126587238D01*
X104493333Y-126739619D01*
X104569523Y-126815809D01*
X104645714Y-126853904D01*
X104798095Y-126853904D01*
X104874285Y-126815809D01*
X104950476Y-126739619D01*
X104988571Y-126587238D01*
X104988571Y-126320571D01*
X104950476Y-126168190D01*
X104874285Y-126092000D01*
X104798095Y-126053904D01*
X104150476Y-126815809D02*
X104036190Y-126853904D01*
X103845714Y-126853904D01*
X103769523Y-126815809D01*
X103731428Y-126777714D01*
X103693333Y-126701523D01*
X103693333Y-126625333D01*
X103731428Y-126549142D01*
X103769523Y-126511047D01*
X103845714Y-126472952D01*
X103998095Y-126434857D01*
X104074285Y-126396761D01*
X104112380Y-126358666D01*
X104150476Y-126282476D01*
X104150476Y-126206285D01*
X104112380Y-126130095D01*
X104074285Y-126092000D01*
X103998095Y-126053904D01*
X103807619Y-126053904D01*
X103693333Y-126092000D01*
X103350476Y-126434857D02*
X103083809Y-126434857D01*
X102969523Y-126853904D02*
X103350476Y-126853904D01*
X103350476Y-126053904D01*
X102969523Y-126053904D01*
X109712380Y-128141904D02*
X109979047Y-127760952D01*
X110169523Y-128141904D02*
X110169523Y-127341904D01*
X109864761Y-127341904D01*
X109788571Y-127380000D01*
X109750476Y-127418095D01*
X109712380Y-127494285D01*
X109712380Y-127608571D01*
X109750476Y-127684761D01*
X109788571Y-127722857D01*
X109864761Y-127760952D01*
X110169523Y-127760952D01*
X108950476Y-128141904D02*
X109407619Y-128141904D01*
X109179047Y-128141904D02*
X109179047Y-127341904D01*
X109255238Y-127456190D01*
X109331428Y-127532380D01*
X109407619Y-127570476D01*
X108455238Y-127341904D02*
X108379047Y-127341904D01*
X108302857Y-127380000D01*
X108264761Y-127418095D01*
X108226666Y-127494285D01*
X108188571Y-127646666D01*
X108188571Y-127837142D01*
X108226666Y-127989523D01*
X108264761Y-128065714D01*
X108302857Y-128103809D01*
X108379047Y-128141904D01*
X108455238Y-128141904D01*
X108531428Y-128103809D01*
X108569523Y-128065714D01*
X108607619Y-127989523D01*
X108645714Y-127837142D01*
X108645714Y-127646666D01*
X108607619Y-127494285D01*
X108569523Y-127418095D01*
X108531428Y-127380000D01*
X108455238Y-127341904D01*
X107236190Y-127722857D02*
X106626666Y-127722857D01*
X106626666Y-127951428D02*
X107236190Y-127951428D01*
X105483809Y-127341904D02*
X105331428Y-127341904D01*
X105255238Y-127380000D01*
X105179047Y-127456190D01*
X105140952Y-127608571D01*
X105140952Y-127875238D01*
X105179047Y-128027619D01*
X105255238Y-128103809D01*
X105331428Y-128141904D01*
X105483809Y-128141904D01*
X105560000Y-128103809D01*
X105636190Y-128027619D01*
X105674285Y-127875238D01*
X105674285Y-127608571D01*
X105636190Y-127456190D01*
X105560000Y-127380000D01*
X105483809Y-127341904D01*
X104798095Y-128141904D02*
X104798095Y-127341904D01*
X104493333Y-127341904D01*
X104417142Y-127380000D01*
X104379047Y-127418095D01*
X104340952Y-127494285D01*
X104340952Y-127608571D01*
X104379047Y-127684761D01*
X104417142Y-127722857D01*
X104493333Y-127760952D01*
X104798095Y-127760952D01*
X103998095Y-127722857D02*
X103731428Y-127722857D01*
X103617142Y-128141904D02*
X103998095Y-128141904D01*
X103998095Y-127341904D01*
X103617142Y-127341904D01*
X103274285Y-128141904D02*
X103274285Y-127341904D01*
X102817142Y-128141904D01*
X102817142Y-127341904D01*
D11*
X104259000Y-117433285D02*
X104509000Y-117076142D01*
X104687571Y-117433285D02*
X104687571Y-116683285D01*
X104401857Y-116683285D01*
X104330428Y-116719000D01*
X104294714Y-116754714D01*
X104259000Y-116826142D01*
X104259000Y-116933285D01*
X104294714Y-117004714D01*
X104330428Y-117040428D01*
X104401857Y-117076142D01*
X104687571Y-117076142D01*
X104009000Y-116683285D02*
X103509000Y-117433285D01*
X103509000Y-116683285D02*
X104009000Y-117433285D01*
X103223285Y-117433285D02*
X103223285Y-116683285D01*
X103044714Y-116683285D01*
X102937571Y-116719000D01*
X102866142Y-116790428D01*
X102830428Y-116861857D01*
X102794714Y-117004714D01*
X102794714Y-117111857D01*
X102830428Y-117254714D01*
X102866142Y-117326142D01*
X102937571Y-117397571D01*
X103044714Y-117433285D01*
X103223285Y-117433285D01*
D10*
X111680809Y-130988904D02*
X111223666Y-130988904D01*
X111452238Y-131788904D02*
X111452238Y-130988904D01*
X111033190Y-130988904D02*
X110499857Y-131788904D01*
X110499857Y-130988904D02*
X111033190Y-131788904D01*
X109776047Y-131788904D02*
X110233190Y-131788904D01*
X110004619Y-131788904D02*
X110004619Y-130988904D01*
X110080809Y-131103190D01*
X110157000Y-131179380D01*
X110233190Y-131217476D01*
X108861761Y-130950809D02*
X109547476Y-131979380D01*
X108137952Y-131788904D02*
X108404619Y-131407952D01*
X108595095Y-131788904D02*
X108595095Y-130988904D01*
X108290333Y-130988904D01*
X108214142Y-131027000D01*
X108176047Y-131065095D01*
X108137952Y-131141285D01*
X108137952Y-131255571D01*
X108176047Y-131331761D01*
X108214142Y-131369857D01*
X108290333Y-131407952D01*
X108595095Y-131407952D01*
X107871285Y-130988904D02*
X107337952Y-131788904D01*
X107337952Y-130988904D02*
X107871285Y-131788904D01*
X106614142Y-131788904D02*
X107071285Y-131788904D01*
X106842714Y-131788904D02*
X106842714Y-130988904D01*
X106918904Y-131103190D01*
X106995095Y-131179380D01*
X107071285Y-131217476D01*
X105661761Y-131788904D02*
X105661761Y-130988904D01*
X105661761Y-131369857D02*
X105204619Y-131369857D01*
X105204619Y-131788904D02*
X105204619Y-130988904D01*
X104861761Y-131560333D02*
X104480809Y-131560333D01*
X104937952Y-131788904D02*
X104671285Y-130988904D01*
X104404619Y-131788904D01*
X103757000Y-131788904D02*
X104137952Y-131788904D01*
X104137952Y-130988904D01*
X103223666Y-131369857D02*
X103490333Y-131369857D01*
X103490333Y-131788904D02*
X103490333Y-130988904D01*
X103109380Y-130988904D01*
X102195095Y-131788904D02*
X102195095Y-130988904D01*
X102004619Y-130988904D01*
X101890333Y-131027000D01*
X101814142Y-131103190D01*
X101776047Y-131179380D01*
X101737952Y-131331761D01*
X101737952Y-131446047D01*
X101776047Y-131598428D01*
X101814142Y-131674619D01*
X101890333Y-131750809D01*
X102004619Y-131788904D01*
X102195095Y-131788904D01*
X101395095Y-130988904D02*
X101395095Y-131636523D01*
X101357000Y-131712714D01*
X101318904Y-131750809D01*
X101242714Y-131788904D01*
X101090333Y-131788904D01*
X101014142Y-131750809D01*
X100976047Y-131712714D01*
X100937952Y-131636523D01*
X100937952Y-130988904D01*
X100557000Y-131788904D02*
X100557000Y-130988904D01*
X100252238Y-130988904D01*
X100176047Y-131027000D01*
X100137952Y-131065095D01*
X100099857Y-131141285D01*
X100099857Y-131255571D01*
X100137952Y-131331761D01*
X100176047Y-131369857D01*
X100252238Y-131407952D01*
X100557000Y-131407952D01*
X111109380Y-133076904D02*
X111376047Y-132695952D01*
X111566523Y-133076904D02*
X111566523Y-132276904D01*
X111261761Y-132276904D01*
X111185571Y-132315000D01*
X111147476Y-132353095D01*
X111109380Y-132429285D01*
X111109380Y-132543571D01*
X111147476Y-132619761D01*
X111185571Y-132657857D01*
X111261761Y-132695952D01*
X111566523Y-132695952D01*
X110728428Y-133076904D02*
X110576047Y-133076904D01*
X110499857Y-133038809D01*
X110461761Y-133000714D01*
X110385571Y-132886428D01*
X110347476Y-132734047D01*
X110347476Y-132429285D01*
X110385571Y-132353095D01*
X110423666Y-132315000D01*
X110499857Y-132276904D01*
X110652238Y-132276904D01*
X110728428Y-132315000D01*
X110766523Y-132353095D01*
X110804619Y-132429285D01*
X110804619Y-132619761D01*
X110766523Y-132695952D01*
X110728428Y-132734047D01*
X110652238Y-132772142D01*
X110499857Y-132772142D01*
X110423666Y-132734047D01*
X110385571Y-132695952D01*
X110347476Y-132619761D01*
X109395095Y-132657857D02*
X108785571Y-132657857D01*
X108785571Y-132886428D02*
X109395095Y-132886428D01*
X107642714Y-132276904D02*
X107490333Y-132276904D01*
X107414142Y-132315000D01*
X107337952Y-132391190D01*
X107299857Y-132543571D01*
X107299857Y-132810238D01*
X107337952Y-132962619D01*
X107414142Y-133038809D01*
X107490333Y-133076904D01*
X107642714Y-133076904D01*
X107718904Y-133038809D01*
X107795095Y-132962619D01*
X107833190Y-132810238D01*
X107833190Y-132543571D01*
X107795095Y-132391190D01*
X107718904Y-132315000D01*
X107642714Y-132276904D01*
X106957000Y-133076904D02*
X106957000Y-132276904D01*
X106652238Y-132276904D01*
X106576047Y-132315000D01*
X106537952Y-132353095D01*
X106499857Y-132429285D01*
X106499857Y-132543571D01*
X106537952Y-132619761D01*
X106576047Y-132657857D01*
X106652238Y-132695952D01*
X106957000Y-132695952D01*
X106157000Y-132657857D02*
X105890333Y-132657857D01*
X105776047Y-133076904D02*
X106157000Y-133076904D01*
X106157000Y-132276904D01*
X105776047Y-132276904D01*
X105433190Y-133076904D02*
X105433190Y-132276904D01*
X104976047Y-133076904D01*
X104976047Y-132276904D01*
X111109380Y-134364904D02*
X111376047Y-133983952D01*
X111566523Y-134364904D02*
X111566523Y-133564904D01*
X111261761Y-133564904D01*
X111185571Y-133603000D01*
X111147476Y-133641095D01*
X111109380Y-133717285D01*
X111109380Y-133831571D01*
X111147476Y-133907761D01*
X111185571Y-133945857D01*
X111261761Y-133983952D01*
X111566523Y-133983952D01*
X110347476Y-134364904D02*
X110804619Y-134364904D01*
X110576047Y-134364904D02*
X110576047Y-133564904D01*
X110652238Y-133679190D01*
X110728428Y-133755380D01*
X110804619Y-133793476D01*
X109852238Y-133564904D02*
X109776047Y-133564904D01*
X109699857Y-133603000D01*
X109661761Y-133641095D01*
X109623666Y-133717285D01*
X109585571Y-133869666D01*
X109585571Y-134060142D01*
X109623666Y-134212523D01*
X109661761Y-134288714D01*
X109699857Y-134326809D01*
X109776047Y-134364904D01*
X109852238Y-134364904D01*
X109928428Y-134326809D01*
X109966523Y-134288714D01*
X110004619Y-134212523D01*
X110042714Y-134060142D01*
X110042714Y-133869666D01*
X110004619Y-133717285D01*
X109966523Y-133641095D01*
X109928428Y-133603000D01*
X109852238Y-133564904D01*
X108633190Y-133945857D02*
X108023666Y-133945857D01*
X108023666Y-134174428D02*
X108633190Y-134174428D01*
X106576047Y-134288714D02*
X106614142Y-134326809D01*
X106728428Y-134364904D01*
X106804619Y-134364904D01*
X106918904Y-134326809D01*
X106995095Y-134250619D01*
X107033190Y-134174428D01*
X107071285Y-134022047D01*
X107071285Y-133907761D01*
X107033190Y-133755380D01*
X106995095Y-133679190D01*
X106918904Y-133603000D01*
X106804619Y-133564904D01*
X106728428Y-133564904D01*
X106614142Y-133603000D01*
X106576047Y-133641095D01*
X105852238Y-134364904D02*
X106233190Y-134364904D01*
X106233190Y-133564904D01*
X105433190Y-133564904D02*
X105280809Y-133564904D01*
X105204619Y-133603000D01*
X105128428Y-133679190D01*
X105090333Y-133831571D01*
X105090333Y-134098238D01*
X105128428Y-134250619D01*
X105204619Y-134326809D01*
X105280809Y-134364904D01*
X105433190Y-134364904D01*
X105509380Y-134326809D01*
X105585571Y-134250619D01*
X105623666Y-134098238D01*
X105623666Y-133831571D01*
X105585571Y-133679190D01*
X105509380Y-133603000D01*
X105433190Y-133564904D01*
X104785571Y-134326809D02*
X104671285Y-134364904D01*
X104480809Y-134364904D01*
X104404619Y-134326809D01*
X104366523Y-134288714D01*
X104328428Y-134212523D01*
X104328428Y-134136333D01*
X104366523Y-134060142D01*
X104404619Y-134022047D01*
X104480809Y-133983952D01*
X104633190Y-133945857D01*
X104709380Y-133907761D01*
X104747476Y-133869666D01*
X104785571Y-133793476D01*
X104785571Y-133717285D01*
X104747476Y-133641095D01*
X104709380Y-133603000D01*
X104633190Y-133564904D01*
X104442714Y-133564904D01*
X104328428Y-133603000D01*
X103985571Y-133945857D02*
X103718904Y-133945857D01*
X103604619Y-134364904D02*
X103985571Y-134364904D01*
X103985571Y-133564904D01*
X103604619Y-133564904D01*
D11*
X105767000Y-114734571D02*
X105195571Y-114734571D01*
X105481285Y-115020285D02*
X105481285Y-114448857D01*
X104909857Y-114270285D02*
X104445571Y-114270285D01*
X104695571Y-114556000D01*
X104588428Y-114556000D01*
X104517000Y-114591714D01*
X104481285Y-114627428D01*
X104445571Y-114698857D01*
X104445571Y-114877428D01*
X104481285Y-114948857D01*
X104517000Y-114984571D01*
X104588428Y-115020285D01*
X104802714Y-115020285D01*
X104874142Y-114984571D01*
X104909857Y-114948857D01*
X104124142Y-114948857D02*
X104088428Y-114984571D01*
X104124142Y-115020285D01*
X104159857Y-114984571D01*
X104124142Y-114948857D01*
X104124142Y-115020285D01*
X103838428Y-114270285D02*
X103374142Y-114270285D01*
X103624142Y-114556000D01*
X103517000Y-114556000D01*
X103445571Y-114591714D01*
X103409857Y-114627428D01*
X103374142Y-114698857D01*
X103374142Y-114877428D01*
X103409857Y-114948857D01*
X103445571Y-114984571D01*
X103517000Y-115020285D01*
X103731285Y-115020285D01*
X103802714Y-114984571D01*
X103838428Y-114948857D01*
X103159857Y-114270285D02*
X102909857Y-115020285D01*
X102659857Y-114270285D01*
X104509000Y-109813285D02*
X104509000Y-109063285D01*
X104009000Y-109063285D02*
X103866142Y-109063285D01*
X103794714Y-109099000D01*
X103723285Y-109170428D01*
X103687571Y-109313285D01*
X103687571Y-109563285D01*
X103723285Y-109706142D01*
X103794714Y-109777571D01*
X103866142Y-109813285D01*
X104009000Y-109813285D01*
X104080428Y-109777571D01*
X104151857Y-109706142D01*
X104187571Y-109563285D01*
X104187571Y-109313285D01*
X104151857Y-109170428D01*
X104080428Y-109099000D01*
X104009000Y-109063285D01*
X103223285Y-109063285D02*
X103151857Y-109063285D01*
X103080428Y-109099000D01*
X103044714Y-109134714D01*
X103009000Y-109206142D01*
X102973285Y-109349000D01*
X102973285Y-109527571D01*
X103009000Y-109670428D01*
X103044714Y-109741857D01*
X103080428Y-109777571D01*
X103151857Y-109813285D01*
X103223285Y-109813285D01*
X103294714Y-109777571D01*
X103330428Y-109741857D01*
X103366142Y-109670428D01*
X103401857Y-109527571D01*
X103401857Y-109349000D01*
X103366142Y-109206142D01*
X103330428Y-109134714D01*
X103294714Y-109099000D01*
X103223285Y-109063285D01*
X104584428Y-121799000D02*
X104655857Y-121763285D01*
X104763000Y-121763285D01*
X104870142Y-121799000D01*
X104941571Y-121870428D01*
X104977285Y-121941857D01*
X105013000Y-122084714D01*
X105013000Y-122191857D01*
X104977285Y-122334714D01*
X104941571Y-122406142D01*
X104870142Y-122477571D01*
X104763000Y-122513285D01*
X104691571Y-122513285D01*
X104584428Y-122477571D01*
X104548714Y-122441857D01*
X104548714Y-122191857D01*
X104691571Y-122191857D01*
X104227285Y-122513285D02*
X104227285Y-121763285D01*
X103798714Y-122513285D01*
X103798714Y-121763285D01*
X103441571Y-122513285D02*
X103441571Y-121763285D01*
X103263000Y-121763285D01*
X103155857Y-121799000D01*
X103084428Y-121870428D01*
X103048714Y-121941857D01*
X103013000Y-122084714D01*
X103013000Y-122191857D01*
X103048714Y-122334714D01*
X103084428Y-122406142D01*
X103155857Y-122477571D01*
X103263000Y-122513285D01*
X103441571Y-122513285D01*
X104185571Y-111960428D02*
X103935571Y-111960428D01*
X103828428Y-112353285D02*
X104185571Y-112353285D01*
X104185571Y-111603285D01*
X103828428Y-111603285D01*
X103507000Y-112353285D02*
X103507000Y-111603285D01*
X103078428Y-112353285D01*
X103078428Y-111603285D01*
X104705428Y-119223285D02*
X104276857Y-119223285D01*
X104491142Y-119973285D02*
X104491142Y-119223285D01*
X104098285Y-119223285D02*
X103598285Y-119973285D01*
X103598285Y-119223285D02*
X104098285Y-119973285D01*
X103312571Y-119973285D02*
X103312571Y-119223285D01*
X103134000Y-119223285D01*
X103026857Y-119259000D01*
X102955428Y-119330428D01*
X102919714Y-119401857D01*
X102884000Y-119544714D01*
X102884000Y-119651857D01*
X102919714Y-119794714D01*
X102955428Y-119866142D01*
X103026857Y-119937571D01*
X103134000Y-119973285D01*
X103312571Y-119973285D01*
D10*
X145729523Y-101435904D02*
X145729523Y-100635904D01*
X145462857Y-101207333D01*
X145196190Y-100635904D01*
X145196190Y-101435904D01*
X144662857Y-100635904D02*
X144510476Y-100635904D01*
X144434285Y-100674000D01*
X144358095Y-100750190D01*
X144320000Y-100902571D01*
X144320000Y-101169238D01*
X144358095Y-101321619D01*
X144434285Y-101397809D01*
X144510476Y-101435904D01*
X144662857Y-101435904D01*
X144739047Y-101397809D01*
X144815238Y-101321619D01*
X144853333Y-101169238D01*
X144853333Y-100902571D01*
X144815238Y-100750190D01*
X144739047Y-100674000D01*
X144662857Y-100635904D01*
X143977142Y-101435904D02*
X143977142Y-100635904D01*
X143786666Y-100635904D01*
X143672380Y-100674000D01*
X143596190Y-100750190D01*
X143558095Y-100826380D01*
X143520000Y-100978761D01*
X143520000Y-101093047D01*
X143558095Y-101245428D01*
X143596190Y-101321619D01*
X143672380Y-101397809D01*
X143786666Y-101435904D01*
X143977142Y-101435904D01*
X142910476Y-101016857D02*
X142796190Y-101054952D01*
X142758095Y-101093047D01*
X142720000Y-101169238D01*
X142720000Y-101283523D01*
X142758095Y-101359714D01*
X142796190Y-101397809D01*
X142872380Y-101435904D01*
X143177142Y-101435904D01*
X143177142Y-100635904D01*
X142910476Y-100635904D01*
X142834285Y-100674000D01*
X142796190Y-100712095D01*
X142758095Y-100788285D01*
X142758095Y-100864476D01*
X142796190Y-100940666D01*
X142834285Y-100978761D01*
X142910476Y-101016857D01*
X143177142Y-101016857D01*
X142377142Y-100635904D02*
X142377142Y-101283523D01*
X142339047Y-101359714D01*
X142300952Y-101397809D01*
X142224761Y-101435904D01*
X142072380Y-101435904D01*
X141996190Y-101397809D01*
X141958095Y-101359714D01*
X141920000Y-101283523D01*
X141920000Y-100635904D01*
X141577142Y-101397809D02*
X141462857Y-101435904D01*
X141272380Y-101435904D01*
X141196190Y-101397809D01*
X141158095Y-101359714D01*
X141120000Y-101283523D01*
X141120000Y-101207333D01*
X141158095Y-101131142D01*
X141196190Y-101093047D01*
X141272380Y-101054952D01*
X141424761Y-101016857D01*
X141500952Y-100978761D01*
X141539047Y-100940666D01*
X141577142Y-100864476D01*
X141577142Y-100788285D01*
X141539047Y-100712095D01*
X141500952Y-100674000D01*
X141424761Y-100635904D01*
X141234285Y-100635904D01*
X141120000Y-100674000D01*
X139710476Y-101435904D02*
X139977142Y-101054952D01*
X140167619Y-101435904D02*
X140167619Y-100635904D01*
X139862857Y-100635904D01*
X139786666Y-100674000D01*
X139748571Y-100712095D01*
X139710476Y-100788285D01*
X139710476Y-100902571D01*
X139748571Y-100978761D01*
X139786666Y-101016857D01*
X139862857Y-101054952D01*
X140167619Y-101054952D01*
X139481904Y-100635904D02*
X139024761Y-100635904D01*
X139253333Y-101435904D02*
X139253333Y-100635904D01*
X138758095Y-100635904D02*
X138758095Y-101283523D01*
X138720000Y-101359714D01*
X138681904Y-101397809D01*
X138605714Y-101435904D01*
X138453333Y-101435904D01*
X138377142Y-101397809D01*
X138339047Y-101359714D01*
X138300952Y-101283523D01*
X138300952Y-100635904D01*
X137310476Y-101435904D02*
X137310476Y-100635904D01*
X137043809Y-101207333D01*
X136777142Y-100635904D01*
X136777142Y-101435904D01*
X136396190Y-101435904D02*
X136396190Y-100635904D01*
X135558095Y-101435904D02*
X135824761Y-101054952D01*
X136015238Y-101435904D02*
X136015238Y-100635904D01*
X135710476Y-100635904D01*
X135634285Y-100674000D01*
X135596190Y-100712095D01*
X135558095Y-100788285D01*
X135558095Y-100902571D01*
X135596190Y-100978761D01*
X135634285Y-101016857D01*
X135710476Y-101054952D01*
X136015238Y-101054952D01*
X134758095Y-101435904D02*
X135024761Y-101054952D01*
X135215238Y-101435904D02*
X135215238Y-100635904D01*
X134910476Y-100635904D01*
X134834285Y-100674000D01*
X134796190Y-100712095D01*
X134758095Y-100788285D01*
X134758095Y-100902571D01*
X134796190Y-100978761D01*
X134834285Y-101016857D01*
X134910476Y-101054952D01*
X135215238Y-101054952D01*
X134262857Y-100635904D02*
X134110476Y-100635904D01*
X134034285Y-100674000D01*
X133958095Y-100750190D01*
X133919999Y-100902571D01*
X133919999Y-101169238D01*
X133958095Y-101321619D01*
X134034285Y-101397809D01*
X134110476Y-101435904D01*
X134262857Y-101435904D01*
X134339047Y-101397809D01*
X134415238Y-101321619D01*
X134453333Y-101169238D01*
X134453333Y-100902571D01*
X134415238Y-100750190D01*
X134339047Y-100674000D01*
X134262857Y-100635904D01*
X133119999Y-101435904D02*
X133386666Y-101054952D01*
X133577142Y-101435904D02*
X133577142Y-100635904D01*
X133272380Y-100635904D01*
X133196190Y-100674000D01*
X133158095Y-100712095D01*
X133119999Y-100788285D01*
X133119999Y-100902571D01*
X133158095Y-100978761D01*
X133196190Y-101016857D01*
X133272380Y-101054952D01*
X133577142Y-101054952D01*
X145729523Y-102304857D02*
X145462857Y-102304857D01*
X145348571Y-102723904D02*
X145729523Y-102723904D01*
X145729523Y-101923904D01*
X145348571Y-101923904D01*
X145043809Y-102685809D02*
X144929523Y-102723904D01*
X144739047Y-102723904D01*
X144662857Y-102685809D01*
X144624761Y-102647714D01*
X144586666Y-102571523D01*
X144586666Y-102495333D01*
X144624761Y-102419142D01*
X144662857Y-102381047D01*
X144739047Y-102342952D01*
X144891428Y-102304857D01*
X144967619Y-102266761D01*
X145005714Y-102228666D01*
X145043809Y-102152476D01*
X145043809Y-102076285D01*
X145005714Y-102000095D01*
X144967619Y-101962000D01*
X144891428Y-101923904D01*
X144700952Y-101923904D01*
X144586666Y-101962000D01*
X144243809Y-102723904D02*
X144243809Y-101923904D01*
X143939047Y-101923904D01*
X143862857Y-101962000D01*
X143824761Y-102000095D01*
X143786666Y-102076285D01*
X143786666Y-102190571D01*
X143824761Y-102266761D01*
X143862857Y-102304857D01*
X143939047Y-102342952D01*
X144243809Y-102342952D01*
X143520000Y-101923904D02*
X143024761Y-101923904D01*
X143291428Y-102228666D01*
X143177142Y-102228666D01*
X143100952Y-102266761D01*
X143062857Y-102304857D01*
X143024761Y-102381047D01*
X143024761Y-102571523D01*
X143062857Y-102647714D01*
X143100952Y-102685809D01*
X143177142Y-102723904D01*
X143405714Y-102723904D01*
X143481904Y-102685809D01*
X143520000Y-102647714D01*
X142720000Y-102000095D02*
X142681904Y-101962000D01*
X142605714Y-101923904D01*
X142415238Y-101923904D01*
X142339047Y-101962000D01*
X142300952Y-102000095D01*
X142262857Y-102076285D01*
X142262857Y-102152476D01*
X142300952Y-102266761D01*
X142758095Y-102723904D01*
X142262857Y-102723904D01*
X141348571Y-102685809D02*
X141234285Y-102723904D01*
X141043809Y-102723904D01*
X140967619Y-102685809D01*
X140929523Y-102647714D01*
X140891428Y-102571523D01*
X140891428Y-102495333D01*
X140929523Y-102419142D01*
X140967619Y-102381047D01*
X141043809Y-102342952D01*
X141196190Y-102304857D01*
X141272380Y-102266761D01*
X141310476Y-102228666D01*
X141348571Y-102152476D01*
X141348571Y-102076285D01*
X141310476Y-102000095D01*
X141272380Y-101962000D01*
X141196190Y-101923904D01*
X141005714Y-101923904D01*
X140891428Y-101962000D01*
X140548571Y-102723904D02*
X140548571Y-101923904D01*
X140167619Y-102723904D02*
X140167619Y-101923904D01*
X139977142Y-101923904D01*
X139862857Y-101962000D01*
X139786666Y-102038190D01*
X139748571Y-102114380D01*
X139710476Y-102266761D01*
X139710476Y-102381047D01*
X139748571Y-102533428D01*
X139786666Y-102609619D01*
X139862857Y-102685809D01*
X139977142Y-102723904D01*
X140167619Y-102723904D01*
X139367619Y-102304857D02*
X139100952Y-102304857D01*
X138986666Y-102723904D02*
X139367619Y-102723904D01*
X139367619Y-101923904D01*
X138986666Y-101923904D01*
X137767619Y-102304857D02*
X137653333Y-102342952D01*
X137615238Y-102381047D01*
X137577142Y-102457238D01*
X137577142Y-102571523D01*
X137615238Y-102647714D01*
X137653333Y-102685809D01*
X137729523Y-102723904D01*
X138034285Y-102723904D01*
X138034285Y-101923904D01*
X137767619Y-101923904D01*
X137691428Y-101962000D01*
X137653333Y-102000095D01*
X137615238Y-102076285D01*
X137615238Y-102152476D01*
X137653333Y-102228666D01*
X137691428Y-102266761D01*
X137767619Y-102304857D01*
X138034285Y-102304857D01*
X137081904Y-101923904D02*
X136929523Y-101923904D01*
X136853333Y-101962000D01*
X136777142Y-102038190D01*
X136739047Y-102190571D01*
X136739047Y-102457238D01*
X136777142Y-102609619D01*
X136853333Y-102685809D01*
X136929523Y-102723904D01*
X137081904Y-102723904D01*
X137158095Y-102685809D01*
X137234285Y-102609619D01*
X137272380Y-102457238D01*
X137272380Y-102190571D01*
X137234285Y-102038190D01*
X137158095Y-101962000D01*
X137081904Y-101923904D01*
X136434285Y-102495333D02*
X136053333Y-102495333D01*
X136510476Y-102723904D02*
X136243809Y-101923904D01*
X135977142Y-102723904D01*
X135253333Y-102723904D02*
X135520000Y-102342952D01*
X135710476Y-102723904D02*
X135710476Y-101923904D01*
X135405714Y-101923904D01*
X135329523Y-101962000D01*
X135291428Y-102000095D01*
X135253333Y-102076285D01*
X135253333Y-102190571D01*
X135291428Y-102266761D01*
X135329523Y-102304857D01*
X135405714Y-102342952D01*
X135710476Y-102342952D01*
X134910476Y-102723904D02*
X134910476Y-101923904D01*
X134720000Y-101923904D01*
X134605714Y-101962000D01*
X134529523Y-102038190D01*
X134491428Y-102114380D01*
X134453333Y-102266761D01*
X134453333Y-102381047D01*
X134491428Y-102533428D01*
X134529523Y-102609619D01*
X134605714Y-102685809D01*
X134720000Y-102723904D01*
X134910476Y-102723904D01*
X145843809Y-103211904D02*
X145577142Y-104011904D01*
X145310476Y-103211904D01*
X145081904Y-103288095D02*
X145043809Y-103250000D01*
X144967619Y-103211904D01*
X144777142Y-103211904D01*
X144700952Y-103250000D01*
X144662857Y-103288095D01*
X144624761Y-103364285D01*
X144624761Y-103440476D01*
X144662857Y-103554761D01*
X145120000Y-104011904D01*
X144624761Y-104011904D01*
%TO.C,REF\u002A\u002A*%
G36*
X149127275Y-133739931D02*
G01*
X149211095Y-134184555D01*
X149829667Y-134439551D01*
X150200707Y-134187246D01*
X150274144Y-134137506D01*
X150371499Y-134072218D01*
X150455787Y-134016454D01*
X150522631Y-133973078D01*
X150567654Y-133944953D01*
X150586478Y-133934942D01*
X150598039Y-133942061D01*
X150632596Y-133971894D01*
X150684894Y-134020852D01*
X150750500Y-134084440D01*
X150824983Y-134158163D01*
X150903913Y-134237525D01*
X150982856Y-134318031D01*
X151057384Y-134395185D01*
X151123063Y-134464493D01*
X151175463Y-134521457D01*
X151210153Y-134561584D01*
X151222701Y-134580377D01*
X151219782Y-134588451D01*
X151199571Y-134624469D01*
X151162663Y-134683744D01*
X151112050Y-134761630D01*
X151050725Y-134853481D01*
X150981679Y-134954650D01*
X150943787Y-135009826D01*
X150878606Y-135105884D01*
X150822723Y-135189717D01*
X150779117Y-135256777D01*
X150750769Y-135302519D01*
X150740657Y-135322396D01*
X150740823Y-135323497D01*
X150749743Y-135348694D01*
X150770206Y-135400147D01*
X150799360Y-135471135D01*
X150834353Y-135554935D01*
X150872332Y-135644828D01*
X150910445Y-135734091D01*
X150945839Y-135816003D01*
X150975662Y-135883843D01*
X150997061Y-135930890D01*
X151007184Y-135950422D01*
X151013174Y-135952155D01*
X151049566Y-135959969D01*
X151114427Y-135972915D01*
X151202565Y-135989979D01*
X151308787Y-136010151D01*
X151427902Y-136032418D01*
X151490683Y-136044223D01*
X151605912Y-136066748D01*
X151706662Y-136087550D01*
X151787426Y-136105435D01*
X151842698Y-136119208D01*
X151866971Y-136127674D01*
X151871331Y-136136066D01*
X151878563Y-136177072D01*
X151884246Y-136245368D01*
X151888382Y-136334529D01*
X151890977Y-136438128D01*
X151892036Y-136549740D01*
X151891561Y-136662938D01*
X151889559Y-136771296D01*
X151886033Y-136868389D01*
X151880987Y-136947790D01*
X151874427Y-137003072D01*
X151866356Y-137027810D01*
X151861458Y-137030600D01*
X151824930Y-137042569D01*
X151761565Y-137058405D01*
X151678686Y-137076374D01*
X151583618Y-137094741D01*
X151551542Y-137100591D01*
X151403393Y-137127798D01*
X151286961Y-137149663D01*
X151198209Y-137167093D01*
X151133103Y-137180996D01*
X151087606Y-137192277D01*
X151057682Y-137201843D01*
X151039294Y-137210601D01*
X151028407Y-137219457D01*
X151027142Y-137220943D01*
X151009338Y-137251931D01*
X150982994Y-137308634D01*
X150950661Y-137384399D01*
X150914893Y-137472574D01*
X150878244Y-137566507D01*
X150843266Y-137659547D01*
X150812513Y-137745041D01*
X150788538Y-137816336D01*
X150773895Y-137866782D01*
X150771136Y-137889726D01*
X150772981Y-137892703D01*
X150792075Y-137921493D01*
X150827984Y-137974595D01*
X150877378Y-138047117D01*
X150936927Y-138134167D01*
X151003303Y-138230854D01*
X151021520Y-138257456D01*
X151085577Y-138352875D01*
X151140937Y-138438212D01*
X151184439Y-138508405D01*
X151212924Y-138558394D01*
X151223232Y-138583116D01*
X151221011Y-138589616D01*
X151197858Y-138621644D01*
X151152177Y-138673945D01*
X151087241Y-138742999D01*
X151006319Y-138825286D01*
X150912685Y-138917286D01*
X150859165Y-138968781D01*
X150774542Y-139048983D01*
X150700475Y-139117678D01*
X150640941Y-139171252D01*
X150599917Y-139206085D01*
X150581381Y-139218563D01*
X150568646Y-139213938D01*
X150529436Y-139192057D01*
X150472495Y-139156273D01*
X150405250Y-139111117D01*
X150357438Y-139078165D01*
X150261985Y-139012727D01*
X150160125Y-138943228D01*
X150067088Y-138880075D01*
X149884832Y-138756800D01*
X149731841Y-138839520D01*
X149695817Y-138858613D01*
X149630303Y-138891272D01*
X149579640Y-138913819D01*
X149552564Y-138922226D01*
X149543703Y-138911430D01*
X149521699Y-138870323D01*
X149489199Y-138802549D01*
X149448010Y-138712409D01*
X149399942Y-138604205D01*
X149346802Y-138482237D01*
X149290399Y-138350808D01*
X149232542Y-138214218D01*
X149175038Y-138076767D01*
X149119697Y-137942758D01*
X149068326Y-137816491D01*
X149022735Y-137702268D01*
X148984732Y-137604390D01*
X148956124Y-137527157D01*
X148938721Y-137474871D01*
X148934331Y-137451833D01*
X148934628Y-137451160D01*
X148955077Y-137429863D01*
X148997850Y-137396508D01*
X149054117Y-137358011D01*
X149071877Y-137346256D01*
X149207014Y-137234735D01*
X149318856Y-137101906D01*
X149404755Y-136953298D01*
X149462062Y-136794440D01*
X149488131Y-136630860D01*
X149480313Y-136468088D01*
X149448644Y-136323315D01*
X149391782Y-136177124D01*
X149308888Y-136046703D01*
X149195131Y-135922813D01*
X149150433Y-135883235D01*
X149005935Y-135785723D01*
X148849838Y-135720050D01*
X148686667Y-135685630D01*
X148520943Y-135681874D01*
X148357192Y-135708194D01*
X148199936Y-135764003D01*
X148053698Y-135848714D01*
X147923004Y-135961737D01*
X147812374Y-136102487D01*
X147791105Y-136137342D01*
X147718810Y-136296655D01*
X147680415Y-136462552D01*
X147674914Y-136630737D01*
X147701301Y-136796913D01*
X147758570Y-136956784D01*
X147845717Y-137106053D01*
X147961736Y-137240423D01*
X148105622Y-137355599D01*
X148110294Y-137358702D01*
X148165964Y-137397933D01*
X148207689Y-137431286D01*
X148226746Y-137451833D01*
X148224342Y-137467941D01*
X148209391Y-137514844D01*
X148182881Y-137587539D01*
X148146620Y-137681725D01*
X148102416Y-137793098D01*
X148052076Y-137917358D01*
X147997407Y-138050202D01*
X147940218Y-138187327D01*
X147882316Y-138324432D01*
X147825510Y-138457215D01*
X147771606Y-138581374D01*
X147722412Y-138692606D01*
X147679737Y-138786609D01*
X147645387Y-138859082D01*
X147621171Y-138905722D01*
X147608897Y-138922226D01*
X147598689Y-138919991D01*
X147558586Y-138903926D01*
X147499318Y-138875759D01*
X147429619Y-138839520D01*
X147276629Y-138756800D01*
X147094373Y-138880075D01*
X147040527Y-138916579D01*
X146940374Y-138984784D01*
X146840525Y-139053098D01*
X146756211Y-139111117D01*
X146709679Y-139142736D01*
X146649200Y-139182020D01*
X146604357Y-139208912D01*
X146582455Y-139218883D01*
X146573045Y-139214650D01*
X146539031Y-139188721D01*
X146486595Y-139143070D01*
X146420301Y-139082186D01*
X146344713Y-139010561D01*
X146264396Y-138932683D01*
X146183913Y-138853045D01*
X146107829Y-138776135D01*
X146040707Y-138706445D01*
X145987112Y-138648464D01*
X145951608Y-138606684D01*
X145938759Y-138585593D01*
X145939500Y-138581581D01*
X145954793Y-138548920D01*
X145987462Y-138492412D01*
X146034350Y-138417163D01*
X146092301Y-138328275D01*
X146158157Y-138230854D01*
X146176627Y-138203982D01*
X146241482Y-138109423D01*
X146298609Y-138025827D01*
X146344678Y-137958084D01*
X146376359Y-137911086D01*
X146390324Y-137889726D01*
X146390668Y-137888811D01*
X146386546Y-137862678D01*
X146370807Y-137809740D01*
X146346004Y-137736647D01*
X146314689Y-137650052D01*
X146279417Y-137556608D01*
X146242740Y-137462965D01*
X146207212Y-137375777D01*
X146175386Y-137301695D01*
X146149816Y-137247371D01*
X146133053Y-137219457D01*
X146131374Y-137217724D01*
X146119372Y-137208956D01*
X146099103Y-137200115D01*
X146066529Y-137190292D01*
X146017616Y-137178583D01*
X145948327Y-137164080D01*
X145854625Y-137145876D01*
X145732476Y-137123066D01*
X145577842Y-137094741D01*
X145545770Y-137088780D01*
X145453893Y-137070352D01*
X145376607Y-137052892D01*
X145321236Y-137038133D01*
X145295105Y-137027810D01*
X145290733Y-137019197D01*
X145283445Y-136977826D01*
X145277669Y-136909241D01*
X145273410Y-136819868D01*
X145270673Y-136716135D01*
X145269462Y-136604465D01*
X145269782Y-136491287D01*
X145271636Y-136383026D01*
X145275030Y-136286108D01*
X145279967Y-136206959D01*
X145286452Y-136152006D01*
X145294489Y-136127674D01*
X145302696Y-136124079D01*
X145343519Y-136112748D01*
X145412524Y-136096722D01*
X145504203Y-136077195D01*
X145613050Y-136055362D01*
X145733558Y-136032418D01*
X145799357Y-136020159D01*
X145912135Y-135998901D01*
X146009207Y-135980287D01*
X146085382Y-135965328D01*
X146135469Y-135955036D01*
X146154276Y-135950422D01*
X146154983Y-135949471D01*
X146166961Y-135925310D01*
X146189794Y-135874694D01*
X146220630Y-135804338D01*
X146256613Y-135720958D01*
X146294891Y-135631270D01*
X146332609Y-135541989D01*
X146366913Y-135459832D01*
X146394949Y-135391513D01*
X146413864Y-135343748D01*
X146420803Y-135323254D01*
X146417742Y-135316043D01*
X146397372Y-135281728D01*
X146360422Y-135223970D01*
X146309860Y-135147299D01*
X146248657Y-135056248D01*
X146179781Y-134955350D01*
X146141994Y-134900093D01*
X146076782Y-134803215D01*
X146020871Y-134718193D01*
X145977241Y-134649662D01*
X145948877Y-134602260D01*
X145938759Y-134580623D01*
X145945790Y-134568887D01*
X145975197Y-134533818D01*
X146023441Y-134480745D01*
X146086093Y-134414164D01*
X146158725Y-134338574D01*
X146236908Y-134258472D01*
X146316214Y-134178354D01*
X146392213Y-134102718D01*
X146460478Y-134036062D01*
X146516580Y-133982882D01*
X146556090Y-133947676D01*
X146574579Y-133934942D01*
X146584843Y-133939893D01*
X146622530Y-133962857D01*
X146683348Y-134001938D01*
X146762913Y-134054272D01*
X146856843Y-134116996D01*
X146960754Y-134187246D01*
X147331794Y-134439551D01*
X147641080Y-134312053D01*
X147950365Y-134184555D01*
X148034186Y-133739931D01*
X148118006Y-133295307D01*
X149043454Y-133295307D01*
X149127275Y-133739931D01*
G37*
D12*
X149127275Y-133739931D02*
X149211095Y-134184555D01*
X149829667Y-134439551D01*
X150200707Y-134187246D01*
X150274144Y-134137506D01*
X150371499Y-134072218D01*
X150455787Y-134016454D01*
X150522631Y-133973078D01*
X150567654Y-133944953D01*
X150586478Y-133934942D01*
X150598039Y-133942061D01*
X150632596Y-133971894D01*
X150684894Y-134020852D01*
X150750500Y-134084440D01*
X150824983Y-134158163D01*
X150903913Y-134237525D01*
X150982856Y-134318031D01*
X151057384Y-134395185D01*
X151123063Y-134464493D01*
X151175463Y-134521457D01*
X151210153Y-134561584D01*
X151222701Y-134580377D01*
X151219782Y-134588451D01*
X151199571Y-134624469D01*
X151162663Y-134683744D01*
X151112050Y-134761630D01*
X151050725Y-134853481D01*
X150981679Y-134954650D01*
X150943787Y-135009826D01*
X150878606Y-135105884D01*
X150822723Y-135189717D01*
X150779117Y-135256777D01*
X150750769Y-135302519D01*
X150740657Y-135322396D01*
X150740823Y-135323497D01*
X150749743Y-135348694D01*
X150770206Y-135400147D01*
X150799360Y-135471135D01*
X150834353Y-135554935D01*
X150872332Y-135644828D01*
X150910445Y-135734091D01*
X150945839Y-135816003D01*
X150975662Y-135883843D01*
X150997061Y-135930890D01*
X151007184Y-135950422D01*
X151013174Y-135952155D01*
X151049566Y-135959969D01*
X151114427Y-135972915D01*
X151202565Y-135989979D01*
X151308787Y-136010151D01*
X151427902Y-136032418D01*
X151490683Y-136044223D01*
X151605912Y-136066748D01*
X151706662Y-136087550D01*
X151787426Y-136105435D01*
X151842698Y-136119208D01*
X151866971Y-136127674D01*
X151871331Y-136136066D01*
X151878563Y-136177072D01*
X151884246Y-136245368D01*
X151888382Y-136334529D01*
X151890977Y-136438128D01*
X151892036Y-136549740D01*
X151891561Y-136662938D01*
X151889559Y-136771296D01*
X151886033Y-136868389D01*
X151880987Y-136947790D01*
X151874427Y-137003072D01*
X151866356Y-137027810D01*
X151861458Y-137030600D01*
X151824930Y-137042569D01*
X151761565Y-137058405D01*
X151678686Y-137076374D01*
X151583618Y-137094741D01*
X151551542Y-137100591D01*
X151403393Y-137127798D01*
X151286961Y-137149663D01*
X151198209Y-137167093D01*
X151133103Y-137180996D01*
X151087606Y-137192277D01*
X151057682Y-137201843D01*
X151039294Y-137210601D01*
X151028407Y-137219457D01*
X151027142Y-137220943D01*
X151009338Y-137251931D01*
X150982994Y-137308634D01*
X150950661Y-137384399D01*
X150914893Y-137472574D01*
X150878244Y-137566507D01*
X150843266Y-137659547D01*
X150812513Y-137745041D01*
X150788538Y-137816336D01*
X150773895Y-137866782D01*
X150771136Y-137889726D01*
X150772981Y-137892703D01*
X150792075Y-137921493D01*
X150827984Y-137974595D01*
X150877378Y-138047117D01*
X150936927Y-138134167D01*
X151003303Y-138230854D01*
X151021520Y-138257456D01*
X151085577Y-138352875D01*
X151140937Y-138438212D01*
X151184439Y-138508405D01*
X151212924Y-138558394D01*
X151223232Y-138583116D01*
X151221011Y-138589616D01*
X151197858Y-138621644D01*
X151152177Y-138673945D01*
X151087241Y-138742999D01*
X151006319Y-138825286D01*
X150912685Y-138917286D01*
X150859165Y-138968781D01*
X150774542Y-139048983D01*
X150700475Y-139117678D01*
X150640941Y-139171252D01*
X150599917Y-139206085D01*
X150581381Y-139218563D01*
X150568646Y-139213938D01*
X150529436Y-139192057D01*
X150472495Y-139156273D01*
X150405250Y-139111117D01*
X150357438Y-139078165D01*
X150261985Y-139012727D01*
X150160125Y-138943228D01*
X150067088Y-138880075D01*
X149884832Y-138756800D01*
X149731841Y-138839520D01*
X149695817Y-138858613D01*
X149630303Y-138891272D01*
X149579640Y-138913819D01*
X149552564Y-138922226D01*
X149543703Y-138911430D01*
X149521699Y-138870323D01*
X149489199Y-138802549D01*
X149448010Y-138712409D01*
X149399942Y-138604205D01*
X149346802Y-138482237D01*
X149290399Y-138350808D01*
X149232542Y-138214218D01*
X149175038Y-138076767D01*
X149119697Y-137942758D01*
X149068326Y-137816491D01*
X149022735Y-137702268D01*
X148984732Y-137604390D01*
X148956124Y-137527157D01*
X148938721Y-137474871D01*
X148934331Y-137451833D01*
X148934628Y-137451160D01*
X148955077Y-137429863D01*
X148997850Y-137396508D01*
X149054117Y-137358011D01*
X149071877Y-137346256D01*
X149207014Y-137234735D01*
X149318856Y-137101906D01*
X149404755Y-136953298D01*
X149462062Y-136794440D01*
X149488131Y-136630860D01*
X149480313Y-136468088D01*
X149448644Y-136323315D01*
X149391782Y-136177124D01*
X149308888Y-136046703D01*
X149195131Y-135922813D01*
X149150433Y-135883235D01*
X149005935Y-135785723D01*
X148849838Y-135720050D01*
X148686667Y-135685630D01*
X148520943Y-135681874D01*
X148357192Y-135708194D01*
X148199936Y-135764003D01*
X148053698Y-135848714D01*
X147923004Y-135961737D01*
X147812374Y-136102487D01*
X147791105Y-136137342D01*
X147718810Y-136296655D01*
X147680415Y-136462552D01*
X147674914Y-136630737D01*
X147701301Y-136796913D01*
X147758570Y-136956784D01*
X147845717Y-137106053D01*
X147961736Y-137240423D01*
X148105622Y-137355599D01*
X148110294Y-137358702D01*
X148165964Y-137397933D01*
X148207689Y-137431286D01*
X148226746Y-137451833D01*
X148224342Y-137467941D01*
X148209391Y-137514844D01*
X148182881Y-137587539D01*
X148146620Y-137681725D01*
X148102416Y-137793098D01*
X148052076Y-137917358D01*
X147997407Y-138050202D01*
X147940218Y-138187327D01*
X147882316Y-138324432D01*
X147825510Y-138457215D01*
X147771606Y-138581374D01*
X147722412Y-138692606D01*
X147679737Y-138786609D01*
X147645387Y-138859082D01*
X147621171Y-138905722D01*
X147608897Y-138922226D01*
X147598689Y-138919991D01*
X147558586Y-138903926D01*
X147499318Y-138875759D01*
X147429619Y-138839520D01*
X147276629Y-138756800D01*
X147094373Y-138880075D01*
X147040527Y-138916579D01*
X146940374Y-138984784D01*
X146840525Y-139053098D01*
X146756211Y-139111117D01*
X146709679Y-139142736D01*
X146649200Y-139182020D01*
X146604357Y-139208912D01*
X146582455Y-139218883D01*
X146573045Y-139214650D01*
X146539031Y-139188721D01*
X146486595Y-139143070D01*
X146420301Y-139082186D01*
X146344713Y-139010561D01*
X146264396Y-138932683D01*
X146183913Y-138853045D01*
X146107829Y-138776135D01*
X146040707Y-138706445D01*
X145987112Y-138648464D01*
X145951608Y-138606684D01*
X145938759Y-138585593D01*
X145939500Y-138581581D01*
X145954793Y-138548920D01*
X145987462Y-138492412D01*
X146034350Y-138417163D01*
X146092301Y-138328275D01*
X146158157Y-138230854D01*
X146176627Y-138203982D01*
X146241482Y-138109423D01*
X146298609Y-138025827D01*
X146344678Y-137958084D01*
X146376359Y-137911086D01*
X146390324Y-137889726D01*
X146390668Y-137888811D01*
X146386546Y-137862678D01*
X146370807Y-137809740D01*
X146346004Y-137736647D01*
X146314689Y-137650052D01*
X146279417Y-137556608D01*
X146242740Y-137462965D01*
X146207212Y-137375777D01*
X146175386Y-137301695D01*
X146149816Y-137247371D01*
X146133053Y-137219457D01*
X146131374Y-137217724D01*
X146119372Y-137208956D01*
X146099103Y-137200115D01*
X146066529Y-137190292D01*
X146017616Y-137178583D01*
X145948327Y-137164080D01*
X145854625Y-137145876D01*
X145732476Y-137123066D01*
X145577842Y-137094741D01*
X145545770Y-137088780D01*
X145453893Y-137070352D01*
X145376607Y-137052892D01*
X145321236Y-137038133D01*
X145295105Y-137027810D01*
X145290733Y-137019197D01*
X145283445Y-136977826D01*
X145277669Y-136909241D01*
X145273410Y-136819868D01*
X145270673Y-136716135D01*
X145269462Y-136604465D01*
X145269782Y-136491287D01*
X145271636Y-136383026D01*
X145275030Y-136286108D01*
X145279967Y-136206959D01*
X145286452Y-136152006D01*
X145294489Y-136127674D01*
X145302696Y-136124079D01*
X145343519Y-136112748D01*
X145412524Y-136096722D01*
X145504203Y-136077195D01*
X145613050Y-136055362D01*
X145733558Y-136032418D01*
X145799357Y-136020159D01*
X145912135Y-135998901D01*
X146009207Y-135980287D01*
X146085382Y-135965328D01*
X146135469Y-135955036D01*
X146154276Y-135950422D01*
X146154983Y-135949471D01*
X146166961Y-135925310D01*
X146189794Y-135874694D01*
X146220630Y-135804338D01*
X146256613Y-135720958D01*
X146294891Y-135631270D01*
X146332609Y-135541989D01*
X146366913Y-135459832D01*
X146394949Y-135391513D01*
X146413864Y-135343748D01*
X146420803Y-135323254D01*
X146417742Y-135316043D01*
X146397372Y-135281728D01*
X146360422Y-135223970D01*
X146309860Y-135147299D01*
X146248657Y-135056248D01*
X146179781Y-134955350D01*
X146141994Y-134900093D01*
X146076782Y-134803215D01*
X146020871Y-134718193D01*
X145977241Y-134649662D01*
X145948877Y-134602260D01*
X145938759Y-134580623D01*
X145945790Y-134568887D01*
X145975197Y-134533818D01*
X146023441Y-134480745D01*
X146086093Y-134414164D01*
X146158725Y-134338574D01*
X146236908Y-134258472D01*
X146316214Y-134178354D01*
X146392213Y-134102718D01*
X146460478Y-134036062D01*
X146516580Y-133982882D01*
X146556090Y-133947676D01*
X146574579Y-133934942D01*
X146584843Y-133939893D01*
X146622530Y-133962857D01*
X146683348Y-134001938D01*
X146762913Y-134054272D01*
X146856843Y-134116996D01*
X146960754Y-134187246D01*
X147331794Y-134439551D01*
X147641080Y-134312053D01*
X147950365Y-134184555D01*
X148034186Y-133739931D01*
X148118006Y-133295307D01*
X149043454Y-133295307D01*
X149127275Y-133739931D01*
%TD*%
M02*
