%TF.GenerationSoftware,KiCad,Pcbnew,6.0.11-2627ca5db0~126~ubuntu20.04.1*%
%TF.CreationDate,2024-10-06T15:55:15-05:00*%
%TF.ProjectId,,58585858-5858-4585-9858-585858585858,rev?*%
%TF.SameCoordinates,Original*%
%TF.FileFunction,Profile,NP*%
%FSLAX46Y46*%
G04 Gerber Fmt 4.6, Leading zero omitted, Abs format (unit mm)*
G04 Created by KiCad (PCBNEW 6.0.11-2627ca5db0~126~ubuntu20.04.1) date 2024-10-06 15:55:15*
%MOMM*%
%LPD*%
G01*
G04 APERTURE LIST*
%TA.AperFunction,Profile*%
%ADD10C,0.100000*%
%TD*%
G04 APERTURE END LIST*
D10*
X91665000Y-76849000D02*
X133665000Y-76849000D01*
X120665000Y-116849000D02*
X120665000Y-107849000D01*
X133665000Y-84349000D02*
X132365000Y-84349000D01*
X91665000Y-84849000D02*
X91665000Y-76849000D01*
X132365000Y-84349000D02*
X132365000Y-103349000D01*
X86665000Y-84849000D02*
X91665000Y-84849000D01*
X86665000Y-116849000D02*
X86665000Y-84849000D01*
X132365000Y-103349000D02*
X138665000Y-103349000D01*
X138665000Y-116849000D02*
X138665000Y-103349000D01*
X133665000Y-84349000D02*
X133665000Y-76849000D01*
X104665000Y-116849000D02*
X104665000Y-107849000D01*
X120665000Y-116849000D02*
X138665000Y-116849000D01*
X86665000Y-116849000D02*
X104665000Y-116849000D01*
X104665000Y-107849000D02*
X120665000Y-107849000D01*
X86665000Y-76849000D02*
X104665000Y-76849000D01*
X104665000Y-67849000D02*
X120665000Y-67849000D01*
X138665000Y-76849000D02*
X138665000Y-63349000D01*
X104665000Y-76849000D02*
X104665000Y-67849000D01*
X120665000Y-76849000D02*
X138665000Y-76849000D01*
X133665000Y-44349000D02*
X133665000Y-36849000D01*
X132365000Y-63349000D02*
X138665000Y-63349000D01*
X86665000Y-76849000D02*
X86665000Y-44849000D01*
X86665000Y-44849000D02*
X91665000Y-44849000D01*
X132365000Y-44349000D02*
X132365000Y-63349000D01*
X91665000Y-44849000D02*
X91665000Y-36849000D01*
X133665000Y-44349000D02*
X132365000Y-44349000D01*
X120665000Y-76849000D02*
X120665000Y-67849000D01*
X91665000Y-36849000D02*
X133665000Y-36849000D01*
M02*
