%TF.GenerationSoftware,KiCad,Pcbnew,6.0.11-2627ca5db0~126~ubuntu20.04.1*%
%TF.CreationDate,2024-10-06T15:55:14-05:00*%
%TF.ProjectId,,58585858-5858-4585-9858-585858585858,rev?*%
%TF.SameCoordinates,Original*%
%TF.FileFunction,Paste,Top*%
%TF.FilePolarity,Positive*%
%FSLAX46Y46*%
G04 Gerber Fmt 4.6, Leading zero omitted, Abs format (unit mm)*
G04 Created by KiCad (PCBNEW 6.0.11-2627ca5db0~126~ubuntu20.04.1) date 2024-10-06 15:55:14*
%MOMM*%
%LPD*%
G01*
G04 APERTURE LIST*
G04 Aperture macros list*
%AMRoundRect*
0 Rectangle with rounded corners*
0 $1 Rounding radius*
0 $2 $3 $4 $5 $6 $7 $8 $9 X,Y pos of 4 corners*
0 Add a 4 corners polygon primitive as box body*
4,1,4,$2,$3,$4,$5,$6,$7,$8,$9,$2,$3,0*
0 Add four circle primitives for the rounded corners*
1,1,$1+$1,$2,$3*
1,1,$1+$1,$4,$5*
1,1,$1+$1,$6,$7*
1,1,$1+$1,$8,$9*
0 Add four rect primitives between the rounded corners*
20,1,$1+$1,$2,$3,$4,$5,0*
20,1,$1+$1,$4,$5,$6,$7,0*
20,1,$1+$1,$6,$7,$8,$9,0*
20,1,$1+$1,$8,$9,$2,$3,0*%
G04 Aperture macros list end*
%ADD10RoundRect,0.250000X0.450000X-0.350000X0.450000X0.350000X-0.450000X0.350000X-0.450000X-0.350000X0*%
%ADD11RoundRect,0.250000X-0.337500X-0.475000X0.337500X-0.475000X0.337500X0.475000X-0.337500X0.475000X0*%
%ADD12RoundRect,0.250000X-0.475000X0.337500X-0.475000X-0.337500X0.475000X-0.337500X0.475000X0.337500X0*%
%ADD13R,1.500000X2.000000*%
%ADD14R,3.800000X2.000000*%
%ADD15RoundRect,0.150000X-0.825000X-0.150000X0.825000X-0.150000X0.825000X0.150000X-0.825000X0.150000X0*%
%ADD16RoundRect,0.250000X-0.350000X-0.450000X0.350000X-0.450000X0.350000X0.450000X-0.350000X0.450000X0*%
%ADD17RoundRect,0.250000X0.350000X0.450000X-0.350000X0.450000X-0.350000X-0.450000X0.350000X-0.450000X0*%
%ADD18R,0.900000X1.500000*%
%ADD19R,1.500000X0.900000*%
%ADD20R,1.050000X1.050000*%
%ADD21RoundRect,0.100000X-0.100000X0.637500X-0.100000X-0.637500X0.100000X-0.637500X0.100000X0.637500X0*%
G04 APERTURE END LIST*
D10*
%TO.C,R5*%
X123444000Y-108659000D03*
X123444000Y-106659000D03*
%TD*%
D11*
%TO.C,C7*%
X90880000Y-90006000D03*
X92955000Y-90006000D03*
%TD*%
D12*
%TO.C,C3*%
X98933000Y-103446500D03*
X98933000Y-105521500D03*
%TD*%
D13*
%TO.C,U3*%
X101586000Y-105602000D03*
X103886000Y-105602000D03*
D14*
X103886000Y-99302000D03*
D13*
X106186000Y-105602000D03*
%TD*%
D15*
%TO.C,U4*%
X104205000Y-92673000D03*
X104205000Y-93943000D03*
X104205000Y-95213000D03*
X104205000Y-96483000D03*
X109155000Y-96483000D03*
X109155000Y-95213000D03*
X109155000Y-93943000D03*
X109155000Y-92673000D03*
%TD*%
D16*
%TO.C,R13*%
X99457000Y-92800000D03*
X101457000Y-92800000D03*
%TD*%
D17*
%TO.C,R9*%
X91916000Y-113120000D03*
X89916000Y-113120000D03*
%TD*%
D11*
%TO.C,C5*%
X89894500Y-110834000D03*
X91969500Y-110834000D03*
%TD*%
D18*
%TO.C,U1*%
X130932000Y-85193000D03*
X129662000Y-85193000D03*
X128392000Y-85193000D03*
X127122000Y-85193000D03*
X125852000Y-85193000D03*
X124582000Y-85193000D03*
X123312000Y-85193000D03*
X122042000Y-85193000D03*
X120772000Y-85193000D03*
X119502000Y-85193000D03*
X118232000Y-85193000D03*
X116962000Y-85193000D03*
X115692000Y-85193000D03*
X114422000Y-85193000D03*
D19*
X113172000Y-88233000D03*
X113172000Y-89503000D03*
X113172000Y-90773000D03*
X113172000Y-92043000D03*
X113172000Y-93313000D03*
X113172000Y-94583000D03*
X113172000Y-95853000D03*
X113172000Y-97123000D03*
X113172000Y-98393000D03*
X113172000Y-99663000D03*
D18*
X114422000Y-102693000D03*
X115692000Y-102693000D03*
X116962000Y-102693000D03*
X118232000Y-102693000D03*
X119502000Y-102693000D03*
X120772000Y-102693000D03*
X122042000Y-102693000D03*
X123312000Y-102693000D03*
X124582000Y-102693000D03*
X125852000Y-102693000D03*
X127122000Y-102693000D03*
X128392000Y-102693000D03*
X129662000Y-102693000D03*
X130932000Y-102693000D03*
D20*
X122067000Y-94788000D03*
X123592000Y-94788000D03*
X122067000Y-91738000D03*
X125117000Y-94788000D03*
X123592000Y-91738000D03*
X122067000Y-93263000D03*
X125117000Y-93263000D03*
X125117000Y-91738000D03*
X123592000Y-93263000D03*
%TD*%
D12*
%TO.C,C4*%
X96774000Y-103446500D03*
X96774000Y-105521500D03*
%TD*%
D16*
%TO.C,R11*%
X90948000Y-87085000D03*
X92948000Y-87085000D03*
%TD*%
D12*
%TO.C,C1*%
X110871000Y-103446500D03*
X110871000Y-105521500D03*
%TD*%
D11*
%TO.C,C8*%
X91905000Y-99023000D03*
X93980000Y-99023000D03*
%TD*%
%TO.C,C6*%
X96752500Y-100547000D03*
X98827500Y-100547000D03*
%TD*%
D10*
%TO.C,R4*%
X125984000Y-108659000D03*
X125984000Y-106659000D03*
%TD*%
%TO.C,R2*%
X131191000Y-108659000D03*
X131191000Y-106659000D03*
%TD*%
D15*
%TO.C,U5*%
X91759000Y-92927000D03*
X91759000Y-94197000D03*
X91759000Y-95467000D03*
X91759000Y-96737000D03*
X96709000Y-96737000D03*
X96709000Y-95467000D03*
X96709000Y-94197000D03*
X96709000Y-92927000D03*
%TD*%
D16*
%TO.C,R1*%
X96917000Y-107659000D03*
X98917000Y-107659000D03*
%TD*%
%TO.C,R8*%
X94758000Y-85434000D03*
X96758000Y-85434000D03*
%TD*%
%TO.C,R7*%
X118126000Y-106770000D03*
X120126000Y-106770000D03*
%TD*%
D12*
%TO.C,C2*%
X108712000Y-103446500D03*
X108712000Y-105521500D03*
%TD*%
D10*
%TO.C,R3*%
X128651000Y-108659000D03*
X128651000Y-106659000D03*
%TD*%
D16*
%TO.C,R12*%
X99457000Y-94832000D03*
X101457000Y-94832000D03*
%TD*%
%TO.C,R10*%
X89932000Y-115533000D03*
X91932000Y-115533000D03*
%TD*%
D11*
%TO.C,C9*%
X99419500Y-96864000D03*
X101494500Y-96864000D03*
%TD*%
D16*
%TO.C,R6*%
X113808000Y-106770000D03*
X115808000Y-106770000D03*
%TD*%
D21*
%TO.C,U2*%
X94238000Y-102002500D03*
X93588000Y-102002500D03*
X92938000Y-102002500D03*
X92288000Y-102002500D03*
X91638000Y-102002500D03*
X90988000Y-102002500D03*
X90338000Y-102002500D03*
X89688000Y-102002500D03*
X89038000Y-102002500D03*
X88388000Y-102002500D03*
X88388000Y-107727500D03*
X89038000Y-107727500D03*
X89688000Y-107727500D03*
X90338000Y-107727500D03*
X90988000Y-107727500D03*
X91638000Y-107727500D03*
X92288000Y-107727500D03*
X92938000Y-107727500D03*
X93588000Y-107727500D03*
X94238000Y-107727500D03*
%TD*%
D16*
%TO.C,R10*%
X89932000Y-75533000D03*
X91932000Y-75533000D03*
%TD*%
D10*
%TO.C,R4*%
X125984000Y-68659000D03*
X125984000Y-66659000D03*
%TD*%
D16*
%TO.C,R11*%
X90948000Y-47085000D03*
X92948000Y-47085000D03*
%TD*%
D11*
%TO.C,C9*%
X99419500Y-56864000D03*
X101494500Y-56864000D03*
%TD*%
%TO.C,C6*%
X96752500Y-60547000D03*
X98827500Y-60547000D03*
%TD*%
D16*
%TO.C,R7*%
X118126000Y-66770000D03*
X120126000Y-66770000D03*
%TD*%
D11*
%TO.C,C8*%
X91905000Y-59023000D03*
X93980000Y-59023000D03*
%TD*%
D15*
%TO.C,U5*%
X91759000Y-52927000D03*
X91759000Y-54197000D03*
X91759000Y-55467000D03*
X91759000Y-56737000D03*
X96709000Y-56737000D03*
X96709000Y-55467000D03*
X96709000Y-54197000D03*
X96709000Y-52927000D03*
%TD*%
D16*
%TO.C,R12*%
X99457000Y-54832000D03*
X101457000Y-54832000D03*
%TD*%
D10*
%TO.C,R2*%
X131191000Y-68659000D03*
X131191000Y-66659000D03*
%TD*%
%TO.C,R3*%
X128651000Y-68659000D03*
X128651000Y-66659000D03*
%TD*%
D16*
%TO.C,R6*%
X113808000Y-66770000D03*
X115808000Y-66770000D03*
%TD*%
%TO.C,R8*%
X94758000Y-45434000D03*
X96758000Y-45434000D03*
%TD*%
D21*
%TO.C,U2*%
X94238000Y-62002500D03*
X93588000Y-62002500D03*
X92938000Y-62002500D03*
X92288000Y-62002500D03*
X91638000Y-62002500D03*
X90988000Y-62002500D03*
X90338000Y-62002500D03*
X89688000Y-62002500D03*
X89038000Y-62002500D03*
X88388000Y-62002500D03*
X88388000Y-67727500D03*
X89038000Y-67727500D03*
X89688000Y-67727500D03*
X90338000Y-67727500D03*
X90988000Y-67727500D03*
X91638000Y-67727500D03*
X92288000Y-67727500D03*
X92938000Y-67727500D03*
X93588000Y-67727500D03*
X94238000Y-67727500D03*
%TD*%
D12*
%TO.C,C2*%
X108712000Y-63446500D03*
X108712000Y-65521500D03*
%TD*%
D16*
%TO.C,R1*%
X96917000Y-67659000D03*
X98917000Y-67659000D03*
%TD*%
D12*
%TO.C,C1*%
X110871000Y-63446500D03*
X110871000Y-65521500D03*
%TD*%
%TO.C,C4*%
X96774000Y-63446500D03*
X96774000Y-65521500D03*
%TD*%
D18*
%TO.C,U1*%
X130932000Y-45193000D03*
X129662000Y-45193000D03*
X128392000Y-45193000D03*
X127122000Y-45193000D03*
X125852000Y-45193000D03*
X124582000Y-45193000D03*
X123312000Y-45193000D03*
X122042000Y-45193000D03*
X120772000Y-45193000D03*
X119502000Y-45193000D03*
X118232000Y-45193000D03*
X116962000Y-45193000D03*
X115692000Y-45193000D03*
X114422000Y-45193000D03*
D19*
X113172000Y-48233000D03*
X113172000Y-49503000D03*
X113172000Y-50773000D03*
X113172000Y-52043000D03*
X113172000Y-53313000D03*
X113172000Y-54583000D03*
X113172000Y-55853000D03*
X113172000Y-57123000D03*
X113172000Y-58393000D03*
X113172000Y-59663000D03*
D18*
X114422000Y-62693000D03*
X115692000Y-62693000D03*
X116962000Y-62693000D03*
X118232000Y-62693000D03*
X119502000Y-62693000D03*
X120772000Y-62693000D03*
X122042000Y-62693000D03*
X123312000Y-62693000D03*
X124582000Y-62693000D03*
X125852000Y-62693000D03*
X127122000Y-62693000D03*
X128392000Y-62693000D03*
X129662000Y-62693000D03*
X130932000Y-62693000D03*
D20*
X122067000Y-54788000D03*
X123592000Y-54788000D03*
X122067000Y-51738000D03*
X125117000Y-54788000D03*
X123592000Y-51738000D03*
X122067000Y-53263000D03*
X125117000Y-53263000D03*
X125117000Y-51738000D03*
X123592000Y-53263000D03*
%TD*%
D11*
%TO.C,C5*%
X89894500Y-70834000D03*
X91969500Y-70834000D03*
%TD*%
D17*
%TO.C,R9*%
X91916000Y-73120000D03*
X89916000Y-73120000D03*
%TD*%
D16*
%TO.C,R13*%
X99457000Y-52800000D03*
X101457000Y-52800000D03*
%TD*%
D15*
%TO.C,U4*%
X104205000Y-52673000D03*
X104205000Y-53943000D03*
X104205000Y-55213000D03*
X104205000Y-56483000D03*
X109155000Y-56483000D03*
X109155000Y-55213000D03*
X109155000Y-53943000D03*
X109155000Y-52673000D03*
%TD*%
D13*
%TO.C,U3*%
X101586000Y-65602000D03*
X103886000Y-65602000D03*
D14*
X103886000Y-59302000D03*
D13*
X106186000Y-65602000D03*
%TD*%
D12*
%TO.C,C3*%
X98933000Y-63446500D03*
X98933000Y-65521500D03*
%TD*%
D11*
%TO.C,C7*%
X90880000Y-50006000D03*
X92955000Y-50006000D03*
%TD*%
D10*
%TO.C,R5*%
X123444000Y-68659000D03*
X123444000Y-66659000D03*
%TD*%
M02*
