%TF.GenerationSoftware,KiCad,Pcbnew,6.0.11-2627ca5db0~126~ubuntu20.04.1*%
%TF.CreationDate,2025-02-02T15:33:34-05:00*%
%TF.ProjectId,,58585858-5858-4585-9858-585858585858,rev?*%
%TF.SameCoordinates,Original*%
%TF.FileFunction,Legend,Top*%
%TF.FilePolarity,Positive*%
%FSLAX46Y46*%
G04 Gerber Fmt 4.6, Leading zero omitted, Abs format (unit mm)*
G04 Created by KiCad (PCBNEW 6.0.11-2627ca5db0~126~ubuntu20.04.1) date 2025-02-02 15:33:34*
%MOMM*%
%LPD*%
G01*
G04 APERTURE LIST*
%ADD10C,0.187500*%
%ADD11C,0.200000*%
%ADD12C,0.150000*%
%ADD13C,0.120000*%
G04 APERTURE END LIST*
D10*
X93811285Y-125159142D02*
X93454142Y-125409142D01*
X93811285Y-125587714D02*
X93061285Y-125587714D01*
X93061285Y-125302000D01*
X93097000Y-125230571D01*
X93132714Y-125194857D01*
X93204142Y-125159142D01*
X93311285Y-125159142D01*
X93382714Y-125194857D01*
X93418428Y-125230571D01*
X93454142Y-125302000D01*
X93454142Y-125587714D01*
X93061285Y-124909142D02*
X93811285Y-124409142D01*
X93061285Y-124409142D02*
X93811285Y-124909142D01*
X93811285Y-123730571D02*
X93811285Y-124159142D01*
X93811285Y-123944857D02*
X93061285Y-123944857D01*
X93168428Y-124016285D01*
X93239857Y-124087714D01*
X93275571Y-124159142D01*
X119211285Y-125286142D02*
X118854142Y-125536142D01*
X119211285Y-125714714D02*
X118461285Y-125714714D01*
X118461285Y-125429000D01*
X118497000Y-125357571D01*
X118532714Y-125321857D01*
X118604142Y-125286142D01*
X118711285Y-125286142D01*
X118782714Y-125321857D01*
X118818428Y-125357571D01*
X118854142Y-125429000D01*
X118854142Y-125714714D01*
X118461285Y-125036142D02*
X119211285Y-124536142D01*
X118461285Y-124536142D02*
X119211285Y-125036142D01*
X118532714Y-124286142D02*
X118497000Y-124250428D01*
X118461285Y-124179000D01*
X118461285Y-124000428D01*
X118497000Y-123929000D01*
X118532714Y-123893285D01*
X118604142Y-123857571D01*
X118675571Y-123857571D01*
X118782714Y-123893285D01*
X119211285Y-124321857D01*
X119211285Y-123857571D01*
X95474285Y-125605571D02*
X95474285Y-125177000D01*
X96224285Y-125391285D02*
X95474285Y-125391285D01*
X95474285Y-124998428D02*
X96224285Y-124498428D01*
X95474285Y-124498428D02*
X96224285Y-124998428D01*
X95545714Y-124248428D02*
X95510000Y-124212714D01*
X95474285Y-124141285D01*
X95474285Y-123962714D01*
X95510000Y-123891285D01*
X95545714Y-123855571D01*
X95617142Y-123819857D01*
X95688571Y-123819857D01*
X95795714Y-123855571D01*
X96224285Y-124284142D01*
X96224285Y-123819857D01*
D11*
X128232904Y-125499523D02*
X127432904Y-125499523D01*
X128004333Y-125232857D01*
X127432904Y-124966190D01*
X128232904Y-124966190D01*
X127432904Y-124432857D02*
X127432904Y-124280476D01*
X127471000Y-124204285D01*
X127547190Y-124128095D01*
X127699571Y-124090000D01*
X127966238Y-124090000D01*
X128118619Y-124128095D01*
X128194809Y-124204285D01*
X128232904Y-124280476D01*
X128232904Y-124432857D01*
X128194809Y-124509047D01*
X128118619Y-124585238D01*
X127966238Y-124623333D01*
X127699571Y-124623333D01*
X127547190Y-124585238D01*
X127471000Y-124509047D01*
X127432904Y-124432857D01*
X128232904Y-123747142D02*
X127432904Y-123747142D01*
X127432904Y-123556666D01*
X127471000Y-123442380D01*
X127547190Y-123366190D01*
X127623380Y-123328095D01*
X127775761Y-123290000D01*
X127890047Y-123290000D01*
X128042428Y-123328095D01*
X128118619Y-123366190D01*
X128194809Y-123442380D01*
X128232904Y-123556666D01*
X128232904Y-123747142D01*
X127813857Y-122680476D02*
X127851952Y-122566190D01*
X127890047Y-122528095D01*
X127966238Y-122490000D01*
X128080523Y-122490000D01*
X128156714Y-122528095D01*
X128194809Y-122566190D01*
X128232904Y-122642380D01*
X128232904Y-122947142D01*
X127432904Y-122947142D01*
X127432904Y-122680476D01*
X127471000Y-122604285D01*
X127509095Y-122566190D01*
X127585285Y-122528095D01*
X127661476Y-122528095D01*
X127737666Y-122566190D01*
X127775761Y-122604285D01*
X127813857Y-122680476D01*
X127813857Y-122947142D01*
X127432904Y-122147142D02*
X128080523Y-122147142D01*
X128156714Y-122109047D01*
X128194809Y-122070952D01*
X128232904Y-121994761D01*
X128232904Y-121842380D01*
X128194809Y-121766190D01*
X128156714Y-121728095D01*
X128080523Y-121690000D01*
X127432904Y-121690000D01*
X128194809Y-121347142D02*
X128232904Y-121232857D01*
X128232904Y-121042380D01*
X128194809Y-120966190D01*
X128156714Y-120928095D01*
X128080523Y-120890000D01*
X128004333Y-120890000D01*
X127928142Y-120928095D01*
X127890047Y-120966190D01*
X127851952Y-121042380D01*
X127813857Y-121194761D01*
X127775761Y-121270952D01*
X127737666Y-121309047D01*
X127661476Y-121347142D01*
X127585285Y-121347142D01*
X127509095Y-121309047D01*
X127471000Y-121270952D01*
X127432904Y-121194761D01*
X127432904Y-121004285D01*
X127471000Y-120890000D01*
X128232904Y-119480476D02*
X127851952Y-119747142D01*
X128232904Y-119937619D02*
X127432904Y-119937619D01*
X127432904Y-119632857D01*
X127471000Y-119556666D01*
X127509095Y-119518571D01*
X127585285Y-119480476D01*
X127699571Y-119480476D01*
X127775761Y-119518571D01*
X127813857Y-119556666D01*
X127851952Y-119632857D01*
X127851952Y-119937619D01*
X127432904Y-119251904D02*
X127432904Y-118794761D01*
X128232904Y-119023333D02*
X127432904Y-119023333D01*
X127432904Y-118528095D02*
X128080523Y-118528095D01*
X128156714Y-118490000D01*
X128194809Y-118451904D01*
X128232904Y-118375714D01*
X128232904Y-118223333D01*
X128194809Y-118147142D01*
X128156714Y-118109047D01*
X128080523Y-118070952D01*
X127432904Y-118070952D01*
X128232904Y-117080476D02*
X127432904Y-117080476D01*
X128004333Y-116813809D01*
X127432904Y-116547142D01*
X128232904Y-116547142D01*
X128232904Y-116166190D02*
X127432904Y-116166190D01*
X128232904Y-115328095D02*
X127851952Y-115594761D01*
X128232904Y-115785238D02*
X127432904Y-115785238D01*
X127432904Y-115480476D01*
X127471000Y-115404285D01*
X127509095Y-115366190D01*
X127585285Y-115328095D01*
X127699571Y-115328095D01*
X127775761Y-115366190D01*
X127813857Y-115404285D01*
X127851952Y-115480476D01*
X127851952Y-115785238D01*
X128232904Y-114528095D02*
X127851952Y-114794761D01*
X128232904Y-114985238D02*
X127432904Y-114985238D01*
X127432904Y-114680476D01*
X127471000Y-114604285D01*
X127509095Y-114566190D01*
X127585285Y-114528095D01*
X127699571Y-114528095D01*
X127775761Y-114566190D01*
X127813857Y-114604285D01*
X127851952Y-114680476D01*
X127851952Y-114985238D01*
X127432904Y-114032857D02*
X127432904Y-113880476D01*
X127471000Y-113804285D01*
X127547190Y-113728095D01*
X127699571Y-113690000D01*
X127966238Y-113690000D01*
X128118619Y-113728095D01*
X128194809Y-113804285D01*
X128232904Y-113880476D01*
X128232904Y-114032857D01*
X128194809Y-114109047D01*
X128118619Y-114185238D01*
X127966238Y-114223333D01*
X127699571Y-114223333D01*
X127547190Y-114185238D01*
X127471000Y-114109047D01*
X127432904Y-114032857D01*
X128232904Y-112890000D02*
X127851952Y-113156666D01*
X128232904Y-113347142D02*
X127432904Y-113347142D01*
X127432904Y-113042380D01*
X127471000Y-112966190D01*
X127509095Y-112928095D01*
X127585285Y-112890000D01*
X127699571Y-112890000D01*
X127775761Y-112928095D01*
X127813857Y-112966190D01*
X127851952Y-113042380D01*
X127851952Y-113347142D01*
X129101857Y-125499523D02*
X129101857Y-125232857D01*
X129520904Y-125118571D02*
X129520904Y-125499523D01*
X128720904Y-125499523D01*
X128720904Y-125118571D01*
X129482809Y-124813809D02*
X129520904Y-124699523D01*
X129520904Y-124509047D01*
X129482809Y-124432857D01*
X129444714Y-124394761D01*
X129368523Y-124356666D01*
X129292333Y-124356666D01*
X129216142Y-124394761D01*
X129178047Y-124432857D01*
X129139952Y-124509047D01*
X129101857Y-124661428D01*
X129063761Y-124737619D01*
X129025666Y-124775714D01*
X128949476Y-124813809D01*
X128873285Y-124813809D01*
X128797095Y-124775714D01*
X128759000Y-124737619D01*
X128720904Y-124661428D01*
X128720904Y-124470952D01*
X128759000Y-124356666D01*
X129520904Y-124013809D02*
X128720904Y-124013809D01*
X128720904Y-123709047D01*
X128759000Y-123632857D01*
X128797095Y-123594761D01*
X128873285Y-123556666D01*
X128987571Y-123556666D01*
X129063761Y-123594761D01*
X129101857Y-123632857D01*
X129139952Y-123709047D01*
X129139952Y-124013809D01*
X128720904Y-123290000D02*
X128720904Y-122794761D01*
X129025666Y-123061428D01*
X129025666Y-122947142D01*
X129063761Y-122870952D01*
X129101857Y-122832857D01*
X129178047Y-122794761D01*
X129368523Y-122794761D01*
X129444714Y-122832857D01*
X129482809Y-122870952D01*
X129520904Y-122947142D01*
X129520904Y-123175714D01*
X129482809Y-123251904D01*
X129444714Y-123290000D01*
X128797095Y-122490000D02*
X128759000Y-122451904D01*
X128720904Y-122375714D01*
X128720904Y-122185238D01*
X128759000Y-122109047D01*
X128797095Y-122070952D01*
X128873285Y-122032857D01*
X128949476Y-122032857D01*
X129063761Y-122070952D01*
X129520904Y-122528095D01*
X129520904Y-122032857D01*
X129482809Y-121118571D02*
X129520904Y-121004285D01*
X129520904Y-120813809D01*
X129482809Y-120737619D01*
X129444714Y-120699523D01*
X129368523Y-120661428D01*
X129292333Y-120661428D01*
X129216142Y-120699523D01*
X129178047Y-120737619D01*
X129139952Y-120813809D01*
X129101857Y-120966190D01*
X129063761Y-121042380D01*
X129025666Y-121080476D01*
X128949476Y-121118571D01*
X128873285Y-121118571D01*
X128797095Y-121080476D01*
X128759000Y-121042380D01*
X128720904Y-120966190D01*
X128720904Y-120775714D01*
X128759000Y-120661428D01*
X129520904Y-120318571D02*
X128720904Y-120318571D01*
X129520904Y-119937619D02*
X128720904Y-119937619D01*
X128720904Y-119747142D01*
X128759000Y-119632857D01*
X128835190Y-119556666D01*
X128911380Y-119518571D01*
X129063761Y-119480476D01*
X129178047Y-119480476D01*
X129330428Y-119518571D01*
X129406619Y-119556666D01*
X129482809Y-119632857D01*
X129520904Y-119747142D01*
X129520904Y-119937619D01*
X129101857Y-119137619D02*
X129101857Y-118870952D01*
X129520904Y-118756666D02*
X129520904Y-119137619D01*
X128720904Y-119137619D01*
X128720904Y-118756666D01*
X129101857Y-117537619D02*
X129139952Y-117423333D01*
X129178047Y-117385238D01*
X129254238Y-117347142D01*
X129368523Y-117347142D01*
X129444714Y-117385238D01*
X129482809Y-117423333D01*
X129520904Y-117499523D01*
X129520904Y-117804285D01*
X128720904Y-117804285D01*
X128720904Y-117537619D01*
X128759000Y-117461428D01*
X128797095Y-117423333D01*
X128873285Y-117385238D01*
X128949476Y-117385238D01*
X129025666Y-117423333D01*
X129063761Y-117461428D01*
X129101857Y-117537619D01*
X129101857Y-117804285D01*
X128720904Y-116851904D02*
X128720904Y-116699523D01*
X128759000Y-116623333D01*
X128835190Y-116547142D01*
X128987571Y-116509047D01*
X129254238Y-116509047D01*
X129406619Y-116547142D01*
X129482809Y-116623333D01*
X129520904Y-116699523D01*
X129520904Y-116851904D01*
X129482809Y-116928095D01*
X129406619Y-117004285D01*
X129254238Y-117042380D01*
X128987571Y-117042380D01*
X128835190Y-117004285D01*
X128759000Y-116928095D01*
X128720904Y-116851904D01*
X129292333Y-116204285D02*
X129292333Y-115823333D01*
X129520904Y-116280476D02*
X128720904Y-116013809D01*
X129520904Y-115747142D01*
X129520904Y-115023333D02*
X129139952Y-115290000D01*
X129520904Y-115480476D02*
X128720904Y-115480476D01*
X128720904Y-115175714D01*
X128759000Y-115099523D01*
X128797095Y-115061428D01*
X128873285Y-115023333D01*
X128987571Y-115023333D01*
X129063761Y-115061428D01*
X129101857Y-115099523D01*
X129139952Y-115175714D01*
X129139952Y-115480476D01*
X129520904Y-114680476D02*
X128720904Y-114680476D01*
X128720904Y-114490000D01*
X128759000Y-114375714D01*
X128835190Y-114299523D01*
X128911380Y-114261428D01*
X129063761Y-114223333D01*
X129178047Y-114223333D01*
X129330428Y-114261428D01*
X129406619Y-114299523D01*
X129482809Y-114375714D01*
X129520904Y-114490000D01*
X129520904Y-114680476D01*
X130008904Y-125613809D02*
X130808904Y-125347142D01*
X130008904Y-125080476D01*
X130085095Y-124851904D02*
X130047000Y-124813809D01*
X130008904Y-124737619D01*
X130008904Y-124547142D01*
X130047000Y-124470952D01*
X130085095Y-124432857D01*
X130161285Y-124394761D01*
X130237476Y-124394761D01*
X130351761Y-124432857D01*
X130808904Y-124890000D01*
X130808904Y-124394761D01*
D10*
X116278428Y-125714714D02*
X116278428Y-125464714D01*
X116671285Y-125357571D02*
X116671285Y-125714714D01*
X115921285Y-125714714D01*
X115921285Y-125357571D01*
X116671285Y-125036142D02*
X115921285Y-125036142D01*
X116671285Y-124607571D01*
X115921285Y-124607571D01*
X115992714Y-124286142D02*
X115957000Y-124250428D01*
X115921285Y-124179000D01*
X115921285Y-124000428D01*
X115957000Y-123929000D01*
X115992714Y-123893285D01*
X116064142Y-123857571D01*
X116135571Y-123857571D01*
X116242714Y-123893285D01*
X116671285Y-124321857D01*
X116671285Y-123857571D01*
X124132571Y-125768285D02*
X124132571Y-125196857D01*
X124418285Y-125482571D02*
X123846857Y-125482571D01*
X123668285Y-124482571D02*
X123668285Y-124839714D01*
X124025428Y-124875428D01*
X123989714Y-124839714D01*
X123954000Y-124768285D01*
X123954000Y-124589714D01*
X123989714Y-124518285D01*
X124025428Y-124482571D01*
X124096857Y-124446857D01*
X124275428Y-124446857D01*
X124346857Y-124482571D01*
X124382571Y-124518285D01*
X124418285Y-124589714D01*
X124418285Y-124768285D01*
X124382571Y-124839714D01*
X124346857Y-124875428D01*
X123668285Y-124232571D02*
X124418285Y-123982571D01*
X123668285Y-123732571D01*
X87981285Y-125732571D02*
X87981285Y-125304000D01*
X88731285Y-125518285D02*
X87981285Y-125518285D01*
X87981285Y-125125428D02*
X88731285Y-124625428D01*
X87981285Y-124625428D02*
X88731285Y-125125428D01*
X88731285Y-123946857D02*
X88731285Y-124375428D01*
X88731285Y-124161142D02*
X87981285Y-124161142D01*
X88088428Y-124232571D01*
X88159857Y-124304000D01*
X88195571Y-124375428D01*
X121037000Y-125375428D02*
X121001285Y-125446857D01*
X121001285Y-125554000D01*
X121037000Y-125661142D01*
X121108428Y-125732571D01*
X121179857Y-125768285D01*
X121322714Y-125804000D01*
X121429857Y-125804000D01*
X121572714Y-125768285D01*
X121644142Y-125732571D01*
X121715571Y-125661142D01*
X121751285Y-125554000D01*
X121751285Y-125482571D01*
X121715571Y-125375428D01*
X121679857Y-125339714D01*
X121429857Y-125339714D01*
X121429857Y-125482571D01*
X121751285Y-125018285D02*
X121001285Y-125018285D01*
X121751285Y-124589714D01*
X121001285Y-124589714D01*
X121751285Y-124232571D02*
X121001285Y-124232571D01*
X121001285Y-124054000D01*
X121037000Y-123946857D01*
X121108428Y-123875428D01*
X121179857Y-123839714D01*
X121322714Y-123804000D01*
X121429857Y-123804000D01*
X121572714Y-123839714D01*
X121644142Y-123875428D01*
X121715571Y-123946857D01*
X121751285Y-124054000D01*
X121751285Y-124232571D01*
X90878428Y-125587714D02*
X90878428Y-125337714D01*
X91271285Y-125230571D02*
X91271285Y-125587714D01*
X90521285Y-125587714D01*
X90521285Y-125230571D01*
X91271285Y-124909142D02*
X90521285Y-124909142D01*
X91271285Y-124480571D01*
X90521285Y-124480571D01*
X91271285Y-123730571D02*
X91271285Y-124159142D01*
X91271285Y-123944857D02*
X90521285Y-123944857D01*
X90628428Y-124016285D01*
X90699857Y-124087714D01*
X90735571Y-124159142D01*
X124132571Y-85768285D02*
X124132571Y-85196857D01*
X124418285Y-85482571D02*
X123846857Y-85482571D01*
X123668285Y-84482571D02*
X123668285Y-84839714D01*
X124025428Y-84875428D01*
X123989714Y-84839714D01*
X123954000Y-84768285D01*
X123954000Y-84589714D01*
X123989714Y-84518285D01*
X124025428Y-84482571D01*
X124096857Y-84446857D01*
X124275428Y-84446857D01*
X124346857Y-84482571D01*
X124382571Y-84518285D01*
X124418285Y-84589714D01*
X124418285Y-84768285D01*
X124382571Y-84839714D01*
X124346857Y-84875428D01*
X123668285Y-84232571D02*
X124418285Y-83982571D01*
X123668285Y-83732571D01*
X116278428Y-85714714D02*
X116278428Y-85464714D01*
X116671285Y-85357571D02*
X116671285Y-85714714D01*
X115921285Y-85714714D01*
X115921285Y-85357571D01*
X116671285Y-85036142D02*
X115921285Y-85036142D01*
X116671285Y-84607571D01*
X115921285Y-84607571D01*
X115992714Y-84286142D02*
X115957000Y-84250428D01*
X115921285Y-84179000D01*
X115921285Y-84000428D01*
X115957000Y-83929000D01*
X115992714Y-83893285D01*
X116064142Y-83857571D01*
X116135571Y-83857571D01*
X116242714Y-83893285D01*
X116671285Y-84321857D01*
X116671285Y-83857571D01*
D11*
X128232904Y-85499523D02*
X127432904Y-85499523D01*
X128004333Y-85232857D01*
X127432904Y-84966190D01*
X128232904Y-84966190D01*
X127432904Y-84432857D02*
X127432904Y-84280476D01*
X127471000Y-84204285D01*
X127547190Y-84128095D01*
X127699571Y-84090000D01*
X127966238Y-84090000D01*
X128118619Y-84128095D01*
X128194809Y-84204285D01*
X128232904Y-84280476D01*
X128232904Y-84432857D01*
X128194809Y-84509047D01*
X128118619Y-84585238D01*
X127966238Y-84623333D01*
X127699571Y-84623333D01*
X127547190Y-84585238D01*
X127471000Y-84509047D01*
X127432904Y-84432857D01*
X128232904Y-83747142D02*
X127432904Y-83747142D01*
X127432904Y-83556666D01*
X127471000Y-83442380D01*
X127547190Y-83366190D01*
X127623380Y-83328095D01*
X127775761Y-83290000D01*
X127890047Y-83290000D01*
X128042428Y-83328095D01*
X128118619Y-83366190D01*
X128194809Y-83442380D01*
X128232904Y-83556666D01*
X128232904Y-83747142D01*
X127813857Y-82680476D02*
X127851952Y-82566190D01*
X127890047Y-82528095D01*
X127966238Y-82490000D01*
X128080523Y-82490000D01*
X128156714Y-82528095D01*
X128194809Y-82566190D01*
X128232904Y-82642380D01*
X128232904Y-82947142D01*
X127432904Y-82947142D01*
X127432904Y-82680476D01*
X127471000Y-82604285D01*
X127509095Y-82566190D01*
X127585285Y-82528095D01*
X127661476Y-82528095D01*
X127737666Y-82566190D01*
X127775761Y-82604285D01*
X127813857Y-82680476D01*
X127813857Y-82947142D01*
X127432904Y-82147142D02*
X128080523Y-82147142D01*
X128156714Y-82109047D01*
X128194809Y-82070952D01*
X128232904Y-81994761D01*
X128232904Y-81842380D01*
X128194809Y-81766190D01*
X128156714Y-81728095D01*
X128080523Y-81690000D01*
X127432904Y-81690000D01*
X128194809Y-81347142D02*
X128232904Y-81232857D01*
X128232904Y-81042380D01*
X128194809Y-80966190D01*
X128156714Y-80928095D01*
X128080523Y-80890000D01*
X128004333Y-80890000D01*
X127928142Y-80928095D01*
X127890047Y-80966190D01*
X127851952Y-81042380D01*
X127813857Y-81194761D01*
X127775761Y-81270952D01*
X127737666Y-81309047D01*
X127661476Y-81347142D01*
X127585285Y-81347142D01*
X127509095Y-81309047D01*
X127471000Y-81270952D01*
X127432904Y-81194761D01*
X127432904Y-81004285D01*
X127471000Y-80890000D01*
X128232904Y-79480476D02*
X127851952Y-79747142D01*
X128232904Y-79937619D02*
X127432904Y-79937619D01*
X127432904Y-79632857D01*
X127471000Y-79556666D01*
X127509095Y-79518571D01*
X127585285Y-79480476D01*
X127699571Y-79480476D01*
X127775761Y-79518571D01*
X127813857Y-79556666D01*
X127851952Y-79632857D01*
X127851952Y-79937619D01*
X127432904Y-79251904D02*
X127432904Y-78794761D01*
X128232904Y-79023333D02*
X127432904Y-79023333D01*
X127432904Y-78528095D02*
X128080523Y-78528095D01*
X128156714Y-78490000D01*
X128194809Y-78451904D01*
X128232904Y-78375714D01*
X128232904Y-78223333D01*
X128194809Y-78147142D01*
X128156714Y-78109047D01*
X128080523Y-78070952D01*
X127432904Y-78070952D01*
X128232904Y-77080476D02*
X127432904Y-77080476D01*
X128004333Y-76813809D01*
X127432904Y-76547142D01*
X128232904Y-76547142D01*
X128232904Y-76166190D02*
X127432904Y-76166190D01*
X128232904Y-75328095D02*
X127851952Y-75594761D01*
X128232904Y-75785238D02*
X127432904Y-75785238D01*
X127432904Y-75480476D01*
X127471000Y-75404285D01*
X127509095Y-75366190D01*
X127585285Y-75328095D01*
X127699571Y-75328095D01*
X127775761Y-75366190D01*
X127813857Y-75404285D01*
X127851952Y-75480476D01*
X127851952Y-75785238D01*
X128232904Y-74528095D02*
X127851952Y-74794761D01*
X128232904Y-74985238D02*
X127432904Y-74985238D01*
X127432904Y-74680476D01*
X127471000Y-74604285D01*
X127509095Y-74566190D01*
X127585285Y-74528095D01*
X127699571Y-74528095D01*
X127775761Y-74566190D01*
X127813857Y-74604285D01*
X127851952Y-74680476D01*
X127851952Y-74985238D01*
X127432904Y-74032857D02*
X127432904Y-73880476D01*
X127471000Y-73804285D01*
X127547190Y-73728095D01*
X127699571Y-73690000D01*
X127966238Y-73690000D01*
X128118619Y-73728095D01*
X128194809Y-73804285D01*
X128232904Y-73880476D01*
X128232904Y-74032857D01*
X128194809Y-74109047D01*
X128118619Y-74185238D01*
X127966238Y-74223333D01*
X127699571Y-74223333D01*
X127547190Y-74185238D01*
X127471000Y-74109047D01*
X127432904Y-74032857D01*
X128232904Y-72890000D02*
X127851952Y-73156666D01*
X128232904Y-73347142D02*
X127432904Y-73347142D01*
X127432904Y-73042380D01*
X127471000Y-72966190D01*
X127509095Y-72928095D01*
X127585285Y-72890000D01*
X127699571Y-72890000D01*
X127775761Y-72928095D01*
X127813857Y-72966190D01*
X127851952Y-73042380D01*
X127851952Y-73347142D01*
X129101857Y-85499523D02*
X129101857Y-85232857D01*
X129520904Y-85118571D02*
X129520904Y-85499523D01*
X128720904Y-85499523D01*
X128720904Y-85118571D01*
X129482809Y-84813809D02*
X129520904Y-84699523D01*
X129520904Y-84509047D01*
X129482809Y-84432857D01*
X129444714Y-84394761D01*
X129368523Y-84356666D01*
X129292333Y-84356666D01*
X129216142Y-84394761D01*
X129178047Y-84432857D01*
X129139952Y-84509047D01*
X129101857Y-84661428D01*
X129063761Y-84737619D01*
X129025666Y-84775714D01*
X128949476Y-84813809D01*
X128873285Y-84813809D01*
X128797095Y-84775714D01*
X128759000Y-84737619D01*
X128720904Y-84661428D01*
X128720904Y-84470952D01*
X128759000Y-84356666D01*
X129520904Y-84013809D02*
X128720904Y-84013809D01*
X128720904Y-83709047D01*
X128759000Y-83632857D01*
X128797095Y-83594761D01*
X128873285Y-83556666D01*
X128987571Y-83556666D01*
X129063761Y-83594761D01*
X129101857Y-83632857D01*
X129139952Y-83709047D01*
X129139952Y-84013809D01*
X128720904Y-83290000D02*
X128720904Y-82794761D01*
X129025666Y-83061428D01*
X129025666Y-82947142D01*
X129063761Y-82870952D01*
X129101857Y-82832857D01*
X129178047Y-82794761D01*
X129368523Y-82794761D01*
X129444714Y-82832857D01*
X129482809Y-82870952D01*
X129520904Y-82947142D01*
X129520904Y-83175714D01*
X129482809Y-83251904D01*
X129444714Y-83290000D01*
X128797095Y-82490000D02*
X128759000Y-82451904D01*
X128720904Y-82375714D01*
X128720904Y-82185238D01*
X128759000Y-82109047D01*
X128797095Y-82070952D01*
X128873285Y-82032857D01*
X128949476Y-82032857D01*
X129063761Y-82070952D01*
X129520904Y-82528095D01*
X129520904Y-82032857D01*
X129482809Y-81118571D02*
X129520904Y-81004285D01*
X129520904Y-80813809D01*
X129482809Y-80737619D01*
X129444714Y-80699523D01*
X129368523Y-80661428D01*
X129292333Y-80661428D01*
X129216142Y-80699523D01*
X129178047Y-80737619D01*
X129139952Y-80813809D01*
X129101857Y-80966190D01*
X129063761Y-81042380D01*
X129025666Y-81080476D01*
X128949476Y-81118571D01*
X128873285Y-81118571D01*
X128797095Y-81080476D01*
X128759000Y-81042380D01*
X128720904Y-80966190D01*
X128720904Y-80775714D01*
X128759000Y-80661428D01*
X129520904Y-80318571D02*
X128720904Y-80318571D01*
X129520904Y-79937619D02*
X128720904Y-79937619D01*
X128720904Y-79747142D01*
X128759000Y-79632857D01*
X128835190Y-79556666D01*
X128911380Y-79518571D01*
X129063761Y-79480476D01*
X129178047Y-79480476D01*
X129330428Y-79518571D01*
X129406619Y-79556666D01*
X129482809Y-79632857D01*
X129520904Y-79747142D01*
X129520904Y-79937619D01*
X129101857Y-79137619D02*
X129101857Y-78870952D01*
X129520904Y-78756666D02*
X129520904Y-79137619D01*
X128720904Y-79137619D01*
X128720904Y-78756666D01*
X129101857Y-77537619D02*
X129139952Y-77423333D01*
X129178047Y-77385238D01*
X129254238Y-77347142D01*
X129368523Y-77347142D01*
X129444714Y-77385238D01*
X129482809Y-77423333D01*
X129520904Y-77499523D01*
X129520904Y-77804285D01*
X128720904Y-77804285D01*
X128720904Y-77537619D01*
X128759000Y-77461428D01*
X128797095Y-77423333D01*
X128873285Y-77385238D01*
X128949476Y-77385238D01*
X129025666Y-77423333D01*
X129063761Y-77461428D01*
X129101857Y-77537619D01*
X129101857Y-77804285D01*
X128720904Y-76851904D02*
X128720904Y-76699523D01*
X128759000Y-76623333D01*
X128835190Y-76547142D01*
X128987571Y-76509047D01*
X129254238Y-76509047D01*
X129406619Y-76547142D01*
X129482809Y-76623333D01*
X129520904Y-76699523D01*
X129520904Y-76851904D01*
X129482809Y-76928095D01*
X129406619Y-77004285D01*
X129254238Y-77042380D01*
X128987571Y-77042380D01*
X128835190Y-77004285D01*
X128759000Y-76928095D01*
X128720904Y-76851904D01*
X129292333Y-76204285D02*
X129292333Y-75823333D01*
X129520904Y-76280476D02*
X128720904Y-76013809D01*
X129520904Y-75747142D01*
X129520904Y-75023333D02*
X129139952Y-75290000D01*
X129520904Y-75480476D02*
X128720904Y-75480476D01*
X128720904Y-75175714D01*
X128759000Y-75099523D01*
X128797095Y-75061428D01*
X128873285Y-75023333D01*
X128987571Y-75023333D01*
X129063761Y-75061428D01*
X129101857Y-75099523D01*
X129139952Y-75175714D01*
X129139952Y-75480476D01*
X129520904Y-74680476D02*
X128720904Y-74680476D01*
X128720904Y-74490000D01*
X128759000Y-74375714D01*
X128835190Y-74299523D01*
X128911380Y-74261428D01*
X129063761Y-74223333D01*
X129178047Y-74223333D01*
X129330428Y-74261428D01*
X129406619Y-74299523D01*
X129482809Y-74375714D01*
X129520904Y-74490000D01*
X129520904Y-74680476D01*
X130008904Y-85613809D02*
X130808904Y-85347142D01*
X130008904Y-85080476D01*
X130085095Y-84851904D02*
X130047000Y-84813809D01*
X130008904Y-84737619D01*
X130008904Y-84547142D01*
X130047000Y-84470952D01*
X130085095Y-84432857D01*
X130161285Y-84394761D01*
X130237476Y-84394761D01*
X130351761Y-84432857D01*
X130808904Y-84890000D01*
X130808904Y-84394761D01*
D10*
X95474285Y-85605571D02*
X95474285Y-85177000D01*
X96224285Y-85391285D02*
X95474285Y-85391285D01*
X95474285Y-84998428D02*
X96224285Y-84498428D01*
X95474285Y-84498428D02*
X96224285Y-84998428D01*
X95545714Y-84248428D02*
X95510000Y-84212714D01*
X95474285Y-84141285D01*
X95474285Y-83962714D01*
X95510000Y-83891285D01*
X95545714Y-83855571D01*
X95617142Y-83819857D01*
X95688571Y-83819857D01*
X95795714Y-83855571D01*
X96224285Y-84284142D01*
X96224285Y-83819857D01*
X119211285Y-85286142D02*
X118854142Y-85536142D01*
X119211285Y-85714714D02*
X118461285Y-85714714D01*
X118461285Y-85429000D01*
X118497000Y-85357571D01*
X118532714Y-85321857D01*
X118604142Y-85286142D01*
X118711285Y-85286142D01*
X118782714Y-85321857D01*
X118818428Y-85357571D01*
X118854142Y-85429000D01*
X118854142Y-85714714D01*
X118461285Y-85036142D02*
X119211285Y-84536142D01*
X118461285Y-84536142D02*
X119211285Y-85036142D01*
X118532714Y-84286142D02*
X118497000Y-84250428D01*
X118461285Y-84179000D01*
X118461285Y-84000428D01*
X118497000Y-83929000D01*
X118532714Y-83893285D01*
X118604142Y-83857571D01*
X118675571Y-83857571D01*
X118782714Y-83893285D01*
X119211285Y-84321857D01*
X119211285Y-83857571D01*
X93811285Y-85159142D02*
X93454142Y-85409142D01*
X93811285Y-85587714D02*
X93061285Y-85587714D01*
X93061285Y-85302000D01*
X93097000Y-85230571D01*
X93132714Y-85194857D01*
X93204142Y-85159142D01*
X93311285Y-85159142D01*
X93382714Y-85194857D01*
X93418428Y-85230571D01*
X93454142Y-85302000D01*
X93454142Y-85587714D01*
X93061285Y-84909142D02*
X93811285Y-84409142D01*
X93061285Y-84409142D02*
X93811285Y-84909142D01*
X93811285Y-83730571D02*
X93811285Y-84159142D01*
X93811285Y-83944857D02*
X93061285Y-83944857D01*
X93168428Y-84016285D01*
X93239857Y-84087714D01*
X93275571Y-84159142D01*
X90878428Y-85587714D02*
X90878428Y-85337714D01*
X91271285Y-85230571D02*
X91271285Y-85587714D01*
X90521285Y-85587714D01*
X90521285Y-85230571D01*
X91271285Y-84909142D02*
X90521285Y-84909142D01*
X91271285Y-84480571D01*
X90521285Y-84480571D01*
X91271285Y-83730571D02*
X91271285Y-84159142D01*
X91271285Y-83944857D02*
X90521285Y-83944857D01*
X90628428Y-84016285D01*
X90699857Y-84087714D01*
X90735571Y-84159142D01*
X121037000Y-85375428D02*
X121001285Y-85446857D01*
X121001285Y-85554000D01*
X121037000Y-85661142D01*
X121108428Y-85732571D01*
X121179857Y-85768285D01*
X121322714Y-85804000D01*
X121429857Y-85804000D01*
X121572714Y-85768285D01*
X121644142Y-85732571D01*
X121715571Y-85661142D01*
X121751285Y-85554000D01*
X121751285Y-85482571D01*
X121715571Y-85375428D01*
X121679857Y-85339714D01*
X121429857Y-85339714D01*
X121429857Y-85482571D01*
X121751285Y-85018285D02*
X121001285Y-85018285D01*
X121751285Y-84589714D01*
X121001285Y-84589714D01*
X121751285Y-84232571D02*
X121001285Y-84232571D01*
X121001285Y-84054000D01*
X121037000Y-83946857D01*
X121108428Y-83875428D01*
X121179857Y-83839714D01*
X121322714Y-83804000D01*
X121429857Y-83804000D01*
X121572714Y-83839714D01*
X121644142Y-83875428D01*
X121715571Y-83946857D01*
X121751285Y-84054000D01*
X121751285Y-84232571D01*
X87981285Y-85732571D02*
X87981285Y-85304000D01*
X88731285Y-85518285D02*
X87981285Y-85518285D01*
X87981285Y-85125428D02*
X88731285Y-84625428D01*
X87981285Y-84625428D02*
X88731285Y-85125428D01*
X88731285Y-83946857D02*
X88731285Y-84375428D01*
X88731285Y-84161142D02*
X87981285Y-84161142D01*
X88088428Y-84232571D01*
X88159857Y-84304000D01*
X88195571Y-84375428D01*
D12*
%TO.C,U1*%
X124206095Y-92125380D02*
X124206095Y-92934904D01*
X124253714Y-93030142D01*
X124301333Y-93077761D01*
X124396571Y-93125380D01*
X124587047Y-93125380D01*
X124682285Y-93077761D01*
X124729904Y-93030142D01*
X124777523Y-92934904D01*
X124777523Y-92125380D01*
X125777523Y-93125380D02*
X125206095Y-93125380D01*
X125491809Y-93125380D02*
X125491809Y-92125380D01*
X125396571Y-92268238D01*
X125301333Y-92363476D01*
X125206095Y-92411095D01*
%TO.C,J3*%
X80565666Y-110286380D02*
X80565666Y-111000666D01*
X80518047Y-111143523D01*
X80422809Y-111238761D01*
X80279952Y-111286380D01*
X80184714Y-111286380D01*
X80946619Y-110286380D02*
X81565666Y-110286380D01*
X81232333Y-110667333D01*
X81375190Y-110667333D01*
X81470428Y-110714952D01*
X81518047Y-110762571D01*
X81565666Y-110857809D01*
X81565666Y-111095904D01*
X81518047Y-111191142D01*
X81470428Y-111238761D01*
X81375190Y-111286380D01*
X81089476Y-111286380D01*
X80994238Y-111238761D01*
X80946619Y-111191142D01*
%TO.C,C4*%
X90003333Y-111572142D02*
X89955714Y-111619761D01*
X89812857Y-111667380D01*
X89717619Y-111667380D01*
X89574761Y-111619761D01*
X89479523Y-111524523D01*
X89431904Y-111429285D01*
X89384285Y-111238809D01*
X89384285Y-111095952D01*
X89431904Y-110905476D01*
X89479523Y-110810238D01*
X89574761Y-110715000D01*
X89717619Y-110667380D01*
X89812857Y-110667380D01*
X89955714Y-110715000D01*
X90003333Y-110762619D01*
X90860476Y-111000714D02*
X90860476Y-111667380D01*
X90622380Y-110619761D02*
X90384285Y-111334047D01*
X91003333Y-111334047D01*
%TO.C,D4*%
X107211904Y-90077380D02*
X107211904Y-89077380D01*
X107450000Y-89077380D01*
X107592857Y-89125000D01*
X107688095Y-89220238D01*
X107735714Y-89315476D01*
X107783333Y-89505952D01*
X107783333Y-89648809D01*
X107735714Y-89839285D01*
X107688095Y-89934523D01*
X107592857Y-90029761D01*
X107450000Y-90077380D01*
X107211904Y-90077380D01*
X108640476Y-89410714D02*
X108640476Y-90077380D01*
X108402380Y-89029761D02*
X108164285Y-89744047D01*
X108783333Y-89744047D01*
%TO.C,C2*%
X102592142Y-110873666D02*
X102639761Y-110921285D01*
X102687380Y-111064142D01*
X102687380Y-111159380D01*
X102639761Y-111302238D01*
X102544523Y-111397476D01*
X102449285Y-111445095D01*
X102258809Y-111492714D01*
X102115952Y-111492714D01*
X101925476Y-111445095D01*
X101830238Y-111397476D01*
X101735000Y-111302238D01*
X101687380Y-111159380D01*
X101687380Y-111064142D01*
X101735000Y-110921285D01*
X101782619Y-110873666D01*
X101782619Y-110492714D02*
X101735000Y-110445095D01*
X101687380Y-110349857D01*
X101687380Y-110111761D01*
X101735000Y-110016523D01*
X101782619Y-109968904D01*
X101877857Y-109921285D01*
X101973095Y-109921285D01*
X102115952Y-109968904D01*
X102687380Y-110540333D01*
X102687380Y-109921285D01*
%TO.C,R3*%
X122626380Y-114175666D02*
X122150190Y-114509000D01*
X122626380Y-114747095D02*
X121626380Y-114747095D01*
X121626380Y-114366142D01*
X121674000Y-114270904D01*
X121721619Y-114223285D01*
X121816857Y-114175666D01*
X121959714Y-114175666D01*
X122054952Y-114223285D01*
X122102571Y-114270904D01*
X122150190Y-114366142D01*
X122150190Y-114747095D01*
X121626380Y-113842333D02*
X121626380Y-113223285D01*
X122007333Y-113556619D01*
X122007333Y-113413761D01*
X122054952Y-113318523D01*
X122102571Y-113270904D01*
X122197809Y-113223285D01*
X122435904Y-113223285D01*
X122531142Y-113270904D01*
X122578761Y-113318523D01*
X122626380Y-113413761D01*
X122626380Y-113699476D01*
X122578761Y-113794714D01*
X122531142Y-113842333D01*
%TO.C,R8*%
X89114333Y-93380380D02*
X88781000Y-92904190D01*
X88542904Y-93380380D02*
X88542904Y-92380380D01*
X88923857Y-92380380D01*
X89019095Y-92428000D01*
X89066714Y-92475619D01*
X89114333Y-92570857D01*
X89114333Y-92713714D01*
X89066714Y-92808952D01*
X89019095Y-92856571D01*
X88923857Y-92904190D01*
X88542904Y-92904190D01*
X89685761Y-92808952D02*
X89590523Y-92761333D01*
X89542904Y-92713714D01*
X89495285Y-92618476D01*
X89495285Y-92570857D01*
X89542904Y-92475619D01*
X89590523Y-92428000D01*
X89685761Y-92380380D01*
X89876238Y-92380380D01*
X89971476Y-92428000D01*
X90019095Y-92475619D01*
X90066714Y-92570857D01*
X90066714Y-92618476D01*
X90019095Y-92713714D01*
X89971476Y-92761333D01*
X89876238Y-92808952D01*
X89685761Y-92808952D01*
X89590523Y-92856571D01*
X89542904Y-92904190D01*
X89495285Y-92999428D01*
X89495285Y-93189904D01*
X89542904Y-93285142D01*
X89590523Y-93332761D01*
X89685761Y-93380380D01*
X89876238Y-93380380D01*
X89971476Y-93332761D01*
X90019095Y-93285142D01*
X90066714Y-93189904D01*
X90066714Y-92999428D01*
X90019095Y-92904190D01*
X89971476Y-92856571D01*
X89876238Y-92808952D01*
%TO.C,R6*%
X108164333Y-114716380D02*
X107831000Y-114240190D01*
X107592904Y-114716380D02*
X107592904Y-113716380D01*
X107973857Y-113716380D01*
X108069095Y-113764000D01*
X108116714Y-113811619D01*
X108164333Y-113906857D01*
X108164333Y-114049714D01*
X108116714Y-114144952D01*
X108069095Y-114192571D01*
X107973857Y-114240190D01*
X107592904Y-114240190D01*
X109021476Y-113716380D02*
X108831000Y-113716380D01*
X108735761Y-113764000D01*
X108688142Y-113811619D01*
X108592904Y-113954476D01*
X108545285Y-114144952D01*
X108545285Y-114525904D01*
X108592904Y-114621142D01*
X108640523Y-114668761D01*
X108735761Y-114716380D01*
X108926238Y-114716380D01*
X109021476Y-114668761D01*
X109069095Y-114621142D01*
X109116714Y-114525904D01*
X109116714Y-114287809D01*
X109069095Y-114192571D01*
X109021476Y-114144952D01*
X108926238Y-114097333D01*
X108735761Y-114097333D01*
X108640523Y-114144952D01*
X108592904Y-114192571D01*
X108545285Y-114287809D01*
%TO.C,D3*%
X112182904Y-90077380D02*
X112182904Y-89077380D01*
X112421000Y-89077380D01*
X112563857Y-89125000D01*
X112659095Y-89220238D01*
X112706714Y-89315476D01*
X112754333Y-89505952D01*
X112754333Y-89648809D01*
X112706714Y-89839285D01*
X112659095Y-89934523D01*
X112563857Y-90029761D01*
X112421000Y-90077380D01*
X112182904Y-90077380D01*
X113087666Y-89077380D02*
X113706714Y-89077380D01*
X113373380Y-89458333D01*
X113516238Y-89458333D01*
X113611476Y-89505952D01*
X113659095Y-89553571D01*
X113706714Y-89648809D01*
X113706714Y-89886904D01*
X113659095Y-89982142D01*
X113611476Y-90029761D01*
X113516238Y-90077380D01*
X113230523Y-90077380D01*
X113135285Y-90029761D01*
X113087666Y-89982142D01*
%TO.C,C5*%
X80986333Y-120208142D02*
X80938714Y-120255761D01*
X80795857Y-120303380D01*
X80700619Y-120303380D01*
X80557761Y-120255761D01*
X80462523Y-120160523D01*
X80414904Y-120065285D01*
X80367285Y-119874809D01*
X80367285Y-119731952D01*
X80414904Y-119541476D01*
X80462523Y-119446238D01*
X80557761Y-119351000D01*
X80700619Y-119303380D01*
X80795857Y-119303380D01*
X80938714Y-119351000D01*
X80986333Y-119398619D01*
X81891095Y-119303380D02*
X81414904Y-119303380D01*
X81367285Y-119779571D01*
X81414904Y-119731952D01*
X81510142Y-119684333D01*
X81748238Y-119684333D01*
X81843476Y-119731952D01*
X81891095Y-119779571D01*
X81938714Y-119874809D01*
X81938714Y-120112904D01*
X81891095Y-120208142D01*
X81843476Y-120255761D01*
X81748238Y-120303380D01*
X81510142Y-120303380D01*
X81414904Y-120255761D01*
X81367285Y-120208142D01*
%TO.C,C1*%
X104751142Y-110873666D02*
X104798761Y-110921285D01*
X104846380Y-111064142D01*
X104846380Y-111159380D01*
X104798761Y-111302238D01*
X104703523Y-111397476D01*
X104608285Y-111445095D01*
X104417809Y-111492714D01*
X104274952Y-111492714D01*
X104084476Y-111445095D01*
X103989238Y-111397476D01*
X103894000Y-111302238D01*
X103846380Y-111159380D01*
X103846380Y-111064142D01*
X103894000Y-110921285D01*
X103941619Y-110873666D01*
X104846380Y-109921285D02*
X104846380Y-110492714D01*
X104846380Y-110207000D02*
X103846380Y-110207000D01*
X103989238Y-110302238D01*
X104084476Y-110397476D01*
X104132095Y-110492714D01*
%TO.C,R13*%
X90670142Y-101507380D02*
X90336809Y-101031190D01*
X90098714Y-101507380D02*
X90098714Y-100507380D01*
X90479666Y-100507380D01*
X90574904Y-100555000D01*
X90622523Y-100602619D01*
X90670142Y-100697857D01*
X90670142Y-100840714D01*
X90622523Y-100935952D01*
X90574904Y-100983571D01*
X90479666Y-101031190D01*
X90098714Y-101031190D01*
X91622523Y-101507380D02*
X91051095Y-101507380D01*
X91336809Y-101507380D02*
X91336809Y-100507380D01*
X91241571Y-100650238D01*
X91146333Y-100745476D01*
X91051095Y-100793095D01*
X91955857Y-100507380D02*
X92574904Y-100507380D01*
X92241571Y-100888333D01*
X92384428Y-100888333D01*
X92479666Y-100935952D01*
X92527285Y-100983571D01*
X92574904Y-101078809D01*
X92574904Y-101316904D01*
X92527285Y-101412142D01*
X92479666Y-101459761D01*
X92384428Y-101507380D01*
X92098714Y-101507380D01*
X92003476Y-101459761D01*
X91955857Y-101412142D01*
%TO.C,C3*%
X92289333Y-111572142D02*
X92241714Y-111619761D01*
X92098857Y-111667380D01*
X92003619Y-111667380D01*
X91860761Y-111619761D01*
X91765523Y-111524523D01*
X91717904Y-111429285D01*
X91670285Y-111238809D01*
X91670285Y-111095952D01*
X91717904Y-110905476D01*
X91765523Y-110810238D01*
X91860761Y-110715000D01*
X92003619Y-110667380D01*
X92098857Y-110667380D01*
X92241714Y-110715000D01*
X92289333Y-110762619D01*
X92622666Y-110667380D02*
X93241714Y-110667380D01*
X92908380Y-111048333D01*
X93051238Y-111048333D01*
X93146476Y-111095952D01*
X93194095Y-111143571D01*
X93241714Y-111238809D01*
X93241714Y-111476904D01*
X93194095Y-111572142D01*
X93146476Y-111619761D01*
X93051238Y-111667380D01*
X92765523Y-111667380D01*
X92670285Y-111619761D01*
X92622666Y-111572142D01*
%TO.C,U3*%
X96607380Y-117945904D02*
X97416904Y-117945904D01*
X97512142Y-117898285D01*
X97559761Y-117850666D01*
X97607380Y-117755428D01*
X97607380Y-117564952D01*
X97559761Y-117469714D01*
X97512142Y-117422095D01*
X97416904Y-117374476D01*
X96607380Y-117374476D01*
X96607380Y-116993523D02*
X96607380Y-116374476D01*
X96988333Y-116707809D01*
X96988333Y-116564952D01*
X97035952Y-116469714D01*
X97083571Y-116422095D01*
X97178809Y-116374476D01*
X97416904Y-116374476D01*
X97512142Y-116422095D01*
X97559761Y-116469714D01*
X97607380Y-116564952D01*
X97607380Y-116850666D01*
X97559761Y-116945904D01*
X97512142Y-116993523D01*
%TO.C,D2*%
X117244904Y-89950380D02*
X117244904Y-88950380D01*
X117483000Y-88950380D01*
X117625857Y-88998000D01*
X117721095Y-89093238D01*
X117768714Y-89188476D01*
X117816333Y-89378952D01*
X117816333Y-89521809D01*
X117768714Y-89712285D01*
X117721095Y-89807523D01*
X117625857Y-89902761D01*
X117483000Y-89950380D01*
X117244904Y-89950380D01*
X118197285Y-89045619D02*
X118244904Y-88998000D01*
X118340142Y-88950380D01*
X118578238Y-88950380D01*
X118673476Y-88998000D01*
X118721095Y-89045619D01*
X118768714Y-89140857D01*
X118768714Y-89236095D01*
X118721095Y-89378952D01*
X118149666Y-89950380D01*
X118768714Y-89950380D01*
%TO.C,C8*%
X86193333Y-110048142D02*
X86145714Y-110095761D01*
X86002857Y-110143380D01*
X85907619Y-110143380D01*
X85764761Y-110095761D01*
X85669523Y-110000523D01*
X85621904Y-109905285D01*
X85574285Y-109714809D01*
X85574285Y-109571952D01*
X85621904Y-109381476D01*
X85669523Y-109286238D01*
X85764761Y-109191000D01*
X85907619Y-109143380D01*
X86002857Y-109143380D01*
X86145714Y-109191000D01*
X86193333Y-109238619D01*
X86764761Y-109571952D02*
X86669523Y-109524333D01*
X86621904Y-109476714D01*
X86574285Y-109381476D01*
X86574285Y-109333857D01*
X86621904Y-109238619D01*
X86669523Y-109191000D01*
X86764761Y-109143380D01*
X86955238Y-109143380D01*
X87050476Y-109191000D01*
X87098095Y-109238619D01*
X87145714Y-109333857D01*
X87145714Y-109381476D01*
X87098095Y-109476714D01*
X87050476Y-109524333D01*
X86955238Y-109571952D01*
X86764761Y-109571952D01*
X86669523Y-109619571D01*
X86621904Y-109667190D01*
X86574285Y-109762428D01*
X86574285Y-109952904D01*
X86621904Y-110048142D01*
X86669523Y-110095761D01*
X86764761Y-110143380D01*
X86955238Y-110143380D01*
X87050476Y-110095761D01*
X87098095Y-110048142D01*
X87145714Y-109952904D01*
X87145714Y-109762428D01*
X87098095Y-109667190D01*
X87050476Y-109619571D01*
X86955238Y-109571952D01*
%TO.C,U5*%
X88646095Y-106984380D02*
X88646095Y-107793904D01*
X88693714Y-107889142D01*
X88741333Y-107936761D01*
X88836571Y-107984380D01*
X89027047Y-107984380D01*
X89122285Y-107936761D01*
X89169904Y-107889142D01*
X89217523Y-107793904D01*
X89217523Y-106984380D01*
X90169904Y-106984380D02*
X89693714Y-106984380D01*
X89646095Y-107460571D01*
X89693714Y-107412952D01*
X89788952Y-107365333D01*
X90027047Y-107365333D01*
X90122285Y-107412952D01*
X90169904Y-107460571D01*
X90217523Y-107555809D01*
X90217523Y-107793904D01*
X90169904Y-107889142D01*
X90122285Y-107936761D01*
X90027047Y-107984380D01*
X89788952Y-107984380D01*
X89693714Y-107936761D01*
X89646095Y-107889142D01*
%TO.C,BT1*%
X99417285Y-92982571D02*
X99560142Y-93030190D01*
X99607761Y-93077809D01*
X99655380Y-93173047D01*
X99655380Y-93315904D01*
X99607761Y-93411142D01*
X99560142Y-93458761D01*
X99464904Y-93506380D01*
X99083952Y-93506380D01*
X99083952Y-92506380D01*
X99417285Y-92506380D01*
X99512523Y-92554000D01*
X99560142Y-92601619D01*
X99607761Y-92696857D01*
X99607761Y-92792095D01*
X99560142Y-92887333D01*
X99512523Y-92934952D01*
X99417285Y-92982571D01*
X99083952Y-92982571D01*
X99941095Y-92506380D02*
X100512523Y-92506380D01*
X100226809Y-93506380D02*
X100226809Y-92506380D01*
X101369666Y-93506380D02*
X100798238Y-93506380D01*
X101083952Y-93506380D02*
X101083952Y-92506380D01*
X100988714Y-92649238D01*
X100893476Y-92744476D01*
X100798238Y-92792095D01*
X92773571Y-97705142D02*
X93916428Y-97705142D01*
X93345000Y-98276571D02*
X93345000Y-97133714D01*
X102933571Y-97705142D02*
X104076428Y-97705142D01*
X103505000Y-98276571D02*
X103505000Y-97133714D01*
%TO.C,R1*%
X91273333Y-119033380D02*
X90940000Y-118557190D01*
X90701904Y-119033380D02*
X90701904Y-118033380D01*
X91082857Y-118033380D01*
X91178095Y-118081000D01*
X91225714Y-118128619D01*
X91273333Y-118223857D01*
X91273333Y-118366714D01*
X91225714Y-118461952D01*
X91178095Y-118509571D01*
X91082857Y-118557190D01*
X90701904Y-118557190D01*
X92225714Y-119033380D02*
X91654285Y-119033380D01*
X91940000Y-119033380D02*
X91940000Y-118033380D01*
X91844761Y-118176238D01*
X91749523Y-118271476D01*
X91654285Y-118319095D01*
%TO.C,R12*%
X93075890Y-107984380D02*
X92742557Y-107508190D01*
X92504462Y-107984380D02*
X92504462Y-106984380D01*
X92885414Y-106984380D01*
X92980652Y-107032000D01*
X93028271Y-107079619D01*
X93075890Y-107174857D01*
X93075890Y-107317714D01*
X93028271Y-107412952D01*
X92980652Y-107460571D01*
X92885414Y-107508190D01*
X92504462Y-107508190D01*
X94028271Y-107984380D02*
X93456843Y-107984380D01*
X93742557Y-107984380D02*
X93742557Y-106984380D01*
X93647319Y-107127238D01*
X93552081Y-107222476D01*
X93456843Y-107270095D01*
X94409224Y-107079619D02*
X94456843Y-107032000D01*
X94552081Y-106984380D01*
X94790176Y-106984380D01*
X94885414Y-107032000D01*
X94933033Y-107079619D01*
X94980652Y-107174857D01*
X94980652Y-107270095D01*
X94933033Y-107412952D01*
X94361605Y-107984380D01*
X94980652Y-107984380D01*
%TO.C,D1*%
X121943904Y-89823380D02*
X121943904Y-88823380D01*
X122182000Y-88823380D01*
X122324857Y-88871000D01*
X122420095Y-88966238D01*
X122467714Y-89061476D01*
X122515333Y-89251952D01*
X122515333Y-89394809D01*
X122467714Y-89585285D01*
X122420095Y-89680523D01*
X122324857Y-89775761D01*
X122182000Y-89823380D01*
X121943904Y-89823380D01*
X123467714Y-89823380D02*
X122896285Y-89823380D01*
X123182000Y-89823380D02*
X123182000Y-88823380D01*
X123086761Y-88966238D01*
X122991523Y-89061476D01*
X122896285Y-89109095D01*
%TO.C,U2*%
X88488380Y-117056904D02*
X89297904Y-117056904D01*
X89393142Y-117009285D01*
X89440761Y-116961666D01*
X89488380Y-116866428D01*
X89488380Y-116675952D01*
X89440761Y-116580714D01*
X89393142Y-116533095D01*
X89297904Y-116485476D01*
X88488380Y-116485476D01*
X88583619Y-116056904D02*
X88536000Y-116009285D01*
X88488380Y-115914047D01*
X88488380Y-115675952D01*
X88536000Y-115580714D01*
X88583619Y-115533095D01*
X88678857Y-115485476D01*
X88774095Y-115485476D01*
X88916952Y-115533095D01*
X89488380Y-116104523D01*
X89488380Y-115485476D01*
%TO.C,R10*%
X80891142Y-125256380D02*
X80557809Y-124780190D01*
X80319714Y-125256380D02*
X80319714Y-124256380D01*
X80700666Y-124256380D01*
X80795904Y-124304000D01*
X80843523Y-124351619D01*
X80891142Y-124446857D01*
X80891142Y-124589714D01*
X80843523Y-124684952D01*
X80795904Y-124732571D01*
X80700666Y-124780190D01*
X80319714Y-124780190D01*
X81843523Y-125256380D02*
X81272095Y-125256380D01*
X81557809Y-125256380D02*
X81557809Y-124256380D01*
X81462571Y-124399238D01*
X81367333Y-124494476D01*
X81272095Y-124542095D01*
X82462571Y-124256380D02*
X82557809Y-124256380D01*
X82653047Y-124304000D01*
X82700666Y-124351619D01*
X82748285Y-124446857D01*
X82795904Y-124637333D01*
X82795904Y-124875428D01*
X82748285Y-125065904D01*
X82700666Y-125161142D01*
X82653047Y-125208761D01*
X82557809Y-125256380D01*
X82462571Y-125256380D01*
X82367333Y-125208761D01*
X82319714Y-125161142D01*
X82272095Y-125065904D01*
X82224476Y-124875428D01*
X82224476Y-124637333D01*
X82272095Y-124446857D01*
X82319714Y-124351619D01*
X82367333Y-124304000D01*
X82462571Y-124256380D01*
%TO.C,R11*%
X84828142Y-95284380D02*
X84494809Y-94808190D01*
X84256714Y-95284380D02*
X84256714Y-94284380D01*
X84637666Y-94284380D01*
X84732904Y-94332000D01*
X84780523Y-94379619D01*
X84828142Y-94474857D01*
X84828142Y-94617714D01*
X84780523Y-94712952D01*
X84732904Y-94760571D01*
X84637666Y-94808190D01*
X84256714Y-94808190D01*
X85780523Y-95284380D02*
X85209095Y-95284380D01*
X85494809Y-95284380D02*
X85494809Y-94284380D01*
X85399571Y-94427238D01*
X85304333Y-94522476D01*
X85209095Y-94570095D01*
X86732904Y-95284380D02*
X86161476Y-95284380D01*
X86447190Y-95284380D02*
X86447190Y-94284380D01*
X86351952Y-94427238D01*
X86256714Y-94522476D01*
X86161476Y-94570095D01*
%TO.C,C6*%
X91146333Y-108368142D02*
X91098714Y-108415761D01*
X90955857Y-108463380D01*
X90860619Y-108463380D01*
X90717761Y-108415761D01*
X90622523Y-108320523D01*
X90574904Y-108225285D01*
X90527285Y-108034809D01*
X90527285Y-107891952D01*
X90574904Y-107701476D01*
X90622523Y-107606238D01*
X90717761Y-107511000D01*
X90860619Y-107463380D01*
X90955857Y-107463380D01*
X91098714Y-107511000D01*
X91146333Y-107558619D01*
X92003476Y-107463380D02*
X91813000Y-107463380D01*
X91717761Y-107511000D01*
X91670142Y-107558619D01*
X91574904Y-107701476D01*
X91527285Y-107891952D01*
X91527285Y-108272904D01*
X91574904Y-108368142D01*
X91622523Y-108415761D01*
X91717761Y-108463380D01*
X91908238Y-108463380D01*
X92003476Y-108415761D01*
X92051095Y-108368142D01*
X92098714Y-108272904D01*
X92098714Y-108034809D01*
X92051095Y-107939571D01*
X92003476Y-107891952D01*
X91908238Y-107844333D01*
X91717761Y-107844333D01*
X91622523Y-107891952D01*
X91574904Y-107939571D01*
X91527285Y-108034809D01*
%TO.C,J1*%
X96988380Y-119803333D02*
X97702666Y-119803333D01*
X97845523Y-119850952D01*
X97940761Y-119946190D01*
X97988380Y-120089047D01*
X97988380Y-120184285D01*
X97988380Y-118803333D02*
X97988380Y-119374761D01*
X97988380Y-119089047D02*
X96988380Y-119089047D01*
X97131238Y-119184285D01*
X97226476Y-119279523D01*
X97274095Y-119374761D01*
%TO.C,R9*%
X80986333Y-122589380D02*
X80653000Y-122113190D01*
X80414904Y-122589380D02*
X80414904Y-121589380D01*
X80795857Y-121589380D01*
X80891095Y-121637000D01*
X80938714Y-121684619D01*
X80986333Y-121779857D01*
X80986333Y-121922714D01*
X80938714Y-122017952D01*
X80891095Y-122065571D01*
X80795857Y-122113190D01*
X80414904Y-122113190D01*
X81462523Y-122589380D02*
X81653000Y-122589380D01*
X81748238Y-122541761D01*
X81795857Y-122494142D01*
X81891095Y-122351285D01*
X81938714Y-122160809D01*
X81938714Y-121779857D01*
X81891095Y-121684619D01*
X81843476Y-121637000D01*
X81748238Y-121589380D01*
X81557761Y-121589380D01*
X81462523Y-121637000D01*
X81414904Y-121684619D01*
X81367285Y-121779857D01*
X81367285Y-122017952D01*
X81414904Y-122113190D01*
X81462523Y-122160809D01*
X81557761Y-122208428D01*
X81748238Y-122208428D01*
X81843476Y-122160809D01*
X81891095Y-122113190D01*
X81938714Y-122017952D01*
%TO.C,SW1*%
X88684666Y-90945261D02*
X88827523Y-90992880D01*
X89065619Y-90992880D01*
X89160857Y-90945261D01*
X89208476Y-90897642D01*
X89256095Y-90802404D01*
X89256095Y-90707166D01*
X89208476Y-90611928D01*
X89160857Y-90564309D01*
X89065619Y-90516690D01*
X88875142Y-90469071D01*
X88779904Y-90421452D01*
X88732285Y-90373833D01*
X88684666Y-90278595D01*
X88684666Y-90183357D01*
X88732285Y-90088119D01*
X88779904Y-90040500D01*
X88875142Y-89992880D01*
X89113238Y-89992880D01*
X89256095Y-90040500D01*
X89589428Y-89992880D02*
X89827523Y-90992880D01*
X90018000Y-90278595D01*
X90208476Y-90992880D01*
X90446571Y-89992880D01*
X91351333Y-90992880D02*
X90779904Y-90992880D01*
X91065619Y-90992880D02*
X91065619Y-89992880D01*
X90970380Y-90135738D01*
X90875142Y-90230976D01*
X90779904Y-90278595D01*
%TO.C,D6*%
X96797904Y-90077380D02*
X96797904Y-89077380D01*
X97036000Y-89077380D01*
X97178857Y-89125000D01*
X97274095Y-89220238D01*
X97321714Y-89315476D01*
X97369333Y-89505952D01*
X97369333Y-89648809D01*
X97321714Y-89839285D01*
X97274095Y-89934523D01*
X97178857Y-90029761D01*
X97036000Y-90077380D01*
X96797904Y-90077380D01*
X98226476Y-89077380D02*
X98036000Y-89077380D01*
X97940761Y-89125000D01*
X97893142Y-89172619D01*
X97797904Y-89315476D01*
X97750285Y-89505952D01*
X97750285Y-89886904D01*
X97797904Y-89982142D01*
X97845523Y-90029761D01*
X97940761Y-90077380D01*
X98131238Y-90077380D01*
X98226476Y-90029761D01*
X98274095Y-89982142D01*
X98321714Y-89886904D01*
X98321714Y-89648809D01*
X98274095Y-89553571D01*
X98226476Y-89505952D01*
X98131238Y-89458333D01*
X97940761Y-89458333D01*
X97845523Y-89505952D01*
X97797904Y-89553571D01*
X97750285Y-89648809D01*
%TO.C,C9*%
X94067333Y-109159142D02*
X94019714Y-109206761D01*
X93876857Y-109254380D01*
X93781619Y-109254380D01*
X93638761Y-109206761D01*
X93543523Y-109111523D01*
X93495904Y-109016285D01*
X93448285Y-108825809D01*
X93448285Y-108682952D01*
X93495904Y-108492476D01*
X93543523Y-108397238D01*
X93638761Y-108302000D01*
X93781619Y-108254380D01*
X93876857Y-108254380D01*
X94019714Y-108302000D01*
X94067333Y-108349619D01*
X94543523Y-109254380D02*
X94734000Y-109254380D01*
X94829238Y-109206761D01*
X94876857Y-109159142D01*
X94972095Y-109016285D01*
X95019714Y-108825809D01*
X95019714Y-108444857D01*
X94972095Y-108349619D01*
X94924476Y-108302000D01*
X94829238Y-108254380D01*
X94638761Y-108254380D01*
X94543523Y-108302000D01*
X94495904Y-108349619D01*
X94448285Y-108444857D01*
X94448285Y-108682952D01*
X94495904Y-108778190D01*
X94543523Y-108825809D01*
X94638761Y-108873428D01*
X94829238Y-108873428D01*
X94924476Y-108825809D01*
X94972095Y-108778190D01*
X95019714Y-108682952D01*
%TO.C,C7*%
X85019833Y-98364142D02*
X84972214Y-98411761D01*
X84829357Y-98459380D01*
X84734119Y-98459380D01*
X84591261Y-98411761D01*
X84496023Y-98316523D01*
X84448404Y-98221285D01*
X84400785Y-98030809D01*
X84400785Y-97887952D01*
X84448404Y-97697476D01*
X84496023Y-97602238D01*
X84591261Y-97507000D01*
X84734119Y-97459380D01*
X84829357Y-97459380D01*
X84972214Y-97507000D01*
X85019833Y-97554619D01*
X85353166Y-97459380D02*
X86019833Y-97459380D01*
X85591261Y-98459380D01*
%TO.C,J2*%
X125750380Y-122306333D02*
X126464666Y-122306333D01*
X126607523Y-122353952D01*
X126702761Y-122449190D01*
X126750380Y-122592047D01*
X126750380Y-122687285D01*
X125845619Y-121877761D02*
X125798000Y-121830142D01*
X125750380Y-121734904D01*
X125750380Y-121496809D01*
X125798000Y-121401571D01*
X125845619Y-121353952D01*
X125940857Y-121306333D01*
X126036095Y-121306333D01*
X126178952Y-121353952D01*
X126750380Y-121925380D01*
X126750380Y-121306333D01*
%TO.C,D5*%
X101877904Y-90077380D02*
X101877904Y-89077380D01*
X102116000Y-89077380D01*
X102258857Y-89125000D01*
X102354095Y-89220238D01*
X102401714Y-89315476D01*
X102449333Y-89505952D01*
X102449333Y-89648809D01*
X102401714Y-89839285D01*
X102354095Y-89934523D01*
X102258857Y-90029761D01*
X102116000Y-90077380D01*
X101877904Y-90077380D01*
X103354095Y-89077380D02*
X102877904Y-89077380D01*
X102830285Y-89553571D01*
X102877904Y-89505952D01*
X102973142Y-89458333D01*
X103211238Y-89458333D01*
X103306476Y-89505952D01*
X103354095Y-89553571D01*
X103401714Y-89648809D01*
X103401714Y-89886904D01*
X103354095Y-89982142D01*
X103306476Y-90029761D01*
X103211238Y-90077380D01*
X102973142Y-90077380D01*
X102877904Y-90029761D01*
X102830285Y-89982142D01*
%TO.C,R5*%
X117419380Y-114175666D02*
X116943190Y-114509000D01*
X117419380Y-114747095D02*
X116419380Y-114747095D01*
X116419380Y-114366142D01*
X116467000Y-114270904D01*
X116514619Y-114223285D01*
X116609857Y-114175666D01*
X116752714Y-114175666D01*
X116847952Y-114223285D01*
X116895571Y-114270904D01*
X116943190Y-114366142D01*
X116943190Y-114747095D01*
X116419380Y-113270904D02*
X116419380Y-113747095D01*
X116895571Y-113794714D01*
X116847952Y-113747095D01*
X116800333Y-113651857D01*
X116800333Y-113413761D01*
X116847952Y-113318523D01*
X116895571Y-113270904D01*
X116990809Y-113223285D01*
X117228904Y-113223285D01*
X117324142Y-113270904D01*
X117371761Y-113318523D01*
X117419380Y-113413761D01*
X117419380Y-113651857D01*
X117371761Y-113747095D01*
X117324142Y-113794714D01*
%TO.C,U4*%
X99695095Y-106730380D02*
X99695095Y-107539904D01*
X99742714Y-107635142D01*
X99790333Y-107682761D01*
X99885571Y-107730380D01*
X100076047Y-107730380D01*
X100171285Y-107682761D01*
X100218904Y-107635142D01*
X100266523Y-107539904D01*
X100266523Y-106730380D01*
X101171285Y-107063714D02*
X101171285Y-107730380D01*
X100933190Y-106682761D02*
X100695095Y-107397047D01*
X101314142Y-107397047D01*
%TO.C,R4*%
X119959380Y-114175666D02*
X119483190Y-114509000D01*
X119959380Y-114747095D02*
X118959380Y-114747095D01*
X118959380Y-114366142D01*
X119007000Y-114270904D01*
X119054619Y-114223285D01*
X119149857Y-114175666D01*
X119292714Y-114175666D01*
X119387952Y-114223285D01*
X119435571Y-114270904D01*
X119483190Y-114366142D01*
X119483190Y-114747095D01*
X119292714Y-113318523D02*
X119959380Y-113318523D01*
X118911761Y-113556619D02*
X119626047Y-113794714D01*
X119626047Y-113175666D01*
%TO.C,R7*%
X112482333Y-114716380D02*
X112149000Y-114240190D01*
X111910904Y-114716380D02*
X111910904Y-113716380D01*
X112291857Y-113716380D01*
X112387095Y-113764000D01*
X112434714Y-113811619D01*
X112482333Y-113906857D01*
X112482333Y-114049714D01*
X112434714Y-114144952D01*
X112387095Y-114192571D01*
X112291857Y-114240190D01*
X111910904Y-114240190D01*
X112815666Y-113716380D02*
X113482333Y-113716380D01*
X113053761Y-114716380D01*
%TO.C,R2*%
X125293380Y-114175666D02*
X124817190Y-114509000D01*
X125293380Y-114747095D02*
X124293380Y-114747095D01*
X124293380Y-114366142D01*
X124341000Y-114270904D01*
X124388619Y-114223285D01*
X124483857Y-114175666D01*
X124626714Y-114175666D01*
X124721952Y-114223285D01*
X124769571Y-114270904D01*
X124817190Y-114366142D01*
X124817190Y-114747095D01*
X124388619Y-113794714D02*
X124341000Y-113747095D01*
X124293380Y-113651857D01*
X124293380Y-113413761D01*
X124341000Y-113318523D01*
X124388619Y-113270904D01*
X124483857Y-113223285D01*
X124579095Y-113223285D01*
X124721952Y-113270904D01*
X125293380Y-113842333D01*
X125293380Y-113223285D01*
%TO.C,R10*%
X80891142Y-85256380D02*
X80557809Y-84780190D01*
X80319714Y-85256380D02*
X80319714Y-84256380D01*
X80700666Y-84256380D01*
X80795904Y-84304000D01*
X80843523Y-84351619D01*
X80891142Y-84446857D01*
X80891142Y-84589714D01*
X80843523Y-84684952D01*
X80795904Y-84732571D01*
X80700666Y-84780190D01*
X80319714Y-84780190D01*
X81843523Y-85256380D02*
X81272095Y-85256380D01*
X81557809Y-85256380D02*
X81557809Y-84256380D01*
X81462571Y-84399238D01*
X81367333Y-84494476D01*
X81272095Y-84542095D01*
X82462571Y-84256380D02*
X82557809Y-84256380D01*
X82653047Y-84304000D01*
X82700666Y-84351619D01*
X82748285Y-84446857D01*
X82795904Y-84637333D01*
X82795904Y-84875428D01*
X82748285Y-85065904D01*
X82700666Y-85161142D01*
X82653047Y-85208761D01*
X82557809Y-85256380D01*
X82462571Y-85256380D01*
X82367333Y-85208761D01*
X82319714Y-85161142D01*
X82272095Y-85065904D01*
X82224476Y-84875428D01*
X82224476Y-84637333D01*
X82272095Y-84446857D01*
X82319714Y-84351619D01*
X82367333Y-84304000D01*
X82462571Y-84256380D01*
%TO.C,R4*%
X119959380Y-74175666D02*
X119483190Y-74509000D01*
X119959380Y-74747095D02*
X118959380Y-74747095D01*
X118959380Y-74366142D01*
X119007000Y-74270904D01*
X119054619Y-74223285D01*
X119149857Y-74175666D01*
X119292714Y-74175666D01*
X119387952Y-74223285D01*
X119435571Y-74270904D01*
X119483190Y-74366142D01*
X119483190Y-74747095D01*
X119292714Y-73318523D02*
X119959380Y-73318523D01*
X118911761Y-73556619D02*
X119626047Y-73794714D01*
X119626047Y-73175666D01*
%TO.C,R11*%
X84828142Y-55284380D02*
X84494809Y-54808190D01*
X84256714Y-55284380D02*
X84256714Y-54284380D01*
X84637666Y-54284380D01*
X84732904Y-54332000D01*
X84780523Y-54379619D01*
X84828142Y-54474857D01*
X84828142Y-54617714D01*
X84780523Y-54712952D01*
X84732904Y-54760571D01*
X84637666Y-54808190D01*
X84256714Y-54808190D01*
X85780523Y-55284380D02*
X85209095Y-55284380D01*
X85494809Y-55284380D02*
X85494809Y-54284380D01*
X85399571Y-54427238D01*
X85304333Y-54522476D01*
X85209095Y-54570095D01*
X86732904Y-55284380D02*
X86161476Y-55284380D01*
X86447190Y-55284380D02*
X86447190Y-54284380D01*
X86351952Y-54427238D01*
X86256714Y-54522476D01*
X86161476Y-54570095D01*
%TO.C,C9*%
X94067333Y-69159142D02*
X94019714Y-69206761D01*
X93876857Y-69254380D01*
X93781619Y-69254380D01*
X93638761Y-69206761D01*
X93543523Y-69111523D01*
X93495904Y-69016285D01*
X93448285Y-68825809D01*
X93448285Y-68682952D01*
X93495904Y-68492476D01*
X93543523Y-68397238D01*
X93638761Y-68302000D01*
X93781619Y-68254380D01*
X93876857Y-68254380D01*
X94019714Y-68302000D01*
X94067333Y-68349619D01*
X94543523Y-69254380D02*
X94734000Y-69254380D01*
X94829238Y-69206761D01*
X94876857Y-69159142D01*
X94972095Y-69016285D01*
X95019714Y-68825809D01*
X95019714Y-68444857D01*
X94972095Y-68349619D01*
X94924476Y-68302000D01*
X94829238Y-68254380D01*
X94638761Y-68254380D01*
X94543523Y-68302000D01*
X94495904Y-68349619D01*
X94448285Y-68444857D01*
X94448285Y-68682952D01*
X94495904Y-68778190D01*
X94543523Y-68825809D01*
X94638761Y-68873428D01*
X94829238Y-68873428D01*
X94924476Y-68825809D01*
X94972095Y-68778190D01*
X95019714Y-68682952D01*
%TO.C,C6*%
X91146333Y-68368142D02*
X91098714Y-68415761D01*
X90955857Y-68463380D01*
X90860619Y-68463380D01*
X90717761Y-68415761D01*
X90622523Y-68320523D01*
X90574904Y-68225285D01*
X90527285Y-68034809D01*
X90527285Y-67891952D01*
X90574904Y-67701476D01*
X90622523Y-67606238D01*
X90717761Y-67511000D01*
X90860619Y-67463380D01*
X90955857Y-67463380D01*
X91098714Y-67511000D01*
X91146333Y-67558619D01*
X92003476Y-67463380D02*
X91813000Y-67463380D01*
X91717761Y-67511000D01*
X91670142Y-67558619D01*
X91574904Y-67701476D01*
X91527285Y-67891952D01*
X91527285Y-68272904D01*
X91574904Y-68368142D01*
X91622523Y-68415761D01*
X91717761Y-68463380D01*
X91908238Y-68463380D01*
X92003476Y-68415761D01*
X92051095Y-68368142D01*
X92098714Y-68272904D01*
X92098714Y-68034809D01*
X92051095Y-67939571D01*
X92003476Y-67891952D01*
X91908238Y-67844333D01*
X91717761Y-67844333D01*
X91622523Y-67891952D01*
X91574904Y-67939571D01*
X91527285Y-68034809D01*
%TO.C,R7*%
X112482333Y-74716380D02*
X112149000Y-74240190D01*
X111910904Y-74716380D02*
X111910904Y-73716380D01*
X112291857Y-73716380D01*
X112387095Y-73764000D01*
X112434714Y-73811619D01*
X112482333Y-73906857D01*
X112482333Y-74049714D01*
X112434714Y-74144952D01*
X112387095Y-74192571D01*
X112291857Y-74240190D01*
X111910904Y-74240190D01*
X112815666Y-73716380D02*
X113482333Y-73716380D01*
X113053761Y-74716380D01*
%TO.C,D2*%
X117244904Y-49950380D02*
X117244904Y-48950380D01*
X117483000Y-48950380D01*
X117625857Y-48998000D01*
X117721095Y-49093238D01*
X117768714Y-49188476D01*
X117816333Y-49378952D01*
X117816333Y-49521809D01*
X117768714Y-49712285D01*
X117721095Y-49807523D01*
X117625857Y-49902761D01*
X117483000Y-49950380D01*
X117244904Y-49950380D01*
X118197285Y-49045619D02*
X118244904Y-48998000D01*
X118340142Y-48950380D01*
X118578238Y-48950380D01*
X118673476Y-48998000D01*
X118721095Y-49045619D01*
X118768714Y-49140857D01*
X118768714Y-49236095D01*
X118721095Y-49378952D01*
X118149666Y-49950380D01*
X118768714Y-49950380D01*
%TO.C,C8*%
X86193333Y-70048142D02*
X86145714Y-70095761D01*
X86002857Y-70143380D01*
X85907619Y-70143380D01*
X85764761Y-70095761D01*
X85669523Y-70000523D01*
X85621904Y-69905285D01*
X85574285Y-69714809D01*
X85574285Y-69571952D01*
X85621904Y-69381476D01*
X85669523Y-69286238D01*
X85764761Y-69191000D01*
X85907619Y-69143380D01*
X86002857Y-69143380D01*
X86145714Y-69191000D01*
X86193333Y-69238619D01*
X86764761Y-69571952D02*
X86669523Y-69524333D01*
X86621904Y-69476714D01*
X86574285Y-69381476D01*
X86574285Y-69333857D01*
X86621904Y-69238619D01*
X86669523Y-69191000D01*
X86764761Y-69143380D01*
X86955238Y-69143380D01*
X87050476Y-69191000D01*
X87098095Y-69238619D01*
X87145714Y-69333857D01*
X87145714Y-69381476D01*
X87098095Y-69476714D01*
X87050476Y-69524333D01*
X86955238Y-69571952D01*
X86764761Y-69571952D01*
X86669523Y-69619571D01*
X86621904Y-69667190D01*
X86574285Y-69762428D01*
X86574285Y-69952904D01*
X86621904Y-70048142D01*
X86669523Y-70095761D01*
X86764761Y-70143380D01*
X86955238Y-70143380D01*
X87050476Y-70095761D01*
X87098095Y-70048142D01*
X87145714Y-69952904D01*
X87145714Y-69762428D01*
X87098095Y-69667190D01*
X87050476Y-69619571D01*
X86955238Y-69571952D01*
%TO.C,U5*%
X88646095Y-66984380D02*
X88646095Y-67793904D01*
X88693714Y-67889142D01*
X88741333Y-67936761D01*
X88836571Y-67984380D01*
X89027047Y-67984380D01*
X89122285Y-67936761D01*
X89169904Y-67889142D01*
X89217523Y-67793904D01*
X89217523Y-66984380D01*
X90169904Y-66984380D02*
X89693714Y-66984380D01*
X89646095Y-67460571D01*
X89693714Y-67412952D01*
X89788952Y-67365333D01*
X90027047Y-67365333D01*
X90122285Y-67412952D01*
X90169904Y-67460571D01*
X90217523Y-67555809D01*
X90217523Y-67793904D01*
X90169904Y-67889142D01*
X90122285Y-67936761D01*
X90027047Y-67984380D01*
X89788952Y-67984380D01*
X89693714Y-67936761D01*
X89646095Y-67889142D01*
%TO.C,BT1*%
X99417285Y-52982571D02*
X99560142Y-53030190D01*
X99607761Y-53077809D01*
X99655380Y-53173047D01*
X99655380Y-53315904D01*
X99607761Y-53411142D01*
X99560142Y-53458761D01*
X99464904Y-53506380D01*
X99083952Y-53506380D01*
X99083952Y-52506380D01*
X99417285Y-52506380D01*
X99512523Y-52554000D01*
X99560142Y-52601619D01*
X99607761Y-52696857D01*
X99607761Y-52792095D01*
X99560142Y-52887333D01*
X99512523Y-52934952D01*
X99417285Y-52982571D01*
X99083952Y-52982571D01*
X99941095Y-52506380D02*
X100512523Y-52506380D01*
X100226809Y-53506380D02*
X100226809Y-52506380D01*
X101369666Y-53506380D02*
X100798238Y-53506380D01*
X101083952Y-53506380D02*
X101083952Y-52506380D01*
X100988714Y-52649238D01*
X100893476Y-52744476D01*
X100798238Y-52792095D01*
X92773571Y-57705142D02*
X93916428Y-57705142D01*
X93345000Y-58276571D02*
X93345000Y-57133714D01*
X102933571Y-57705142D02*
X104076428Y-57705142D01*
X103505000Y-58276571D02*
X103505000Y-57133714D01*
%TO.C,R12*%
X93075890Y-67984380D02*
X92742557Y-67508190D01*
X92504462Y-67984380D02*
X92504462Y-66984380D01*
X92885414Y-66984380D01*
X92980652Y-67032000D01*
X93028271Y-67079619D01*
X93075890Y-67174857D01*
X93075890Y-67317714D01*
X93028271Y-67412952D01*
X92980652Y-67460571D01*
X92885414Y-67508190D01*
X92504462Y-67508190D01*
X94028271Y-67984380D02*
X93456843Y-67984380D01*
X93742557Y-67984380D02*
X93742557Y-66984380D01*
X93647319Y-67127238D01*
X93552081Y-67222476D01*
X93456843Y-67270095D01*
X94409224Y-67079619D02*
X94456843Y-67032000D01*
X94552081Y-66984380D01*
X94790176Y-66984380D01*
X94885414Y-67032000D01*
X94933033Y-67079619D01*
X94980652Y-67174857D01*
X94980652Y-67270095D01*
X94933033Y-67412952D01*
X94361605Y-67984380D01*
X94980652Y-67984380D01*
%TO.C,D1*%
X121943904Y-49823380D02*
X121943904Y-48823380D01*
X122182000Y-48823380D01*
X122324857Y-48871000D01*
X122420095Y-48966238D01*
X122467714Y-49061476D01*
X122515333Y-49251952D01*
X122515333Y-49394809D01*
X122467714Y-49585285D01*
X122420095Y-49680523D01*
X122324857Y-49775761D01*
X122182000Y-49823380D01*
X121943904Y-49823380D01*
X123467714Y-49823380D02*
X122896285Y-49823380D01*
X123182000Y-49823380D02*
X123182000Y-48823380D01*
X123086761Y-48966238D01*
X122991523Y-49061476D01*
X122896285Y-49109095D01*
%TO.C,R2*%
X125293380Y-74175666D02*
X124817190Y-74509000D01*
X125293380Y-74747095D02*
X124293380Y-74747095D01*
X124293380Y-74366142D01*
X124341000Y-74270904D01*
X124388619Y-74223285D01*
X124483857Y-74175666D01*
X124626714Y-74175666D01*
X124721952Y-74223285D01*
X124769571Y-74270904D01*
X124817190Y-74366142D01*
X124817190Y-74747095D01*
X124388619Y-73794714D02*
X124341000Y-73747095D01*
X124293380Y-73651857D01*
X124293380Y-73413761D01*
X124341000Y-73318523D01*
X124388619Y-73270904D01*
X124483857Y-73223285D01*
X124579095Y-73223285D01*
X124721952Y-73270904D01*
X125293380Y-73842333D01*
X125293380Y-73223285D01*
%TO.C,D3*%
X112182904Y-50077380D02*
X112182904Y-49077380D01*
X112421000Y-49077380D01*
X112563857Y-49125000D01*
X112659095Y-49220238D01*
X112706714Y-49315476D01*
X112754333Y-49505952D01*
X112754333Y-49648809D01*
X112706714Y-49839285D01*
X112659095Y-49934523D01*
X112563857Y-50029761D01*
X112421000Y-50077380D01*
X112182904Y-50077380D01*
X113087666Y-49077380D02*
X113706714Y-49077380D01*
X113373380Y-49458333D01*
X113516238Y-49458333D01*
X113611476Y-49505952D01*
X113659095Y-49553571D01*
X113706714Y-49648809D01*
X113706714Y-49886904D01*
X113659095Y-49982142D01*
X113611476Y-50029761D01*
X113516238Y-50077380D01*
X113230523Y-50077380D01*
X113135285Y-50029761D01*
X113087666Y-49982142D01*
%TO.C,R3*%
X122626380Y-74175666D02*
X122150190Y-74509000D01*
X122626380Y-74747095D02*
X121626380Y-74747095D01*
X121626380Y-74366142D01*
X121674000Y-74270904D01*
X121721619Y-74223285D01*
X121816857Y-74175666D01*
X121959714Y-74175666D01*
X122054952Y-74223285D01*
X122102571Y-74270904D01*
X122150190Y-74366142D01*
X122150190Y-74747095D01*
X121626380Y-73842333D02*
X121626380Y-73223285D01*
X122007333Y-73556619D01*
X122007333Y-73413761D01*
X122054952Y-73318523D01*
X122102571Y-73270904D01*
X122197809Y-73223285D01*
X122435904Y-73223285D01*
X122531142Y-73270904D01*
X122578761Y-73318523D01*
X122626380Y-73413761D01*
X122626380Y-73699476D01*
X122578761Y-73794714D01*
X122531142Y-73842333D01*
%TO.C,R6*%
X108164333Y-74716380D02*
X107831000Y-74240190D01*
X107592904Y-74716380D02*
X107592904Y-73716380D01*
X107973857Y-73716380D01*
X108069095Y-73764000D01*
X108116714Y-73811619D01*
X108164333Y-73906857D01*
X108164333Y-74049714D01*
X108116714Y-74144952D01*
X108069095Y-74192571D01*
X107973857Y-74240190D01*
X107592904Y-74240190D01*
X109021476Y-73716380D02*
X108831000Y-73716380D01*
X108735761Y-73764000D01*
X108688142Y-73811619D01*
X108592904Y-73954476D01*
X108545285Y-74144952D01*
X108545285Y-74525904D01*
X108592904Y-74621142D01*
X108640523Y-74668761D01*
X108735761Y-74716380D01*
X108926238Y-74716380D01*
X109021476Y-74668761D01*
X109069095Y-74621142D01*
X109116714Y-74525904D01*
X109116714Y-74287809D01*
X109069095Y-74192571D01*
X109021476Y-74144952D01*
X108926238Y-74097333D01*
X108735761Y-74097333D01*
X108640523Y-74144952D01*
X108592904Y-74192571D01*
X108545285Y-74287809D01*
%TO.C,J3*%
X80565666Y-70286380D02*
X80565666Y-71000666D01*
X80518047Y-71143523D01*
X80422809Y-71238761D01*
X80279952Y-71286380D01*
X80184714Y-71286380D01*
X80946619Y-70286380D02*
X81565666Y-70286380D01*
X81232333Y-70667333D01*
X81375190Y-70667333D01*
X81470428Y-70714952D01*
X81518047Y-70762571D01*
X81565666Y-70857809D01*
X81565666Y-71095904D01*
X81518047Y-71191142D01*
X81470428Y-71238761D01*
X81375190Y-71286380D01*
X81089476Y-71286380D01*
X80994238Y-71238761D01*
X80946619Y-71191142D01*
%TO.C,R8*%
X89114333Y-53380380D02*
X88781000Y-52904190D01*
X88542904Y-53380380D02*
X88542904Y-52380380D01*
X88923857Y-52380380D01*
X89019095Y-52428000D01*
X89066714Y-52475619D01*
X89114333Y-52570857D01*
X89114333Y-52713714D01*
X89066714Y-52808952D01*
X89019095Y-52856571D01*
X88923857Y-52904190D01*
X88542904Y-52904190D01*
X89685761Y-52808952D02*
X89590523Y-52761333D01*
X89542904Y-52713714D01*
X89495285Y-52618476D01*
X89495285Y-52570857D01*
X89542904Y-52475619D01*
X89590523Y-52428000D01*
X89685761Y-52380380D01*
X89876238Y-52380380D01*
X89971476Y-52428000D01*
X90019095Y-52475619D01*
X90066714Y-52570857D01*
X90066714Y-52618476D01*
X90019095Y-52713714D01*
X89971476Y-52761333D01*
X89876238Y-52808952D01*
X89685761Y-52808952D01*
X89590523Y-52856571D01*
X89542904Y-52904190D01*
X89495285Y-52999428D01*
X89495285Y-53189904D01*
X89542904Y-53285142D01*
X89590523Y-53332761D01*
X89685761Y-53380380D01*
X89876238Y-53380380D01*
X89971476Y-53332761D01*
X90019095Y-53285142D01*
X90066714Y-53189904D01*
X90066714Y-52999428D01*
X90019095Y-52904190D01*
X89971476Y-52856571D01*
X89876238Y-52808952D01*
%TO.C,U2*%
X88488380Y-77056904D02*
X89297904Y-77056904D01*
X89393142Y-77009285D01*
X89440761Y-76961666D01*
X89488380Y-76866428D01*
X89488380Y-76675952D01*
X89440761Y-76580714D01*
X89393142Y-76533095D01*
X89297904Y-76485476D01*
X88488380Y-76485476D01*
X88583619Y-76056904D02*
X88536000Y-76009285D01*
X88488380Y-75914047D01*
X88488380Y-75675952D01*
X88536000Y-75580714D01*
X88583619Y-75533095D01*
X88678857Y-75485476D01*
X88774095Y-75485476D01*
X88916952Y-75533095D01*
X89488380Y-76104523D01*
X89488380Y-75485476D01*
%TO.C,C2*%
X102592142Y-70873666D02*
X102639761Y-70921285D01*
X102687380Y-71064142D01*
X102687380Y-71159380D01*
X102639761Y-71302238D01*
X102544523Y-71397476D01*
X102449285Y-71445095D01*
X102258809Y-71492714D01*
X102115952Y-71492714D01*
X101925476Y-71445095D01*
X101830238Y-71397476D01*
X101735000Y-71302238D01*
X101687380Y-71159380D01*
X101687380Y-71064142D01*
X101735000Y-70921285D01*
X101782619Y-70873666D01*
X101782619Y-70492714D02*
X101735000Y-70445095D01*
X101687380Y-70349857D01*
X101687380Y-70111761D01*
X101735000Y-70016523D01*
X101782619Y-69968904D01*
X101877857Y-69921285D01*
X101973095Y-69921285D01*
X102115952Y-69968904D01*
X102687380Y-70540333D01*
X102687380Y-69921285D01*
%TO.C,R1*%
X91273333Y-79033380D02*
X90940000Y-78557190D01*
X90701904Y-79033380D02*
X90701904Y-78033380D01*
X91082857Y-78033380D01*
X91178095Y-78081000D01*
X91225714Y-78128619D01*
X91273333Y-78223857D01*
X91273333Y-78366714D01*
X91225714Y-78461952D01*
X91178095Y-78509571D01*
X91082857Y-78557190D01*
X90701904Y-78557190D01*
X92225714Y-79033380D02*
X91654285Y-79033380D01*
X91940000Y-79033380D02*
X91940000Y-78033380D01*
X91844761Y-78176238D01*
X91749523Y-78271476D01*
X91654285Y-78319095D01*
%TO.C,D4*%
X107211904Y-50077380D02*
X107211904Y-49077380D01*
X107450000Y-49077380D01*
X107592857Y-49125000D01*
X107688095Y-49220238D01*
X107735714Y-49315476D01*
X107783333Y-49505952D01*
X107783333Y-49648809D01*
X107735714Y-49839285D01*
X107688095Y-49934523D01*
X107592857Y-50029761D01*
X107450000Y-50077380D01*
X107211904Y-50077380D01*
X108640476Y-49410714D02*
X108640476Y-50077380D01*
X108402380Y-49029761D02*
X108164285Y-49744047D01*
X108783333Y-49744047D01*
%TO.C,C1*%
X104751142Y-70873666D02*
X104798761Y-70921285D01*
X104846380Y-71064142D01*
X104846380Y-71159380D01*
X104798761Y-71302238D01*
X104703523Y-71397476D01*
X104608285Y-71445095D01*
X104417809Y-71492714D01*
X104274952Y-71492714D01*
X104084476Y-71445095D01*
X103989238Y-71397476D01*
X103894000Y-71302238D01*
X103846380Y-71159380D01*
X103846380Y-71064142D01*
X103894000Y-70921285D01*
X103941619Y-70873666D01*
X104846380Y-69921285D02*
X104846380Y-70492714D01*
X104846380Y-70207000D02*
X103846380Y-70207000D01*
X103989238Y-70302238D01*
X104084476Y-70397476D01*
X104132095Y-70492714D01*
%TO.C,C4*%
X90003333Y-71572142D02*
X89955714Y-71619761D01*
X89812857Y-71667380D01*
X89717619Y-71667380D01*
X89574761Y-71619761D01*
X89479523Y-71524523D01*
X89431904Y-71429285D01*
X89384285Y-71238809D01*
X89384285Y-71095952D01*
X89431904Y-70905476D01*
X89479523Y-70810238D01*
X89574761Y-70715000D01*
X89717619Y-70667380D01*
X89812857Y-70667380D01*
X89955714Y-70715000D01*
X90003333Y-70762619D01*
X90860476Y-71000714D02*
X90860476Y-71667380D01*
X90622380Y-70619761D02*
X90384285Y-71334047D01*
X91003333Y-71334047D01*
%TO.C,U1*%
X124206095Y-52125380D02*
X124206095Y-52934904D01*
X124253714Y-53030142D01*
X124301333Y-53077761D01*
X124396571Y-53125380D01*
X124587047Y-53125380D01*
X124682285Y-53077761D01*
X124729904Y-53030142D01*
X124777523Y-52934904D01*
X124777523Y-52125380D01*
X125777523Y-53125380D02*
X125206095Y-53125380D01*
X125491809Y-53125380D02*
X125491809Y-52125380D01*
X125396571Y-52268238D01*
X125301333Y-52363476D01*
X125206095Y-52411095D01*
%TO.C,C5*%
X80986333Y-80208142D02*
X80938714Y-80255761D01*
X80795857Y-80303380D01*
X80700619Y-80303380D01*
X80557761Y-80255761D01*
X80462523Y-80160523D01*
X80414904Y-80065285D01*
X80367285Y-79874809D01*
X80367285Y-79731952D01*
X80414904Y-79541476D01*
X80462523Y-79446238D01*
X80557761Y-79351000D01*
X80700619Y-79303380D01*
X80795857Y-79303380D01*
X80938714Y-79351000D01*
X80986333Y-79398619D01*
X81891095Y-79303380D02*
X81414904Y-79303380D01*
X81367285Y-79779571D01*
X81414904Y-79731952D01*
X81510142Y-79684333D01*
X81748238Y-79684333D01*
X81843476Y-79731952D01*
X81891095Y-79779571D01*
X81938714Y-79874809D01*
X81938714Y-80112904D01*
X81891095Y-80208142D01*
X81843476Y-80255761D01*
X81748238Y-80303380D01*
X81510142Y-80303380D01*
X81414904Y-80255761D01*
X81367285Y-80208142D01*
%TO.C,J1*%
X96988380Y-79803333D02*
X97702666Y-79803333D01*
X97845523Y-79850952D01*
X97940761Y-79946190D01*
X97988380Y-80089047D01*
X97988380Y-80184285D01*
X97988380Y-78803333D02*
X97988380Y-79374761D01*
X97988380Y-79089047D02*
X96988380Y-79089047D01*
X97131238Y-79184285D01*
X97226476Y-79279523D01*
X97274095Y-79374761D01*
%TO.C,R9*%
X80986333Y-82589380D02*
X80653000Y-82113190D01*
X80414904Y-82589380D02*
X80414904Y-81589380D01*
X80795857Y-81589380D01*
X80891095Y-81637000D01*
X80938714Y-81684619D01*
X80986333Y-81779857D01*
X80986333Y-81922714D01*
X80938714Y-82017952D01*
X80891095Y-82065571D01*
X80795857Y-82113190D01*
X80414904Y-82113190D01*
X81462523Y-82589380D02*
X81653000Y-82589380D01*
X81748238Y-82541761D01*
X81795857Y-82494142D01*
X81891095Y-82351285D01*
X81938714Y-82160809D01*
X81938714Y-81779857D01*
X81891095Y-81684619D01*
X81843476Y-81637000D01*
X81748238Y-81589380D01*
X81557761Y-81589380D01*
X81462523Y-81637000D01*
X81414904Y-81684619D01*
X81367285Y-81779857D01*
X81367285Y-82017952D01*
X81414904Y-82113190D01*
X81462523Y-82160809D01*
X81557761Y-82208428D01*
X81748238Y-82208428D01*
X81843476Y-82160809D01*
X81891095Y-82113190D01*
X81938714Y-82017952D01*
%TO.C,R13*%
X90670142Y-61507380D02*
X90336809Y-61031190D01*
X90098714Y-61507380D02*
X90098714Y-60507380D01*
X90479666Y-60507380D01*
X90574904Y-60555000D01*
X90622523Y-60602619D01*
X90670142Y-60697857D01*
X90670142Y-60840714D01*
X90622523Y-60935952D01*
X90574904Y-60983571D01*
X90479666Y-61031190D01*
X90098714Y-61031190D01*
X91622523Y-61507380D02*
X91051095Y-61507380D01*
X91336809Y-61507380D02*
X91336809Y-60507380D01*
X91241571Y-60650238D01*
X91146333Y-60745476D01*
X91051095Y-60793095D01*
X91955857Y-60507380D02*
X92574904Y-60507380D01*
X92241571Y-60888333D01*
X92384428Y-60888333D01*
X92479666Y-60935952D01*
X92527285Y-60983571D01*
X92574904Y-61078809D01*
X92574904Y-61316904D01*
X92527285Y-61412142D01*
X92479666Y-61459761D01*
X92384428Y-61507380D01*
X92098714Y-61507380D01*
X92003476Y-61459761D01*
X91955857Y-61412142D01*
%TO.C,U4*%
X99695095Y-66730380D02*
X99695095Y-67539904D01*
X99742714Y-67635142D01*
X99790333Y-67682761D01*
X99885571Y-67730380D01*
X100076047Y-67730380D01*
X100171285Y-67682761D01*
X100218904Y-67635142D01*
X100266523Y-67539904D01*
X100266523Y-66730380D01*
X101171285Y-67063714D02*
X101171285Y-67730380D01*
X100933190Y-66682761D02*
X100695095Y-67397047D01*
X101314142Y-67397047D01*
%TO.C,D6*%
X96797904Y-50077380D02*
X96797904Y-49077380D01*
X97036000Y-49077380D01*
X97178857Y-49125000D01*
X97274095Y-49220238D01*
X97321714Y-49315476D01*
X97369333Y-49505952D01*
X97369333Y-49648809D01*
X97321714Y-49839285D01*
X97274095Y-49934523D01*
X97178857Y-50029761D01*
X97036000Y-50077380D01*
X96797904Y-50077380D01*
X98226476Y-49077380D02*
X98036000Y-49077380D01*
X97940761Y-49125000D01*
X97893142Y-49172619D01*
X97797904Y-49315476D01*
X97750285Y-49505952D01*
X97750285Y-49886904D01*
X97797904Y-49982142D01*
X97845523Y-50029761D01*
X97940761Y-50077380D01*
X98131238Y-50077380D01*
X98226476Y-50029761D01*
X98274095Y-49982142D01*
X98321714Y-49886904D01*
X98321714Y-49648809D01*
X98274095Y-49553571D01*
X98226476Y-49505952D01*
X98131238Y-49458333D01*
X97940761Y-49458333D01*
X97845523Y-49505952D01*
X97797904Y-49553571D01*
X97750285Y-49648809D01*
%TO.C,SW1*%
X88684666Y-50945261D02*
X88827523Y-50992880D01*
X89065619Y-50992880D01*
X89160857Y-50945261D01*
X89208476Y-50897642D01*
X89256095Y-50802404D01*
X89256095Y-50707166D01*
X89208476Y-50611928D01*
X89160857Y-50564309D01*
X89065619Y-50516690D01*
X88875142Y-50469071D01*
X88779904Y-50421452D01*
X88732285Y-50373833D01*
X88684666Y-50278595D01*
X88684666Y-50183357D01*
X88732285Y-50088119D01*
X88779904Y-50040500D01*
X88875142Y-49992880D01*
X89113238Y-49992880D01*
X89256095Y-50040500D01*
X89589428Y-49992880D02*
X89827523Y-50992880D01*
X90018000Y-50278595D01*
X90208476Y-50992880D01*
X90446571Y-49992880D01*
X91351333Y-50992880D02*
X90779904Y-50992880D01*
X91065619Y-50992880D02*
X91065619Y-49992880D01*
X90970380Y-50135738D01*
X90875142Y-50230976D01*
X90779904Y-50278595D01*
%TO.C,U3*%
X96607380Y-77945904D02*
X97416904Y-77945904D01*
X97512142Y-77898285D01*
X97559761Y-77850666D01*
X97607380Y-77755428D01*
X97607380Y-77564952D01*
X97559761Y-77469714D01*
X97512142Y-77422095D01*
X97416904Y-77374476D01*
X96607380Y-77374476D01*
X96607380Y-76993523D02*
X96607380Y-76374476D01*
X96988333Y-76707809D01*
X96988333Y-76564952D01*
X97035952Y-76469714D01*
X97083571Y-76422095D01*
X97178809Y-76374476D01*
X97416904Y-76374476D01*
X97512142Y-76422095D01*
X97559761Y-76469714D01*
X97607380Y-76564952D01*
X97607380Y-76850666D01*
X97559761Y-76945904D01*
X97512142Y-76993523D01*
%TO.C,J2*%
X125750380Y-82306333D02*
X126464666Y-82306333D01*
X126607523Y-82353952D01*
X126702761Y-82449190D01*
X126750380Y-82592047D01*
X126750380Y-82687285D01*
X125845619Y-81877761D02*
X125798000Y-81830142D01*
X125750380Y-81734904D01*
X125750380Y-81496809D01*
X125798000Y-81401571D01*
X125845619Y-81353952D01*
X125940857Y-81306333D01*
X126036095Y-81306333D01*
X126178952Y-81353952D01*
X126750380Y-81925380D01*
X126750380Y-81306333D01*
%TO.C,C3*%
X92289333Y-71572142D02*
X92241714Y-71619761D01*
X92098857Y-71667380D01*
X92003619Y-71667380D01*
X91860761Y-71619761D01*
X91765523Y-71524523D01*
X91717904Y-71429285D01*
X91670285Y-71238809D01*
X91670285Y-71095952D01*
X91717904Y-70905476D01*
X91765523Y-70810238D01*
X91860761Y-70715000D01*
X92003619Y-70667380D01*
X92098857Y-70667380D01*
X92241714Y-70715000D01*
X92289333Y-70762619D01*
X92622666Y-70667380D02*
X93241714Y-70667380D01*
X92908380Y-71048333D01*
X93051238Y-71048333D01*
X93146476Y-71095952D01*
X93194095Y-71143571D01*
X93241714Y-71238809D01*
X93241714Y-71476904D01*
X93194095Y-71572142D01*
X93146476Y-71619761D01*
X93051238Y-71667380D01*
X92765523Y-71667380D01*
X92670285Y-71619761D01*
X92622666Y-71572142D01*
%TO.C,D5*%
X101877904Y-50077380D02*
X101877904Y-49077380D01*
X102116000Y-49077380D01*
X102258857Y-49125000D01*
X102354095Y-49220238D01*
X102401714Y-49315476D01*
X102449333Y-49505952D01*
X102449333Y-49648809D01*
X102401714Y-49839285D01*
X102354095Y-49934523D01*
X102258857Y-50029761D01*
X102116000Y-50077380D01*
X101877904Y-50077380D01*
X103354095Y-49077380D02*
X102877904Y-49077380D01*
X102830285Y-49553571D01*
X102877904Y-49505952D01*
X102973142Y-49458333D01*
X103211238Y-49458333D01*
X103306476Y-49505952D01*
X103354095Y-49553571D01*
X103401714Y-49648809D01*
X103401714Y-49886904D01*
X103354095Y-49982142D01*
X103306476Y-50029761D01*
X103211238Y-50077380D01*
X102973142Y-50077380D01*
X102877904Y-50029761D01*
X102830285Y-49982142D01*
%TO.C,C7*%
X85019833Y-58364142D02*
X84972214Y-58411761D01*
X84829357Y-58459380D01*
X84734119Y-58459380D01*
X84591261Y-58411761D01*
X84496023Y-58316523D01*
X84448404Y-58221285D01*
X84400785Y-58030809D01*
X84400785Y-57887952D01*
X84448404Y-57697476D01*
X84496023Y-57602238D01*
X84591261Y-57507000D01*
X84734119Y-57459380D01*
X84829357Y-57459380D01*
X84972214Y-57507000D01*
X85019833Y-57554619D01*
X85353166Y-57459380D02*
X86019833Y-57459380D01*
X85591261Y-58459380D01*
%TO.C,R5*%
X117419380Y-74175666D02*
X116943190Y-74509000D01*
X117419380Y-74747095D02*
X116419380Y-74747095D01*
X116419380Y-74366142D01*
X116467000Y-74270904D01*
X116514619Y-74223285D01*
X116609857Y-74175666D01*
X116752714Y-74175666D01*
X116847952Y-74223285D01*
X116895571Y-74270904D01*
X116943190Y-74366142D01*
X116943190Y-74747095D01*
X116419380Y-73270904D02*
X116419380Y-73747095D01*
X116895571Y-73794714D01*
X116847952Y-73747095D01*
X116800333Y-73651857D01*
X116800333Y-73413761D01*
X116847952Y-73318523D01*
X116895571Y-73270904D01*
X116990809Y-73223285D01*
X117228904Y-73223285D01*
X117324142Y-73270904D01*
X117371761Y-73318523D01*
X117419380Y-73413761D01*
X117419380Y-73651857D01*
X117371761Y-73747095D01*
X117324142Y-73794714D01*
D13*
%TO.C,U1*%
X125650000Y-93967000D02*
X125650000Y-93587000D01*
X107105000Y-93967000D02*
X106325000Y-93967000D01*
X132065000Y-112207000D02*
X125650000Y-112207000D01*
X106325000Y-93967000D02*
X106325000Y-94967000D01*
X106325000Y-112207000D02*
X106325000Y-111207000D01*
X132065000Y-93967000D02*
X132065000Y-112207000D01*
X107105000Y-112207000D02*
X106325000Y-112207000D01*
X132065000Y-93967000D02*
X125650000Y-93967000D01*
%TO.C,J3*%
X82991000Y-106897000D02*
X82991000Y-94137000D01*
X82991000Y-106897000D02*
X80331000Y-106897000D01*
X80331000Y-106897000D02*
X80331000Y-94137000D01*
X82991000Y-108167000D02*
X82991000Y-109497000D01*
X82991000Y-109497000D02*
X81661000Y-109497000D01*
X82991000Y-94137000D02*
X80331000Y-94137000D01*
%TO.C,C4*%
X91032000Y-113366748D02*
X91032000Y-113889252D01*
X89562000Y-113366748D02*
X89562000Y-113889252D01*
%TO.C,D4*%
X106321000Y-86143000D02*
X106321000Y-84793000D01*
X110221000Y-92943000D02*
X105421000Y-92943000D01*
X110221000Y-86143000D02*
X105421000Y-86143000D01*
X109321000Y-86143000D02*
X109321000Y-84793000D01*
X105421000Y-86143000D02*
X105421000Y-92943000D01*
X110221000Y-86143000D02*
X110221000Y-92943000D01*
X109321000Y-84793000D02*
G75*
G03*
X106321000Y-84793000I-1500000J0D01*
G01*
%TO.C,C2*%
X101500000Y-113366748D02*
X101500000Y-113889252D01*
X102970000Y-113366748D02*
X102970000Y-113889252D01*
%TO.C,R3*%
X121439000Y-117030064D02*
X121439000Y-116575936D01*
X122909000Y-117030064D02*
X122909000Y-116575936D01*
%TO.C,R8*%
X89053936Y-93843000D02*
X89508064Y-93843000D01*
X89053936Y-95313000D02*
X89508064Y-95313000D01*
%TO.C,R6*%
X108103936Y-115179000D02*
X108558064Y-115179000D01*
X108103936Y-116649000D02*
X108558064Y-116649000D01*
%TO.C,D3*%
X115321000Y-86143000D02*
X110521000Y-86143000D01*
X110521000Y-86143000D02*
X110521000Y-92943000D01*
X115321000Y-86143000D02*
X115321000Y-92943000D01*
X111421000Y-86143000D02*
X111421000Y-84793000D01*
X115321000Y-92943000D02*
X110521000Y-92943000D01*
X114421000Y-86143000D02*
X114421000Y-84793000D01*
X114421000Y-84793000D02*
G75*
G03*
X111421000Y-84793000I-1500000J0D01*
G01*
%TO.C,C5*%
X84193748Y-120713000D02*
X84716252Y-120713000D01*
X84193748Y-119243000D02*
X84716252Y-119243000D01*
%TO.C,C1*%
X105129000Y-113366748D02*
X105129000Y-113889252D01*
X103659000Y-113366748D02*
X103659000Y-113889252D01*
%TO.C,R13*%
X93752936Y-102679000D02*
X94207064Y-102679000D01*
X93752936Y-101209000D02*
X94207064Y-101209000D01*
%TO.C,C3*%
X93191000Y-113366748D02*
X93191000Y-113889252D01*
X91721000Y-113366748D02*
X91721000Y-113889252D01*
%TO.C,U3*%
X93999000Y-115696000D02*
X93999000Y-109686000D01*
X100819000Y-113446000D02*
X100819000Y-109686000D01*
X93999000Y-109686000D02*
X95259000Y-109686000D01*
X100819000Y-109686000D02*
X99559000Y-109686000D01*
%TO.C,D2*%
X119521000Y-86143000D02*
X119521000Y-84793000D01*
X115621000Y-86143000D02*
X115621000Y-92943000D01*
X120421000Y-86143000D02*
X120421000Y-92943000D01*
X116521000Y-86143000D02*
X116521000Y-84793000D01*
X120421000Y-92943000D02*
X115621000Y-92943000D01*
X120421000Y-86143000D02*
X115621000Y-86143000D01*
X119521000Y-84793000D02*
G75*
G03*
X116521000Y-84793000I-1500000J0D01*
G01*
%TO.C,C8*%
X86204248Y-108902000D02*
X86726752Y-108902000D01*
X86204248Y-107432000D02*
X86726752Y-107432000D01*
%TO.C,U5*%
X87757000Y-101416000D02*
X89707000Y-101416000D01*
X87757000Y-106536000D02*
X89707000Y-106536000D01*
X87757000Y-106536000D02*
X85807000Y-106536000D01*
X87757000Y-101416000D02*
X84307000Y-101416000D01*
%TO.C,BT1*%
X99060000Y-97598000D02*
X97790000Y-97598000D01*
X105085000Y-93808000D02*
X91765000Y-93808000D01*
X105085000Y-100428000D02*
X91765000Y-100428000D01*
X91765000Y-100428000D02*
X91765000Y-93808000D01*
X105085000Y-100428000D02*
X105085000Y-93808000D01*
%TO.C,R1*%
X91212936Y-116068000D02*
X91667064Y-116068000D01*
X91212936Y-117538000D02*
X91667064Y-117538000D01*
%TO.C,R12*%
X93752936Y-103241000D02*
X94207064Y-103241000D01*
X93752936Y-104711000D02*
X94207064Y-104711000D01*
%TO.C,D1*%
X125521000Y-92943000D02*
X120721000Y-92943000D01*
X121621000Y-86143000D02*
X121621000Y-84793000D01*
X120721000Y-86143000D02*
X120721000Y-92943000D01*
X125521000Y-86143000D02*
X125521000Y-92943000D01*
X124621000Y-86143000D02*
X124621000Y-84793000D01*
X125521000Y-86143000D02*
X120721000Y-86143000D01*
X124621000Y-84793000D02*
G75*
G03*
X121621000Y-84793000I-1500000J0D01*
G01*
%TO.C,U2*%
X88221000Y-114009000D02*
X88221000Y-116209000D01*
X81451000Y-114009000D02*
X81451000Y-116209000D01*
X88221000Y-114009000D02*
X88221000Y-110409000D01*
X81451000Y-114009000D02*
X81451000Y-111809000D01*
%TO.C,R10*%
X84227936Y-125412000D02*
X84682064Y-125412000D01*
X84227936Y-123942000D02*
X84682064Y-123942000D01*
%TO.C,R11*%
X85243936Y-96964000D02*
X85698064Y-96964000D01*
X85243936Y-95494000D02*
X85698064Y-95494000D01*
%TO.C,C6*%
X91051748Y-110426000D02*
X91574252Y-110426000D01*
X91051748Y-108956000D02*
X91574252Y-108956000D01*
%TO.C,J1*%
X97358000Y-120643000D02*
X97358000Y-121973000D01*
X87078000Y-120643000D02*
X87078000Y-123303000D01*
X94758000Y-123303000D02*
X87078000Y-123303000D01*
X94758000Y-120643000D02*
X87078000Y-120643000D01*
X94758000Y-120643000D02*
X94758000Y-123303000D01*
X96028000Y-120643000D02*
X97358000Y-120643000D01*
%TO.C,R9*%
X84666064Y-121529000D02*
X84211936Y-121529000D01*
X84666064Y-122999000D02*
X84211936Y-122999000D01*
%TO.C,SW1*%
X86678000Y-89830500D02*
X87218000Y-89830500D01*
X93358000Y-93170500D02*
X93878000Y-93170500D01*
X86158000Y-86160500D02*
X93878000Y-86160500D01*
X86678000Y-92660500D02*
X86678000Y-93170500D01*
X93358000Y-92660500D02*
X93358000Y-93170500D01*
X93878000Y-86160500D02*
X93878000Y-90060500D01*
X86158000Y-93170500D02*
X86678000Y-93170500D01*
X92818000Y-89830500D02*
X93358000Y-89830500D01*
X93878000Y-92660500D02*
X93878000Y-93170500D01*
X88318000Y-89830500D02*
X91718000Y-89830500D01*
X86158000Y-86160500D02*
X86158000Y-90060500D01*
X93358000Y-89830500D02*
X93358000Y-90060500D01*
X86158000Y-92660500D02*
X86158000Y-93170500D01*
X86678000Y-89830500D02*
X86678000Y-90060500D01*
%TO.C,D6*%
X95221000Y-86143000D02*
X95221000Y-92943000D01*
X100021000Y-86143000D02*
X100021000Y-92943000D01*
X100021000Y-86143000D02*
X95221000Y-86143000D01*
X100021000Y-92943000D02*
X95221000Y-92943000D01*
X99121000Y-86143000D02*
X99121000Y-84793000D01*
X96121000Y-86143000D02*
X96121000Y-84793000D01*
X99121000Y-84793000D02*
G75*
G03*
X96121000Y-84793000I-1500000J0D01*
G01*
%TO.C,C9*%
X93718748Y-105273000D02*
X94241252Y-105273000D01*
X93718748Y-106743000D02*
X94241252Y-106743000D01*
%TO.C,C7*%
X85179248Y-98415000D02*
X85701752Y-98415000D01*
X85179248Y-99885000D02*
X85701752Y-99885000D01*
%TO.C,J2*%
X122698000Y-123303000D02*
X115018000Y-123303000D01*
X125298000Y-120643000D02*
X125298000Y-121973000D01*
X122698000Y-120643000D02*
X122698000Y-123303000D01*
X115018000Y-120643000D02*
X115018000Y-123303000D01*
X122698000Y-120643000D02*
X115018000Y-120643000D01*
X123968000Y-120643000D02*
X125298000Y-120643000D01*
%TO.C,D5*%
X101221000Y-86143000D02*
X101221000Y-84793000D01*
X100321000Y-86143000D02*
X100321000Y-92943000D01*
X105121000Y-86143000D02*
X100321000Y-86143000D01*
X104221000Y-86143000D02*
X104221000Y-84793000D01*
X105121000Y-92943000D02*
X100321000Y-92943000D01*
X105121000Y-86143000D02*
X105121000Y-92943000D01*
X104221000Y-84793000D02*
G75*
G03*
X101221000Y-84793000I-1500000J0D01*
G01*
%TO.C,R5*%
X116232000Y-117030064D02*
X116232000Y-116575936D01*
X117702000Y-117030064D02*
X117702000Y-116575936D01*
%TO.C,U4*%
X100203000Y-106282000D02*
X102153000Y-106282000D01*
X100203000Y-101162000D02*
X102153000Y-101162000D01*
X100203000Y-101162000D02*
X96753000Y-101162000D01*
X100203000Y-106282000D02*
X98253000Y-106282000D01*
%TO.C,R4*%
X120242000Y-117030064D02*
X120242000Y-116575936D01*
X118772000Y-117030064D02*
X118772000Y-116575936D01*
%TO.C,R7*%
X112421936Y-116649000D02*
X112876064Y-116649000D01*
X112421936Y-115179000D02*
X112876064Y-115179000D01*
%TO.C,R2*%
X123979000Y-117030064D02*
X123979000Y-116575936D01*
X125449000Y-117030064D02*
X125449000Y-116575936D01*
%TO.C,R10*%
X84227936Y-85412000D02*
X84682064Y-85412000D01*
X84227936Y-83942000D02*
X84682064Y-83942000D01*
%TO.C,R4*%
X120242000Y-77030064D02*
X120242000Y-76575936D01*
X118772000Y-77030064D02*
X118772000Y-76575936D01*
%TO.C,R11*%
X85243936Y-56964000D02*
X85698064Y-56964000D01*
X85243936Y-55494000D02*
X85698064Y-55494000D01*
%TO.C,C9*%
X93718748Y-65273000D02*
X94241252Y-65273000D01*
X93718748Y-66743000D02*
X94241252Y-66743000D01*
%TO.C,C6*%
X91051748Y-70426000D02*
X91574252Y-70426000D01*
X91051748Y-68956000D02*
X91574252Y-68956000D01*
%TO.C,R7*%
X112421936Y-76649000D02*
X112876064Y-76649000D01*
X112421936Y-75179000D02*
X112876064Y-75179000D01*
%TO.C,D2*%
X119521000Y-46143000D02*
X119521000Y-44793000D01*
X115621000Y-46143000D02*
X115621000Y-52943000D01*
X120421000Y-46143000D02*
X120421000Y-52943000D01*
X116521000Y-46143000D02*
X116521000Y-44793000D01*
X120421000Y-52943000D02*
X115621000Y-52943000D01*
X120421000Y-46143000D02*
X115621000Y-46143000D01*
X119521000Y-44793000D02*
G75*
G03*
X116521000Y-44793000I-1500000J0D01*
G01*
%TO.C,C8*%
X86204248Y-68902000D02*
X86726752Y-68902000D01*
X86204248Y-67432000D02*
X86726752Y-67432000D01*
%TO.C,U5*%
X87757000Y-61416000D02*
X89707000Y-61416000D01*
X87757000Y-66536000D02*
X89707000Y-66536000D01*
X87757000Y-66536000D02*
X85807000Y-66536000D01*
X87757000Y-61416000D02*
X84307000Y-61416000D01*
%TO.C,BT1*%
X99060000Y-57598000D02*
X97790000Y-57598000D01*
X105085000Y-53808000D02*
X91765000Y-53808000D01*
X105085000Y-60428000D02*
X91765000Y-60428000D01*
X91765000Y-60428000D02*
X91765000Y-53808000D01*
X105085000Y-60428000D02*
X105085000Y-53808000D01*
%TO.C,R12*%
X93752936Y-63241000D02*
X94207064Y-63241000D01*
X93752936Y-64711000D02*
X94207064Y-64711000D01*
%TO.C,D1*%
X125521000Y-52943000D02*
X120721000Y-52943000D01*
X121621000Y-46143000D02*
X121621000Y-44793000D01*
X120721000Y-46143000D02*
X120721000Y-52943000D01*
X125521000Y-46143000D02*
X125521000Y-52943000D01*
X124621000Y-46143000D02*
X124621000Y-44793000D01*
X125521000Y-46143000D02*
X120721000Y-46143000D01*
X124621000Y-44793000D02*
G75*
G03*
X121621000Y-44793000I-1500000J0D01*
G01*
%TO.C,R2*%
X123979000Y-77030064D02*
X123979000Y-76575936D01*
X125449000Y-77030064D02*
X125449000Y-76575936D01*
%TO.C,D3*%
X115321000Y-46143000D02*
X110521000Y-46143000D01*
X110521000Y-46143000D02*
X110521000Y-52943000D01*
X115321000Y-46143000D02*
X115321000Y-52943000D01*
X111421000Y-46143000D02*
X111421000Y-44793000D01*
X115321000Y-52943000D02*
X110521000Y-52943000D01*
X114421000Y-46143000D02*
X114421000Y-44793000D01*
X114421000Y-44793000D02*
G75*
G03*
X111421000Y-44793000I-1500000J0D01*
G01*
%TO.C,R3*%
X121439000Y-77030064D02*
X121439000Y-76575936D01*
X122909000Y-77030064D02*
X122909000Y-76575936D01*
%TO.C,R6*%
X108103936Y-75179000D02*
X108558064Y-75179000D01*
X108103936Y-76649000D02*
X108558064Y-76649000D01*
%TO.C,J3*%
X82991000Y-66897000D02*
X82991000Y-54137000D01*
X82991000Y-66897000D02*
X80331000Y-66897000D01*
X80331000Y-66897000D02*
X80331000Y-54137000D01*
X82991000Y-68167000D02*
X82991000Y-69497000D01*
X82991000Y-69497000D02*
X81661000Y-69497000D01*
X82991000Y-54137000D02*
X80331000Y-54137000D01*
%TO.C,R8*%
X89053936Y-53843000D02*
X89508064Y-53843000D01*
X89053936Y-55313000D02*
X89508064Y-55313000D01*
%TO.C,U2*%
X88221000Y-74009000D02*
X88221000Y-76209000D01*
X81451000Y-74009000D02*
X81451000Y-76209000D01*
X88221000Y-74009000D02*
X88221000Y-70409000D01*
X81451000Y-74009000D02*
X81451000Y-71809000D01*
%TO.C,C2*%
X101500000Y-73366748D02*
X101500000Y-73889252D01*
X102970000Y-73366748D02*
X102970000Y-73889252D01*
%TO.C,R1*%
X91212936Y-76068000D02*
X91667064Y-76068000D01*
X91212936Y-77538000D02*
X91667064Y-77538000D01*
%TO.C,D4*%
X106321000Y-46143000D02*
X106321000Y-44793000D01*
X110221000Y-52943000D02*
X105421000Y-52943000D01*
X110221000Y-46143000D02*
X105421000Y-46143000D01*
X109321000Y-46143000D02*
X109321000Y-44793000D01*
X105421000Y-46143000D02*
X105421000Y-52943000D01*
X110221000Y-46143000D02*
X110221000Y-52943000D01*
X109321000Y-44793000D02*
G75*
G03*
X106321000Y-44793000I-1500000J0D01*
G01*
%TO.C,C1*%
X105129000Y-73366748D02*
X105129000Y-73889252D01*
X103659000Y-73366748D02*
X103659000Y-73889252D01*
%TO.C,C4*%
X91032000Y-73366748D02*
X91032000Y-73889252D01*
X89562000Y-73366748D02*
X89562000Y-73889252D01*
%TO.C,U1*%
X125650000Y-53967000D02*
X125650000Y-53587000D01*
X107105000Y-53967000D02*
X106325000Y-53967000D01*
X132065000Y-72207000D02*
X125650000Y-72207000D01*
X106325000Y-53967000D02*
X106325000Y-54967000D01*
X106325000Y-72207000D02*
X106325000Y-71207000D01*
X132065000Y-53967000D02*
X132065000Y-72207000D01*
X107105000Y-72207000D02*
X106325000Y-72207000D01*
X132065000Y-53967000D02*
X125650000Y-53967000D01*
%TO.C,C5*%
X84193748Y-80713000D02*
X84716252Y-80713000D01*
X84193748Y-79243000D02*
X84716252Y-79243000D01*
%TO.C,J1*%
X97358000Y-80643000D02*
X97358000Y-81973000D01*
X87078000Y-80643000D02*
X87078000Y-83303000D01*
X94758000Y-83303000D02*
X87078000Y-83303000D01*
X94758000Y-80643000D02*
X87078000Y-80643000D01*
X94758000Y-80643000D02*
X94758000Y-83303000D01*
X96028000Y-80643000D02*
X97358000Y-80643000D01*
%TO.C,R9*%
X84666064Y-81529000D02*
X84211936Y-81529000D01*
X84666064Y-82999000D02*
X84211936Y-82999000D01*
%TO.C,R13*%
X93752936Y-62679000D02*
X94207064Y-62679000D01*
X93752936Y-61209000D02*
X94207064Y-61209000D01*
%TO.C,U4*%
X100203000Y-66282000D02*
X102153000Y-66282000D01*
X100203000Y-61162000D02*
X102153000Y-61162000D01*
X100203000Y-61162000D02*
X96753000Y-61162000D01*
X100203000Y-66282000D02*
X98253000Y-66282000D01*
%TO.C,D6*%
X95221000Y-46143000D02*
X95221000Y-52943000D01*
X100021000Y-46143000D02*
X100021000Y-52943000D01*
X100021000Y-46143000D02*
X95221000Y-46143000D01*
X100021000Y-52943000D02*
X95221000Y-52943000D01*
X99121000Y-46143000D02*
X99121000Y-44793000D01*
X96121000Y-46143000D02*
X96121000Y-44793000D01*
X99121000Y-44793000D02*
G75*
G03*
X96121000Y-44793000I-1500000J0D01*
G01*
%TO.C,SW1*%
X86678000Y-49830500D02*
X87218000Y-49830500D01*
X93358000Y-53170500D02*
X93878000Y-53170500D01*
X86158000Y-46160500D02*
X93878000Y-46160500D01*
X86678000Y-52660500D02*
X86678000Y-53170500D01*
X93358000Y-52660500D02*
X93358000Y-53170500D01*
X93878000Y-46160500D02*
X93878000Y-50060500D01*
X86158000Y-53170500D02*
X86678000Y-53170500D01*
X92818000Y-49830500D02*
X93358000Y-49830500D01*
X93878000Y-52660500D02*
X93878000Y-53170500D01*
X88318000Y-49830500D02*
X91718000Y-49830500D01*
X86158000Y-46160500D02*
X86158000Y-50060500D01*
X93358000Y-49830500D02*
X93358000Y-50060500D01*
X86158000Y-52660500D02*
X86158000Y-53170500D01*
X86678000Y-49830500D02*
X86678000Y-50060500D01*
%TO.C,U3*%
X93999000Y-75696000D02*
X93999000Y-69686000D01*
X100819000Y-73446000D02*
X100819000Y-69686000D01*
X93999000Y-69686000D02*
X95259000Y-69686000D01*
X100819000Y-69686000D02*
X99559000Y-69686000D01*
%TO.C,J2*%
X122698000Y-83303000D02*
X115018000Y-83303000D01*
X125298000Y-80643000D02*
X125298000Y-81973000D01*
X122698000Y-80643000D02*
X122698000Y-83303000D01*
X115018000Y-80643000D02*
X115018000Y-83303000D01*
X122698000Y-80643000D02*
X115018000Y-80643000D01*
X123968000Y-80643000D02*
X125298000Y-80643000D01*
%TO.C,C3*%
X93191000Y-73366748D02*
X93191000Y-73889252D01*
X91721000Y-73366748D02*
X91721000Y-73889252D01*
%TO.C,D5*%
X101221000Y-46143000D02*
X101221000Y-44793000D01*
X100321000Y-46143000D02*
X100321000Y-52943000D01*
X105121000Y-46143000D02*
X100321000Y-46143000D01*
X104221000Y-46143000D02*
X104221000Y-44793000D01*
X105121000Y-52943000D02*
X100321000Y-52943000D01*
X105121000Y-46143000D02*
X105121000Y-52943000D01*
X104221000Y-44793000D02*
G75*
G03*
X101221000Y-44793000I-1500000J0D01*
G01*
%TO.C,C7*%
X85179248Y-58415000D02*
X85701752Y-58415000D01*
X85179248Y-59885000D02*
X85701752Y-59885000D01*
%TO.C,R5*%
X116232000Y-77030064D02*
X116232000Y-76575936D01*
X117702000Y-77030064D02*
X117702000Y-76575936D01*
%TD*%
M02*
