%TF.GenerationSoftware,KiCad,Pcbnew,6.0.11-2627ca5db0~126~ubuntu20.04.1*%
%TF.CreationDate,2024-10-06T15:55:14-05:00*%
%TF.ProjectId,,58585858-5858-4585-9858-585858585858,rev?*%
%TF.SameCoordinates,Original*%
%TF.FileFunction,Legend,Top*%
%TF.FilePolarity,Positive*%
%FSLAX46Y46*%
G04 Gerber Fmt 4.6, Leading zero omitted, Abs format (unit mm)*
G04 Created by KiCad (PCBNEW 6.0.11-2627ca5db0~126~ubuntu20.04.1) date 2024-10-06 15:55:14*
%MOMM*%
%LPD*%
G01*
G04 APERTURE LIST*
%ADD10C,0.187500*%
%ADD11C,0.200000*%
%ADD12C,0.150000*%
%ADD13C,0.120000*%
G04 APERTURE END LIST*
D10*
X94458285Y-116588571D02*
X94458285Y-116160000D01*
X95208285Y-116374285D02*
X94458285Y-116374285D01*
X94458285Y-115981428D02*
X95208285Y-115481428D01*
X94458285Y-115481428D02*
X95208285Y-115981428D01*
X95208285Y-114802857D02*
X95208285Y-115231428D01*
X95208285Y-115017142D02*
X94458285Y-115017142D01*
X94565428Y-115088571D01*
X94636857Y-115160000D01*
X94672571Y-115231428D01*
X127514000Y-116231428D02*
X127478285Y-116302857D01*
X127478285Y-116410000D01*
X127514000Y-116517142D01*
X127585428Y-116588571D01*
X127656857Y-116624285D01*
X127799714Y-116660000D01*
X127906857Y-116660000D01*
X128049714Y-116624285D01*
X128121142Y-116588571D01*
X128192571Y-116517142D01*
X128228285Y-116410000D01*
X128228285Y-116338571D01*
X128192571Y-116231428D01*
X128156857Y-116195714D01*
X127906857Y-116195714D01*
X127906857Y-116338571D01*
X128228285Y-115874285D02*
X127478285Y-115874285D01*
X128228285Y-115445714D01*
X127478285Y-115445714D01*
X128228285Y-115088571D02*
X127478285Y-115088571D01*
X127478285Y-114910000D01*
X127514000Y-114802857D01*
X127585428Y-114731428D01*
X127656857Y-114695714D01*
X127799714Y-114660000D01*
X127906857Y-114660000D01*
X128049714Y-114695714D01*
X128121142Y-114731428D01*
X128192571Y-114802857D01*
X128228285Y-114910000D01*
X128228285Y-115088571D01*
X97355428Y-116443714D02*
X97355428Y-116193714D01*
X97748285Y-116086571D02*
X97748285Y-116443714D01*
X96998285Y-116443714D01*
X96998285Y-116086571D01*
X97748285Y-115765142D02*
X96998285Y-115765142D01*
X97748285Y-115336571D01*
X96998285Y-115336571D01*
X97748285Y-114586571D02*
X97748285Y-115015142D01*
X97748285Y-114800857D02*
X96998285Y-114800857D01*
X97105428Y-114872285D01*
X97176857Y-114943714D01*
X97212571Y-115015142D01*
X100288285Y-116015142D02*
X99931142Y-116265142D01*
X100288285Y-116443714D02*
X99538285Y-116443714D01*
X99538285Y-116158000D01*
X99574000Y-116086571D01*
X99609714Y-116050857D01*
X99681142Y-116015142D01*
X99788285Y-116015142D01*
X99859714Y-116050857D01*
X99895428Y-116086571D01*
X99931142Y-116158000D01*
X99931142Y-116443714D01*
X99538285Y-115765142D02*
X100288285Y-115265142D01*
X99538285Y-115265142D02*
X100288285Y-115765142D01*
X100288285Y-114586571D02*
X100288285Y-115015142D01*
X100288285Y-114800857D02*
X99538285Y-114800857D01*
X99645428Y-114872285D01*
X99716857Y-114943714D01*
X99752571Y-115015142D01*
X125688285Y-116142142D02*
X125331142Y-116392142D01*
X125688285Y-116570714D02*
X124938285Y-116570714D01*
X124938285Y-116285000D01*
X124974000Y-116213571D01*
X125009714Y-116177857D01*
X125081142Y-116142142D01*
X125188285Y-116142142D01*
X125259714Y-116177857D01*
X125295428Y-116213571D01*
X125331142Y-116285000D01*
X125331142Y-116570714D01*
X124938285Y-115892142D02*
X125688285Y-115392142D01*
X124938285Y-115392142D02*
X125688285Y-115892142D01*
X125009714Y-115142142D02*
X124974000Y-115106428D01*
X124938285Y-115035000D01*
X124938285Y-114856428D01*
X124974000Y-114785000D01*
X125009714Y-114749285D01*
X125081142Y-114713571D01*
X125152571Y-114713571D01*
X125259714Y-114749285D01*
X125688285Y-115177857D01*
X125688285Y-114713571D01*
X101951285Y-116461571D02*
X101951285Y-116033000D01*
X102701285Y-116247285D02*
X101951285Y-116247285D01*
X101951285Y-115854428D02*
X102701285Y-115354428D01*
X101951285Y-115354428D02*
X102701285Y-115854428D01*
X102022714Y-115104428D02*
X101987000Y-115068714D01*
X101951285Y-114997285D01*
X101951285Y-114818714D01*
X101987000Y-114747285D01*
X102022714Y-114711571D01*
X102094142Y-114675857D01*
X102165571Y-114675857D01*
X102272714Y-114711571D01*
X102701285Y-115140142D01*
X102701285Y-114675857D01*
D11*
X135353904Y-116355523D02*
X134553904Y-116355523D01*
X135125333Y-116088857D01*
X134553904Y-115822190D01*
X135353904Y-115822190D01*
X134553904Y-115288857D02*
X134553904Y-115136476D01*
X134592000Y-115060285D01*
X134668190Y-114984095D01*
X134820571Y-114946000D01*
X135087238Y-114946000D01*
X135239619Y-114984095D01*
X135315809Y-115060285D01*
X135353904Y-115136476D01*
X135353904Y-115288857D01*
X135315809Y-115365047D01*
X135239619Y-115441238D01*
X135087238Y-115479333D01*
X134820571Y-115479333D01*
X134668190Y-115441238D01*
X134592000Y-115365047D01*
X134553904Y-115288857D01*
X135353904Y-114603142D02*
X134553904Y-114603142D01*
X134553904Y-114412666D01*
X134592000Y-114298380D01*
X134668190Y-114222190D01*
X134744380Y-114184095D01*
X134896761Y-114146000D01*
X135011047Y-114146000D01*
X135163428Y-114184095D01*
X135239619Y-114222190D01*
X135315809Y-114298380D01*
X135353904Y-114412666D01*
X135353904Y-114603142D01*
X134934857Y-113536476D02*
X134972952Y-113422190D01*
X135011047Y-113384095D01*
X135087238Y-113346000D01*
X135201523Y-113346000D01*
X135277714Y-113384095D01*
X135315809Y-113422190D01*
X135353904Y-113498380D01*
X135353904Y-113803142D01*
X134553904Y-113803142D01*
X134553904Y-113536476D01*
X134592000Y-113460285D01*
X134630095Y-113422190D01*
X134706285Y-113384095D01*
X134782476Y-113384095D01*
X134858666Y-113422190D01*
X134896761Y-113460285D01*
X134934857Y-113536476D01*
X134934857Y-113803142D01*
X134553904Y-113003142D02*
X135201523Y-113003142D01*
X135277714Y-112965047D01*
X135315809Y-112926952D01*
X135353904Y-112850761D01*
X135353904Y-112698380D01*
X135315809Y-112622190D01*
X135277714Y-112584095D01*
X135201523Y-112546000D01*
X134553904Y-112546000D01*
X135315809Y-112203142D02*
X135353904Y-112088857D01*
X135353904Y-111898380D01*
X135315809Y-111822190D01*
X135277714Y-111784095D01*
X135201523Y-111746000D01*
X135125333Y-111746000D01*
X135049142Y-111784095D01*
X135011047Y-111822190D01*
X134972952Y-111898380D01*
X134934857Y-112050761D01*
X134896761Y-112126952D01*
X134858666Y-112165047D01*
X134782476Y-112203142D01*
X134706285Y-112203142D01*
X134630095Y-112165047D01*
X134592000Y-112126952D01*
X134553904Y-112050761D01*
X134553904Y-111860285D01*
X134592000Y-111746000D01*
X135353904Y-110336476D02*
X134972952Y-110603142D01*
X135353904Y-110793619D02*
X134553904Y-110793619D01*
X134553904Y-110488857D01*
X134592000Y-110412666D01*
X134630095Y-110374571D01*
X134706285Y-110336476D01*
X134820571Y-110336476D01*
X134896761Y-110374571D01*
X134934857Y-110412666D01*
X134972952Y-110488857D01*
X134972952Y-110793619D01*
X134553904Y-110107904D02*
X134553904Y-109650761D01*
X135353904Y-109879333D02*
X134553904Y-109879333D01*
X134553904Y-109384095D02*
X135201523Y-109384095D01*
X135277714Y-109346000D01*
X135315809Y-109307904D01*
X135353904Y-109231714D01*
X135353904Y-109079333D01*
X135315809Y-109003142D01*
X135277714Y-108965047D01*
X135201523Y-108926952D01*
X134553904Y-108926952D01*
X135353904Y-107936476D02*
X134553904Y-107936476D01*
X135125333Y-107669809D01*
X134553904Y-107403142D01*
X135353904Y-107403142D01*
X135353904Y-107022190D02*
X134553904Y-107022190D01*
X135353904Y-106184095D02*
X134972952Y-106450761D01*
X135353904Y-106641238D02*
X134553904Y-106641238D01*
X134553904Y-106336476D01*
X134592000Y-106260285D01*
X134630095Y-106222190D01*
X134706285Y-106184095D01*
X134820571Y-106184095D01*
X134896761Y-106222190D01*
X134934857Y-106260285D01*
X134972952Y-106336476D01*
X134972952Y-106641238D01*
X135353904Y-105384095D02*
X134972952Y-105650761D01*
X135353904Y-105841238D02*
X134553904Y-105841238D01*
X134553904Y-105536476D01*
X134592000Y-105460285D01*
X134630095Y-105422190D01*
X134706285Y-105384095D01*
X134820571Y-105384095D01*
X134896761Y-105422190D01*
X134934857Y-105460285D01*
X134972952Y-105536476D01*
X134972952Y-105841238D01*
X134553904Y-104888857D02*
X134553904Y-104736476D01*
X134592000Y-104660285D01*
X134668190Y-104584095D01*
X134820571Y-104546000D01*
X135087238Y-104546000D01*
X135239619Y-104584095D01*
X135315809Y-104660285D01*
X135353904Y-104736476D01*
X135353904Y-104888857D01*
X135315809Y-104965047D01*
X135239619Y-105041238D01*
X135087238Y-105079333D01*
X134820571Y-105079333D01*
X134668190Y-105041238D01*
X134592000Y-104965047D01*
X134553904Y-104888857D01*
X135353904Y-103746000D02*
X134972952Y-104012666D01*
X135353904Y-104203142D02*
X134553904Y-104203142D01*
X134553904Y-103898380D01*
X134592000Y-103822190D01*
X134630095Y-103784095D01*
X134706285Y-103746000D01*
X134820571Y-103746000D01*
X134896761Y-103784095D01*
X134934857Y-103822190D01*
X134972952Y-103898380D01*
X134972952Y-104203142D01*
X136603809Y-116393619D02*
X136641904Y-116279333D01*
X136641904Y-116088857D01*
X136603809Y-116012666D01*
X136565714Y-115974571D01*
X136489523Y-115936476D01*
X136413333Y-115936476D01*
X136337142Y-115974571D01*
X136299047Y-116012666D01*
X136260952Y-116088857D01*
X136222857Y-116241238D01*
X136184761Y-116317428D01*
X136146666Y-116355523D01*
X136070476Y-116393619D01*
X135994285Y-116393619D01*
X135918095Y-116355523D01*
X135880000Y-116317428D01*
X135841904Y-116241238D01*
X135841904Y-116050761D01*
X135880000Y-115936476D01*
X136641904Y-115593619D02*
X135841904Y-115593619D01*
X136641904Y-115212666D02*
X135841904Y-115212666D01*
X135841904Y-115022190D01*
X135880000Y-114907904D01*
X135956190Y-114831714D01*
X136032380Y-114793619D01*
X136184761Y-114755523D01*
X136299047Y-114755523D01*
X136451428Y-114793619D01*
X136527619Y-114831714D01*
X136603809Y-114907904D01*
X136641904Y-115022190D01*
X136641904Y-115212666D01*
X136222857Y-114412666D02*
X136222857Y-114146000D01*
X136641904Y-114031714D02*
X136641904Y-114412666D01*
X135841904Y-114412666D01*
X135841904Y-114031714D01*
X136222857Y-112812666D02*
X136260952Y-112698380D01*
X136299047Y-112660285D01*
X136375238Y-112622190D01*
X136489523Y-112622190D01*
X136565714Y-112660285D01*
X136603809Y-112698380D01*
X136641904Y-112774571D01*
X136641904Y-113079333D01*
X135841904Y-113079333D01*
X135841904Y-112812666D01*
X135880000Y-112736476D01*
X135918095Y-112698380D01*
X135994285Y-112660285D01*
X136070476Y-112660285D01*
X136146666Y-112698380D01*
X136184761Y-112736476D01*
X136222857Y-112812666D01*
X136222857Y-113079333D01*
X135841904Y-112126952D02*
X135841904Y-111974571D01*
X135880000Y-111898380D01*
X135956190Y-111822190D01*
X136108571Y-111784095D01*
X136375238Y-111784095D01*
X136527619Y-111822190D01*
X136603809Y-111898380D01*
X136641904Y-111974571D01*
X136641904Y-112126952D01*
X136603809Y-112203142D01*
X136527619Y-112279333D01*
X136375238Y-112317428D01*
X136108571Y-112317428D01*
X135956190Y-112279333D01*
X135880000Y-112203142D01*
X135841904Y-112126952D01*
X136413333Y-111479333D02*
X136413333Y-111098380D01*
X136641904Y-111555523D02*
X135841904Y-111288857D01*
X136641904Y-111022190D01*
X136641904Y-110298380D02*
X136260952Y-110565047D01*
X136641904Y-110755523D02*
X135841904Y-110755523D01*
X135841904Y-110450761D01*
X135880000Y-110374571D01*
X135918095Y-110336476D01*
X135994285Y-110298380D01*
X136108571Y-110298380D01*
X136184761Y-110336476D01*
X136222857Y-110374571D01*
X136260952Y-110450761D01*
X136260952Y-110755523D01*
X136641904Y-109955523D02*
X135841904Y-109955523D01*
X135841904Y-109765047D01*
X135880000Y-109650761D01*
X135956190Y-109574571D01*
X136032380Y-109536476D01*
X136184761Y-109498380D01*
X136299047Y-109498380D01*
X136451428Y-109536476D01*
X136527619Y-109574571D01*
X136603809Y-109650761D01*
X136641904Y-109765047D01*
X136641904Y-109955523D01*
D10*
X122755428Y-116570714D02*
X122755428Y-116320714D01*
X123148285Y-116213571D02*
X123148285Y-116570714D01*
X122398285Y-116570714D01*
X122398285Y-116213571D01*
X123148285Y-115892142D02*
X122398285Y-115892142D01*
X123148285Y-115463571D01*
X122398285Y-115463571D01*
X122469714Y-115142142D02*
X122434000Y-115106428D01*
X122398285Y-115035000D01*
X122398285Y-114856428D01*
X122434000Y-114785000D01*
X122469714Y-114749285D01*
X122541142Y-114713571D01*
X122612571Y-114713571D01*
X122719714Y-114749285D01*
X123148285Y-115177857D01*
X123148285Y-114713571D01*
X130609571Y-116624285D02*
X130609571Y-116052857D01*
X130895285Y-116338571D02*
X130323857Y-116338571D01*
X130145285Y-115338571D02*
X130145285Y-115695714D01*
X130502428Y-115731428D01*
X130466714Y-115695714D01*
X130431000Y-115624285D01*
X130431000Y-115445714D01*
X130466714Y-115374285D01*
X130502428Y-115338571D01*
X130573857Y-115302857D01*
X130752428Y-115302857D01*
X130823857Y-115338571D01*
X130859571Y-115374285D01*
X130895285Y-115445714D01*
X130895285Y-115624285D01*
X130859571Y-115695714D01*
X130823857Y-115731428D01*
X130145285Y-115088571D02*
X130895285Y-114838571D01*
X130145285Y-114588571D01*
X130609571Y-76624285D02*
X130609571Y-76052857D01*
X130895285Y-76338571D02*
X130323857Y-76338571D01*
X130145285Y-75338571D02*
X130145285Y-75695714D01*
X130502428Y-75731428D01*
X130466714Y-75695714D01*
X130431000Y-75624285D01*
X130431000Y-75445714D01*
X130466714Y-75374285D01*
X130502428Y-75338571D01*
X130573857Y-75302857D01*
X130752428Y-75302857D01*
X130823857Y-75338571D01*
X130859571Y-75374285D01*
X130895285Y-75445714D01*
X130895285Y-75624285D01*
X130859571Y-75695714D01*
X130823857Y-75731428D01*
X130145285Y-75088571D02*
X130895285Y-74838571D01*
X130145285Y-74588571D01*
X122755428Y-76570714D02*
X122755428Y-76320714D01*
X123148285Y-76213571D02*
X123148285Y-76570714D01*
X122398285Y-76570714D01*
X122398285Y-76213571D01*
X123148285Y-75892142D02*
X122398285Y-75892142D01*
X123148285Y-75463571D01*
X122398285Y-75463571D01*
X122469714Y-75142142D02*
X122434000Y-75106428D01*
X122398285Y-75035000D01*
X122398285Y-74856428D01*
X122434000Y-74785000D01*
X122469714Y-74749285D01*
X122541142Y-74713571D01*
X122612571Y-74713571D01*
X122719714Y-74749285D01*
X123148285Y-75177857D01*
X123148285Y-74713571D01*
D11*
X135353904Y-76355523D02*
X134553904Y-76355523D01*
X135125333Y-76088857D01*
X134553904Y-75822190D01*
X135353904Y-75822190D01*
X134553904Y-75288857D02*
X134553904Y-75136476D01*
X134592000Y-75060285D01*
X134668190Y-74984095D01*
X134820571Y-74946000D01*
X135087238Y-74946000D01*
X135239619Y-74984095D01*
X135315809Y-75060285D01*
X135353904Y-75136476D01*
X135353904Y-75288857D01*
X135315809Y-75365047D01*
X135239619Y-75441238D01*
X135087238Y-75479333D01*
X134820571Y-75479333D01*
X134668190Y-75441238D01*
X134592000Y-75365047D01*
X134553904Y-75288857D01*
X135353904Y-74603142D02*
X134553904Y-74603142D01*
X134553904Y-74412666D01*
X134592000Y-74298380D01*
X134668190Y-74222190D01*
X134744380Y-74184095D01*
X134896761Y-74146000D01*
X135011047Y-74146000D01*
X135163428Y-74184095D01*
X135239619Y-74222190D01*
X135315809Y-74298380D01*
X135353904Y-74412666D01*
X135353904Y-74603142D01*
X134934857Y-73536476D02*
X134972952Y-73422190D01*
X135011047Y-73384095D01*
X135087238Y-73346000D01*
X135201523Y-73346000D01*
X135277714Y-73384095D01*
X135315809Y-73422190D01*
X135353904Y-73498380D01*
X135353904Y-73803142D01*
X134553904Y-73803142D01*
X134553904Y-73536476D01*
X134592000Y-73460285D01*
X134630095Y-73422190D01*
X134706285Y-73384095D01*
X134782476Y-73384095D01*
X134858666Y-73422190D01*
X134896761Y-73460285D01*
X134934857Y-73536476D01*
X134934857Y-73803142D01*
X134553904Y-73003142D02*
X135201523Y-73003142D01*
X135277714Y-72965047D01*
X135315809Y-72926952D01*
X135353904Y-72850761D01*
X135353904Y-72698380D01*
X135315809Y-72622190D01*
X135277714Y-72584095D01*
X135201523Y-72546000D01*
X134553904Y-72546000D01*
X135315809Y-72203142D02*
X135353904Y-72088857D01*
X135353904Y-71898380D01*
X135315809Y-71822190D01*
X135277714Y-71784095D01*
X135201523Y-71746000D01*
X135125333Y-71746000D01*
X135049142Y-71784095D01*
X135011047Y-71822190D01*
X134972952Y-71898380D01*
X134934857Y-72050761D01*
X134896761Y-72126952D01*
X134858666Y-72165047D01*
X134782476Y-72203142D01*
X134706285Y-72203142D01*
X134630095Y-72165047D01*
X134592000Y-72126952D01*
X134553904Y-72050761D01*
X134553904Y-71860285D01*
X134592000Y-71746000D01*
X135353904Y-70336476D02*
X134972952Y-70603142D01*
X135353904Y-70793619D02*
X134553904Y-70793619D01*
X134553904Y-70488857D01*
X134592000Y-70412666D01*
X134630095Y-70374571D01*
X134706285Y-70336476D01*
X134820571Y-70336476D01*
X134896761Y-70374571D01*
X134934857Y-70412666D01*
X134972952Y-70488857D01*
X134972952Y-70793619D01*
X134553904Y-70107904D02*
X134553904Y-69650761D01*
X135353904Y-69879333D02*
X134553904Y-69879333D01*
X134553904Y-69384095D02*
X135201523Y-69384095D01*
X135277714Y-69346000D01*
X135315809Y-69307904D01*
X135353904Y-69231714D01*
X135353904Y-69079333D01*
X135315809Y-69003142D01*
X135277714Y-68965047D01*
X135201523Y-68926952D01*
X134553904Y-68926952D01*
X135353904Y-67936476D02*
X134553904Y-67936476D01*
X135125333Y-67669809D01*
X134553904Y-67403142D01*
X135353904Y-67403142D01*
X135353904Y-67022190D02*
X134553904Y-67022190D01*
X135353904Y-66184095D02*
X134972952Y-66450761D01*
X135353904Y-66641238D02*
X134553904Y-66641238D01*
X134553904Y-66336476D01*
X134592000Y-66260285D01*
X134630095Y-66222190D01*
X134706285Y-66184095D01*
X134820571Y-66184095D01*
X134896761Y-66222190D01*
X134934857Y-66260285D01*
X134972952Y-66336476D01*
X134972952Y-66641238D01*
X135353904Y-65384095D02*
X134972952Y-65650761D01*
X135353904Y-65841238D02*
X134553904Y-65841238D01*
X134553904Y-65536476D01*
X134592000Y-65460285D01*
X134630095Y-65422190D01*
X134706285Y-65384095D01*
X134820571Y-65384095D01*
X134896761Y-65422190D01*
X134934857Y-65460285D01*
X134972952Y-65536476D01*
X134972952Y-65841238D01*
X134553904Y-64888857D02*
X134553904Y-64736476D01*
X134592000Y-64660285D01*
X134668190Y-64584095D01*
X134820571Y-64546000D01*
X135087238Y-64546000D01*
X135239619Y-64584095D01*
X135315809Y-64660285D01*
X135353904Y-64736476D01*
X135353904Y-64888857D01*
X135315809Y-64965047D01*
X135239619Y-65041238D01*
X135087238Y-65079333D01*
X134820571Y-65079333D01*
X134668190Y-65041238D01*
X134592000Y-64965047D01*
X134553904Y-64888857D01*
X135353904Y-63746000D02*
X134972952Y-64012666D01*
X135353904Y-64203142D02*
X134553904Y-64203142D01*
X134553904Y-63898380D01*
X134592000Y-63822190D01*
X134630095Y-63784095D01*
X134706285Y-63746000D01*
X134820571Y-63746000D01*
X134896761Y-63784095D01*
X134934857Y-63822190D01*
X134972952Y-63898380D01*
X134972952Y-64203142D01*
X136603809Y-76393619D02*
X136641904Y-76279333D01*
X136641904Y-76088857D01*
X136603809Y-76012666D01*
X136565714Y-75974571D01*
X136489523Y-75936476D01*
X136413333Y-75936476D01*
X136337142Y-75974571D01*
X136299047Y-76012666D01*
X136260952Y-76088857D01*
X136222857Y-76241238D01*
X136184761Y-76317428D01*
X136146666Y-76355523D01*
X136070476Y-76393619D01*
X135994285Y-76393619D01*
X135918095Y-76355523D01*
X135880000Y-76317428D01*
X135841904Y-76241238D01*
X135841904Y-76050761D01*
X135880000Y-75936476D01*
X136641904Y-75593619D02*
X135841904Y-75593619D01*
X136641904Y-75212666D02*
X135841904Y-75212666D01*
X135841904Y-75022190D01*
X135880000Y-74907904D01*
X135956190Y-74831714D01*
X136032380Y-74793619D01*
X136184761Y-74755523D01*
X136299047Y-74755523D01*
X136451428Y-74793619D01*
X136527619Y-74831714D01*
X136603809Y-74907904D01*
X136641904Y-75022190D01*
X136641904Y-75212666D01*
X136222857Y-74412666D02*
X136222857Y-74146000D01*
X136641904Y-74031714D02*
X136641904Y-74412666D01*
X135841904Y-74412666D01*
X135841904Y-74031714D01*
X136222857Y-72812666D02*
X136260952Y-72698380D01*
X136299047Y-72660285D01*
X136375238Y-72622190D01*
X136489523Y-72622190D01*
X136565714Y-72660285D01*
X136603809Y-72698380D01*
X136641904Y-72774571D01*
X136641904Y-73079333D01*
X135841904Y-73079333D01*
X135841904Y-72812666D01*
X135880000Y-72736476D01*
X135918095Y-72698380D01*
X135994285Y-72660285D01*
X136070476Y-72660285D01*
X136146666Y-72698380D01*
X136184761Y-72736476D01*
X136222857Y-72812666D01*
X136222857Y-73079333D01*
X135841904Y-72126952D02*
X135841904Y-71974571D01*
X135880000Y-71898380D01*
X135956190Y-71822190D01*
X136108571Y-71784095D01*
X136375238Y-71784095D01*
X136527619Y-71822190D01*
X136603809Y-71898380D01*
X136641904Y-71974571D01*
X136641904Y-72126952D01*
X136603809Y-72203142D01*
X136527619Y-72279333D01*
X136375238Y-72317428D01*
X136108571Y-72317428D01*
X135956190Y-72279333D01*
X135880000Y-72203142D01*
X135841904Y-72126952D01*
X136413333Y-71479333D02*
X136413333Y-71098380D01*
X136641904Y-71555523D02*
X135841904Y-71288857D01*
X136641904Y-71022190D01*
X136641904Y-70298380D02*
X136260952Y-70565047D01*
X136641904Y-70755523D02*
X135841904Y-70755523D01*
X135841904Y-70450761D01*
X135880000Y-70374571D01*
X135918095Y-70336476D01*
X135994285Y-70298380D01*
X136108571Y-70298380D01*
X136184761Y-70336476D01*
X136222857Y-70374571D01*
X136260952Y-70450761D01*
X136260952Y-70755523D01*
X136641904Y-69955523D02*
X135841904Y-69955523D01*
X135841904Y-69765047D01*
X135880000Y-69650761D01*
X135956190Y-69574571D01*
X136032380Y-69536476D01*
X136184761Y-69498380D01*
X136299047Y-69498380D01*
X136451428Y-69536476D01*
X136527619Y-69574571D01*
X136603809Y-69650761D01*
X136641904Y-69765047D01*
X136641904Y-69955523D01*
D10*
X101951285Y-76461571D02*
X101951285Y-76033000D01*
X102701285Y-76247285D02*
X101951285Y-76247285D01*
X101951285Y-75854428D02*
X102701285Y-75354428D01*
X101951285Y-75354428D02*
X102701285Y-75854428D01*
X102022714Y-75104428D02*
X101987000Y-75068714D01*
X101951285Y-74997285D01*
X101951285Y-74818714D01*
X101987000Y-74747285D01*
X102022714Y-74711571D01*
X102094142Y-74675857D01*
X102165571Y-74675857D01*
X102272714Y-74711571D01*
X102701285Y-75140142D01*
X102701285Y-74675857D01*
X125688285Y-76142142D02*
X125331142Y-76392142D01*
X125688285Y-76570714D02*
X124938285Y-76570714D01*
X124938285Y-76285000D01*
X124974000Y-76213571D01*
X125009714Y-76177857D01*
X125081142Y-76142142D01*
X125188285Y-76142142D01*
X125259714Y-76177857D01*
X125295428Y-76213571D01*
X125331142Y-76285000D01*
X125331142Y-76570714D01*
X124938285Y-75892142D02*
X125688285Y-75392142D01*
X124938285Y-75392142D02*
X125688285Y-75892142D01*
X125009714Y-75142142D02*
X124974000Y-75106428D01*
X124938285Y-75035000D01*
X124938285Y-74856428D01*
X124974000Y-74785000D01*
X125009714Y-74749285D01*
X125081142Y-74713571D01*
X125152571Y-74713571D01*
X125259714Y-74749285D01*
X125688285Y-75177857D01*
X125688285Y-74713571D01*
X100288285Y-76015142D02*
X99931142Y-76265142D01*
X100288285Y-76443714D02*
X99538285Y-76443714D01*
X99538285Y-76158000D01*
X99574000Y-76086571D01*
X99609714Y-76050857D01*
X99681142Y-76015142D01*
X99788285Y-76015142D01*
X99859714Y-76050857D01*
X99895428Y-76086571D01*
X99931142Y-76158000D01*
X99931142Y-76443714D01*
X99538285Y-75765142D02*
X100288285Y-75265142D01*
X99538285Y-75265142D02*
X100288285Y-75765142D01*
X100288285Y-74586571D02*
X100288285Y-75015142D01*
X100288285Y-74800857D02*
X99538285Y-74800857D01*
X99645428Y-74872285D01*
X99716857Y-74943714D01*
X99752571Y-75015142D01*
X97355428Y-76443714D02*
X97355428Y-76193714D01*
X97748285Y-76086571D02*
X97748285Y-76443714D01*
X96998285Y-76443714D01*
X96998285Y-76086571D01*
X97748285Y-75765142D02*
X96998285Y-75765142D01*
X97748285Y-75336571D01*
X96998285Y-75336571D01*
X97748285Y-74586571D02*
X97748285Y-75015142D01*
X97748285Y-74800857D02*
X96998285Y-74800857D01*
X97105428Y-74872285D01*
X97176857Y-74943714D01*
X97212571Y-75015142D01*
X127514000Y-76231428D02*
X127478285Y-76302857D01*
X127478285Y-76410000D01*
X127514000Y-76517142D01*
X127585428Y-76588571D01*
X127656857Y-76624285D01*
X127799714Y-76660000D01*
X127906857Y-76660000D01*
X128049714Y-76624285D01*
X128121142Y-76588571D01*
X128192571Y-76517142D01*
X128228285Y-76410000D01*
X128228285Y-76338571D01*
X128192571Y-76231428D01*
X128156857Y-76195714D01*
X127906857Y-76195714D01*
X127906857Y-76338571D01*
X128228285Y-75874285D02*
X127478285Y-75874285D01*
X128228285Y-75445714D01*
X127478285Y-75445714D01*
X128228285Y-75088571D02*
X127478285Y-75088571D01*
X127478285Y-74910000D01*
X127514000Y-74802857D01*
X127585428Y-74731428D01*
X127656857Y-74695714D01*
X127799714Y-74660000D01*
X127906857Y-74660000D01*
X128049714Y-74695714D01*
X128121142Y-74731428D01*
X128192571Y-74802857D01*
X128228285Y-74910000D01*
X128228285Y-75088571D01*
X94458285Y-76588571D02*
X94458285Y-76160000D01*
X95208285Y-76374285D02*
X94458285Y-76374285D01*
X94458285Y-75981428D02*
X95208285Y-75481428D01*
X94458285Y-75481428D02*
X95208285Y-75981428D01*
X95208285Y-74802857D02*
X95208285Y-75231428D01*
X95208285Y-75017142D02*
X94458285Y-75017142D01*
X94565428Y-75088571D01*
X94636857Y-75160000D01*
X94672571Y-75231428D01*
D12*
%TO.C,R5*%
X123896380Y-105031666D02*
X123420190Y-105365000D01*
X123896380Y-105603095D02*
X122896380Y-105603095D01*
X122896380Y-105222142D01*
X122944000Y-105126904D01*
X122991619Y-105079285D01*
X123086857Y-105031666D01*
X123229714Y-105031666D01*
X123324952Y-105079285D01*
X123372571Y-105126904D01*
X123420190Y-105222142D01*
X123420190Y-105603095D01*
X122896380Y-104126904D02*
X122896380Y-104603095D01*
X123372571Y-104650714D01*
X123324952Y-104603095D01*
X123277333Y-104507857D01*
X123277333Y-104269761D01*
X123324952Y-104174523D01*
X123372571Y-104126904D01*
X123467809Y-104079285D01*
X123705904Y-104079285D01*
X123801142Y-104126904D01*
X123848761Y-104174523D01*
X123896380Y-104269761D01*
X123896380Y-104507857D01*
X123848761Y-104603095D01*
X123801142Y-104650714D01*
%TO.C,C7*%
X91496833Y-89220142D02*
X91449214Y-89267761D01*
X91306357Y-89315380D01*
X91211119Y-89315380D01*
X91068261Y-89267761D01*
X90973023Y-89172523D01*
X90925404Y-89077285D01*
X90877785Y-88886809D01*
X90877785Y-88743952D01*
X90925404Y-88553476D01*
X90973023Y-88458238D01*
X91068261Y-88363000D01*
X91211119Y-88315380D01*
X91306357Y-88315380D01*
X91449214Y-88363000D01*
X91496833Y-88410619D01*
X91830166Y-88315380D02*
X92496833Y-88315380D01*
X92068261Y-89315380D01*
%TO.C,D6*%
X103359904Y-78641380D02*
X103359904Y-77641380D01*
X103598000Y-77641380D01*
X103740857Y-77689000D01*
X103836095Y-77784238D01*
X103883714Y-77879476D01*
X103931333Y-78069952D01*
X103931333Y-78212809D01*
X103883714Y-78403285D01*
X103836095Y-78498523D01*
X103740857Y-78593761D01*
X103598000Y-78641380D01*
X103359904Y-78641380D01*
X104788476Y-77641380D02*
X104598000Y-77641380D01*
X104502761Y-77689000D01*
X104455142Y-77736619D01*
X104359904Y-77879476D01*
X104312285Y-78069952D01*
X104312285Y-78450904D01*
X104359904Y-78546142D01*
X104407523Y-78593761D01*
X104502761Y-78641380D01*
X104693238Y-78641380D01*
X104788476Y-78593761D01*
X104836095Y-78546142D01*
X104883714Y-78450904D01*
X104883714Y-78212809D01*
X104836095Y-78117571D01*
X104788476Y-78069952D01*
X104693238Y-78022333D01*
X104502761Y-78022333D01*
X104407523Y-78069952D01*
X104359904Y-78117571D01*
X104312285Y-78212809D01*
%TO.C,D5*%
X108459904Y-78641380D02*
X108459904Y-77641380D01*
X108698000Y-77641380D01*
X108840857Y-77689000D01*
X108936095Y-77784238D01*
X108983714Y-77879476D01*
X109031333Y-78069952D01*
X109031333Y-78212809D01*
X108983714Y-78403285D01*
X108936095Y-78498523D01*
X108840857Y-78593761D01*
X108698000Y-78641380D01*
X108459904Y-78641380D01*
X109936095Y-77641380D02*
X109459904Y-77641380D01*
X109412285Y-78117571D01*
X109459904Y-78069952D01*
X109555142Y-78022333D01*
X109793238Y-78022333D01*
X109888476Y-78069952D01*
X109936095Y-78117571D01*
X109983714Y-78212809D01*
X109983714Y-78450904D01*
X109936095Y-78546142D01*
X109888476Y-78593761D01*
X109793238Y-78641380D01*
X109555142Y-78641380D01*
X109459904Y-78593761D01*
X109412285Y-78546142D01*
%TO.C,C3*%
X98766333Y-102428142D02*
X98718714Y-102475761D01*
X98575857Y-102523380D01*
X98480619Y-102523380D01*
X98337761Y-102475761D01*
X98242523Y-102380523D01*
X98194904Y-102285285D01*
X98147285Y-102094809D01*
X98147285Y-101951952D01*
X98194904Y-101761476D01*
X98242523Y-101666238D01*
X98337761Y-101571000D01*
X98480619Y-101523380D01*
X98575857Y-101523380D01*
X98718714Y-101571000D01*
X98766333Y-101618619D01*
X99099666Y-101523380D02*
X99718714Y-101523380D01*
X99385380Y-101904333D01*
X99528238Y-101904333D01*
X99623476Y-101951952D01*
X99671095Y-101999571D01*
X99718714Y-102094809D01*
X99718714Y-102332904D01*
X99671095Y-102428142D01*
X99623476Y-102475761D01*
X99528238Y-102523380D01*
X99242523Y-102523380D01*
X99147285Y-102475761D01*
X99099666Y-102428142D01*
%TO.C,J2*%
X132227380Y-113162333D02*
X132941666Y-113162333D01*
X133084523Y-113209952D01*
X133179761Y-113305190D01*
X133227380Y-113448047D01*
X133227380Y-113543285D01*
X132322619Y-112733761D02*
X132275000Y-112686142D01*
X132227380Y-112590904D01*
X132227380Y-112352809D01*
X132275000Y-112257571D01*
X132322619Y-112209952D01*
X132417857Y-112162333D01*
X132513095Y-112162333D01*
X132655952Y-112209952D01*
X133227380Y-112781380D01*
X133227380Y-112162333D01*
%TO.C,U3*%
X103084380Y-108801904D02*
X103893904Y-108801904D01*
X103989142Y-108754285D01*
X104036761Y-108706666D01*
X104084380Y-108611428D01*
X104084380Y-108420952D01*
X104036761Y-108325714D01*
X103989142Y-108278095D01*
X103893904Y-108230476D01*
X103084380Y-108230476D01*
X103084380Y-107849523D02*
X103084380Y-107230476D01*
X103465333Y-107563809D01*
X103465333Y-107420952D01*
X103512952Y-107325714D01*
X103560571Y-107278095D01*
X103655809Y-107230476D01*
X103893904Y-107230476D01*
X103989142Y-107278095D01*
X104036761Y-107325714D01*
X104084380Y-107420952D01*
X104084380Y-107706666D01*
X104036761Y-107801904D01*
X103989142Y-107849523D01*
%TO.C,SW1*%
X95161666Y-81801261D02*
X95304523Y-81848880D01*
X95542619Y-81848880D01*
X95637857Y-81801261D01*
X95685476Y-81753642D01*
X95733095Y-81658404D01*
X95733095Y-81563166D01*
X95685476Y-81467928D01*
X95637857Y-81420309D01*
X95542619Y-81372690D01*
X95352142Y-81325071D01*
X95256904Y-81277452D01*
X95209285Y-81229833D01*
X95161666Y-81134595D01*
X95161666Y-81039357D01*
X95209285Y-80944119D01*
X95256904Y-80896500D01*
X95352142Y-80848880D01*
X95590238Y-80848880D01*
X95733095Y-80896500D01*
X96066428Y-80848880D02*
X96304523Y-81848880D01*
X96495000Y-81134595D01*
X96685476Y-81848880D01*
X96923571Y-80848880D01*
X97828333Y-81848880D02*
X97256904Y-81848880D01*
X97542619Y-81848880D02*
X97542619Y-80848880D01*
X97447380Y-80991738D01*
X97352142Y-81086976D01*
X97256904Y-81134595D01*
%TO.C,D1*%
X128859904Y-78641380D02*
X128859904Y-77641380D01*
X129098000Y-77641380D01*
X129240857Y-77689000D01*
X129336095Y-77784238D01*
X129383714Y-77879476D01*
X129431333Y-78069952D01*
X129431333Y-78212809D01*
X129383714Y-78403285D01*
X129336095Y-78498523D01*
X129240857Y-78593761D01*
X129098000Y-78641380D01*
X128859904Y-78641380D01*
X130383714Y-78641380D02*
X129812285Y-78641380D01*
X130098000Y-78641380D02*
X130098000Y-77641380D01*
X130002761Y-77784238D01*
X129907523Y-77879476D01*
X129812285Y-77927095D01*
%TO.C,U4*%
X106172095Y-97586380D02*
X106172095Y-98395904D01*
X106219714Y-98491142D01*
X106267333Y-98538761D01*
X106362571Y-98586380D01*
X106553047Y-98586380D01*
X106648285Y-98538761D01*
X106695904Y-98491142D01*
X106743523Y-98395904D01*
X106743523Y-97586380D01*
X107648285Y-97919714D02*
X107648285Y-98586380D01*
X107410190Y-97538761D02*
X107172095Y-98253047D01*
X107791142Y-98253047D01*
%TO.C,R13*%
X97147142Y-92363380D02*
X96813809Y-91887190D01*
X96575714Y-92363380D02*
X96575714Y-91363380D01*
X96956666Y-91363380D01*
X97051904Y-91411000D01*
X97099523Y-91458619D01*
X97147142Y-91553857D01*
X97147142Y-91696714D01*
X97099523Y-91791952D01*
X97051904Y-91839571D01*
X96956666Y-91887190D01*
X96575714Y-91887190D01*
X98099523Y-92363380D02*
X97528095Y-92363380D01*
X97813809Y-92363380D02*
X97813809Y-91363380D01*
X97718571Y-91506238D01*
X97623333Y-91601476D01*
X97528095Y-91649095D01*
X98432857Y-91363380D02*
X99051904Y-91363380D01*
X98718571Y-91744333D01*
X98861428Y-91744333D01*
X98956666Y-91791952D01*
X99004285Y-91839571D01*
X99051904Y-91934809D01*
X99051904Y-92172904D01*
X99004285Y-92268142D01*
X98956666Y-92315761D01*
X98861428Y-92363380D01*
X98575714Y-92363380D01*
X98480476Y-92315761D01*
X98432857Y-92268142D01*
%TO.C,R9*%
X87463333Y-113445380D02*
X87130000Y-112969190D01*
X86891904Y-113445380D02*
X86891904Y-112445380D01*
X87272857Y-112445380D01*
X87368095Y-112493000D01*
X87415714Y-112540619D01*
X87463333Y-112635857D01*
X87463333Y-112778714D01*
X87415714Y-112873952D01*
X87368095Y-112921571D01*
X87272857Y-112969190D01*
X86891904Y-112969190D01*
X87939523Y-113445380D02*
X88130000Y-113445380D01*
X88225238Y-113397761D01*
X88272857Y-113350142D01*
X88368095Y-113207285D01*
X88415714Y-113016809D01*
X88415714Y-112635857D01*
X88368095Y-112540619D01*
X88320476Y-112493000D01*
X88225238Y-112445380D01*
X88034761Y-112445380D01*
X87939523Y-112493000D01*
X87891904Y-112540619D01*
X87844285Y-112635857D01*
X87844285Y-112873952D01*
X87891904Y-112969190D01*
X87939523Y-113016809D01*
X88034761Y-113064428D01*
X88225238Y-113064428D01*
X88320476Y-113016809D01*
X88368095Y-112969190D01*
X88415714Y-112873952D01*
%TO.C,J1*%
X103465380Y-110659333D02*
X104179666Y-110659333D01*
X104322523Y-110706952D01*
X104417761Y-110802190D01*
X104465380Y-110945047D01*
X104465380Y-111040285D01*
X104465380Y-109659333D02*
X104465380Y-110230761D01*
X104465380Y-109945047D02*
X103465380Y-109945047D01*
X103608238Y-110040285D01*
X103703476Y-110135523D01*
X103751095Y-110230761D01*
%TO.C,C5*%
X87463333Y-111064142D02*
X87415714Y-111111761D01*
X87272857Y-111159380D01*
X87177619Y-111159380D01*
X87034761Y-111111761D01*
X86939523Y-111016523D01*
X86891904Y-110921285D01*
X86844285Y-110730809D01*
X86844285Y-110587952D01*
X86891904Y-110397476D01*
X86939523Y-110302238D01*
X87034761Y-110207000D01*
X87177619Y-110159380D01*
X87272857Y-110159380D01*
X87415714Y-110207000D01*
X87463333Y-110254619D01*
X88368095Y-110159380D02*
X87891904Y-110159380D01*
X87844285Y-110635571D01*
X87891904Y-110587952D01*
X87987142Y-110540333D01*
X88225238Y-110540333D01*
X88320476Y-110587952D01*
X88368095Y-110635571D01*
X88415714Y-110730809D01*
X88415714Y-110968904D01*
X88368095Y-111064142D01*
X88320476Y-111111761D01*
X88225238Y-111159380D01*
X87987142Y-111159380D01*
X87891904Y-111111761D01*
X87844285Y-111064142D01*
%TO.C,U1*%
X130683095Y-82981380D02*
X130683095Y-83790904D01*
X130730714Y-83886142D01*
X130778333Y-83933761D01*
X130873571Y-83981380D01*
X131064047Y-83981380D01*
X131159285Y-83933761D01*
X131206904Y-83886142D01*
X131254523Y-83790904D01*
X131254523Y-82981380D01*
X132254523Y-83981380D02*
X131683095Y-83981380D01*
X131968809Y-83981380D02*
X131968809Y-82981380D01*
X131873571Y-83124238D01*
X131778333Y-83219476D01*
X131683095Y-83267095D01*
%TO.C,D4*%
X113559904Y-78641380D02*
X113559904Y-77641380D01*
X113798000Y-77641380D01*
X113940857Y-77689000D01*
X114036095Y-77784238D01*
X114083714Y-77879476D01*
X114131333Y-78069952D01*
X114131333Y-78212809D01*
X114083714Y-78403285D01*
X114036095Y-78498523D01*
X113940857Y-78593761D01*
X113798000Y-78641380D01*
X113559904Y-78641380D01*
X114988476Y-77974714D02*
X114988476Y-78641380D01*
X114750380Y-77593761D02*
X114512285Y-78308047D01*
X115131333Y-78308047D01*
%TO.C,C4*%
X96480333Y-102428142D02*
X96432714Y-102475761D01*
X96289857Y-102523380D01*
X96194619Y-102523380D01*
X96051761Y-102475761D01*
X95956523Y-102380523D01*
X95908904Y-102285285D01*
X95861285Y-102094809D01*
X95861285Y-101951952D01*
X95908904Y-101761476D01*
X95956523Y-101666238D01*
X96051761Y-101571000D01*
X96194619Y-101523380D01*
X96289857Y-101523380D01*
X96432714Y-101571000D01*
X96480333Y-101618619D01*
X97337476Y-101856714D02*
X97337476Y-102523380D01*
X97099380Y-101475761D02*
X96861285Y-102190047D01*
X97480333Y-102190047D01*
%TO.C,R11*%
X91305142Y-86140380D02*
X90971809Y-85664190D01*
X90733714Y-86140380D02*
X90733714Y-85140380D01*
X91114666Y-85140380D01*
X91209904Y-85188000D01*
X91257523Y-85235619D01*
X91305142Y-85330857D01*
X91305142Y-85473714D01*
X91257523Y-85568952D01*
X91209904Y-85616571D01*
X91114666Y-85664190D01*
X90733714Y-85664190D01*
X92257523Y-86140380D02*
X91686095Y-86140380D01*
X91971809Y-86140380D02*
X91971809Y-85140380D01*
X91876571Y-85283238D01*
X91781333Y-85378476D01*
X91686095Y-85426095D01*
X93209904Y-86140380D02*
X92638476Y-86140380D01*
X92924190Y-86140380D02*
X92924190Y-85140380D01*
X92828952Y-85283238D01*
X92733714Y-85378476D01*
X92638476Y-85426095D01*
%TO.C,C1*%
X111228142Y-101729666D02*
X111275761Y-101777285D01*
X111323380Y-101920142D01*
X111323380Y-102015380D01*
X111275761Y-102158238D01*
X111180523Y-102253476D01*
X111085285Y-102301095D01*
X110894809Y-102348714D01*
X110751952Y-102348714D01*
X110561476Y-102301095D01*
X110466238Y-102253476D01*
X110371000Y-102158238D01*
X110323380Y-102015380D01*
X110323380Y-101920142D01*
X110371000Y-101777285D01*
X110418619Y-101729666D01*
X111323380Y-100777285D02*
X111323380Y-101348714D01*
X111323380Y-101063000D02*
X110323380Y-101063000D01*
X110466238Y-101158238D01*
X110561476Y-101253476D01*
X110609095Y-101348714D01*
%TO.C,C8*%
X92670333Y-100904142D02*
X92622714Y-100951761D01*
X92479857Y-100999380D01*
X92384619Y-100999380D01*
X92241761Y-100951761D01*
X92146523Y-100856523D01*
X92098904Y-100761285D01*
X92051285Y-100570809D01*
X92051285Y-100427952D01*
X92098904Y-100237476D01*
X92146523Y-100142238D01*
X92241761Y-100047000D01*
X92384619Y-99999380D01*
X92479857Y-99999380D01*
X92622714Y-100047000D01*
X92670333Y-100094619D01*
X93241761Y-100427952D02*
X93146523Y-100380333D01*
X93098904Y-100332714D01*
X93051285Y-100237476D01*
X93051285Y-100189857D01*
X93098904Y-100094619D01*
X93146523Y-100047000D01*
X93241761Y-99999380D01*
X93432238Y-99999380D01*
X93527476Y-100047000D01*
X93575095Y-100094619D01*
X93622714Y-100189857D01*
X93622714Y-100237476D01*
X93575095Y-100332714D01*
X93527476Y-100380333D01*
X93432238Y-100427952D01*
X93241761Y-100427952D01*
X93146523Y-100475571D01*
X93098904Y-100523190D01*
X93051285Y-100618428D01*
X93051285Y-100808904D01*
X93098904Y-100904142D01*
X93146523Y-100951761D01*
X93241761Y-100999380D01*
X93432238Y-100999380D01*
X93527476Y-100951761D01*
X93575095Y-100904142D01*
X93622714Y-100808904D01*
X93622714Y-100618428D01*
X93575095Y-100523190D01*
X93527476Y-100475571D01*
X93432238Y-100427952D01*
%TO.C,C6*%
X97623333Y-99224142D02*
X97575714Y-99271761D01*
X97432857Y-99319380D01*
X97337619Y-99319380D01*
X97194761Y-99271761D01*
X97099523Y-99176523D01*
X97051904Y-99081285D01*
X97004285Y-98890809D01*
X97004285Y-98747952D01*
X97051904Y-98557476D01*
X97099523Y-98462238D01*
X97194761Y-98367000D01*
X97337619Y-98319380D01*
X97432857Y-98319380D01*
X97575714Y-98367000D01*
X97623333Y-98414619D01*
X98480476Y-98319380D02*
X98290000Y-98319380D01*
X98194761Y-98367000D01*
X98147142Y-98414619D01*
X98051904Y-98557476D01*
X98004285Y-98747952D01*
X98004285Y-99128904D01*
X98051904Y-99224142D01*
X98099523Y-99271761D01*
X98194761Y-99319380D01*
X98385238Y-99319380D01*
X98480476Y-99271761D01*
X98528095Y-99224142D01*
X98575714Y-99128904D01*
X98575714Y-98890809D01*
X98528095Y-98795571D01*
X98480476Y-98747952D01*
X98385238Y-98700333D01*
X98194761Y-98700333D01*
X98099523Y-98747952D01*
X98051904Y-98795571D01*
X98004285Y-98890809D01*
%TO.C,R4*%
X126436380Y-105031666D02*
X125960190Y-105365000D01*
X126436380Y-105603095D02*
X125436380Y-105603095D01*
X125436380Y-105222142D01*
X125484000Y-105126904D01*
X125531619Y-105079285D01*
X125626857Y-105031666D01*
X125769714Y-105031666D01*
X125864952Y-105079285D01*
X125912571Y-105126904D01*
X125960190Y-105222142D01*
X125960190Y-105603095D01*
X125769714Y-104174523D02*
X126436380Y-104174523D01*
X125388761Y-104412619D02*
X126103047Y-104650714D01*
X126103047Y-104031666D01*
%TO.C,R2*%
X131770380Y-105031666D02*
X131294190Y-105365000D01*
X131770380Y-105603095D02*
X130770380Y-105603095D01*
X130770380Y-105222142D01*
X130818000Y-105126904D01*
X130865619Y-105079285D01*
X130960857Y-105031666D01*
X131103714Y-105031666D01*
X131198952Y-105079285D01*
X131246571Y-105126904D01*
X131294190Y-105222142D01*
X131294190Y-105603095D01*
X130865619Y-104650714D02*
X130818000Y-104603095D01*
X130770380Y-104507857D01*
X130770380Y-104269761D01*
X130818000Y-104174523D01*
X130865619Y-104126904D01*
X130960857Y-104079285D01*
X131056095Y-104079285D01*
X131198952Y-104126904D01*
X131770380Y-104698333D01*
X131770380Y-104079285D01*
%TO.C,U5*%
X95123095Y-97840380D02*
X95123095Y-98649904D01*
X95170714Y-98745142D01*
X95218333Y-98792761D01*
X95313571Y-98840380D01*
X95504047Y-98840380D01*
X95599285Y-98792761D01*
X95646904Y-98745142D01*
X95694523Y-98649904D01*
X95694523Y-97840380D01*
X96646904Y-97840380D02*
X96170714Y-97840380D01*
X96123095Y-98316571D01*
X96170714Y-98268952D01*
X96265952Y-98221333D01*
X96504047Y-98221333D01*
X96599285Y-98268952D01*
X96646904Y-98316571D01*
X96694523Y-98411809D01*
X96694523Y-98649904D01*
X96646904Y-98745142D01*
X96599285Y-98792761D01*
X96504047Y-98840380D01*
X96265952Y-98840380D01*
X96170714Y-98792761D01*
X96123095Y-98745142D01*
%TO.C,R1*%
X97750333Y-109889380D02*
X97417000Y-109413190D01*
X97178904Y-109889380D02*
X97178904Y-108889380D01*
X97559857Y-108889380D01*
X97655095Y-108937000D01*
X97702714Y-108984619D01*
X97750333Y-109079857D01*
X97750333Y-109222714D01*
X97702714Y-109317952D01*
X97655095Y-109365571D01*
X97559857Y-109413190D01*
X97178904Y-109413190D01*
X98702714Y-109889380D02*
X98131285Y-109889380D01*
X98417000Y-109889380D02*
X98417000Y-108889380D01*
X98321761Y-109032238D01*
X98226523Y-109127476D01*
X98131285Y-109175095D01*
%TO.C,BT1*%
X105894285Y-83838571D02*
X106037142Y-83886190D01*
X106084761Y-83933809D01*
X106132380Y-84029047D01*
X106132380Y-84171904D01*
X106084761Y-84267142D01*
X106037142Y-84314761D01*
X105941904Y-84362380D01*
X105560952Y-84362380D01*
X105560952Y-83362380D01*
X105894285Y-83362380D01*
X105989523Y-83410000D01*
X106037142Y-83457619D01*
X106084761Y-83552857D01*
X106084761Y-83648095D01*
X106037142Y-83743333D01*
X105989523Y-83790952D01*
X105894285Y-83838571D01*
X105560952Y-83838571D01*
X106418095Y-83362380D02*
X106989523Y-83362380D01*
X106703809Y-84362380D02*
X106703809Y-83362380D01*
X107846666Y-84362380D02*
X107275238Y-84362380D01*
X107560952Y-84362380D02*
X107560952Y-83362380D01*
X107465714Y-83505238D01*
X107370476Y-83600476D01*
X107275238Y-83648095D01*
X99250571Y-88561142D02*
X100393428Y-88561142D01*
X99822000Y-89132571D02*
X99822000Y-87989714D01*
X109410571Y-88561142D02*
X110553428Y-88561142D01*
X109982000Y-89132571D02*
X109982000Y-87989714D01*
%TO.C,J3*%
X87042666Y-101142380D02*
X87042666Y-101856666D01*
X86995047Y-101999523D01*
X86899809Y-102094761D01*
X86756952Y-102142380D01*
X86661714Y-102142380D01*
X87423619Y-101142380D02*
X88042666Y-101142380D01*
X87709333Y-101523333D01*
X87852190Y-101523333D01*
X87947428Y-101570952D01*
X87995047Y-101618571D01*
X88042666Y-101713809D01*
X88042666Y-101951904D01*
X87995047Y-102047142D01*
X87947428Y-102094761D01*
X87852190Y-102142380D01*
X87566476Y-102142380D01*
X87471238Y-102094761D01*
X87423619Y-102047142D01*
%TO.C,R8*%
X95591333Y-84236380D02*
X95258000Y-83760190D01*
X95019904Y-84236380D02*
X95019904Y-83236380D01*
X95400857Y-83236380D01*
X95496095Y-83284000D01*
X95543714Y-83331619D01*
X95591333Y-83426857D01*
X95591333Y-83569714D01*
X95543714Y-83664952D01*
X95496095Y-83712571D01*
X95400857Y-83760190D01*
X95019904Y-83760190D01*
X96162761Y-83664952D02*
X96067523Y-83617333D01*
X96019904Y-83569714D01*
X95972285Y-83474476D01*
X95972285Y-83426857D01*
X96019904Y-83331619D01*
X96067523Y-83284000D01*
X96162761Y-83236380D01*
X96353238Y-83236380D01*
X96448476Y-83284000D01*
X96496095Y-83331619D01*
X96543714Y-83426857D01*
X96543714Y-83474476D01*
X96496095Y-83569714D01*
X96448476Y-83617333D01*
X96353238Y-83664952D01*
X96162761Y-83664952D01*
X96067523Y-83712571D01*
X96019904Y-83760190D01*
X95972285Y-83855428D01*
X95972285Y-84045904D01*
X96019904Y-84141142D01*
X96067523Y-84188761D01*
X96162761Y-84236380D01*
X96353238Y-84236380D01*
X96448476Y-84188761D01*
X96496095Y-84141142D01*
X96543714Y-84045904D01*
X96543714Y-83855428D01*
X96496095Y-83760190D01*
X96448476Y-83712571D01*
X96353238Y-83664952D01*
%TO.C,R7*%
X118959333Y-105572380D02*
X118626000Y-105096190D01*
X118387904Y-105572380D02*
X118387904Y-104572380D01*
X118768857Y-104572380D01*
X118864095Y-104620000D01*
X118911714Y-104667619D01*
X118959333Y-104762857D01*
X118959333Y-104905714D01*
X118911714Y-105000952D01*
X118864095Y-105048571D01*
X118768857Y-105096190D01*
X118387904Y-105096190D01*
X119292666Y-104572380D02*
X119959333Y-104572380D01*
X119530761Y-105572380D01*
%TO.C,C2*%
X109069142Y-101729666D02*
X109116761Y-101777285D01*
X109164380Y-101920142D01*
X109164380Y-102015380D01*
X109116761Y-102158238D01*
X109021523Y-102253476D01*
X108926285Y-102301095D01*
X108735809Y-102348714D01*
X108592952Y-102348714D01*
X108402476Y-102301095D01*
X108307238Y-102253476D01*
X108212000Y-102158238D01*
X108164380Y-102015380D01*
X108164380Y-101920142D01*
X108212000Y-101777285D01*
X108259619Y-101729666D01*
X108259619Y-101348714D02*
X108212000Y-101301095D01*
X108164380Y-101205857D01*
X108164380Y-100967761D01*
X108212000Y-100872523D01*
X108259619Y-100824904D01*
X108354857Y-100777285D01*
X108450095Y-100777285D01*
X108592952Y-100824904D01*
X109164380Y-101396333D01*
X109164380Y-100777285D01*
%TO.C,D2*%
X123759904Y-78641380D02*
X123759904Y-77641380D01*
X123998000Y-77641380D01*
X124140857Y-77689000D01*
X124236095Y-77784238D01*
X124283714Y-77879476D01*
X124331333Y-78069952D01*
X124331333Y-78212809D01*
X124283714Y-78403285D01*
X124236095Y-78498523D01*
X124140857Y-78593761D01*
X123998000Y-78641380D01*
X123759904Y-78641380D01*
X124712285Y-77736619D02*
X124759904Y-77689000D01*
X124855142Y-77641380D01*
X125093238Y-77641380D01*
X125188476Y-77689000D01*
X125236095Y-77736619D01*
X125283714Y-77831857D01*
X125283714Y-77927095D01*
X125236095Y-78069952D01*
X124664666Y-78641380D01*
X125283714Y-78641380D01*
%TO.C,D3*%
X118659904Y-78641380D02*
X118659904Y-77641380D01*
X118898000Y-77641380D01*
X119040857Y-77689000D01*
X119136095Y-77784238D01*
X119183714Y-77879476D01*
X119231333Y-78069952D01*
X119231333Y-78212809D01*
X119183714Y-78403285D01*
X119136095Y-78498523D01*
X119040857Y-78593761D01*
X118898000Y-78641380D01*
X118659904Y-78641380D01*
X119564666Y-77641380D02*
X120183714Y-77641380D01*
X119850380Y-78022333D01*
X119993238Y-78022333D01*
X120088476Y-78069952D01*
X120136095Y-78117571D01*
X120183714Y-78212809D01*
X120183714Y-78450904D01*
X120136095Y-78546142D01*
X120088476Y-78593761D01*
X119993238Y-78641380D01*
X119707523Y-78641380D01*
X119612285Y-78593761D01*
X119564666Y-78546142D01*
%TO.C,R3*%
X129103380Y-105031666D02*
X128627190Y-105365000D01*
X129103380Y-105603095D02*
X128103380Y-105603095D01*
X128103380Y-105222142D01*
X128151000Y-105126904D01*
X128198619Y-105079285D01*
X128293857Y-105031666D01*
X128436714Y-105031666D01*
X128531952Y-105079285D01*
X128579571Y-105126904D01*
X128627190Y-105222142D01*
X128627190Y-105603095D01*
X128103380Y-104698333D02*
X128103380Y-104079285D01*
X128484333Y-104412619D01*
X128484333Y-104269761D01*
X128531952Y-104174523D01*
X128579571Y-104126904D01*
X128674809Y-104079285D01*
X128912904Y-104079285D01*
X129008142Y-104126904D01*
X129055761Y-104174523D01*
X129103380Y-104269761D01*
X129103380Y-104555476D01*
X129055761Y-104650714D01*
X129008142Y-104698333D01*
%TO.C,R12*%
X99552890Y-98840380D02*
X99219557Y-98364190D01*
X98981462Y-98840380D02*
X98981462Y-97840380D01*
X99362414Y-97840380D01*
X99457652Y-97888000D01*
X99505271Y-97935619D01*
X99552890Y-98030857D01*
X99552890Y-98173714D01*
X99505271Y-98268952D01*
X99457652Y-98316571D01*
X99362414Y-98364190D01*
X98981462Y-98364190D01*
X100505271Y-98840380D02*
X99933843Y-98840380D01*
X100219557Y-98840380D02*
X100219557Y-97840380D01*
X100124319Y-97983238D01*
X100029081Y-98078476D01*
X99933843Y-98126095D01*
X100886224Y-97935619D02*
X100933843Y-97888000D01*
X101029081Y-97840380D01*
X101267176Y-97840380D01*
X101362414Y-97888000D01*
X101410033Y-97935619D01*
X101457652Y-98030857D01*
X101457652Y-98126095D01*
X101410033Y-98268952D01*
X100838605Y-98840380D01*
X101457652Y-98840380D01*
%TO.C,R10*%
X87368142Y-116112380D02*
X87034809Y-115636190D01*
X86796714Y-116112380D02*
X86796714Y-115112380D01*
X87177666Y-115112380D01*
X87272904Y-115160000D01*
X87320523Y-115207619D01*
X87368142Y-115302857D01*
X87368142Y-115445714D01*
X87320523Y-115540952D01*
X87272904Y-115588571D01*
X87177666Y-115636190D01*
X86796714Y-115636190D01*
X88320523Y-116112380D02*
X87749095Y-116112380D01*
X88034809Y-116112380D02*
X88034809Y-115112380D01*
X87939571Y-115255238D01*
X87844333Y-115350476D01*
X87749095Y-115398095D01*
X88939571Y-115112380D02*
X89034809Y-115112380D01*
X89130047Y-115160000D01*
X89177666Y-115207619D01*
X89225285Y-115302857D01*
X89272904Y-115493333D01*
X89272904Y-115731428D01*
X89225285Y-115921904D01*
X89177666Y-116017142D01*
X89130047Y-116064761D01*
X89034809Y-116112380D01*
X88939571Y-116112380D01*
X88844333Y-116064761D01*
X88796714Y-116017142D01*
X88749095Y-115921904D01*
X88701476Y-115731428D01*
X88701476Y-115493333D01*
X88749095Y-115302857D01*
X88796714Y-115207619D01*
X88844333Y-115160000D01*
X88939571Y-115112380D01*
%TO.C,C9*%
X100544333Y-100015142D02*
X100496714Y-100062761D01*
X100353857Y-100110380D01*
X100258619Y-100110380D01*
X100115761Y-100062761D01*
X100020523Y-99967523D01*
X99972904Y-99872285D01*
X99925285Y-99681809D01*
X99925285Y-99538952D01*
X99972904Y-99348476D01*
X100020523Y-99253238D01*
X100115761Y-99158000D01*
X100258619Y-99110380D01*
X100353857Y-99110380D01*
X100496714Y-99158000D01*
X100544333Y-99205619D01*
X101020523Y-100110380D02*
X101211000Y-100110380D01*
X101306238Y-100062761D01*
X101353857Y-100015142D01*
X101449095Y-99872285D01*
X101496714Y-99681809D01*
X101496714Y-99300857D01*
X101449095Y-99205619D01*
X101401476Y-99158000D01*
X101306238Y-99110380D01*
X101115761Y-99110380D01*
X101020523Y-99158000D01*
X100972904Y-99205619D01*
X100925285Y-99300857D01*
X100925285Y-99538952D01*
X100972904Y-99634190D01*
X101020523Y-99681809D01*
X101115761Y-99729428D01*
X101306238Y-99729428D01*
X101401476Y-99681809D01*
X101449095Y-99634190D01*
X101496714Y-99538952D01*
%TO.C,R6*%
X114641333Y-105572380D02*
X114308000Y-105096190D01*
X114069904Y-105572380D02*
X114069904Y-104572380D01*
X114450857Y-104572380D01*
X114546095Y-104620000D01*
X114593714Y-104667619D01*
X114641333Y-104762857D01*
X114641333Y-104905714D01*
X114593714Y-105000952D01*
X114546095Y-105048571D01*
X114450857Y-105096190D01*
X114069904Y-105096190D01*
X115498476Y-104572380D02*
X115308000Y-104572380D01*
X115212761Y-104620000D01*
X115165142Y-104667619D01*
X115069904Y-104810476D01*
X115022285Y-105000952D01*
X115022285Y-105381904D01*
X115069904Y-105477142D01*
X115117523Y-105524761D01*
X115212761Y-105572380D01*
X115403238Y-105572380D01*
X115498476Y-105524761D01*
X115546095Y-105477142D01*
X115593714Y-105381904D01*
X115593714Y-105143809D01*
X115546095Y-105048571D01*
X115498476Y-105000952D01*
X115403238Y-104953333D01*
X115212761Y-104953333D01*
X115117523Y-105000952D01*
X115069904Y-105048571D01*
X115022285Y-105143809D01*
%TO.C,U2*%
X94965380Y-107912904D02*
X95774904Y-107912904D01*
X95870142Y-107865285D01*
X95917761Y-107817666D01*
X95965380Y-107722428D01*
X95965380Y-107531952D01*
X95917761Y-107436714D01*
X95870142Y-107389095D01*
X95774904Y-107341476D01*
X94965380Y-107341476D01*
X95060619Y-106912904D02*
X95013000Y-106865285D01*
X94965380Y-106770047D01*
X94965380Y-106531952D01*
X95013000Y-106436714D01*
X95060619Y-106389095D01*
X95155857Y-106341476D01*
X95251095Y-106341476D01*
X95393952Y-106389095D01*
X95965380Y-106960523D01*
X95965380Y-106341476D01*
%TO.C,R10*%
X87368142Y-76112380D02*
X87034809Y-75636190D01*
X86796714Y-76112380D02*
X86796714Y-75112380D01*
X87177666Y-75112380D01*
X87272904Y-75160000D01*
X87320523Y-75207619D01*
X87368142Y-75302857D01*
X87368142Y-75445714D01*
X87320523Y-75540952D01*
X87272904Y-75588571D01*
X87177666Y-75636190D01*
X86796714Y-75636190D01*
X88320523Y-76112380D02*
X87749095Y-76112380D01*
X88034809Y-76112380D02*
X88034809Y-75112380D01*
X87939571Y-75255238D01*
X87844333Y-75350476D01*
X87749095Y-75398095D01*
X88939571Y-75112380D02*
X89034809Y-75112380D01*
X89130047Y-75160000D01*
X89177666Y-75207619D01*
X89225285Y-75302857D01*
X89272904Y-75493333D01*
X89272904Y-75731428D01*
X89225285Y-75921904D01*
X89177666Y-76017142D01*
X89130047Y-76064761D01*
X89034809Y-76112380D01*
X88939571Y-76112380D01*
X88844333Y-76064761D01*
X88796714Y-76017142D01*
X88749095Y-75921904D01*
X88701476Y-75731428D01*
X88701476Y-75493333D01*
X88749095Y-75302857D01*
X88796714Y-75207619D01*
X88844333Y-75160000D01*
X88939571Y-75112380D01*
%TO.C,R4*%
X126436380Y-65031666D02*
X125960190Y-65365000D01*
X126436380Y-65603095D02*
X125436380Y-65603095D01*
X125436380Y-65222142D01*
X125484000Y-65126904D01*
X125531619Y-65079285D01*
X125626857Y-65031666D01*
X125769714Y-65031666D01*
X125864952Y-65079285D01*
X125912571Y-65126904D01*
X125960190Y-65222142D01*
X125960190Y-65603095D01*
X125769714Y-64174523D02*
X126436380Y-64174523D01*
X125388761Y-64412619D02*
X126103047Y-64650714D01*
X126103047Y-64031666D01*
%TO.C,R11*%
X91305142Y-46140380D02*
X90971809Y-45664190D01*
X90733714Y-46140380D02*
X90733714Y-45140380D01*
X91114666Y-45140380D01*
X91209904Y-45188000D01*
X91257523Y-45235619D01*
X91305142Y-45330857D01*
X91305142Y-45473714D01*
X91257523Y-45568952D01*
X91209904Y-45616571D01*
X91114666Y-45664190D01*
X90733714Y-45664190D01*
X92257523Y-46140380D02*
X91686095Y-46140380D01*
X91971809Y-46140380D02*
X91971809Y-45140380D01*
X91876571Y-45283238D01*
X91781333Y-45378476D01*
X91686095Y-45426095D01*
X93209904Y-46140380D02*
X92638476Y-46140380D01*
X92924190Y-46140380D02*
X92924190Y-45140380D01*
X92828952Y-45283238D01*
X92733714Y-45378476D01*
X92638476Y-45426095D01*
%TO.C,D3*%
X118659904Y-38641380D02*
X118659904Y-37641380D01*
X118898000Y-37641380D01*
X119040857Y-37689000D01*
X119136095Y-37784238D01*
X119183714Y-37879476D01*
X119231333Y-38069952D01*
X119231333Y-38212809D01*
X119183714Y-38403285D01*
X119136095Y-38498523D01*
X119040857Y-38593761D01*
X118898000Y-38641380D01*
X118659904Y-38641380D01*
X119564666Y-37641380D02*
X120183714Y-37641380D01*
X119850380Y-38022333D01*
X119993238Y-38022333D01*
X120088476Y-38069952D01*
X120136095Y-38117571D01*
X120183714Y-38212809D01*
X120183714Y-38450904D01*
X120136095Y-38546142D01*
X120088476Y-38593761D01*
X119993238Y-38641380D01*
X119707523Y-38641380D01*
X119612285Y-38593761D01*
X119564666Y-38546142D01*
%TO.C,C9*%
X100544333Y-60015142D02*
X100496714Y-60062761D01*
X100353857Y-60110380D01*
X100258619Y-60110380D01*
X100115761Y-60062761D01*
X100020523Y-59967523D01*
X99972904Y-59872285D01*
X99925285Y-59681809D01*
X99925285Y-59538952D01*
X99972904Y-59348476D01*
X100020523Y-59253238D01*
X100115761Y-59158000D01*
X100258619Y-59110380D01*
X100353857Y-59110380D01*
X100496714Y-59158000D01*
X100544333Y-59205619D01*
X101020523Y-60110380D02*
X101211000Y-60110380D01*
X101306238Y-60062761D01*
X101353857Y-60015142D01*
X101449095Y-59872285D01*
X101496714Y-59681809D01*
X101496714Y-59300857D01*
X101449095Y-59205619D01*
X101401476Y-59158000D01*
X101306238Y-59110380D01*
X101115761Y-59110380D01*
X101020523Y-59158000D01*
X100972904Y-59205619D01*
X100925285Y-59300857D01*
X100925285Y-59538952D01*
X100972904Y-59634190D01*
X101020523Y-59681809D01*
X101115761Y-59729428D01*
X101306238Y-59729428D01*
X101401476Y-59681809D01*
X101449095Y-59634190D01*
X101496714Y-59538952D01*
%TO.C,C6*%
X97623333Y-59224142D02*
X97575714Y-59271761D01*
X97432857Y-59319380D01*
X97337619Y-59319380D01*
X97194761Y-59271761D01*
X97099523Y-59176523D01*
X97051904Y-59081285D01*
X97004285Y-58890809D01*
X97004285Y-58747952D01*
X97051904Y-58557476D01*
X97099523Y-58462238D01*
X97194761Y-58367000D01*
X97337619Y-58319380D01*
X97432857Y-58319380D01*
X97575714Y-58367000D01*
X97623333Y-58414619D01*
X98480476Y-58319380D02*
X98290000Y-58319380D01*
X98194761Y-58367000D01*
X98147142Y-58414619D01*
X98051904Y-58557476D01*
X98004285Y-58747952D01*
X98004285Y-59128904D01*
X98051904Y-59224142D01*
X98099523Y-59271761D01*
X98194761Y-59319380D01*
X98385238Y-59319380D01*
X98480476Y-59271761D01*
X98528095Y-59224142D01*
X98575714Y-59128904D01*
X98575714Y-58890809D01*
X98528095Y-58795571D01*
X98480476Y-58747952D01*
X98385238Y-58700333D01*
X98194761Y-58700333D01*
X98099523Y-58747952D01*
X98051904Y-58795571D01*
X98004285Y-58890809D01*
%TO.C,R7*%
X118959333Y-65572380D02*
X118626000Y-65096190D01*
X118387904Y-65572380D02*
X118387904Y-64572380D01*
X118768857Y-64572380D01*
X118864095Y-64620000D01*
X118911714Y-64667619D01*
X118959333Y-64762857D01*
X118959333Y-64905714D01*
X118911714Y-65000952D01*
X118864095Y-65048571D01*
X118768857Y-65096190D01*
X118387904Y-65096190D01*
X119292666Y-64572380D02*
X119959333Y-64572380D01*
X119530761Y-65572380D01*
%TO.C,C8*%
X92670333Y-60904142D02*
X92622714Y-60951761D01*
X92479857Y-60999380D01*
X92384619Y-60999380D01*
X92241761Y-60951761D01*
X92146523Y-60856523D01*
X92098904Y-60761285D01*
X92051285Y-60570809D01*
X92051285Y-60427952D01*
X92098904Y-60237476D01*
X92146523Y-60142238D01*
X92241761Y-60047000D01*
X92384619Y-59999380D01*
X92479857Y-59999380D01*
X92622714Y-60047000D01*
X92670333Y-60094619D01*
X93241761Y-60427952D02*
X93146523Y-60380333D01*
X93098904Y-60332714D01*
X93051285Y-60237476D01*
X93051285Y-60189857D01*
X93098904Y-60094619D01*
X93146523Y-60047000D01*
X93241761Y-59999380D01*
X93432238Y-59999380D01*
X93527476Y-60047000D01*
X93575095Y-60094619D01*
X93622714Y-60189857D01*
X93622714Y-60237476D01*
X93575095Y-60332714D01*
X93527476Y-60380333D01*
X93432238Y-60427952D01*
X93241761Y-60427952D01*
X93146523Y-60475571D01*
X93098904Y-60523190D01*
X93051285Y-60618428D01*
X93051285Y-60808904D01*
X93098904Y-60904142D01*
X93146523Y-60951761D01*
X93241761Y-60999380D01*
X93432238Y-60999380D01*
X93527476Y-60951761D01*
X93575095Y-60904142D01*
X93622714Y-60808904D01*
X93622714Y-60618428D01*
X93575095Y-60523190D01*
X93527476Y-60475571D01*
X93432238Y-60427952D01*
%TO.C,U5*%
X95123095Y-57840380D02*
X95123095Y-58649904D01*
X95170714Y-58745142D01*
X95218333Y-58792761D01*
X95313571Y-58840380D01*
X95504047Y-58840380D01*
X95599285Y-58792761D01*
X95646904Y-58745142D01*
X95694523Y-58649904D01*
X95694523Y-57840380D01*
X96646904Y-57840380D02*
X96170714Y-57840380D01*
X96123095Y-58316571D01*
X96170714Y-58268952D01*
X96265952Y-58221333D01*
X96504047Y-58221333D01*
X96599285Y-58268952D01*
X96646904Y-58316571D01*
X96694523Y-58411809D01*
X96694523Y-58649904D01*
X96646904Y-58745142D01*
X96599285Y-58792761D01*
X96504047Y-58840380D01*
X96265952Y-58840380D01*
X96170714Y-58792761D01*
X96123095Y-58745142D01*
%TO.C,BT1*%
X105894285Y-43838571D02*
X106037142Y-43886190D01*
X106084761Y-43933809D01*
X106132380Y-44029047D01*
X106132380Y-44171904D01*
X106084761Y-44267142D01*
X106037142Y-44314761D01*
X105941904Y-44362380D01*
X105560952Y-44362380D01*
X105560952Y-43362380D01*
X105894285Y-43362380D01*
X105989523Y-43410000D01*
X106037142Y-43457619D01*
X106084761Y-43552857D01*
X106084761Y-43648095D01*
X106037142Y-43743333D01*
X105989523Y-43790952D01*
X105894285Y-43838571D01*
X105560952Y-43838571D01*
X106418095Y-43362380D02*
X106989523Y-43362380D01*
X106703809Y-44362380D02*
X106703809Y-43362380D01*
X107846666Y-44362380D02*
X107275238Y-44362380D01*
X107560952Y-44362380D02*
X107560952Y-43362380D01*
X107465714Y-43505238D01*
X107370476Y-43600476D01*
X107275238Y-43648095D01*
X99250571Y-48561142D02*
X100393428Y-48561142D01*
X99822000Y-49132571D02*
X99822000Y-47989714D01*
X109410571Y-48561142D02*
X110553428Y-48561142D01*
X109982000Y-49132571D02*
X109982000Y-47989714D01*
%TO.C,R12*%
X99552890Y-58840380D02*
X99219557Y-58364190D01*
X98981462Y-58840380D02*
X98981462Y-57840380D01*
X99362414Y-57840380D01*
X99457652Y-57888000D01*
X99505271Y-57935619D01*
X99552890Y-58030857D01*
X99552890Y-58173714D01*
X99505271Y-58268952D01*
X99457652Y-58316571D01*
X99362414Y-58364190D01*
X98981462Y-58364190D01*
X100505271Y-58840380D02*
X99933843Y-58840380D01*
X100219557Y-58840380D02*
X100219557Y-57840380D01*
X100124319Y-57983238D01*
X100029081Y-58078476D01*
X99933843Y-58126095D01*
X100886224Y-57935619D02*
X100933843Y-57888000D01*
X101029081Y-57840380D01*
X101267176Y-57840380D01*
X101362414Y-57888000D01*
X101410033Y-57935619D01*
X101457652Y-58030857D01*
X101457652Y-58126095D01*
X101410033Y-58268952D01*
X100838605Y-58840380D01*
X101457652Y-58840380D01*
%TO.C,R2*%
X131770380Y-65031666D02*
X131294190Y-65365000D01*
X131770380Y-65603095D02*
X130770380Y-65603095D01*
X130770380Y-65222142D01*
X130818000Y-65126904D01*
X130865619Y-65079285D01*
X130960857Y-65031666D01*
X131103714Y-65031666D01*
X131198952Y-65079285D01*
X131246571Y-65126904D01*
X131294190Y-65222142D01*
X131294190Y-65603095D01*
X130865619Y-64650714D02*
X130818000Y-64603095D01*
X130770380Y-64507857D01*
X130770380Y-64269761D01*
X130818000Y-64174523D01*
X130865619Y-64126904D01*
X130960857Y-64079285D01*
X131056095Y-64079285D01*
X131198952Y-64126904D01*
X131770380Y-64698333D01*
X131770380Y-64079285D01*
%TO.C,R3*%
X129103380Y-65031666D02*
X128627190Y-65365000D01*
X129103380Y-65603095D02*
X128103380Y-65603095D01*
X128103380Y-65222142D01*
X128151000Y-65126904D01*
X128198619Y-65079285D01*
X128293857Y-65031666D01*
X128436714Y-65031666D01*
X128531952Y-65079285D01*
X128579571Y-65126904D01*
X128627190Y-65222142D01*
X128627190Y-65603095D01*
X128103380Y-64698333D02*
X128103380Y-64079285D01*
X128484333Y-64412619D01*
X128484333Y-64269761D01*
X128531952Y-64174523D01*
X128579571Y-64126904D01*
X128674809Y-64079285D01*
X128912904Y-64079285D01*
X129008142Y-64126904D01*
X129055761Y-64174523D01*
X129103380Y-64269761D01*
X129103380Y-64555476D01*
X129055761Y-64650714D01*
X129008142Y-64698333D01*
%TO.C,R6*%
X114641333Y-65572380D02*
X114308000Y-65096190D01*
X114069904Y-65572380D02*
X114069904Y-64572380D01*
X114450857Y-64572380D01*
X114546095Y-64620000D01*
X114593714Y-64667619D01*
X114641333Y-64762857D01*
X114641333Y-64905714D01*
X114593714Y-65000952D01*
X114546095Y-65048571D01*
X114450857Y-65096190D01*
X114069904Y-65096190D01*
X115498476Y-64572380D02*
X115308000Y-64572380D01*
X115212761Y-64620000D01*
X115165142Y-64667619D01*
X115069904Y-64810476D01*
X115022285Y-65000952D01*
X115022285Y-65381904D01*
X115069904Y-65477142D01*
X115117523Y-65524761D01*
X115212761Y-65572380D01*
X115403238Y-65572380D01*
X115498476Y-65524761D01*
X115546095Y-65477142D01*
X115593714Y-65381904D01*
X115593714Y-65143809D01*
X115546095Y-65048571D01*
X115498476Y-65000952D01*
X115403238Y-64953333D01*
X115212761Y-64953333D01*
X115117523Y-65000952D01*
X115069904Y-65048571D01*
X115022285Y-65143809D01*
%TO.C,J3*%
X87042666Y-61142380D02*
X87042666Y-61856666D01*
X86995047Y-61999523D01*
X86899809Y-62094761D01*
X86756952Y-62142380D01*
X86661714Y-62142380D01*
X87423619Y-61142380D02*
X88042666Y-61142380D01*
X87709333Y-61523333D01*
X87852190Y-61523333D01*
X87947428Y-61570952D01*
X87995047Y-61618571D01*
X88042666Y-61713809D01*
X88042666Y-61951904D01*
X87995047Y-62047142D01*
X87947428Y-62094761D01*
X87852190Y-62142380D01*
X87566476Y-62142380D01*
X87471238Y-62094761D01*
X87423619Y-62047142D01*
%TO.C,R8*%
X95591333Y-44236380D02*
X95258000Y-43760190D01*
X95019904Y-44236380D02*
X95019904Y-43236380D01*
X95400857Y-43236380D01*
X95496095Y-43284000D01*
X95543714Y-43331619D01*
X95591333Y-43426857D01*
X95591333Y-43569714D01*
X95543714Y-43664952D01*
X95496095Y-43712571D01*
X95400857Y-43760190D01*
X95019904Y-43760190D01*
X96162761Y-43664952D02*
X96067523Y-43617333D01*
X96019904Y-43569714D01*
X95972285Y-43474476D01*
X95972285Y-43426857D01*
X96019904Y-43331619D01*
X96067523Y-43284000D01*
X96162761Y-43236380D01*
X96353238Y-43236380D01*
X96448476Y-43284000D01*
X96496095Y-43331619D01*
X96543714Y-43426857D01*
X96543714Y-43474476D01*
X96496095Y-43569714D01*
X96448476Y-43617333D01*
X96353238Y-43664952D01*
X96162761Y-43664952D01*
X96067523Y-43712571D01*
X96019904Y-43760190D01*
X95972285Y-43855428D01*
X95972285Y-44045904D01*
X96019904Y-44141142D01*
X96067523Y-44188761D01*
X96162761Y-44236380D01*
X96353238Y-44236380D01*
X96448476Y-44188761D01*
X96496095Y-44141142D01*
X96543714Y-44045904D01*
X96543714Y-43855428D01*
X96496095Y-43760190D01*
X96448476Y-43712571D01*
X96353238Y-43664952D01*
%TO.C,U2*%
X94965380Y-67912904D02*
X95774904Y-67912904D01*
X95870142Y-67865285D01*
X95917761Y-67817666D01*
X95965380Y-67722428D01*
X95965380Y-67531952D01*
X95917761Y-67436714D01*
X95870142Y-67389095D01*
X95774904Y-67341476D01*
X94965380Y-67341476D01*
X95060619Y-66912904D02*
X95013000Y-66865285D01*
X94965380Y-66770047D01*
X94965380Y-66531952D01*
X95013000Y-66436714D01*
X95060619Y-66389095D01*
X95155857Y-66341476D01*
X95251095Y-66341476D01*
X95393952Y-66389095D01*
X95965380Y-66960523D01*
X95965380Y-66341476D01*
%TO.C,C2*%
X109069142Y-61729666D02*
X109116761Y-61777285D01*
X109164380Y-61920142D01*
X109164380Y-62015380D01*
X109116761Y-62158238D01*
X109021523Y-62253476D01*
X108926285Y-62301095D01*
X108735809Y-62348714D01*
X108592952Y-62348714D01*
X108402476Y-62301095D01*
X108307238Y-62253476D01*
X108212000Y-62158238D01*
X108164380Y-62015380D01*
X108164380Y-61920142D01*
X108212000Y-61777285D01*
X108259619Y-61729666D01*
X108259619Y-61348714D02*
X108212000Y-61301095D01*
X108164380Y-61205857D01*
X108164380Y-60967761D01*
X108212000Y-60872523D01*
X108259619Y-60824904D01*
X108354857Y-60777285D01*
X108450095Y-60777285D01*
X108592952Y-60824904D01*
X109164380Y-61396333D01*
X109164380Y-60777285D01*
%TO.C,D2*%
X123759904Y-38641380D02*
X123759904Y-37641380D01*
X123998000Y-37641380D01*
X124140857Y-37689000D01*
X124236095Y-37784238D01*
X124283714Y-37879476D01*
X124331333Y-38069952D01*
X124331333Y-38212809D01*
X124283714Y-38403285D01*
X124236095Y-38498523D01*
X124140857Y-38593761D01*
X123998000Y-38641380D01*
X123759904Y-38641380D01*
X124712285Y-37736619D02*
X124759904Y-37689000D01*
X124855142Y-37641380D01*
X125093238Y-37641380D01*
X125188476Y-37689000D01*
X125236095Y-37736619D01*
X125283714Y-37831857D01*
X125283714Y-37927095D01*
X125236095Y-38069952D01*
X124664666Y-38641380D01*
X125283714Y-38641380D01*
%TO.C,R1*%
X97750333Y-69889380D02*
X97417000Y-69413190D01*
X97178904Y-69889380D02*
X97178904Y-68889380D01*
X97559857Y-68889380D01*
X97655095Y-68937000D01*
X97702714Y-68984619D01*
X97750333Y-69079857D01*
X97750333Y-69222714D01*
X97702714Y-69317952D01*
X97655095Y-69365571D01*
X97559857Y-69413190D01*
X97178904Y-69413190D01*
X98702714Y-69889380D02*
X98131285Y-69889380D01*
X98417000Y-69889380D02*
X98417000Y-68889380D01*
X98321761Y-69032238D01*
X98226523Y-69127476D01*
X98131285Y-69175095D01*
%TO.C,C1*%
X111228142Y-61729666D02*
X111275761Y-61777285D01*
X111323380Y-61920142D01*
X111323380Y-62015380D01*
X111275761Y-62158238D01*
X111180523Y-62253476D01*
X111085285Y-62301095D01*
X110894809Y-62348714D01*
X110751952Y-62348714D01*
X110561476Y-62301095D01*
X110466238Y-62253476D01*
X110371000Y-62158238D01*
X110323380Y-62015380D01*
X110323380Y-61920142D01*
X110371000Y-61777285D01*
X110418619Y-61729666D01*
X111323380Y-60777285D02*
X111323380Y-61348714D01*
X111323380Y-61063000D02*
X110323380Y-61063000D01*
X110466238Y-61158238D01*
X110561476Y-61253476D01*
X110609095Y-61348714D01*
%TO.C,C4*%
X96480333Y-62428142D02*
X96432714Y-62475761D01*
X96289857Y-62523380D01*
X96194619Y-62523380D01*
X96051761Y-62475761D01*
X95956523Y-62380523D01*
X95908904Y-62285285D01*
X95861285Y-62094809D01*
X95861285Y-61951952D01*
X95908904Y-61761476D01*
X95956523Y-61666238D01*
X96051761Y-61571000D01*
X96194619Y-61523380D01*
X96289857Y-61523380D01*
X96432714Y-61571000D01*
X96480333Y-61618619D01*
X97337476Y-61856714D02*
X97337476Y-62523380D01*
X97099380Y-61475761D02*
X96861285Y-62190047D01*
X97480333Y-62190047D01*
%TO.C,D4*%
X113559904Y-38641380D02*
X113559904Y-37641380D01*
X113798000Y-37641380D01*
X113940857Y-37689000D01*
X114036095Y-37784238D01*
X114083714Y-37879476D01*
X114131333Y-38069952D01*
X114131333Y-38212809D01*
X114083714Y-38403285D01*
X114036095Y-38498523D01*
X113940857Y-38593761D01*
X113798000Y-38641380D01*
X113559904Y-38641380D01*
X114988476Y-37974714D02*
X114988476Y-38641380D01*
X114750380Y-37593761D02*
X114512285Y-38308047D01*
X115131333Y-38308047D01*
%TO.C,U1*%
X130683095Y-42981380D02*
X130683095Y-43790904D01*
X130730714Y-43886142D01*
X130778333Y-43933761D01*
X130873571Y-43981380D01*
X131064047Y-43981380D01*
X131159285Y-43933761D01*
X131206904Y-43886142D01*
X131254523Y-43790904D01*
X131254523Y-42981380D01*
X132254523Y-43981380D02*
X131683095Y-43981380D01*
X131968809Y-43981380D02*
X131968809Y-42981380D01*
X131873571Y-43124238D01*
X131778333Y-43219476D01*
X131683095Y-43267095D01*
%TO.C,C5*%
X87463333Y-71064142D02*
X87415714Y-71111761D01*
X87272857Y-71159380D01*
X87177619Y-71159380D01*
X87034761Y-71111761D01*
X86939523Y-71016523D01*
X86891904Y-70921285D01*
X86844285Y-70730809D01*
X86844285Y-70587952D01*
X86891904Y-70397476D01*
X86939523Y-70302238D01*
X87034761Y-70207000D01*
X87177619Y-70159380D01*
X87272857Y-70159380D01*
X87415714Y-70207000D01*
X87463333Y-70254619D01*
X88368095Y-70159380D02*
X87891904Y-70159380D01*
X87844285Y-70635571D01*
X87891904Y-70587952D01*
X87987142Y-70540333D01*
X88225238Y-70540333D01*
X88320476Y-70587952D01*
X88368095Y-70635571D01*
X88415714Y-70730809D01*
X88415714Y-70968904D01*
X88368095Y-71064142D01*
X88320476Y-71111761D01*
X88225238Y-71159380D01*
X87987142Y-71159380D01*
X87891904Y-71111761D01*
X87844285Y-71064142D01*
%TO.C,J1*%
X103465380Y-70659333D02*
X104179666Y-70659333D01*
X104322523Y-70706952D01*
X104417761Y-70802190D01*
X104465380Y-70945047D01*
X104465380Y-71040285D01*
X104465380Y-69659333D02*
X104465380Y-70230761D01*
X104465380Y-69945047D02*
X103465380Y-69945047D01*
X103608238Y-70040285D01*
X103703476Y-70135523D01*
X103751095Y-70230761D01*
%TO.C,R9*%
X87463333Y-73445380D02*
X87130000Y-72969190D01*
X86891904Y-73445380D02*
X86891904Y-72445380D01*
X87272857Y-72445380D01*
X87368095Y-72493000D01*
X87415714Y-72540619D01*
X87463333Y-72635857D01*
X87463333Y-72778714D01*
X87415714Y-72873952D01*
X87368095Y-72921571D01*
X87272857Y-72969190D01*
X86891904Y-72969190D01*
X87939523Y-73445380D02*
X88130000Y-73445380D01*
X88225238Y-73397761D01*
X88272857Y-73350142D01*
X88368095Y-73207285D01*
X88415714Y-73016809D01*
X88415714Y-72635857D01*
X88368095Y-72540619D01*
X88320476Y-72493000D01*
X88225238Y-72445380D01*
X88034761Y-72445380D01*
X87939523Y-72493000D01*
X87891904Y-72540619D01*
X87844285Y-72635857D01*
X87844285Y-72873952D01*
X87891904Y-72969190D01*
X87939523Y-73016809D01*
X88034761Y-73064428D01*
X88225238Y-73064428D01*
X88320476Y-73016809D01*
X88368095Y-72969190D01*
X88415714Y-72873952D01*
%TO.C,R13*%
X97147142Y-52363380D02*
X96813809Y-51887190D01*
X96575714Y-52363380D02*
X96575714Y-51363380D01*
X96956666Y-51363380D01*
X97051904Y-51411000D01*
X97099523Y-51458619D01*
X97147142Y-51553857D01*
X97147142Y-51696714D01*
X97099523Y-51791952D01*
X97051904Y-51839571D01*
X96956666Y-51887190D01*
X96575714Y-51887190D01*
X98099523Y-52363380D02*
X97528095Y-52363380D01*
X97813809Y-52363380D02*
X97813809Y-51363380D01*
X97718571Y-51506238D01*
X97623333Y-51601476D01*
X97528095Y-51649095D01*
X98432857Y-51363380D02*
X99051904Y-51363380D01*
X98718571Y-51744333D01*
X98861428Y-51744333D01*
X98956666Y-51791952D01*
X99004285Y-51839571D01*
X99051904Y-51934809D01*
X99051904Y-52172904D01*
X99004285Y-52268142D01*
X98956666Y-52315761D01*
X98861428Y-52363380D01*
X98575714Y-52363380D01*
X98480476Y-52315761D01*
X98432857Y-52268142D01*
%TO.C,U4*%
X106172095Y-57586380D02*
X106172095Y-58395904D01*
X106219714Y-58491142D01*
X106267333Y-58538761D01*
X106362571Y-58586380D01*
X106553047Y-58586380D01*
X106648285Y-58538761D01*
X106695904Y-58491142D01*
X106743523Y-58395904D01*
X106743523Y-57586380D01*
X107648285Y-57919714D02*
X107648285Y-58586380D01*
X107410190Y-57538761D02*
X107172095Y-58253047D01*
X107791142Y-58253047D01*
%TO.C,D1*%
X128859904Y-38641380D02*
X128859904Y-37641380D01*
X129098000Y-37641380D01*
X129240857Y-37689000D01*
X129336095Y-37784238D01*
X129383714Y-37879476D01*
X129431333Y-38069952D01*
X129431333Y-38212809D01*
X129383714Y-38403285D01*
X129336095Y-38498523D01*
X129240857Y-38593761D01*
X129098000Y-38641380D01*
X128859904Y-38641380D01*
X130383714Y-38641380D02*
X129812285Y-38641380D01*
X130098000Y-38641380D02*
X130098000Y-37641380D01*
X130002761Y-37784238D01*
X129907523Y-37879476D01*
X129812285Y-37927095D01*
%TO.C,SW1*%
X95161666Y-41801261D02*
X95304523Y-41848880D01*
X95542619Y-41848880D01*
X95637857Y-41801261D01*
X95685476Y-41753642D01*
X95733095Y-41658404D01*
X95733095Y-41563166D01*
X95685476Y-41467928D01*
X95637857Y-41420309D01*
X95542619Y-41372690D01*
X95352142Y-41325071D01*
X95256904Y-41277452D01*
X95209285Y-41229833D01*
X95161666Y-41134595D01*
X95161666Y-41039357D01*
X95209285Y-40944119D01*
X95256904Y-40896500D01*
X95352142Y-40848880D01*
X95590238Y-40848880D01*
X95733095Y-40896500D01*
X96066428Y-40848880D02*
X96304523Y-41848880D01*
X96495000Y-41134595D01*
X96685476Y-41848880D01*
X96923571Y-40848880D01*
X97828333Y-41848880D02*
X97256904Y-41848880D01*
X97542619Y-41848880D02*
X97542619Y-40848880D01*
X97447380Y-40991738D01*
X97352142Y-41086976D01*
X97256904Y-41134595D01*
%TO.C,U3*%
X103084380Y-68801904D02*
X103893904Y-68801904D01*
X103989142Y-68754285D01*
X104036761Y-68706666D01*
X104084380Y-68611428D01*
X104084380Y-68420952D01*
X104036761Y-68325714D01*
X103989142Y-68278095D01*
X103893904Y-68230476D01*
X103084380Y-68230476D01*
X103084380Y-67849523D02*
X103084380Y-67230476D01*
X103465333Y-67563809D01*
X103465333Y-67420952D01*
X103512952Y-67325714D01*
X103560571Y-67278095D01*
X103655809Y-67230476D01*
X103893904Y-67230476D01*
X103989142Y-67278095D01*
X104036761Y-67325714D01*
X104084380Y-67420952D01*
X104084380Y-67706666D01*
X104036761Y-67801904D01*
X103989142Y-67849523D01*
%TO.C,J2*%
X132227380Y-73162333D02*
X132941666Y-73162333D01*
X133084523Y-73209952D01*
X133179761Y-73305190D01*
X133227380Y-73448047D01*
X133227380Y-73543285D01*
X132322619Y-72733761D02*
X132275000Y-72686142D01*
X132227380Y-72590904D01*
X132227380Y-72352809D01*
X132275000Y-72257571D01*
X132322619Y-72209952D01*
X132417857Y-72162333D01*
X132513095Y-72162333D01*
X132655952Y-72209952D01*
X133227380Y-72781380D01*
X133227380Y-72162333D01*
%TO.C,C3*%
X98766333Y-62428142D02*
X98718714Y-62475761D01*
X98575857Y-62523380D01*
X98480619Y-62523380D01*
X98337761Y-62475761D01*
X98242523Y-62380523D01*
X98194904Y-62285285D01*
X98147285Y-62094809D01*
X98147285Y-61951952D01*
X98194904Y-61761476D01*
X98242523Y-61666238D01*
X98337761Y-61571000D01*
X98480619Y-61523380D01*
X98575857Y-61523380D01*
X98718714Y-61571000D01*
X98766333Y-61618619D01*
X99099666Y-61523380D02*
X99718714Y-61523380D01*
X99385380Y-61904333D01*
X99528238Y-61904333D01*
X99623476Y-61951952D01*
X99671095Y-61999571D01*
X99718714Y-62094809D01*
X99718714Y-62332904D01*
X99671095Y-62428142D01*
X99623476Y-62475761D01*
X99528238Y-62523380D01*
X99242523Y-62523380D01*
X99147285Y-62475761D01*
X99099666Y-62428142D01*
%TO.C,D5*%
X108459904Y-38641380D02*
X108459904Y-37641380D01*
X108698000Y-37641380D01*
X108840857Y-37689000D01*
X108936095Y-37784238D01*
X108983714Y-37879476D01*
X109031333Y-38069952D01*
X109031333Y-38212809D01*
X108983714Y-38403285D01*
X108936095Y-38498523D01*
X108840857Y-38593761D01*
X108698000Y-38641380D01*
X108459904Y-38641380D01*
X109936095Y-37641380D02*
X109459904Y-37641380D01*
X109412285Y-38117571D01*
X109459904Y-38069952D01*
X109555142Y-38022333D01*
X109793238Y-38022333D01*
X109888476Y-38069952D01*
X109936095Y-38117571D01*
X109983714Y-38212809D01*
X109983714Y-38450904D01*
X109936095Y-38546142D01*
X109888476Y-38593761D01*
X109793238Y-38641380D01*
X109555142Y-38641380D01*
X109459904Y-38593761D01*
X109412285Y-38546142D01*
%TO.C,D6*%
X103359904Y-38641380D02*
X103359904Y-37641380D01*
X103598000Y-37641380D01*
X103740857Y-37689000D01*
X103836095Y-37784238D01*
X103883714Y-37879476D01*
X103931333Y-38069952D01*
X103931333Y-38212809D01*
X103883714Y-38403285D01*
X103836095Y-38498523D01*
X103740857Y-38593761D01*
X103598000Y-38641380D01*
X103359904Y-38641380D01*
X104788476Y-37641380D02*
X104598000Y-37641380D01*
X104502761Y-37689000D01*
X104455142Y-37736619D01*
X104359904Y-37879476D01*
X104312285Y-38069952D01*
X104312285Y-38450904D01*
X104359904Y-38546142D01*
X104407523Y-38593761D01*
X104502761Y-38641380D01*
X104693238Y-38641380D01*
X104788476Y-38593761D01*
X104836095Y-38546142D01*
X104883714Y-38450904D01*
X104883714Y-38212809D01*
X104836095Y-38117571D01*
X104788476Y-38069952D01*
X104693238Y-38022333D01*
X104502761Y-38022333D01*
X104407523Y-38069952D01*
X104359904Y-38117571D01*
X104312285Y-38212809D01*
%TO.C,C7*%
X91496833Y-49220142D02*
X91449214Y-49267761D01*
X91306357Y-49315380D01*
X91211119Y-49315380D01*
X91068261Y-49267761D01*
X90973023Y-49172523D01*
X90925404Y-49077285D01*
X90877785Y-48886809D01*
X90877785Y-48743952D01*
X90925404Y-48553476D01*
X90973023Y-48458238D01*
X91068261Y-48363000D01*
X91211119Y-48315380D01*
X91306357Y-48315380D01*
X91449214Y-48363000D01*
X91496833Y-48410619D01*
X91830166Y-48315380D02*
X92496833Y-48315380D01*
X92068261Y-49315380D01*
%TO.C,R5*%
X123896380Y-65031666D02*
X123420190Y-65365000D01*
X123896380Y-65603095D02*
X122896380Y-65603095D01*
X122896380Y-65222142D01*
X122944000Y-65126904D01*
X122991619Y-65079285D01*
X123086857Y-65031666D01*
X123229714Y-65031666D01*
X123324952Y-65079285D01*
X123372571Y-65126904D01*
X123420190Y-65222142D01*
X123420190Y-65603095D01*
X122896380Y-64126904D02*
X122896380Y-64603095D01*
X123372571Y-64650714D01*
X123324952Y-64603095D01*
X123277333Y-64507857D01*
X123277333Y-64269761D01*
X123324952Y-64174523D01*
X123372571Y-64126904D01*
X123467809Y-64079285D01*
X123705904Y-64079285D01*
X123801142Y-64126904D01*
X123848761Y-64174523D01*
X123896380Y-64269761D01*
X123896380Y-64507857D01*
X123848761Y-64603095D01*
X123801142Y-64650714D01*
D13*
X122709000Y-107886064D02*
X122709000Y-107431936D01*
X124179000Y-107886064D02*
X124179000Y-107431936D01*
%TO.C,C7*%
X91656248Y-89271000D02*
X92178752Y-89271000D01*
X91656248Y-90741000D02*
X92178752Y-90741000D01*
%TO.C,D6*%
X102538000Y-79913000D02*
X102538000Y-80069000D01*
X102538000Y-82229000D02*
X102538000Y-82385000D01*
X105139130Y-80069163D02*
G75*
G03*
X103057039Y-80069000I-1041130J-1079837D01*
G01*
X102538000Y-82384516D02*
G75*
G03*
X105770335Y-82227608I1560000J1235516D01*
G01*
X103057039Y-82229000D02*
G75*
G03*
X105139130Y-82228837I1040961J1080000D01*
G01*
X105770335Y-80070392D02*
G75*
G03*
X102538000Y-79913484I-1672335J-1078608D01*
G01*
%TO.C,D5*%
X107638000Y-79913000D02*
X107638000Y-80069000D01*
X107638000Y-82229000D02*
X107638000Y-82385000D01*
X110239130Y-80069163D02*
G75*
G03*
X108157039Y-80069000I-1041130J-1079837D01*
G01*
X108157039Y-82229000D02*
G75*
G03*
X110239130Y-82228837I1040961J1080000D01*
G01*
X107638000Y-82384516D02*
G75*
G03*
X110870335Y-82227608I1560000J1235516D01*
G01*
X110870335Y-80070392D02*
G75*
G03*
X107638000Y-79913484I-1672335J-1078608D01*
G01*
%TO.C,C3*%
X99668000Y-104222748D02*
X99668000Y-104745252D01*
X98198000Y-104222748D02*
X98198000Y-104745252D01*
%TO.C,J2*%
X129175000Y-114159000D02*
X121495000Y-114159000D01*
X131775000Y-111499000D02*
X131775000Y-112829000D01*
X129175000Y-111499000D02*
X129175000Y-114159000D01*
X121495000Y-111499000D02*
X121495000Y-114159000D01*
X129175000Y-111499000D02*
X121495000Y-111499000D01*
X130445000Y-111499000D02*
X131775000Y-111499000D01*
%TO.C,U3*%
X100476000Y-106552000D02*
X100476000Y-100542000D01*
X107296000Y-104302000D02*
X107296000Y-100542000D01*
X100476000Y-100542000D02*
X101736000Y-100542000D01*
X107296000Y-100542000D02*
X106036000Y-100542000D01*
%TO.C,SW1*%
X93155000Y-80686500D02*
X93695000Y-80686500D01*
X99835000Y-84026500D02*
X100355000Y-84026500D01*
X92635000Y-77016500D02*
X100355000Y-77016500D01*
X93155000Y-83516500D02*
X93155000Y-84026500D01*
X99835000Y-83516500D02*
X99835000Y-84026500D01*
X100355000Y-77016500D02*
X100355000Y-80916500D01*
X92635000Y-84026500D02*
X93155000Y-84026500D01*
X99295000Y-80686500D02*
X99835000Y-80686500D01*
X100355000Y-83516500D02*
X100355000Y-84026500D01*
X94795000Y-80686500D02*
X98195000Y-80686500D01*
X92635000Y-77016500D02*
X92635000Y-80916500D01*
X99835000Y-80686500D02*
X99835000Y-80916500D01*
X92635000Y-83516500D02*
X92635000Y-84026500D01*
X93155000Y-80686500D02*
X93155000Y-80916500D01*
%TO.C,D1*%
X128038000Y-82229000D02*
X128038000Y-82385000D01*
X128038000Y-79913000D02*
X128038000Y-80069000D01*
X130639130Y-80069163D02*
G75*
G03*
X128557039Y-80069000I-1041130J-1079837D01*
G01*
X131270335Y-80070392D02*
G75*
G03*
X128038000Y-79913484I-1672335J-1078608D01*
G01*
X128557039Y-82229000D02*
G75*
G03*
X130639130Y-82228837I1040961J1080000D01*
G01*
X128038000Y-82384516D02*
G75*
G03*
X131270335Y-82227608I1560000J1235516D01*
G01*
%TO.C,U4*%
X106680000Y-97138000D02*
X108630000Y-97138000D01*
X106680000Y-92018000D02*
X108630000Y-92018000D01*
X106680000Y-92018000D02*
X103230000Y-92018000D01*
X106680000Y-97138000D02*
X104730000Y-97138000D01*
%TO.C,R13*%
X100229936Y-93535000D02*
X100684064Y-93535000D01*
X100229936Y-92065000D02*
X100684064Y-92065000D01*
%TO.C,R9*%
X91143064Y-112385000D02*
X90688936Y-112385000D01*
X91143064Y-113855000D02*
X90688936Y-113855000D01*
%TO.C,J1*%
X103835000Y-111499000D02*
X103835000Y-112829000D01*
X93555000Y-111499000D02*
X93555000Y-114159000D01*
X101235000Y-114159000D02*
X93555000Y-114159000D01*
X101235000Y-111499000D02*
X93555000Y-111499000D01*
X101235000Y-111499000D02*
X101235000Y-114159000D01*
X102505000Y-111499000D02*
X103835000Y-111499000D01*
%TO.C,C5*%
X90670748Y-111569000D02*
X91193252Y-111569000D01*
X90670748Y-110099000D02*
X91193252Y-110099000D01*
%TO.C,U1*%
X132127000Y-84823000D02*
X132127000Y-84443000D01*
X113582000Y-84823000D02*
X112802000Y-84823000D01*
X138542000Y-103063000D02*
X132127000Y-103063000D01*
X112802000Y-84823000D02*
X112802000Y-85823000D01*
X112802000Y-103063000D02*
X112802000Y-102063000D01*
X138542000Y-84823000D02*
X138542000Y-103063000D01*
X113582000Y-103063000D02*
X112802000Y-103063000D01*
X138542000Y-84823000D02*
X132127000Y-84823000D01*
%TO.C,D4*%
X112738000Y-82229000D02*
X112738000Y-82385000D01*
X112738000Y-79913000D02*
X112738000Y-80069000D01*
X115339130Y-80069163D02*
G75*
G03*
X113257039Y-80069000I-1041130J-1079837D01*
G01*
X112738000Y-82384516D02*
G75*
G03*
X115970335Y-82227608I1560000J1235516D01*
G01*
X115970335Y-80070392D02*
G75*
G03*
X112738000Y-79913484I-1672335J-1078608D01*
G01*
X113257039Y-82229000D02*
G75*
G03*
X115339130Y-82228837I1040961J1080000D01*
G01*
%TO.C,C4*%
X97509000Y-104222748D02*
X97509000Y-104745252D01*
X96039000Y-104222748D02*
X96039000Y-104745252D01*
%TO.C,R11*%
X91720936Y-87820000D02*
X92175064Y-87820000D01*
X91720936Y-86350000D02*
X92175064Y-86350000D01*
%TO.C,C1*%
X111606000Y-104222748D02*
X111606000Y-104745252D01*
X110136000Y-104222748D02*
X110136000Y-104745252D01*
%TO.C,C8*%
X92681248Y-99758000D02*
X93203752Y-99758000D01*
X92681248Y-98288000D02*
X93203752Y-98288000D01*
%TO.C,C6*%
X97528748Y-101282000D02*
X98051252Y-101282000D01*
X97528748Y-99812000D02*
X98051252Y-99812000D01*
%TO.C,R4*%
X126719000Y-107886064D02*
X126719000Y-107431936D01*
X125249000Y-107886064D02*
X125249000Y-107431936D01*
%TO.C,R2*%
X130456000Y-107886064D02*
X130456000Y-107431936D01*
X131926000Y-107886064D02*
X131926000Y-107431936D01*
%TO.C,U5*%
X94234000Y-92272000D02*
X96184000Y-92272000D01*
X94234000Y-97392000D02*
X96184000Y-97392000D01*
X94234000Y-97392000D02*
X92284000Y-97392000D01*
X94234000Y-92272000D02*
X90784000Y-92272000D01*
%TO.C,R1*%
X97689936Y-106924000D02*
X98144064Y-106924000D01*
X97689936Y-108394000D02*
X98144064Y-108394000D01*
%TO.C,BT1*%
X105537000Y-88454000D02*
X104267000Y-88454000D01*
X111562000Y-84664000D02*
X98242000Y-84664000D01*
X111562000Y-91284000D02*
X98242000Y-91284000D01*
X98242000Y-91284000D02*
X98242000Y-84664000D01*
X111562000Y-91284000D02*
X111562000Y-84664000D01*
%TO.C,J3*%
X89468000Y-97753000D02*
X89468000Y-84993000D01*
X89468000Y-97753000D02*
X86808000Y-97753000D01*
X86808000Y-97753000D02*
X86808000Y-84993000D01*
X89468000Y-99023000D02*
X89468000Y-100353000D01*
X89468000Y-100353000D02*
X88138000Y-100353000D01*
X89468000Y-84993000D02*
X86808000Y-84993000D01*
%TO.C,R8*%
X95530936Y-84699000D02*
X95985064Y-84699000D01*
X95530936Y-86169000D02*
X95985064Y-86169000D01*
%TO.C,R7*%
X118898936Y-107505000D02*
X119353064Y-107505000D01*
X118898936Y-106035000D02*
X119353064Y-106035000D01*
%TO.C,C2*%
X107977000Y-104222748D02*
X107977000Y-104745252D01*
X109447000Y-104222748D02*
X109447000Y-104745252D01*
%TO.C,D2*%
X122938000Y-79913000D02*
X122938000Y-80069000D01*
X122938000Y-82229000D02*
X122938000Y-82385000D01*
X123457039Y-82229000D02*
G75*
G03*
X125539130Y-82228837I1040961J1080000D01*
G01*
X126170335Y-80070392D02*
G75*
G03*
X122938000Y-79913484I-1672335J-1078608D01*
G01*
X125539130Y-80069163D02*
G75*
G03*
X123457039Y-80069000I-1041130J-1079837D01*
G01*
X122938000Y-82384516D02*
G75*
G03*
X126170335Y-82227608I1560000J1235516D01*
G01*
%TO.C,D3*%
X117838000Y-79913000D02*
X117838000Y-80069000D01*
X117838000Y-82229000D02*
X117838000Y-82385000D01*
X117838000Y-82384516D02*
G75*
G03*
X121070335Y-82227608I1560000J1235516D01*
G01*
X118357039Y-82229000D02*
G75*
G03*
X120439130Y-82228837I1040961J1080000D01*
G01*
X120439130Y-80069163D02*
G75*
G03*
X118357039Y-80069000I-1041130J-1079837D01*
G01*
X121070335Y-80070392D02*
G75*
G03*
X117838000Y-79913484I-1672335J-1078608D01*
G01*
%TO.C,R3*%
X127916000Y-107886064D02*
X127916000Y-107431936D01*
X129386000Y-107886064D02*
X129386000Y-107431936D01*
%TO.C,R12*%
X100229936Y-94097000D02*
X100684064Y-94097000D01*
X100229936Y-95567000D02*
X100684064Y-95567000D01*
%TO.C,R10*%
X90704936Y-116268000D02*
X91159064Y-116268000D01*
X90704936Y-114798000D02*
X91159064Y-114798000D01*
%TO.C,C9*%
X100195748Y-96129000D02*
X100718252Y-96129000D01*
X100195748Y-97599000D02*
X100718252Y-97599000D01*
%TO.C,R6*%
X114580936Y-106035000D02*
X115035064Y-106035000D01*
X114580936Y-107505000D02*
X115035064Y-107505000D01*
%TO.C,U2*%
X94698000Y-104865000D02*
X94698000Y-107065000D01*
X87928000Y-104865000D02*
X87928000Y-107065000D01*
X94698000Y-104865000D02*
X94698000Y-101265000D01*
X87928000Y-104865000D02*
X87928000Y-102665000D01*
%TO.C,R10*%
X90704936Y-76268000D02*
X91159064Y-76268000D01*
X90704936Y-74798000D02*
X91159064Y-74798000D01*
%TO.C,R4*%
X126719000Y-67886064D02*
X126719000Y-67431936D01*
X125249000Y-67886064D02*
X125249000Y-67431936D01*
%TO.C,R11*%
X91720936Y-47820000D02*
X92175064Y-47820000D01*
X91720936Y-46350000D02*
X92175064Y-46350000D01*
%TO.C,D3*%
X117838000Y-39913000D02*
X117838000Y-40069000D01*
X117838000Y-42229000D02*
X117838000Y-42385000D01*
X117838000Y-42384516D02*
G75*
G03*
X121070335Y-42227608I1560000J1235516D01*
G01*
X118357039Y-42229000D02*
G75*
G03*
X120439130Y-42228837I1040961J1080000D01*
G01*
X120439130Y-40069163D02*
G75*
G03*
X118357039Y-40069000I-1041130J-1079837D01*
G01*
X121070335Y-40070392D02*
G75*
G03*
X117838000Y-39913484I-1672335J-1078608D01*
G01*
%TO.C,C9*%
X100195748Y-56129000D02*
X100718252Y-56129000D01*
X100195748Y-57599000D02*
X100718252Y-57599000D01*
%TO.C,C6*%
X97528748Y-61282000D02*
X98051252Y-61282000D01*
X97528748Y-59812000D02*
X98051252Y-59812000D01*
%TO.C,R7*%
X118898936Y-67505000D02*
X119353064Y-67505000D01*
X118898936Y-66035000D02*
X119353064Y-66035000D01*
%TO.C,C8*%
X92681248Y-59758000D02*
X93203752Y-59758000D01*
X92681248Y-58288000D02*
X93203752Y-58288000D01*
%TO.C,U5*%
X94234000Y-52272000D02*
X96184000Y-52272000D01*
X94234000Y-57392000D02*
X96184000Y-57392000D01*
X94234000Y-57392000D02*
X92284000Y-57392000D01*
X94234000Y-52272000D02*
X90784000Y-52272000D01*
%TO.C,BT1*%
X105537000Y-48454000D02*
X104267000Y-48454000D01*
X111562000Y-44664000D02*
X98242000Y-44664000D01*
X111562000Y-51284000D02*
X98242000Y-51284000D01*
X98242000Y-51284000D02*
X98242000Y-44664000D01*
X111562000Y-51284000D02*
X111562000Y-44664000D01*
%TO.C,R12*%
X100229936Y-54097000D02*
X100684064Y-54097000D01*
X100229936Y-55567000D02*
X100684064Y-55567000D01*
%TO.C,R2*%
X130456000Y-67886064D02*
X130456000Y-67431936D01*
X131926000Y-67886064D02*
X131926000Y-67431936D01*
%TO.C,R3*%
X127916000Y-67886064D02*
X127916000Y-67431936D01*
X129386000Y-67886064D02*
X129386000Y-67431936D01*
%TO.C,R6*%
X114580936Y-66035000D02*
X115035064Y-66035000D01*
X114580936Y-67505000D02*
X115035064Y-67505000D01*
%TO.C,J3*%
X89468000Y-57753000D02*
X89468000Y-44993000D01*
X89468000Y-57753000D02*
X86808000Y-57753000D01*
X86808000Y-57753000D02*
X86808000Y-44993000D01*
X89468000Y-59023000D02*
X89468000Y-60353000D01*
X89468000Y-60353000D02*
X88138000Y-60353000D01*
X89468000Y-44993000D02*
X86808000Y-44993000D01*
%TO.C,R8*%
X95530936Y-44699000D02*
X95985064Y-44699000D01*
X95530936Y-46169000D02*
X95985064Y-46169000D01*
%TO.C,U2*%
X94698000Y-64865000D02*
X94698000Y-67065000D01*
X87928000Y-64865000D02*
X87928000Y-67065000D01*
X94698000Y-64865000D02*
X94698000Y-61265000D01*
X87928000Y-64865000D02*
X87928000Y-62665000D01*
%TO.C,C2*%
X107977000Y-64222748D02*
X107977000Y-64745252D01*
X109447000Y-64222748D02*
X109447000Y-64745252D01*
%TO.C,D2*%
X122938000Y-39913000D02*
X122938000Y-40069000D01*
X122938000Y-42229000D02*
X122938000Y-42385000D01*
X123457039Y-42229000D02*
G75*
G03*
X125539130Y-42228837I1040961J1080000D01*
G01*
X126170335Y-40070392D02*
G75*
G03*
X122938000Y-39913484I-1672335J-1078608D01*
G01*
X125539130Y-40069163D02*
G75*
G03*
X123457039Y-40069000I-1041130J-1079837D01*
G01*
X122938000Y-42384516D02*
G75*
G03*
X126170335Y-42227608I1560000J1235516D01*
G01*
%TO.C,R1*%
X97689936Y-66924000D02*
X98144064Y-66924000D01*
X97689936Y-68394000D02*
X98144064Y-68394000D01*
%TO.C,C1*%
X111606000Y-64222748D02*
X111606000Y-64745252D01*
X110136000Y-64222748D02*
X110136000Y-64745252D01*
%TO.C,C4*%
X97509000Y-64222748D02*
X97509000Y-64745252D01*
X96039000Y-64222748D02*
X96039000Y-64745252D01*
%TO.C,D4*%
X112738000Y-42229000D02*
X112738000Y-42385000D01*
X112738000Y-39913000D02*
X112738000Y-40069000D01*
X115339130Y-40069163D02*
G75*
G03*
X113257039Y-40069000I-1041130J-1079837D01*
G01*
X112738000Y-42384516D02*
G75*
G03*
X115970335Y-42227608I1560000J1235516D01*
G01*
X115970335Y-40070392D02*
G75*
G03*
X112738000Y-39913484I-1672335J-1078608D01*
G01*
X113257039Y-42229000D02*
G75*
G03*
X115339130Y-42228837I1040961J1080000D01*
G01*
%TO.C,U1*%
X132127000Y-44823000D02*
X132127000Y-44443000D01*
X113582000Y-44823000D02*
X112802000Y-44823000D01*
X138542000Y-63063000D02*
X132127000Y-63063000D01*
X112802000Y-44823000D02*
X112802000Y-45823000D01*
X112802000Y-63063000D02*
X112802000Y-62063000D01*
X138542000Y-44823000D02*
X138542000Y-63063000D01*
X113582000Y-63063000D02*
X112802000Y-63063000D01*
X138542000Y-44823000D02*
X132127000Y-44823000D01*
%TO.C,C5*%
X90670748Y-71569000D02*
X91193252Y-71569000D01*
X90670748Y-70099000D02*
X91193252Y-70099000D01*
%TO.C,J1*%
X103835000Y-71499000D02*
X103835000Y-72829000D01*
X93555000Y-71499000D02*
X93555000Y-74159000D01*
X101235000Y-74159000D02*
X93555000Y-74159000D01*
X101235000Y-71499000D02*
X93555000Y-71499000D01*
X101235000Y-71499000D02*
X101235000Y-74159000D01*
X102505000Y-71499000D02*
X103835000Y-71499000D01*
%TO.C,R9*%
X91143064Y-72385000D02*
X90688936Y-72385000D01*
X91143064Y-73855000D02*
X90688936Y-73855000D01*
%TO.C,R13*%
X100229936Y-53535000D02*
X100684064Y-53535000D01*
X100229936Y-52065000D02*
X100684064Y-52065000D01*
%TO.C,U4*%
X106680000Y-57138000D02*
X108630000Y-57138000D01*
X106680000Y-52018000D02*
X108630000Y-52018000D01*
X106680000Y-52018000D02*
X103230000Y-52018000D01*
X106680000Y-57138000D02*
X104730000Y-57138000D01*
%TO.C,D1*%
X128038000Y-42229000D02*
X128038000Y-42385000D01*
X128038000Y-39913000D02*
X128038000Y-40069000D01*
X130639130Y-40069163D02*
G75*
G03*
X128557039Y-40069000I-1041130J-1079837D01*
G01*
X131270335Y-40070392D02*
G75*
G03*
X128038000Y-39913484I-1672335J-1078608D01*
G01*
X128557039Y-42229000D02*
G75*
G03*
X130639130Y-42228837I1040961J1080000D01*
G01*
X128038000Y-42384516D02*
G75*
G03*
X131270335Y-42227608I1560000J1235516D01*
G01*
%TO.C,SW1*%
X93155000Y-40686500D02*
X93695000Y-40686500D01*
X99835000Y-44026500D02*
X100355000Y-44026500D01*
X92635000Y-37016500D02*
X100355000Y-37016500D01*
X93155000Y-43516500D02*
X93155000Y-44026500D01*
X99835000Y-43516500D02*
X99835000Y-44026500D01*
X100355000Y-37016500D02*
X100355000Y-40916500D01*
X92635000Y-44026500D02*
X93155000Y-44026500D01*
X99295000Y-40686500D02*
X99835000Y-40686500D01*
X100355000Y-43516500D02*
X100355000Y-44026500D01*
X94795000Y-40686500D02*
X98195000Y-40686500D01*
X92635000Y-37016500D02*
X92635000Y-40916500D01*
X99835000Y-40686500D02*
X99835000Y-40916500D01*
X92635000Y-43516500D02*
X92635000Y-44026500D01*
X93155000Y-40686500D02*
X93155000Y-40916500D01*
%TO.C,U3*%
X100476000Y-66552000D02*
X100476000Y-60542000D01*
X107296000Y-64302000D02*
X107296000Y-60542000D01*
X100476000Y-60542000D02*
X101736000Y-60542000D01*
X107296000Y-60542000D02*
X106036000Y-60542000D01*
%TO.C,J2*%
X129175000Y-74159000D02*
X121495000Y-74159000D01*
X131775000Y-71499000D02*
X131775000Y-72829000D01*
X129175000Y-71499000D02*
X129175000Y-74159000D01*
X121495000Y-71499000D02*
X121495000Y-74159000D01*
X129175000Y-71499000D02*
X121495000Y-71499000D01*
X130445000Y-71499000D02*
X131775000Y-71499000D01*
%TO.C,C3*%
X99668000Y-64222748D02*
X99668000Y-64745252D01*
X98198000Y-64222748D02*
X98198000Y-64745252D01*
%TO.C,D5*%
X107638000Y-39913000D02*
X107638000Y-40069000D01*
X107638000Y-42229000D02*
X107638000Y-42385000D01*
X110239130Y-40069163D02*
G75*
G03*
X108157039Y-40069000I-1041130J-1079837D01*
G01*
X108157039Y-42229000D02*
G75*
G03*
X110239130Y-42228837I1040961J1080000D01*
G01*
X107638000Y-42384516D02*
G75*
G03*
X110870335Y-42227608I1560000J1235516D01*
G01*
X110870335Y-40070392D02*
G75*
G03*
X107638000Y-39913484I-1672335J-1078608D01*
G01*
%TO.C,D6*%
X102538000Y-39913000D02*
X102538000Y-40069000D01*
X102538000Y-42229000D02*
X102538000Y-42385000D01*
X105139130Y-40069163D02*
G75*
G03*
X103057039Y-40069000I-1041130J-1079837D01*
G01*
X102538000Y-42384516D02*
G75*
G03*
X105770335Y-42227608I1560000J1235516D01*
G01*
X103057039Y-42229000D02*
G75*
G03*
X105139130Y-42228837I1040961J1080000D01*
G01*
X105770335Y-40070392D02*
G75*
G03*
X102538000Y-39913484I-1672335J-1078608D01*
G01*
%TO.C,C7*%
X91656248Y-49271000D02*
X92178752Y-49271000D01*
X91656248Y-50741000D02*
X92178752Y-50741000D01*
%TO.C,R5*%
X122709000Y-67886064D02*
X122709000Y-67431936D01*
X124179000Y-67886064D02*
X124179000Y-67431936D01*
%TD*%
M02*
