M48
; DRILL file {KiCad 6.0.11-2627ca5db0~126~ubuntu20.04.1} date dom 06 oct 2024 15:55:07
; FORMAT={-:-/ absolute / metric / decimal}
; #@! TF.CreationDate,2024-10-06T15:55:07-05:00
; #@! TF.GenerationSoftware,Kicad,Pcbnew,6.0.11-2627ca5db0~126~ubuntu20.04.1
; #@! TF.FileFunction,Plated,1,2,PTH
FMAT,2
METRIC
; #@! TA.AperFunction,Plated,PTH,ComponentDrill
T1C0.300
; #@! TA.AperFunction,Plated,PTH,ViaDrill
T2C0.400
; #@! TA.AperFunction,Plated,PTH,ComponentDrill
T3C0.900
; #@! TA.AperFunction,Plated,PTH,ComponentDrill
T4C0.990
; #@! TA.AperFunction,Plated,PTH,ComponentDrill
T5C1.000
; #@! TA.AperFunction,Plated,PTH,ComponentDrill
T6C1.200
; #@! TA.AperFunction,Plated,PTH,ComponentDrill
T7C1.300
%
G90
G05
T1
X122.067Y-52.5
X122.067Y-54.026
X122.067Y-92.501
X122.067Y-94.025
X122.829Y-51.738
X122.829Y-53.263
X122.829Y-54.788
X122.829Y-91.738
X122.829Y-93.263
X122.829Y-94.788
X123.592Y-52.5
X123.592Y-54.026
X123.592Y-92.501
X123.592Y-94.025
X124.354Y-51.738
X124.354Y-53.263
X124.354Y-54.788
X124.354Y-91.738
X124.354Y-93.263
X124.354Y-94.788
X125.117Y-52.5
X125.117Y-54.026
X125.117Y-92.501
X125.117Y-94.025
T2
X90.253Y-66.355
X90.253Y-106.355
X91.111Y-60.637
X91.111Y-100.637
X91.262Y-66.36
X91.262Y-106.36
X92.361Y-60.633
X92.361Y-100.633
X92.929Y-57.985
X92.929Y-97.985
X93.532Y-63.873
X93.532Y-103.873
X95.059Y-67.867
X95.059Y-107.867
X95.125Y-55.467
X95.125Y-95.467
X95.199Y-63.107
X95.199Y-103.107
X95.387Y-61.684
X95.387Y-101.684
X95.406Y-64.852
X95.406Y-104.852
X96.686Y-74.808
X96.686Y-114.808
X102.266Y-68.11
X102.266Y-108.11
X105.645Y-53.33
X105.645Y-93.33
X105.936Y-54.347
X105.936Y-94.347
X106.407Y-58.228
X106.407Y-98.228
X112.096Y-61.63
X112.096Y-101.63
X113.344Y-62.433
X113.344Y-102.433
X114.338Y-64.128
X114.338Y-104.128
X114.534Y-58.987
X114.534Y-98.987
X115.038Y-64.962
X115.038Y-104.962
X116.144Y-61.337
X116.144Y-101.337
X117.936Y-61.339
X117.936Y-101.339
X118.2Y-64.503
X118.2Y-104.503
X119.216Y-64.728
X119.216Y-104.728
X122.039Y-66.301
X122.039Y-106.301
X123.009Y-65.206
X123.009Y-105.206
X124.598Y-65.801
X124.598Y-105.801
X125.984Y-65.431
X125.984Y-105.431
X128.651Y-65.428
X128.651Y-105.428
X131.191Y-65.457
X131.191Y-105.457
T3
X102.828Y-41.149
X102.828Y-81.149
X105.368Y-41.149
X105.368Y-81.149
X107.928Y-41.149
X107.928Y-81.149
X110.468Y-41.149
X110.468Y-81.149
X113.028Y-41.149
X113.028Y-81.149
X115.568Y-41.149
X115.568Y-81.149
X118.128Y-41.149
X118.128Y-81.149
X120.668Y-41.149
X120.668Y-81.149
X123.228Y-41.149
X123.228Y-81.149
X125.768Y-41.149
X125.768Y-81.149
X128.328Y-41.149
X128.328Y-81.149
X130.868Y-41.149
X130.868Y-81.149
T4
X94.245Y-39.716
X94.245Y-79.716
X98.745Y-39.716
X98.745Y-79.716
T5
X88.138Y-46.323
X88.138Y-48.863
X88.138Y-51.403
X88.138Y-53.943
X88.138Y-56.483
X88.138Y-59.023
X88.138Y-86.323
X88.138Y-88.863
X88.138Y-91.403
X88.138Y-93.943
X88.138Y-96.483
X88.138Y-99.023
X94.885Y-72.829
X94.885Y-112.829
X97.425Y-72.829
X97.425Y-112.829
X99.965Y-72.829
X99.965Y-112.829
X102.505Y-72.829
X102.505Y-112.829
X122.825Y-72.829
X122.825Y-112.829
X125.365Y-72.829
X125.365Y-112.829
X127.905Y-72.829
X127.905Y-112.829
X130.445Y-72.829
X130.445Y-112.829
T6
X99.902Y-46.224
X99.902Y-86.224
X104.902Y-49.724
X104.902Y-89.724
X109.902Y-46.224
X109.902Y-86.224
T7
X92.995Y-42.206
X92.995Y-82.206
X100.005Y-42.206
X100.005Y-82.206
T0
M30
