M48
; DRILL file {KiCad 6.0.11-2627ca5db0~126~ubuntu20.04.1} date dom 02 feb 2025 15:33:25
; FORMAT={-:-/ absolute / metric / decimal}
; #@! TF.CreationDate,2025-02-02T15:33:25-05:00
; #@! TF.GenerationSoftware,Kicad,Pcbnew,6.0.11-2627ca5db0~126~ubuntu20.04.1
; #@! TF.FileFunction,Plated,1,2,PTH
FMAT,2
METRIC
; #@! TA.AperFunction,Plated,PTH,ComponentDrill
T1C0.300
; #@! TA.AperFunction,Plated,PTH,ViaDrill
T2C0.400
; #@! TA.AperFunction,Plated,PTH,ComponentDrill
T3C0.900
; #@! TA.AperFunction,Plated,PTH,ComponentDrill
T4C0.990
; #@! TA.AperFunction,Plated,PTH,ComponentDrill
T5C1.000
; #@! TA.AperFunction,Plated,PTH,ComponentDrill
T6C1.200
; #@! TA.AperFunction,Plated,PTH,ComponentDrill
T7C1.300
%
G90
G05
T1
X115.59Y-61.645
X115.59Y-63.169
X115.59Y-101.644
X115.59Y-103.169
X116.352Y-60.882
X116.352Y-62.407
X116.352Y-63.932
X116.352Y-100.882
X116.352Y-102.407
X116.352Y-103.932
X117.115Y-61.645
X117.115Y-63.169
X117.115Y-101.644
X117.115Y-103.169
X117.877Y-60.882
X117.877Y-62.407
X117.877Y-63.932
X117.877Y-100.882
X117.877Y-102.407
X117.877Y-103.932
X118.64Y-61.645
X118.64Y-63.169
X118.64Y-101.644
X118.64Y-103.169
T2
X83.776Y-75.499
X83.776Y-115.499
X84.634Y-69.781
X84.634Y-109.781
X84.785Y-75.504
X84.785Y-115.504
X85.884Y-69.777
X85.884Y-109.777
X86.452Y-67.129
X86.452Y-107.129
X87.055Y-73.017
X87.055Y-113.017
X88.582Y-77.011
X88.582Y-117.011
X88.648Y-64.611
X88.648Y-104.611
X88.722Y-72.251
X88.722Y-112.251
X88.91Y-70.828
X88.91Y-110.828
X88.929Y-73.996
X88.929Y-113.996
X89.789Y-85.185
X89.789Y-125.185
X95.789Y-77.254
X95.789Y-117.254
X97.028Y-78.835
X97.028Y-118.835
X99.168Y-62.474
X99.168Y-102.474
X99.459Y-63.491
X99.459Y-103.491
X99.93Y-67.372
X99.93Y-107.372
X101.346Y-48.343
X101.346Y-88.343
X105.619Y-70.774
X105.619Y-110.774
X106.867Y-71.577
X106.867Y-111.577
X107.861Y-73.272
X107.861Y-113.272
X108.057Y-68.132
X108.057Y-108.131
X108.561Y-74.106
X108.561Y-114.106
X109.667Y-70.481
X109.667Y-110.481
X110.319Y-50.089
X110.319Y-90.089
X111.459Y-70.483
X111.459Y-110.483
X111.723Y-73.647
X111.723Y-113.647
X112.739Y-73.873
X112.739Y-113.872
X115.562Y-75.445
X115.562Y-115.445
X116.532Y-74.35
X116.532Y-114.35
X117.983Y-47.339
X117.983Y-87.339
X118.121Y-74.945
X118.121Y-114.945
X119.253Y-48.392
X119.253Y-88.392
X119.507Y-74.575
X119.507Y-114.575
X122.174Y-74.575
X122.174Y-114.575
X122.555Y-49.841
X122.555Y-89.841
X124.714Y-74.602
X124.714Y-114.602
T3
X96.351Y-51.793
X96.351Y-91.793
X98.891Y-51.793
X98.891Y-91.793
X101.451Y-51.793
X101.451Y-91.793
X103.991Y-51.793
X103.991Y-91.793
X106.551Y-51.793
X106.551Y-91.793
X109.091Y-51.793
X109.091Y-91.793
X111.651Y-51.793
X111.651Y-91.793
X114.191Y-51.793
X114.191Y-91.793
X116.751Y-51.793
X116.751Y-91.793
X119.291Y-51.793
X119.291Y-91.793
X121.851Y-51.793
X121.851Y-91.793
X124.391Y-51.793
X124.391Y-91.793
T4
X87.768Y-48.86
X87.768Y-88.861
X92.268Y-48.86
X92.268Y-88.861
T5
X81.661Y-55.467
X81.661Y-58.007
X81.661Y-60.547
X81.661Y-63.087
X81.661Y-65.627
X81.661Y-68.167
X81.661Y-95.467
X81.661Y-98.007
X81.661Y-100.547
X81.661Y-103.087
X81.661Y-105.627
X81.661Y-108.167
X88.408Y-81.973
X88.408Y-121.973
X90.948Y-81.973
X90.948Y-121.973
X93.488Y-81.973
X93.488Y-121.973
X96.028Y-81.973
X96.028Y-121.973
X116.348Y-81.973
X116.348Y-121.973
X118.888Y-81.973
X118.888Y-121.973
X121.428Y-81.973
X121.428Y-121.973
X123.968Y-81.973
X123.968Y-121.973
T6
X93.425Y-55.368
X93.425Y-95.368
X98.425Y-58.868
X98.425Y-98.868
X103.425Y-55.368
X103.425Y-95.368
T7
X86.518Y-51.35
X86.518Y-91.35
X93.528Y-51.35
X93.528Y-91.35
T0
M30
