G04 #@! TF.GenerationSoftware,KiCad,Pcbnew,5.1.5+dfsg1-2build2*
G04 #@! TF.CreationDate,2021-07-28T21:36:02-05:00*
G04 #@! TF.ProjectId,DIN_RAIL_POE_INJECTOR_SLIM,44494e5f-5241-4494-9c5f-504f455f494e,rev?*
G04 #@! TF.SameCoordinates,Original*
G04 #@! TF.FileFunction,Soldermask,Bot*
G04 #@! TF.FilePolarity,Negative*
%FSLAX46Y46*%
G04 Gerber Fmt 4.6, Leading zero omitted, Abs format (unit mm)*
G04 Created by KiCad (PCBNEW 5.1.5+dfsg1-2build2) date 2021-07-28 21:36:02*
%MOMM*%
%LPD*%
G04 APERTURE LIST*
%ADD10C,0.100000*%
G04 APERTURE END LIST*
D10*
G36*
X121212903Y-164437075D02*
G01*
X121440571Y-164531378D01*
X121645466Y-164668285D01*
X121819715Y-164842534D01*
X121956622Y-165047429D01*
X122050925Y-165275097D01*
X122099000Y-165516787D01*
X122099000Y-165763213D01*
X122050925Y-166004903D01*
X121956622Y-166232571D01*
X121819715Y-166437466D01*
X121645466Y-166611715D01*
X121440571Y-166748622D01*
X121440570Y-166748623D01*
X121440569Y-166748623D01*
X121212903Y-166842925D01*
X120971214Y-166891000D01*
X120724786Y-166891000D01*
X120483097Y-166842925D01*
X120255431Y-166748623D01*
X120255430Y-166748623D01*
X120255429Y-166748622D01*
X120050534Y-166611715D01*
X119876285Y-166437466D01*
X119739378Y-166232571D01*
X119645075Y-166004903D01*
X119597000Y-165763213D01*
X119597000Y-165516787D01*
X119645075Y-165275097D01*
X119739378Y-165047429D01*
X119876285Y-164842534D01*
X120050534Y-164668285D01*
X120255429Y-164531378D01*
X120483097Y-164437075D01*
X120724786Y-164389000D01*
X120971214Y-164389000D01*
X121212903Y-164437075D01*
G37*
G36*
X118599000Y-166891000D02*
G01*
X116097000Y-166891000D01*
X116097000Y-164389000D01*
X118599000Y-164389000D01*
X118599000Y-166891000D01*
G37*
G36*
X127179416Y-162184879D02*
G01*
X127370592Y-162264067D01*
X127370594Y-162264068D01*
X127542648Y-162379031D01*
X127688969Y-162525352D01*
X127803933Y-162697408D01*
X127883121Y-162888584D01*
X127923490Y-163091534D01*
X127923490Y-163298466D01*
X127883121Y-163501416D01*
X127803933Y-163692592D01*
X127803932Y-163692594D01*
X127688969Y-163864648D01*
X127542648Y-164010969D01*
X127370594Y-164125932D01*
X127370593Y-164125933D01*
X127370592Y-164125933D01*
X127179416Y-164205121D01*
X126976466Y-164245490D01*
X126769534Y-164245490D01*
X126566584Y-164205121D01*
X126375408Y-164125933D01*
X126375407Y-164125933D01*
X126375406Y-164125932D01*
X126203352Y-164010969D01*
X126057031Y-163864648D01*
X125942068Y-163692594D01*
X125942067Y-163692592D01*
X125862879Y-163501416D01*
X125822510Y-163298466D01*
X125822510Y-163091534D01*
X125862879Y-162888584D01*
X125942067Y-162697408D01*
X126057031Y-162525352D01*
X126203352Y-162379031D01*
X126375406Y-162264068D01*
X126375408Y-162264067D01*
X126566584Y-162184879D01*
X126769534Y-162144510D01*
X126976466Y-162144510D01*
X127179416Y-162184879D01*
G37*
G36*
X111177416Y-162184879D02*
G01*
X111368592Y-162264067D01*
X111368594Y-162264068D01*
X111540648Y-162379031D01*
X111686969Y-162525352D01*
X111801933Y-162697408D01*
X111881121Y-162888584D01*
X111921490Y-163091534D01*
X111921490Y-163298466D01*
X111881121Y-163501416D01*
X111801933Y-163692592D01*
X111801932Y-163692594D01*
X111686969Y-163864648D01*
X111540648Y-164010969D01*
X111368594Y-164125932D01*
X111368593Y-164125933D01*
X111368592Y-164125933D01*
X111177416Y-164205121D01*
X110974466Y-164245490D01*
X110767534Y-164245490D01*
X110564584Y-164205121D01*
X110373408Y-164125933D01*
X110373407Y-164125933D01*
X110373406Y-164125932D01*
X110201352Y-164010969D01*
X110055031Y-163864648D01*
X109940068Y-163692594D01*
X109940067Y-163692592D01*
X109860879Y-163501416D01*
X109820510Y-163298466D01*
X109820510Y-163091534D01*
X109860879Y-162888584D01*
X109940067Y-162697408D01*
X110055031Y-162525352D01*
X110201352Y-162379031D01*
X110373406Y-162264068D01*
X110373408Y-162264067D01*
X110564584Y-162184879D01*
X110767534Y-162144510D01*
X110974466Y-162144510D01*
X111177416Y-162184879D01*
G37*
G36*
X121152228Y-158058703D02*
G01*
X121307100Y-158122853D01*
X121446481Y-158215985D01*
X121565015Y-158334519D01*
X121658147Y-158473900D01*
X121722297Y-158628772D01*
X121755000Y-158793184D01*
X121755000Y-158960816D01*
X121722297Y-159125228D01*
X121658147Y-159280100D01*
X121565015Y-159419481D01*
X121446481Y-159538015D01*
X121307100Y-159631147D01*
X121152228Y-159695297D01*
X120987816Y-159728000D01*
X120820184Y-159728000D01*
X120655772Y-159695297D01*
X120500900Y-159631147D01*
X120361519Y-159538015D01*
X120242985Y-159419481D01*
X120149853Y-159280100D01*
X120085703Y-159125228D01*
X120053000Y-158960816D01*
X120053000Y-158793184D01*
X120085703Y-158628772D01*
X120149853Y-158473900D01*
X120242985Y-158334519D01*
X120361519Y-158215985D01*
X120500900Y-158122853D01*
X120655772Y-158058703D01*
X120820184Y-158026000D01*
X120987816Y-158026000D01*
X121152228Y-158058703D01*
G37*
G36*
X121152228Y-153058703D02*
G01*
X121307100Y-153122853D01*
X121446481Y-153215985D01*
X121565015Y-153334519D01*
X121658147Y-153473900D01*
X121722297Y-153628772D01*
X121755000Y-153793184D01*
X121755000Y-153960816D01*
X121722297Y-154125228D01*
X121658147Y-154280100D01*
X121565015Y-154419481D01*
X121446481Y-154538015D01*
X121307100Y-154631147D01*
X121152228Y-154695297D01*
X120987816Y-154728000D01*
X120820184Y-154728000D01*
X120655772Y-154695297D01*
X120500900Y-154631147D01*
X120361519Y-154538015D01*
X120242985Y-154419481D01*
X120149853Y-154280100D01*
X120085703Y-154125228D01*
X120053000Y-153960816D01*
X120053000Y-153793184D01*
X120085703Y-153628772D01*
X120149853Y-153473900D01*
X120242985Y-153334519D01*
X120361519Y-153215985D01*
X120500900Y-153122853D01*
X120655772Y-153058703D01*
X120820184Y-153026000D01*
X120987816Y-153026000D01*
X121152228Y-153058703D01*
G37*
G36*
X118299000Y-149668000D02*
G01*
X116397000Y-149668000D01*
X116397000Y-147766000D01*
X118299000Y-147766000D01*
X118299000Y-149668000D01*
G37*
G36*
X120165395Y-147802546D02*
G01*
X120338466Y-147874234D01*
X120338467Y-147874235D01*
X120494227Y-147978310D01*
X120626690Y-148110773D01*
X120626691Y-148110775D01*
X120730766Y-148266534D01*
X120802454Y-148439605D01*
X120839000Y-148623333D01*
X120839000Y-148810667D01*
X120802454Y-148994395D01*
X120730766Y-149167466D01*
X120730765Y-149167467D01*
X120626690Y-149323227D01*
X120494227Y-149455690D01*
X120415818Y-149508081D01*
X120338466Y-149559766D01*
X120165395Y-149631454D01*
X119981667Y-149668000D01*
X119794333Y-149668000D01*
X119610605Y-149631454D01*
X119437534Y-149559766D01*
X119360182Y-149508081D01*
X119281773Y-149455690D01*
X119149310Y-149323227D01*
X119045235Y-149167467D01*
X119045234Y-149167466D01*
X118973546Y-148994395D01*
X118937000Y-148810667D01*
X118937000Y-148623333D01*
X118973546Y-148439605D01*
X119045234Y-148266534D01*
X119149309Y-148110775D01*
X119149310Y-148110773D01*
X119281773Y-147978310D01*
X119437533Y-147874235D01*
X119437534Y-147874234D01*
X119610605Y-147802546D01*
X119794333Y-147766000D01*
X119981667Y-147766000D01*
X120165395Y-147802546D01*
G37*
G36*
X122520059Y-143803860D02*
G01*
X122656732Y-143860472D01*
X122779735Y-143942660D01*
X122884340Y-144047265D01*
X122966528Y-144170268D01*
X123023140Y-144306941D01*
X123052000Y-144452033D01*
X123052000Y-144599967D01*
X123023140Y-144745059D01*
X122966528Y-144881732D01*
X122884340Y-145004735D01*
X122779735Y-145109340D01*
X122656732Y-145191528D01*
X122656731Y-145191529D01*
X122656730Y-145191529D01*
X122520059Y-145248140D01*
X122374968Y-145277000D01*
X122227032Y-145277000D01*
X122081941Y-145248140D01*
X121945270Y-145191529D01*
X121945269Y-145191529D01*
X121945268Y-145191528D01*
X121822265Y-145109340D01*
X121717660Y-145004735D01*
X121635472Y-144881732D01*
X121578860Y-144745059D01*
X121550000Y-144599967D01*
X121550000Y-144452033D01*
X121578860Y-144306941D01*
X121635472Y-144170268D01*
X121717660Y-144047265D01*
X121822265Y-143942660D01*
X121945268Y-143860472D01*
X122081941Y-143803860D01*
X122227032Y-143775000D01*
X122374968Y-143775000D01*
X122520059Y-143803860D01*
G37*
G36*
X119980059Y-143803860D02*
G01*
X120116732Y-143860472D01*
X120239735Y-143942660D01*
X120344340Y-144047265D01*
X120426528Y-144170268D01*
X120483140Y-144306941D01*
X120512000Y-144452033D01*
X120512000Y-144599967D01*
X120483140Y-144745059D01*
X120426528Y-144881732D01*
X120344340Y-145004735D01*
X120239735Y-145109340D01*
X120116732Y-145191528D01*
X120116731Y-145191529D01*
X120116730Y-145191529D01*
X119980059Y-145248140D01*
X119834968Y-145277000D01*
X119687032Y-145277000D01*
X119541941Y-145248140D01*
X119405270Y-145191529D01*
X119405269Y-145191529D01*
X119405268Y-145191528D01*
X119282265Y-145109340D01*
X119177660Y-145004735D01*
X119095472Y-144881732D01*
X119038860Y-144745059D01*
X119010000Y-144599967D01*
X119010000Y-144452033D01*
X119038860Y-144306941D01*
X119095472Y-144170268D01*
X119177660Y-144047265D01*
X119282265Y-143942660D01*
X119405268Y-143860472D01*
X119541941Y-143803860D01*
X119687032Y-143775000D01*
X119834968Y-143775000D01*
X119980059Y-143803860D01*
G37*
G36*
X113777208Y-127593093D02*
G01*
X114118617Y-127734510D01*
X114118619Y-127734511D01*
X114425880Y-127939816D01*
X114687184Y-128201120D01*
X114892490Y-128508383D01*
X115033907Y-128849792D01*
X115106000Y-129212229D01*
X115106000Y-129581771D01*
X115033907Y-129944208D01*
X114892490Y-130285617D01*
X114892489Y-130285619D01*
X114687184Y-130592880D01*
X114425880Y-130854184D01*
X114118619Y-131059489D01*
X114118618Y-131059490D01*
X114118617Y-131059490D01*
X113777208Y-131200907D01*
X113414771Y-131273000D01*
X113045229Y-131273000D01*
X112682792Y-131200907D01*
X112341383Y-131059490D01*
X112341382Y-131059490D01*
X112341381Y-131059489D01*
X112034120Y-130854184D01*
X111772816Y-130592880D01*
X111567511Y-130285619D01*
X111567510Y-130285617D01*
X111426093Y-129944208D01*
X111354000Y-129581771D01*
X111354000Y-129212229D01*
X111426093Y-128849792D01*
X111567510Y-128508383D01*
X111772816Y-128201120D01*
X112034120Y-127939816D01*
X112341381Y-127734511D01*
X112341383Y-127734510D01*
X112682792Y-127593093D01*
X113045229Y-127521000D01*
X113414771Y-127521000D01*
X113777208Y-127593093D01*
G37*
G36*
X125207208Y-127593093D02*
G01*
X125548617Y-127734510D01*
X125548619Y-127734511D01*
X125855880Y-127939816D01*
X126117184Y-128201120D01*
X126322490Y-128508383D01*
X126463907Y-128849792D01*
X126536000Y-129212229D01*
X126536000Y-129581771D01*
X126463907Y-129944208D01*
X126322490Y-130285617D01*
X126322489Y-130285619D01*
X126117184Y-130592880D01*
X125855880Y-130854184D01*
X125548619Y-131059489D01*
X125548618Y-131059490D01*
X125548617Y-131059490D01*
X125207208Y-131200907D01*
X124844771Y-131273000D01*
X124475229Y-131273000D01*
X124112792Y-131200907D01*
X123771383Y-131059490D01*
X123771382Y-131059490D01*
X123771381Y-131059489D01*
X123464120Y-130854184D01*
X123202816Y-130592880D01*
X122997511Y-130285619D01*
X122997510Y-130285617D01*
X122856093Y-129944208D01*
X122784000Y-129581771D01*
X122784000Y-129212229D01*
X122856093Y-128849792D01*
X122997510Y-128508383D01*
X123202816Y-128201120D01*
X123464120Y-127939816D01*
X123771381Y-127734511D01*
X123771383Y-127734510D01*
X124112792Y-127593093D01*
X124475229Y-127521000D01*
X124844771Y-127521000D01*
X125207208Y-127593093D01*
G37*
G36*
X117273642Y-122276781D02*
G01*
X117419414Y-122337162D01*
X117419416Y-122337163D01*
X117550608Y-122424822D01*
X117662178Y-122536392D01*
X117749837Y-122667584D01*
X117749838Y-122667586D01*
X117810219Y-122813358D01*
X117841000Y-122968107D01*
X117841000Y-123125893D01*
X117810219Y-123280642D01*
X117749838Y-123426414D01*
X117749837Y-123426416D01*
X117662178Y-123557608D01*
X117550608Y-123669178D01*
X117419416Y-123756837D01*
X117419415Y-123756838D01*
X117419414Y-123756838D01*
X117273642Y-123817219D01*
X117118893Y-123848000D01*
X116961107Y-123848000D01*
X116806358Y-123817219D01*
X116660586Y-123756838D01*
X116660585Y-123756838D01*
X116660584Y-123756837D01*
X116529392Y-123669178D01*
X116417822Y-123557608D01*
X116330163Y-123426416D01*
X116330162Y-123426414D01*
X116269781Y-123280642D01*
X116239000Y-123125893D01*
X116239000Y-122968107D01*
X116269781Y-122813358D01*
X116330162Y-122667586D01*
X116330163Y-122667584D01*
X116417822Y-122536392D01*
X116529392Y-122424822D01*
X116660584Y-122337163D01*
X116660586Y-122337162D01*
X116806358Y-122276781D01*
X116961107Y-122246000D01*
X117118893Y-122246000D01*
X117273642Y-122276781D01*
G37*
G36*
X119813642Y-122276781D02*
G01*
X119959414Y-122337162D01*
X119959416Y-122337163D01*
X120090608Y-122424822D01*
X120202178Y-122536392D01*
X120289837Y-122667584D01*
X120289838Y-122667586D01*
X120350219Y-122813358D01*
X120381000Y-122968107D01*
X120381000Y-123125893D01*
X120350219Y-123280642D01*
X120289838Y-123426414D01*
X120289837Y-123426416D01*
X120202178Y-123557608D01*
X120090608Y-123669178D01*
X119959416Y-123756837D01*
X119959415Y-123756838D01*
X119959414Y-123756838D01*
X119813642Y-123817219D01*
X119658893Y-123848000D01*
X119501107Y-123848000D01*
X119346358Y-123817219D01*
X119200586Y-123756838D01*
X119200585Y-123756838D01*
X119200584Y-123756837D01*
X119069392Y-123669178D01*
X118957822Y-123557608D01*
X118870163Y-123426416D01*
X118870162Y-123426414D01*
X118809781Y-123280642D01*
X118779000Y-123125893D01*
X118779000Y-122968107D01*
X118809781Y-122813358D01*
X118870162Y-122667586D01*
X118870163Y-122667584D01*
X118957822Y-122536392D01*
X119069392Y-122424822D01*
X119200584Y-122337163D01*
X119200586Y-122337162D01*
X119346358Y-122276781D01*
X119501107Y-122246000D01*
X119658893Y-122246000D01*
X119813642Y-122276781D01*
G37*
G36*
X122353642Y-122276781D02*
G01*
X122499414Y-122337162D01*
X122499416Y-122337163D01*
X122630608Y-122424822D01*
X122742178Y-122536392D01*
X122829837Y-122667584D01*
X122829838Y-122667586D01*
X122890219Y-122813358D01*
X122921000Y-122968107D01*
X122921000Y-123125893D01*
X122890219Y-123280642D01*
X122829838Y-123426414D01*
X122829837Y-123426416D01*
X122742178Y-123557608D01*
X122630608Y-123669178D01*
X122499416Y-123756837D01*
X122499415Y-123756838D01*
X122499414Y-123756838D01*
X122353642Y-123817219D01*
X122198893Y-123848000D01*
X122041107Y-123848000D01*
X121886358Y-123817219D01*
X121740586Y-123756838D01*
X121740585Y-123756838D01*
X121740584Y-123756837D01*
X121609392Y-123669178D01*
X121497822Y-123557608D01*
X121410163Y-123426416D01*
X121410162Y-123426414D01*
X121349781Y-123280642D01*
X121319000Y-123125893D01*
X121319000Y-122968107D01*
X121349781Y-122813358D01*
X121410162Y-122667586D01*
X121410163Y-122667584D01*
X121497822Y-122536392D01*
X121609392Y-122424822D01*
X121740584Y-122337163D01*
X121740586Y-122337162D01*
X121886358Y-122276781D01*
X122041107Y-122246000D01*
X122198893Y-122246000D01*
X122353642Y-122276781D01*
G37*
G36*
X115301000Y-123848000D02*
G01*
X113699000Y-123848000D01*
X113699000Y-122246000D01*
X115301000Y-122246000D01*
X115301000Y-123848000D01*
G37*
G36*
X118543642Y-119736781D02*
G01*
X118689414Y-119797162D01*
X118689416Y-119797163D01*
X118820608Y-119884822D01*
X118932178Y-119996392D01*
X119019837Y-120127584D01*
X119019838Y-120127586D01*
X119080219Y-120273358D01*
X119111000Y-120428107D01*
X119111000Y-120585893D01*
X119080219Y-120740642D01*
X119019838Y-120886414D01*
X119019837Y-120886416D01*
X118932178Y-121017608D01*
X118820608Y-121129178D01*
X118689416Y-121216837D01*
X118689415Y-121216838D01*
X118689414Y-121216838D01*
X118543642Y-121277219D01*
X118388893Y-121308000D01*
X118231107Y-121308000D01*
X118076358Y-121277219D01*
X117930586Y-121216838D01*
X117930585Y-121216838D01*
X117930584Y-121216837D01*
X117799392Y-121129178D01*
X117687822Y-121017608D01*
X117600163Y-120886416D01*
X117600162Y-120886414D01*
X117539781Y-120740642D01*
X117509000Y-120585893D01*
X117509000Y-120428107D01*
X117539781Y-120273358D01*
X117600162Y-120127586D01*
X117600163Y-120127584D01*
X117687822Y-119996392D01*
X117799392Y-119884822D01*
X117930584Y-119797163D01*
X117930586Y-119797162D01*
X118076358Y-119736781D01*
X118231107Y-119706000D01*
X118388893Y-119706000D01*
X118543642Y-119736781D01*
G37*
G36*
X123623642Y-119736781D02*
G01*
X123769414Y-119797162D01*
X123769416Y-119797163D01*
X123900608Y-119884822D01*
X124012178Y-119996392D01*
X124099837Y-120127584D01*
X124099838Y-120127586D01*
X124160219Y-120273358D01*
X124191000Y-120428107D01*
X124191000Y-120585893D01*
X124160219Y-120740642D01*
X124099838Y-120886414D01*
X124099837Y-120886416D01*
X124012178Y-121017608D01*
X123900608Y-121129178D01*
X123769416Y-121216837D01*
X123769415Y-121216838D01*
X123769414Y-121216838D01*
X123623642Y-121277219D01*
X123468893Y-121308000D01*
X123311107Y-121308000D01*
X123156358Y-121277219D01*
X123010586Y-121216838D01*
X123010585Y-121216838D01*
X123010584Y-121216837D01*
X122879392Y-121129178D01*
X122767822Y-121017608D01*
X122680163Y-120886416D01*
X122680162Y-120886414D01*
X122619781Y-120740642D01*
X122589000Y-120585893D01*
X122589000Y-120428107D01*
X122619781Y-120273358D01*
X122680162Y-120127586D01*
X122680163Y-120127584D01*
X122767822Y-119996392D01*
X122879392Y-119884822D01*
X123010584Y-119797163D01*
X123010586Y-119797162D01*
X123156358Y-119736781D01*
X123311107Y-119706000D01*
X123468893Y-119706000D01*
X123623642Y-119736781D01*
G37*
G36*
X121083642Y-119736781D02*
G01*
X121229414Y-119797162D01*
X121229416Y-119797163D01*
X121360608Y-119884822D01*
X121472178Y-119996392D01*
X121559837Y-120127584D01*
X121559838Y-120127586D01*
X121620219Y-120273358D01*
X121651000Y-120428107D01*
X121651000Y-120585893D01*
X121620219Y-120740642D01*
X121559838Y-120886414D01*
X121559837Y-120886416D01*
X121472178Y-121017608D01*
X121360608Y-121129178D01*
X121229416Y-121216837D01*
X121229415Y-121216838D01*
X121229414Y-121216838D01*
X121083642Y-121277219D01*
X120928893Y-121308000D01*
X120771107Y-121308000D01*
X120616358Y-121277219D01*
X120470586Y-121216838D01*
X120470585Y-121216838D01*
X120470584Y-121216837D01*
X120339392Y-121129178D01*
X120227822Y-121017608D01*
X120140163Y-120886416D01*
X120140162Y-120886414D01*
X120079781Y-120740642D01*
X120049000Y-120585893D01*
X120049000Y-120428107D01*
X120079781Y-120273358D01*
X120140162Y-120127586D01*
X120140163Y-120127584D01*
X120227822Y-119996392D01*
X120339392Y-119884822D01*
X120470584Y-119797163D01*
X120470586Y-119797162D01*
X120616358Y-119736781D01*
X120771107Y-119706000D01*
X120928893Y-119706000D01*
X121083642Y-119736781D01*
G37*
G36*
X116003642Y-119736781D02*
G01*
X116149414Y-119797162D01*
X116149416Y-119797163D01*
X116280608Y-119884822D01*
X116392178Y-119996392D01*
X116479837Y-120127584D01*
X116479838Y-120127586D01*
X116540219Y-120273358D01*
X116571000Y-120428107D01*
X116571000Y-120585893D01*
X116540219Y-120740642D01*
X116479838Y-120886414D01*
X116479837Y-120886416D01*
X116392178Y-121017608D01*
X116280608Y-121129178D01*
X116149416Y-121216837D01*
X116149415Y-121216838D01*
X116149414Y-121216838D01*
X116003642Y-121277219D01*
X115848893Y-121308000D01*
X115691107Y-121308000D01*
X115536358Y-121277219D01*
X115390586Y-121216838D01*
X115390585Y-121216838D01*
X115390584Y-121216837D01*
X115259392Y-121129178D01*
X115147822Y-121017608D01*
X115060163Y-120886416D01*
X115060162Y-120886414D01*
X114999781Y-120740642D01*
X114969000Y-120585893D01*
X114969000Y-120428107D01*
X114999781Y-120273358D01*
X115060162Y-120127586D01*
X115060163Y-120127584D01*
X115147822Y-119996392D01*
X115259392Y-119884822D01*
X115390584Y-119797163D01*
X115390586Y-119797162D01*
X115536358Y-119736781D01*
X115691107Y-119706000D01*
X115848893Y-119706000D01*
X116003642Y-119736781D01*
G37*
G36*
X114733642Y-116307781D02*
G01*
X114879414Y-116368162D01*
X114879416Y-116368163D01*
X115010608Y-116455822D01*
X115122178Y-116567392D01*
X115209837Y-116698584D01*
X115209838Y-116698586D01*
X115270219Y-116844358D01*
X115301000Y-116999107D01*
X115301000Y-117156893D01*
X115270219Y-117311642D01*
X115209838Y-117457414D01*
X115209837Y-117457416D01*
X115122178Y-117588608D01*
X115010608Y-117700178D01*
X114879416Y-117787837D01*
X114879415Y-117787838D01*
X114879414Y-117787838D01*
X114733642Y-117848219D01*
X114578893Y-117879000D01*
X114421107Y-117879000D01*
X114266358Y-117848219D01*
X114120586Y-117787838D01*
X114120585Y-117787838D01*
X114120584Y-117787837D01*
X113989392Y-117700178D01*
X113877822Y-117588608D01*
X113790163Y-117457416D01*
X113790162Y-117457414D01*
X113729781Y-117311642D01*
X113699000Y-117156893D01*
X113699000Y-116999107D01*
X113729781Y-116844358D01*
X113790162Y-116698586D01*
X113790163Y-116698584D01*
X113877822Y-116567392D01*
X113989392Y-116455822D01*
X114120584Y-116368163D01*
X114120586Y-116368162D01*
X114266358Y-116307781D01*
X114421107Y-116277000D01*
X114578893Y-116277000D01*
X114733642Y-116307781D01*
G37*
G36*
X122353642Y-116307781D02*
G01*
X122499414Y-116368162D01*
X122499416Y-116368163D01*
X122630608Y-116455822D01*
X122742178Y-116567392D01*
X122829837Y-116698584D01*
X122829838Y-116698586D01*
X122890219Y-116844358D01*
X122921000Y-116999107D01*
X122921000Y-117156893D01*
X122890219Y-117311642D01*
X122829838Y-117457414D01*
X122829837Y-117457416D01*
X122742178Y-117588608D01*
X122630608Y-117700178D01*
X122499416Y-117787837D01*
X122499415Y-117787838D01*
X122499414Y-117787838D01*
X122353642Y-117848219D01*
X122198893Y-117879000D01*
X122041107Y-117879000D01*
X121886358Y-117848219D01*
X121740586Y-117787838D01*
X121740585Y-117787838D01*
X121740584Y-117787837D01*
X121609392Y-117700178D01*
X121497822Y-117588608D01*
X121410163Y-117457416D01*
X121410162Y-117457414D01*
X121349781Y-117311642D01*
X121319000Y-117156893D01*
X121319000Y-116999107D01*
X121349781Y-116844358D01*
X121410162Y-116698586D01*
X121410163Y-116698584D01*
X121497822Y-116567392D01*
X121609392Y-116455822D01*
X121740584Y-116368163D01*
X121740586Y-116368162D01*
X121886358Y-116307781D01*
X122041107Y-116277000D01*
X122198893Y-116277000D01*
X122353642Y-116307781D01*
G37*
G36*
X119813642Y-116307781D02*
G01*
X119959414Y-116368162D01*
X119959416Y-116368163D01*
X120090608Y-116455822D01*
X120202178Y-116567392D01*
X120289837Y-116698584D01*
X120289838Y-116698586D01*
X120350219Y-116844358D01*
X120381000Y-116999107D01*
X120381000Y-117156893D01*
X120350219Y-117311642D01*
X120289838Y-117457414D01*
X120289837Y-117457416D01*
X120202178Y-117588608D01*
X120090608Y-117700178D01*
X119959416Y-117787837D01*
X119959415Y-117787838D01*
X119959414Y-117787838D01*
X119813642Y-117848219D01*
X119658893Y-117879000D01*
X119501107Y-117879000D01*
X119346358Y-117848219D01*
X119200586Y-117787838D01*
X119200585Y-117787838D01*
X119200584Y-117787837D01*
X119069392Y-117700178D01*
X118957822Y-117588608D01*
X118870163Y-117457416D01*
X118870162Y-117457414D01*
X118809781Y-117311642D01*
X118779000Y-117156893D01*
X118779000Y-116999107D01*
X118809781Y-116844358D01*
X118870162Y-116698586D01*
X118870163Y-116698584D01*
X118957822Y-116567392D01*
X119069392Y-116455822D01*
X119200584Y-116368163D01*
X119200586Y-116368162D01*
X119346358Y-116307781D01*
X119501107Y-116277000D01*
X119658893Y-116277000D01*
X119813642Y-116307781D01*
G37*
G36*
X117273642Y-116307781D02*
G01*
X117419414Y-116368162D01*
X117419416Y-116368163D01*
X117550608Y-116455822D01*
X117662178Y-116567392D01*
X117749837Y-116698584D01*
X117749838Y-116698586D01*
X117810219Y-116844358D01*
X117841000Y-116999107D01*
X117841000Y-117156893D01*
X117810219Y-117311642D01*
X117749838Y-117457414D01*
X117749837Y-117457416D01*
X117662178Y-117588608D01*
X117550608Y-117700178D01*
X117419416Y-117787837D01*
X117419415Y-117787838D01*
X117419414Y-117787838D01*
X117273642Y-117848219D01*
X117118893Y-117879000D01*
X116961107Y-117879000D01*
X116806358Y-117848219D01*
X116660586Y-117787838D01*
X116660585Y-117787838D01*
X116660584Y-117787837D01*
X116529392Y-117700178D01*
X116417822Y-117588608D01*
X116330163Y-117457416D01*
X116330162Y-117457414D01*
X116269781Y-117311642D01*
X116239000Y-117156893D01*
X116239000Y-116999107D01*
X116269781Y-116844358D01*
X116330162Y-116698586D01*
X116330163Y-116698584D01*
X116417822Y-116567392D01*
X116529392Y-116455822D01*
X116660584Y-116368163D01*
X116660586Y-116368162D01*
X116806358Y-116307781D01*
X116961107Y-116277000D01*
X117118893Y-116277000D01*
X117273642Y-116307781D01*
G37*
G36*
X116003642Y-113767781D02*
G01*
X116149414Y-113828162D01*
X116149416Y-113828163D01*
X116280608Y-113915822D01*
X116392178Y-114027392D01*
X116479837Y-114158584D01*
X116479838Y-114158586D01*
X116540219Y-114304358D01*
X116571000Y-114459107D01*
X116571000Y-114616893D01*
X116540219Y-114771642D01*
X116479838Y-114917414D01*
X116479837Y-114917416D01*
X116392178Y-115048608D01*
X116280608Y-115160178D01*
X116149416Y-115247837D01*
X116149415Y-115247838D01*
X116149414Y-115247838D01*
X116003642Y-115308219D01*
X115848893Y-115339000D01*
X115691107Y-115339000D01*
X115536358Y-115308219D01*
X115390586Y-115247838D01*
X115390585Y-115247838D01*
X115390584Y-115247837D01*
X115259392Y-115160178D01*
X115147822Y-115048608D01*
X115060163Y-114917416D01*
X115060162Y-114917414D01*
X114999781Y-114771642D01*
X114969000Y-114616893D01*
X114969000Y-114459107D01*
X114999781Y-114304358D01*
X115060162Y-114158586D01*
X115060163Y-114158584D01*
X115147822Y-114027392D01*
X115259392Y-113915822D01*
X115390584Y-113828163D01*
X115390586Y-113828162D01*
X115536358Y-113767781D01*
X115691107Y-113737000D01*
X115848893Y-113737000D01*
X116003642Y-113767781D01*
G37*
G36*
X124191000Y-115339000D02*
G01*
X122589000Y-115339000D01*
X122589000Y-113737000D01*
X124191000Y-113737000D01*
X124191000Y-115339000D01*
G37*
G36*
X118543642Y-113767781D02*
G01*
X118689414Y-113828162D01*
X118689416Y-113828163D01*
X118820608Y-113915822D01*
X118932178Y-114027392D01*
X119019837Y-114158584D01*
X119019838Y-114158586D01*
X119080219Y-114304358D01*
X119111000Y-114459107D01*
X119111000Y-114616893D01*
X119080219Y-114771642D01*
X119019838Y-114917414D01*
X119019837Y-114917416D01*
X118932178Y-115048608D01*
X118820608Y-115160178D01*
X118689416Y-115247837D01*
X118689415Y-115247838D01*
X118689414Y-115247838D01*
X118543642Y-115308219D01*
X118388893Y-115339000D01*
X118231107Y-115339000D01*
X118076358Y-115308219D01*
X117930586Y-115247838D01*
X117930585Y-115247838D01*
X117930584Y-115247837D01*
X117799392Y-115160178D01*
X117687822Y-115048608D01*
X117600163Y-114917416D01*
X117600162Y-114917414D01*
X117539781Y-114771642D01*
X117509000Y-114616893D01*
X117509000Y-114459107D01*
X117539781Y-114304358D01*
X117600162Y-114158586D01*
X117600163Y-114158584D01*
X117687822Y-114027392D01*
X117799392Y-113915822D01*
X117930584Y-113828163D01*
X117930586Y-113828162D01*
X118076358Y-113767781D01*
X118231107Y-113737000D01*
X118388893Y-113737000D01*
X118543642Y-113767781D01*
G37*
G36*
X121083642Y-113767781D02*
G01*
X121229414Y-113828162D01*
X121229416Y-113828163D01*
X121360608Y-113915822D01*
X121472178Y-114027392D01*
X121559837Y-114158584D01*
X121559838Y-114158586D01*
X121620219Y-114304358D01*
X121651000Y-114459107D01*
X121651000Y-114616893D01*
X121620219Y-114771642D01*
X121559838Y-114917414D01*
X121559837Y-114917416D01*
X121472178Y-115048608D01*
X121360608Y-115160178D01*
X121229416Y-115247837D01*
X121229415Y-115247838D01*
X121229414Y-115247838D01*
X121083642Y-115308219D01*
X120928893Y-115339000D01*
X120771107Y-115339000D01*
X120616358Y-115308219D01*
X120470586Y-115247838D01*
X120470585Y-115247838D01*
X120470584Y-115247837D01*
X120339392Y-115160178D01*
X120227822Y-115048608D01*
X120140163Y-114917416D01*
X120140162Y-114917414D01*
X120079781Y-114771642D01*
X120049000Y-114616893D01*
X120049000Y-114459107D01*
X120079781Y-114304358D01*
X120140162Y-114158586D01*
X120140163Y-114158584D01*
X120227822Y-114027392D01*
X120339392Y-113915822D01*
X120470584Y-113828163D01*
X120470586Y-113828162D01*
X120616358Y-113767781D01*
X120771107Y-113737000D01*
X120928893Y-113737000D01*
X121083642Y-113767781D01*
G37*
G36*
X113777208Y-106384093D02*
G01*
X114118617Y-106525510D01*
X114118619Y-106525511D01*
X114425880Y-106730816D01*
X114687184Y-106992120D01*
X114892490Y-107299383D01*
X115033907Y-107640792D01*
X115106000Y-108003229D01*
X115106000Y-108372771D01*
X115033907Y-108735208D01*
X114892490Y-109076617D01*
X114892489Y-109076619D01*
X114687184Y-109383880D01*
X114425880Y-109645184D01*
X114118619Y-109850489D01*
X114118618Y-109850490D01*
X114118617Y-109850490D01*
X113777208Y-109991907D01*
X113414771Y-110064000D01*
X113045229Y-110064000D01*
X112682792Y-109991907D01*
X112341383Y-109850490D01*
X112341382Y-109850490D01*
X112341381Y-109850489D01*
X112034120Y-109645184D01*
X111772816Y-109383880D01*
X111567511Y-109076619D01*
X111567510Y-109076617D01*
X111426093Y-108735208D01*
X111354000Y-108372771D01*
X111354000Y-108003229D01*
X111426093Y-107640792D01*
X111567510Y-107299383D01*
X111772816Y-106992120D01*
X112034120Y-106730816D01*
X112341381Y-106525511D01*
X112341383Y-106525510D01*
X112682792Y-106384093D01*
X113045229Y-106312000D01*
X113414771Y-106312000D01*
X113777208Y-106384093D01*
G37*
G36*
X125207208Y-106384093D02*
G01*
X125548617Y-106525510D01*
X125548619Y-106525511D01*
X125855880Y-106730816D01*
X126117184Y-106992120D01*
X126322490Y-107299383D01*
X126463907Y-107640792D01*
X126536000Y-108003229D01*
X126536000Y-108372771D01*
X126463907Y-108735208D01*
X126322490Y-109076617D01*
X126322489Y-109076619D01*
X126117184Y-109383880D01*
X125855880Y-109645184D01*
X125548619Y-109850489D01*
X125548618Y-109850490D01*
X125548617Y-109850490D01*
X125207208Y-109991907D01*
X124844771Y-110064000D01*
X124475229Y-110064000D01*
X124112792Y-109991907D01*
X123771383Y-109850490D01*
X123771382Y-109850490D01*
X123771381Y-109850489D01*
X123464120Y-109645184D01*
X123202816Y-109383880D01*
X122997511Y-109076619D01*
X122997510Y-109076617D01*
X122856093Y-108735208D01*
X122784000Y-108372771D01*
X122784000Y-108003229D01*
X122856093Y-107640792D01*
X122997510Y-107299383D01*
X123202816Y-106992120D01*
X123464120Y-106730816D01*
X123771381Y-106525511D01*
X123771383Y-106525510D01*
X124112792Y-106384093D01*
X124475229Y-106312000D01*
X124844771Y-106312000D01*
X125207208Y-106384093D01*
G37*
M02*
