G04 #@! TF.GenerationSoftware,KiCad,Pcbnew,5.1.5+dfsg1-2build2*
G04 #@! TF.CreationDate,2021-07-28T21:36:02-05:00*
G04 #@! TF.ProjectId,DIN_RAIL_POE_INJECTOR_SLIM,44494e5f-5241-4494-9c5f-504f455f494e,rev?*
G04 #@! TF.SameCoordinates,Original*
G04 #@! TF.FileFunction,Legend,Top*
G04 #@! TF.FilePolarity,Positive*
%FSLAX46Y46*%
G04 Gerber Fmt 4.6, Leading zero omitted, Abs format (unit mm)*
G04 Created by KiCad (PCBNEW 5.1.5+dfsg1-2build2) date 2021-07-28 21:36:02*
%MOMM*%
%LPD*%
G04 APERTURE LIST*
%ADD10C,0.150000*%
%ADD11C,0.010000*%
%ADD12C,0.120000*%
G04 APERTURE END LIST*
D10*
X112259619Y-148915809D02*
X113259619Y-148915809D01*
X113259619Y-149153904D01*
X113212000Y-149296761D01*
X113116761Y-149392000D01*
X113021523Y-149439619D01*
X112831047Y-149487238D01*
X112688190Y-149487238D01*
X112497714Y-149439619D01*
X112402476Y-149392000D01*
X112307238Y-149296761D01*
X112259619Y-149153904D01*
X112259619Y-148915809D01*
X112259619Y-149915809D02*
X113259619Y-149915809D01*
X112259619Y-150392000D02*
X113259619Y-150392000D01*
X112259619Y-150963428D01*
X113259619Y-150963428D01*
X112259619Y-152772952D02*
X112735809Y-152439619D01*
X112259619Y-152201523D02*
X113259619Y-152201523D01*
X113259619Y-152582476D01*
X113212000Y-152677714D01*
X113164380Y-152725333D01*
X113069142Y-152772952D01*
X112926285Y-152772952D01*
X112831047Y-152725333D01*
X112783428Y-152677714D01*
X112735809Y-152582476D01*
X112735809Y-152201523D01*
X112545333Y-153153904D02*
X112545333Y-153630095D01*
X112259619Y-153058666D02*
X113259619Y-153392000D01*
X112259619Y-153725333D01*
X112259619Y-154058666D02*
X113259619Y-154058666D01*
X112259619Y-155011047D02*
X112259619Y-154534857D01*
X113259619Y-154534857D01*
X110609619Y-144772952D02*
X111609619Y-144772952D01*
X111609619Y-145153904D01*
X111562000Y-145249142D01*
X111514380Y-145296761D01*
X111419142Y-145344380D01*
X111276285Y-145344380D01*
X111181047Y-145296761D01*
X111133428Y-145249142D01*
X111085809Y-145153904D01*
X111085809Y-144772952D01*
X110609619Y-145915809D02*
X110657238Y-145820571D01*
X110704857Y-145772952D01*
X110800095Y-145725333D01*
X111085809Y-145725333D01*
X111181047Y-145772952D01*
X111228666Y-145820571D01*
X111276285Y-145915809D01*
X111276285Y-146058666D01*
X111228666Y-146153904D01*
X111181047Y-146201523D01*
X111085809Y-146249142D01*
X110800095Y-146249142D01*
X110704857Y-146201523D01*
X110657238Y-146153904D01*
X110609619Y-146058666D01*
X110609619Y-145915809D01*
X111133428Y-146677714D02*
X111133428Y-147011047D01*
X110609619Y-147153904D02*
X110609619Y-146677714D01*
X111609619Y-146677714D01*
X111609619Y-147153904D01*
X110609619Y-148344380D02*
X111609619Y-148344380D01*
X110609619Y-148820571D02*
X111609619Y-148820571D01*
X110609619Y-149392000D01*
X111609619Y-149392000D01*
X111609619Y-150153904D02*
X110895333Y-150153904D01*
X110752476Y-150106285D01*
X110657238Y-150011047D01*
X110609619Y-149868190D01*
X110609619Y-149772952D01*
X111133428Y-150630095D02*
X111133428Y-150963428D01*
X110609619Y-151106285D02*
X110609619Y-150630095D01*
X111609619Y-150630095D01*
X111609619Y-151106285D01*
X110704857Y-152106285D02*
X110657238Y-152058666D01*
X110609619Y-151915809D01*
X110609619Y-151820571D01*
X110657238Y-151677714D01*
X110752476Y-151582476D01*
X110847714Y-151534857D01*
X111038190Y-151487238D01*
X111181047Y-151487238D01*
X111371523Y-151534857D01*
X111466761Y-151582476D01*
X111562000Y-151677714D01*
X111609619Y-151820571D01*
X111609619Y-151915809D01*
X111562000Y-152058666D01*
X111514380Y-152106285D01*
X111609619Y-152392000D02*
X111609619Y-152963428D01*
X110609619Y-152677714D02*
X111609619Y-152677714D01*
X111609619Y-153487238D02*
X111609619Y-153677714D01*
X111562000Y-153772952D01*
X111466761Y-153868190D01*
X111276285Y-153915809D01*
X110942952Y-153915809D01*
X110752476Y-153868190D01*
X110657238Y-153772952D01*
X110609619Y-153677714D01*
X110609619Y-153487238D01*
X110657238Y-153392000D01*
X110752476Y-153296761D01*
X110942952Y-153249142D01*
X111276285Y-153249142D01*
X111466761Y-153296761D01*
X111562000Y-153392000D01*
X111609619Y-153487238D01*
X110609619Y-154915809D02*
X111085809Y-154582476D01*
X110609619Y-154344380D02*
X111609619Y-154344380D01*
X111609619Y-154725333D01*
X111562000Y-154820571D01*
X111514380Y-154868190D01*
X111419142Y-154915809D01*
X111276285Y-154915809D01*
X111181047Y-154868190D01*
X111133428Y-154820571D01*
X111085809Y-154725333D01*
X111085809Y-154344380D01*
X110657238Y-156058666D02*
X110609619Y-156201523D01*
X110609619Y-156439619D01*
X110657238Y-156534857D01*
X110704857Y-156582476D01*
X110800095Y-156630095D01*
X110895333Y-156630095D01*
X110990571Y-156582476D01*
X111038190Y-156534857D01*
X111085809Y-156439619D01*
X111133428Y-156249142D01*
X111181047Y-156153904D01*
X111228666Y-156106285D01*
X111323904Y-156058666D01*
X111419142Y-156058666D01*
X111514380Y-156106285D01*
X111562000Y-156153904D01*
X111609619Y-156249142D01*
X111609619Y-156487238D01*
X111562000Y-156630095D01*
X110609619Y-157534857D02*
X110609619Y-157058666D01*
X111609619Y-157058666D01*
X110609619Y-157868190D02*
X111609619Y-157868190D01*
X110609619Y-158344380D02*
X111609619Y-158344380D01*
X110895333Y-158677714D01*
X111609619Y-159011047D01*
X110609619Y-159011047D01*
X124793476Y-167235714D02*
X124793476Y-167902380D01*
X124555380Y-166854761D02*
X124317285Y-167569047D01*
X124936333Y-167569047D01*
X126031571Y-166854761D02*
X125174428Y-168140476D01*
X126841095Y-166902380D02*
X126364904Y-166902380D01*
X126317285Y-167378571D01*
X126364904Y-167330952D01*
X126460142Y-167283333D01*
X126698238Y-167283333D01*
X126793476Y-167330952D01*
X126841095Y-167378571D01*
X126888714Y-167473809D01*
X126888714Y-167711904D01*
X126841095Y-167807142D01*
X126793476Y-167854761D01*
X126698238Y-167902380D01*
X126460142Y-167902380D01*
X126364904Y-167854761D01*
X126317285Y-167807142D01*
X124603000Y-169171428D02*
X125364904Y-169171428D01*
X124983952Y-169552380D02*
X124983952Y-168790476D01*
X125841095Y-169171428D02*
X126603000Y-169171428D01*
X126222047Y-169552380D02*
X126222047Y-168790476D01*
X128468380Y-110513666D02*
X127468380Y-110513666D01*
X127468380Y-110132714D01*
X127516000Y-110037476D01*
X127563619Y-109989857D01*
X127658857Y-109942238D01*
X127801714Y-109942238D01*
X127896952Y-109989857D01*
X127944571Y-110037476D01*
X127992190Y-110132714D01*
X127992190Y-110513666D01*
X128468380Y-109370809D02*
X128420761Y-109466047D01*
X128373142Y-109513666D01*
X128277904Y-109561285D01*
X127992190Y-109561285D01*
X127896952Y-109513666D01*
X127849333Y-109466047D01*
X127801714Y-109370809D01*
X127801714Y-109227952D01*
X127849333Y-109132714D01*
X127896952Y-109085095D01*
X127992190Y-109037476D01*
X128277904Y-109037476D01*
X128373142Y-109085095D01*
X128420761Y-109132714D01*
X128468380Y-109227952D01*
X128468380Y-109370809D01*
X127944571Y-108608904D02*
X127944571Y-108275571D01*
X128468380Y-108132714D02*
X128468380Y-108608904D01*
X127468380Y-108608904D01*
X127468380Y-108132714D01*
X128595380Y-127134857D02*
X128595380Y-127611047D01*
X127595380Y-127611047D01*
X128309666Y-126849142D02*
X128309666Y-126372952D01*
X128595380Y-126944380D02*
X127595380Y-126611047D01*
X128595380Y-126277714D01*
X128595380Y-125944380D02*
X127595380Y-125944380D01*
X128595380Y-125372952D01*
X127595380Y-125372952D01*
X111061666Y-166902380D02*
X111728333Y-166902380D01*
X111299761Y-167902380D01*
X112823571Y-166854761D02*
X111966428Y-168140476D01*
X113299761Y-167330952D02*
X113204523Y-167283333D01*
X113156904Y-167235714D01*
X113109285Y-167140476D01*
X113109285Y-167092857D01*
X113156904Y-166997619D01*
X113204523Y-166950000D01*
X113299761Y-166902380D01*
X113490238Y-166902380D01*
X113585476Y-166950000D01*
X113633095Y-166997619D01*
X113680714Y-167092857D01*
X113680714Y-167140476D01*
X113633095Y-167235714D01*
X113585476Y-167283333D01*
X113490238Y-167330952D01*
X113299761Y-167330952D01*
X113204523Y-167378571D01*
X113156904Y-167426190D01*
X113109285Y-167521428D01*
X113109285Y-167711904D01*
X113156904Y-167807142D01*
X113204523Y-167854761D01*
X113299761Y-167902380D01*
X113490238Y-167902380D01*
X113585476Y-167854761D01*
X113633095Y-167807142D01*
X113680714Y-167711904D01*
X113680714Y-167521428D01*
X113633095Y-167426190D01*
X113585476Y-167378571D01*
X113490238Y-167330952D01*
X111395000Y-169171428D02*
X112156904Y-169171428D01*
X112633095Y-169171428D02*
X113395000Y-169171428D01*
D11*
G36*
X115307069Y-140636814D02*
G01*
X114862445Y-140720635D01*
X114734947Y-141029920D01*
X114607449Y-141339206D01*
X114859754Y-141710246D01*
X114930004Y-141814157D01*
X114992728Y-141908087D01*
X115045062Y-141987652D01*
X115084143Y-142048470D01*
X115107107Y-142086157D01*
X115112058Y-142096421D01*
X115099324Y-142114910D01*
X115064118Y-142154420D01*
X115010938Y-142210522D01*
X114944282Y-142278787D01*
X114868646Y-142354786D01*
X114788528Y-142434092D01*
X114708426Y-142512275D01*
X114632836Y-142584907D01*
X114566255Y-142647559D01*
X114513182Y-142695803D01*
X114478113Y-142725210D01*
X114466377Y-142732241D01*
X114444740Y-142722123D01*
X114397338Y-142693759D01*
X114328807Y-142650129D01*
X114243785Y-142594218D01*
X114146907Y-142529006D01*
X114091650Y-142491219D01*
X113990752Y-142422343D01*
X113899701Y-142361140D01*
X113823030Y-142310578D01*
X113765272Y-142273628D01*
X113730957Y-142253258D01*
X113723746Y-142250197D01*
X113703252Y-142257136D01*
X113655487Y-142276051D01*
X113587168Y-142304087D01*
X113505011Y-142338391D01*
X113415730Y-142376109D01*
X113326042Y-142414387D01*
X113242662Y-142450370D01*
X113172306Y-142481206D01*
X113121690Y-142504039D01*
X113097529Y-142516017D01*
X113096578Y-142516724D01*
X113091964Y-142535531D01*
X113081672Y-142585618D01*
X113066713Y-142661793D01*
X113048099Y-142758865D01*
X113026841Y-142871643D01*
X113014582Y-142937442D01*
X112991638Y-143057950D01*
X112969805Y-143166797D01*
X112950278Y-143258476D01*
X112934252Y-143327481D01*
X112922921Y-143368304D01*
X112919326Y-143376511D01*
X112894994Y-143384548D01*
X112840041Y-143391033D01*
X112760892Y-143395970D01*
X112663974Y-143399364D01*
X112555713Y-143401218D01*
X112442535Y-143401538D01*
X112330865Y-143400327D01*
X112227132Y-143397590D01*
X112137759Y-143393331D01*
X112069174Y-143387555D01*
X112027803Y-143380267D01*
X112019190Y-143375895D01*
X112008867Y-143349764D01*
X111994108Y-143294393D01*
X111976648Y-143217107D01*
X111958220Y-143125230D01*
X111952259Y-143093158D01*
X111923934Y-142938524D01*
X111901124Y-142816375D01*
X111882920Y-142722673D01*
X111868417Y-142653384D01*
X111856708Y-142604471D01*
X111846885Y-142571897D01*
X111838044Y-142551628D01*
X111829276Y-142539626D01*
X111827543Y-142537947D01*
X111799629Y-142521184D01*
X111745305Y-142495614D01*
X111671223Y-142463788D01*
X111584035Y-142428260D01*
X111490392Y-142391583D01*
X111396948Y-142356311D01*
X111310353Y-142324996D01*
X111237260Y-142300193D01*
X111184322Y-142284454D01*
X111158189Y-142280332D01*
X111157274Y-142280676D01*
X111135914Y-142294641D01*
X111088916Y-142326322D01*
X111021173Y-142372391D01*
X110937577Y-142429518D01*
X110843018Y-142494373D01*
X110816146Y-142512843D01*
X110718725Y-142578699D01*
X110629837Y-142636650D01*
X110554588Y-142683538D01*
X110498080Y-142716207D01*
X110465419Y-142731500D01*
X110461407Y-142732241D01*
X110440316Y-142719392D01*
X110398536Y-142683888D01*
X110340555Y-142630293D01*
X110270865Y-142563171D01*
X110193955Y-142487087D01*
X110114317Y-142406604D01*
X110036439Y-142326287D01*
X109964814Y-142250699D01*
X109903930Y-142184405D01*
X109858279Y-142131969D01*
X109832350Y-142097955D01*
X109828117Y-142088545D01*
X109838088Y-142066643D01*
X109864980Y-142021800D01*
X109904264Y-141961321D01*
X109935883Y-141914789D01*
X109993902Y-141830475D01*
X110062216Y-141730626D01*
X110130421Y-141630473D01*
X110166925Y-141576627D01*
X110290200Y-141394371D01*
X110207480Y-141241381D01*
X110171241Y-141171682D01*
X110143074Y-141112414D01*
X110127009Y-141072311D01*
X110124774Y-141062103D01*
X110141278Y-141049829D01*
X110187918Y-141025613D01*
X110260391Y-140991263D01*
X110354394Y-140948588D01*
X110465626Y-140899394D01*
X110589785Y-140845490D01*
X110722568Y-140788684D01*
X110859673Y-140730782D01*
X110996798Y-140673593D01*
X111129642Y-140618924D01*
X111253902Y-140568584D01*
X111365275Y-140524380D01*
X111459461Y-140488119D01*
X111532156Y-140461609D01*
X111579059Y-140446658D01*
X111595167Y-140444254D01*
X111615714Y-140463311D01*
X111649067Y-140505036D01*
X111688298Y-140560706D01*
X111691401Y-140565378D01*
X111806577Y-140709264D01*
X111940947Y-140825283D01*
X112090216Y-140912430D01*
X112250087Y-140969699D01*
X112416263Y-140996086D01*
X112584448Y-140990585D01*
X112750345Y-140952190D01*
X112909658Y-140879895D01*
X112944513Y-140858626D01*
X113085263Y-140747996D01*
X113198286Y-140617302D01*
X113282997Y-140471064D01*
X113338806Y-140313808D01*
X113365126Y-140150057D01*
X113361370Y-139984333D01*
X113326950Y-139821162D01*
X113261277Y-139665065D01*
X113163765Y-139520567D01*
X113124187Y-139475869D01*
X113000297Y-139362112D01*
X112869876Y-139279218D01*
X112723685Y-139222356D01*
X112578912Y-139190687D01*
X112416140Y-139182869D01*
X112252560Y-139208938D01*
X112093702Y-139266245D01*
X111945094Y-139352144D01*
X111812265Y-139463986D01*
X111700744Y-139599123D01*
X111688989Y-139616883D01*
X111650492Y-139673150D01*
X111617137Y-139715923D01*
X111595840Y-139736372D01*
X111595167Y-139736669D01*
X111572129Y-139732279D01*
X111519843Y-139714876D01*
X111442610Y-139686268D01*
X111344732Y-139648265D01*
X111230509Y-139602674D01*
X111104242Y-139551303D01*
X110970233Y-139495962D01*
X110832782Y-139438458D01*
X110696192Y-139380601D01*
X110564763Y-139324198D01*
X110442795Y-139271058D01*
X110334591Y-139222990D01*
X110244451Y-139181801D01*
X110176677Y-139149301D01*
X110135570Y-139127297D01*
X110124774Y-139118436D01*
X110133181Y-139091360D01*
X110155728Y-139040697D01*
X110188387Y-138975183D01*
X110207480Y-138939159D01*
X110290200Y-138786168D01*
X110166925Y-138603912D01*
X110103772Y-138510875D01*
X110034273Y-138409015D01*
X109968835Y-138313562D01*
X109935883Y-138265750D01*
X109890727Y-138198505D01*
X109854943Y-138141564D01*
X109833062Y-138102354D01*
X109828437Y-138089619D01*
X109840915Y-138071083D01*
X109875748Y-138030059D01*
X109929322Y-137970525D01*
X109998017Y-137896458D01*
X110078219Y-137811835D01*
X110129714Y-137758315D01*
X110221714Y-137664681D01*
X110304001Y-137583759D01*
X110373055Y-137518823D01*
X110425356Y-137473142D01*
X110457384Y-137449989D01*
X110463884Y-137447768D01*
X110488606Y-137458076D01*
X110538595Y-137486561D01*
X110608788Y-137530063D01*
X110694125Y-137585423D01*
X110789544Y-137649480D01*
X110816146Y-137667697D01*
X110912833Y-137734073D01*
X110999883Y-137793622D01*
X111072405Y-137843016D01*
X111125507Y-137878925D01*
X111154297Y-137898019D01*
X111157274Y-137899864D01*
X111180218Y-137897105D01*
X111230664Y-137882462D01*
X111301959Y-137858487D01*
X111387453Y-137827734D01*
X111480493Y-137792756D01*
X111574426Y-137756107D01*
X111662601Y-137720339D01*
X111738366Y-137688006D01*
X111795069Y-137661662D01*
X111826057Y-137643858D01*
X111827543Y-137642593D01*
X111836399Y-137631706D01*
X111845157Y-137613318D01*
X111854723Y-137583394D01*
X111866004Y-137537897D01*
X111879907Y-137472791D01*
X111897337Y-137384039D01*
X111919202Y-137267607D01*
X111946409Y-137119458D01*
X111952259Y-137087382D01*
X111970626Y-136992314D01*
X111988595Y-136909435D01*
X112004431Y-136846070D01*
X112016400Y-136809542D01*
X112019190Y-136804644D01*
X112043928Y-136796573D01*
X112099210Y-136790013D01*
X112178611Y-136784967D01*
X112275704Y-136781441D01*
X112384062Y-136779439D01*
X112497260Y-136778964D01*
X112608872Y-136780023D01*
X112712471Y-136782618D01*
X112801632Y-136786754D01*
X112869928Y-136792437D01*
X112910934Y-136799669D01*
X112919326Y-136804029D01*
X112927792Y-136828302D01*
X112941565Y-136883574D01*
X112959450Y-136964338D01*
X112980252Y-137065088D01*
X113002777Y-137180317D01*
X113014582Y-137243098D01*
X113036849Y-137362213D01*
X113057021Y-137468435D01*
X113074085Y-137556573D01*
X113087031Y-137621434D01*
X113094845Y-137657826D01*
X113096578Y-137663816D01*
X113116110Y-137673939D01*
X113163157Y-137695338D01*
X113230997Y-137725161D01*
X113312909Y-137760555D01*
X113402172Y-137798668D01*
X113492065Y-137836647D01*
X113575865Y-137871640D01*
X113646853Y-137900794D01*
X113698306Y-137921257D01*
X113723503Y-137930177D01*
X113724604Y-137930343D01*
X113744481Y-137920231D01*
X113790223Y-137891883D01*
X113857283Y-137848277D01*
X113941116Y-137792394D01*
X114037174Y-137727213D01*
X114092350Y-137689321D01*
X114193519Y-137620275D01*
X114285370Y-137558950D01*
X114363256Y-137508337D01*
X114422531Y-137471429D01*
X114458549Y-137451218D01*
X114466623Y-137448299D01*
X114485416Y-137460847D01*
X114525543Y-137495537D01*
X114582507Y-137547937D01*
X114651815Y-137613616D01*
X114728969Y-137688144D01*
X114809475Y-137767087D01*
X114888837Y-137846017D01*
X114962560Y-137920500D01*
X115026148Y-137986106D01*
X115075106Y-138038404D01*
X115104939Y-138072961D01*
X115112058Y-138084522D01*
X115102047Y-138103346D01*
X115073922Y-138148369D01*
X115030546Y-138215213D01*
X114974782Y-138299501D01*
X114909494Y-138396856D01*
X114859754Y-138470293D01*
X114607449Y-138841333D01*
X114862445Y-139459905D01*
X115307069Y-139543725D01*
X115751693Y-139627546D01*
X115751693Y-140552994D01*
X115307069Y-140636814D01*
G37*
X115307069Y-140636814D02*
X114862445Y-140720635D01*
X114734947Y-141029920D01*
X114607449Y-141339206D01*
X114859754Y-141710246D01*
X114930004Y-141814157D01*
X114992728Y-141908087D01*
X115045062Y-141987652D01*
X115084143Y-142048470D01*
X115107107Y-142086157D01*
X115112058Y-142096421D01*
X115099324Y-142114910D01*
X115064118Y-142154420D01*
X115010938Y-142210522D01*
X114944282Y-142278787D01*
X114868646Y-142354786D01*
X114788528Y-142434092D01*
X114708426Y-142512275D01*
X114632836Y-142584907D01*
X114566255Y-142647559D01*
X114513182Y-142695803D01*
X114478113Y-142725210D01*
X114466377Y-142732241D01*
X114444740Y-142722123D01*
X114397338Y-142693759D01*
X114328807Y-142650129D01*
X114243785Y-142594218D01*
X114146907Y-142529006D01*
X114091650Y-142491219D01*
X113990752Y-142422343D01*
X113899701Y-142361140D01*
X113823030Y-142310578D01*
X113765272Y-142273628D01*
X113730957Y-142253258D01*
X113723746Y-142250197D01*
X113703252Y-142257136D01*
X113655487Y-142276051D01*
X113587168Y-142304087D01*
X113505011Y-142338391D01*
X113415730Y-142376109D01*
X113326042Y-142414387D01*
X113242662Y-142450370D01*
X113172306Y-142481206D01*
X113121690Y-142504039D01*
X113097529Y-142516017D01*
X113096578Y-142516724D01*
X113091964Y-142535531D01*
X113081672Y-142585618D01*
X113066713Y-142661793D01*
X113048099Y-142758865D01*
X113026841Y-142871643D01*
X113014582Y-142937442D01*
X112991638Y-143057950D01*
X112969805Y-143166797D01*
X112950278Y-143258476D01*
X112934252Y-143327481D01*
X112922921Y-143368304D01*
X112919326Y-143376511D01*
X112894994Y-143384548D01*
X112840041Y-143391033D01*
X112760892Y-143395970D01*
X112663974Y-143399364D01*
X112555713Y-143401218D01*
X112442535Y-143401538D01*
X112330865Y-143400327D01*
X112227132Y-143397590D01*
X112137759Y-143393331D01*
X112069174Y-143387555D01*
X112027803Y-143380267D01*
X112019190Y-143375895D01*
X112008867Y-143349764D01*
X111994108Y-143294393D01*
X111976648Y-143217107D01*
X111958220Y-143125230D01*
X111952259Y-143093158D01*
X111923934Y-142938524D01*
X111901124Y-142816375D01*
X111882920Y-142722673D01*
X111868417Y-142653384D01*
X111856708Y-142604471D01*
X111846885Y-142571897D01*
X111838044Y-142551628D01*
X111829276Y-142539626D01*
X111827543Y-142537947D01*
X111799629Y-142521184D01*
X111745305Y-142495614D01*
X111671223Y-142463788D01*
X111584035Y-142428260D01*
X111490392Y-142391583D01*
X111396948Y-142356311D01*
X111310353Y-142324996D01*
X111237260Y-142300193D01*
X111184322Y-142284454D01*
X111158189Y-142280332D01*
X111157274Y-142280676D01*
X111135914Y-142294641D01*
X111088916Y-142326322D01*
X111021173Y-142372391D01*
X110937577Y-142429518D01*
X110843018Y-142494373D01*
X110816146Y-142512843D01*
X110718725Y-142578699D01*
X110629837Y-142636650D01*
X110554588Y-142683538D01*
X110498080Y-142716207D01*
X110465419Y-142731500D01*
X110461407Y-142732241D01*
X110440316Y-142719392D01*
X110398536Y-142683888D01*
X110340555Y-142630293D01*
X110270865Y-142563171D01*
X110193955Y-142487087D01*
X110114317Y-142406604D01*
X110036439Y-142326287D01*
X109964814Y-142250699D01*
X109903930Y-142184405D01*
X109858279Y-142131969D01*
X109832350Y-142097955D01*
X109828117Y-142088545D01*
X109838088Y-142066643D01*
X109864980Y-142021800D01*
X109904264Y-141961321D01*
X109935883Y-141914789D01*
X109993902Y-141830475D01*
X110062216Y-141730626D01*
X110130421Y-141630473D01*
X110166925Y-141576627D01*
X110290200Y-141394371D01*
X110207480Y-141241381D01*
X110171241Y-141171682D01*
X110143074Y-141112414D01*
X110127009Y-141072311D01*
X110124774Y-141062103D01*
X110141278Y-141049829D01*
X110187918Y-141025613D01*
X110260391Y-140991263D01*
X110354394Y-140948588D01*
X110465626Y-140899394D01*
X110589785Y-140845490D01*
X110722568Y-140788684D01*
X110859673Y-140730782D01*
X110996798Y-140673593D01*
X111129642Y-140618924D01*
X111253902Y-140568584D01*
X111365275Y-140524380D01*
X111459461Y-140488119D01*
X111532156Y-140461609D01*
X111579059Y-140446658D01*
X111595167Y-140444254D01*
X111615714Y-140463311D01*
X111649067Y-140505036D01*
X111688298Y-140560706D01*
X111691401Y-140565378D01*
X111806577Y-140709264D01*
X111940947Y-140825283D01*
X112090216Y-140912430D01*
X112250087Y-140969699D01*
X112416263Y-140996086D01*
X112584448Y-140990585D01*
X112750345Y-140952190D01*
X112909658Y-140879895D01*
X112944513Y-140858626D01*
X113085263Y-140747996D01*
X113198286Y-140617302D01*
X113282997Y-140471064D01*
X113338806Y-140313808D01*
X113365126Y-140150057D01*
X113361370Y-139984333D01*
X113326950Y-139821162D01*
X113261277Y-139665065D01*
X113163765Y-139520567D01*
X113124187Y-139475869D01*
X113000297Y-139362112D01*
X112869876Y-139279218D01*
X112723685Y-139222356D01*
X112578912Y-139190687D01*
X112416140Y-139182869D01*
X112252560Y-139208938D01*
X112093702Y-139266245D01*
X111945094Y-139352144D01*
X111812265Y-139463986D01*
X111700744Y-139599123D01*
X111688989Y-139616883D01*
X111650492Y-139673150D01*
X111617137Y-139715923D01*
X111595840Y-139736372D01*
X111595167Y-139736669D01*
X111572129Y-139732279D01*
X111519843Y-139714876D01*
X111442610Y-139686268D01*
X111344732Y-139648265D01*
X111230509Y-139602674D01*
X111104242Y-139551303D01*
X110970233Y-139495962D01*
X110832782Y-139438458D01*
X110696192Y-139380601D01*
X110564763Y-139324198D01*
X110442795Y-139271058D01*
X110334591Y-139222990D01*
X110244451Y-139181801D01*
X110176677Y-139149301D01*
X110135570Y-139127297D01*
X110124774Y-139118436D01*
X110133181Y-139091360D01*
X110155728Y-139040697D01*
X110188387Y-138975183D01*
X110207480Y-138939159D01*
X110290200Y-138786168D01*
X110166925Y-138603912D01*
X110103772Y-138510875D01*
X110034273Y-138409015D01*
X109968835Y-138313562D01*
X109935883Y-138265750D01*
X109890727Y-138198505D01*
X109854943Y-138141564D01*
X109833062Y-138102354D01*
X109828437Y-138089619D01*
X109840915Y-138071083D01*
X109875748Y-138030059D01*
X109929322Y-137970525D01*
X109998017Y-137896458D01*
X110078219Y-137811835D01*
X110129714Y-137758315D01*
X110221714Y-137664681D01*
X110304001Y-137583759D01*
X110373055Y-137518823D01*
X110425356Y-137473142D01*
X110457384Y-137449989D01*
X110463884Y-137447768D01*
X110488606Y-137458076D01*
X110538595Y-137486561D01*
X110608788Y-137530063D01*
X110694125Y-137585423D01*
X110789544Y-137649480D01*
X110816146Y-137667697D01*
X110912833Y-137734073D01*
X110999883Y-137793622D01*
X111072405Y-137843016D01*
X111125507Y-137878925D01*
X111154297Y-137898019D01*
X111157274Y-137899864D01*
X111180218Y-137897105D01*
X111230664Y-137882462D01*
X111301959Y-137858487D01*
X111387453Y-137827734D01*
X111480493Y-137792756D01*
X111574426Y-137756107D01*
X111662601Y-137720339D01*
X111738366Y-137688006D01*
X111795069Y-137661662D01*
X111826057Y-137643858D01*
X111827543Y-137642593D01*
X111836399Y-137631706D01*
X111845157Y-137613318D01*
X111854723Y-137583394D01*
X111866004Y-137537897D01*
X111879907Y-137472791D01*
X111897337Y-137384039D01*
X111919202Y-137267607D01*
X111946409Y-137119458D01*
X111952259Y-137087382D01*
X111970626Y-136992314D01*
X111988595Y-136909435D01*
X112004431Y-136846070D01*
X112016400Y-136809542D01*
X112019190Y-136804644D01*
X112043928Y-136796573D01*
X112099210Y-136790013D01*
X112178611Y-136784967D01*
X112275704Y-136781441D01*
X112384062Y-136779439D01*
X112497260Y-136778964D01*
X112608872Y-136780023D01*
X112712471Y-136782618D01*
X112801632Y-136786754D01*
X112869928Y-136792437D01*
X112910934Y-136799669D01*
X112919326Y-136804029D01*
X112927792Y-136828302D01*
X112941565Y-136883574D01*
X112959450Y-136964338D01*
X112980252Y-137065088D01*
X113002777Y-137180317D01*
X113014582Y-137243098D01*
X113036849Y-137362213D01*
X113057021Y-137468435D01*
X113074085Y-137556573D01*
X113087031Y-137621434D01*
X113094845Y-137657826D01*
X113096578Y-137663816D01*
X113116110Y-137673939D01*
X113163157Y-137695338D01*
X113230997Y-137725161D01*
X113312909Y-137760555D01*
X113402172Y-137798668D01*
X113492065Y-137836647D01*
X113575865Y-137871640D01*
X113646853Y-137900794D01*
X113698306Y-137921257D01*
X113723503Y-137930177D01*
X113724604Y-137930343D01*
X113744481Y-137920231D01*
X113790223Y-137891883D01*
X113857283Y-137848277D01*
X113941116Y-137792394D01*
X114037174Y-137727213D01*
X114092350Y-137689321D01*
X114193519Y-137620275D01*
X114285370Y-137558950D01*
X114363256Y-137508337D01*
X114422531Y-137471429D01*
X114458549Y-137451218D01*
X114466623Y-137448299D01*
X114485416Y-137460847D01*
X114525543Y-137495537D01*
X114582507Y-137547937D01*
X114651815Y-137613616D01*
X114728969Y-137688144D01*
X114809475Y-137767087D01*
X114888837Y-137846017D01*
X114962560Y-137920500D01*
X115026148Y-137986106D01*
X115075106Y-138038404D01*
X115104939Y-138072961D01*
X115112058Y-138084522D01*
X115102047Y-138103346D01*
X115073922Y-138148369D01*
X115030546Y-138215213D01*
X114974782Y-138299501D01*
X114909494Y-138396856D01*
X114859754Y-138470293D01*
X114607449Y-138841333D01*
X114862445Y-139459905D01*
X115307069Y-139543725D01*
X115751693Y-139627546D01*
X115751693Y-140552994D01*
X115307069Y-140636814D01*
D12*
X110500000Y-123547000D02*
X111000000Y-123047000D01*
X110500000Y-122547000D02*
X110500000Y-123547000D01*
X111000000Y-123047000D02*
X110500000Y-122547000D01*
X126800000Y-119257000D02*
X111080000Y-119257000D01*
X111080000Y-119257000D02*
X111080000Y-135997000D01*
X126810000Y-119257000D02*
X126810000Y-135997000D01*
X126810000Y-135997000D02*
X111080000Y-135997000D01*
X121959000Y-154107000D02*
X121974000Y-154107000D01*
X119834000Y-154107000D02*
X119849000Y-154107000D01*
X121959000Y-158647000D02*
X121974000Y-158647000D01*
X119834000Y-158647000D02*
X119849000Y-158647000D01*
X121974000Y-158647000D02*
X121974000Y-154107000D01*
X119834000Y-158647000D02*
X119834000Y-154107000D01*
X121381000Y-144526000D02*
X120761000Y-144526000D01*
X123221000Y-144526000D02*
G75*
G03X123221000Y-144526000I-920000J0D01*
G01*
X117058000Y-149797000D02*
X117058000Y-149953000D01*
X117058000Y-147481000D02*
X117058000Y-147637000D01*
X119659130Y-149796837D02*
G75*
G02X117577039Y-149797000I-1041130J1079837D01*
G01*
X119659130Y-147637163D02*
G75*
G03X117577039Y-147637000I-1041130J-1079837D01*
G01*
X120290335Y-149795608D02*
G75*
G02X117058000Y-149952516I-1672335J1078608D01*
G01*
X120290335Y-147638392D02*
G75*
G03X117058000Y-147481484I-1672335J-1078608D01*
G01*
X114948000Y-169540000D02*
X116448000Y-169540000D01*
X114948000Y-167800000D02*
X114948000Y-169540000D01*
X123008000Y-162180000D02*
X123008000Y-169300000D01*
X115188000Y-162180000D02*
X115188000Y-169300000D01*
X115188000Y-169300000D02*
X123008000Y-169300000D01*
X115188000Y-162180000D02*
X123008000Y-162180000D01*
X115188000Y-167740000D02*
X123008000Y-167740000D01*
X122403000Y-165640000D02*
G75*
G03X122403000Y-165640000I-1555000J0D01*
G01*
X117375011Y-167195492D02*
G75*
G02X116740000Y-167072000I-27011J1555492D01*
G01*
X115915891Y-166247742D02*
G75*
G02X115916000Y-165032000I1432109J607742D01*
G01*
X116740258Y-164207891D02*
G75*
G02X117956000Y-164208000I607742J-1432109D01*
G01*
X118780109Y-165032258D02*
G75*
G02X118780000Y-166248000I-1432109J-607742D01*
G01*
X117955587Y-167071385D02*
G75*
G02X117348000Y-167195000I-607587J1431385D01*
G01*
X127390000Y-114038000D02*
X126890000Y-114538000D01*
X127390000Y-115038000D02*
X127390000Y-114038000D01*
X126890000Y-114538000D02*
X127390000Y-115038000D01*
X111090000Y-118328000D02*
X126810000Y-118328000D01*
X126810000Y-118328000D02*
X126810000Y-101588000D01*
X111080000Y-118328000D02*
X111080000Y-101588000D01*
X111080000Y-101588000D02*
X126810000Y-101588000D01*
D10*
X109521666Y-119086380D02*
X109521666Y-119800666D01*
X109474047Y-119943523D01*
X109378809Y-120038761D01*
X109235952Y-120086380D01*
X109140714Y-120086380D01*
X109950238Y-119181619D02*
X109997857Y-119134000D01*
X110093095Y-119086380D01*
X110331190Y-119086380D01*
X110426428Y-119134000D01*
X110474047Y-119181619D01*
X110521666Y-119276857D01*
X110521666Y-119372095D01*
X110474047Y-119514952D01*
X109902619Y-120086380D01*
X110521666Y-120086380D01*
X122991571Y-156924333D02*
X122991571Y-157257666D01*
X123515380Y-157257666D02*
X122515380Y-157257666D01*
X122515380Y-156781476D01*
X123515380Y-155876714D02*
X123515380Y-156448142D01*
X123515380Y-156162428D02*
X122515380Y-156162428D01*
X122658238Y-156257666D01*
X122753476Y-156352904D01*
X122801095Y-156448142D01*
X120483333Y-143200380D02*
X120150000Y-142724190D01*
X119911904Y-143200380D02*
X119911904Y-142200380D01*
X120292857Y-142200380D01*
X120388095Y-142248000D01*
X120435714Y-142295619D01*
X120483333Y-142390857D01*
X120483333Y-142533714D01*
X120435714Y-142628952D01*
X120388095Y-142676571D01*
X120292857Y-142724190D01*
X119911904Y-142724190D01*
X121435714Y-143200380D02*
X120864285Y-143200380D01*
X121150000Y-143200380D02*
X121150000Y-142200380D01*
X121054761Y-142343238D01*
X120959523Y-142438476D01*
X120864285Y-142486095D01*
X114450904Y-149296380D02*
X114450904Y-148296380D01*
X114689000Y-148296380D01*
X114831857Y-148344000D01*
X114927095Y-148439238D01*
X114974714Y-148534476D01*
X115022333Y-148724952D01*
X115022333Y-148867809D01*
X114974714Y-149058285D01*
X114927095Y-149153523D01*
X114831857Y-149248761D01*
X114689000Y-149296380D01*
X114450904Y-149296380D01*
X115974714Y-149296380D02*
X115403285Y-149296380D01*
X115689000Y-149296380D02*
X115689000Y-148296380D01*
X115593761Y-148439238D01*
X115498523Y-148534476D01*
X115403285Y-148582095D01*
X118284666Y-160012380D02*
X118284666Y-160726666D01*
X118237047Y-160869523D01*
X118141809Y-160964761D01*
X117998952Y-161012380D01*
X117903714Y-161012380D01*
X118665619Y-160012380D02*
X119284666Y-160012380D01*
X118951333Y-160393333D01*
X119094190Y-160393333D01*
X119189428Y-160440952D01*
X119237047Y-160488571D01*
X119284666Y-160583809D01*
X119284666Y-160821904D01*
X119237047Y-160917142D01*
X119189428Y-160964761D01*
X119094190Y-161012380D01*
X118808476Y-161012380D01*
X118713238Y-160964761D01*
X118665619Y-160917142D01*
X109648666Y-101941380D02*
X109648666Y-102655666D01*
X109601047Y-102798523D01*
X109505809Y-102893761D01*
X109362952Y-102941380D01*
X109267714Y-102941380D01*
X110648666Y-102941380D02*
X110077238Y-102941380D01*
X110362952Y-102941380D02*
X110362952Y-101941380D01*
X110267714Y-102084238D01*
X110172476Y-102179476D01*
X110077238Y-102227095D01*
M02*
