G04 #@! TF.GenerationSoftware,KiCad,Pcbnew,5.1.5+dfsg1-2build2*
G04 #@! TF.CreationDate,2021-09-07T18:55:11-05:00*
G04 #@! TF.ProjectId,INRUSH_CURRENT_LIMITER_SLIM,494e5255-5348-45f4-9355-5252454e545f,rev?*
G04 #@! TF.SameCoordinates,Original*
G04 #@! TF.FileFunction,Legend,Top*
G04 #@! TF.FilePolarity,Positive*
%FSLAX46Y46*%
G04 Gerber Fmt 4.6, Leading zero omitted, Abs format (unit mm)*
G04 Created by KiCad (PCBNEW 5.1.5+dfsg1-2build2) date 2021-09-07 18:55:11*
%MOMM*%
%LPD*%
G04 APERTURE LIST*
%ADD10C,0.150000*%
%ADD11C,0.010000*%
%ADD12C,0.120000*%
G04 APERTURE END LIST*
D10*
X141279190Y-102353619D02*
X141279190Y-103353619D01*
X141041095Y-103353619D01*
X140898238Y-103306000D01*
X140803000Y-103210761D01*
X140755380Y-103115523D01*
X140707761Y-102925047D01*
X140707761Y-102782190D01*
X140755380Y-102591714D01*
X140803000Y-102496476D01*
X140898238Y-102401238D01*
X141041095Y-102353619D01*
X141279190Y-102353619D01*
X140279190Y-102353619D02*
X140279190Y-103353619D01*
X139803000Y-102353619D02*
X139803000Y-103353619D01*
X139231571Y-102353619D01*
X139231571Y-103353619D01*
X137422047Y-102353619D02*
X137755380Y-102829809D01*
X137993476Y-102353619D02*
X137993476Y-103353619D01*
X137612523Y-103353619D01*
X137517285Y-103306000D01*
X137469666Y-103258380D01*
X137422047Y-103163142D01*
X137422047Y-103020285D01*
X137469666Y-102925047D01*
X137517285Y-102877428D01*
X137612523Y-102829809D01*
X137993476Y-102829809D01*
X137041095Y-102639333D02*
X136564904Y-102639333D01*
X137136333Y-102353619D02*
X136803000Y-103353619D01*
X136469666Y-102353619D01*
X136136333Y-102353619D02*
X136136333Y-103353619D01*
X135183952Y-102353619D02*
X135660142Y-102353619D01*
X135660142Y-103353619D01*
X149850619Y-100703619D02*
X149850619Y-101703619D01*
X149374428Y-100703619D02*
X149374428Y-101703619D01*
X148803000Y-100703619D01*
X148803000Y-101703619D01*
X147755380Y-100703619D02*
X148088714Y-101179809D01*
X148326809Y-100703619D02*
X148326809Y-101703619D01*
X147945857Y-101703619D01*
X147850619Y-101656000D01*
X147803000Y-101608380D01*
X147755380Y-101513142D01*
X147755380Y-101370285D01*
X147803000Y-101275047D01*
X147850619Y-101227428D01*
X147945857Y-101179809D01*
X148326809Y-101179809D01*
X147326809Y-101703619D02*
X147326809Y-100894095D01*
X147279190Y-100798857D01*
X147231571Y-100751238D01*
X147136333Y-100703619D01*
X146945857Y-100703619D01*
X146850619Y-100751238D01*
X146803000Y-100798857D01*
X146755380Y-100894095D01*
X146755380Y-101703619D01*
X146326809Y-100751238D02*
X146183952Y-100703619D01*
X145945857Y-100703619D01*
X145850619Y-100751238D01*
X145803000Y-100798857D01*
X145755380Y-100894095D01*
X145755380Y-100989333D01*
X145803000Y-101084571D01*
X145850619Y-101132190D01*
X145945857Y-101179809D01*
X146136333Y-101227428D01*
X146231571Y-101275047D01*
X146279190Y-101322666D01*
X146326809Y-101417904D01*
X146326809Y-101513142D01*
X146279190Y-101608380D01*
X146231571Y-101656000D01*
X146136333Y-101703619D01*
X145898238Y-101703619D01*
X145755380Y-101656000D01*
X145326809Y-100703619D02*
X145326809Y-101703619D01*
X145326809Y-101227428D02*
X144755380Y-101227428D01*
X144755380Y-100703619D02*
X144755380Y-101703619D01*
X142945857Y-100798857D02*
X142993476Y-100751238D01*
X143136333Y-100703619D01*
X143231571Y-100703619D01*
X143374428Y-100751238D01*
X143469666Y-100846476D01*
X143517285Y-100941714D01*
X143564904Y-101132190D01*
X143564904Y-101275047D01*
X143517285Y-101465523D01*
X143469666Y-101560761D01*
X143374428Y-101656000D01*
X143231571Y-101703619D01*
X143136333Y-101703619D01*
X142993476Y-101656000D01*
X142945857Y-101608380D01*
X142517285Y-101703619D02*
X142517285Y-100894095D01*
X142469666Y-100798857D01*
X142422047Y-100751238D01*
X142326809Y-100703619D01*
X142136333Y-100703619D01*
X142041095Y-100751238D01*
X141993476Y-100798857D01*
X141945857Y-100894095D01*
X141945857Y-101703619D01*
X140898238Y-100703619D02*
X141231571Y-101179809D01*
X141469666Y-100703619D02*
X141469666Y-101703619D01*
X141088714Y-101703619D01*
X140993476Y-101656000D01*
X140945857Y-101608380D01*
X140898238Y-101513142D01*
X140898238Y-101370285D01*
X140945857Y-101275047D01*
X140993476Y-101227428D01*
X141088714Y-101179809D01*
X141469666Y-101179809D01*
X139898238Y-100703619D02*
X140231571Y-101179809D01*
X140469666Y-100703619D02*
X140469666Y-101703619D01*
X140088714Y-101703619D01*
X139993476Y-101656000D01*
X139945857Y-101608380D01*
X139898238Y-101513142D01*
X139898238Y-101370285D01*
X139945857Y-101275047D01*
X139993476Y-101227428D01*
X140088714Y-101179809D01*
X140469666Y-101179809D01*
X139469666Y-101227428D02*
X139136333Y-101227428D01*
X138993476Y-100703619D02*
X139469666Y-100703619D01*
X139469666Y-101703619D01*
X138993476Y-101703619D01*
X138564904Y-100703619D02*
X138564904Y-101703619D01*
X137993476Y-100703619D01*
X137993476Y-101703619D01*
X137660142Y-101703619D02*
X137088714Y-101703619D01*
X137374428Y-100703619D02*
X137374428Y-101703619D01*
X135517285Y-100703619D02*
X135993476Y-100703619D01*
X135993476Y-101703619D01*
X135183952Y-100703619D02*
X135183952Y-101703619D01*
X134707761Y-100703619D02*
X134707761Y-101703619D01*
X134374428Y-100989333D01*
X134041095Y-101703619D01*
X134041095Y-100703619D01*
X133564904Y-100703619D02*
X133564904Y-101703619D01*
X133231571Y-101703619D02*
X132660142Y-101703619D01*
X132945857Y-100703619D02*
X132945857Y-101703619D01*
X132326809Y-101227428D02*
X131993476Y-101227428D01*
X131850619Y-100703619D02*
X132326809Y-100703619D01*
X132326809Y-101703619D01*
X131850619Y-101703619D01*
X130850619Y-100703619D02*
X131183952Y-101179809D01*
X131422047Y-100703619D02*
X131422047Y-101703619D01*
X131041095Y-101703619D01*
X130945857Y-101656000D01*
X130898238Y-101608380D01*
X130850619Y-101513142D01*
X130850619Y-101370285D01*
X130898238Y-101275047D01*
X130945857Y-101227428D01*
X131041095Y-101179809D01*
X131422047Y-101179809D01*
X129707761Y-100751238D02*
X129564904Y-100703619D01*
X129326809Y-100703619D01*
X129231571Y-100751238D01*
X129183952Y-100798857D01*
X129136333Y-100894095D01*
X129136333Y-100989333D01*
X129183952Y-101084571D01*
X129231571Y-101132190D01*
X129326809Y-101179809D01*
X129517285Y-101227428D01*
X129612523Y-101275047D01*
X129660142Y-101322666D01*
X129707761Y-101417904D01*
X129707761Y-101513142D01*
X129660142Y-101608380D01*
X129612523Y-101656000D01*
X129517285Y-101703619D01*
X129279190Y-101703619D01*
X129136333Y-101656000D01*
X128231571Y-100703619D02*
X128707761Y-100703619D01*
X128707761Y-101703619D01*
X127898238Y-100703619D02*
X127898238Y-101703619D01*
X127422047Y-100703619D02*
X127422047Y-101703619D01*
X127088714Y-100989333D01*
X126755380Y-101703619D01*
X126755380Y-100703619D01*
X164854238Y-118578380D02*
X165044714Y-118578380D01*
X165139952Y-118626000D01*
X165235190Y-118721238D01*
X165282809Y-118911714D01*
X165282809Y-119245047D01*
X165235190Y-119435523D01*
X165139952Y-119530761D01*
X165044714Y-119578380D01*
X164854238Y-119578380D01*
X164759000Y-119530761D01*
X164663761Y-119435523D01*
X164616142Y-119245047D01*
X164616142Y-118911714D01*
X164663761Y-118721238D01*
X164759000Y-118626000D01*
X164854238Y-118578380D01*
X165711380Y-118578380D02*
X165711380Y-119387904D01*
X165759000Y-119483142D01*
X165806619Y-119530761D01*
X165901857Y-119578380D01*
X166092333Y-119578380D01*
X166187571Y-119530761D01*
X166235190Y-119483142D01*
X166282809Y-119387904D01*
X166282809Y-118578380D01*
X166616142Y-118578380D02*
X167187571Y-118578380D01*
X166901857Y-119578380D02*
X166901857Y-118578380D01*
X167520904Y-119578380D02*
X167520904Y-118578380D01*
X167901857Y-118578380D01*
X167997095Y-118626000D01*
X168044714Y-118673619D01*
X168092333Y-118768857D01*
X168092333Y-118911714D01*
X168044714Y-119006952D01*
X167997095Y-119054571D01*
X167901857Y-119102190D01*
X167520904Y-119102190D01*
X168520904Y-118578380D02*
X168520904Y-119387904D01*
X168568523Y-119483142D01*
X168616142Y-119530761D01*
X168711380Y-119578380D01*
X168901857Y-119578380D01*
X168997095Y-119530761D01*
X169044714Y-119483142D01*
X169092333Y-119387904D01*
X169092333Y-118578380D01*
X169425666Y-118578380D02*
X169997095Y-118578380D01*
X169711380Y-119578380D02*
X169711380Y-118578380D01*
X102084428Y-119578380D02*
X102084428Y-118578380D01*
X102560619Y-119578380D02*
X102560619Y-118578380D01*
X103132047Y-119578380D01*
X103132047Y-118578380D01*
X103608238Y-119578380D02*
X103608238Y-118578380D01*
X103989190Y-118578380D01*
X104084428Y-118626000D01*
X104132047Y-118673619D01*
X104179666Y-118768857D01*
X104179666Y-118911714D01*
X104132047Y-119006952D01*
X104084428Y-119054571D01*
X103989190Y-119102190D01*
X103608238Y-119102190D01*
X104608238Y-118578380D02*
X104608238Y-119387904D01*
X104655857Y-119483142D01*
X104703476Y-119530761D01*
X104798714Y-119578380D01*
X104989190Y-119578380D01*
X105084428Y-119530761D01*
X105132047Y-119483142D01*
X105179666Y-119387904D01*
X105179666Y-118578380D01*
X105513000Y-118578380D02*
X106084428Y-118578380D01*
X105798714Y-119578380D02*
X105798714Y-118578380D01*
X171569000Y-104743904D02*
X171616619Y-104648666D01*
X171616619Y-104505809D01*
X171569000Y-104362952D01*
X171473761Y-104267714D01*
X171378523Y-104220095D01*
X171188047Y-104172476D01*
X171045190Y-104172476D01*
X170854714Y-104220095D01*
X170759476Y-104267714D01*
X170664238Y-104362952D01*
X170616619Y-104505809D01*
X170616619Y-104601047D01*
X170664238Y-104743904D01*
X170711857Y-104791523D01*
X171045190Y-104791523D01*
X171045190Y-104601047D01*
X170616619Y-110267714D02*
X170616619Y-109791523D01*
X171616619Y-109791523D01*
X170616619Y-115172476D02*
X171616619Y-115172476D01*
X170616619Y-115743904D01*
X171616619Y-115743904D01*
X101465000Y-104870904D02*
X101512619Y-104775666D01*
X101512619Y-104632809D01*
X101465000Y-104489952D01*
X101369761Y-104394714D01*
X101274523Y-104347095D01*
X101084047Y-104299476D01*
X100941190Y-104299476D01*
X100750714Y-104347095D01*
X100655476Y-104394714D01*
X100560238Y-104489952D01*
X100512619Y-104632809D01*
X100512619Y-104728047D01*
X100560238Y-104870904D01*
X100607857Y-104918523D01*
X100941190Y-104918523D01*
X100941190Y-104728047D01*
X100512619Y-110394714D02*
X100512619Y-109918523D01*
X101512619Y-109918523D01*
X100512619Y-115299476D02*
X101512619Y-115299476D01*
X100512619Y-115870904D01*
X101512619Y-115870904D01*
D11*
G36*
X116665186Y-105782069D02*
G01*
X116581365Y-105337445D01*
X116272080Y-105209947D01*
X115962794Y-105082449D01*
X115591754Y-105334754D01*
X115487843Y-105405004D01*
X115393913Y-105467728D01*
X115314348Y-105520062D01*
X115253530Y-105559143D01*
X115215843Y-105582107D01*
X115205579Y-105587058D01*
X115187090Y-105574324D01*
X115147580Y-105539118D01*
X115091478Y-105485938D01*
X115023213Y-105419282D01*
X114947214Y-105343646D01*
X114867908Y-105263528D01*
X114789725Y-105183426D01*
X114717093Y-105107836D01*
X114654441Y-105041255D01*
X114606197Y-104988182D01*
X114576790Y-104953113D01*
X114569759Y-104941377D01*
X114579877Y-104919740D01*
X114608241Y-104872338D01*
X114651871Y-104803807D01*
X114707782Y-104718785D01*
X114772994Y-104621907D01*
X114810781Y-104566650D01*
X114879657Y-104465752D01*
X114940860Y-104374701D01*
X114991422Y-104298030D01*
X115028372Y-104240272D01*
X115048742Y-104205957D01*
X115051803Y-104198746D01*
X115044864Y-104178252D01*
X115025949Y-104130487D01*
X114997913Y-104062168D01*
X114963609Y-103980011D01*
X114925891Y-103890730D01*
X114887613Y-103801042D01*
X114851630Y-103717662D01*
X114820794Y-103647306D01*
X114797961Y-103596690D01*
X114785983Y-103572529D01*
X114785276Y-103571578D01*
X114766469Y-103566964D01*
X114716382Y-103556672D01*
X114640207Y-103541713D01*
X114543135Y-103523099D01*
X114430357Y-103501841D01*
X114364558Y-103489582D01*
X114244050Y-103466638D01*
X114135203Y-103444805D01*
X114043524Y-103425278D01*
X113974519Y-103409252D01*
X113933696Y-103397921D01*
X113925489Y-103394326D01*
X113917452Y-103369994D01*
X113910967Y-103315041D01*
X113906030Y-103235892D01*
X113902636Y-103138974D01*
X113900782Y-103030713D01*
X113900462Y-102917535D01*
X113901673Y-102805865D01*
X113904410Y-102702132D01*
X113908669Y-102612759D01*
X113914445Y-102544174D01*
X113921733Y-102502803D01*
X113926105Y-102494190D01*
X113952236Y-102483867D01*
X114007607Y-102469108D01*
X114084893Y-102451648D01*
X114176770Y-102433220D01*
X114208842Y-102427259D01*
X114363476Y-102398934D01*
X114485625Y-102376124D01*
X114579327Y-102357920D01*
X114648616Y-102343417D01*
X114697529Y-102331708D01*
X114730103Y-102321885D01*
X114750372Y-102313044D01*
X114762374Y-102304276D01*
X114764053Y-102302543D01*
X114780816Y-102274629D01*
X114806386Y-102220305D01*
X114838212Y-102146223D01*
X114873740Y-102059035D01*
X114910417Y-101965392D01*
X114945689Y-101871948D01*
X114977004Y-101785353D01*
X115001807Y-101712260D01*
X115017546Y-101659322D01*
X115021668Y-101633189D01*
X115021324Y-101632274D01*
X115007359Y-101610914D01*
X114975678Y-101563916D01*
X114929609Y-101496173D01*
X114872482Y-101412577D01*
X114807627Y-101318018D01*
X114789157Y-101291146D01*
X114723301Y-101193725D01*
X114665350Y-101104837D01*
X114618462Y-101029588D01*
X114585793Y-100973080D01*
X114570500Y-100940419D01*
X114569759Y-100936407D01*
X114582608Y-100915316D01*
X114618112Y-100873536D01*
X114671707Y-100815555D01*
X114738829Y-100745865D01*
X114814913Y-100668955D01*
X114895396Y-100589317D01*
X114975713Y-100511439D01*
X115051301Y-100439814D01*
X115117595Y-100378930D01*
X115170031Y-100333279D01*
X115204045Y-100307350D01*
X115213455Y-100303117D01*
X115235357Y-100313088D01*
X115280200Y-100339980D01*
X115340679Y-100379264D01*
X115387211Y-100410883D01*
X115471525Y-100468902D01*
X115571374Y-100537216D01*
X115671527Y-100605421D01*
X115725373Y-100641925D01*
X115907629Y-100765200D01*
X116060619Y-100682480D01*
X116130318Y-100646241D01*
X116189586Y-100618074D01*
X116229689Y-100602009D01*
X116239897Y-100599774D01*
X116252171Y-100616278D01*
X116276387Y-100662918D01*
X116310737Y-100735391D01*
X116353412Y-100829394D01*
X116402606Y-100940626D01*
X116456510Y-101064785D01*
X116513316Y-101197568D01*
X116571218Y-101334673D01*
X116628407Y-101471798D01*
X116683076Y-101604642D01*
X116733416Y-101728902D01*
X116777620Y-101840275D01*
X116813881Y-101934461D01*
X116840391Y-102007156D01*
X116855342Y-102054059D01*
X116857746Y-102070167D01*
X116838689Y-102090714D01*
X116796964Y-102124067D01*
X116741294Y-102163298D01*
X116736622Y-102166401D01*
X116592736Y-102281577D01*
X116476717Y-102415947D01*
X116389570Y-102565216D01*
X116332301Y-102725087D01*
X116305914Y-102891263D01*
X116311415Y-103059448D01*
X116349810Y-103225345D01*
X116422105Y-103384658D01*
X116443374Y-103419513D01*
X116554004Y-103560263D01*
X116684698Y-103673286D01*
X116830936Y-103757997D01*
X116988192Y-103813806D01*
X117151943Y-103840126D01*
X117317667Y-103836370D01*
X117480838Y-103801950D01*
X117636935Y-103736277D01*
X117781433Y-103638765D01*
X117826131Y-103599187D01*
X117939888Y-103475297D01*
X118022782Y-103344876D01*
X118079644Y-103198685D01*
X118111313Y-103053912D01*
X118119131Y-102891140D01*
X118093062Y-102727560D01*
X118035755Y-102568702D01*
X117949856Y-102420094D01*
X117838014Y-102287265D01*
X117702877Y-102175744D01*
X117685117Y-102163989D01*
X117628850Y-102125492D01*
X117586077Y-102092137D01*
X117565628Y-102070840D01*
X117565331Y-102070167D01*
X117569721Y-102047129D01*
X117587124Y-101994843D01*
X117615732Y-101917610D01*
X117653735Y-101819732D01*
X117699326Y-101705509D01*
X117750697Y-101579242D01*
X117806038Y-101445233D01*
X117863542Y-101307782D01*
X117921399Y-101171192D01*
X117977802Y-101039763D01*
X118030942Y-100917795D01*
X118079010Y-100809591D01*
X118120199Y-100719451D01*
X118152699Y-100651677D01*
X118174703Y-100610570D01*
X118183564Y-100599774D01*
X118210640Y-100608181D01*
X118261303Y-100630728D01*
X118326817Y-100663387D01*
X118362841Y-100682480D01*
X118515832Y-100765200D01*
X118698088Y-100641925D01*
X118791125Y-100578772D01*
X118892985Y-100509273D01*
X118988438Y-100443835D01*
X119036250Y-100410883D01*
X119103495Y-100365727D01*
X119160436Y-100329943D01*
X119199646Y-100308062D01*
X119212381Y-100303437D01*
X119230917Y-100315915D01*
X119271941Y-100350748D01*
X119331475Y-100404322D01*
X119405542Y-100473017D01*
X119490165Y-100553219D01*
X119543685Y-100604714D01*
X119637319Y-100696714D01*
X119718241Y-100779001D01*
X119783177Y-100848055D01*
X119828858Y-100900356D01*
X119852011Y-100932384D01*
X119854232Y-100938884D01*
X119843924Y-100963606D01*
X119815439Y-101013595D01*
X119771937Y-101083788D01*
X119716577Y-101169125D01*
X119652520Y-101264544D01*
X119634303Y-101291146D01*
X119567927Y-101387833D01*
X119508378Y-101474883D01*
X119458984Y-101547405D01*
X119423075Y-101600507D01*
X119403981Y-101629297D01*
X119402136Y-101632274D01*
X119404895Y-101655218D01*
X119419538Y-101705664D01*
X119443513Y-101776959D01*
X119474266Y-101862453D01*
X119509244Y-101955493D01*
X119545893Y-102049426D01*
X119581661Y-102137601D01*
X119613994Y-102213366D01*
X119640338Y-102270069D01*
X119658142Y-102301057D01*
X119659407Y-102302543D01*
X119670294Y-102311399D01*
X119688682Y-102320157D01*
X119718606Y-102329723D01*
X119764103Y-102341004D01*
X119829209Y-102354907D01*
X119917961Y-102372337D01*
X120034393Y-102394202D01*
X120182542Y-102421409D01*
X120214618Y-102427259D01*
X120309686Y-102445626D01*
X120392565Y-102463595D01*
X120455930Y-102479431D01*
X120492458Y-102491400D01*
X120497356Y-102494190D01*
X120505427Y-102518928D01*
X120511987Y-102574210D01*
X120517033Y-102653611D01*
X120520559Y-102750704D01*
X120522561Y-102859062D01*
X120523036Y-102972260D01*
X120521977Y-103083872D01*
X120519382Y-103187471D01*
X120515246Y-103276632D01*
X120509563Y-103344928D01*
X120502331Y-103385934D01*
X120497971Y-103394326D01*
X120473698Y-103402792D01*
X120418426Y-103416565D01*
X120337662Y-103434450D01*
X120236912Y-103455252D01*
X120121683Y-103477777D01*
X120058902Y-103489582D01*
X119939787Y-103511849D01*
X119833565Y-103532021D01*
X119745427Y-103549085D01*
X119680566Y-103562031D01*
X119644174Y-103569845D01*
X119638184Y-103571578D01*
X119628061Y-103591110D01*
X119606662Y-103638157D01*
X119576839Y-103705997D01*
X119541445Y-103787909D01*
X119503332Y-103877172D01*
X119465353Y-103967065D01*
X119430360Y-104050865D01*
X119401206Y-104121853D01*
X119380743Y-104173306D01*
X119371823Y-104198503D01*
X119371657Y-104199604D01*
X119381769Y-104219481D01*
X119410117Y-104265223D01*
X119453723Y-104332283D01*
X119509606Y-104416116D01*
X119574787Y-104512174D01*
X119612679Y-104567350D01*
X119681725Y-104668519D01*
X119743050Y-104760370D01*
X119793663Y-104838256D01*
X119830571Y-104897531D01*
X119850782Y-104933549D01*
X119853701Y-104941623D01*
X119841153Y-104960416D01*
X119806463Y-105000543D01*
X119754063Y-105057507D01*
X119688384Y-105126815D01*
X119613856Y-105203969D01*
X119534913Y-105284475D01*
X119455983Y-105363837D01*
X119381500Y-105437560D01*
X119315894Y-105501148D01*
X119263596Y-105550106D01*
X119229039Y-105579939D01*
X119217478Y-105587058D01*
X119198654Y-105577047D01*
X119153631Y-105548922D01*
X119086787Y-105505546D01*
X119002499Y-105449782D01*
X118905144Y-105384494D01*
X118831707Y-105334754D01*
X118460667Y-105082449D01*
X117842095Y-105337445D01*
X117758275Y-105782069D01*
X117674454Y-106226693D01*
X116749006Y-106226693D01*
X116665186Y-105782069D01*
G37*
X116665186Y-105782069D02*
X116581365Y-105337445D01*
X116272080Y-105209947D01*
X115962794Y-105082449D01*
X115591754Y-105334754D01*
X115487843Y-105405004D01*
X115393913Y-105467728D01*
X115314348Y-105520062D01*
X115253530Y-105559143D01*
X115215843Y-105582107D01*
X115205579Y-105587058D01*
X115187090Y-105574324D01*
X115147580Y-105539118D01*
X115091478Y-105485938D01*
X115023213Y-105419282D01*
X114947214Y-105343646D01*
X114867908Y-105263528D01*
X114789725Y-105183426D01*
X114717093Y-105107836D01*
X114654441Y-105041255D01*
X114606197Y-104988182D01*
X114576790Y-104953113D01*
X114569759Y-104941377D01*
X114579877Y-104919740D01*
X114608241Y-104872338D01*
X114651871Y-104803807D01*
X114707782Y-104718785D01*
X114772994Y-104621907D01*
X114810781Y-104566650D01*
X114879657Y-104465752D01*
X114940860Y-104374701D01*
X114991422Y-104298030D01*
X115028372Y-104240272D01*
X115048742Y-104205957D01*
X115051803Y-104198746D01*
X115044864Y-104178252D01*
X115025949Y-104130487D01*
X114997913Y-104062168D01*
X114963609Y-103980011D01*
X114925891Y-103890730D01*
X114887613Y-103801042D01*
X114851630Y-103717662D01*
X114820794Y-103647306D01*
X114797961Y-103596690D01*
X114785983Y-103572529D01*
X114785276Y-103571578D01*
X114766469Y-103566964D01*
X114716382Y-103556672D01*
X114640207Y-103541713D01*
X114543135Y-103523099D01*
X114430357Y-103501841D01*
X114364558Y-103489582D01*
X114244050Y-103466638D01*
X114135203Y-103444805D01*
X114043524Y-103425278D01*
X113974519Y-103409252D01*
X113933696Y-103397921D01*
X113925489Y-103394326D01*
X113917452Y-103369994D01*
X113910967Y-103315041D01*
X113906030Y-103235892D01*
X113902636Y-103138974D01*
X113900782Y-103030713D01*
X113900462Y-102917535D01*
X113901673Y-102805865D01*
X113904410Y-102702132D01*
X113908669Y-102612759D01*
X113914445Y-102544174D01*
X113921733Y-102502803D01*
X113926105Y-102494190D01*
X113952236Y-102483867D01*
X114007607Y-102469108D01*
X114084893Y-102451648D01*
X114176770Y-102433220D01*
X114208842Y-102427259D01*
X114363476Y-102398934D01*
X114485625Y-102376124D01*
X114579327Y-102357920D01*
X114648616Y-102343417D01*
X114697529Y-102331708D01*
X114730103Y-102321885D01*
X114750372Y-102313044D01*
X114762374Y-102304276D01*
X114764053Y-102302543D01*
X114780816Y-102274629D01*
X114806386Y-102220305D01*
X114838212Y-102146223D01*
X114873740Y-102059035D01*
X114910417Y-101965392D01*
X114945689Y-101871948D01*
X114977004Y-101785353D01*
X115001807Y-101712260D01*
X115017546Y-101659322D01*
X115021668Y-101633189D01*
X115021324Y-101632274D01*
X115007359Y-101610914D01*
X114975678Y-101563916D01*
X114929609Y-101496173D01*
X114872482Y-101412577D01*
X114807627Y-101318018D01*
X114789157Y-101291146D01*
X114723301Y-101193725D01*
X114665350Y-101104837D01*
X114618462Y-101029588D01*
X114585793Y-100973080D01*
X114570500Y-100940419D01*
X114569759Y-100936407D01*
X114582608Y-100915316D01*
X114618112Y-100873536D01*
X114671707Y-100815555D01*
X114738829Y-100745865D01*
X114814913Y-100668955D01*
X114895396Y-100589317D01*
X114975713Y-100511439D01*
X115051301Y-100439814D01*
X115117595Y-100378930D01*
X115170031Y-100333279D01*
X115204045Y-100307350D01*
X115213455Y-100303117D01*
X115235357Y-100313088D01*
X115280200Y-100339980D01*
X115340679Y-100379264D01*
X115387211Y-100410883D01*
X115471525Y-100468902D01*
X115571374Y-100537216D01*
X115671527Y-100605421D01*
X115725373Y-100641925D01*
X115907629Y-100765200D01*
X116060619Y-100682480D01*
X116130318Y-100646241D01*
X116189586Y-100618074D01*
X116229689Y-100602009D01*
X116239897Y-100599774D01*
X116252171Y-100616278D01*
X116276387Y-100662918D01*
X116310737Y-100735391D01*
X116353412Y-100829394D01*
X116402606Y-100940626D01*
X116456510Y-101064785D01*
X116513316Y-101197568D01*
X116571218Y-101334673D01*
X116628407Y-101471798D01*
X116683076Y-101604642D01*
X116733416Y-101728902D01*
X116777620Y-101840275D01*
X116813881Y-101934461D01*
X116840391Y-102007156D01*
X116855342Y-102054059D01*
X116857746Y-102070167D01*
X116838689Y-102090714D01*
X116796964Y-102124067D01*
X116741294Y-102163298D01*
X116736622Y-102166401D01*
X116592736Y-102281577D01*
X116476717Y-102415947D01*
X116389570Y-102565216D01*
X116332301Y-102725087D01*
X116305914Y-102891263D01*
X116311415Y-103059448D01*
X116349810Y-103225345D01*
X116422105Y-103384658D01*
X116443374Y-103419513D01*
X116554004Y-103560263D01*
X116684698Y-103673286D01*
X116830936Y-103757997D01*
X116988192Y-103813806D01*
X117151943Y-103840126D01*
X117317667Y-103836370D01*
X117480838Y-103801950D01*
X117636935Y-103736277D01*
X117781433Y-103638765D01*
X117826131Y-103599187D01*
X117939888Y-103475297D01*
X118022782Y-103344876D01*
X118079644Y-103198685D01*
X118111313Y-103053912D01*
X118119131Y-102891140D01*
X118093062Y-102727560D01*
X118035755Y-102568702D01*
X117949856Y-102420094D01*
X117838014Y-102287265D01*
X117702877Y-102175744D01*
X117685117Y-102163989D01*
X117628850Y-102125492D01*
X117586077Y-102092137D01*
X117565628Y-102070840D01*
X117565331Y-102070167D01*
X117569721Y-102047129D01*
X117587124Y-101994843D01*
X117615732Y-101917610D01*
X117653735Y-101819732D01*
X117699326Y-101705509D01*
X117750697Y-101579242D01*
X117806038Y-101445233D01*
X117863542Y-101307782D01*
X117921399Y-101171192D01*
X117977802Y-101039763D01*
X118030942Y-100917795D01*
X118079010Y-100809591D01*
X118120199Y-100719451D01*
X118152699Y-100651677D01*
X118174703Y-100610570D01*
X118183564Y-100599774D01*
X118210640Y-100608181D01*
X118261303Y-100630728D01*
X118326817Y-100663387D01*
X118362841Y-100682480D01*
X118515832Y-100765200D01*
X118698088Y-100641925D01*
X118791125Y-100578772D01*
X118892985Y-100509273D01*
X118988438Y-100443835D01*
X119036250Y-100410883D01*
X119103495Y-100365727D01*
X119160436Y-100329943D01*
X119199646Y-100308062D01*
X119212381Y-100303437D01*
X119230917Y-100315915D01*
X119271941Y-100350748D01*
X119331475Y-100404322D01*
X119405542Y-100473017D01*
X119490165Y-100553219D01*
X119543685Y-100604714D01*
X119637319Y-100696714D01*
X119718241Y-100779001D01*
X119783177Y-100848055D01*
X119828858Y-100900356D01*
X119852011Y-100932384D01*
X119854232Y-100938884D01*
X119843924Y-100963606D01*
X119815439Y-101013595D01*
X119771937Y-101083788D01*
X119716577Y-101169125D01*
X119652520Y-101264544D01*
X119634303Y-101291146D01*
X119567927Y-101387833D01*
X119508378Y-101474883D01*
X119458984Y-101547405D01*
X119423075Y-101600507D01*
X119403981Y-101629297D01*
X119402136Y-101632274D01*
X119404895Y-101655218D01*
X119419538Y-101705664D01*
X119443513Y-101776959D01*
X119474266Y-101862453D01*
X119509244Y-101955493D01*
X119545893Y-102049426D01*
X119581661Y-102137601D01*
X119613994Y-102213366D01*
X119640338Y-102270069D01*
X119658142Y-102301057D01*
X119659407Y-102302543D01*
X119670294Y-102311399D01*
X119688682Y-102320157D01*
X119718606Y-102329723D01*
X119764103Y-102341004D01*
X119829209Y-102354907D01*
X119917961Y-102372337D01*
X120034393Y-102394202D01*
X120182542Y-102421409D01*
X120214618Y-102427259D01*
X120309686Y-102445626D01*
X120392565Y-102463595D01*
X120455930Y-102479431D01*
X120492458Y-102491400D01*
X120497356Y-102494190D01*
X120505427Y-102518928D01*
X120511987Y-102574210D01*
X120517033Y-102653611D01*
X120520559Y-102750704D01*
X120522561Y-102859062D01*
X120523036Y-102972260D01*
X120521977Y-103083872D01*
X120519382Y-103187471D01*
X120515246Y-103276632D01*
X120509563Y-103344928D01*
X120502331Y-103385934D01*
X120497971Y-103394326D01*
X120473698Y-103402792D01*
X120418426Y-103416565D01*
X120337662Y-103434450D01*
X120236912Y-103455252D01*
X120121683Y-103477777D01*
X120058902Y-103489582D01*
X119939787Y-103511849D01*
X119833565Y-103532021D01*
X119745427Y-103549085D01*
X119680566Y-103562031D01*
X119644174Y-103569845D01*
X119638184Y-103571578D01*
X119628061Y-103591110D01*
X119606662Y-103638157D01*
X119576839Y-103705997D01*
X119541445Y-103787909D01*
X119503332Y-103877172D01*
X119465353Y-103967065D01*
X119430360Y-104050865D01*
X119401206Y-104121853D01*
X119380743Y-104173306D01*
X119371823Y-104198503D01*
X119371657Y-104199604D01*
X119381769Y-104219481D01*
X119410117Y-104265223D01*
X119453723Y-104332283D01*
X119509606Y-104416116D01*
X119574787Y-104512174D01*
X119612679Y-104567350D01*
X119681725Y-104668519D01*
X119743050Y-104760370D01*
X119793663Y-104838256D01*
X119830571Y-104897531D01*
X119850782Y-104933549D01*
X119853701Y-104941623D01*
X119841153Y-104960416D01*
X119806463Y-105000543D01*
X119754063Y-105057507D01*
X119688384Y-105126815D01*
X119613856Y-105203969D01*
X119534913Y-105284475D01*
X119455983Y-105363837D01*
X119381500Y-105437560D01*
X119315894Y-105501148D01*
X119263596Y-105550106D01*
X119229039Y-105579939D01*
X119217478Y-105587058D01*
X119198654Y-105577047D01*
X119153631Y-105548922D01*
X119086787Y-105505546D01*
X119002499Y-105449782D01*
X118905144Y-105384494D01*
X118831707Y-105334754D01*
X118460667Y-105082449D01*
X117842095Y-105337445D01*
X117758275Y-105782069D01*
X117674454Y-106226693D01*
X116749006Y-106226693D01*
X116665186Y-105782069D01*
D10*
X132822000Y-104176000D02*
X128922000Y-104176000D01*
X132822000Y-116176000D02*
X128922000Y-116176000D01*
X132822000Y-104176000D02*
X132822000Y-116176000D01*
X128922000Y-104176000D02*
X128922000Y-116176000D01*
X122150000Y-113121000D02*
X126050000Y-113121000D01*
X122150000Y-101121000D02*
X126050000Y-101121000D01*
X122150000Y-113121000D02*
X122150000Y-101121000D01*
X126050000Y-113121000D02*
X126050000Y-101121000D01*
X115250000Y-118836000D02*
X119150000Y-118836000D01*
X115250000Y-106836000D02*
X119150000Y-106836000D01*
X115250000Y-118836000D02*
X115250000Y-106836000D01*
X119150000Y-118836000D02*
X119150000Y-106836000D01*
X153500000Y-109931000D02*
X153500000Y-103831000D01*
X138000000Y-109931000D02*
X138000000Y-103831000D01*
X153500000Y-109931000D02*
X138000000Y-109931000D01*
X153500000Y-103831000D02*
X138000000Y-103831000D01*
X156750000Y-115977000D02*
X156750000Y-110677000D01*
X135250000Y-115977000D02*
X135250000Y-110677000D01*
X156750000Y-115977000D02*
X135250000Y-115977000D01*
X156750000Y-110677000D02*
X135250000Y-110677000D01*
D12*
X159400000Y-102080000D02*
X159400000Y-102580000D01*
X160140000Y-102080000D02*
X159400000Y-102080000D01*
X163277000Y-113853000D02*
X163231000Y-113806000D01*
X165575000Y-116150000D02*
X165539000Y-116115000D01*
X163061000Y-114046000D02*
X163026000Y-114011000D01*
X165369000Y-116355000D02*
X165323000Y-116308000D01*
X163277000Y-108773000D02*
X163231000Y-108726000D01*
X165575000Y-111070000D02*
X165539000Y-111035000D01*
X163061000Y-108966000D02*
X163026000Y-108931000D01*
X165369000Y-111275000D02*
X165323000Y-111228000D01*
X169561000Y-117680000D02*
X159640000Y-117680000D01*
X169561000Y-102320000D02*
X159640000Y-102320000D01*
X159640000Y-102320000D02*
X159640000Y-117680000D01*
X169561000Y-102320000D02*
X169561000Y-117680000D01*
X166601000Y-102320000D02*
X166601000Y-117680000D01*
X161700000Y-102320000D02*
X161700000Y-117680000D01*
X160200000Y-102320000D02*
X160200000Y-117680000D01*
X165980000Y-115080000D02*
G75*
G03X165980000Y-115080000I-1680000J0D01*
G01*
X165980000Y-110000000D02*
G75*
G03X165980000Y-110000000I-1680000J0D01*
G01*
X162619747Y-104948805D02*
G75*
G02X162765000Y-104236000I1680253J28805D01*
G01*
X163616958Y-103384574D02*
G75*
G02X164984000Y-103385000I683042J-1535426D01*
G01*
X165835426Y-104236958D02*
G75*
G02X165835000Y-105604000I-1535426J-683042D01*
G01*
X164983042Y-106455426D02*
G75*
G02X163616000Y-106455000I-683042J1535426D01*
G01*
X162765244Y-105603318D02*
G75*
G02X162620000Y-104920000I1534756J683318D01*
G01*
X112650000Y-117920000D02*
X112650000Y-117420000D01*
X111910000Y-117920000D02*
X112650000Y-117920000D01*
X108773000Y-106147000D02*
X108819000Y-106194000D01*
X106475000Y-103850000D02*
X106511000Y-103885000D01*
X108989000Y-105954000D02*
X109024000Y-105989000D01*
X106681000Y-103645000D02*
X106727000Y-103692000D01*
X108773000Y-111227000D02*
X108819000Y-111274000D01*
X106475000Y-108930000D02*
X106511000Y-108965000D01*
X108989000Y-111034000D02*
X109024000Y-111069000D01*
X106681000Y-108725000D02*
X106727000Y-108772000D01*
X102489000Y-102320000D02*
X112410000Y-102320000D01*
X102489000Y-117680000D02*
X112410000Y-117680000D01*
X112410000Y-117680000D02*
X112410000Y-102320000D01*
X102489000Y-117680000D02*
X102489000Y-102320000D01*
X105449000Y-117680000D02*
X105449000Y-102320000D01*
X110350000Y-117680000D02*
X110350000Y-102320000D01*
X111850000Y-117680000D02*
X111850000Y-102320000D01*
X109430000Y-104920000D02*
G75*
G03X109430000Y-104920000I-1680000J0D01*
G01*
X109430000Y-110000000D02*
G75*
G03X109430000Y-110000000I-1680000J0D01*
G01*
X109430253Y-115051195D02*
G75*
G02X109285000Y-115764000I-1680253J-28805D01*
G01*
X108433042Y-116615426D02*
G75*
G02X107066000Y-116615000I-683042J1535426D01*
G01*
X106214574Y-115763042D02*
G75*
G02X106215000Y-114396000I1535426J683042D01*
G01*
X107066958Y-113544574D02*
G75*
G02X108434000Y-113545000I683042J-1535426D01*
G01*
X109284756Y-114396682D02*
G75*
G02X109430000Y-115080000I-1534756J-683318D01*
G01*
D10*
X131643380Y-118705238D02*
X131167190Y-119038571D01*
X131643380Y-119276666D02*
X130643380Y-119276666D01*
X130643380Y-118895714D01*
X130691000Y-118800476D01*
X130738619Y-118752857D01*
X130833857Y-118705238D01*
X130976714Y-118705238D01*
X131071952Y-118752857D01*
X131119571Y-118800476D01*
X131167190Y-118895714D01*
X131167190Y-119276666D01*
X130643380Y-118419523D02*
X131643380Y-118086190D01*
X130643380Y-117752857D01*
X130738619Y-117467142D02*
X130691000Y-117419523D01*
X130643380Y-117324285D01*
X130643380Y-117086190D01*
X130691000Y-116990952D01*
X130738619Y-116943333D01*
X130833857Y-116895714D01*
X130929095Y-116895714D01*
X131071952Y-116943333D01*
X131643380Y-117514761D01*
X131643380Y-116895714D01*
X124404380Y-115530238D02*
X123928190Y-115863571D01*
X124404380Y-116101666D02*
X123404380Y-116101666D01*
X123404380Y-115720714D01*
X123452000Y-115625476D01*
X123499619Y-115577857D01*
X123594857Y-115530238D01*
X123737714Y-115530238D01*
X123832952Y-115577857D01*
X123880571Y-115625476D01*
X123928190Y-115720714D01*
X123928190Y-116101666D01*
X123404380Y-115244523D02*
X124404380Y-114911190D01*
X123404380Y-114577857D01*
X124404380Y-113720714D02*
X124404380Y-114292142D01*
X124404380Y-114006428D02*
X123404380Y-114006428D01*
X123547238Y-114101666D01*
X123642476Y-114196904D01*
X123690095Y-114292142D01*
X121102380Y-118959238D02*
X120626190Y-119292571D01*
X121102380Y-119530666D02*
X120102380Y-119530666D01*
X120102380Y-119149714D01*
X120150000Y-119054476D01*
X120197619Y-119006857D01*
X120292857Y-118959238D01*
X120435714Y-118959238D01*
X120530952Y-119006857D01*
X120578571Y-119054476D01*
X120626190Y-119149714D01*
X120626190Y-119530666D01*
X120102380Y-118673523D02*
X121102380Y-118340190D01*
X120102380Y-118006857D01*
X120102380Y-117768761D02*
X120102380Y-117149714D01*
X120483333Y-117483047D01*
X120483333Y-117340190D01*
X120530952Y-117244952D01*
X120578571Y-117197333D01*
X120673809Y-117149714D01*
X120911904Y-117149714D01*
X121007142Y-117197333D01*
X121054761Y-117244952D01*
X121102380Y-117340190D01*
X121102380Y-117625904D01*
X121054761Y-117721142D01*
X121007142Y-117768761D01*
X154797285Y-103846380D02*
X155368714Y-103846380D01*
X155083000Y-104846380D02*
X155083000Y-103846380D01*
X155702047Y-104846380D02*
X155702047Y-103846380D01*
X155702047Y-104322571D02*
X156273476Y-104322571D01*
X156273476Y-104846380D02*
X156273476Y-103846380D01*
X156702047Y-103941619D02*
X156749666Y-103894000D01*
X156844904Y-103846380D01*
X157083000Y-103846380D01*
X157178238Y-103894000D01*
X157225857Y-103941619D01*
X157273476Y-104036857D01*
X157273476Y-104132095D01*
X157225857Y-104274952D01*
X156654428Y-104846380D01*
X157273476Y-104846380D01*
X155305285Y-117562380D02*
X155876714Y-117562380D01*
X155591000Y-118562380D02*
X155591000Y-117562380D01*
X156210047Y-118562380D02*
X156210047Y-117562380D01*
X156210047Y-118038571D02*
X156781476Y-118038571D01*
X156781476Y-118562380D02*
X156781476Y-117562380D01*
X157781476Y-118562380D02*
X157210047Y-118562380D01*
X157495761Y-118562380D02*
X157495761Y-117562380D01*
X157400523Y-117705238D01*
X157305285Y-117800476D01*
X157210047Y-117848095D01*
X164298380Y-101298333D02*
X165012666Y-101298333D01*
X165155523Y-101345952D01*
X165250761Y-101441190D01*
X165298380Y-101584047D01*
X165298380Y-101679285D01*
X164393619Y-100869761D02*
X164346000Y-100822142D01*
X164298380Y-100726904D01*
X164298380Y-100488809D01*
X164346000Y-100393571D01*
X164393619Y-100345952D01*
X164488857Y-100298333D01*
X164584095Y-100298333D01*
X164726952Y-100345952D01*
X165298380Y-100917380D01*
X165298380Y-100298333D01*
X111720380Y-119332333D02*
X112434666Y-119332333D01*
X112577523Y-119379952D01*
X112672761Y-119475190D01*
X112720380Y-119618047D01*
X112720380Y-119713285D01*
X112720380Y-118332333D02*
X112720380Y-118903761D01*
X112720380Y-118618047D02*
X111720380Y-118618047D01*
X111863238Y-118713285D01*
X111958476Y-118808523D01*
X112006095Y-118903761D01*
M02*
