G04 #@! TF.GenerationSoftware,KiCad,Pcbnew,5.1.5+dfsg1-2build2*
G04 #@! TF.CreationDate,2021-09-07T20:14:11-05:00*
G04 #@! TF.ProjectId,INRUSH_CURRENT_LIMITER_SLIM,494e5255-5348-45f4-9355-5252454e545f,rev?*
G04 #@! TF.SameCoordinates,Original*
G04 #@! TF.FileFunction,Soldermask,Top*
G04 #@! TF.FilePolarity,Negative*
%FSLAX46Y46*%
G04 Gerber Fmt 4.6, Leading zero omitted, Abs format (unit mm)*
G04 Created by KiCad (PCBNEW 5.1.5+dfsg1-2build2) date 2021-09-07 20:14:11*
%MOMM*%
%LPD*%
G04 APERTURE LIST*
%ADD10C,0.100000*%
G04 APERTURE END LIST*
D10*
G36*
X116777395Y-115671546D02*
G01*
X116950466Y-115743234D01*
X116950467Y-115743235D01*
X117106227Y-115847310D01*
X117238690Y-115979773D01*
X117238691Y-115979775D01*
X117342766Y-116135534D01*
X117414454Y-116308605D01*
X117451000Y-116492333D01*
X117451000Y-116679667D01*
X117414454Y-116863395D01*
X117342766Y-117036466D01*
X117342765Y-117036467D01*
X117238690Y-117192227D01*
X117106227Y-117324690D01*
X117027818Y-117377081D01*
X116950466Y-117428766D01*
X116777395Y-117500454D01*
X116593667Y-117537000D01*
X116406333Y-117537000D01*
X116222605Y-117500454D01*
X116049534Y-117428766D01*
X115972182Y-117377081D01*
X115893773Y-117324690D01*
X115761310Y-117192227D01*
X115657235Y-117036467D01*
X115657234Y-117036466D01*
X115585546Y-116863395D01*
X115549000Y-116679667D01*
X115549000Y-116492333D01*
X115585546Y-116308605D01*
X115657234Y-116135534D01*
X115761309Y-115979775D01*
X115761310Y-115979773D01*
X115893773Y-115847310D01*
X116049533Y-115743235D01*
X116049534Y-115743234D01*
X116222605Y-115671546D01*
X116406333Y-115635000D01*
X116593667Y-115635000D01*
X116777395Y-115671546D01*
G37*
G36*
X164694072Y-113780918D02*
G01*
X164818200Y-113832333D01*
X164939939Y-113882759D01*
X165009390Y-113929165D01*
X165161211Y-114030609D01*
X165349391Y-114218789D01*
X165422813Y-114328672D01*
X165454749Y-114376467D01*
X165497242Y-114440063D01*
X165599082Y-114685928D01*
X165651000Y-114946937D01*
X165651000Y-115213063D01*
X165622094Y-115358384D01*
X165599082Y-115474072D01*
X165497241Y-115719939D01*
X165481675Y-115743235D01*
X165349391Y-115941211D01*
X165161211Y-116129391D01*
X165152017Y-116135534D01*
X164939939Y-116277241D01*
X164939938Y-116277242D01*
X164939937Y-116277242D01*
X164694072Y-116379082D01*
X164433063Y-116431000D01*
X164166937Y-116431000D01*
X163905928Y-116379082D01*
X163660063Y-116277242D01*
X163660062Y-116277242D01*
X163660061Y-116277241D01*
X163447983Y-116135534D01*
X163438789Y-116129391D01*
X163250609Y-115941211D01*
X163118325Y-115743235D01*
X163102759Y-115719939D01*
X163000918Y-115474072D01*
X162977906Y-115358384D01*
X162949000Y-115213063D01*
X162949000Y-114946937D01*
X163000918Y-114685928D01*
X163102758Y-114440063D01*
X163145252Y-114376467D01*
X163177187Y-114328672D01*
X163250609Y-114218789D01*
X163438789Y-114030609D01*
X163590610Y-113929165D01*
X163660061Y-113882759D01*
X163781801Y-113832333D01*
X163905928Y-113780918D01*
X164166937Y-113729000D01*
X164433063Y-113729000D01*
X164694072Y-113780918D01*
G37*
G36*
X109101000Y-116431000D02*
G01*
X106399000Y-116431000D01*
X106399000Y-113729000D01*
X109101000Y-113729000D01*
X109101000Y-116431000D01*
G37*
G36*
X151306564Y-113416389D02*
G01*
X151497833Y-113495615D01*
X151497835Y-113495616D01*
X151669973Y-113610635D01*
X151816365Y-113757027D01*
X151931385Y-113929167D01*
X152010611Y-114120436D01*
X152051000Y-114323484D01*
X152051000Y-114530516D01*
X152010611Y-114733564D01*
X151951198Y-114877000D01*
X151931384Y-114924835D01*
X151816365Y-115096973D01*
X151669973Y-115243365D01*
X151497835Y-115358384D01*
X151497834Y-115358385D01*
X151497833Y-115358385D01*
X151306564Y-115437611D01*
X151103516Y-115478000D01*
X150896484Y-115478000D01*
X150693436Y-115437611D01*
X150502167Y-115358385D01*
X150502166Y-115358385D01*
X150502165Y-115358384D01*
X150330027Y-115243365D01*
X150183635Y-115096973D01*
X150068616Y-114924835D01*
X150048802Y-114877000D01*
X149989389Y-114733564D01*
X149949000Y-114530516D01*
X149949000Y-114323484D01*
X149989389Y-114120436D01*
X150068615Y-113929167D01*
X150183635Y-113757027D01*
X150330027Y-113610635D01*
X150502165Y-113495616D01*
X150502167Y-113495615D01*
X150693436Y-113416389D01*
X150896484Y-113376000D01*
X151103516Y-113376000D01*
X151306564Y-113416389D01*
G37*
G36*
X130449395Y-113011546D02*
G01*
X130622466Y-113083234D01*
X130622467Y-113083235D01*
X130778227Y-113187310D01*
X130910690Y-113319773D01*
X130910691Y-113319775D01*
X131014766Y-113475534D01*
X131086454Y-113648605D01*
X131123000Y-113832333D01*
X131123000Y-114019667D01*
X131086454Y-114203395D01*
X131014766Y-114376466D01*
X131014765Y-114376467D01*
X130910690Y-114532227D01*
X130778227Y-114664690D01*
X130746442Y-114685928D01*
X130622466Y-114768766D01*
X130449395Y-114840454D01*
X130265667Y-114877000D01*
X130078333Y-114877000D01*
X129894605Y-114840454D01*
X129721534Y-114768766D01*
X129597558Y-114685928D01*
X129565773Y-114664690D01*
X129433310Y-114532227D01*
X129329235Y-114376467D01*
X129329234Y-114376466D01*
X129257546Y-114203395D01*
X129221000Y-114019667D01*
X129221000Y-113832333D01*
X129257546Y-113648605D01*
X129329234Y-113475534D01*
X129433309Y-113319775D01*
X129433310Y-113319773D01*
X129565773Y-113187310D01*
X129721533Y-113083235D01*
X129721534Y-113083234D01*
X129894605Y-113011546D01*
X130078333Y-112975000D01*
X130265667Y-112975000D01*
X130449395Y-113011546D01*
G37*
G36*
X141306564Y-111216389D02*
G01*
X141497833Y-111295615D01*
X141497835Y-111295616D01*
X141669973Y-111410635D01*
X141816365Y-111557027D01*
X141921095Y-111713766D01*
X141931385Y-111729167D01*
X142010611Y-111920436D01*
X142051000Y-112123484D01*
X142051000Y-112330516D01*
X142010611Y-112533564D01*
X141931385Y-112724833D01*
X141931384Y-112724835D01*
X141816365Y-112896973D01*
X141669973Y-113043365D01*
X141497835Y-113158384D01*
X141497834Y-113158385D01*
X141497833Y-113158385D01*
X141306564Y-113237611D01*
X141103516Y-113278000D01*
X140896484Y-113278000D01*
X140693436Y-113237611D01*
X140502167Y-113158385D01*
X140502166Y-113158385D01*
X140502165Y-113158384D01*
X140330027Y-113043365D01*
X140183635Y-112896973D01*
X140068616Y-112724835D01*
X140068615Y-112724833D01*
X139989389Y-112533564D01*
X139949000Y-112330516D01*
X139949000Y-112123484D01*
X139989389Y-111920436D01*
X140068615Y-111729167D01*
X140078906Y-111713766D01*
X140183635Y-111557027D01*
X140330027Y-111410635D01*
X140502165Y-111295616D01*
X140502167Y-111295615D01*
X140693436Y-111216389D01*
X140896484Y-111176000D01*
X141103516Y-111176000D01*
X141306564Y-111216389D01*
G37*
G36*
X123677395Y-109956546D02*
G01*
X123850466Y-110028234D01*
X123850467Y-110028235D01*
X124006227Y-110132310D01*
X124138690Y-110264773D01*
X124138691Y-110264775D01*
X124242766Y-110420534D01*
X124314454Y-110593605D01*
X124351000Y-110777333D01*
X124351000Y-110964667D01*
X124314454Y-111148395D01*
X124242766Y-111321466D01*
X124242765Y-111321467D01*
X124138690Y-111477227D01*
X124006227Y-111609690D01*
X123927818Y-111662081D01*
X123850466Y-111713766D01*
X123677395Y-111785454D01*
X123493667Y-111822000D01*
X123306333Y-111822000D01*
X123122605Y-111785454D01*
X122949534Y-111713766D01*
X122872182Y-111662081D01*
X122793773Y-111609690D01*
X122661310Y-111477227D01*
X122557235Y-111321467D01*
X122557234Y-111321466D01*
X122485546Y-111148395D01*
X122449000Y-110964667D01*
X122449000Y-110777333D01*
X122485546Y-110593605D01*
X122557234Y-110420534D01*
X122661309Y-110264775D01*
X122661310Y-110264773D01*
X122793773Y-110132310D01*
X122949533Y-110028235D01*
X122949534Y-110028234D01*
X123122605Y-109956546D01*
X123306333Y-109920000D01*
X123493667Y-109920000D01*
X123677395Y-109956546D01*
G37*
G36*
X164694072Y-108700918D02*
G01*
X164888536Y-108781467D01*
X164939939Y-108802759D01*
X164948688Y-108808605D01*
X165161211Y-108950609D01*
X165349391Y-109138789D01*
X165497242Y-109360063D01*
X165599082Y-109605928D01*
X165642597Y-109824690D01*
X165651000Y-109866938D01*
X165651000Y-110133062D01*
X165599082Y-110394072D01*
X165497241Y-110639939D01*
X165349390Y-110861212D01*
X165161212Y-111049390D01*
X164939939Y-111197241D01*
X164939938Y-111197242D01*
X164939937Y-111197242D01*
X164694072Y-111299082D01*
X164433063Y-111351000D01*
X164166937Y-111351000D01*
X163905928Y-111299082D01*
X163660063Y-111197242D01*
X163660062Y-111197242D01*
X163660061Y-111197241D01*
X163438788Y-111049390D01*
X163250610Y-110861212D01*
X163102759Y-110639939D01*
X163000918Y-110394072D01*
X162949000Y-110133062D01*
X162949000Y-109866938D01*
X162957404Y-109824690D01*
X163000918Y-109605928D01*
X163102758Y-109360063D01*
X163250609Y-109138789D01*
X163438789Y-108950609D01*
X163651312Y-108808605D01*
X163660061Y-108802759D01*
X163711465Y-108781467D01*
X163905928Y-108700918D01*
X164166937Y-108649000D01*
X164433063Y-108649000D01*
X164694072Y-108700918D01*
G37*
G36*
X108144072Y-108700918D02*
G01*
X108338536Y-108781467D01*
X108389939Y-108802759D01*
X108398688Y-108808605D01*
X108611211Y-108950609D01*
X108799391Y-109138789D01*
X108947242Y-109360063D01*
X109049082Y-109605928D01*
X109092597Y-109824690D01*
X109101000Y-109866938D01*
X109101000Y-110133062D01*
X109049082Y-110394072D01*
X108947241Y-110639939D01*
X108799390Y-110861212D01*
X108611212Y-111049390D01*
X108389939Y-111197241D01*
X108389938Y-111197242D01*
X108389937Y-111197242D01*
X108144072Y-111299082D01*
X107883063Y-111351000D01*
X107616937Y-111351000D01*
X107355928Y-111299082D01*
X107110063Y-111197242D01*
X107110062Y-111197242D01*
X107110061Y-111197241D01*
X106888788Y-111049390D01*
X106700610Y-110861212D01*
X106552759Y-110639939D01*
X106450918Y-110394072D01*
X106399000Y-110133062D01*
X106399000Y-109866938D01*
X106407404Y-109824690D01*
X106450918Y-109605928D01*
X106552758Y-109360063D01*
X106700609Y-109138789D01*
X106888789Y-108950609D01*
X107101312Y-108808605D01*
X107110061Y-108802759D01*
X107161465Y-108781467D01*
X107355928Y-108700918D01*
X107616937Y-108649000D01*
X107883063Y-108649000D01*
X108144072Y-108700918D01*
G37*
G36*
X118177395Y-108171546D02*
G01*
X118350466Y-108243234D01*
X118350467Y-108243235D01*
X118506227Y-108347310D01*
X118638690Y-108479773D01*
X118638691Y-108479775D01*
X118742766Y-108635534D01*
X118814454Y-108808605D01*
X118851000Y-108992333D01*
X118851000Y-109179667D01*
X118814454Y-109363395D01*
X118742766Y-109536466D01*
X118742765Y-109536467D01*
X118638690Y-109692227D01*
X118506227Y-109824690D01*
X118442998Y-109866938D01*
X118350466Y-109928766D01*
X118177395Y-110000454D01*
X117993667Y-110037000D01*
X117806333Y-110037000D01*
X117622605Y-110000454D01*
X117449534Y-109928766D01*
X117357002Y-109866938D01*
X117293773Y-109824690D01*
X117161310Y-109692227D01*
X117057235Y-109536467D01*
X117057234Y-109536466D01*
X116985546Y-109363395D01*
X116949000Y-109179667D01*
X116949000Y-108992333D01*
X116985546Y-108808605D01*
X117057234Y-108635534D01*
X117161309Y-108479775D01*
X117161310Y-108479773D01*
X117293773Y-108347310D01*
X117449533Y-108243235D01*
X117449534Y-108243234D01*
X117622605Y-108171546D01*
X117806333Y-108135000D01*
X117993667Y-108135000D01*
X118177395Y-108171546D01*
G37*
G36*
X149777395Y-107416546D02*
G01*
X149950466Y-107488234D01*
X149950467Y-107488235D01*
X150106227Y-107592310D01*
X150238690Y-107724773D01*
X150238691Y-107724775D01*
X150342766Y-107880534D01*
X150414454Y-108053605D01*
X150451000Y-108237333D01*
X150451000Y-108424667D01*
X150414454Y-108608395D01*
X150342766Y-108781466D01*
X150342765Y-108781467D01*
X150238690Y-108937227D01*
X150106227Y-109069690D01*
X150027818Y-109122081D01*
X149950466Y-109173766D01*
X149777395Y-109245454D01*
X149593667Y-109282000D01*
X149406333Y-109282000D01*
X149222605Y-109245454D01*
X149049534Y-109173766D01*
X148972182Y-109122081D01*
X148893773Y-109069690D01*
X148761310Y-108937227D01*
X148657235Y-108781467D01*
X148657234Y-108781466D01*
X148585546Y-108608395D01*
X148549000Y-108424667D01*
X148549000Y-108237333D01*
X148585546Y-108053605D01*
X148657234Y-107880534D01*
X148761309Y-107724775D01*
X148761310Y-107724773D01*
X148893773Y-107592310D01*
X149049533Y-107488235D01*
X149049534Y-107488234D01*
X149222605Y-107416546D01*
X149406333Y-107380000D01*
X149593667Y-107380000D01*
X149777395Y-107416546D01*
G37*
G36*
X131849395Y-105511546D02*
G01*
X132022466Y-105583234D01*
X132022467Y-105583235D01*
X132178227Y-105687310D01*
X132310690Y-105819773D01*
X132310691Y-105819775D01*
X132414766Y-105975534D01*
X132486454Y-106148605D01*
X132523000Y-106332333D01*
X132523000Y-106519667D01*
X132486454Y-106703395D01*
X132414766Y-106876466D01*
X132414765Y-106876467D01*
X132310690Y-107032227D01*
X132178227Y-107164690D01*
X132099818Y-107217081D01*
X132022466Y-107268766D01*
X131849395Y-107340454D01*
X131665667Y-107377000D01*
X131478333Y-107377000D01*
X131294605Y-107340454D01*
X131121534Y-107268766D01*
X131044182Y-107217081D01*
X130965773Y-107164690D01*
X130833310Y-107032227D01*
X130729235Y-106876467D01*
X130729234Y-106876466D01*
X130657546Y-106703395D01*
X130621000Y-106519667D01*
X130621000Y-106332333D01*
X130657546Y-106148605D01*
X130729234Y-105975534D01*
X130833309Y-105819775D01*
X130833310Y-105819773D01*
X130965773Y-105687310D01*
X131121533Y-105583235D01*
X131121534Y-105583234D01*
X131294605Y-105511546D01*
X131478333Y-105475000D01*
X131665667Y-105475000D01*
X131849395Y-105511546D01*
G37*
G36*
X142277395Y-104516546D02*
G01*
X142450466Y-104588234D01*
X142450467Y-104588235D01*
X142606227Y-104692310D01*
X142738690Y-104824773D01*
X142738691Y-104824775D01*
X142842766Y-104980534D01*
X142914454Y-105153605D01*
X142951000Y-105337333D01*
X142951000Y-105524667D01*
X142914454Y-105708395D01*
X142842766Y-105881466D01*
X142842765Y-105881467D01*
X142738690Y-106037227D01*
X142606227Y-106169690D01*
X142532306Y-106219082D01*
X142450466Y-106273766D01*
X142277395Y-106345454D01*
X142093667Y-106382000D01*
X141906333Y-106382000D01*
X141722605Y-106345454D01*
X141549534Y-106273766D01*
X141467694Y-106219082D01*
X141393773Y-106169690D01*
X141261310Y-106037227D01*
X141157235Y-105881467D01*
X141157234Y-105881466D01*
X141085546Y-105708395D01*
X141049000Y-105524667D01*
X141049000Y-105337333D01*
X141085546Y-105153605D01*
X141157234Y-104980534D01*
X141261309Y-104824775D01*
X141261310Y-104824773D01*
X141393773Y-104692310D01*
X141549533Y-104588235D01*
X141549534Y-104588234D01*
X141722605Y-104516546D01*
X141906333Y-104480000D01*
X142093667Y-104480000D01*
X142277395Y-104516546D01*
G37*
G36*
X108144072Y-103620918D02*
G01*
X108389939Y-103722759D01*
X108501328Y-103797187D01*
X108611211Y-103870609D01*
X108799391Y-104058789D01*
X108947242Y-104280063D01*
X108949475Y-104285454D01*
X109049082Y-104525928D01*
X109101000Y-104786938D01*
X109101000Y-105053062D01*
X109049082Y-105314072D01*
X108947241Y-105559939D01*
X108931675Y-105583235D01*
X108799391Y-105781211D01*
X108611211Y-105969391D01*
X108602017Y-105975534D01*
X108389939Y-106117241D01*
X108389938Y-106117242D01*
X108389937Y-106117242D01*
X108144072Y-106219082D01*
X107883063Y-106271000D01*
X107616937Y-106271000D01*
X107355928Y-106219082D01*
X107110063Y-106117242D01*
X107110062Y-106117242D01*
X107110061Y-106117241D01*
X106897983Y-105975534D01*
X106888789Y-105969391D01*
X106700609Y-105781211D01*
X106568325Y-105583235D01*
X106552759Y-105559939D01*
X106450918Y-105314072D01*
X106399000Y-105053062D01*
X106399000Y-104786938D01*
X106450918Y-104525928D01*
X106550525Y-104285454D01*
X106552758Y-104280063D01*
X106700609Y-104058789D01*
X106888789Y-103870609D01*
X106998672Y-103797187D01*
X107110061Y-103722759D01*
X107355928Y-103620918D01*
X107616937Y-103569000D01*
X107883063Y-103569000D01*
X108144072Y-103620918D01*
G37*
G36*
X165651000Y-106271000D02*
G01*
X162949000Y-106271000D01*
X162949000Y-103569000D01*
X165651000Y-103569000D01*
X165651000Y-106271000D01*
G37*
G36*
X125077395Y-102456546D02*
G01*
X125250466Y-102528234D01*
X125250467Y-102528235D01*
X125406227Y-102632310D01*
X125538690Y-102764773D01*
X125538691Y-102764775D01*
X125642766Y-102920534D01*
X125714454Y-103093605D01*
X125751000Y-103277333D01*
X125751000Y-103464667D01*
X125714454Y-103648395D01*
X125642766Y-103821466D01*
X125642765Y-103821467D01*
X125538690Y-103977227D01*
X125406227Y-104109690D01*
X125327818Y-104162081D01*
X125250466Y-104213766D01*
X125077395Y-104285454D01*
X124893667Y-104322000D01*
X124706333Y-104322000D01*
X124522605Y-104285454D01*
X124349534Y-104213766D01*
X124272182Y-104162081D01*
X124193773Y-104109690D01*
X124061310Y-103977227D01*
X123957235Y-103821467D01*
X123957234Y-103821466D01*
X123885546Y-103648395D01*
X123849000Y-103464667D01*
X123849000Y-103277333D01*
X123885546Y-103093605D01*
X123957234Y-102920534D01*
X124061309Y-102764775D01*
X124061310Y-102764773D01*
X124193773Y-102632310D01*
X124349533Y-102528235D01*
X124349534Y-102528234D01*
X124522605Y-102456546D01*
X124706333Y-102420000D01*
X124893667Y-102420000D01*
X125077395Y-102456546D01*
G37*
M02*
