G04 #@! TF.GenerationSoftware,KiCad,Pcbnew,5.1.5+dfsg1-2build2*
G04 #@! TF.CreationDate,2021-08-12T21:57:11-05:00*
G04 #@! TF.ProjectId,INRUSH_CURRENT_LIMITER,494e5255-5348-45f4-9355-5252454e545f,rev?*
G04 #@! TF.SameCoordinates,Original*
G04 #@! TF.FileFunction,Legend,Top*
G04 #@! TF.FilePolarity,Positive*
%FSLAX46Y46*%
G04 Gerber Fmt 4.6, Leading zero omitted, Abs format (unit mm)*
G04 Created by KiCad (PCBNEW 5.1.5+dfsg1-2build2) date 2021-08-12 21:57:11*
%MOMM*%
%LPD*%
G04 APERTURE LIST*
%ADD10C,0.150000*%
%ADD11C,0.120000*%
G04 APERTURE END LIST*
D10*
X164854238Y-118578380D02*
X165044714Y-118578380D01*
X165139952Y-118626000D01*
X165235190Y-118721238D01*
X165282809Y-118911714D01*
X165282809Y-119245047D01*
X165235190Y-119435523D01*
X165139952Y-119530761D01*
X165044714Y-119578380D01*
X164854238Y-119578380D01*
X164759000Y-119530761D01*
X164663761Y-119435523D01*
X164616142Y-119245047D01*
X164616142Y-118911714D01*
X164663761Y-118721238D01*
X164759000Y-118626000D01*
X164854238Y-118578380D01*
X165711380Y-118578380D02*
X165711380Y-119387904D01*
X165759000Y-119483142D01*
X165806619Y-119530761D01*
X165901857Y-119578380D01*
X166092333Y-119578380D01*
X166187571Y-119530761D01*
X166235190Y-119483142D01*
X166282809Y-119387904D01*
X166282809Y-118578380D01*
X166616142Y-118578380D02*
X167187571Y-118578380D01*
X166901857Y-119578380D02*
X166901857Y-118578380D01*
X167520904Y-119578380D02*
X167520904Y-118578380D01*
X167901857Y-118578380D01*
X167997095Y-118626000D01*
X168044714Y-118673619D01*
X168092333Y-118768857D01*
X168092333Y-118911714D01*
X168044714Y-119006952D01*
X167997095Y-119054571D01*
X167901857Y-119102190D01*
X167520904Y-119102190D01*
X168520904Y-118578380D02*
X168520904Y-119387904D01*
X168568523Y-119483142D01*
X168616142Y-119530761D01*
X168711380Y-119578380D01*
X168901857Y-119578380D01*
X168997095Y-119530761D01*
X169044714Y-119483142D01*
X169092333Y-119387904D01*
X169092333Y-118578380D01*
X169425666Y-118578380D02*
X169997095Y-118578380D01*
X169711380Y-119578380D02*
X169711380Y-118578380D01*
X102084428Y-119578380D02*
X102084428Y-118578380D01*
X102560619Y-119578380D02*
X102560619Y-118578380D01*
X103132047Y-119578380D01*
X103132047Y-118578380D01*
X103608238Y-119578380D02*
X103608238Y-118578380D01*
X103989190Y-118578380D01*
X104084428Y-118626000D01*
X104132047Y-118673619D01*
X104179666Y-118768857D01*
X104179666Y-118911714D01*
X104132047Y-119006952D01*
X104084428Y-119054571D01*
X103989190Y-119102190D01*
X103608238Y-119102190D01*
X104608238Y-118578380D02*
X104608238Y-119387904D01*
X104655857Y-119483142D01*
X104703476Y-119530761D01*
X104798714Y-119578380D01*
X104989190Y-119578380D01*
X105084428Y-119530761D01*
X105132047Y-119483142D01*
X105179666Y-119387904D01*
X105179666Y-118578380D01*
X105513000Y-118578380D02*
X106084428Y-118578380D01*
X105798714Y-119578380D02*
X105798714Y-118578380D01*
X171569000Y-104743904D02*
X171616619Y-104648666D01*
X171616619Y-104505809D01*
X171569000Y-104362952D01*
X171473761Y-104267714D01*
X171378523Y-104220095D01*
X171188047Y-104172476D01*
X171045190Y-104172476D01*
X170854714Y-104220095D01*
X170759476Y-104267714D01*
X170664238Y-104362952D01*
X170616619Y-104505809D01*
X170616619Y-104601047D01*
X170664238Y-104743904D01*
X170711857Y-104791523D01*
X171045190Y-104791523D01*
X171045190Y-104601047D01*
X170616619Y-110267714D02*
X170616619Y-109791523D01*
X171616619Y-109791523D01*
X170616619Y-115172476D02*
X171616619Y-115172476D01*
X170616619Y-115743904D01*
X171616619Y-115743904D01*
X101465000Y-104870904D02*
X101512619Y-104775666D01*
X101512619Y-104632809D01*
X101465000Y-104489952D01*
X101369761Y-104394714D01*
X101274523Y-104347095D01*
X101084047Y-104299476D01*
X100941190Y-104299476D01*
X100750714Y-104347095D01*
X100655476Y-104394714D01*
X100560238Y-104489952D01*
X100512619Y-104632809D01*
X100512619Y-104728047D01*
X100560238Y-104870904D01*
X100607857Y-104918523D01*
X100941190Y-104918523D01*
X100941190Y-104728047D01*
X100512619Y-110394714D02*
X100512619Y-109918523D01*
X101512619Y-109918523D01*
X100512619Y-115299476D02*
X101512619Y-115299476D01*
X100512619Y-115870904D01*
X101512619Y-115870904D01*
X132822000Y-104176000D02*
X128922000Y-104176000D01*
X132822000Y-116176000D02*
X128922000Y-116176000D01*
X132822000Y-104176000D02*
X132822000Y-116176000D01*
X128922000Y-104176000D02*
X128922000Y-116176000D01*
X122150000Y-113121000D02*
X126050000Y-113121000D01*
X122150000Y-101121000D02*
X126050000Y-101121000D01*
X122150000Y-113121000D02*
X122150000Y-101121000D01*
X126050000Y-113121000D02*
X126050000Y-101121000D01*
X115250000Y-118836000D02*
X119150000Y-118836000D01*
X115250000Y-106836000D02*
X119150000Y-106836000D01*
X115250000Y-118836000D02*
X115250000Y-106836000D01*
X119150000Y-118836000D02*
X119150000Y-106836000D01*
X153500000Y-109931000D02*
X153500000Y-103831000D01*
X138000000Y-109931000D02*
X138000000Y-103831000D01*
X153500000Y-109931000D02*
X138000000Y-109931000D01*
X153500000Y-103831000D02*
X138000000Y-103831000D01*
X156750000Y-115977000D02*
X156750000Y-110677000D01*
X135250000Y-115977000D02*
X135250000Y-110677000D01*
X156750000Y-115977000D02*
X135250000Y-115977000D01*
X156750000Y-110677000D02*
X135250000Y-110677000D01*
D11*
X159400000Y-102080000D02*
X159400000Y-102580000D01*
X160140000Y-102080000D02*
X159400000Y-102080000D01*
X163277000Y-113853000D02*
X163231000Y-113806000D01*
X165575000Y-116150000D02*
X165539000Y-116115000D01*
X163061000Y-114046000D02*
X163026000Y-114011000D01*
X165369000Y-116355000D02*
X165323000Y-116308000D01*
X163277000Y-108773000D02*
X163231000Y-108726000D01*
X165575000Y-111070000D02*
X165539000Y-111035000D01*
X163061000Y-108966000D02*
X163026000Y-108931000D01*
X165369000Y-111275000D02*
X165323000Y-111228000D01*
X169561000Y-117680000D02*
X159640000Y-117680000D01*
X169561000Y-102320000D02*
X159640000Y-102320000D01*
X159640000Y-102320000D02*
X159640000Y-117680000D01*
X169561000Y-102320000D02*
X169561000Y-117680000D01*
X166601000Y-102320000D02*
X166601000Y-117680000D01*
X161700000Y-102320000D02*
X161700000Y-117680000D01*
X160200000Y-102320000D02*
X160200000Y-117680000D01*
X165980000Y-115080000D02*
G75*
G03X165980000Y-115080000I-1680000J0D01*
G01*
X165980000Y-110000000D02*
G75*
G03X165980000Y-110000000I-1680000J0D01*
G01*
X162619747Y-104948805D02*
G75*
G02X162765000Y-104236000I1680253J28805D01*
G01*
X163616958Y-103384574D02*
G75*
G02X164984000Y-103385000I683042J-1535426D01*
G01*
X165835426Y-104236958D02*
G75*
G02X165835000Y-105604000I-1535426J-683042D01*
G01*
X164983042Y-106455426D02*
G75*
G02X163616000Y-106455000I-683042J1535426D01*
G01*
X162765244Y-105603318D02*
G75*
G02X162620000Y-104920000I1534756J683318D01*
G01*
X112650000Y-117920000D02*
X112650000Y-117420000D01*
X111910000Y-117920000D02*
X112650000Y-117920000D01*
X108773000Y-106147000D02*
X108819000Y-106194000D01*
X106475000Y-103850000D02*
X106511000Y-103885000D01*
X108989000Y-105954000D02*
X109024000Y-105989000D01*
X106681000Y-103645000D02*
X106727000Y-103692000D01*
X108773000Y-111227000D02*
X108819000Y-111274000D01*
X106475000Y-108930000D02*
X106511000Y-108965000D01*
X108989000Y-111034000D02*
X109024000Y-111069000D01*
X106681000Y-108725000D02*
X106727000Y-108772000D01*
X102489000Y-102320000D02*
X112410000Y-102320000D01*
X102489000Y-117680000D02*
X112410000Y-117680000D01*
X112410000Y-117680000D02*
X112410000Y-102320000D01*
X102489000Y-117680000D02*
X102489000Y-102320000D01*
X105449000Y-117680000D02*
X105449000Y-102320000D01*
X110350000Y-117680000D02*
X110350000Y-102320000D01*
X111850000Y-117680000D02*
X111850000Y-102320000D01*
X109430000Y-104920000D02*
G75*
G03X109430000Y-104920000I-1680000J0D01*
G01*
X109430000Y-110000000D02*
G75*
G03X109430000Y-110000000I-1680000J0D01*
G01*
X109430253Y-115051195D02*
G75*
G02X109285000Y-115764000I-1680253J-28805D01*
G01*
X108433042Y-116615426D02*
G75*
G02X107066000Y-116615000I-683042J1535426D01*
G01*
X106214574Y-115763042D02*
G75*
G02X106215000Y-114396000I1535426J683042D01*
G01*
X107066958Y-113544574D02*
G75*
G02X108434000Y-113545000I683042J-1535426D01*
G01*
X109284756Y-114396682D02*
G75*
G02X109430000Y-115080000I-1534756J-683318D01*
G01*
D10*
X131643380Y-118705238D02*
X131167190Y-119038571D01*
X131643380Y-119276666D02*
X130643380Y-119276666D01*
X130643380Y-118895714D01*
X130691000Y-118800476D01*
X130738619Y-118752857D01*
X130833857Y-118705238D01*
X130976714Y-118705238D01*
X131071952Y-118752857D01*
X131119571Y-118800476D01*
X131167190Y-118895714D01*
X131167190Y-119276666D01*
X130643380Y-118419523D02*
X131643380Y-118086190D01*
X130643380Y-117752857D01*
X130738619Y-117467142D02*
X130691000Y-117419523D01*
X130643380Y-117324285D01*
X130643380Y-117086190D01*
X130691000Y-116990952D01*
X130738619Y-116943333D01*
X130833857Y-116895714D01*
X130929095Y-116895714D01*
X131071952Y-116943333D01*
X131643380Y-117514761D01*
X131643380Y-116895714D01*
X127502380Y-107716238D02*
X127026190Y-108049571D01*
X127502380Y-108287666D02*
X126502380Y-108287666D01*
X126502380Y-107906714D01*
X126550000Y-107811476D01*
X126597619Y-107763857D01*
X126692857Y-107716238D01*
X126835714Y-107716238D01*
X126930952Y-107763857D01*
X126978571Y-107811476D01*
X127026190Y-107906714D01*
X127026190Y-108287666D01*
X126502380Y-107430523D02*
X127502380Y-107097190D01*
X126502380Y-106763857D01*
X127502380Y-105906714D02*
X127502380Y-106478142D01*
X127502380Y-106192428D02*
X126502380Y-106192428D01*
X126645238Y-106287666D01*
X126740476Y-106382904D01*
X126788095Y-106478142D01*
X120602380Y-113431238D02*
X120126190Y-113764571D01*
X120602380Y-114002666D02*
X119602380Y-114002666D01*
X119602380Y-113621714D01*
X119650000Y-113526476D01*
X119697619Y-113478857D01*
X119792857Y-113431238D01*
X119935714Y-113431238D01*
X120030952Y-113478857D01*
X120078571Y-113526476D01*
X120126190Y-113621714D01*
X120126190Y-114002666D01*
X119602380Y-113145523D02*
X120602380Y-112812190D01*
X119602380Y-112478857D01*
X119602380Y-112240761D02*
X119602380Y-111621714D01*
X119983333Y-111955047D01*
X119983333Y-111812190D01*
X120030952Y-111716952D01*
X120078571Y-111669333D01*
X120173809Y-111621714D01*
X120411904Y-111621714D01*
X120507142Y-111669333D01*
X120554761Y-111716952D01*
X120602380Y-111812190D01*
X120602380Y-112097904D01*
X120554761Y-112193142D01*
X120507142Y-112240761D01*
X144464285Y-102283380D02*
X145035714Y-102283380D01*
X144750000Y-103283380D02*
X144750000Y-102283380D01*
X145369047Y-103283380D02*
X145369047Y-102283380D01*
X145369047Y-102759571D02*
X145940476Y-102759571D01*
X145940476Y-103283380D02*
X145940476Y-102283380D01*
X146369047Y-102378619D02*
X146416666Y-102331000D01*
X146511904Y-102283380D01*
X146750000Y-102283380D01*
X146845238Y-102331000D01*
X146892857Y-102378619D01*
X146940476Y-102473857D01*
X146940476Y-102569095D01*
X146892857Y-102711952D01*
X146321428Y-103283380D01*
X146940476Y-103283380D01*
X144714285Y-109129380D02*
X145285714Y-109129380D01*
X145000000Y-110129380D02*
X145000000Y-109129380D01*
X145619047Y-110129380D02*
X145619047Y-109129380D01*
X145619047Y-109605571D02*
X146190476Y-109605571D01*
X146190476Y-110129380D02*
X146190476Y-109129380D01*
X147190476Y-110129380D02*
X146619047Y-110129380D01*
X146904761Y-110129380D02*
X146904761Y-109129380D01*
X146809523Y-109272238D01*
X146714285Y-109367476D01*
X146619047Y-109415095D01*
X164298380Y-101298333D02*
X165012666Y-101298333D01*
X165155523Y-101345952D01*
X165250761Y-101441190D01*
X165298380Y-101584047D01*
X165298380Y-101679285D01*
X164393619Y-100869761D02*
X164346000Y-100822142D01*
X164298380Y-100726904D01*
X164298380Y-100488809D01*
X164346000Y-100393571D01*
X164393619Y-100345952D01*
X164488857Y-100298333D01*
X164584095Y-100298333D01*
X164726952Y-100345952D01*
X165298380Y-100917380D01*
X165298380Y-100298333D01*
X111720380Y-119332333D02*
X112434666Y-119332333D01*
X112577523Y-119379952D01*
X112672761Y-119475190D01*
X112720380Y-119618047D01*
X112720380Y-119713285D01*
X112720380Y-118332333D02*
X112720380Y-118903761D01*
X112720380Y-118618047D02*
X111720380Y-118618047D01*
X111863238Y-118713285D01*
X111958476Y-118808523D01*
X112006095Y-118903761D01*
M02*
