%TF.GenerationSoftware,KiCad,Pcbnew,6.0.11-2627ca5db0~126~ubuntu20.04.1*%
%TF.CreationDate,2024-09-22T20:55:52-05:00*%
%TF.ProjectId,,58585858-5858-4585-9858-585858585858,rev?*%
%TF.SameCoordinates,Original*%
%TF.FileFunction,Legend,Bot*%
%TF.FilePolarity,Positive*%
%FSLAX46Y46*%
G04 Gerber Fmt 4.6, Leading zero omitted, Abs format (unit mm)*
G04 Created by KiCad (PCBNEW 6.0.11-2627ca5db0~126~ubuntu20.04.1) date 2024-09-22 20:55:52*
%MOMM*%
%LPD*%
G01*
G04 APERTURE LIST*
%TA.AperFunction,Profile*%
%ADD10C,0.100000*%
%TD*%
%ADD11C,0.200000*%
G04 APERTURE END LIST*
D10*
X93196000Y-98957000D02*
X126196000Y-98957000D01*
X77196000Y-129957000D02*
X77196000Y-128457000D01*
X77196000Y-98957000D02*
X77196000Y-100457000D01*
X44196000Y-98957000D02*
X77196000Y-98957000D01*
X93196000Y-129957000D02*
X126196000Y-129957000D01*
X126196000Y-98957000D02*
X126196000Y-129957000D01*
X44196000Y-129957000D02*
X77196000Y-129957000D01*
X44196000Y-98957000D02*
X44196000Y-129957000D01*
X77196000Y-128457000D02*
X93196000Y-128457000D01*
X93196000Y-98957000D02*
X93196000Y-100457000D01*
X93196000Y-129957000D02*
X93196000Y-128457000D01*
X77196000Y-100457000D02*
X93196000Y-100457000D01*
D11*
X57032523Y-100274904D02*
X57032523Y-99474904D01*
X56765857Y-100046333D01*
X56499190Y-99474904D01*
X56499190Y-100274904D01*
X55965857Y-99474904D02*
X55813476Y-99474904D01*
X55737285Y-99513000D01*
X55661095Y-99589190D01*
X55623000Y-99741571D01*
X55623000Y-100008238D01*
X55661095Y-100160619D01*
X55737285Y-100236809D01*
X55813476Y-100274904D01*
X55965857Y-100274904D01*
X56042047Y-100236809D01*
X56118238Y-100160619D01*
X56156333Y-100008238D01*
X56156333Y-99741571D01*
X56118238Y-99589190D01*
X56042047Y-99513000D01*
X55965857Y-99474904D01*
X55280142Y-100274904D02*
X55280142Y-99474904D01*
X55089666Y-99474904D01*
X54975380Y-99513000D01*
X54899190Y-99589190D01*
X54861095Y-99665380D01*
X54823000Y-99817761D01*
X54823000Y-99932047D01*
X54861095Y-100084428D01*
X54899190Y-100160619D01*
X54975380Y-100236809D01*
X55089666Y-100274904D01*
X55280142Y-100274904D01*
X54213476Y-99855857D02*
X54099190Y-99893952D01*
X54061095Y-99932047D01*
X54023000Y-100008238D01*
X54023000Y-100122523D01*
X54061095Y-100198714D01*
X54099190Y-100236809D01*
X54175380Y-100274904D01*
X54480142Y-100274904D01*
X54480142Y-99474904D01*
X54213476Y-99474904D01*
X54137285Y-99513000D01*
X54099190Y-99551095D01*
X54061095Y-99627285D01*
X54061095Y-99703476D01*
X54099190Y-99779666D01*
X54137285Y-99817761D01*
X54213476Y-99855857D01*
X54480142Y-99855857D01*
X53680142Y-99474904D02*
X53680142Y-100122523D01*
X53642047Y-100198714D01*
X53603952Y-100236809D01*
X53527761Y-100274904D01*
X53375380Y-100274904D01*
X53299190Y-100236809D01*
X53261095Y-100198714D01*
X53223000Y-100122523D01*
X53223000Y-99474904D01*
X52880142Y-100236809D02*
X52765857Y-100274904D01*
X52575380Y-100274904D01*
X52499190Y-100236809D01*
X52461095Y-100198714D01*
X52423000Y-100122523D01*
X52423000Y-100046333D01*
X52461095Y-99970142D01*
X52499190Y-99932047D01*
X52575380Y-99893952D01*
X52727761Y-99855857D01*
X52803952Y-99817761D01*
X52842047Y-99779666D01*
X52880142Y-99703476D01*
X52880142Y-99627285D01*
X52842047Y-99551095D01*
X52803952Y-99513000D01*
X52727761Y-99474904D01*
X52537285Y-99474904D01*
X52423000Y-99513000D01*
X51013476Y-100274904D02*
X51280142Y-99893952D01*
X51470619Y-100274904D02*
X51470619Y-99474904D01*
X51165857Y-99474904D01*
X51089666Y-99513000D01*
X51051571Y-99551095D01*
X51013476Y-99627285D01*
X51013476Y-99741571D01*
X51051571Y-99817761D01*
X51089666Y-99855857D01*
X51165857Y-99893952D01*
X51470619Y-99893952D01*
X50784904Y-99474904D02*
X50327761Y-99474904D01*
X50556333Y-100274904D02*
X50556333Y-99474904D01*
X50061095Y-99474904D02*
X50061095Y-100122523D01*
X50023000Y-100198714D01*
X49984904Y-100236809D01*
X49908714Y-100274904D01*
X49756333Y-100274904D01*
X49680142Y-100236809D01*
X49642047Y-100198714D01*
X49603952Y-100122523D01*
X49603952Y-99474904D01*
X48613476Y-100274904D02*
X48613476Y-99474904D01*
X48346809Y-100046333D01*
X48080142Y-99474904D01*
X48080142Y-100274904D01*
X47699190Y-100274904D02*
X47699190Y-99474904D01*
X46861095Y-100274904D02*
X47127761Y-99893952D01*
X47318238Y-100274904D02*
X47318238Y-99474904D01*
X47013476Y-99474904D01*
X46937285Y-99513000D01*
X46899190Y-99551095D01*
X46861095Y-99627285D01*
X46861095Y-99741571D01*
X46899190Y-99817761D01*
X46937285Y-99855857D01*
X47013476Y-99893952D01*
X47318238Y-99893952D01*
X46061095Y-100274904D02*
X46327761Y-99893952D01*
X46518238Y-100274904D02*
X46518238Y-99474904D01*
X46213476Y-99474904D01*
X46137285Y-99513000D01*
X46099190Y-99551095D01*
X46061095Y-99627285D01*
X46061095Y-99741571D01*
X46099190Y-99817761D01*
X46137285Y-99855857D01*
X46213476Y-99893952D01*
X46518238Y-99893952D01*
X45565857Y-99474904D02*
X45413476Y-99474904D01*
X45337285Y-99513000D01*
X45261095Y-99589190D01*
X45223000Y-99741571D01*
X45223000Y-100008238D01*
X45261095Y-100160619D01*
X45337285Y-100236809D01*
X45413476Y-100274904D01*
X45565857Y-100274904D01*
X45642047Y-100236809D01*
X45718238Y-100160619D01*
X45756333Y-100008238D01*
X45756333Y-99741571D01*
X45718238Y-99589190D01*
X45642047Y-99513000D01*
X45565857Y-99474904D01*
X44423000Y-100274904D02*
X44689666Y-99893952D01*
X44880142Y-100274904D02*
X44880142Y-99474904D01*
X44575380Y-99474904D01*
X44499190Y-99513000D01*
X44461095Y-99551095D01*
X44423000Y-99627285D01*
X44423000Y-99741571D01*
X44461095Y-99817761D01*
X44499190Y-99855857D01*
X44575380Y-99893952D01*
X44880142Y-99893952D01*
X56765857Y-101143857D02*
X56651571Y-101181952D01*
X56613476Y-101220047D01*
X56575380Y-101296238D01*
X56575380Y-101410523D01*
X56613476Y-101486714D01*
X56651571Y-101524809D01*
X56727761Y-101562904D01*
X57032523Y-101562904D01*
X57032523Y-100762904D01*
X56765857Y-100762904D01*
X56689666Y-100801000D01*
X56651571Y-100839095D01*
X56613476Y-100915285D01*
X56613476Y-100991476D01*
X56651571Y-101067666D01*
X56689666Y-101105761D01*
X56765857Y-101143857D01*
X57032523Y-101143857D01*
X56270619Y-101334333D02*
X55889666Y-101334333D01*
X56346809Y-101562904D02*
X56080142Y-100762904D01*
X55813476Y-101562904D01*
X55584904Y-101524809D02*
X55470619Y-101562904D01*
X55280142Y-101562904D01*
X55203952Y-101524809D01*
X55165857Y-101486714D01*
X55127761Y-101410523D01*
X55127761Y-101334333D01*
X55165857Y-101258142D01*
X55203952Y-101220047D01*
X55280142Y-101181952D01*
X55432523Y-101143857D01*
X55508714Y-101105761D01*
X55546809Y-101067666D01*
X55584904Y-100991476D01*
X55584904Y-100915285D01*
X55546809Y-100839095D01*
X55508714Y-100801000D01*
X55432523Y-100762904D01*
X55242047Y-100762904D01*
X55127761Y-100801000D01*
X54784904Y-101143857D02*
X54518238Y-101143857D01*
X54403952Y-101562904D02*
X54784904Y-101562904D01*
X54784904Y-100762904D01*
X54403952Y-100762904D01*
D10*
X93196000Y-67957000D02*
X126196000Y-67957000D01*
X77196000Y-98957000D02*
X77196000Y-97457000D01*
X77196000Y-67957000D02*
X77196000Y-69457000D01*
X44196000Y-67957000D02*
X77196000Y-67957000D01*
X93196000Y-98957000D02*
X126196000Y-98957000D01*
X126196000Y-67957000D02*
X126196000Y-98957000D01*
X44196000Y-98957000D02*
X77196000Y-98957000D01*
X44196000Y-67957000D02*
X44196000Y-98957000D01*
X77196000Y-97457000D02*
X93196000Y-97457000D01*
X93196000Y-67957000D02*
X93196000Y-69457000D01*
X93196000Y-98957000D02*
X93196000Y-97457000D01*
X77196000Y-69457000D02*
X93196000Y-69457000D01*
D11*
X57032523Y-69274904D02*
X57032523Y-68474904D01*
X56765857Y-69046333D01*
X56499190Y-68474904D01*
X56499190Y-69274904D01*
X55965857Y-68474904D02*
X55813476Y-68474904D01*
X55737285Y-68513000D01*
X55661095Y-68589190D01*
X55623000Y-68741571D01*
X55623000Y-69008238D01*
X55661095Y-69160619D01*
X55737285Y-69236809D01*
X55813476Y-69274904D01*
X55965857Y-69274904D01*
X56042047Y-69236809D01*
X56118238Y-69160619D01*
X56156333Y-69008238D01*
X56156333Y-68741571D01*
X56118238Y-68589190D01*
X56042047Y-68513000D01*
X55965857Y-68474904D01*
X55280142Y-69274904D02*
X55280142Y-68474904D01*
X55089666Y-68474904D01*
X54975380Y-68513000D01*
X54899190Y-68589190D01*
X54861095Y-68665380D01*
X54823000Y-68817761D01*
X54823000Y-68932047D01*
X54861095Y-69084428D01*
X54899190Y-69160619D01*
X54975380Y-69236809D01*
X55089666Y-69274904D01*
X55280142Y-69274904D01*
X54213476Y-68855857D02*
X54099190Y-68893952D01*
X54061095Y-68932047D01*
X54023000Y-69008238D01*
X54023000Y-69122523D01*
X54061095Y-69198714D01*
X54099190Y-69236809D01*
X54175380Y-69274904D01*
X54480142Y-69274904D01*
X54480142Y-68474904D01*
X54213476Y-68474904D01*
X54137285Y-68513000D01*
X54099190Y-68551095D01*
X54061095Y-68627285D01*
X54061095Y-68703476D01*
X54099190Y-68779666D01*
X54137285Y-68817761D01*
X54213476Y-68855857D01*
X54480142Y-68855857D01*
X53680142Y-68474904D02*
X53680142Y-69122523D01*
X53642047Y-69198714D01*
X53603952Y-69236809D01*
X53527761Y-69274904D01*
X53375380Y-69274904D01*
X53299190Y-69236809D01*
X53261095Y-69198714D01*
X53223000Y-69122523D01*
X53223000Y-68474904D01*
X52880142Y-69236809D02*
X52765857Y-69274904D01*
X52575380Y-69274904D01*
X52499190Y-69236809D01*
X52461095Y-69198714D01*
X52423000Y-69122523D01*
X52423000Y-69046333D01*
X52461095Y-68970142D01*
X52499190Y-68932047D01*
X52575380Y-68893952D01*
X52727761Y-68855857D01*
X52803952Y-68817761D01*
X52842047Y-68779666D01*
X52880142Y-68703476D01*
X52880142Y-68627285D01*
X52842047Y-68551095D01*
X52803952Y-68513000D01*
X52727761Y-68474904D01*
X52537285Y-68474904D01*
X52423000Y-68513000D01*
X51013476Y-69274904D02*
X51280142Y-68893952D01*
X51470619Y-69274904D02*
X51470619Y-68474904D01*
X51165857Y-68474904D01*
X51089666Y-68513000D01*
X51051571Y-68551095D01*
X51013476Y-68627285D01*
X51013476Y-68741571D01*
X51051571Y-68817761D01*
X51089666Y-68855857D01*
X51165857Y-68893952D01*
X51470619Y-68893952D01*
X50784904Y-68474904D02*
X50327761Y-68474904D01*
X50556333Y-69274904D02*
X50556333Y-68474904D01*
X50061095Y-68474904D02*
X50061095Y-69122523D01*
X50023000Y-69198714D01*
X49984904Y-69236809D01*
X49908714Y-69274904D01*
X49756333Y-69274904D01*
X49680142Y-69236809D01*
X49642047Y-69198714D01*
X49603952Y-69122523D01*
X49603952Y-68474904D01*
X48613476Y-69274904D02*
X48613476Y-68474904D01*
X48346809Y-69046333D01*
X48080142Y-68474904D01*
X48080142Y-69274904D01*
X47699190Y-69274904D02*
X47699190Y-68474904D01*
X46861095Y-69274904D02*
X47127761Y-68893952D01*
X47318238Y-69274904D02*
X47318238Y-68474904D01*
X47013476Y-68474904D01*
X46937285Y-68513000D01*
X46899190Y-68551095D01*
X46861095Y-68627285D01*
X46861095Y-68741571D01*
X46899190Y-68817761D01*
X46937285Y-68855857D01*
X47013476Y-68893952D01*
X47318238Y-68893952D01*
X46061095Y-69274904D02*
X46327761Y-68893952D01*
X46518238Y-69274904D02*
X46518238Y-68474904D01*
X46213476Y-68474904D01*
X46137285Y-68513000D01*
X46099190Y-68551095D01*
X46061095Y-68627285D01*
X46061095Y-68741571D01*
X46099190Y-68817761D01*
X46137285Y-68855857D01*
X46213476Y-68893952D01*
X46518238Y-68893952D01*
X45565857Y-68474904D02*
X45413476Y-68474904D01*
X45337285Y-68513000D01*
X45261095Y-68589190D01*
X45223000Y-68741571D01*
X45223000Y-69008238D01*
X45261095Y-69160619D01*
X45337285Y-69236809D01*
X45413476Y-69274904D01*
X45565857Y-69274904D01*
X45642047Y-69236809D01*
X45718238Y-69160619D01*
X45756333Y-69008238D01*
X45756333Y-68741571D01*
X45718238Y-68589190D01*
X45642047Y-68513000D01*
X45565857Y-68474904D01*
X44423000Y-69274904D02*
X44689666Y-68893952D01*
X44880142Y-69274904D02*
X44880142Y-68474904D01*
X44575380Y-68474904D01*
X44499190Y-68513000D01*
X44461095Y-68551095D01*
X44423000Y-68627285D01*
X44423000Y-68741571D01*
X44461095Y-68817761D01*
X44499190Y-68855857D01*
X44575380Y-68893952D01*
X44880142Y-68893952D01*
X56765857Y-70143857D02*
X56651571Y-70181952D01*
X56613476Y-70220047D01*
X56575380Y-70296238D01*
X56575380Y-70410523D01*
X56613476Y-70486714D01*
X56651571Y-70524809D01*
X56727761Y-70562904D01*
X57032523Y-70562904D01*
X57032523Y-69762904D01*
X56765857Y-69762904D01*
X56689666Y-69801000D01*
X56651571Y-69839095D01*
X56613476Y-69915285D01*
X56613476Y-69991476D01*
X56651571Y-70067666D01*
X56689666Y-70105761D01*
X56765857Y-70143857D01*
X57032523Y-70143857D01*
X56270619Y-70334333D02*
X55889666Y-70334333D01*
X56346809Y-70562904D02*
X56080142Y-69762904D01*
X55813476Y-70562904D01*
X55584904Y-70524809D02*
X55470619Y-70562904D01*
X55280142Y-70562904D01*
X55203952Y-70524809D01*
X55165857Y-70486714D01*
X55127761Y-70410523D01*
X55127761Y-70334333D01*
X55165857Y-70258142D01*
X55203952Y-70220047D01*
X55280142Y-70181952D01*
X55432523Y-70143857D01*
X55508714Y-70105761D01*
X55546809Y-70067666D01*
X55584904Y-69991476D01*
X55584904Y-69915285D01*
X55546809Y-69839095D01*
X55508714Y-69801000D01*
X55432523Y-69762904D01*
X55242047Y-69762904D01*
X55127761Y-69801000D01*
X54784904Y-70143857D02*
X54518238Y-70143857D01*
X54403952Y-70562904D02*
X54784904Y-70562904D01*
X54784904Y-69762904D01*
X54403952Y-69762904D01*
D10*
X77196000Y-38457000D02*
X93196000Y-38457000D01*
X93196000Y-67957000D02*
X93196000Y-66457000D01*
X93196000Y-36957000D02*
X93196000Y-38457000D01*
X77196000Y-66457000D02*
X93196000Y-66457000D01*
X44196000Y-36957000D02*
X44196000Y-67957000D01*
X44196000Y-67957000D02*
X77196000Y-67957000D01*
X126196000Y-36957000D02*
X126196000Y-67957000D01*
X93196000Y-67957000D02*
X126196000Y-67957000D01*
X44196000Y-36957000D02*
X77196000Y-36957000D01*
X77196000Y-36957000D02*
X77196000Y-38457000D01*
X77196000Y-67957000D02*
X77196000Y-66457000D01*
X93196000Y-36957000D02*
X126196000Y-36957000D01*
D11*
X57032523Y-38274904D02*
X57032523Y-37474904D01*
X56765857Y-38046333D01*
X56499190Y-37474904D01*
X56499190Y-38274904D01*
X55965857Y-37474904D02*
X55813476Y-37474904D01*
X55737285Y-37513000D01*
X55661095Y-37589190D01*
X55623000Y-37741571D01*
X55623000Y-38008238D01*
X55661095Y-38160619D01*
X55737285Y-38236809D01*
X55813476Y-38274904D01*
X55965857Y-38274904D01*
X56042047Y-38236809D01*
X56118238Y-38160619D01*
X56156333Y-38008238D01*
X56156333Y-37741571D01*
X56118238Y-37589190D01*
X56042047Y-37513000D01*
X55965857Y-37474904D01*
X55280142Y-38274904D02*
X55280142Y-37474904D01*
X55089666Y-37474904D01*
X54975380Y-37513000D01*
X54899190Y-37589190D01*
X54861095Y-37665380D01*
X54823000Y-37817761D01*
X54823000Y-37932047D01*
X54861095Y-38084428D01*
X54899190Y-38160619D01*
X54975380Y-38236809D01*
X55089666Y-38274904D01*
X55280142Y-38274904D01*
X54213476Y-37855857D02*
X54099190Y-37893952D01*
X54061095Y-37932047D01*
X54023000Y-38008238D01*
X54023000Y-38122523D01*
X54061095Y-38198714D01*
X54099190Y-38236809D01*
X54175380Y-38274904D01*
X54480142Y-38274904D01*
X54480142Y-37474904D01*
X54213476Y-37474904D01*
X54137285Y-37513000D01*
X54099190Y-37551095D01*
X54061095Y-37627285D01*
X54061095Y-37703476D01*
X54099190Y-37779666D01*
X54137285Y-37817761D01*
X54213476Y-37855857D01*
X54480142Y-37855857D01*
X53680142Y-37474904D02*
X53680142Y-38122523D01*
X53642047Y-38198714D01*
X53603952Y-38236809D01*
X53527761Y-38274904D01*
X53375380Y-38274904D01*
X53299190Y-38236809D01*
X53261095Y-38198714D01*
X53223000Y-38122523D01*
X53223000Y-37474904D01*
X52880142Y-38236809D02*
X52765857Y-38274904D01*
X52575380Y-38274904D01*
X52499190Y-38236809D01*
X52461095Y-38198714D01*
X52423000Y-38122523D01*
X52423000Y-38046333D01*
X52461095Y-37970142D01*
X52499190Y-37932047D01*
X52575380Y-37893952D01*
X52727761Y-37855857D01*
X52803952Y-37817761D01*
X52842047Y-37779666D01*
X52880142Y-37703476D01*
X52880142Y-37627285D01*
X52842047Y-37551095D01*
X52803952Y-37513000D01*
X52727761Y-37474904D01*
X52537285Y-37474904D01*
X52423000Y-37513000D01*
X51013476Y-38274904D02*
X51280142Y-37893952D01*
X51470619Y-38274904D02*
X51470619Y-37474904D01*
X51165857Y-37474904D01*
X51089666Y-37513000D01*
X51051571Y-37551095D01*
X51013476Y-37627285D01*
X51013476Y-37741571D01*
X51051571Y-37817761D01*
X51089666Y-37855857D01*
X51165857Y-37893952D01*
X51470619Y-37893952D01*
X50784904Y-37474904D02*
X50327761Y-37474904D01*
X50556333Y-38274904D02*
X50556333Y-37474904D01*
X50061095Y-37474904D02*
X50061095Y-38122523D01*
X50023000Y-38198714D01*
X49984904Y-38236809D01*
X49908714Y-38274904D01*
X49756333Y-38274904D01*
X49680142Y-38236809D01*
X49642047Y-38198714D01*
X49603952Y-38122523D01*
X49603952Y-37474904D01*
X48613476Y-38274904D02*
X48613476Y-37474904D01*
X48346809Y-38046333D01*
X48080142Y-37474904D01*
X48080142Y-38274904D01*
X47699190Y-38274904D02*
X47699190Y-37474904D01*
X46861095Y-38274904D02*
X47127761Y-37893952D01*
X47318238Y-38274904D02*
X47318238Y-37474904D01*
X47013476Y-37474904D01*
X46937285Y-37513000D01*
X46899190Y-37551095D01*
X46861095Y-37627285D01*
X46861095Y-37741571D01*
X46899190Y-37817761D01*
X46937285Y-37855857D01*
X47013476Y-37893952D01*
X47318238Y-37893952D01*
X46061095Y-38274904D02*
X46327761Y-37893952D01*
X46518238Y-38274904D02*
X46518238Y-37474904D01*
X46213476Y-37474904D01*
X46137285Y-37513000D01*
X46099190Y-37551095D01*
X46061095Y-37627285D01*
X46061095Y-37741571D01*
X46099190Y-37817761D01*
X46137285Y-37855857D01*
X46213476Y-37893952D01*
X46518238Y-37893952D01*
X45565857Y-37474904D02*
X45413476Y-37474904D01*
X45337285Y-37513000D01*
X45261095Y-37589190D01*
X45223000Y-37741571D01*
X45223000Y-38008238D01*
X45261095Y-38160619D01*
X45337285Y-38236809D01*
X45413476Y-38274904D01*
X45565857Y-38274904D01*
X45642047Y-38236809D01*
X45718238Y-38160619D01*
X45756333Y-38008238D01*
X45756333Y-37741571D01*
X45718238Y-37589190D01*
X45642047Y-37513000D01*
X45565857Y-37474904D01*
X44423000Y-38274904D02*
X44689666Y-37893952D01*
X44880142Y-38274904D02*
X44880142Y-37474904D01*
X44575380Y-37474904D01*
X44499190Y-37513000D01*
X44461095Y-37551095D01*
X44423000Y-37627285D01*
X44423000Y-37741571D01*
X44461095Y-37817761D01*
X44499190Y-37855857D01*
X44575380Y-37893952D01*
X44880142Y-37893952D01*
X56765857Y-39143857D02*
X56651571Y-39181952D01*
X56613476Y-39220047D01*
X56575380Y-39296238D01*
X56575380Y-39410523D01*
X56613476Y-39486714D01*
X56651571Y-39524809D01*
X56727761Y-39562904D01*
X57032523Y-39562904D01*
X57032523Y-38762904D01*
X56765857Y-38762904D01*
X56689666Y-38801000D01*
X56651571Y-38839095D01*
X56613476Y-38915285D01*
X56613476Y-38991476D01*
X56651571Y-39067666D01*
X56689666Y-39105761D01*
X56765857Y-39143857D01*
X57032523Y-39143857D01*
X56270619Y-39334333D02*
X55889666Y-39334333D01*
X56346809Y-39562904D02*
X56080142Y-38762904D01*
X55813476Y-39562904D01*
X55584904Y-39524809D02*
X55470619Y-39562904D01*
X55280142Y-39562904D01*
X55203952Y-39524809D01*
X55165857Y-39486714D01*
X55127761Y-39410523D01*
X55127761Y-39334333D01*
X55165857Y-39258142D01*
X55203952Y-39220047D01*
X55280142Y-39181952D01*
X55432523Y-39143857D01*
X55508714Y-39105761D01*
X55546809Y-39067666D01*
X55584904Y-38991476D01*
X55584904Y-38915285D01*
X55546809Y-38839095D01*
X55508714Y-38801000D01*
X55432523Y-38762904D01*
X55242047Y-38762904D01*
X55127761Y-38801000D01*
X54784904Y-39143857D02*
X54518238Y-39143857D01*
X54403952Y-39562904D02*
X54784904Y-39562904D01*
X54784904Y-38762904D01*
X54403952Y-38762904D01*
M02*
