M48
; DRILL file {KiCad 6.0.11-2627ca5db0~126~ubuntu20.04.1} date dom 22 sep 2024 20:55:47
; FORMAT={-:-/ absolute / metric / decimal}
; #@! TF.CreationDate,2024-09-22T20:55:47-05:00
; #@! TF.GenerationSoftware,Kicad,Pcbnew,6.0.11-2627ca5db0~126~ubuntu20.04.1
; #@! TF.FileFunction,Plated,1,2,PTH
FMAT,2
METRIC
; #@! TA.AperFunction,Plated,PTH,ViaDrill
T1C0.400
; #@! TA.AperFunction,Plated,PTH,ComponentDrill
T2C1.000
; #@! TA.AperFunction,Plated,PTH,ComponentDrill
T3C1.300
%
G90
G05
T1
X97.303Y-58.94
X97.303Y-89.94
X97.303Y-120.94
X99.39Y-59.385
X99.39Y-90.385
X99.39Y-121.385
X100.781Y-50.534
X100.781Y-81.534
X100.781Y-112.534
X102.212Y-55.674
X102.212Y-86.674
X102.212Y-117.674
X102.692Y-45.415
X102.692Y-76.415
X102.692Y-107.415
X104.343Y-63.449
X104.343Y-94.449
X104.343Y-125.449
X105.486Y-47.611
X105.486Y-49.098
X105.486Y-78.611
X105.486Y-80.098
X105.486Y-109.611
X105.486Y-111.098
X106.248Y-58.63
X106.248Y-89.63
X106.248Y-120.63
X107.772Y-66.116
X107.772Y-97.116
X107.772Y-128.116
X107.899Y-58.496
X107.899Y-89.496
X107.899Y-120.496
X109.677Y-46.177
X109.677Y-77.177
X109.677Y-108.177
X112.852Y-51.638
X112.852Y-82.638
X112.852Y-113.638
X113.36Y-60.401
X113.36Y-91.401
X113.36Y-122.401
X116.789Y-43.129
X116.789Y-74.129
X116.789Y-105.129
X116.916Y-56.337
X116.916Y-87.337
X116.916Y-118.337
X117.678Y-53.797
X117.678Y-84.797
X117.678Y-115.797
X119.456Y-56.464
X119.456Y-87.464
X119.456Y-118.464
T2
X56.591Y-52.908
X56.591Y-57.908
X56.591Y-83.908
X56.591Y-88.908
X56.591Y-114.908
X56.591Y-119.908
X67.416Y-40.462
X67.416Y-71.462
X67.416Y-102.462
X69.956Y-40.462
X69.956Y-71.462
X69.956Y-102.462
X72.496Y-40.462
X72.496Y-71.462
X72.496Y-102.462
X75.036Y-40.462
X75.036Y-71.462
X75.036Y-102.462
X85.991Y-47.708
X85.991Y-63.108
X85.991Y-78.708
X85.991Y-94.108
X85.991Y-109.708
X85.991Y-125.108
X95.356Y-40.462
X95.356Y-71.462
X95.356Y-102.462
X97.896Y-40.462
X97.896Y-71.462
X97.896Y-102.462
X100.436Y-40.462
X100.436Y-71.462
X100.436Y-102.462
X102.976Y-40.462
X102.976Y-71.462
X102.976Y-102.462
T3
X48.196Y-49.957
X48.196Y-54.957
X48.196Y-80.957
X48.196Y-85.957
X48.196Y-111.957
X48.196Y-116.957
X122.196Y-39.957
X122.196Y-44.957
X122.196Y-49.957
X122.196Y-54.957
X122.196Y-59.957
X122.196Y-64.957
X122.196Y-70.957
X122.196Y-75.957
X122.196Y-80.957
X122.196Y-85.957
X122.196Y-90.957
X122.196Y-95.957
X122.196Y-101.957
X122.196Y-106.957
X122.196Y-111.957
X122.196Y-116.957
X122.196Y-121.957
X122.196Y-126.957
T0
M30
