G04 #@! TF.GenerationSoftware,KiCad,Pcbnew,5.1.5+dfsg1-2build2*
G04 #@! TF.CreationDate,2021-07-28T21:38:28-05:00*
G04 #@! TF.ProjectId,,58585858-5858-4585-9858-585858585858,rev?*
G04 #@! TF.SameCoordinates,Original*
G04 #@! TF.FileFunction,Copper,L1,Top*
G04 #@! TF.FilePolarity,Positive*
%FSLAX46Y46*%
G04 Gerber Fmt 4.6, Leading zero omitted, Abs format (unit mm)*
G04 Created by KiCad (PCBNEW 5.1.5+dfsg1-2build2) date 2021-07-28 21:38:28*
%MOMM*%
%LPD*%
G04 APERTURE LIST*
%ADD10R,1.800000X1.800000*%
%ADD11C,1.800000*%
%ADD12R,2.400000X2.400000*%
%ADD13C,2.400000*%
%ADD14C,1.500000*%
%ADD15R,1.500000X1.500000*%
%ADD16C,3.650000*%
%ADD17C,1.998980*%
%ADD18C,1.600000*%
%ADD19C,1.400000*%
%ADD20O,1.400000X1.400000*%
%ADD21C,0.500000*%
%ADD22C,0.250000*%
%ADD23C,0.750000*%
%ADD24C,0.254000*%
G04 APERTURE END LIST*
D10*
X146233000Y-88138000D03*
D11*
X148773000Y-88138000D03*
D10*
X126233000Y-88138000D03*
D11*
X128773000Y-88138000D03*
D10*
X106233000Y-88138000D03*
D11*
X108773000Y-88138000D03*
D12*
X146233000Y-105061000D03*
D13*
X149733000Y-105061000D03*
D12*
X126233000Y-105061000D03*
D13*
X129733000Y-105061000D03*
D12*
X106233000Y-105061000D03*
D13*
X109733000Y-105061000D03*
D14*
X143385000Y-56499000D03*
X144655000Y-53959000D03*
X145925000Y-56499000D03*
X147195000Y-53959000D03*
X148465000Y-56499000D03*
X149735000Y-53959000D03*
X151005000Y-56499000D03*
D15*
X152275000Y-53959000D03*
D16*
X153545000Y-47609000D03*
X142115000Y-47609000D03*
D14*
X123385000Y-56499000D03*
X124655000Y-53959000D03*
X125925000Y-56499000D03*
X127195000Y-53959000D03*
X128465000Y-56499000D03*
X129735000Y-53959000D03*
X131005000Y-56499000D03*
D15*
X132275000Y-53959000D03*
D16*
X133545000Y-47609000D03*
X122115000Y-47609000D03*
D14*
X103385000Y-56499000D03*
X104655000Y-53959000D03*
X105925000Y-56499000D03*
X107195000Y-53959000D03*
X108465000Y-56499000D03*
X109735000Y-53959000D03*
X111005000Y-56499000D03*
D15*
X112275000Y-53959000D03*
D16*
X113545000Y-47609000D03*
X102115000Y-47609000D03*
D17*
X155758000Y-102616000D03*
X135758000Y-102616000D03*
X115758000Y-102616000D03*
X139756000Y-102616000D03*
X119756000Y-102616000D03*
X99756000Y-102616000D03*
D14*
X152275000Y-59928000D03*
X151005000Y-62468000D03*
X149735000Y-59928000D03*
X148465000Y-62468000D03*
X147195000Y-59928000D03*
X145925000Y-62468000D03*
X144655000Y-59928000D03*
D15*
X143385000Y-62468000D03*
D16*
X142115000Y-68818000D03*
X153545000Y-68818000D03*
D14*
X132275000Y-59928000D03*
X131005000Y-62468000D03*
X129735000Y-59928000D03*
X128465000Y-62468000D03*
X127195000Y-59928000D03*
X125925000Y-62468000D03*
X124655000Y-59928000D03*
D15*
X123385000Y-62468000D03*
D16*
X122115000Y-68818000D03*
X133545000Y-68818000D03*
D14*
X112275000Y-59928000D03*
X111005000Y-62468000D03*
X109735000Y-59928000D03*
X108465000Y-62468000D03*
X107195000Y-59928000D03*
X105925000Y-62468000D03*
X104655000Y-59928000D03*
D15*
X103385000Y-62468000D03*
D16*
X102115000Y-68818000D03*
X113545000Y-68818000D03*
D18*
X149789000Y-98298000D03*
X149789000Y-93298000D03*
X129789000Y-98298000D03*
X129789000Y-93298000D03*
X109789000Y-98298000D03*
X109789000Y-93298000D03*
D19*
X151186000Y-83947000D03*
D20*
X148646000Y-83947000D03*
D19*
X131186000Y-83947000D03*
D20*
X128646000Y-83947000D03*
D19*
X111186000Y-83947000D03*
D20*
X108646000Y-83947000D03*
D17*
X95758000Y-102616000D03*
X79756000Y-102616000D03*
D16*
X93545000Y-68818000D03*
X82115000Y-68818000D03*
D15*
X83385000Y-62468000D03*
D14*
X84655000Y-59928000D03*
X85925000Y-62468000D03*
X87195000Y-59928000D03*
X88465000Y-62468000D03*
X89735000Y-59928000D03*
X91005000Y-62468000D03*
X92275000Y-59928000D03*
D18*
X89789000Y-93298000D03*
X89789000Y-98298000D03*
D20*
X88646000Y-83947000D03*
D19*
X91186000Y-83947000D03*
D11*
X88773000Y-88138000D03*
D10*
X86233000Y-88138000D03*
D13*
X89733000Y-105061000D03*
D12*
X86233000Y-105061000D03*
D16*
X82115000Y-47609000D03*
X93545000Y-47609000D03*
D15*
X92275000Y-53959000D03*
D14*
X91005000Y-56499000D03*
X89735000Y-53959000D03*
X88465000Y-56499000D03*
X87195000Y-53959000D03*
X85925000Y-56499000D03*
X84655000Y-53959000D03*
X83385000Y-56499000D03*
D21*
X92440000Y-53959000D02*
X92275000Y-53959000D01*
X93726000Y-55245000D02*
X92440000Y-53959000D01*
X93726000Y-62738000D02*
X93726000Y-55245000D01*
X91948000Y-64516000D02*
X93726000Y-62738000D01*
X84455000Y-64516000D02*
X91948000Y-64516000D01*
X83385000Y-63446000D02*
X84455000Y-64516000D01*
X83385000Y-62468000D02*
X83385000Y-63446000D01*
X103385000Y-62468000D02*
X103385000Y-63446000D01*
X123385000Y-62468000D02*
X123385000Y-63446000D01*
X143385000Y-62468000D02*
X143385000Y-63446000D01*
X111948000Y-64516000D02*
X113726000Y-62738000D01*
X131948000Y-64516000D02*
X133726000Y-62738000D01*
X151948000Y-64516000D02*
X153726000Y-62738000D01*
X103385000Y-63446000D02*
X104455000Y-64516000D01*
X123385000Y-63446000D02*
X124455000Y-64516000D01*
X143385000Y-63446000D02*
X144455000Y-64516000D01*
X104455000Y-64516000D02*
X111948000Y-64516000D01*
X124455000Y-64516000D02*
X131948000Y-64516000D01*
X144455000Y-64516000D02*
X151948000Y-64516000D01*
X113726000Y-62738000D02*
X113726000Y-55245000D01*
X133726000Y-62738000D02*
X133726000Y-55245000D01*
X153726000Y-62738000D02*
X153726000Y-55245000D01*
X112440000Y-53959000D02*
X112275000Y-53959000D01*
X132440000Y-53959000D02*
X132275000Y-53959000D01*
X152440000Y-53959000D02*
X152275000Y-53959000D01*
X113726000Y-55245000D02*
X112440000Y-53959000D01*
X133726000Y-55245000D02*
X132440000Y-53959000D01*
X153726000Y-55245000D02*
X152440000Y-53959000D01*
D22*
X86306000Y-56499000D02*
X85925000Y-56499000D01*
D21*
X89735000Y-59928000D02*
X86306000Y-56499000D01*
D22*
X106306000Y-56499000D02*
X105925000Y-56499000D01*
X126306000Y-56499000D02*
X125925000Y-56499000D01*
X146306000Y-56499000D02*
X145925000Y-56499000D01*
D21*
X109735000Y-59928000D02*
X106306000Y-56499000D01*
X129735000Y-59928000D02*
X126306000Y-56499000D01*
X149735000Y-59928000D02*
X146306000Y-56499000D01*
D23*
X88773000Y-84074000D02*
X88646000Y-83947000D01*
X88773000Y-88138000D02*
X88773000Y-84074000D01*
X108773000Y-88138000D02*
X108773000Y-84074000D01*
X128773000Y-88138000D02*
X128773000Y-84074000D01*
X148773000Y-88138000D02*
X148773000Y-84074000D01*
X108773000Y-84074000D02*
X108646000Y-83947000D01*
X128773000Y-84074000D02*
X128646000Y-83947000D01*
X148773000Y-84074000D02*
X148646000Y-83947000D01*
X83385000Y-55229000D02*
X84655000Y-53959000D01*
X83385000Y-56499000D02*
X83385000Y-55229000D01*
X82296000Y-65151000D02*
X83185000Y-65151000D01*
X86233000Y-68199000D02*
X86233000Y-88138000D01*
X83185000Y-65151000D02*
X86233000Y-68199000D01*
X80899000Y-57531000D02*
X80899000Y-63754000D01*
X80899000Y-63754000D02*
X82296000Y-65151000D01*
X81931000Y-56499000D02*
X80899000Y-57531000D01*
X83385000Y-56499000D02*
X81931000Y-56499000D01*
X86233000Y-103111000D02*
X86233000Y-88138000D01*
X86233000Y-105061000D02*
X86233000Y-103111000D01*
X106233000Y-68199000D02*
X106233000Y-88138000D01*
X126233000Y-68199000D02*
X126233000Y-88138000D01*
X146233000Y-68199000D02*
X146233000Y-88138000D01*
X103185000Y-65151000D02*
X106233000Y-68199000D01*
X123185000Y-65151000D02*
X126233000Y-68199000D01*
X143185000Y-65151000D02*
X146233000Y-68199000D01*
X101931000Y-56499000D02*
X100899000Y-57531000D01*
X121931000Y-56499000D02*
X120899000Y-57531000D01*
X141931000Y-56499000D02*
X140899000Y-57531000D01*
X106233000Y-103111000D02*
X106233000Y-88138000D01*
X126233000Y-103111000D02*
X126233000Y-88138000D01*
X146233000Y-103111000D02*
X146233000Y-88138000D01*
X100899000Y-63754000D02*
X102296000Y-65151000D01*
X120899000Y-63754000D02*
X122296000Y-65151000D01*
X140899000Y-63754000D02*
X142296000Y-65151000D01*
X103385000Y-56499000D02*
X101931000Y-56499000D01*
X123385000Y-56499000D02*
X121931000Y-56499000D01*
X143385000Y-56499000D02*
X141931000Y-56499000D01*
X106233000Y-105061000D02*
X106233000Y-103111000D01*
X126233000Y-105061000D02*
X126233000Y-103111000D01*
X146233000Y-105061000D02*
X146233000Y-103111000D01*
X103385000Y-55229000D02*
X104655000Y-53959000D01*
X123385000Y-55229000D02*
X124655000Y-53959000D01*
X143385000Y-55229000D02*
X144655000Y-53959000D01*
X102296000Y-65151000D02*
X103185000Y-65151000D01*
X122296000Y-65151000D02*
X123185000Y-65151000D01*
X142296000Y-65151000D02*
X143185000Y-65151000D01*
X100899000Y-57531000D02*
X100899000Y-63754000D01*
X120899000Y-57531000D02*
X120899000Y-63754000D01*
X140899000Y-57531000D02*
X140899000Y-63754000D01*
X103385000Y-56499000D02*
X103385000Y-55229000D01*
X123385000Y-56499000D02*
X123385000Y-55229000D01*
X143385000Y-56499000D02*
X143385000Y-55229000D01*
X87195000Y-51997000D02*
X87195000Y-53959000D01*
X94869000Y-64389000D02*
X94869000Y-53086000D01*
X92837000Y-51054000D02*
X88138000Y-51054000D01*
X91694000Y-65659000D02*
X93599000Y-65659000D01*
X89916000Y-67437000D02*
X91694000Y-65659000D01*
X88138000Y-51054000D02*
X87195000Y-51997000D01*
X94869000Y-53086000D02*
X92837000Y-51054000D01*
X93599000Y-65659000D02*
X94869000Y-64389000D01*
X87503000Y-55537000D02*
X88465000Y-56499000D01*
X87195000Y-55229000D02*
X87503000Y-55537000D01*
X87195000Y-53959000D02*
X87195000Y-55229000D01*
X90471000Y-93298000D02*
X89789000Y-93298000D01*
X92329000Y-91440000D02*
X90471000Y-93298000D01*
X92329000Y-85090000D02*
X92329000Y-91440000D01*
X91186000Y-83947000D02*
X92329000Y-85090000D01*
X89916000Y-81687051D02*
X89916000Y-67437000D01*
X91186000Y-82957051D02*
X89916000Y-81687051D01*
X91186000Y-83947000D02*
X91186000Y-82957051D01*
X111186000Y-83947000D02*
X111186000Y-82957051D01*
X131186000Y-83947000D02*
X131186000Y-82957051D01*
X151186000Y-83947000D02*
X151186000Y-82957051D01*
X111186000Y-83947000D02*
X112329000Y-85090000D01*
X131186000Y-83947000D02*
X132329000Y-85090000D01*
X151186000Y-83947000D02*
X152329000Y-85090000D01*
X107195000Y-51997000D02*
X107195000Y-53959000D01*
X127195000Y-51997000D02*
X127195000Y-53959000D01*
X147195000Y-51997000D02*
X147195000Y-53959000D01*
X109916000Y-67437000D02*
X111694000Y-65659000D01*
X129916000Y-67437000D02*
X131694000Y-65659000D01*
X149916000Y-67437000D02*
X151694000Y-65659000D01*
X114869000Y-64389000D02*
X114869000Y-53086000D01*
X134869000Y-64389000D02*
X134869000Y-53086000D01*
X154869000Y-64389000D02*
X154869000Y-53086000D01*
X111186000Y-82957051D02*
X109916000Y-81687051D01*
X131186000Y-82957051D02*
X129916000Y-81687051D01*
X151186000Y-82957051D02*
X149916000Y-81687051D01*
X114869000Y-53086000D02*
X112837000Y-51054000D01*
X134869000Y-53086000D02*
X132837000Y-51054000D01*
X154869000Y-53086000D02*
X152837000Y-51054000D01*
X112329000Y-85090000D02*
X112329000Y-91440000D01*
X132329000Y-85090000D02*
X132329000Y-91440000D01*
X152329000Y-85090000D02*
X152329000Y-91440000D01*
X113599000Y-65659000D02*
X114869000Y-64389000D01*
X133599000Y-65659000D02*
X134869000Y-64389000D01*
X153599000Y-65659000D02*
X154869000Y-64389000D01*
X107195000Y-55229000D02*
X107503000Y-55537000D01*
X127195000Y-55229000D02*
X127503000Y-55537000D01*
X147195000Y-55229000D02*
X147503000Y-55537000D01*
X109916000Y-81687051D02*
X109916000Y-67437000D01*
X129916000Y-81687051D02*
X129916000Y-67437000D01*
X149916000Y-81687051D02*
X149916000Y-67437000D01*
X107195000Y-53959000D02*
X107195000Y-55229000D01*
X127195000Y-53959000D02*
X127195000Y-55229000D01*
X147195000Y-53959000D02*
X147195000Y-55229000D01*
X112837000Y-51054000D02*
X108138000Y-51054000D01*
X132837000Y-51054000D02*
X128138000Y-51054000D01*
X152837000Y-51054000D02*
X148138000Y-51054000D01*
X111694000Y-65659000D02*
X113599000Y-65659000D01*
X131694000Y-65659000D02*
X133599000Y-65659000D01*
X151694000Y-65659000D02*
X153599000Y-65659000D01*
X108138000Y-51054000D02*
X107195000Y-51997000D01*
X128138000Y-51054000D02*
X127195000Y-51997000D01*
X148138000Y-51054000D02*
X147195000Y-51997000D01*
X110471000Y-93298000D02*
X109789000Y-93298000D01*
X130471000Y-93298000D02*
X129789000Y-93298000D01*
X150471000Y-93298000D02*
X149789000Y-93298000D01*
X112329000Y-91440000D02*
X110471000Y-93298000D01*
X132329000Y-91440000D02*
X130471000Y-93298000D01*
X152329000Y-91440000D02*
X150471000Y-93298000D01*
X107503000Y-55537000D02*
X108465000Y-56499000D01*
X127503000Y-55537000D02*
X128465000Y-56499000D01*
X147503000Y-55537000D02*
X148465000Y-56499000D01*
D21*
X89733000Y-98354000D02*
X89789000Y-98298000D01*
D23*
X89733000Y-105061000D02*
X89733000Y-98354000D01*
D21*
X109733000Y-98354000D02*
X109789000Y-98298000D01*
X129733000Y-98354000D02*
X129789000Y-98298000D01*
X149733000Y-98354000D02*
X149789000Y-98298000D01*
D23*
X109733000Y-105061000D02*
X109733000Y-98354000D01*
X129733000Y-105061000D02*
X129733000Y-98354000D01*
X149733000Y-105061000D02*
X149733000Y-98354000D01*
D24*
G36*
X97225001Y-101882732D02*
G01*
X97157399Y-101756258D01*
X96893050Y-101660555D01*
X95937605Y-102616000D01*
X96893050Y-103571445D01*
X97157399Y-103475742D01*
X97225001Y-103336770D01*
X97225001Y-110761000D01*
X78545000Y-110761000D01*
X78545000Y-103751050D01*
X78800555Y-103751050D01*
X78896258Y-104015399D01*
X79185787Y-104156238D01*
X79497229Y-104237885D01*
X79818615Y-104257205D01*
X80137595Y-104213454D01*
X80441911Y-104108314D01*
X80615742Y-104015399D01*
X80711445Y-103751050D01*
X79756000Y-102795605D01*
X78800555Y-103751050D01*
X78545000Y-103751050D01*
X78545000Y-103543949D01*
X78620950Y-103571445D01*
X79576395Y-102616000D01*
X79935605Y-102616000D01*
X80891050Y-103571445D01*
X81155399Y-103475742D01*
X81296238Y-103186213D01*
X81377885Y-102874771D01*
X81397205Y-102553385D01*
X81353454Y-102234405D01*
X81248314Y-101930089D01*
X81155399Y-101756258D01*
X80891050Y-101660555D01*
X79935605Y-102616000D01*
X79576395Y-102616000D01*
X78620950Y-101660555D01*
X78545000Y-101688051D01*
X78545000Y-101480950D01*
X78800555Y-101480950D01*
X79756000Y-102436395D01*
X80711445Y-101480950D01*
X80615742Y-101216601D01*
X80326213Y-101075762D01*
X80014771Y-100994115D01*
X79693385Y-100974795D01*
X79374405Y-101018546D01*
X79070089Y-101123686D01*
X78896258Y-101216601D01*
X78800555Y-101480950D01*
X78545000Y-101480950D01*
X78545000Y-68575711D01*
X79655000Y-68575711D01*
X79655000Y-69060289D01*
X79749536Y-69535556D01*
X79934976Y-69983247D01*
X80204193Y-70386159D01*
X80546841Y-70728807D01*
X80949753Y-70998024D01*
X81397444Y-71183464D01*
X81872711Y-71278000D01*
X82357289Y-71278000D01*
X82832556Y-71183464D01*
X83280247Y-70998024D01*
X83683159Y-70728807D01*
X84025807Y-70386159D01*
X84295024Y-69983247D01*
X84480464Y-69535556D01*
X84575000Y-69060289D01*
X84575000Y-68575711D01*
X84480464Y-68100444D01*
X84320923Y-67715279D01*
X85223000Y-68617356D01*
X85223001Y-86610762D01*
X85208518Y-86612188D01*
X85088820Y-86648498D01*
X84978506Y-86707463D01*
X84881815Y-86786815D01*
X84802463Y-86883506D01*
X84743498Y-86993820D01*
X84707188Y-87113518D01*
X84694928Y-87238000D01*
X84694928Y-89038000D01*
X84707188Y-89162482D01*
X84743498Y-89282180D01*
X84802463Y-89392494D01*
X84881815Y-89489185D01*
X84978506Y-89568537D01*
X85088820Y-89627502D01*
X85208518Y-89663812D01*
X85223001Y-89665238D01*
X85223000Y-103160607D01*
X85223001Y-103160617D01*
X85223001Y-103222928D01*
X85033000Y-103222928D01*
X84908518Y-103235188D01*
X84788820Y-103271498D01*
X84678506Y-103330463D01*
X84581815Y-103409815D01*
X84502463Y-103506506D01*
X84443498Y-103616820D01*
X84407188Y-103736518D01*
X84394928Y-103861000D01*
X84394928Y-106261000D01*
X84407188Y-106385482D01*
X84443498Y-106505180D01*
X84502463Y-106615494D01*
X84581815Y-106712185D01*
X84678506Y-106791537D01*
X84788820Y-106850502D01*
X84908518Y-106886812D01*
X85033000Y-106899072D01*
X87433000Y-106899072D01*
X87557482Y-106886812D01*
X87677180Y-106850502D01*
X87787494Y-106791537D01*
X87884185Y-106712185D01*
X87963537Y-106615494D01*
X88022502Y-106505180D01*
X88058812Y-106385482D01*
X88071072Y-106261000D01*
X88071072Y-105843838D01*
X88106844Y-105930199D01*
X88307662Y-106230744D01*
X88563256Y-106486338D01*
X88863801Y-106687156D01*
X89197750Y-106825482D01*
X89552268Y-106896000D01*
X89913732Y-106896000D01*
X90268250Y-106825482D01*
X90602199Y-106687156D01*
X90902744Y-106486338D01*
X91158338Y-106230744D01*
X91359156Y-105930199D01*
X91497482Y-105596250D01*
X91568000Y-105241732D01*
X91568000Y-104880268D01*
X91497482Y-104525750D01*
X91359156Y-104191801D01*
X91158338Y-103891256D01*
X91018132Y-103751050D01*
X94802555Y-103751050D01*
X94898258Y-104015399D01*
X95187787Y-104156238D01*
X95499229Y-104237885D01*
X95820615Y-104257205D01*
X96139595Y-104213454D01*
X96443911Y-104108314D01*
X96617742Y-104015399D01*
X96713445Y-103751050D01*
X95758000Y-102795605D01*
X94802555Y-103751050D01*
X91018132Y-103751050D01*
X90902744Y-103635662D01*
X90743000Y-103528924D01*
X90743000Y-102678615D01*
X94116795Y-102678615D01*
X94160546Y-102997595D01*
X94265686Y-103301911D01*
X94358601Y-103475742D01*
X94622950Y-103571445D01*
X95578395Y-102616000D01*
X94622950Y-101660555D01*
X94358601Y-101756258D01*
X94217762Y-102045787D01*
X94136115Y-102357229D01*
X94116795Y-102678615D01*
X90743000Y-102678615D01*
X90743000Y-101480950D01*
X94802555Y-101480950D01*
X95758000Y-102436395D01*
X96713445Y-101480950D01*
X96617742Y-101216601D01*
X96328213Y-101075762D01*
X96016771Y-100994115D01*
X95695385Y-100974795D01*
X95376405Y-101018546D01*
X95072089Y-101123686D01*
X94898258Y-101216601D01*
X94802555Y-101480950D01*
X90743000Y-101480950D01*
X90743000Y-99373396D01*
X90903637Y-99212759D01*
X91060680Y-98977727D01*
X91168853Y-98716574D01*
X91224000Y-98439335D01*
X91224000Y-98156665D01*
X91168853Y-97879426D01*
X91060680Y-97618273D01*
X90903637Y-97383241D01*
X90703759Y-97183363D01*
X90468727Y-97026320D01*
X90207574Y-96918147D01*
X89930335Y-96863000D01*
X89647665Y-96863000D01*
X89370426Y-96918147D01*
X89109273Y-97026320D01*
X88874241Y-97183363D01*
X88674363Y-97383241D01*
X88517320Y-97618273D01*
X88409147Y-97879426D01*
X88354000Y-98156665D01*
X88354000Y-98439335D01*
X88409147Y-98716574D01*
X88517320Y-98977727D01*
X88674363Y-99212759D01*
X88723001Y-99261397D01*
X88723000Y-103528924D01*
X88563256Y-103635662D01*
X88307662Y-103891256D01*
X88106844Y-104191801D01*
X88071072Y-104278162D01*
X88071072Y-103861000D01*
X88058812Y-103736518D01*
X88022502Y-103616820D01*
X87963537Y-103506506D01*
X87884185Y-103409815D01*
X87787494Y-103330463D01*
X87677180Y-103271498D01*
X87557482Y-103235188D01*
X87433000Y-103222928D01*
X87243000Y-103222928D01*
X87243000Y-89665238D01*
X87257482Y-89663812D01*
X87377180Y-89627502D01*
X87487494Y-89568537D01*
X87584185Y-89489185D01*
X87663537Y-89392494D01*
X87722502Y-89282180D01*
X87728056Y-89263873D01*
X87794495Y-89330312D01*
X88045905Y-89498299D01*
X88325257Y-89614011D01*
X88621816Y-89673000D01*
X88924184Y-89673000D01*
X89220743Y-89614011D01*
X89500095Y-89498299D01*
X89751505Y-89330312D01*
X89965312Y-89116505D01*
X90133299Y-88865095D01*
X90249011Y-88585743D01*
X90308000Y-88289184D01*
X90308000Y-87986816D01*
X90249011Y-87690257D01*
X90133299Y-87410905D01*
X89965312Y-87159495D01*
X89783000Y-86977183D01*
X89783000Y-84648295D01*
X89829061Y-84579359D01*
X89916000Y-84369470D01*
X90002939Y-84579359D01*
X90149038Y-84798013D01*
X90334987Y-84983962D01*
X90553641Y-85130061D01*
X90796595Y-85230696D01*
X91054514Y-85282000D01*
X91092645Y-85282000D01*
X91319000Y-85508355D01*
X91319001Y-91021643D01*
X90359548Y-91981097D01*
X90207574Y-91918147D01*
X89930335Y-91863000D01*
X89647665Y-91863000D01*
X89370426Y-91918147D01*
X89109273Y-92026320D01*
X88874241Y-92183363D01*
X88674363Y-92383241D01*
X88517320Y-92618273D01*
X88409147Y-92879426D01*
X88354000Y-93156665D01*
X88354000Y-93439335D01*
X88409147Y-93716574D01*
X88517320Y-93977727D01*
X88674363Y-94212759D01*
X88874241Y-94412637D01*
X89109273Y-94569680D01*
X89370426Y-94677853D01*
X89647665Y-94733000D01*
X89930335Y-94733000D01*
X90207574Y-94677853D01*
X90468727Y-94569680D01*
X90703759Y-94412637D01*
X90903637Y-94212759D01*
X90904451Y-94211541D01*
X91034840Y-94141847D01*
X91188633Y-94015633D01*
X91220261Y-93977094D01*
X93008100Y-92189256D01*
X93046633Y-92157633D01*
X93172847Y-92003840D01*
X93266632Y-91828380D01*
X93324385Y-91637994D01*
X93339000Y-91489608D01*
X93343886Y-91440000D01*
X93339000Y-91390392D01*
X93339000Y-85139604D01*
X93343886Y-85089999D01*
X93333442Y-84983962D01*
X93324385Y-84892006D01*
X93266632Y-84701620D01*
X93172847Y-84526160D01*
X93046633Y-84372367D01*
X93008094Y-84340739D01*
X92521000Y-83853645D01*
X92521000Y-83815514D01*
X92469696Y-83557595D01*
X92369061Y-83314641D01*
X92222962Y-83095987D01*
X92196000Y-83069025D01*
X92196000Y-83006655D01*
X92200886Y-82957050D01*
X92196000Y-82907443D01*
X92181385Y-82759057D01*
X92123632Y-82568671D01*
X92029847Y-82393211D01*
X91903633Y-82239418D01*
X91865094Y-82207790D01*
X90926000Y-81268696D01*
X90926000Y-67855355D01*
X92112356Y-66669000D01*
X92333322Y-66669000D01*
X91976841Y-66907193D01*
X91634193Y-67249841D01*
X91364976Y-67652753D01*
X91179536Y-68100444D01*
X91085000Y-68575711D01*
X91085000Y-69060289D01*
X91179536Y-69535556D01*
X91364976Y-69983247D01*
X91634193Y-70386159D01*
X91976841Y-70728807D01*
X92379753Y-70998024D01*
X92827444Y-71183464D01*
X93302711Y-71278000D01*
X93787289Y-71278000D01*
X94262556Y-71183464D01*
X94710247Y-70998024D01*
X95113159Y-70728807D01*
X95455807Y-70386159D01*
X95725024Y-69983247D01*
X95910464Y-69535556D01*
X96005000Y-69060289D01*
X96005000Y-68575711D01*
X95910464Y-68100444D01*
X95725024Y-67652753D01*
X95455807Y-67249841D01*
X95113159Y-66907193D01*
X94710247Y-66637976D01*
X94262556Y-66452536D01*
X94231638Y-66446386D01*
X94316633Y-66376633D01*
X94348261Y-66338094D01*
X95548094Y-65138261D01*
X95586633Y-65106633D01*
X95712847Y-64952840D01*
X95806632Y-64777380D01*
X95864385Y-64586994D01*
X95879000Y-64438608D01*
X95879000Y-64438606D01*
X95883886Y-64389001D01*
X95879000Y-64339396D01*
X95879000Y-53135608D01*
X95883886Y-53086000D01*
X95864385Y-52888005D01*
X95806632Y-52697620D01*
X95738914Y-52570928D01*
X95712847Y-52522160D01*
X95586633Y-52368367D01*
X95548100Y-52336744D01*
X93586261Y-50374906D01*
X93554633Y-50336367D01*
X93400840Y-50210153D01*
X93225380Y-50116368D01*
X93034994Y-50058615D01*
X92886608Y-50044000D01*
X92837000Y-50039114D01*
X92787392Y-50044000D01*
X88187604Y-50044000D01*
X88137999Y-50039114D01*
X88088394Y-50044000D01*
X88088392Y-50044000D01*
X87940006Y-50058615D01*
X87749620Y-50116368D01*
X87574160Y-50210153D01*
X87420367Y-50336367D01*
X87388739Y-50374906D01*
X86515906Y-51247739D01*
X86477367Y-51279367D01*
X86351153Y-51433160D01*
X86257369Y-51608620D01*
X86257368Y-51608621D01*
X86199615Y-51799006D01*
X86180114Y-51997000D01*
X86185000Y-52046608D01*
X86185001Y-53010314D01*
X86119201Y-53076114D01*
X85967629Y-53302957D01*
X85925000Y-53405873D01*
X85882371Y-53302957D01*
X85730799Y-53076114D01*
X85537886Y-52883201D01*
X85311043Y-52731629D01*
X85058989Y-52627225D01*
X84791411Y-52574000D01*
X84518589Y-52574000D01*
X84251011Y-52627225D01*
X83998957Y-52731629D01*
X83772114Y-52883201D01*
X83579201Y-53076114D01*
X83427629Y-53302957D01*
X83323225Y-53555011D01*
X83270000Y-53822589D01*
X83270000Y-53915645D01*
X82705901Y-54479744D01*
X82667368Y-54511367D01*
X82635745Y-54549900D01*
X82635744Y-54549901D01*
X82541154Y-54665160D01*
X82447368Y-54840621D01*
X82389615Y-55031006D01*
X82370114Y-55229000D01*
X82375001Y-55278617D01*
X82375001Y-55489000D01*
X81980604Y-55489000D01*
X81930999Y-55484114D01*
X81881394Y-55489000D01*
X81881392Y-55489000D01*
X81733006Y-55503615D01*
X81542620Y-55561368D01*
X81367160Y-55655153D01*
X81213367Y-55781367D01*
X81181739Y-55819906D01*
X80219906Y-56781739D01*
X80181367Y-56813367D01*
X80055153Y-56967160D01*
X80004011Y-57062841D01*
X79961368Y-57142621D01*
X79903615Y-57333006D01*
X79884114Y-57531000D01*
X79889000Y-57580608D01*
X79889001Y-63704382D01*
X79884114Y-63754000D01*
X79903615Y-63951994D01*
X79961368Y-64142379D01*
X80028294Y-64267589D01*
X80055154Y-64317840D01*
X80181368Y-64471633D01*
X80219901Y-64503256D01*
X81546739Y-65830094D01*
X81578367Y-65868633D01*
X81732160Y-65994847D01*
X81907620Y-66088632D01*
X82098006Y-66146385D01*
X82246392Y-66161000D01*
X82246394Y-66161000D01*
X82295999Y-66165886D01*
X82345604Y-66161000D01*
X82766645Y-66161000D01*
X83217722Y-66612077D01*
X82832556Y-66452536D01*
X82357289Y-66358000D01*
X81872711Y-66358000D01*
X81397444Y-66452536D01*
X80949753Y-66637976D01*
X80546841Y-66907193D01*
X80204193Y-67249841D01*
X79934976Y-67652753D01*
X79749536Y-68100444D01*
X79655000Y-68575711D01*
X78545000Y-68575711D01*
X78545000Y-47366711D01*
X79655000Y-47366711D01*
X79655000Y-47851289D01*
X79749536Y-48326556D01*
X79934976Y-48774247D01*
X80204193Y-49177159D01*
X80546841Y-49519807D01*
X80949753Y-49789024D01*
X81397444Y-49974464D01*
X81872711Y-50069000D01*
X82357289Y-50069000D01*
X82832556Y-49974464D01*
X83280247Y-49789024D01*
X83683159Y-49519807D01*
X84025807Y-49177159D01*
X84295024Y-48774247D01*
X84480464Y-48326556D01*
X84575000Y-47851289D01*
X84575000Y-47366711D01*
X91085000Y-47366711D01*
X91085000Y-47851289D01*
X91179536Y-48326556D01*
X91364976Y-48774247D01*
X91634193Y-49177159D01*
X91976841Y-49519807D01*
X92379753Y-49789024D01*
X92827444Y-49974464D01*
X93302711Y-50069000D01*
X93787289Y-50069000D01*
X94262556Y-49974464D01*
X94710247Y-49789024D01*
X95113159Y-49519807D01*
X95455807Y-49177159D01*
X95725024Y-48774247D01*
X95910464Y-48326556D01*
X96005000Y-47851289D01*
X96005000Y-47366711D01*
X95910464Y-46891444D01*
X95725024Y-46443753D01*
X95455807Y-46040841D01*
X95113159Y-45698193D01*
X94710247Y-45428976D01*
X94262556Y-45243536D01*
X93787289Y-45149000D01*
X93302711Y-45149000D01*
X92827444Y-45243536D01*
X92379753Y-45428976D01*
X91976841Y-45698193D01*
X91634193Y-46040841D01*
X91364976Y-46443753D01*
X91179536Y-46891444D01*
X91085000Y-47366711D01*
X84575000Y-47366711D01*
X84480464Y-46891444D01*
X84295024Y-46443753D01*
X84025807Y-46040841D01*
X83683159Y-45698193D01*
X83280247Y-45428976D01*
X82832556Y-45243536D01*
X82357289Y-45149000D01*
X81872711Y-45149000D01*
X81397444Y-45243536D01*
X80949753Y-45428976D01*
X80546841Y-45698193D01*
X80204193Y-46040841D01*
X79934976Y-46443753D01*
X79749536Y-46891444D01*
X79655000Y-47366711D01*
X78545000Y-47366711D01*
X78545000Y-40081000D01*
X97225000Y-40081000D01*
X97225001Y-101882732D01*
G37*
X97225001Y-101882732D02*
X97157399Y-101756258D01*
X96893050Y-101660555D01*
X95937605Y-102616000D01*
X96893050Y-103571445D01*
X97157399Y-103475742D01*
X97225001Y-103336770D01*
X97225001Y-110761000D01*
X78545000Y-110761000D01*
X78545000Y-103751050D01*
X78800555Y-103751050D01*
X78896258Y-104015399D01*
X79185787Y-104156238D01*
X79497229Y-104237885D01*
X79818615Y-104257205D01*
X80137595Y-104213454D01*
X80441911Y-104108314D01*
X80615742Y-104015399D01*
X80711445Y-103751050D01*
X79756000Y-102795605D01*
X78800555Y-103751050D01*
X78545000Y-103751050D01*
X78545000Y-103543949D01*
X78620950Y-103571445D01*
X79576395Y-102616000D01*
X79935605Y-102616000D01*
X80891050Y-103571445D01*
X81155399Y-103475742D01*
X81296238Y-103186213D01*
X81377885Y-102874771D01*
X81397205Y-102553385D01*
X81353454Y-102234405D01*
X81248314Y-101930089D01*
X81155399Y-101756258D01*
X80891050Y-101660555D01*
X79935605Y-102616000D01*
X79576395Y-102616000D01*
X78620950Y-101660555D01*
X78545000Y-101688051D01*
X78545000Y-101480950D01*
X78800555Y-101480950D01*
X79756000Y-102436395D01*
X80711445Y-101480950D01*
X80615742Y-101216601D01*
X80326213Y-101075762D01*
X80014771Y-100994115D01*
X79693385Y-100974795D01*
X79374405Y-101018546D01*
X79070089Y-101123686D01*
X78896258Y-101216601D01*
X78800555Y-101480950D01*
X78545000Y-101480950D01*
X78545000Y-68575711D01*
X79655000Y-68575711D01*
X79655000Y-69060289D01*
X79749536Y-69535556D01*
X79934976Y-69983247D01*
X80204193Y-70386159D01*
X80546841Y-70728807D01*
X80949753Y-70998024D01*
X81397444Y-71183464D01*
X81872711Y-71278000D01*
X82357289Y-71278000D01*
X82832556Y-71183464D01*
X83280247Y-70998024D01*
X83683159Y-70728807D01*
X84025807Y-70386159D01*
X84295024Y-69983247D01*
X84480464Y-69535556D01*
X84575000Y-69060289D01*
X84575000Y-68575711D01*
X84480464Y-68100444D01*
X84320923Y-67715279D01*
X85223000Y-68617356D01*
X85223001Y-86610762D01*
X85208518Y-86612188D01*
X85088820Y-86648498D01*
X84978506Y-86707463D01*
X84881815Y-86786815D01*
X84802463Y-86883506D01*
X84743498Y-86993820D01*
X84707188Y-87113518D01*
X84694928Y-87238000D01*
X84694928Y-89038000D01*
X84707188Y-89162482D01*
X84743498Y-89282180D01*
X84802463Y-89392494D01*
X84881815Y-89489185D01*
X84978506Y-89568537D01*
X85088820Y-89627502D01*
X85208518Y-89663812D01*
X85223001Y-89665238D01*
X85223000Y-103160607D01*
X85223001Y-103160617D01*
X85223001Y-103222928D01*
X85033000Y-103222928D01*
X84908518Y-103235188D01*
X84788820Y-103271498D01*
X84678506Y-103330463D01*
X84581815Y-103409815D01*
X84502463Y-103506506D01*
X84443498Y-103616820D01*
X84407188Y-103736518D01*
X84394928Y-103861000D01*
X84394928Y-106261000D01*
X84407188Y-106385482D01*
X84443498Y-106505180D01*
X84502463Y-106615494D01*
X84581815Y-106712185D01*
X84678506Y-106791537D01*
X84788820Y-106850502D01*
X84908518Y-106886812D01*
X85033000Y-106899072D01*
X87433000Y-106899072D01*
X87557482Y-106886812D01*
X87677180Y-106850502D01*
X87787494Y-106791537D01*
X87884185Y-106712185D01*
X87963537Y-106615494D01*
X88022502Y-106505180D01*
X88058812Y-106385482D01*
X88071072Y-106261000D01*
X88071072Y-105843838D01*
X88106844Y-105930199D01*
X88307662Y-106230744D01*
X88563256Y-106486338D01*
X88863801Y-106687156D01*
X89197750Y-106825482D01*
X89552268Y-106896000D01*
X89913732Y-106896000D01*
X90268250Y-106825482D01*
X90602199Y-106687156D01*
X90902744Y-106486338D01*
X91158338Y-106230744D01*
X91359156Y-105930199D01*
X91497482Y-105596250D01*
X91568000Y-105241732D01*
X91568000Y-104880268D01*
X91497482Y-104525750D01*
X91359156Y-104191801D01*
X91158338Y-103891256D01*
X91018132Y-103751050D01*
X94802555Y-103751050D01*
X94898258Y-104015399D01*
X95187787Y-104156238D01*
X95499229Y-104237885D01*
X95820615Y-104257205D01*
X96139595Y-104213454D01*
X96443911Y-104108314D01*
X96617742Y-104015399D01*
X96713445Y-103751050D01*
X95758000Y-102795605D01*
X94802555Y-103751050D01*
X91018132Y-103751050D01*
X90902744Y-103635662D01*
X90743000Y-103528924D01*
X90743000Y-102678615D01*
X94116795Y-102678615D01*
X94160546Y-102997595D01*
X94265686Y-103301911D01*
X94358601Y-103475742D01*
X94622950Y-103571445D01*
X95578395Y-102616000D01*
X94622950Y-101660555D01*
X94358601Y-101756258D01*
X94217762Y-102045787D01*
X94136115Y-102357229D01*
X94116795Y-102678615D01*
X90743000Y-102678615D01*
X90743000Y-101480950D01*
X94802555Y-101480950D01*
X95758000Y-102436395D01*
X96713445Y-101480950D01*
X96617742Y-101216601D01*
X96328213Y-101075762D01*
X96016771Y-100994115D01*
X95695385Y-100974795D01*
X95376405Y-101018546D01*
X95072089Y-101123686D01*
X94898258Y-101216601D01*
X94802555Y-101480950D01*
X90743000Y-101480950D01*
X90743000Y-99373396D01*
X90903637Y-99212759D01*
X91060680Y-98977727D01*
X91168853Y-98716574D01*
X91224000Y-98439335D01*
X91224000Y-98156665D01*
X91168853Y-97879426D01*
X91060680Y-97618273D01*
X90903637Y-97383241D01*
X90703759Y-97183363D01*
X90468727Y-97026320D01*
X90207574Y-96918147D01*
X89930335Y-96863000D01*
X89647665Y-96863000D01*
X89370426Y-96918147D01*
X89109273Y-97026320D01*
X88874241Y-97183363D01*
X88674363Y-97383241D01*
X88517320Y-97618273D01*
X88409147Y-97879426D01*
X88354000Y-98156665D01*
X88354000Y-98439335D01*
X88409147Y-98716574D01*
X88517320Y-98977727D01*
X88674363Y-99212759D01*
X88723001Y-99261397D01*
X88723000Y-103528924D01*
X88563256Y-103635662D01*
X88307662Y-103891256D01*
X88106844Y-104191801D01*
X88071072Y-104278162D01*
X88071072Y-103861000D01*
X88058812Y-103736518D01*
X88022502Y-103616820D01*
X87963537Y-103506506D01*
X87884185Y-103409815D01*
X87787494Y-103330463D01*
X87677180Y-103271498D01*
X87557482Y-103235188D01*
X87433000Y-103222928D01*
X87243000Y-103222928D01*
X87243000Y-89665238D01*
X87257482Y-89663812D01*
X87377180Y-89627502D01*
X87487494Y-89568537D01*
X87584185Y-89489185D01*
X87663537Y-89392494D01*
X87722502Y-89282180D01*
X87728056Y-89263873D01*
X87794495Y-89330312D01*
X88045905Y-89498299D01*
X88325257Y-89614011D01*
X88621816Y-89673000D01*
X88924184Y-89673000D01*
X89220743Y-89614011D01*
X89500095Y-89498299D01*
X89751505Y-89330312D01*
X89965312Y-89116505D01*
X90133299Y-88865095D01*
X90249011Y-88585743D01*
X90308000Y-88289184D01*
X90308000Y-87986816D01*
X90249011Y-87690257D01*
X90133299Y-87410905D01*
X89965312Y-87159495D01*
X89783000Y-86977183D01*
X89783000Y-84648295D01*
X89829061Y-84579359D01*
X89916000Y-84369470D01*
X90002939Y-84579359D01*
X90149038Y-84798013D01*
X90334987Y-84983962D01*
X90553641Y-85130061D01*
X90796595Y-85230696D01*
X91054514Y-85282000D01*
X91092645Y-85282000D01*
X91319000Y-85508355D01*
X91319001Y-91021643D01*
X90359548Y-91981097D01*
X90207574Y-91918147D01*
X89930335Y-91863000D01*
X89647665Y-91863000D01*
X89370426Y-91918147D01*
X89109273Y-92026320D01*
X88874241Y-92183363D01*
X88674363Y-92383241D01*
X88517320Y-92618273D01*
X88409147Y-92879426D01*
X88354000Y-93156665D01*
X88354000Y-93439335D01*
X88409147Y-93716574D01*
X88517320Y-93977727D01*
X88674363Y-94212759D01*
X88874241Y-94412637D01*
X89109273Y-94569680D01*
X89370426Y-94677853D01*
X89647665Y-94733000D01*
X89930335Y-94733000D01*
X90207574Y-94677853D01*
X90468727Y-94569680D01*
X90703759Y-94412637D01*
X90903637Y-94212759D01*
X90904451Y-94211541D01*
X91034840Y-94141847D01*
X91188633Y-94015633D01*
X91220261Y-93977094D01*
X93008100Y-92189256D01*
X93046633Y-92157633D01*
X93172847Y-92003840D01*
X93266632Y-91828380D01*
X93324385Y-91637994D01*
X93339000Y-91489608D01*
X93343886Y-91440000D01*
X93339000Y-91390392D01*
X93339000Y-85139604D01*
X93343886Y-85089999D01*
X93333442Y-84983962D01*
X93324385Y-84892006D01*
X93266632Y-84701620D01*
X93172847Y-84526160D01*
X93046633Y-84372367D01*
X93008094Y-84340739D01*
X92521000Y-83853645D01*
X92521000Y-83815514D01*
X92469696Y-83557595D01*
X92369061Y-83314641D01*
X92222962Y-83095987D01*
X92196000Y-83069025D01*
X92196000Y-83006655D01*
X92200886Y-82957050D01*
X92196000Y-82907443D01*
X92181385Y-82759057D01*
X92123632Y-82568671D01*
X92029847Y-82393211D01*
X91903633Y-82239418D01*
X91865094Y-82207790D01*
X90926000Y-81268696D01*
X90926000Y-67855355D01*
X92112356Y-66669000D01*
X92333322Y-66669000D01*
X91976841Y-66907193D01*
X91634193Y-67249841D01*
X91364976Y-67652753D01*
X91179536Y-68100444D01*
X91085000Y-68575711D01*
X91085000Y-69060289D01*
X91179536Y-69535556D01*
X91364976Y-69983247D01*
X91634193Y-70386159D01*
X91976841Y-70728807D01*
X92379753Y-70998024D01*
X92827444Y-71183464D01*
X93302711Y-71278000D01*
X93787289Y-71278000D01*
X94262556Y-71183464D01*
X94710247Y-70998024D01*
X95113159Y-70728807D01*
X95455807Y-70386159D01*
X95725024Y-69983247D01*
X95910464Y-69535556D01*
X96005000Y-69060289D01*
X96005000Y-68575711D01*
X95910464Y-68100444D01*
X95725024Y-67652753D01*
X95455807Y-67249841D01*
X95113159Y-66907193D01*
X94710247Y-66637976D01*
X94262556Y-66452536D01*
X94231638Y-66446386D01*
X94316633Y-66376633D01*
X94348261Y-66338094D01*
X95548094Y-65138261D01*
X95586633Y-65106633D01*
X95712847Y-64952840D01*
X95806632Y-64777380D01*
X95864385Y-64586994D01*
X95879000Y-64438608D01*
X95879000Y-64438606D01*
X95883886Y-64389001D01*
X95879000Y-64339396D01*
X95879000Y-53135608D01*
X95883886Y-53086000D01*
X95864385Y-52888005D01*
X95806632Y-52697620D01*
X95738914Y-52570928D01*
X95712847Y-52522160D01*
X95586633Y-52368367D01*
X95548100Y-52336744D01*
X93586261Y-50374906D01*
X93554633Y-50336367D01*
X93400840Y-50210153D01*
X93225380Y-50116368D01*
X93034994Y-50058615D01*
X92886608Y-50044000D01*
X92837000Y-50039114D01*
X92787392Y-50044000D01*
X88187604Y-50044000D01*
X88137999Y-50039114D01*
X88088394Y-50044000D01*
X88088392Y-50044000D01*
X87940006Y-50058615D01*
X87749620Y-50116368D01*
X87574160Y-50210153D01*
X87420367Y-50336367D01*
X87388739Y-50374906D01*
X86515906Y-51247739D01*
X86477367Y-51279367D01*
X86351153Y-51433160D01*
X86257369Y-51608620D01*
X86257368Y-51608621D01*
X86199615Y-51799006D01*
X86180114Y-51997000D01*
X86185000Y-52046608D01*
X86185001Y-53010314D01*
X86119201Y-53076114D01*
X85967629Y-53302957D01*
X85925000Y-53405873D01*
X85882371Y-53302957D01*
X85730799Y-53076114D01*
X85537886Y-52883201D01*
X85311043Y-52731629D01*
X85058989Y-52627225D01*
X84791411Y-52574000D01*
X84518589Y-52574000D01*
X84251011Y-52627225D01*
X83998957Y-52731629D01*
X83772114Y-52883201D01*
X83579201Y-53076114D01*
X83427629Y-53302957D01*
X83323225Y-53555011D01*
X83270000Y-53822589D01*
X83270000Y-53915645D01*
X82705901Y-54479744D01*
X82667368Y-54511367D01*
X82635745Y-54549900D01*
X82635744Y-54549901D01*
X82541154Y-54665160D01*
X82447368Y-54840621D01*
X82389615Y-55031006D01*
X82370114Y-55229000D01*
X82375001Y-55278617D01*
X82375001Y-55489000D01*
X81980604Y-55489000D01*
X81930999Y-55484114D01*
X81881394Y-55489000D01*
X81881392Y-55489000D01*
X81733006Y-55503615D01*
X81542620Y-55561368D01*
X81367160Y-55655153D01*
X81213367Y-55781367D01*
X81181739Y-55819906D01*
X80219906Y-56781739D01*
X80181367Y-56813367D01*
X80055153Y-56967160D01*
X80004011Y-57062841D01*
X79961368Y-57142621D01*
X79903615Y-57333006D01*
X79884114Y-57531000D01*
X79889000Y-57580608D01*
X79889001Y-63704382D01*
X79884114Y-63754000D01*
X79903615Y-63951994D01*
X79961368Y-64142379D01*
X80028294Y-64267589D01*
X80055154Y-64317840D01*
X80181368Y-64471633D01*
X80219901Y-64503256D01*
X81546739Y-65830094D01*
X81578367Y-65868633D01*
X81732160Y-65994847D01*
X81907620Y-66088632D01*
X82098006Y-66146385D01*
X82246392Y-66161000D01*
X82246394Y-66161000D01*
X82295999Y-66165886D01*
X82345604Y-66161000D01*
X82766645Y-66161000D01*
X83217722Y-66612077D01*
X82832556Y-66452536D01*
X82357289Y-66358000D01*
X81872711Y-66358000D01*
X81397444Y-66452536D01*
X80949753Y-66637976D01*
X80546841Y-66907193D01*
X80204193Y-67249841D01*
X79934976Y-67652753D01*
X79749536Y-68100444D01*
X79655000Y-68575711D01*
X78545000Y-68575711D01*
X78545000Y-47366711D01*
X79655000Y-47366711D01*
X79655000Y-47851289D01*
X79749536Y-48326556D01*
X79934976Y-48774247D01*
X80204193Y-49177159D01*
X80546841Y-49519807D01*
X80949753Y-49789024D01*
X81397444Y-49974464D01*
X81872711Y-50069000D01*
X82357289Y-50069000D01*
X82832556Y-49974464D01*
X83280247Y-49789024D01*
X83683159Y-49519807D01*
X84025807Y-49177159D01*
X84295024Y-48774247D01*
X84480464Y-48326556D01*
X84575000Y-47851289D01*
X84575000Y-47366711D01*
X91085000Y-47366711D01*
X91085000Y-47851289D01*
X91179536Y-48326556D01*
X91364976Y-48774247D01*
X91634193Y-49177159D01*
X91976841Y-49519807D01*
X92379753Y-49789024D01*
X92827444Y-49974464D01*
X93302711Y-50069000D01*
X93787289Y-50069000D01*
X94262556Y-49974464D01*
X94710247Y-49789024D01*
X95113159Y-49519807D01*
X95455807Y-49177159D01*
X95725024Y-48774247D01*
X95910464Y-48326556D01*
X96005000Y-47851289D01*
X96005000Y-47366711D01*
X95910464Y-46891444D01*
X95725024Y-46443753D01*
X95455807Y-46040841D01*
X95113159Y-45698193D01*
X94710247Y-45428976D01*
X94262556Y-45243536D01*
X93787289Y-45149000D01*
X93302711Y-45149000D01*
X92827444Y-45243536D01*
X92379753Y-45428976D01*
X91976841Y-45698193D01*
X91634193Y-46040841D01*
X91364976Y-46443753D01*
X91179536Y-46891444D01*
X91085000Y-47366711D01*
X84575000Y-47366711D01*
X84480464Y-46891444D01*
X84295024Y-46443753D01*
X84025807Y-46040841D01*
X83683159Y-45698193D01*
X83280247Y-45428976D01*
X82832556Y-45243536D01*
X82357289Y-45149000D01*
X81872711Y-45149000D01*
X81397444Y-45243536D01*
X80949753Y-45428976D01*
X80546841Y-45698193D01*
X80204193Y-46040841D01*
X79934976Y-46443753D01*
X79749536Y-46891444D01*
X79655000Y-47366711D01*
X78545000Y-47366711D01*
X78545000Y-40081000D01*
X97225000Y-40081000D01*
X97225001Y-101882732D01*
G36*
X117225001Y-101882732D02*
G01*
X117157399Y-101756258D01*
X116893050Y-101660555D01*
X115937605Y-102616000D01*
X116893050Y-103571445D01*
X117157399Y-103475742D01*
X117225001Y-103336770D01*
X117225001Y-110761000D01*
X98545000Y-110761000D01*
X98545000Y-103751050D01*
X98800555Y-103751050D01*
X98896258Y-104015399D01*
X99185787Y-104156238D01*
X99497229Y-104237885D01*
X99818615Y-104257205D01*
X100137595Y-104213454D01*
X100441911Y-104108314D01*
X100615742Y-104015399D01*
X100711445Y-103751050D01*
X99756000Y-102795605D01*
X98800555Y-103751050D01*
X98545000Y-103751050D01*
X98545000Y-103543949D01*
X98620950Y-103571445D01*
X99576395Y-102616000D01*
X99935605Y-102616000D01*
X100891050Y-103571445D01*
X101155399Y-103475742D01*
X101296238Y-103186213D01*
X101377885Y-102874771D01*
X101397205Y-102553385D01*
X101353454Y-102234405D01*
X101248314Y-101930089D01*
X101155399Y-101756258D01*
X100891050Y-101660555D01*
X99935605Y-102616000D01*
X99576395Y-102616000D01*
X98620950Y-101660555D01*
X98545000Y-101688051D01*
X98545000Y-101480950D01*
X98800555Y-101480950D01*
X99756000Y-102436395D01*
X100711445Y-101480950D01*
X100615742Y-101216601D01*
X100326213Y-101075762D01*
X100014771Y-100994115D01*
X99693385Y-100974795D01*
X99374405Y-101018546D01*
X99070089Y-101123686D01*
X98896258Y-101216601D01*
X98800555Y-101480950D01*
X98545000Y-101480950D01*
X98545000Y-68575711D01*
X99655000Y-68575711D01*
X99655000Y-69060289D01*
X99749536Y-69535556D01*
X99934976Y-69983247D01*
X100204193Y-70386159D01*
X100546841Y-70728807D01*
X100949753Y-70998024D01*
X101397444Y-71183464D01*
X101872711Y-71278000D01*
X102357289Y-71278000D01*
X102832556Y-71183464D01*
X103280247Y-70998024D01*
X103683159Y-70728807D01*
X104025807Y-70386159D01*
X104295024Y-69983247D01*
X104480464Y-69535556D01*
X104575000Y-69060289D01*
X104575000Y-68575711D01*
X104480464Y-68100444D01*
X104320923Y-67715279D01*
X105223000Y-68617356D01*
X105223001Y-86610762D01*
X105208518Y-86612188D01*
X105088820Y-86648498D01*
X104978506Y-86707463D01*
X104881815Y-86786815D01*
X104802463Y-86883506D01*
X104743498Y-86993820D01*
X104707188Y-87113518D01*
X104694928Y-87238000D01*
X104694928Y-89038000D01*
X104707188Y-89162482D01*
X104743498Y-89282180D01*
X104802463Y-89392494D01*
X104881815Y-89489185D01*
X104978506Y-89568537D01*
X105088820Y-89627502D01*
X105208518Y-89663812D01*
X105223001Y-89665238D01*
X105223000Y-103160607D01*
X105223001Y-103160617D01*
X105223001Y-103222928D01*
X105033000Y-103222928D01*
X104908518Y-103235188D01*
X104788820Y-103271498D01*
X104678506Y-103330463D01*
X104581815Y-103409815D01*
X104502463Y-103506506D01*
X104443498Y-103616820D01*
X104407188Y-103736518D01*
X104394928Y-103861000D01*
X104394928Y-106261000D01*
X104407188Y-106385482D01*
X104443498Y-106505180D01*
X104502463Y-106615494D01*
X104581815Y-106712185D01*
X104678506Y-106791537D01*
X104788820Y-106850502D01*
X104908518Y-106886812D01*
X105033000Y-106899072D01*
X107433000Y-106899072D01*
X107557482Y-106886812D01*
X107677180Y-106850502D01*
X107787494Y-106791537D01*
X107884185Y-106712185D01*
X107963537Y-106615494D01*
X108022502Y-106505180D01*
X108058812Y-106385482D01*
X108071072Y-106261000D01*
X108071072Y-105843838D01*
X108106844Y-105930199D01*
X108307662Y-106230744D01*
X108563256Y-106486338D01*
X108863801Y-106687156D01*
X109197750Y-106825482D01*
X109552268Y-106896000D01*
X109913732Y-106896000D01*
X110268250Y-106825482D01*
X110602199Y-106687156D01*
X110902744Y-106486338D01*
X111158338Y-106230744D01*
X111359156Y-105930199D01*
X111497482Y-105596250D01*
X111568000Y-105241732D01*
X111568000Y-104880268D01*
X111497482Y-104525750D01*
X111359156Y-104191801D01*
X111158338Y-103891256D01*
X111018132Y-103751050D01*
X114802555Y-103751050D01*
X114898258Y-104015399D01*
X115187787Y-104156238D01*
X115499229Y-104237885D01*
X115820615Y-104257205D01*
X116139595Y-104213454D01*
X116443911Y-104108314D01*
X116617742Y-104015399D01*
X116713445Y-103751050D01*
X115758000Y-102795605D01*
X114802555Y-103751050D01*
X111018132Y-103751050D01*
X110902744Y-103635662D01*
X110743000Y-103528924D01*
X110743000Y-102678615D01*
X114116795Y-102678615D01*
X114160546Y-102997595D01*
X114265686Y-103301911D01*
X114358601Y-103475742D01*
X114622950Y-103571445D01*
X115578395Y-102616000D01*
X114622950Y-101660555D01*
X114358601Y-101756258D01*
X114217762Y-102045787D01*
X114136115Y-102357229D01*
X114116795Y-102678615D01*
X110743000Y-102678615D01*
X110743000Y-101480950D01*
X114802555Y-101480950D01*
X115758000Y-102436395D01*
X116713445Y-101480950D01*
X116617742Y-101216601D01*
X116328213Y-101075762D01*
X116016771Y-100994115D01*
X115695385Y-100974795D01*
X115376405Y-101018546D01*
X115072089Y-101123686D01*
X114898258Y-101216601D01*
X114802555Y-101480950D01*
X110743000Y-101480950D01*
X110743000Y-99373396D01*
X110903637Y-99212759D01*
X111060680Y-98977727D01*
X111168853Y-98716574D01*
X111224000Y-98439335D01*
X111224000Y-98156665D01*
X111168853Y-97879426D01*
X111060680Y-97618273D01*
X110903637Y-97383241D01*
X110703759Y-97183363D01*
X110468727Y-97026320D01*
X110207574Y-96918147D01*
X109930335Y-96863000D01*
X109647665Y-96863000D01*
X109370426Y-96918147D01*
X109109273Y-97026320D01*
X108874241Y-97183363D01*
X108674363Y-97383241D01*
X108517320Y-97618273D01*
X108409147Y-97879426D01*
X108354000Y-98156665D01*
X108354000Y-98439335D01*
X108409147Y-98716574D01*
X108517320Y-98977727D01*
X108674363Y-99212759D01*
X108723001Y-99261397D01*
X108723000Y-103528924D01*
X108563256Y-103635662D01*
X108307662Y-103891256D01*
X108106844Y-104191801D01*
X108071072Y-104278162D01*
X108071072Y-103861000D01*
X108058812Y-103736518D01*
X108022502Y-103616820D01*
X107963537Y-103506506D01*
X107884185Y-103409815D01*
X107787494Y-103330463D01*
X107677180Y-103271498D01*
X107557482Y-103235188D01*
X107433000Y-103222928D01*
X107243000Y-103222928D01*
X107243000Y-89665238D01*
X107257482Y-89663812D01*
X107377180Y-89627502D01*
X107487494Y-89568537D01*
X107584185Y-89489185D01*
X107663537Y-89392494D01*
X107722502Y-89282180D01*
X107728056Y-89263873D01*
X107794495Y-89330312D01*
X108045905Y-89498299D01*
X108325257Y-89614011D01*
X108621816Y-89673000D01*
X108924184Y-89673000D01*
X109220743Y-89614011D01*
X109500095Y-89498299D01*
X109751505Y-89330312D01*
X109965312Y-89116505D01*
X110133299Y-88865095D01*
X110249011Y-88585743D01*
X110308000Y-88289184D01*
X110308000Y-87986816D01*
X110249011Y-87690257D01*
X110133299Y-87410905D01*
X109965312Y-87159495D01*
X109783000Y-86977183D01*
X109783000Y-84648295D01*
X109829061Y-84579359D01*
X109916000Y-84369470D01*
X110002939Y-84579359D01*
X110149038Y-84798013D01*
X110334987Y-84983962D01*
X110553641Y-85130061D01*
X110796595Y-85230696D01*
X111054514Y-85282000D01*
X111092645Y-85282000D01*
X111319000Y-85508355D01*
X111319001Y-91021643D01*
X110359548Y-91981097D01*
X110207574Y-91918147D01*
X109930335Y-91863000D01*
X109647665Y-91863000D01*
X109370426Y-91918147D01*
X109109273Y-92026320D01*
X108874241Y-92183363D01*
X108674363Y-92383241D01*
X108517320Y-92618273D01*
X108409147Y-92879426D01*
X108354000Y-93156665D01*
X108354000Y-93439335D01*
X108409147Y-93716574D01*
X108517320Y-93977727D01*
X108674363Y-94212759D01*
X108874241Y-94412637D01*
X109109273Y-94569680D01*
X109370426Y-94677853D01*
X109647665Y-94733000D01*
X109930335Y-94733000D01*
X110207574Y-94677853D01*
X110468727Y-94569680D01*
X110703759Y-94412637D01*
X110903637Y-94212759D01*
X110904451Y-94211541D01*
X111034840Y-94141847D01*
X111188633Y-94015633D01*
X111220261Y-93977094D01*
X113008100Y-92189256D01*
X113046633Y-92157633D01*
X113172847Y-92003840D01*
X113266632Y-91828380D01*
X113324385Y-91637994D01*
X113339000Y-91489608D01*
X113343886Y-91440000D01*
X113339000Y-91390392D01*
X113339000Y-85139604D01*
X113343886Y-85089999D01*
X113333442Y-84983962D01*
X113324385Y-84892006D01*
X113266632Y-84701620D01*
X113172847Y-84526160D01*
X113046633Y-84372367D01*
X113008094Y-84340739D01*
X112521000Y-83853645D01*
X112521000Y-83815514D01*
X112469696Y-83557595D01*
X112369061Y-83314641D01*
X112222962Y-83095987D01*
X112196000Y-83069025D01*
X112196000Y-83006655D01*
X112200886Y-82957050D01*
X112196000Y-82907443D01*
X112181385Y-82759057D01*
X112123632Y-82568671D01*
X112029847Y-82393211D01*
X111903633Y-82239418D01*
X111865094Y-82207790D01*
X110926000Y-81268696D01*
X110926000Y-67855355D01*
X112112356Y-66669000D01*
X112333322Y-66669000D01*
X111976841Y-66907193D01*
X111634193Y-67249841D01*
X111364976Y-67652753D01*
X111179536Y-68100444D01*
X111085000Y-68575711D01*
X111085000Y-69060289D01*
X111179536Y-69535556D01*
X111364976Y-69983247D01*
X111634193Y-70386159D01*
X111976841Y-70728807D01*
X112379753Y-70998024D01*
X112827444Y-71183464D01*
X113302711Y-71278000D01*
X113787289Y-71278000D01*
X114262556Y-71183464D01*
X114710247Y-70998024D01*
X115113159Y-70728807D01*
X115455807Y-70386159D01*
X115725024Y-69983247D01*
X115910464Y-69535556D01*
X116005000Y-69060289D01*
X116005000Y-68575711D01*
X115910464Y-68100444D01*
X115725024Y-67652753D01*
X115455807Y-67249841D01*
X115113159Y-66907193D01*
X114710247Y-66637976D01*
X114262556Y-66452536D01*
X114231638Y-66446386D01*
X114316633Y-66376633D01*
X114348261Y-66338094D01*
X115548094Y-65138261D01*
X115586633Y-65106633D01*
X115712847Y-64952840D01*
X115806632Y-64777380D01*
X115864385Y-64586994D01*
X115879000Y-64438608D01*
X115879000Y-64438606D01*
X115883886Y-64389001D01*
X115879000Y-64339396D01*
X115879000Y-53135608D01*
X115883886Y-53086000D01*
X115864385Y-52888005D01*
X115806632Y-52697620D01*
X115738914Y-52570928D01*
X115712847Y-52522160D01*
X115586633Y-52368367D01*
X115548100Y-52336744D01*
X113586261Y-50374906D01*
X113554633Y-50336367D01*
X113400840Y-50210153D01*
X113225380Y-50116368D01*
X113034994Y-50058615D01*
X112886608Y-50044000D01*
X112837000Y-50039114D01*
X112787392Y-50044000D01*
X108187604Y-50044000D01*
X108137999Y-50039114D01*
X108088394Y-50044000D01*
X108088392Y-50044000D01*
X107940006Y-50058615D01*
X107749620Y-50116368D01*
X107574160Y-50210153D01*
X107420367Y-50336367D01*
X107388739Y-50374906D01*
X106515906Y-51247739D01*
X106477367Y-51279367D01*
X106351153Y-51433160D01*
X106257369Y-51608620D01*
X106257368Y-51608621D01*
X106199615Y-51799006D01*
X106180114Y-51997000D01*
X106185000Y-52046608D01*
X106185001Y-53010314D01*
X106119201Y-53076114D01*
X105967629Y-53302957D01*
X105925000Y-53405873D01*
X105882371Y-53302957D01*
X105730799Y-53076114D01*
X105537886Y-52883201D01*
X105311043Y-52731629D01*
X105058989Y-52627225D01*
X104791411Y-52574000D01*
X104518589Y-52574000D01*
X104251011Y-52627225D01*
X103998957Y-52731629D01*
X103772114Y-52883201D01*
X103579201Y-53076114D01*
X103427629Y-53302957D01*
X103323225Y-53555011D01*
X103270000Y-53822589D01*
X103270000Y-53915645D01*
X102705901Y-54479744D01*
X102667368Y-54511367D01*
X102635745Y-54549900D01*
X102635744Y-54549901D01*
X102541154Y-54665160D01*
X102447368Y-54840621D01*
X102389615Y-55031006D01*
X102370114Y-55229000D01*
X102375001Y-55278617D01*
X102375001Y-55489000D01*
X101980604Y-55489000D01*
X101930999Y-55484114D01*
X101881394Y-55489000D01*
X101881392Y-55489000D01*
X101733006Y-55503615D01*
X101542620Y-55561368D01*
X101367160Y-55655153D01*
X101213367Y-55781367D01*
X101181739Y-55819906D01*
X100219906Y-56781739D01*
X100181367Y-56813367D01*
X100055153Y-56967160D01*
X100004011Y-57062841D01*
X99961368Y-57142621D01*
X99903615Y-57333006D01*
X99884114Y-57531000D01*
X99889000Y-57580608D01*
X99889001Y-63704382D01*
X99884114Y-63754000D01*
X99903615Y-63951994D01*
X99961368Y-64142379D01*
X100028294Y-64267589D01*
X100055154Y-64317840D01*
X100181368Y-64471633D01*
X100219901Y-64503256D01*
X101546739Y-65830094D01*
X101578367Y-65868633D01*
X101732160Y-65994847D01*
X101907620Y-66088632D01*
X102098006Y-66146385D01*
X102246392Y-66161000D01*
X102246394Y-66161000D01*
X102295999Y-66165886D01*
X102345604Y-66161000D01*
X102766645Y-66161000D01*
X103217722Y-66612077D01*
X102832556Y-66452536D01*
X102357289Y-66358000D01*
X101872711Y-66358000D01*
X101397444Y-66452536D01*
X100949753Y-66637976D01*
X100546841Y-66907193D01*
X100204193Y-67249841D01*
X99934976Y-67652753D01*
X99749536Y-68100444D01*
X99655000Y-68575711D01*
X98545000Y-68575711D01*
X98545000Y-47366711D01*
X99655000Y-47366711D01*
X99655000Y-47851289D01*
X99749536Y-48326556D01*
X99934976Y-48774247D01*
X100204193Y-49177159D01*
X100546841Y-49519807D01*
X100949753Y-49789024D01*
X101397444Y-49974464D01*
X101872711Y-50069000D01*
X102357289Y-50069000D01*
X102832556Y-49974464D01*
X103280247Y-49789024D01*
X103683159Y-49519807D01*
X104025807Y-49177159D01*
X104295024Y-48774247D01*
X104480464Y-48326556D01*
X104575000Y-47851289D01*
X104575000Y-47366711D01*
X111085000Y-47366711D01*
X111085000Y-47851289D01*
X111179536Y-48326556D01*
X111364976Y-48774247D01*
X111634193Y-49177159D01*
X111976841Y-49519807D01*
X112379753Y-49789024D01*
X112827444Y-49974464D01*
X113302711Y-50069000D01*
X113787289Y-50069000D01*
X114262556Y-49974464D01*
X114710247Y-49789024D01*
X115113159Y-49519807D01*
X115455807Y-49177159D01*
X115725024Y-48774247D01*
X115910464Y-48326556D01*
X116005000Y-47851289D01*
X116005000Y-47366711D01*
X115910464Y-46891444D01*
X115725024Y-46443753D01*
X115455807Y-46040841D01*
X115113159Y-45698193D01*
X114710247Y-45428976D01*
X114262556Y-45243536D01*
X113787289Y-45149000D01*
X113302711Y-45149000D01*
X112827444Y-45243536D01*
X112379753Y-45428976D01*
X111976841Y-45698193D01*
X111634193Y-46040841D01*
X111364976Y-46443753D01*
X111179536Y-46891444D01*
X111085000Y-47366711D01*
X104575000Y-47366711D01*
X104480464Y-46891444D01*
X104295024Y-46443753D01*
X104025807Y-46040841D01*
X103683159Y-45698193D01*
X103280247Y-45428976D01*
X102832556Y-45243536D01*
X102357289Y-45149000D01*
X101872711Y-45149000D01*
X101397444Y-45243536D01*
X100949753Y-45428976D01*
X100546841Y-45698193D01*
X100204193Y-46040841D01*
X99934976Y-46443753D01*
X99749536Y-46891444D01*
X99655000Y-47366711D01*
X98545000Y-47366711D01*
X98545000Y-40081000D01*
X117225000Y-40081000D01*
X117225001Y-101882732D01*
G37*
X117225001Y-101882732D02*
X117157399Y-101756258D01*
X116893050Y-101660555D01*
X115937605Y-102616000D01*
X116893050Y-103571445D01*
X117157399Y-103475742D01*
X117225001Y-103336770D01*
X117225001Y-110761000D01*
X98545000Y-110761000D01*
X98545000Y-103751050D01*
X98800555Y-103751050D01*
X98896258Y-104015399D01*
X99185787Y-104156238D01*
X99497229Y-104237885D01*
X99818615Y-104257205D01*
X100137595Y-104213454D01*
X100441911Y-104108314D01*
X100615742Y-104015399D01*
X100711445Y-103751050D01*
X99756000Y-102795605D01*
X98800555Y-103751050D01*
X98545000Y-103751050D01*
X98545000Y-103543949D01*
X98620950Y-103571445D01*
X99576395Y-102616000D01*
X99935605Y-102616000D01*
X100891050Y-103571445D01*
X101155399Y-103475742D01*
X101296238Y-103186213D01*
X101377885Y-102874771D01*
X101397205Y-102553385D01*
X101353454Y-102234405D01*
X101248314Y-101930089D01*
X101155399Y-101756258D01*
X100891050Y-101660555D01*
X99935605Y-102616000D01*
X99576395Y-102616000D01*
X98620950Y-101660555D01*
X98545000Y-101688051D01*
X98545000Y-101480950D01*
X98800555Y-101480950D01*
X99756000Y-102436395D01*
X100711445Y-101480950D01*
X100615742Y-101216601D01*
X100326213Y-101075762D01*
X100014771Y-100994115D01*
X99693385Y-100974795D01*
X99374405Y-101018546D01*
X99070089Y-101123686D01*
X98896258Y-101216601D01*
X98800555Y-101480950D01*
X98545000Y-101480950D01*
X98545000Y-68575711D01*
X99655000Y-68575711D01*
X99655000Y-69060289D01*
X99749536Y-69535556D01*
X99934976Y-69983247D01*
X100204193Y-70386159D01*
X100546841Y-70728807D01*
X100949753Y-70998024D01*
X101397444Y-71183464D01*
X101872711Y-71278000D01*
X102357289Y-71278000D01*
X102832556Y-71183464D01*
X103280247Y-70998024D01*
X103683159Y-70728807D01*
X104025807Y-70386159D01*
X104295024Y-69983247D01*
X104480464Y-69535556D01*
X104575000Y-69060289D01*
X104575000Y-68575711D01*
X104480464Y-68100444D01*
X104320923Y-67715279D01*
X105223000Y-68617356D01*
X105223001Y-86610762D01*
X105208518Y-86612188D01*
X105088820Y-86648498D01*
X104978506Y-86707463D01*
X104881815Y-86786815D01*
X104802463Y-86883506D01*
X104743498Y-86993820D01*
X104707188Y-87113518D01*
X104694928Y-87238000D01*
X104694928Y-89038000D01*
X104707188Y-89162482D01*
X104743498Y-89282180D01*
X104802463Y-89392494D01*
X104881815Y-89489185D01*
X104978506Y-89568537D01*
X105088820Y-89627502D01*
X105208518Y-89663812D01*
X105223001Y-89665238D01*
X105223000Y-103160607D01*
X105223001Y-103160617D01*
X105223001Y-103222928D01*
X105033000Y-103222928D01*
X104908518Y-103235188D01*
X104788820Y-103271498D01*
X104678506Y-103330463D01*
X104581815Y-103409815D01*
X104502463Y-103506506D01*
X104443498Y-103616820D01*
X104407188Y-103736518D01*
X104394928Y-103861000D01*
X104394928Y-106261000D01*
X104407188Y-106385482D01*
X104443498Y-106505180D01*
X104502463Y-106615494D01*
X104581815Y-106712185D01*
X104678506Y-106791537D01*
X104788820Y-106850502D01*
X104908518Y-106886812D01*
X105033000Y-106899072D01*
X107433000Y-106899072D01*
X107557482Y-106886812D01*
X107677180Y-106850502D01*
X107787494Y-106791537D01*
X107884185Y-106712185D01*
X107963537Y-106615494D01*
X108022502Y-106505180D01*
X108058812Y-106385482D01*
X108071072Y-106261000D01*
X108071072Y-105843838D01*
X108106844Y-105930199D01*
X108307662Y-106230744D01*
X108563256Y-106486338D01*
X108863801Y-106687156D01*
X109197750Y-106825482D01*
X109552268Y-106896000D01*
X109913732Y-106896000D01*
X110268250Y-106825482D01*
X110602199Y-106687156D01*
X110902744Y-106486338D01*
X111158338Y-106230744D01*
X111359156Y-105930199D01*
X111497482Y-105596250D01*
X111568000Y-105241732D01*
X111568000Y-104880268D01*
X111497482Y-104525750D01*
X111359156Y-104191801D01*
X111158338Y-103891256D01*
X111018132Y-103751050D01*
X114802555Y-103751050D01*
X114898258Y-104015399D01*
X115187787Y-104156238D01*
X115499229Y-104237885D01*
X115820615Y-104257205D01*
X116139595Y-104213454D01*
X116443911Y-104108314D01*
X116617742Y-104015399D01*
X116713445Y-103751050D01*
X115758000Y-102795605D01*
X114802555Y-103751050D01*
X111018132Y-103751050D01*
X110902744Y-103635662D01*
X110743000Y-103528924D01*
X110743000Y-102678615D01*
X114116795Y-102678615D01*
X114160546Y-102997595D01*
X114265686Y-103301911D01*
X114358601Y-103475742D01*
X114622950Y-103571445D01*
X115578395Y-102616000D01*
X114622950Y-101660555D01*
X114358601Y-101756258D01*
X114217762Y-102045787D01*
X114136115Y-102357229D01*
X114116795Y-102678615D01*
X110743000Y-102678615D01*
X110743000Y-101480950D01*
X114802555Y-101480950D01*
X115758000Y-102436395D01*
X116713445Y-101480950D01*
X116617742Y-101216601D01*
X116328213Y-101075762D01*
X116016771Y-100994115D01*
X115695385Y-100974795D01*
X115376405Y-101018546D01*
X115072089Y-101123686D01*
X114898258Y-101216601D01*
X114802555Y-101480950D01*
X110743000Y-101480950D01*
X110743000Y-99373396D01*
X110903637Y-99212759D01*
X111060680Y-98977727D01*
X111168853Y-98716574D01*
X111224000Y-98439335D01*
X111224000Y-98156665D01*
X111168853Y-97879426D01*
X111060680Y-97618273D01*
X110903637Y-97383241D01*
X110703759Y-97183363D01*
X110468727Y-97026320D01*
X110207574Y-96918147D01*
X109930335Y-96863000D01*
X109647665Y-96863000D01*
X109370426Y-96918147D01*
X109109273Y-97026320D01*
X108874241Y-97183363D01*
X108674363Y-97383241D01*
X108517320Y-97618273D01*
X108409147Y-97879426D01*
X108354000Y-98156665D01*
X108354000Y-98439335D01*
X108409147Y-98716574D01*
X108517320Y-98977727D01*
X108674363Y-99212759D01*
X108723001Y-99261397D01*
X108723000Y-103528924D01*
X108563256Y-103635662D01*
X108307662Y-103891256D01*
X108106844Y-104191801D01*
X108071072Y-104278162D01*
X108071072Y-103861000D01*
X108058812Y-103736518D01*
X108022502Y-103616820D01*
X107963537Y-103506506D01*
X107884185Y-103409815D01*
X107787494Y-103330463D01*
X107677180Y-103271498D01*
X107557482Y-103235188D01*
X107433000Y-103222928D01*
X107243000Y-103222928D01*
X107243000Y-89665238D01*
X107257482Y-89663812D01*
X107377180Y-89627502D01*
X107487494Y-89568537D01*
X107584185Y-89489185D01*
X107663537Y-89392494D01*
X107722502Y-89282180D01*
X107728056Y-89263873D01*
X107794495Y-89330312D01*
X108045905Y-89498299D01*
X108325257Y-89614011D01*
X108621816Y-89673000D01*
X108924184Y-89673000D01*
X109220743Y-89614011D01*
X109500095Y-89498299D01*
X109751505Y-89330312D01*
X109965312Y-89116505D01*
X110133299Y-88865095D01*
X110249011Y-88585743D01*
X110308000Y-88289184D01*
X110308000Y-87986816D01*
X110249011Y-87690257D01*
X110133299Y-87410905D01*
X109965312Y-87159495D01*
X109783000Y-86977183D01*
X109783000Y-84648295D01*
X109829061Y-84579359D01*
X109916000Y-84369470D01*
X110002939Y-84579359D01*
X110149038Y-84798013D01*
X110334987Y-84983962D01*
X110553641Y-85130061D01*
X110796595Y-85230696D01*
X111054514Y-85282000D01*
X111092645Y-85282000D01*
X111319000Y-85508355D01*
X111319001Y-91021643D01*
X110359548Y-91981097D01*
X110207574Y-91918147D01*
X109930335Y-91863000D01*
X109647665Y-91863000D01*
X109370426Y-91918147D01*
X109109273Y-92026320D01*
X108874241Y-92183363D01*
X108674363Y-92383241D01*
X108517320Y-92618273D01*
X108409147Y-92879426D01*
X108354000Y-93156665D01*
X108354000Y-93439335D01*
X108409147Y-93716574D01*
X108517320Y-93977727D01*
X108674363Y-94212759D01*
X108874241Y-94412637D01*
X109109273Y-94569680D01*
X109370426Y-94677853D01*
X109647665Y-94733000D01*
X109930335Y-94733000D01*
X110207574Y-94677853D01*
X110468727Y-94569680D01*
X110703759Y-94412637D01*
X110903637Y-94212759D01*
X110904451Y-94211541D01*
X111034840Y-94141847D01*
X111188633Y-94015633D01*
X111220261Y-93977094D01*
X113008100Y-92189256D01*
X113046633Y-92157633D01*
X113172847Y-92003840D01*
X113266632Y-91828380D01*
X113324385Y-91637994D01*
X113339000Y-91489608D01*
X113343886Y-91440000D01*
X113339000Y-91390392D01*
X113339000Y-85139604D01*
X113343886Y-85089999D01*
X113333442Y-84983962D01*
X113324385Y-84892006D01*
X113266632Y-84701620D01*
X113172847Y-84526160D01*
X113046633Y-84372367D01*
X113008094Y-84340739D01*
X112521000Y-83853645D01*
X112521000Y-83815514D01*
X112469696Y-83557595D01*
X112369061Y-83314641D01*
X112222962Y-83095987D01*
X112196000Y-83069025D01*
X112196000Y-83006655D01*
X112200886Y-82957050D01*
X112196000Y-82907443D01*
X112181385Y-82759057D01*
X112123632Y-82568671D01*
X112029847Y-82393211D01*
X111903633Y-82239418D01*
X111865094Y-82207790D01*
X110926000Y-81268696D01*
X110926000Y-67855355D01*
X112112356Y-66669000D01*
X112333322Y-66669000D01*
X111976841Y-66907193D01*
X111634193Y-67249841D01*
X111364976Y-67652753D01*
X111179536Y-68100444D01*
X111085000Y-68575711D01*
X111085000Y-69060289D01*
X111179536Y-69535556D01*
X111364976Y-69983247D01*
X111634193Y-70386159D01*
X111976841Y-70728807D01*
X112379753Y-70998024D01*
X112827444Y-71183464D01*
X113302711Y-71278000D01*
X113787289Y-71278000D01*
X114262556Y-71183464D01*
X114710247Y-70998024D01*
X115113159Y-70728807D01*
X115455807Y-70386159D01*
X115725024Y-69983247D01*
X115910464Y-69535556D01*
X116005000Y-69060289D01*
X116005000Y-68575711D01*
X115910464Y-68100444D01*
X115725024Y-67652753D01*
X115455807Y-67249841D01*
X115113159Y-66907193D01*
X114710247Y-66637976D01*
X114262556Y-66452536D01*
X114231638Y-66446386D01*
X114316633Y-66376633D01*
X114348261Y-66338094D01*
X115548094Y-65138261D01*
X115586633Y-65106633D01*
X115712847Y-64952840D01*
X115806632Y-64777380D01*
X115864385Y-64586994D01*
X115879000Y-64438608D01*
X115879000Y-64438606D01*
X115883886Y-64389001D01*
X115879000Y-64339396D01*
X115879000Y-53135608D01*
X115883886Y-53086000D01*
X115864385Y-52888005D01*
X115806632Y-52697620D01*
X115738914Y-52570928D01*
X115712847Y-52522160D01*
X115586633Y-52368367D01*
X115548100Y-52336744D01*
X113586261Y-50374906D01*
X113554633Y-50336367D01*
X113400840Y-50210153D01*
X113225380Y-50116368D01*
X113034994Y-50058615D01*
X112886608Y-50044000D01*
X112837000Y-50039114D01*
X112787392Y-50044000D01*
X108187604Y-50044000D01*
X108137999Y-50039114D01*
X108088394Y-50044000D01*
X108088392Y-50044000D01*
X107940006Y-50058615D01*
X107749620Y-50116368D01*
X107574160Y-50210153D01*
X107420367Y-50336367D01*
X107388739Y-50374906D01*
X106515906Y-51247739D01*
X106477367Y-51279367D01*
X106351153Y-51433160D01*
X106257369Y-51608620D01*
X106257368Y-51608621D01*
X106199615Y-51799006D01*
X106180114Y-51997000D01*
X106185000Y-52046608D01*
X106185001Y-53010314D01*
X106119201Y-53076114D01*
X105967629Y-53302957D01*
X105925000Y-53405873D01*
X105882371Y-53302957D01*
X105730799Y-53076114D01*
X105537886Y-52883201D01*
X105311043Y-52731629D01*
X105058989Y-52627225D01*
X104791411Y-52574000D01*
X104518589Y-52574000D01*
X104251011Y-52627225D01*
X103998957Y-52731629D01*
X103772114Y-52883201D01*
X103579201Y-53076114D01*
X103427629Y-53302957D01*
X103323225Y-53555011D01*
X103270000Y-53822589D01*
X103270000Y-53915645D01*
X102705901Y-54479744D01*
X102667368Y-54511367D01*
X102635745Y-54549900D01*
X102635744Y-54549901D01*
X102541154Y-54665160D01*
X102447368Y-54840621D01*
X102389615Y-55031006D01*
X102370114Y-55229000D01*
X102375001Y-55278617D01*
X102375001Y-55489000D01*
X101980604Y-55489000D01*
X101930999Y-55484114D01*
X101881394Y-55489000D01*
X101881392Y-55489000D01*
X101733006Y-55503615D01*
X101542620Y-55561368D01*
X101367160Y-55655153D01*
X101213367Y-55781367D01*
X101181739Y-55819906D01*
X100219906Y-56781739D01*
X100181367Y-56813367D01*
X100055153Y-56967160D01*
X100004011Y-57062841D01*
X99961368Y-57142621D01*
X99903615Y-57333006D01*
X99884114Y-57531000D01*
X99889000Y-57580608D01*
X99889001Y-63704382D01*
X99884114Y-63754000D01*
X99903615Y-63951994D01*
X99961368Y-64142379D01*
X100028294Y-64267589D01*
X100055154Y-64317840D01*
X100181368Y-64471633D01*
X100219901Y-64503256D01*
X101546739Y-65830094D01*
X101578367Y-65868633D01*
X101732160Y-65994847D01*
X101907620Y-66088632D01*
X102098006Y-66146385D01*
X102246392Y-66161000D01*
X102246394Y-66161000D01*
X102295999Y-66165886D01*
X102345604Y-66161000D01*
X102766645Y-66161000D01*
X103217722Y-66612077D01*
X102832556Y-66452536D01*
X102357289Y-66358000D01*
X101872711Y-66358000D01*
X101397444Y-66452536D01*
X100949753Y-66637976D01*
X100546841Y-66907193D01*
X100204193Y-67249841D01*
X99934976Y-67652753D01*
X99749536Y-68100444D01*
X99655000Y-68575711D01*
X98545000Y-68575711D01*
X98545000Y-47366711D01*
X99655000Y-47366711D01*
X99655000Y-47851289D01*
X99749536Y-48326556D01*
X99934976Y-48774247D01*
X100204193Y-49177159D01*
X100546841Y-49519807D01*
X100949753Y-49789024D01*
X101397444Y-49974464D01*
X101872711Y-50069000D01*
X102357289Y-50069000D01*
X102832556Y-49974464D01*
X103280247Y-49789024D01*
X103683159Y-49519807D01*
X104025807Y-49177159D01*
X104295024Y-48774247D01*
X104480464Y-48326556D01*
X104575000Y-47851289D01*
X104575000Y-47366711D01*
X111085000Y-47366711D01*
X111085000Y-47851289D01*
X111179536Y-48326556D01*
X111364976Y-48774247D01*
X111634193Y-49177159D01*
X111976841Y-49519807D01*
X112379753Y-49789024D01*
X112827444Y-49974464D01*
X113302711Y-50069000D01*
X113787289Y-50069000D01*
X114262556Y-49974464D01*
X114710247Y-49789024D01*
X115113159Y-49519807D01*
X115455807Y-49177159D01*
X115725024Y-48774247D01*
X115910464Y-48326556D01*
X116005000Y-47851289D01*
X116005000Y-47366711D01*
X115910464Y-46891444D01*
X115725024Y-46443753D01*
X115455807Y-46040841D01*
X115113159Y-45698193D01*
X114710247Y-45428976D01*
X114262556Y-45243536D01*
X113787289Y-45149000D01*
X113302711Y-45149000D01*
X112827444Y-45243536D01*
X112379753Y-45428976D01*
X111976841Y-45698193D01*
X111634193Y-46040841D01*
X111364976Y-46443753D01*
X111179536Y-46891444D01*
X111085000Y-47366711D01*
X104575000Y-47366711D01*
X104480464Y-46891444D01*
X104295024Y-46443753D01*
X104025807Y-46040841D01*
X103683159Y-45698193D01*
X103280247Y-45428976D01*
X102832556Y-45243536D01*
X102357289Y-45149000D01*
X101872711Y-45149000D01*
X101397444Y-45243536D01*
X100949753Y-45428976D01*
X100546841Y-45698193D01*
X100204193Y-46040841D01*
X99934976Y-46443753D01*
X99749536Y-46891444D01*
X99655000Y-47366711D01*
X98545000Y-47366711D01*
X98545000Y-40081000D01*
X117225000Y-40081000D01*
X117225001Y-101882732D01*
G36*
X137225001Y-101882732D02*
G01*
X137157399Y-101756258D01*
X136893050Y-101660555D01*
X135937605Y-102616000D01*
X136893050Y-103571445D01*
X137157399Y-103475742D01*
X137225001Y-103336770D01*
X137225001Y-110761000D01*
X118545000Y-110761000D01*
X118545000Y-103751050D01*
X118800555Y-103751050D01*
X118896258Y-104015399D01*
X119185787Y-104156238D01*
X119497229Y-104237885D01*
X119818615Y-104257205D01*
X120137595Y-104213454D01*
X120441911Y-104108314D01*
X120615742Y-104015399D01*
X120711445Y-103751050D01*
X119756000Y-102795605D01*
X118800555Y-103751050D01*
X118545000Y-103751050D01*
X118545000Y-103543949D01*
X118620950Y-103571445D01*
X119576395Y-102616000D01*
X119935605Y-102616000D01*
X120891050Y-103571445D01*
X121155399Y-103475742D01*
X121296238Y-103186213D01*
X121377885Y-102874771D01*
X121397205Y-102553385D01*
X121353454Y-102234405D01*
X121248314Y-101930089D01*
X121155399Y-101756258D01*
X120891050Y-101660555D01*
X119935605Y-102616000D01*
X119576395Y-102616000D01*
X118620950Y-101660555D01*
X118545000Y-101688051D01*
X118545000Y-101480950D01*
X118800555Y-101480950D01*
X119756000Y-102436395D01*
X120711445Y-101480950D01*
X120615742Y-101216601D01*
X120326213Y-101075762D01*
X120014771Y-100994115D01*
X119693385Y-100974795D01*
X119374405Y-101018546D01*
X119070089Y-101123686D01*
X118896258Y-101216601D01*
X118800555Y-101480950D01*
X118545000Y-101480950D01*
X118545000Y-68575711D01*
X119655000Y-68575711D01*
X119655000Y-69060289D01*
X119749536Y-69535556D01*
X119934976Y-69983247D01*
X120204193Y-70386159D01*
X120546841Y-70728807D01*
X120949753Y-70998024D01*
X121397444Y-71183464D01*
X121872711Y-71278000D01*
X122357289Y-71278000D01*
X122832556Y-71183464D01*
X123280247Y-70998024D01*
X123683159Y-70728807D01*
X124025807Y-70386159D01*
X124295024Y-69983247D01*
X124480464Y-69535556D01*
X124575000Y-69060289D01*
X124575000Y-68575711D01*
X124480464Y-68100444D01*
X124320923Y-67715279D01*
X125223000Y-68617356D01*
X125223001Y-86610762D01*
X125208518Y-86612188D01*
X125088820Y-86648498D01*
X124978506Y-86707463D01*
X124881815Y-86786815D01*
X124802463Y-86883506D01*
X124743498Y-86993820D01*
X124707188Y-87113518D01*
X124694928Y-87238000D01*
X124694928Y-89038000D01*
X124707188Y-89162482D01*
X124743498Y-89282180D01*
X124802463Y-89392494D01*
X124881815Y-89489185D01*
X124978506Y-89568537D01*
X125088820Y-89627502D01*
X125208518Y-89663812D01*
X125223001Y-89665238D01*
X125223000Y-103160607D01*
X125223001Y-103160617D01*
X125223001Y-103222928D01*
X125033000Y-103222928D01*
X124908518Y-103235188D01*
X124788820Y-103271498D01*
X124678506Y-103330463D01*
X124581815Y-103409815D01*
X124502463Y-103506506D01*
X124443498Y-103616820D01*
X124407188Y-103736518D01*
X124394928Y-103861000D01*
X124394928Y-106261000D01*
X124407188Y-106385482D01*
X124443498Y-106505180D01*
X124502463Y-106615494D01*
X124581815Y-106712185D01*
X124678506Y-106791537D01*
X124788820Y-106850502D01*
X124908518Y-106886812D01*
X125033000Y-106899072D01*
X127433000Y-106899072D01*
X127557482Y-106886812D01*
X127677180Y-106850502D01*
X127787494Y-106791537D01*
X127884185Y-106712185D01*
X127963537Y-106615494D01*
X128022502Y-106505180D01*
X128058812Y-106385482D01*
X128071072Y-106261000D01*
X128071072Y-105843838D01*
X128106844Y-105930199D01*
X128307662Y-106230744D01*
X128563256Y-106486338D01*
X128863801Y-106687156D01*
X129197750Y-106825482D01*
X129552268Y-106896000D01*
X129913732Y-106896000D01*
X130268250Y-106825482D01*
X130602199Y-106687156D01*
X130902744Y-106486338D01*
X131158338Y-106230744D01*
X131359156Y-105930199D01*
X131497482Y-105596250D01*
X131568000Y-105241732D01*
X131568000Y-104880268D01*
X131497482Y-104525750D01*
X131359156Y-104191801D01*
X131158338Y-103891256D01*
X131018132Y-103751050D01*
X134802555Y-103751050D01*
X134898258Y-104015399D01*
X135187787Y-104156238D01*
X135499229Y-104237885D01*
X135820615Y-104257205D01*
X136139595Y-104213454D01*
X136443911Y-104108314D01*
X136617742Y-104015399D01*
X136713445Y-103751050D01*
X135758000Y-102795605D01*
X134802555Y-103751050D01*
X131018132Y-103751050D01*
X130902744Y-103635662D01*
X130743000Y-103528924D01*
X130743000Y-102678615D01*
X134116795Y-102678615D01*
X134160546Y-102997595D01*
X134265686Y-103301911D01*
X134358601Y-103475742D01*
X134622950Y-103571445D01*
X135578395Y-102616000D01*
X134622950Y-101660555D01*
X134358601Y-101756258D01*
X134217762Y-102045787D01*
X134136115Y-102357229D01*
X134116795Y-102678615D01*
X130743000Y-102678615D01*
X130743000Y-101480950D01*
X134802555Y-101480950D01*
X135758000Y-102436395D01*
X136713445Y-101480950D01*
X136617742Y-101216601D01*
X136328213Y-101075762D01*
X136016771Y-100994115D01*
X135695385Y-100974795D01*
X135376405Y-101018546D01*
X135072089Y-101123686D01*
X134898258Y-101216601D01*
X134802555Y-101480950D01*
X130743000Y-101480950D01*
X130743000Y-99373396D01*
X130903637Y-99212759D01*
X131060680Y-98977727D01*
X131168853Y-98716574D01*
X131224000Y-98439335D01*
X131224000Y-98156665D01*
X131168853Y-97879426D01*
X131060680Y-97618273D01*
X130903637Y-97383241D01*
X130703759Y-97183363D01*
X130468727Y-97026320D01*
X130207574Y-96918147D01*
X129930335Y-96863000D01*
X129647665Y-96863000D01*
X129370426Y-96918147D01*
X129109273Y-97026320D01*
X128874241Y-97183363D01*
X128674363Y-97383241D01*
X128517320Y-97618273D01*
X128409147Y-97879426D01*
X128354000Y-98156665D01*
X128354000Y-98439335D01*
X128409147Y-98716574D01*
X128517320Y-98977727D01*
X128674363Y-99212759D01*
X128723001Y-99261397D01*
X128723000Y-103528924D01*
X128563256Y-103635662D01*
X128307662Y-103891256D01*
X128106844Y-104191801D01*
X128071072Y-104278162D01*
X128071072Y-103861000D01*
X128058812Y-103736518D01*
X128022502Y-103616820D01*
X127963537Y-103506506D01*
X127884185Y-103409815D01*
X127787494Y-103330463D01*
X127677180Y-103271498D01*
X127557482Y-103235188D01*
X127433000Y-103222928D01*
X127243000Y-103222928D01*
X127243000Y-89665238D01*
X127257482Y-89663812D01*
X127377180Y-89627502D01*
X127487494Y-89568537D01*
X127584185Y-89489185D01*
X127663537Y-89392494D01*
X127722502Y-89282180D01*
X127728056Y-89263873D01*
X127794495Y-89330312D01*
X128045905Y-89498299D01*
X128325257Y-89614011D01*
X128621816Y-89673000D01*
X128924184Y-89673000D01*
X129220743Y-89614011D01*
X129500095Y-89498299D01*
X129751505Y-89330312D01*
X129965312Y-89116505D01*
X130133299Y-88865095D01*
X130249011Y-88585743D01*
X130308000Y-88289184D01*
X130308000Y-87986816D01*
X130249011Y-87690257D01*
X130133299Y-87410905D01*
X129965312Y-87159495D01*
X129783000Y-86977183D01*
X129783000Y-84648295D01*
X129829061Y-84579359D01*
X129916000Y-84369470D01*
X130002939Y-84579359D01*
X130149038Y-84798013D01*
X130334987Y-84983962D01*
X130553641Y-85130061D01*
X130796595Y-85230696D01*
X131054514Y-85282000D01*
X131092645Y-85282000D01*
X131319000Y-85508355D01*
X131319001Y-91021643D01*
X130359548Y-91981097D01*
X130207574Y-91918147D01*
X129930335Y-91863000D01*
X129647665Y-91863000D01*
X129370426Y-91918147D01*
X129109273Y-92026320D01*
X128874241Y-92183363D01*
X128674363Y-92383241D01*
X128517320Y-92618273D01*
X128409147Y-92879426D01*
X128354000Y-93156665D01*
X128354000Y-93439335D01*
X128409147Y-93716574D01*
X128517320Y-93977727D01*
X128674363Y-94212759D01*
X128874241Y-94412637D01*
X129109273Y-94569680D01*
X129370426Y-94677853D01*
X129647665Y-94733000D01*
X129930335Y-94733000D01*
X130207574Y-94677853D01*
X130468727Y-94569680D01*
X130703759Y-94412637D01*
X130903637Y-94212759D01*
X130904451Y-94211541D01*
X131034840Y-94141847D01*
X131188633Y-94015633D01*
X131220261Y-93977094D01*
X133008100Y-92189256D01*
X133046633Y-92157633D01*
X133172847Y-92003840D01*
X133266632Y-91828380D01*
X133324385Y-91637994D01*
X133339000Y-91489608D01*
X133343886Y-91440000D01*
X133339000Y-91390392D01*
X133339000Y-85139604D01*
X133343886Y-85089999D01*
X133333442Y-84983962D01*
X133324385Y-84892006D01*
X133266632Y-84701620D01*
X133172847Y-84526160D01*
X133046633Y-84372367D01*
X133008094Y-84340739D01*
X132521000Y-83853645D01*
X132521000Y-83815514D01*
X132469696Y-83557595D01*
X132369061Y-83314641D01*
X132222962Y-83095987D01*
X132196000Y-83069025D01*
X132196000Y-83006655D01*
X132200886Y-82957050D01*
X132196000Y-82907443D01*
X132181385Y-82759057D01*
X132123632Y-82568671D01*
X132029847Y-82393211D01*
X131903633Y-82239418D01*
X131865094Y-82207790D01*
X130926000Y-81268696D01*
X130926000Y-67855355D01*
X132112356Y-66669000D01*
X132333322Y-66669000D01*
X131976841Y-66907193D01*
X131634193Y-67249841D01*
X131364976Y-67652753D01*
X131179536Y-68100444D01*
X131085000Y-68575711D01*
X131085000Y-69060289D01*
X131179536Y-69535556D01*
X131364976Y-69983247D01*
X131634193Y-70386159D01*
X131976841Y-70728807D01*
X132379753Y-70998024D01*
X132827444Y-71183464D01*
X133302711Y-71278000D01*
X133787289Y-71278000D01*
X134262556Y-71183464D01*
X134710247Y-70998024D01*
X135113159Y-70728807D01*
X135455807Y-70386159D01*
X135725024Y-69983247D01*
X135910464Y-69535556D01*
X136005000Y-69060289D01*
X136005000Y-68575711D01*
X135910464Y-68100444D01*
X135725024Y-67652753D01*
X135455807Y-67249841D01*
X135113159Y-66907193D01*
X134710247Y-66637976D01*
X134262556Y-66452536D01*
X134231638Y-66446386D01*
X134316633Y-66376633D01*
X134348261Y-66338094D01*
X135548094Y-65138261D01*
X135586633Y-65106633D01*
X135712847Y-64952840D01*
X135806632Y-64777380D01*
X135864385Y-64586994D01*
X135879000Y-64438608D01*
X135879000Y-64438606D01*
X135883886Y-64389001D01*
X135879000Y-64339396D01*
X135879000Y-53135608D01*
X135883886Y-53086000D01*
X135864385Y-52888005D01*
X135806632Y-52697620D01*
X135738914Y-52570928D01*
X135712847Y-52522160D01*
X135586633Y-52368367D01*
X135548100Y-52336744D01*
X133586261Y-50374906D01*
X133554633Y-50336367D01*
X133400840Y-50210153D01*
X133225380Y-50116368D01*
X133034994Y-50058615D01*
X132886608Y-50044000D01*
X132837000Y-50039114D01*
X132787392Y-50044000D01*
X128187604Y-50044000D01*
X128137999Y-50039114D01*
X128088394Y-50044000D01*
X128088392Y-50044000D01*
X127940006Y-50058615D01*
X127749620Y-50116368D01*
X127574160Y-50210153D01*
X127420367Y-50336367D01*
X127388739Y-50374906D01*
X126515906Y-51247739D01*
X126477367Y-51279367D01*
X126351153Y-51433160D01*
X126257369Y-51608620D01*
X126257368Y-51608621D01*
X126199615Y-51799006D01*
X126180114Y-51997000D01*
X126185000Y-52046608D01*
X126185001Y-53010314D01*
X126119201Y-53076114D01*
X125967629Y-53302957D01*
X125925000Y-53405873D01*
X125882371Y-53302957D01*
X125730799Y-53076114D01*
X125537886Y-52883201D01*
X125311043Y-52731629D01*
X125058989Y-52627225D01*
X124791411Y-52574000D01*
X124518589Y-52574000D01*
X124251011Y-52627225D01*
X123998957Y-52731629D01*
X123772114Y-52883201D01*
X123579201Y-53076114D01*
X123427629Y-53302957D01*
X123323225Y-53555011D01*
X123270000Y-53822589D01*
X123270000Y-53915645D01*
X122705901Y-54479744D01*
X122667368Y-54511367D01*
X122635745Y-54549900D01*
X122635744Y-54549901D01*
X122541154Y-54665160D01*
X122447368Y-54840621D01*
X122389615Y-55031006D01*
X122370114Y-55229000D01*
X122375001Y-55278617D01*
X122375001Y-55489000D01*
X121980604Y-55489000D01*
X121930999Y-55484114D01*
X121881394Y-55489000D01*
X121881392Y-55489000D01*
X121733006Y-55503615D01*
X121542620Y-55561368D01*
X121367160Y-55655153D01*
X121213367Y-55781367D01*
X121181739Y-55819906D01*
X120219906Y-56781739D01*
X120181367Y-56813367D01*
X120055153Y-56967160D01*
X120004011Y-57062841D01*
X119961368Y-57142621D01*
X119903615Y-57333006D01*
X119884114Y-57531000D01*
X119889000Y-57580608D01*
X119889001Y-63704382D01*
X119884114Y-63754000D01*
X119903615Y-63951994D01*
X119961368Y-64142379D01*
X120028294Y-64267589D01*
X120055154Y-64317840D01*
X120181368Y-64471633D01*
X120219901Y-64503256D01*
X121546739Y-65830094D01*
X121578367Y-65868633D01*
X121732160Y-65994847D01*
X121907620Y-66088632D01*
X122098006Y-66146385D01*
X122246392Y-66161000D01*
X122246394Y-66161000D01*
X122295999Y-66165886D01*
X122345604Y-66161000D01*
X122766645Y-66161000D01*
X123217722Y-66612077D01*
X122832556Y-66452536D01*
X122357289Y-66358000D01*
X121872711Y-66358000D01*
X121397444Y-66452536D01*
X120949753Y-66637976D01*
X120546841Y-66907193D01*
X120204193Y-67249841D01*
X119934976Y-67652753D01*
X119749536Y-68100444D01*
X119655000Y-68575711D01*
X118545000Y-68575711D01*
X118545000Y-47366711D01*
X119655000Y-47366711D01*
X119655000Y-47851289D01*
X119749536Y-48326556D01*
X119934976Y-48774247D01*
X120204193Y-49177159D01*
X120546841Y-49519807D01*
X120949753Y-49789024D01*
X121397444Y-49974464D01*
X121872711Y-50069000D01*
X122357289Y-50069000D01*
X122832556Y-49974464D01*
X123280247Y-49789024D01*
X123683159Y-49519807D01*
X124025807Y-49177159D01*
X124295024Y-48774247D01*
X124480464Y-48326556D01*
X124575000Y-47851289D01*
X124575000Y-47366711D01*
X131085000Y-47366711D01*
X131085000Y-47851289D01*
X131179536Y-48326556D01*
X131364976Y-48774247D01*
X131634193Y-49177159D01*
X131976841Y-49519807D01*
X132379753Y-49789024D01*
X132827444Y-49974464D01*
X133302711Y-50069000D01*
X133787289Y-50069000D01*
X134262556Y-49974464D01*
X134710247Y-49789024D01*
X135113159Y-49519807D01*
X135455807Y-49177159D01*
X135725024Y-48774247D01*
X135910464Y-48326556D01*
X136005000Y-47851289D01*
X136005000Y-47366711D01*
X135910464Y-46891444D01*
X135725024Y-46443753D01*
X135455807Y-46040841D01*
X135113159Y-45698193D01*
X134710247Y-45428976D01*
X134262556Y-45243536D01*
X133787289Y-45149000D01*
X133302711Y-45149000D01*
X132827444Y-45243536D01*
X132379753Y-45428976D01*
X131976841Y-45698193D01*
X131634193Y-46040841D01*
X131364976Y-46443753D01*
X131179536Y-46891444D01*
X131085000Y-47366711D01*
X124575000Y-47366711D01*
X124480464Y-46891444D01*
X124295024Y-46443753D01*
X124025807Y-46040841D01*
X123683159Y-45698193D01*
X123280247Y-45428976D01*
X122832556Y-45243536D01*
X122357289Y-45149000D01*
X121872711Y-45149000D01*
X121397444Y-45243536D01*
X120949753Y-45428976D01*
X120546841Y-45698193D01*
X120204193Y-46040841D01*
X119934976Y-46443753D01*
X119749536Y-46891444D01*
X119655000Y-47366711D01*
X118545000Y-47366711D01*
X118545000Y-40081000D01*
X137225000Y-40081000D01*
X137225001Y-101882732D01*
G37*
X137225001Y-101882732D02*
X137157399Y-101756258D01*
X136893050Y-101660555D01*
X135937605Y-102616000D01*
X136893050Y-103571445D01*
X137157399Y-103475742D01*
X137225001Y-103336770D01*
X137225001Y-110761000D01*
X118545000Y-110761000D01*
X118545000Y-103751050D01*
X118800555Y-103751050D01*
X118896258Y-104015399D01*
X119185787Y-104156238D01*
X119497229Y-104237885D01*
X119818615Y-104257205D01*
X120137595Y-104213454D01*
X120441911Y-104108314D01*
X120615742Y-104015399D01*
X120711445Y-103751050D01*
X119756000Y-102795605D01*
X118800555Y-103751050D01*
X118545000Y-103751050D01*
X118545000Y-103543949D01*
X118620950Y-103571445D01*
X119576395Y-102616000D01*
X119935605Y-102616000D01*
X120891050Y-103571445D01*
X121155399Y-103475742D01*
X121296238Y-103186213D01*
X121377885Y-102874771D01*
X121397205Y-102553385D01*
X121353454Y-102234405D01*
X121248314Y-101930089D01*
X121155399Y-101756258D01*
X120891050Y-101660555D01*
X119935605Y-102616000D01*
X119576395Y-102616000D01*
X118620950Y-101660555D01*
X118545000Y-101688051D01*
X118545000Y-101480950D01*
X118800555Y-101480950D01*
X119756000Y-102436395D01*
X120711445Y-101480950D01*
X120615742Y-101216601D01*
X120326213Y-101075762D01*
X120014771Y-100994115D01*
X119693385Y-100974795D01*
X119374405Y-101018546D01*
X119070089Y-101123686D01*
X118896258Y-101216601D01*
X118800555Y-101480950D01*
X118545000Y-101480950D01*
X118545000Y-68575711D01*
X119655000Y-68575711D01*
X119655000Y-69060289D01*
X119749536Y-69535556D01*
X119934976Y-69983247D01*
X120204193Y-70386159D01*
X120546841Y-70728807D01*
X120949753Y-70998024D01*
X121397444Y-71183464D01*
X121872711Y-71278000D01*
X122357289Y-71278000D01*
X122832556Y-71183464D01*
X123280247Y-70998024D01*
X123683159Y-70728807D01*
X124025807Y-70386159D01*
X124295024Y-69983247D01*
X124480464Y-69535556D01*
X124575000Y-69060289D01*
X124575000Y-68575711D01*
X124480464Y-68100444D01*
X124320923Y-67715279D01*
X125223000Y-68617356D01*
X125223001Y-86610762D01*
X125208518Y-86612188D01*
X125088820Y-86648498D01*
X124978506Y-86707463D01*
X124881815Y-86786815D01*
X124802463Y-86883506D01*
X124743498Y-86993820D01*
X124707188Y-87113518D01*
X124694928Y-87238000D01*
X124694928Y-89038000D01*
X124707188Y-89162482D01*
X124743498Y-89282180D01*
X124802463Y-89392494D01*
X124881815Y-89489185D01*
X124978506Y-89568537D01*
X125088820Y-89627502D01*
X125208518Y-89663812D01*
X125223001Y-89665238D01*
X125223000Y-103160607D01*
X125223001Y-103160617D01*
X125223001Y-103222928D01*
X125033000Y-103222928D01*
X124908518Y-103235188D01*
X124788820Y-103271498D01*
X124678506Y-103330463D01*
X124581815Y-103409815D01*
X124502463Y-103506506D01*
X124443498Y-103616820D01*
X124407188Y-103736518D01*
X124394928Y-103861000D01*
X124394928Y-106261000D01*
X124407188Y-106385482D01*
X124443498Y-106505180D01*
X124502463Y-106615494D01*
X124581815Y-106712185D01*
X124678506Y-106791537D01*
X124788820Y-106850502D01*
X124908518Y-106886812D01*
X125033000Y-106899072D01*
X127433000Y-106899072D01*
X127557482Y-106886812D01*
X127677180Y-106850502D01*
X127787494Y-106791537D01*
X127884185Y-106712185D01*
X127963537Y-106615494D01*
X128022502Y-106505180D01*
X128058812Y-106385482D01*
X128071072Y-106261000D01*
X128071072Y-105843838D01*
X128106844Y-105930199D01*
X128307662Y-106230744D01*
X128563256Y-106486338D01*
X128863801Y-106687156D01*
X129197750Y-106825482D01*
X129552268Y-106896000D01*
X129913732Y-106896000D01*
X130268250Y-106825482D01*
X130602199Y-106687156D01*
X130902744Y-106486338D01*
X131158338Y-106230744D01*
X131359156Y-105930199D01*
X131497482Y-105596250D01*
X131568000Y-105241732D01*
X131568000Y-104880268D01*
X131497482Y-104525750D01*
X131359156Y-104191801D01*
X131158338Y-103891256D01*
X131018132Y-103751050D01*
X134802555Y-103751050D01*
X134898258Y-104015399D01*
X135187787Y-104156238D01*
X135499229Y-104237885D01*
X135820615Y-104257205D01*
X136139595Y-104213454D01*
X136443911Y-104108314D01*
X136617742Y-104015399D01*
X136713445Y-103751050D01*
X135758000Y-102795605D01*
X134802555Y-103751050D01*
X131018132Y-103751050D01*
X130902744Y-103635662D01*
X130743000Y-103528924D01*
X130743000Y-102678615D01*
X134116795Y-102678615D01*
X134160546Y-102997595D01*
X134265686Y-103301911D01*
X134358601Y-103475742D01*
X134622950Y-103571445D01*
X135578395Y-102616000D01*
X134622950Y-101660555D01*
X134358601Y-101756258D01*
X134217762Y-102045787D01*
X134136115Y-102357229D01*
X134116795Y-102678615D01*
X130743000Y-102678615D01*
X130743000Y-101480950D01*
X134802555Y-101480950D01*
X135758000Y-102436395D01*
X136713445Y-101480950D01*
X136617742Y-101216601D01*
X136328213Y-101075762D01*
X136016771Y-100994115D01*
X135695385Y-100974795D01*
X135376405Y-101018546D01*
X135072089Y-101123686D01*
X134898258Y-101216601D01*
X134802555Y-101480950D01*
X130743000Y-101480950D01*
X130743000Y-99373396D01*
X130903637Y-99212759D01*
X131060680Y-98977727D01*
X131168853Y-98716574D01*
X131224000Y-98439335D01*
X131224000Y-98156665D01*
X131168853Y-97879426D01*
X131060680Y-97618273D01*
X130903637Y-97383241D01*
X130703759Y-97183363D01*
X130468727Y-97026320D01*
X130207574Y-96918147D01*
X129930335Y-96863000D01*
X129647665Y-96863000D01*
X129370426Y-96918147D01*
X129109273Y-97026320D01*
X128874241Y-97183363D01*
X128674363Y-97383241D01*
X128517320Y-97618273D01*
X128409147Y-97879426D01*
X128354000Y-98156665D01*
X128354000Y-98439335D01*
X128409147Y-98716574D01*
X128517320Y-98977727D01*
X128674363Y-99212759D01*
X128723001Y-99261397D01*
X128723000Y-103528924D01*
X128563256Y-103635662D01*
X128307662Y-103891256D01*
X128106844Y-104191801D01*
X128071072Y-104278162D01*
X128071072Y-103861000D01*
X128058812Y-103736518D01*
X128022502Y-103616820D01*
X127963537Y-103506506D01*
X127884185Y-103409815D01*
X127787494Y-103330463D01*
X127677180Y-103271498D01*
X127557482Y-103235188D01*
X127433000Y-103222928D01*
X127243000Y-103222928D01*
X127243000Y-89665238D01*
X127257482Y-89663812D01*
X127377180Y-89627502D01*
X127487494Y-89568537D01*
X127584185Y-89489185D01*
X127663537Y-89392494D01*
X127722502Y-89282180D01*
X127728056Y-89263873D01*
X127794495Y-89330312D01*
X128045905Y-89498299D01*
X128325257Y-89614011D01*
X128621816Y-89673000D01*
X128924184Y-89673000D01*
X129220743Y-89614011D01*
X129500095Y-89498299D01*
X129751505Y-89330312D01*
X129965312Y-89116505D01*
X130133299Y-88865095D01*
X130249011Y-88585743D01*
X130308000Y-88289184D01*
X130308000Y-87986816D01*
X130249011Y-87690257D01*
X130133299Y-87410905D01*
X129965312Y-87159495D01*
X129783000Y-86977183D01*
X129783000Y-84648295D01*
X129829061Y-84579359D01*
X129916000Y-84369470D01*
X130002939Y-84579359D01*
X130149038Y-84798013D01*
X130334987Y-84983962D01*
X130553641Y-85130061D01*
X130796595Y-85230696D01*
X131054514Y-85282000D01*
X131092645Y-85282000D01*
X131319000Y-85508355D01*
X131319001Y-91021643D01*
X130359548Y-91981097D01*
X130207574Y-91918147D01*
X129930335Y-91863000D01*
X129647665Y-91863000D01*
X129370426Y-91918147D01*
X129109273Y-92026320D01*
X128874241Y-92183363D01*
X128674363Y-92383241D01*
X128517320Y-92618273D01*
X128409147Y-92879426D01*
X128354000Y-93156665D01*
X128354000Y-93439335D01*
X128409147Y-93716574D01*
X128517320Y-93977727D01*
X128674363Y-94212759D01*
X128874241Y-94412637D01*
X129109273Y-94569680D01*
X129370426Y-94677853D01*
X129647665Y-94733000D01*
X129930335Y-94733000D01*
X130207574Y-94677853D01*
X130468727Y-94569680D01*
X130703759Y-94412637D01*
X130903637Y-94212759D01*
X130904451Y-94211541D01*
X131034840Y-94141847D01*
X131188633Y-94015633D01*
X131220261Y-93977094D01*
X133008100Y-92189256D01*
X133046633Y-92157633D01*
X133172847Y-92003840D01*
X133266632Y-91828380D01*
X133324385Y-91637994D01*
X133339000Y-91489608D01*
X133343886Y-91440000D01*
X133339000Y-91390392D01*
X133339000Y-85139604D01*
X133343886Y-85089999D01*
X133333442Y-84983962D01*
X133324385Y-84892006D01*
X133266632Y-84701620D01*
X133172847Y-84526160D01*
X133046633Y-84372367D01*
X133008094Y-84340739D01*
X132521000Y-83853645D01*
X132521000Y-83815514D01*
X132469696Y-83557595D01*
X132369061Y-83314641D01*
X132222962Y-83095987D01*
X132196000Y-83069025D01*
X132196000Y-83006655D01*
X132200886Y-82957050D01*
X132196000Y-82907443D01*
X132181385Y-82759057D01*
X132123632Y-82568671D01*
X132029847Y-82393211D01*
X131903633Y-82239418D01*
X131865094Y-82207790D01*
X130926000Y-81268696D01*
X130926000Y-67855355D01*
X132112356Y-66669000D01*
X132333322Y-66669000D01*
X131976841Y-66907193D01*
X131634193Y-67249841D01*
X131364976Y-67652753D01*
X131179536Y-68100444D01*
X131085000Y-68575711D01*
X131085000Y-69060289D01*
X131179536Y-69535556D01*
X131364976Y-69983247D01*
X131634193Y-70386159D01*
X131976841Y-70728807D01*
X132379753Y-70998024D01*
X132827444Y-71183464D01*
X133302711Y-71278000D01*
X133787289Y-71278000D01*
X134262556Y-71183464D01*
X134710247Y-70998024D01*
X135113159Y-70728807D01*
X135455807Y-70386159D01*
X135725024Y-69983247D01*
X135910464Y-69535556D01*
X136005000Y-69060289D01*
X136005000Y-68575711D01*
X135910464Y-68100444D01*
X135725024Y-67652753D01*
X135455807Y-67249841D01*
X135113159Y-66907193D01*
X134710247Y-66637976D01*
X134262556Y-66452536D01*
X134231638Y-66446386D01*
X134316633Y-66376633D01*
X134348261Y-66338094D01*
X135548094Y-65138261D01*
X135586633Y-65106633D01*
X135712847Y-64952840D01*
X135806632Y-64777380D01*
X135864385Y-64586994D01*
X135879000Y-64438608D01*
X135879000Y-64438606D01*
X135883886Y-64389001D01*
X135879000Y-64339396D01*
X135879000Y-53135608D01*
X135883886Y-53086000D01*
X135864385Y-52888005D01*
X135806632Y-52697620D01*
X135738914Y-52570928D01*
X135712847Y-52522160D01*
X135586633Y-52368367D01*
X135548100Y-52336744D01*
X133586261Y-50374906D01*
X133554633Y-50336367D01*
X133400840Y-50210153D01*
X133225380Y-50116368D01*
X133034994Y-50058615D01*
X132886608Y-50044000D01*
X132837000Y-50039114D01*
X132787392Y-50044000D01*
X128187604Y-50044000D01*
X128137999Y-50039114D01*
X128088394Y-50044000D01*
X128088392Y-50044000D01*
X127940006Y-50058615D01*
X127749620Y-50116368D01*
X127574160Y-50210153D01*
X127420367Y-50336367D01*
X127388739Y-50374906D01*
X126515906Y-51247739D01*
X126477367Y-51279367D01*
X126351153Y-51433160D01*
X126257369Y-51608620D01*
X126257368Y-51608621D01*
X126199615Y-51799006D01*
X126180114Y-51997000D01*
X126185000Y-52046608D01*
X126185001Y-53010314D01*
X126119201Y-53076114D01*
X125967629Y-53302957D01*
X125925000Y-53405873D01*
X125882371Y-53302957D01*
X125730799Y-53076114D01*
X125537886Y-52883201D01*
X125311043Y-52731629D01*
X125058989Y-52627225D01*
X124791411Y-52574000D01*
X124518589Y-52574000D01*
X124251011Y-52627225D01*
X123998957Y-52731629D01*
X123772114Y-52883201D01*
X123579201Y-53076114D01*
X123427629Y-53302957D01*
X123323225Y-53555011D01*
X123270000Y-53822589D01*
X123270000Y-53915645D01*
X122705901Y-54479744D01*
X122667368Y-54511367D01*
X122635745Y-54549900D01*
X122635744Y-54549901D01*
X122541154Y-54665160D01*
X122447368Y-54840621D01*
X122389615Y-55031006D01*
X122370114Y-55229000D01*
X122375001Y-55278617D01*
X122375001Y-55489000D01*
X121980604Y-55489000D01*
X121930999Y-55484114D01*
X121881394Y-55489000D01*
X121881392Y-55489000D01*
X121733006Y-55503615D01*
X121542620Y-55561368D01*
X121367160Y-55655153D01*
X121213367Y-55781367D01*
X121181739Y-55819906D01*
X120219906Y-56781739D01*
X120181367Y-56813367D01*
X120055153Y-56967160D01*
X120004011Y-57062841D01*
X119961368Y-57142621D01*
X119903615Y-57333006D01*
X119884114Y-57531000D01*
X119889000Y-57580608D01*
X119889001Y-63704382D01*
X119884114Y-63754000D01*
X119903615Y-63951994D01*
X119961368Y-64142379D01*
X120028294Y-64267589D01*
X120055154Y-64317840D01*
X120181368Y-64471633D01*
X120219901Y-64503256D01*
X121546739Y-65830094D01*
X121578367Y-65868633D01*
X121732160Y-65994847D01*
X121907620Y-66088632D01*
X122098006Y-66146385D01*
X122246392Y-66161000D01*
X122246394Y-66161000D01*
X122295999Y-66165886D01*
X122345604Y-66161000D01*
X122766645Y-66161000D01*
X123217722Y-66612077D01*
X122832556Y-66452536D01*
X122357289Y-66358000D01*
X121872711Y-66358000D01*
X121397444Y-66452536D01*
X120949753Y-66637976D01*
X120546841Y-66907193D01*
X120204193Y-67249841D01*
X119934976Y-67652753D01*
X119749536Y-68100444D01*
X119655000Y-68575711D01*
X118545000Y-68575711D01*
X118545000Y-47366711D01*
X119655000Y-47366711D01*
X119655000Y-47851289D01*
X119749536Y-48326556D01*
X119934976Y-48774247D01*
X120204193Y-49177159D01*
X120546841Y-49519807D01*
X120949753Y-49789024D01*
X121397444Y-49974464D01*
X121872711Y-50069000D01*
X122357289Y-50069000D01*
X122832556Y-49974464D01*
X123280247Y-49789024D01*
X123683159Y-49519807D01*
X124025807Y-49177159D01*
X124295024Y-48774247D01*
X124480464Y-48326556D01*
X124575000Y-47851289D01*
X124575000Y-47366711D01*
X131085000Y-47366711D01*
X131085000Y-47851289D01*
X131179536Y-48326556D01*
X131364976Y-48774247D01*
X131634193Y-49177159D01*
X131976841Y-49519807D01*
X132379753Y-49789024D01*
X132827444Y-49974464D01*
X133302711Y-50069000D01*
X133787289Y-50069000D01*
X134262556Y-49974464D01*
X134710247Y-49789024D01*
X135113159Y-49519807D01*
X135455807Y-49177159D01*
X135725024Y-48774247D01*
X135910464Y-48326556D01*
X136005000Y-47851289D01*
X136005000Y-47366711D01*
X135910464Y-46891444D01*
X135725024Y-46443753D01*
X135455807Y-46040841D01*
X135113159Y-45698193D01*
X134710247Y-45428976D01*
X134262556Y-45243536D01*
X133787289Y-45149000D01*
X133302711Y-45149000D01*
X132827444Y-45243536D01*
X132379753Y-45428976D01*
X131976841Y-45698193D01*
X131634193Y-46040841D01*
X131364976Y-46443753D01*
X131179536Y-46891444D01*
X131085000Y-47366711D01*
X124575000Y-47366711D01*
X124480464Y-46891444D01*
X124295024Y-46443753D01*
X124025807Y-46040841D01*
X123683159Y-45698193D01*
X123280247Y-45428976D01*
X122832556Y-45243536D01*
X122357289Y-45149000D01*
X121872711Y-45149000D01*
X121397444Y-45243536D01*
X120949753Y-45428976D01*
X120546841Y-45698193D01*
X120204193Y-46040841D01*
X119934976Y-46443753D01*
X119749536Y-46891444D01*
X119655000Y-47366711D01*
X118545000Y-47366711D01*
X118545000Y-40081000D01*
X137225000Y-40081000D01*
X137225001Y-101882732D01*
G36*
X157225001Y-101882732D02*
G01*
X157157399Y-101756258D01*
X156893050Y-101660555D01*
X155937605Y-102616000D01*
X156893050Y-103571445D01*
X157157399Y-103475742D01*
X157225001Y-103336770D01*
X157225001Y-110761000D01*
X138545000Y-110761000D01*
X138545000Y-103751050D01*
X138800555Y-103751050D01*
X138896258Y-104015399D01*
X139185787Y-104156238D01*
X139497229Y-104237885D01*
X139818615Y-104257205D01*
X140137595Y-104213454D01*
X140441911Y-104108314D01*
X140615742Y-104015399D01*
X140711445Y-103751050D01*
X139756000Y-102795605D01*
X138800555Y-103751050D01*
X138545000Y-103751050D01*
X138545000Y-103543949D01*
X138620950Y-103571445D01*
X139576395Y-102616000D01*
X139935605Y-102616000D01*
X140891050Y-103571445D01*
X141155399Y-103475742D01*
X141296238Y-103186213D01*
X141377885Y-102874771D01*
X141397205Y-102553385D01*
X141353454Y-102234405D01*
X141248314Y-101930089D01*
X141155399Y-101756258D01*
X140891050Y-101660555D01*
X139935605Y-102616000D01*
X139576395Y-102616000D01*
X138620950Y-101660555D01*
X138545000Y-101688051D01*
X138545000Y-101480950D01*
X138800555Y-101480950D01*
X139756000Y-102436395D01*
X140711445Y-101480950D01*
X140615742Y-101216601D01*
X140326213Y-101075762D01*
X140014771Y-100994115D01*
X139693385Y-100974795D01*
X139374405Y-101018546D01*
X139070089Y-101123686D01*
X138896258Y-101216601D01*
X138800555Y-101480950D01*
X138545000Y-101480950D01*
X138545000Y-68575711D01*
X139655000Y-68575711D01*
X139655000Y-69060289D01*
X139749536Y-69535556D01*
X139934976Y-69983247D01*
X140204193Y-70386159D01*
X140546841Y-70728807D01*
X140949753Y-70998024D01*
X141397444Y-71183464D01*
X141872711Y-71278000D01*
X142357289Y-71278000D01*
X142832556Y-71183464D01*
X143280247Y-70998024D01*
X143683159Y-70728807D01*
X144025807Y-70386159D01*
X144295024Y-69983247D01*
X144480464Y-69535556D01*
X144575000Y-69060289D01*
X144575000Y-68575711D01*
X144480464Y-68100444D01*
X144320923Y-67715279D01*
X145223000Y-68617356D01*
X145223001Y-86610762D01*
X145208518Y-86612188D01*
X145088820Y-86648498D01*
X144978506Y-86707463D01*
X144881815Y-86786815D01*
X144802463Y-86883506D01*
X144743498Y-86993820D01*
X144707188Y-87113518D01*
X144694928Y-87238000D01*
X144694928Y-89038000D01*
X144707188Y-89162482D01*
X144743498Y-89282180D01*
X144802463Y-89392494D01*
X144881815Y-89489185D01*
X144978506Y-89568537D01*
X145088820Y-89627502D01*
X145208518Y-89663812D01*
X145223001Y-89665238D01*
X145223000Y-103160607D01*
X145223001Y-103160617D01*
X145223001Y-103222928D01*
X145033000Y-103222928D01*
X144908518Y-103235188D01*
X144788820Y-103271498D01*
X144678506Y-103330463D01*
X144581815Y-103409815D01*
X144502463Y-103506506D01*
X144443498Y-103616820D01*
X144407188Y-103736518D01*
X144394928Y-103861000D01*
X144394928Y-106261000D01*
X144407188Y-106385482D01*
X144443498Y-106505180D01*
X144502463Y-106615494D01*
X144581815Y-106712185D01*
X144678506Y-106791537D01*
X144788820Y-106850502D01*
X144908518Y-106886812D01*
X145033000Y-106899072D01*
X147433000Y-106899072D01*
X147557482Y-106886812D01*
X147677180Y-106850502D01*
X147787494Y-106791537D01*
X147884185Y-106712185D01*
X147963537Y-106615494D01*
X148022502Y-106505180D01*
X148058812Y-106385482D01*
X148071072Y-106261000D01*
X148071072Y-105843838D01*
X148106844Y-105930199D01*
X148307662Y-106230744D01*
X148563256Y-106486338D01*
X148863801Y-106687156D01*
X149197750Y-106825482D01*
X149552268Y-106896000D01*
X149913732Y-106896000D01*
X150268250Y-106825482D01*
X150602199Y-106687156D01*
X150902744Y-106486338D01*
X151158338Y-106230744D01*
X151359156Y-105930199D01*
X151497482Y-105596250D01*
X151568000Y-105241732D01*
X151568000Y-104880268D01*
X151497482Y-104525750D01*
X151359156Y-104191801D01*
X151158338Y-103891256D01*
X151018132Y-103751050D01*
X154802555Y-103751050D01*
X154898258Y-104015399D01*
X155187787Y-104156238D01*
X155499229Y-104237885D01*
X155820615Y-104257205D01*
X156139595Y-104213454D01*
X156443911Y-104108314D01*
X156617742Y-104015399D01*
X156713445Y-103751050D01*
X155758000Y-102795605D01*
X154802555Y-103751050D01*
X151018132Y-103751050D01*
X150902744Y-103635662D01*
X150743000Y-103528924D01*
X150743000Y-102678615D01*
X154116795Y-102678615D01*
X154160546Y-102997595D01*
X154265686Y-103301911D01*
X154358601Y-103475742D01*
X154622950Y-103571445D01*
X155578395Y-102616000D01*
X154622950Y-101660555D01*
X154358601Y-101756258D01*
X154217762Y-102045787D01*
X154136115Y-102357229D01*
X154116795Y-102678615D01*
X150743000Y-102678615D01*
X150743000Y-101480950D01*
X154802555Y-101480950D01*
X155758000Y-102436395D01*
X156713445Y-101480950D01*
X156617742Y-101216601D01*
X156328213Y-101075762D01*
X156016771Y-100994115D01*
X155695385Y-100974795D01*
X155376405Y-101018546D01*
X155072089Y-101123686D01*
X154898258Y-101216601D01*
X154802555Y-101480950D01*
X150743000Y-101480950D01*
X150743000Y-99373396D01*
X150903637Y-99212759D01*
X151060680Y-98977727D01*
X151168853Y-98716574D01*
X151224000Y-98439335D01*
X151224000Y-98156665D01*
X151168853Y-97879426D01*
X151060680Y-97618273D01*
X150903637Y-97383241D01*
X150703759Y-97183363D01*
X150468727Y-97026320D01*
X150207574Y-96918147D01*
X149930335Y-96863000D01*
X149647665Y-96863000D01*
X149370426Y-96918147D01*
X149109273Y-97026320D01*
X148874241Y-97183363D01*
X148674363Y-97383241D01*
X148517320Y-97618273D01*
X148409147Y-97879426D01*
X148354000Y-98156665D01*
X148354000Y-98439335D01*
X148409147Y-98716574D01*
X148517320Y-98977727D01*
X148674363Y-99212759D01*
X148723001Y-99261397D01*
X148723000Y-103528924D01*
X148563256Y-103635662D01*
X148307662Y-103891256D01*
X148106844Y-104191801D01*
X148071072Y-104278162D01*
X148071072Y-103861000D01*
X148058812Y-103736518D01*
X148022502Y-103616820D01*
X147963537Y-103506506D01*
X147884185Y-103409815D01*
X147787494Y-103330463D01*
X147677180Y-103271498D01*
X147557482Y-103235188D01*
X147433000Y-103222928D01*
X147243000Y-103222928D01*
X147243000Y-89665238D01*
X147257482Y-89663812D01*
X147377180Y-89627502D01*
X147487494Y-89568537D01*
X147584185Y-89489185D01*
X147663537Y-89392494D01*
X147722502Y-89282180D01*
X147728056Y-89263873D01*
X147794495Y-89330312D01*
X148045905Y-89498299D01*
X148325257Y-89614011D01*
X148621816Y-89673000D01*
X148924184Y-89673000D01*
X149220743Y-89614011D01*
X149500095Y-89498299D01*
X149751505Y-89330312D01*
X149965312Y-89116505D01*
X150133299Y-88865095D01*
X150249011Y-88585743D01*
X150308000Y-88289184D01*
X150308000Y-87986816D01*
X150249011Y-87690257D01*
X150133299Y-87410905D01*
X149965312Y-87159495D01*
X149783000Y-86977183D01*
X149783000Y-84648295D01*
X149829061Y-84579359D01*
X149916000Y-84369470D01*
X150002939Y-84579359D01*
X150149038Y-84798013D01*
X150334987Y-84983962D01*
X150553641Y-85130061D01*
X150796595Y-85230696D01*
X151054514Y-85282000D01*
X151092645Y-85282000D01*
X151319000Y-85508355D01*
X151319001Y-91021643D01*
X150359548Y-91981097D01*
X150207574Y-91918147D01*
X149930335Y-91863000D01*
X149647665Y-91863000D01*
X149370426Y-91918147D01*
X149109273Y-92026320D01*
X148874241Y-92183363D01*
X148674363Y-92383241D01*
X148517320Y-92618273D01*
X148409147Y-92879426D01*
X148354000Y-93156665D01*
X148354000Y-93439335D01*
X148409147Y-93716574D01*
X148517320Y-93977727D01*
X148674363Y-94212759D01*
X148874241Y-94412637D01*
X149109273Y-94569680D01*
X149370426Y-94677853D01*
X149647665Y-94733000D01*
X149930335Y-94733000D01*
X150207574Y-94677853D01*
X150468727Y-94569680D01*
X150703759Y-94412637D01*
X150903637Y-94212759D01*
X150904451Y-94211541D01*
X151034840Y-94141847D01*
X151188633Y-94015633D01*
X151220261Y-93977094D01*
X153008100Y-92189256D01*
X153046633Y-92157633D01*
X153172847Y-92003840D01*
X153266632Y-91828380D01*
X153324385Y-91637994D01*
X153339000Y-91489608D01*
X153343886Y-91440000D01*
X153339000Y-91390392D01*
X153339000Y-85139604D01*
X153343886Y-85089999D01*
X153333442Y-84983962D01*
X153324385Y-84892006D01*
X153266632Y-84701620D01*
X153172847Y-84526160D01*
X153046633Y-84372367D01*
X153008094Y-84340739D01*
X152521000Y-83853645D01*
X152521000Y-83815514D01*
X152469696Y-83557595D01*
X152369061Y-83314641D01*
X152222962Y-83095987D01*
X152196000Y-83069025D01*
X152196000Y-83006655D01*
X152200886Y-82957050D01*
X152196000Y-82907443D01*
X152181385Y-82759057D01*
X152123632Y-82568671D01*
X152029847Y-82393211D01*
X151903633Y-82239418D01*
X151865094Y-82207790D01*
X150926000Y-81268696D01*
X150926000Y-67855355D01*
X152112356Y-66669000D01*
X152333322Y-66669000D01*
X151976841Y-66907193D01*
X151634193Y-67249841D01*
X151364976Y-67652753D01*
X151179536Y-68100444D01*
X151085000Y-68575711D01*
X151085000Y-69060289D01*
X151179536Y-69535556D01*
X151364976Y-69983247D01*
X151634193Y-70386159D01*
X151976841Y-70728807D01*
X152379753Y-70998024D01*
X152827444Y-71183464D01*
X153302711Y-71278000D01*
X153787289Y-71278000D01*
X154262556Y-71183464D01*
X154710247Y-70998024D01*
X155113159Y-70728807D01*
X155455807Y-70386159D01*
X155725024Y-69983247D01*
X155910464Y-69535556D01*
X156005000Y-69060289D01*
X156005000Y-68575711D01*
X155910464Y-68100444D01*
X155725024Y-67652753D01*
X155455807Y-67249841D01*
X155113159Y-66907193D01*
X154710247Y-66637976D01*
X154262556Y-66452536D01*
X154231638Y-66446386D01*
X154316633Y-66376633D01*
X154348261Y-66338094D01*
X155548094Y-65138261D01*
X155586633Y-65106633D01*
X155712847Y-64952840D01*
X155806632Y-64777380D01*
X155864385Y-64586994D01*
X155879000Y-64438608D01*
X155879000Y-64438606D01*
X155883886Y-64389001D01*
X155879000Y-64339396D01*
X155879000Y-53135608D01*
X155883886Y-53086000D01*
X155864385Y-52888005D01*
X155806632Y-52697620D01*
X155738914Y-52570928D01*
X155712847Y-52522160D01*
X155586633Y-52368367D01*
X155548100Y-52336744D01*
X153586261Y-50374906D01*
X153554633Y-50336367D01*
X153400840Y-50210153D01*
X153225380Y-50116368D01*
X153034994Y-50058615D01*
X152886608Y-50044000D01*
X152837000Y-50039114D01*
X152787392Y-50044000D01*
X148187604Y-50044000D01*
X148137999Y-50039114D01*
X148088394Y-50044000D01*
X148088392Y-50044000D01*
X147940006Y-50058615D01*
X147749620Y-50116368D01*
X147574160Y-50210153D01*
X147420367Y-50336367D01*
X147388739Y-50374906D01*
X146515906Y-51247739D01*
X146477367Y-51279367D01*
X146351153Y-51433160D01*
X146257369Y-51608620D01*
X146257368Y-51608621D01*
X146199615Y-51799006D01*
X146180114Y-51997000D01*
X146185000Y-52046608D01*
X146185001Y-53010314D01*
X146119201Y-53076114D01*
X145967629Y-53302957D01*
X145925000Y-53405873D01*
X145882371Y-53302957D01*
X145730799Y-53076114D01*
X145537886Y-52883201D01*
X145311043Y-52731629D01*
X145058989Y-52627225D01*
X144791411Y-52574000D01*
X144518589Y-52574000D01*
X144251011Y-52627225D01*
X143998957Y-52731629D01*
X143772114Y-52883201D01*
X143579201Y-53076114D01*
X143427629Y-53302957D01*
X143323225Y-53555011D01*
X143270000Y-53822589D01*
X143270000Y-53915645D01*
X142705901Y-54479744D01*
X142667368Y-54511367D01*
X142635745Y-54549900D01*
X142635744Y-54549901D01*
X142541154Y-54665160D01*
X142447368Y-54840621D01*
X142389615Y-55031006D01*
X142370114Y-55229000D01*
X142375001Y-55278617D01*
X142375001Y-55489000D01*
X141980604Y-55489000D01*
X141930999Y-55484114D01*
X141881394Y-55489000D01*
X141881392Y-55489000D01*
X141733006Y-55503615D01*
X141542620Y-55561368D01*
X141367160Y-55655153D01*
X141213367Y-55781367D01*
X141181739Y-55819906D01*
X140219906Y-56781739D01*
X140181367Y-56813367D01*
X140055153Y-56967160D01*
X140004011Y-57062841D01*
X139961368Y-57142621D01*
X139903615Y-57333006D01*
X139884114Y-57531000D01*
X139889000Y-57580608D01*
X139889001Y-63704382D01*
X139884114Y-63754000D01*
X139903615Y-63951994D01*
X139961368Y-64142379D01*
X140028294Y-64267589D01*
X140055154Y-64317840D01*
X140181368Y-64471633D01*
X140219901Y-64503256D01*
X141546739Y-65830094D01*
X141578367Y-65868633D01*
X141732160Y-65994847D01*
X141907620Y-66088632D01*
X142098006Y-66146385D01*
X142246392Y-66161000D01*
X142246394Y-66161000D01*
X142295999Y-66165886D01*
X142345604Y-66161000D01*
X142766645Y-66161000D01*
X143217722Y-66612077D01*
X142832556Y-66452536D01*
X142357289Y-66358000D01*
X141872711Y-66358000D01*
X141397444Y-66452536D01*
X140949753Y-66637976D01*
X140546841Y-66907193D01*
X140204193Y-67249841D01*
X139934976Y-67652753D01*
X139749536Y-68100444D01*
X139655000Y-68575711D01*
X138545000Y-68575711D01*
X138545000Y-47366711D01*
X139655000Y-47366711D01*
X139655000Y-47851289D01*
X139749536Y-48326556D01*
X139934976Y-48774247D01*
X140204193Y-49177159D01*
X140546841Y-49519807D01*
X140949753Y-49789024D01*
X141397444Y-49974464D01*
X141872711Y-50069000D01*
X142357289Y-50069000D01*
X142832556Y-49974464D01*
X143280247Y-49789024D01*
X143683159Y-49519807D01*
X144025807Y-49177159D01*
X144295024Y-48774247D01*
X144480464Y-48326556D01*
X144575000Y-47851289D01*
X144575000Y-47366711D01*
X151085000Y-47366711D01*
X151085000Y-47851289D01*
X151179536Y-48326556D01*
X151364976Y-48774247D01*
X151634193Y-49177159D01*
X151976841Y-49519807D01*
X152379753Y-49789024D01*
X152827444Y-49974464D01*
X153302711Y-50069000D01*
X153787289Y-50069000D01*
X154262556Y-49974464D01*
X154710247Y-49789024D01*
X155113159Y-49519807D01*
X155455807Y-49177159D01*
X155725024Y-48774247D01*
X155910464Y-48326556D01*
X156005000Y-47851289D01*
X156005000Y-47366711D01*
X155910464Y-46891444D01*
X155725024Y-46443753D01*
X155455807Y-46040841D01*
X155113159Y-45698193D01*
X154710247Y-45428976D01*
X154262556Y-45243536D01*
X153787289Y-45149000D01*
X153302711Y-45149000D01*
X152827444Y-45243536D01*
X152379753Y-45428976D01*
X151976841Y-45698193D01*
X151634193Y-46040841D01*
X151364976Y-46443753D01*
X151179536Y-46891444D01*
X151085000Y-47366711D01*
X144575000Y-47366711D01*
X144480464Y-46891444D01*
X144295024Y-46443753D01*
X144025807Y-46040841D01*
X143683159Y-45698193D01*
X143280247Y-45428976D01*
X142832556Y-45243536D01*
X142357289Y-45149000D01*
X141872711Y-45149000D01*
X141397444Y-45243536D01*
X140949753Y-45428976D01*
X140546841Y-45698193D01*
X140204193Y-46040841D01*
X139934976Y-46443753D01*
X139749536Y-46891444D01*
X139655000Y-47366711D01*
X138545000Y-47366711D01*
X138545000Y-40081000D01*
X157225000Y-40081000D01*
X157225001Y-101882732D01*
G37*
X157225001Y-101882732D02*
X157157399Y-101756258D01*
X156893050Y-101660555D01*
X155937605Y-102616000D01*
X156893050Y-103571445D01*
X157157399Y-103475742D01*
X157225001Y-103336770D01*
X157225001Y-110761000D01*
X138545000Y-110761000D01*
X138545000Y-103751050D01*
X138800555Y-103751050D01*
X138896258Y-104015399D01*
X139185787Y-104156238D01*
X139497229Y-104237885D01*
X139818615Y-104257205D01*
X140137595Y-104213454D01*
X140441911Y-104108314D01*
X140615742Y-104015399D01*
X140711445Y-103751050D01*
X139756000Y-102795605D01*
X138800555Y-103751050D01*
X138545000Y-103751050D01*
X138545000Y-103543949D01*
X138620950Y-103571445D01*
X139576395Y-102616000D01*
X139935605Y-102616000D01*
X140891050Y-103571445D01*
X141155399Y-103475742D01*
X141296238Y-103186213D01*
X141377885Y-102874771D01*
X141397205Y-102553385D01*
X141353454Y-102234405D01*
X141248314Y-101930089D01*
X141155399Y-101756258D01*
X140891050Y-101660555D01*
X139935605Y-102616000D01*
X139576395Y-102616000D01*
X138620950Y-101660555D01*
X138545000Y-101688051D01*
X138545000Y-101480950D01*
X138800555Y-101480950D01*
X139756000Y-102436395D01*
X140711445Y-101480950D01*
X140615742Y-101216601D01*
X140326213Y-101075762D01*
X140014771Y-100994115D01*
X139693385Y-100974795D01*
X139374405Y-101018546D01*
X139070089Y-101123686D01*
X138896258Y-101216601D01*
X138800555Y-101480950D01*
X138545000Y-101480950D01*
X138545000Y-68575711D01*
X139655000Y-68575711D01*
X139655000Y-69060289D01*
X139749536Y-69535556D01*
X139934976Y-69983247D01*
X140204193Y-70386159D01*
X140546841Y-70728807D01*
X140949753Y-70998024D01*
X141397444Y-71183464D01*
X141872711Y-71278000D01*
X142357289Y-71278000D01*
X142832556Y-71183464D01*
X143280247Y-70998024D01*
X143683159Y-70728807D01*
X144025807Y-70386159D01*
X144295024Y-69983247D01*
X144480464Y-69535556D01*
X144575000Y-69060289D01*
X144575000Y-68575711D01*
X144480464Y-68100444D01*
X144320923Y-67715279D01*
X145223000Y-68617356D01*
X145223001Y-86610762D01*
X145208518Y-86612188D01*
X145088820Y-86648498D01*
X144978506Y-86707463D01*
X144881815Y-86786815D01*
X144802463Y-86883506D01*
X144743498Y-86993820D01*
X144707188Y-87113518D01*
X144694928Y-87238000D01*
X144694928Y-89038000D01*
X144707188Y-89162482D01*
X144743498Y-89282180D01*
X144802463Y-89392494D01*
X144881815Y-89489185D01*
X144978506Y-89568537D01*
X145088820Y-89627502D01*
X145208518Y-89663812D01*
X145223001Y-89665238D01*
X145223000Y-103160607D01*
X145223001Y-103160617D01*
X145223001Y-103222928D01*
X145033000Y-103222928D01*
X144908518Y-103235188D01*
X144788820Y-103271498D01*
X144678506Y-103330463D01*
X144581815Y-103409815D01*
X144502463Y-103506506D01*
X144443498Y-103616820D01*
X144407188Y-103736518D01*
X144394928Y-103861000D01*
X144394928Y-106261000D01*
X144407188Y-106385482D01*
X144443498Y-106505180D01*
X144502463Y-106615494D01*
X144581815Y-106712185D01*
X144678506Y-106791537D01*
X144788820Y-106850502D01*
X144908518Y-106886812D01*
X145033000Y-106899072D01*
X147433000Y-106899072D01*
X147557482Y-106886812D01*
X147677180Y-106850502D01*
X147787494Y-106791537D01*
X147884185Y-106712185D01*
X147963537Y-106615494D01*
X148022502Y-106505180D01*
X148058812Y-106385482D01*
X148071072Y-106261000D01*
X148071072Y-105843838D01*
X148106844Y-105930199D01*
X148307662Y-106230744D01*
X148563256Y-106486338D01*
X148863801Y-106687156D01*
X149197750Y-106825482D01*
X149552268Y-106896000D01*
X149913732Y-106896000D01*
X150268250Y-106825482D01*
X150602199Y-106687156D01*
X150902744Y-106486338D01*
X151158338Y-106230744D01*
X151359156Y-105930199D01*
X151497482Y-105596250D01*
X151568000Y-105241732D01*
X151568000Y-104880268D01*
X151497482Y-104525750D01*
X151359156Y-104191801D01*
X151158338Y-103891256D01*
X151018132Y-103751050D01*
X154802555Y-103751050D01*
X154898258Y-104015399D01*
X155187787Y-104156238D01*
X155499229Y-104237885D01*
X155820615Y-104257205D01*
X156139595Y-104213454D01*
X156443911Y-104108314D01*
X156617742Y-104015399D01*
X156713445Y-103751050D01*
X155758000Y-102795605D01*
X154802555Y-103751050D01*
X151018132Y-103751050D01*
X150902744Y-103635662D01*
X150743000Y-103528924D01*
X150743000Y-102678615D01*
X154116795Y-102678615D01*
X154160546Y-102997595D01*
X154265686Y-103301911D01*
X154358601Y-103475742D01*
X154622950Y-103571445D01*
X155578395Y-102616000D01*
X154622950Y-101660555D01*
X154358601Y-101756258D01*
X154217762Y-102045787D01*
X154136115Y-102357229D01*
X154116795Y-102678615D01*
X150743000Y-102678615D01*
X150743000Y-101480950D01*
X154802555Y-101480950D01*
X155758000Y-102436395D01*
X156713445Y-101480950D01*
X156617742Y-101216601D01*
X156328213Y-101075762D01*
X156016771Y-100994115D01*
X155695385Y-100974795D01*
X155376405Y-101018546D01*
X155072089Y-101123686D01*
X154898258Y-101216601D01*
X154802555Y-101480950D01*
X150743000Y-101480950D01*
X150743000Y-99373396D01*
X150903637Y-99212759D01*
X151060680Y-98977727D01*
X151168853Y-98716574D01*
X151224000Y-98439335D01*
X151224000Y-98156665D01*
X151168853Y-97879426D01*
X151060680Y-97618273D01*
X150903637Y-97383241D01*
X150703759Y-97183363D01*
X150468727Y-97026320D01*
X150207574Y-96918147D01*
X149930335Y-96863000D01*
X149647665Y-96863000D01*
X149370426Y-96918147D01*
X149109273Y-97026320D01*
X148874241Y-97183363D01*
X148674363Y-97383241D01*
X148517320Y-97618273D01*
X148409147Y-97879426D01*
X148354000Y-98156665D01*
X148354000Y-98439335D01*
X148409147Y-98716574D01*
X148517320Y-98977727D01*
X148674363Y-99212759D01*
X148723001Y-99261397D01*
X148723000Y-103528924D01*
X148563256Y-103635662D01*
X148307662Y-103891256D01*
X148106844Y-104191801D01*
X148071072Y-104278162D01*
X148071072Y-103861000D01*
X148058812Y-103736518D01*
X148022502Y-103616820D01*
X147963537Y-103506506D01*
X147884185Y-103409815D01*
X147787494Y-103330463D01*
X147677180Y-103271498D01*
X147557482Y-103235188D01*
X147433000Y-103222928D01*
X147243000Y-103222928D01*
X147243000Y-89665238D01*
X147257482Y-89663812D01*
X147377180Y-89627502D01*
X147487494Y-89568537D01*
X147584185Y-89489185D01*
X147663537Y-89392494D01*
X147722502Y-89282180D01*
X147728056Y-89263873D01*
X147794495Y-89330312D01*
X148045905Y-89498299D01*
X148325257Y-89614011D01*
X148621816Y-89673000D01*
X148924184Y-89673000D01*
X149220743Y-89614011D01*
X149500095Y-89498299D01*
X149751505Y-89330312D01*
X149965312Y-89116505D01*
X150133299Y-88865095D01*
X150249011Y-88585743D01*
X150308000Y-88289184D01*
X150308000Y-87986816D01*
X150249011Y-87690257D01*
X150133299Y-87410905D01*
X149965312Y-87159495D01*
X149783000Y-86977183D01*
X149783000Y-84648295D01*
X149829061Y-84579359D01*
X149916000Y-84369470D01*
X150002939Y-84579359D01*
X150149038Y-84798013D01*
X150334987Y-84983962D01*
X150553641Y-85130061D01*
X150796595Y-85230696D01*
X151054514Y-85282000D01*
X151092645Y-85282000D01*
X151319000Y-85508355D01*
X151319001Y-91021643D01*
X150359548Y-91981097D01*
X150207574Y-91918147D01*
X149930335Y-91863000D01*
X149647665Y-91863000D01*
X149370426Y-91918147D01*
X149109273Y-92026320D01*
X148874241Y-92183363D01*
X148674363Y-92383241D01*
X148517320Y-92618273D01*
X148409147Y-92879426D01*
X148354000Y-93156665D01*
X148354000Y-93439335D01*
X148409147Y-93716574D01*
X148517320Y-93977727D01*
X148674363Y-94212759D01*
X148874241Y-94412637D01*
X149109273Y-94569680D01*
X149370426Y-94677853D01*
X149647665Y-94733000D01*
X149930335Y-94733000D01*
X150207574Y-94677853D01*
X150468727Y-94569680D01*
X150703759Y-94412637D01*
X150903637Y-94212759D01*
X150904451Y-94211541D01*
X151034840Y-94141847D01*
X151188633Y-94015633D01*
X151220261Y-93977094D01*
X153008100Y-92189256D01*
X153046633Y-92157633D01*
X153172847Y-92003840D01*
X153266632Y-91828380D01*
X153324385Y-91637994D01*
X153339000Y-91489608D01*
X153343886Y-91440000D01*
X153339000Y-91390392D01*
X153339000Y-85139604D01*
X153343886Y-85089999D01*
X153333442Y-84983962D01*
X153324385Y-84892006D01*
X153266632Y-84701620D01*
X153172847Y-84526160D01*
X153046633Y-84372367D01*
X153008094Y-84340739D01*
X152521000Y-83853645D01*
X152521000Y-83815514D01*
X152469696Y-83557595D01*
X152369061Y-83314641D01*
X152222962Y-83095987D01*
X152196000Y-83069025D01*
X152196000Y-83006655D01*
X152200886Y-82957050D01*
X152196000Y-82907443D01*
X152181385Y-82759057D01*
X152123632Y-82568671D01*
X152029847Y-82393211D01*
X151903633Y-82239418D01*
X151865094Y-82207790D01*
X150926000Y-81268696D01*
X150926000Y-67855355D01*
X152112356Y-66669000D01*
X152333322Y-66669000D01*
X151976841Y-66907193D01*
X151634193Y-67249841D01*
X151364976Y-67652753D01*
X151179536Y-68100444D01*
X151085000Y-68575711D01*
X151085000Y-69060289D01*
X151179536Y-69535556D01*
X151364976Y-69983247D01*
X151634193Y-70386159D01*
X151976841Y-70728807D01*
X152379753Y-70998024D01*
X152827444Y-71183464D01*
X153302711Y-71278000D01*
X153787289Y-71278000D01*
X154262556Y-71183464D01*
X154710247Y-70998024D01*
X155113159Y-70728807D01*
X155455807Y-70386159D01*
X155725024Y-69983247D01*
X155910464Y-69535556D01*
X156005000Y-69060289D01*
X156005000Y-68575711D01*
X155910464Y-68100444D01*
X155725024Y-67652753D01*
X155455807Y-67249841D01*
X155113159Y-66907193D01*
X154710247Y-66637976D01*
X154262556Y-66452536D01*
X154231638Y-66446386D01*
X154316633Y-66376633D01*
X154348261Y-66338094D01*
X155548094Y-65138261D01*
X155586633Y-65106633D01*
X155712847Y-64952840D01*
X155806632Y-64777380D01*
X155864385Y-64586994D01*
X155879000Y-64438608D01*
X155879000Y-64438606D01*
X155883886Y-64389001D01*
X155879000Y-64339396D01*
X155879000Y-53135608D01*
X155883886Y-53086000D01*
X155864385Y-52888005D01*
X155806632Y-52697620D01*
X155738914Y-52570928D01*
X155712847Y-52522160D01*
X155586633Y-52368367D01*
X155548100Y-52336744D01*
X153586261Y-50374906D01*
X153554633Y-50336367D01*
X153400840Y-50210153D01*
X153225380Y-50116368D01*
X153034994Y-50058615D01*
X152886608Y-50044000D01*
X152837000Y-50039114D01*
X152787392Y-50044000D01*
X148187604Y-50044000D01*
X148137999Y-50039114D01*
X148088394Y-50044000D01*
X148088392Y-50044000D01*
X147940006Y-50058615D01*
X147749620Y-50116368D01*
X147574160Y-50210153D01*
X147420367Y-50336367D01*
X147388739Y-50374906D01*
X146515906Y-51247739D01*
X146477367Y-51279367D01*
X146351153Y-51433160D01*
X146257369Y-51608620D01*
X146257368Y-51608621D01*
X146199615Y-51799006D01*
X146180114Y-51997000D01*
X146185000Y-52046608D01*
X146185001Y-53010314D01*
X146119201Y-53076114D01*
X145967629Y-53302957D01*
X145925000Y-53405873D01*
X145882371Y-53302957D01*
X145730799Y-53076114D01*
X145537886Y-52883201D01*
X145311043Y-52731629D01*
X145058989Y-52627225D01*
X144791411Y-52574000D01*
X144518589Y-52574000D01*
X144251011Y-52627225D01*
X143998957Y-52731629D01*
X143772114Y-52883201D01*
X143579201Y-53076114D01*
X143427629Y-53302957D01*
X143323225Y-53555011D01*
X143270000Y-53822589D01*
X143270000Y-53915645D01*
X142705901Y-54479744D01*
X142667368Y-54511367D01*
X142635745Y-54549900D01*
X142635744Y-54549901D01*
X142541154Y-54665160D01*
X142447368Y-54840621D01*
X142389615Y-55031006D01*
X142370114Y-55229000D01*
X142375001Y-55278617D01*
X142375001Y-55489000D01*
X141980604Y-55489000D01*
X141930999Y-55484114D01*
X141881394Y-55489000D01*
X141881392Y-55489000D01*
X141733006Y-55503615D01*
X141542620Y-55561368D01*
X141367160Y-55655153D01*
X141213367Y-55781367D01*
X141181739Y-55819906D01*
X140219906Y-56781739D01*
X140181367Y-56813367D01*
X140055153Y-56967160D01*
X140004011Y-57062841D01*
X139961368Y-57142621D01*
X139903615Y-57333006D01*
X139884114Y-57531000D01*
X139889000Y-57580608D01*
X139889001Y-63704382D01*
X139884114Y-63754000D01*
X139903615Y-63951994D01*
X139961368Y-64142379D01*
X140028294Y-64267589D01*
X140055154Y-64317840D01*
X140181368Y-64471633D01*
X140219901Y-64503256D01*
X141546739Y-65830094D01*
X141578367Y-65868633D01*
X141732160Y-65994847D01*
X141907620Y-66088632D01*
X142098006Y-66146385D01*
X142246392Y-66161000D01*
X142246394Y-66161000D01*
X142295999Y-66165886D01*
X142345604Y-66161000D01*
X142766645Y-66161000D01*
X143217722Y-66612077D01*
X142832556Y-66452536D01*
X142357289Y-66358000D01*
X141872711Y-66358000D01*
X141397444Y-66452536D01*
X140949753Y-66637976D01*
X140546841Y-66907193D01*
X140204193Y-67249841D01*
X139934976Y-67652753D01*
X139749536Y-68100444D01*
X139655000Y-68575711D01*
X138545000Y-68575711D01*
X138545000Y-47366711D01*
X139655000Y-47366711D01*
X139655000Y-47851289D01*
X139749536Y-48326556D01*
X139934976Y-48774247D01*
X140204193Y-49177159D01*
X140546841Y-49519807D01*
X140949753Y-49789024D01*
X141397444Y-49974464D01*
X141872711Y-50069000D01*
X142357289Y-50069000D01*
X142832556Y-49974464D01*
X143280247Y-49789024D01*
X143683159Y-49519807D01*
X144025807Y-49177159D01*
X144295024Y-48774247D01*
X144480464Y-48326556D01*
X144575000Y-47851289D01*
X144575000Y-47366711D01*
X151085000Y-47366711D01*
X151085000Y-47851289D01*
X151179536Y-48326556D01*
X151364976Y-48774247D01*
X151634193Y-49177159D01*
X151976841Y-49519807D01*
X152379753Y-49789024D01*
X152827444Y-49974464D01*
X153302711Y-50069000D01*
X153787289Y-50069000D01*
X154262556Y-49974464D01*
X154710247Y-49789024D01*
X155113159Y-49519807D01*
X155455807Y-49177159D01*
X155725024Y-48774247D01*
X155910464Y-48326556D01*
X156005000Y-47851289D01*
X156005000Y-47366711D01*
X155910464Y-46891444D01*
X155725024Y-46443753D01*
X155455807Y-46040841D01*
X155113159Y-45698193D01*
X154710247Y-45428976D01*
X154262556Y-45243536D01*
X153787289Y-45149000D01*
X153302711Y-45149000D01*
X152827444Y-45243536D01*
X152379753Y-45428976D01*
X151976841Y-45698193D01*
X151634193Y-46040841D01*
X151364976Y-46443753D01*
X151179536Y-46891444D01*
X151085000Y-47366711D01*
X144575000Y-47366711D01*
X144480464Y-46891444D01*
X144295024Y-46443753D01*
X144025807Y-46040841D01*
X143683159Y-45698193D01*
X143280247Y-45428976D01*
X142832556Y-45243536D01*
X142357289Y-45149000D01*
X141872711Y-45149000D01*
X141397444Y-45243536D01*
X140949753Y-45428976D01*
X140546841Y-45698193D01*
X140204193Y-46040841D01*
X139934976Y-46443753D01*
X139749536Y-46891444D01*
X139655000Y-47366711D01*
X138545000Y-47366711D01*
X138545000Y-40081000D01*
X157225000Y-40081000D01*
X157225001Y-101882732D01*
M02*
