G04 #@! TF.GenerationSoftware,KiCad,Pcbnew,5.1.5+dfsg1-2build2*
G04 #@! TF.CreationDate,2021-09-08T22:35:55-05:00*
G04 #@! TF.ProjectId,ETH_HUB_PLATE_SLIM,4554485f-4855-4425-9f50-4c4154455f53,rev?*
G04 #@! TF.SameCoordinates,Original*
G04 #@! TF.FileFunction,Legend,Bot*
G04 #@! TF.FilePolarity,Positive*
%FSLAX46Y46*%
G04 Gerber Fmt 4.6, Leading zero omitted, Abs format (unit mm)*
G04 Created by KiCad (PCBNEW 5.1.5+dfsg1-2build2) date 2021-09-08 22:35:55*
%MOMM*%
%LPD*%
G04 APERTURE LIST*
%ADD10C,0.150000*%
%ADD11C,0.050000*%
%ADD12C,0.010000*%
G04 APERTURE END LIST*
D10*
X119689190Y-121674380D02*
X119689190Y-120674380D01*
X119451095Y-120674380D01*
X119308238Y-120722000D01*
X119213000Y-120817238D01*
X119165380Y-120912476D01*
X119117761Y-121102952D01*
X119117761Y-121245809D01*
X119165380Y-121436285D01*
X119213000Y-121531523D01*
X119308238Y-121626761D01*
X119451095Y-121674380D01*
X119689190Y-121674380D01*
X118689190Y-121674380D02*
X118689190Y-120674380D01*
X118213000Y-121674380D02*
X118213000Y-120674380D01*
X117641571Y-121674380D01*
X117641571Y-120674380D01*
X115832047Y-121674380D02*
X116165380Y-121198190D01*
X116403476Y-121674380D02*
X116403476Y-120674380D01*
X116022523Y-120674380D01*
X115927285Y-120722000D01*
X115879666Y-120769619D01*
X115832047Y-120864857D01*
X115832047Y-121007714D01*
X115879666Y-121102952D01*
X115927285Y-121150571D01*
X116022523Y-121198190D01*
X116403476Y-121198190D01*
X115451095Y-121388666D02*
X114974904Y-121388666D01*
X115546333Y-121674380D02*
X115213000Y-120674380D01*
X114879666Y-121674380D01*
X114546333Y-121674380D02*
X114546333Y-120674380D01*
X113593952Y-121674380D02*
X114070142Y-121674380D01*
X114070142Y-120674380D01*
X126689190Y-122800571D02*
X126355857Y-122800571D01*
X126213000Y-123324380D02*
X126689190Y-123324380D01*
X126689190Y-122324380D01*
X126213000Y-122324380D01*
X125927285Y-122324380D02*
X125355857Y-122324380D01*
X125641571Y-123324380D02*
X125641571Y-122324380D01*
X125022523Y-123324380D02*
X125022523Y-122324380D01*
X125022523Y-122800571D02*
X124451095Y-122800571D01*
X124451095Y-123324380D02*
X124451095Y-122324380D01*
X123974904Y-122800571D02*
X123641571Y-122800571D01*
X123498714Y-123324380D02*
X123974904Y-123324380D01*
X123974904Y-122324380D01*
X123498714Y-122324380D01*
X122498714Y-123324380D02*
X122832047Y-122848190D01*
X123070142Y-123324380D02*
X123070142Y-122324380D01*
X122689190Y-122324380D01*
X122593952Y-122372000D01*
X122546333Y-122419619D01*
X122498714Y-122514857D01*
X122498714Y-122657714D01*
X122546333Y-122752952D01*
X122593952Y-122800571D01*
X122689190Y-122848190D01*
X123070142Y-122848190D01*
X122070142Y-123324380D02*
X122070142Y-122324380D01*
X121498714Y-123324380D01*
X121498714Y-122324380D01*
X121022523Y-122800571D02*
X120689190Y-122800571D01*
X120546333Y-123324380D02*
X121022523Y-123324380D01*
X121022523Y-122324380D01*
X120546333Y-122324380D01*
X120260619Y-122324380D02*
X119689190Y-122324380D01*
X119974904Y-123324380D02*
X119974904Y-122324380D01*
X118593952Y-123324380D02*
X118593952Y-122324380D01*
X118593952Y-122800571D02*
X118022523Y-122800571D01*
X118022523Y-123324380D02*
X118022523Y-122324380D01*
X117546333Y-122324380D02*
X117546333Y-123133904D01*
X117498714Y-123229142D01*
X117451095Y-123276761D01*
X117355857Y-123324380D01*
X117165380Y-123324380D01*
X117070142Y-123276761D01*
X117022523Y-123229142D01*
X116974904Y-123133904D01*
X116974904Y-122324380D01*
X116165380Y-122800571D02*
X116022523Y-122848190D01*
X115974904Y-122895809D01*
X115927285Y-122991047D01*
X115927285Y-123133904D01*
X115974904Y-123229142D01*
X116022523Y-123276761D01*
X116117761Y-123324380D01*
X116498714Y-123324380D01*
X116498714Y-122324380D01*
X116165380Y-122324380D01*
X116070142Y-122372000D01*
X116022523Y-122419619D01*
X115974904Y-122514857D01*
X115974904Y-122610095D01*
X116022523Y-122705333D01*
X116070142Y-122752952D01*
X116165380Y-122800571D01*
X116498714Y-122800571D01*
X114736809Y-123324380D02*
X114736809Y-122324380D01*
X114355857Y-122324380D01*
X114260619Y-122372000D01*
X114213000Y-122419619D01*
X114165380Y-122514857D01*
X114165380Y-122657714D01*
X114213000Y-122752952D01*
X114260619Y-122800571D01*
X114355857Y-122848190D01*
X114736809Y-122848190D01*
X113260619Y-123324380D02*
X113736809Y-123324380D01*
X113736809Y-122324380D01*
X112974904Y-123038666D02*
X112498714Y-123038666D01*
X113070142Y-123324380D02*
X112736809Y-122324380D01*
X112403476Y-123324380D01*
X112213000Y-122324380D02*
X111641571Y-122324380D01*
X111927285Y-123324380D02*
X111927285Y-122324380D01*
X111308238Y-122800571D02*
X110974904Y-122800571D01*
X110832047Y-123324380D02*
X111308238Y-123324380D01*
X111308238Y-122324380D01*
X110832047Y-122324380D01*
X109689190Y-123276761D02*
X109546333Y-123324380D01*
X109308238Y-123324380D01*
X109213000Y-123276761D01*
X109165380Y-123229142D01*
X109117761Y-123133904D01*
X109117761Y-123038666D01*
X109165380Y-122943428D01*
X109213000Y-122895809D01*
X109308238Y-122848190D01*
X109498714Y-122800571D01*
X109593952Y-122752952D01*
X109641571Y-122705333D01*
X109689190Y-122610095D01*
X109689190Y-122514857D01*
X109641571Y-122419619D01*
X109593952Y-122372000D01*
X109498714Y-122324380D01*
X109260619Y-122324380D01*
X109117761Y-122372000D01*
X108213000Y-123324380D02*
X108689190Y-123324380D01*
X108689190Y-122324380D01*
X107879666Y-123324380D02*
X107879666Y-122324380D01*
X107403476Y-123324380D02*
X107403476Y-122324380D01*
X107070142Y-123038666D01*
X106736809Y-122324380D01*
X106736809Y-123324380D01*
D11*
X100000000Y-154400000D02*
X160150000Y-154400000D01*
X160150000Y-100000000D02*
X160150000Y-154400000D01*
X100000000Y-100000000D02*
X160150000Y-100000000D01*
X100000000Y-100000000D02*
X100000000Y-154400000D01*
D12*
G36*
X149431186Y-118372931D02*
G01*
X149347365Y-118817555D01*
X149038080Y-118945053D01*
X148728794Y-119072551D01*
X148357754Y-118820246D01*
X148253843Y-118749996D01*
X148159913Y-118687272D01*
X148080348Y-118634938D01*
X148019530Y-118595857D01*
X147981843Y-118572893D01*
X147971579Y-118567942D01*
X147953090Y-118580676D01*
X147913580Y-118615882D01*
X147857478Y-118669062D01*
X147789213Y-118735718D01*
X147713214Y-118811354D01*
X147633908Y-118891472D01*
X147555725Y-118971574D01*
X147483093Y-119047164D01*
X147420441Y-119113745D01*
X147372197Y-119166818D01*
X147342790Y-119201887D01*
X147335759Y-119213623D01*
X147345877Y-119235260D01*
X147374241Y-119282662D01*
X147417871Y-119351193D01*
X147473782Y-119436215D01*
X147538994Y-119533093D01*
X147576781Y-119588350D01*
X147645657Y-119689248D01*
X147706860Y-119780299D01*
X147757422Y-119856970D01*
X147794372Y-119914728D01*
X147814742Y-119949043D01*
X147817803Y-119956254D01*
X147810864Y-119976748D01*
X147791949Y-120024513D01*
X147763913Y-120092832D01*
X147729609Y-120174989D01*
X147691891Y-120264270D01*
X147653613Y-120353958D01*
X147617630Y-120437338D01*
X147586794Y-120507694D01*
X147563961Y-120558310D01*
X147551983Y-120582471D01*
X147551276Y-120583422D01*
X147532469Y-120588036D01*
X147482382Y-120598328D01*
X147406207Y-120613287D01*
X147309135Y-120631901D01*
X147196357Y-120653159D01*
X147130558Y-120665418D01*
X147010050Y-120688362D01*
X146901203Y-120710195D01*
X146809524Y-120729722D01*
X146740519Y-120745748D01*
X146699696Y-120757079D01*
X146691489Y-120760674D01*
X146683452Y-120785006D01*
X146676967Y-120839959D01*
X146672030Y-120919108D01*
X146668636Y-121016026D01*
X146666782Y-121124287D01*
X146666462Y-121237465D01*
X146667673Y-121349135D01*
X146670410Y-121452868D01*
X146674669Y-121542241D01*
X146680445Y-121610826D01*
X146687733Y-121652197D01*
X146692105Y-121660810D01*
X146718236Y-121671133D01*
X146773607Y-121685892D01*
X146850893Y-121703352D01*
X146942770Y-121721780D01*
X146974842Y-121727741D01*
X147129476Y-121756066D01*
X147251625Y-121778876D01*
X147345327Y-121797080D01*
X147414616Y-121811583D01*
X147463529Y-121823292D01*
X147496103Y-121833115D01*
X147516372Y-121841956D01*
X147528374Y-121850724D01*
X147530053Y-121852457D01*
X147546816Y-121880371D01*
X147572386Y-121934695D01*
X147604212Y-122008777D01*
X147639740Y-122095965D01*
X147676417Y-122189608D01*
X147711689Y-122283052D01*
X147743004Y-122369647D01*
X147767807Y-122442740D01*
X147783546Y-122495678D01*
X147787668Y-122521811D01*
X147787324Y-122522726D01*
X147773359Y-122544086D01*
X147741678Y-122591084D01*
X147695609Y-122658827D01*
X147638482Y-122742423D01*
X147573627Y-122836982D01*
X147555157Y-122863854D01*
X147489301Y-122961275D01*
X147431350Y-123050163D01*
X147384462Y-123125412D01*
X147351793Y-123181920D01*
X147336500Y-123214581D01*
X147335759Y-123218593D01*
X147348608Y-123239684D01*
X147384112Y-123281464D01*
X147437707Y-123339445D01*
X147504829Y-123409135D01*
X147580913Y-123486045D01*
X147661396Y-123565683D01*
X147741713Y-123643561D01*
X147817301Y-123715186D01*
X147883595Y-123776070D01*
X147936031Y-123821721D01*
X147970045Y-123847650D01*
X147979455Y-123851883D01*
X148001357Y-123841912D01*
X148046200Y-123815020D01*
X148106679Y-123775736D01*
X148153211Y-123744117D01*
X148237525Y-123686098D01*
X148337374Y-123617784D01*
X148437527Y-123549579D01*
X148491373Y-123513075D01*
X148673629Y-123389800D01*
X148826619Y-123472520D01*
X148896318Y-123508759D01*
X148955586Y-123536926D01*
X148995689Y-123552991D01*
X149005897Y-123555226D01*
X149018171Y-123538722D01*
X149042387Y-123492082D01*
X149076737Y-123419609D01*
X149119412Y-123325606D01*
X149168606Y-123214374D01*
X149222510Y-123090215D01*
X149279316Y-122957432D01*
X149337218Y-122820327D01*
X149394407Y-122683202D01*
X149449076Y-122550358D01*
X149499416Y-122426098D01*
X149543620Y-122314725D01*
X149579881Y-122220539D01*
X149606391Y-122147844D01*
X149621342Y-122100941D01*
X149623746Y-122084833D01*
X149604689Y-122064286D01*
X149562964Y-122030933D01*
X149507294Y-121991702D01*
X149502622Y-121988599D01*
X149358736Y-121873423D01*
X149242717Y-121739053D01*
X149155570Y-121589784D01*
X149098301Y-121429913D01*
X149071914Y-121263737D01*
X149077415Y-121095552D01*
X149115810Y-120929655D01*
X149188105Y-120770342D01*
X149209374Y-120735487D01*
X149320004Y-120594737D01*
X149450698Y-120481714D01*
X149596936Y-120397003D01*
X149754192Y-120341194D01*
X149917943Y-120314874D01*
X150083667Y-120318630D01*
X150246838Y-120353050D01*
X150402935Y-120418723D01*
X150547433Y-120516235D01*
X150592131Y-120555813D01*
X150705888Y-120679703D01*
X150788782Y-120810124D01*
X150845644Y-120956315D01*
X150877313Y-121101088D01*
X150885131Y-121263860D01*
X150859062Y-121427440D01*
X150801755Y-121586298D01*
X150715856Y-121734906D01*
X150604014Y-121867735D01*
X150468877Y-121979256D01*
X150451117Y-121991011D01*
X150394850Y-122029508D01*
X150352077Y-122062863D01*
X150331628Y-122084160D01*
X150331331Y-122084833D01*
X150335721Y-122107871D01*
X150353124Y-122160157D01*
X150381732Y-122237390D01*
X150419735Y-122335268D01*
X150465326Y-122449491D01*
X150516697Y-122575758D01*
X150572038Y-122709767D01*
X150629542Y-122847218D01*
X150687399Y-122983808D01*
X150743802Y-123115237D01*
X150796942Y-123237205D01*
X150845010Y-123345409D01*
X150886199Y-123435549D01*
X150918699Y-123503323D01*
X150940703Y-123544430D01*
X150949564Y-123555226D01*
X150976640Y-123546819D01*
X151027303Y-123524272D01*
X151092817Y-123491613D01*
X151128841Y-123472520D01*
X151281832Y-123389800D01*
X151464088Y-123513075D01*
X151557125Y-123576228D01*
X151658985Y-123645727D01*
X151754438Y-123711165D01*
X151802250Y-123744117D01*
X151869495Y-123789273D01*
X151926436Y-123825057D01*
X151965646Y-123846938D01*
X151978381Y-123851563D01*
X151996917Y-123839085D01*
X152037941Y-123804252D01*
X152097475Y-123750678D01*
X152171542Y-123681983D01*
X152256165Y-123601781D01*
X152309685Y-123550286D01*
X152403319Y-123458286D01*
X152484241Y-123375999D01*
X152549177Y-123306945D01*
X152594858Y-123254644D01*
X152618011Y-123222616D01*
X152620232Y-123216116D01*
X152609924Y-123191394D01*
X152581439Y-123141405D01*
X152537937Y-123071212D01*
X152482577Y-122985875D01*
X152418520Y-122890456D01*
X152400303Y-122863854D01*
X152333927Y-122767167D01*
X152274378Y-122680117D01*
X152224984Y-122607595D01*
X152189075Y-122554493D01*
X152169981Y-122525703D01*
X152168136Y-122522726D01*
X152170895Y-122499782D01*
X152185538Y-122449336D01*
X152209513Y-122378041D01*
X152240266Y-122292547D01*
X152275244Y-122199507D01*
X152311893Y-122105574D01*
X152347661Y-122017399D01*
X152379994Y-121941634D01*
X152406338Y-121884931D01*
X152424142Y-121853943D01*
X152425407Y-121852457D01*
X152436294Y-121843601D01*
X152454682Y-121834843D01*
X152484606Y-121825277D01*
X152530103Y-121813996D01*
X152595209Y-121800093D01*
X152683961Y-121782663D01*
X152800393Y-121760798D01*
X152948542Y-121733591D01*
X152980618Y-121727741D01*
X153075686Y-121709374D01*
X153158565Y-121691405D01*
X153221930Y-121675569D01*
X153258458Y-121663600D01*
X153263356Y-121660810D01*
X153271427Y-121636072D01*
X153277987Y-121580790D01*
X153283033Y-121501389D01*
X153286559Y-121404296D01*
X153288561Y-121295938D01*
X153289036Y-121182740D01*
X153287977Y-121071128D01*
X153285382Y-120967529D01*
X153281246Y-120878368D01*
X153275563Y-120810072D01*
X153268331Y-120769066D01*
X153263971Y-120760674D01*
X153239698Y-120752208D01*
X153184426Y-120738435D01*
X153103662Y-120720550D01*
X153002912Y-120699748D01*
X152887683Y-120677223D01*
X152824902Y-120665418D01*
X152705787Y-120643151D01*
X152599565Y-120622979D01*
X152511427Y-120605915D01*
X152446566Y-120592969D01*
X152410174Y-120585155D01*
X152404184Y-120583422D01*
X152394061Y-120563890D01*
X152372662Y-120516843D01*
X152342839Y-120449003D01*
X152307445Y-120367091D01*
X152269332Y-120277828D01*
X152231353Y-120187935D01*
X152196360Y-120104135D01*
X152167206Y-120033147D01*
X152146743Y-119981694D01*
X152137823Y-119956497D01*
X152137657Y-119955396D01*
X152147769Y-119935519D01*
X152176117Y-119889777D01*
X152219723Y-119822717D01*
X152275606Y-119738884D01*
X152340787Y-119642826D01*
X152378679Y-119587650D01*
X152447725Y-119486481D01*
X152509050Y-119394630D01*
X152559663Y-119316744D01*
X152596571Y-119257469D01*
X152616782Y-119221451D01*
X152619701Y-119213377D01*
X152607153Y-119194584D01*
X152572463Y-119154457D01*
X152520063Y-119097493D01*
X152454384Y-119028185D01*
X152379856Y-118951031D01*
X152300913Y-118870525D01*
X152221983Y-118791163D01*
X152147500Y-118717440D01*
X152081894Y-118653852D01*
X152029596Y-118604894D01*
X151995039Y-118575061D01*
X151983478Y-118567942D01*
X151964654Y-118577953D01*
X151919631Y-118606078D01*
X151852787Y-118649454D01*
X151768499Y-118705218D01*
X151671144Y-118770506D01*
X151597707Y-118820246D01*
X151226667Y-119072551D01*
X150608095Y-118817555D01*
X150524275Y-118372931D01*
X150440454Y-117928307D01*
X149515006Y-117928307D01*
X149431186Y-118372931D01*
G37*
X149431186Y-118372931D02*
X149347365Y-118817555D01*
X149038080Y-118945053D01*
X148728794Y-119072551D01*
X148357754Y-118820246D01*
X148253843Y-118749996D01*
X148159913Y-118687272D01*
X148080348Y-118634938D01*
X148019530Y-118595857D01*
X147981843Y-118572893D01*
X147971579Y-118567942D01*
X147953090Y-118580676D01*
X147913580Y-118615882D01*
X147857478Y-118669062D01*
X147789213Y-118735718D01*
X147713214Y-118811354D01*
X147633908Y-118891472D01*
X147555725Y-118971574D01*
X147483093Y-119047164D01*
X147420441Y-119113745D01*
X147372197Y-119166818D01*
X147342790Y-119201887D01*
X147335759Y-119213623D01*
X147345877Y-119235260D01*
X147374241Y-119282662D01*
X147417871Y-119351193D01*
X147473782Y-119436215D01*
X147538994Y-119533093D01*
X147576781Y-119588350D01*
X147645657Y-119689248D01*
X147706860Y-119780299D01*
X147757422Y-119856970D01*
X147794372Y-119914728D01*
X147814742Y-119949043D01*
X147817803Y-119956254D01*
X147810864Y-119976748D01*
X147791949Y-120024513D01*
X147763913Y-120092832D01*
X147729609Y-120174989D01*
X147691891Y-120264270D01*
X147653613Y-120353958D01*
X147617630Y-120437338D01*
X147586794Y-120507694D01*
X147563961Y-120558310D01*
X147551983Y-120582471D01*
X147551276Y-120583422D01*
X147532469Y-120588036D01*
X147482382Y-120598328D01*
X147406207Y-120613287D01*
X147309135Y-120631901D01*
X147196357Y-120653159D01*
X147130558Y-120665418D01*
X147010050Y-120688362D01*
X146901203Y-120710195D01*
X146809524Y-120729722D01*
X146740519Y-120745748D01*
X146699696Y-120757079D01*
X146691489Y-120760674D01*
X146683452Y-120785006D01*
X146676967Y-120839959D01*
X146672030Y-120919108D01*
X146668636Y-121016026D01*
X146666782Y-121124287D01*
X146666462Y-121237465D01*
X146667673Y-121349135D01*
X146670410Y-121452868D01*
X146674669Y-121542241D01*
X146680445Y-121610826D01*
X146687733Y-121652197D01*
X146692105Y-121660810D01*
X146718236Y-121671133D01*
X146773607Y-121685892D01*
X146850893Y-121703352D01*
X146942770Y-121721780D01*
X146974842Y-121727741D01*
X147129476Y-121756066D01*
X147251625Y-121778876D01*
X147345327Y-121797080D01*
X147414616Y-121811583D01*
X147463529Y-121823292D01*
X147496103Y-121833115D01*
X147516372Y-121841956D01*
X147528374Y-121850724D01*
X147530053Y-121852457D01*
X147546816Y-121880371D01*
X147572386Y-121934695D01*
X147604212Y-122008777D01*
X147639740Y-122095965D01*
X147676417Y-122189608D01*
X147711689Y-122283052D01*
X147743004Y-122369647D01*
X147767807Y-122442740D01*
X147783546Y-122495678D01*
X147787668Y-122521811D01*
X147787324Y-122522726D01*
X147773359Y-122544086D01*
X147741678Y-122591084D01*
X147695609Y-122658827D01*
X147638482Y-122742423D01*
X147573627Y-122836982D01*
X147555157Y-122863854D01*
X147489301Y-122961275D01*
X147431350Y-123050163D01*
X147384462Y-123125412D01*
X147351793Y-123181920D01*
X147336500Y-123214581D01*
X147335759Y-123218593D01*
X147348608Y-123239684D01*
X147384112Y-123281464D01*
X147437707Y-123339445D01*
X147504829Y-123409135D01*
X147580913Y-123486045D01*
X147661396Y-123565683D01*
X147741713Y-123643561D01*
X147817301Y-123715186D01*
X147883595Y-123776070D01*
X147936031Y-123821721D01*
X147970045Y-123847650D01*
X147979455Y-123851883D01*
X148001357Y-123841912D01*
X148046200Y-123815020D01*
X148106679Y-123775736D01*
X148153211Y-123744117D01*
X148237525Y-123686098D01*
X148337374Y-123617784D01*
X148437527Y-123549579D01*
X148491373Y-123513075D01*
X148673629Y-123389800D01*
X148826619Y-123472520D01*
X148896318Y-123508759D01*
X148955586Y-123536926D01*
X148995689Y-123552991D01*
X149005897Y-123555226D01*
X149018171Y-123538722D01*
X149042387Y-123492082D01*
X149076737Y-123419609D01*
X149119412Y-123325606D01*
X149168606Y-123214374D01*
X149222510Y-123090215D01*
X149279316Y-122957432D01*
X149337218Y-122820327D01*
X149394407Y-122683202D01*
X149449076Y-122550358D01*
X149499416Y-122426098D01*
X149543620Y-122314725D01*
X149579881Y-122220539D01*
X149606391Y-122147844D01*
X149621342Y-122100941D01*
X149623746Y-122084833D01*
X149604689Y-122064286D01*
X149562964Y-122030933D01*
X149507294Y-121991702D01*
X149502622Y-121988599D01*
X149358736Y-121873423D01*
X149242717Y-121739053D01*
X149155570Y-121589784D01*
X149098301Y-121429913D01*
X149071914Y-121263737D01*
X149077415Y-121095552D01*
X149115810Y-120929655D01*
X149188105Y-120770342D01*
X149209374Y-120735487D01*
X149320004Y-120594737D01*
X149450698Y-120481714D01*
X149596936Y-120397003D01*
X149754192Y-120341194D01*
X149917943Y-120314874D01*
X150083667Y-120318630D01*
X150246838Y-120353050D01*
X150402935Y-120418723D01*
X150547433Y-120516235D01*
X150592131Y-120555813D01*
X150705888Y-120679703D01*
X150788782Y-120810124D01*
X150845644Y-120956315D01*
X150877313Y-121101088D01*
X150885131Y-121263860D01*
X150859062Y-121427440D01*
X150801755Y-121586298D01*
X150715856Y-121734906D01*
X150604014Y-121867735D01*
X150468877Y-121979256D01*
X150451117Y-121991011D01*
X150394850Y-122029508D01*
X150352077Y-122062863D01*
X150331628Y-122084160D01*
X150331331Y-122084833D01*
X150335721Y-122107871D01*
X150353124Y-122160157D01*
X150381732Y-122237390D01*
X150419735Y-122335268D01*
X150465326Y-122449491D01*
X150516697Y-122575758D01*
X150572038Y-122709767D01*
X150629542Y-122847218D01*
X150687399Y-122983808D01*
X150743802Y-123115237D01*
X150796942Y-123237205D01*
X150845010Y-123345409D01*
X150886199Y-123435549D01*
X150918699Y-123503323D01*
X150940703Y-123544430D01*
X150949564Y-123555226D01*
X150976640Y-123546819D01*
X151027303Y-123524272D01*
X151092817Y-123491613D01*
X151128841Y-123472520D01*
X151281832Y-123389800D01*
X151464088Y-123513075D01*
X151557125Y-123576228D01*
X151658985Y-123645727D01*
X151754438Y-123711165D01*
X151802250Y-123744117D01*
X151869495Y-123789273D01*
X151926436Y-123825057D01*
X151965646Y-123846938D01*
X151978381Y-123851563D01*
X151996917Y-123839085D01*
X152037941Y-123804252D01*
X152097475Y-123750678D01*
X152171542Y-123681983D01*
X152256165Y-123601781D01*
X152309685Y-123550286D01*
X152403319Y-123458286D01*
X152484241Y-123375999D01*
X152549177Y-123306945D01*
X152594858Y-123254644D01*
X152618011Y-123222616D01*
X152620232Y-123216116D01*
X152609924Y-123191394D01*
X152581439Y-123141405D01*
X152537937Y-123071212D01*
X152482577Y-122985875D01*
X152418520Y-122890456D01*
X152400303Y-122863854D01*
X152333927Y-122767167D01*
X152274378Y-122680117D01*
X152224984Y-122607595D01*
X152189075Y-122554493D01*
X152169981Y-122525703D01*
X152168136Y-122522726D01*
X152170895Y-122499782D01*
X152185538Y-122449336D01*
X152209513Y-122378041D01*
X152240266Y-122292547D01*
X152275244Y-122199507D01*
X152311893Y-122105574D01*
X152347661Y-122017399D01*
X152379994Y-121941634D01*
X152406338Y-121884931D01*
X152424142Y-121853943D01*
X152425407Y-121852457D01*
X152436294Y-121843601D01*
X152454682Y-121834843D01*
X152484606Y-121825277D01*
X152530103Y-121813996D01*
X152595209Y-121800093D01*
X152683961Y-121782663D01*
X152800393Y-121760798D01*
X152948542Y-121733591D01*
X152980618Y-121727741D01*
X153075686Y-121709374D01*
X153158565Y-121691405D01*
X153221930Y-121675569D01*
X153258458Y-121663600D01*
X153263356Y-121660810D01*
X153271427Y-121636072D01*
X153277987Y-121580790D01*
X153283033Y-121501389D01*
X153286559Y-121404296D01*
X153288561Y-121295938D01*
X153289036Y-121182740D01*
X153287977Y-121071128D01*
X153285382Y-120967529D01*
X153281246Y-120878368D01*
X153275563Y-120810072D01*
X153268331Y-120769066D01*
X153263971Y-120760674D01*
X153239698Y-120752208D01*
X153184426Y-120738435D01*
X153103662Y-120720550D01*
X153002912Y-120699748D01*
X152887683Y-120677223D01*
X152824902Y-120665418D01*
X152705787Y-120643151D01*
X152599565Y-120622979D01*
X152511427Y-120605915D01*
X152446566Y-120592969D01*
X152410174Y-120585155D01*
X152404184Y-120583422D01*
X152394061Y-120563890D01*
X152372662Y-120516843D01*
X152342839Y-120449003D01*
X152307445Y-120367091D01*
X152269332Y-120277828D01*
X152231353Y-120187935D01*
X152196360Y-120104135D01*
X152167206Y-120033147D01*
X152146743Y-119981694D01*
X152137823Y-119956497D01*
X152137657Y-119955396D01*
X152147769Y-119935519D01*
X152176117Y-119889777D01*
X152219723Y-119822717D01*
X152275606Y-119738884D01*
X152340787Y-119642826D01*
X152378679Y-119587650D01*
X152447725Y-119486481D01*
X152509050Y-119394630D01*
X152559663Y-119316744D01*
X152596571Y-119257469D01*
X152616782Y-119221451D01*
X152619701Y-119213377D01*
X152607153Y-119194584D01*
X152572463Y-119154457D01*
X152520063Y-119097493D01*
X152454384Y-119028185D01*
X152379856Y-118951031D01*
X152300913Y-118870525D01*
X152221983Y-118791163D01*
X152147500Y-118717440D01*
X152081894Y-118653852D01*
X152029596Y-118604894D01*
X151995039Y-118575061D01*
X151983478Y-118567942D01*
X151964654Y-118577953D01*
X151919631Y-118606078D01*
X151852787Y-118649454D01*
X151768499Y-118705218D01*
X151671144Y-118770506D01*
X151597707Y-118820246D01*
X151226667Y-119072551D01*
X150608095Y-118817555D01*
X150524275Y-118372931D01*
X150440454Y-117928307D01*
X149515006Y-117928307D01*
X149431186Y-118372931D01*
M02*
