G04 #@! TF.GenerationSoftware,KiCad,Pcbnew,5.1.5+dfsg1-2build2*
G04 #@! TF.CreationDate,2021-09-07T20:18:59-05:00*
G04 #@! TF.ProjectId,,58585858-5858-4585-9858-585858585858,rev?*
G04 #@! TF.SameCoordinates,Original*
G04 #@! TF.FileFunction,Copper,L2,Bot*
G04 #@! TF.FilePolarity,Positive*
%FSLAX46Y46*%
G04 Gerber Fmt 4.6, Leading zero omitted, Abs format (unit mm)*
G04 Created by KiCad (PCBNEW 5.1.5+dfsg1-2build2) date 2021-09-07 20:18:59*
%MOMM*%
%LPD*%
G04 APERTURE LIST*
%ADD10C,1.800000*%
%ADD11R,2.600000X2.600000*%
%ADD12C,2.600000*%
%ADD13C,2.000000*%
%ADD14C,2.000000*%
G04 APERTURE END LIST*
D10*
X149479000Y-90861000D03*
X148079000Y-98361000D03*
X149479000Y-70861000D03*
X148079000Y-78361000D03*
X149479000Y-50861000D03*
X148079000Y-58361000D03*
D11*
X125657000Y-99515000D03*
D12*
X125657000Y-94435000D03*
X125657000Y-89355000D03*
D11*
X125657000Y-79515000D03*
D12*
X125657000Y-74435000D03*
X125657000Y-69355000D03*
D11*
X125657000Y-59515000D03*
D12*
X125657000Y-54435000D03*
X125657000Y-49355000D03*
D10*
X134407000Y-101021000D03*
X135807000Y-93521000D03*
X134407000Y-81021000D03*
X135807000Y-73521000D03*
X134407000Y-61021000D03*
X135807000Y-53521000D03*
X141307000Y-95306000D03*
X142707000Y-87806000D03*
X141307000Y-75306000D03*
X142707000Y-67806000D03*
X141307000Y-55306000D03*
X142707000Y-47806000D03*
X167407000Y-92766000D03*
X159907000Y-89866000D03*
X167407000Y-72766000D03*
X159907000Y-69866000D03*
X167407000Y-52766000D03*
X159907000Y-49866000D03*
D13*
X168907000Y-98862000D03*
X158907000Y-96662000D03*
X168907000Y-78862000D03*
X158907000Y-76662000D03*
X168907000Y-58862000D03*
X158907000Y-56662000D03*
D11*
X182207000Y-89355000D03*
D12*
X182207000Y-94435000D03*
X182207000Y-99515000D03*
D11*
X182207000Y-69355000D03*
D12*
X182207000Y-74435000D03*
X182207000Y-79515000D03*
D11*
X182207000Y-49355000D03*
D12*
X182207000Y-54435000D03*
X182207000Y-59515000D03*
D10*
X148079000Y-38361000D03*
X149479000Y-30861000D03*
X142707000Y-27806000D03*
X141307000Y-35306000D03*
X135807000Y-33521000D03*
X134407000Y-41021000D03*
X159907000Y-29866000D03*
X167407000Y-32766000D03*
D13*
X158907000Y-36662000D03*
X168907000Y-38862000D03*
D12*
X182207000Y-39515000D03*
X182207000Y-34435000D03*
D11*
X182207000Y-29355000D03*
D12*
X125657000Y-29355000D03*
X125657000Y-34435000D03*
D11*
X125657000Y-39515000D03*
D14*
X127206000Y-27806000D02*
X125657000Y-29355000D01*
X142707000Y-27806000D02*
X127206000Y-27806000D01*
X146424000Y-27806000D02*
X149479000Y-30861000D01*
X142707000Y-27806000D02*
X146424000Y-27806000D01*
X182207000Y-29355000D02*
X182207000Y-27775000D01*
X182207000Y-27775000D02*
X180340000Y-25908000D01*
X180340000Y-25908000D02*
X156591000Y-25908000D01*
X151638000Y-30861000D02*
X149479000Y-30861000D01*
X156591000Y-25908000D02*
X151638000Y-30861000D01*
X127206000Y-47806000D02*
X125657000Y-49355000D01*
X127206000Y-67806000D02*
X125657000Y-69355000D01*
X127206000Y-87806000D02*
X125657000Y-89355000D01*
X182207000Y-47775000D02*
X180340000Y-45908000D01*
X182207000Y-67775000D02*
X180340000Y-65908000D01*
X182207000Y-87775000D02*
X180340000Y-85908000D01*
X151638000Y-50861000D02*
X149479000Y-50861000D01*
X151638000Y-70861000D02*
X149479000Y-70861000D01*
X151638000Y-90861000D02*
X149479000Y-90861000D01*
X156591000Y-45908000D02*
X151638000Y-50861000D01*
X156591000Y-65908000D02*
X151638000Y-70861000D01*
X156591000Y-85908000D02*
X151638000Y-90861000D01*
X142707000Y-47806000D02*
X127206000Y-47806000D01*
X142707000Y-67806000D02*
X127206000Y-67806000D01*
X142707000Y-87806000D02*
X127206000Y-87806000D01*
X180340000Y-45908000D02*
X156591000Y-45908000D01*
X180340000Y-65908000D02*
X156591000Y-65908000D01*
X180340000Y-85908000D02*
X156591000Y-85908000D01*
X182207000Y-49355000D02*
X182207000Y-47775000D01*
X182207000Y-69355000D02*
X182207000Y-67775000D01*
X182207000Y-89355000D02*
X182207000Y-87775000D01*
X146424000Y-47806000D02*
X149479000Y-50861000D01*
X146424000Y-67806000D02*
X149479000Y-70861000D01*
X146424000Y-87806000D02*
X149479000Y-90861000D01*
X142707000Y-47806000D02*
X146424000Y-47806000D01*
X142707000Y-67806000D02*
X146424000Y-67806000D01*
X142707000Y-87806000D02*
X146424000Y-87806000D01*
X125657000Y-34435000D02*
X131300000Y-34435000D01*
X132214000Y-33521000D02*
X135807000Y-33521000D01*
X131300000Y-34435000D02*
X132214000Y-33521000D01*
X139522000Y-33521000D02*
X141307000Y-35306000D01*
X135807000Y-33521000D02*
X139522000Y-33521000D01*
X141307000Y-35306000D02*
X143383000Y-35306000D01*
X143383000Y-35306000D02*
X144145000Y-34544000D01*
X144145000Y-34544000D02*
X153797000Y-34544000D01*
X155915000Y-36662000D02*
X158907000Y-36662000D01*
X153797000Y-34544000D02*
X155915000Y-36662000D01*
X159907000Y-35662000D02*
X158907000Y-36662000D01*
X159907000Y-29866000D02*
X159907000Y-35662000D01*
X144145000Y-54544000D02*
X153797000Y-54544000D01*
X144145000Y-74544000D02*
X153797000Y-74544000D01*
X144145000Y-94544000D02*
X153797000Y-94544000D01*
X131300000Y-54435000D02*
X132214000Y-53521000D01*
X131300000Y-74435000D02*
X132214000Y-73521000D01*
X131300000Y-94435000D02*
X132214000Y-93521000D01*
X153797000Y-54544000D02*
X155915000Y-56662000D01*
X153797000Y-74544000D02*
X155915000Y-76662000D01*
X153797000Y-94544000D02*
X155915000Y-96662000D01*
X141307000Y-55306000D02*
X143383000Y-55306000D01*
X141307000Y-75306000D02*
X143383000Y-75306000D01*
X141307000Y-95306000D02*
X143383000Y-95306000D01*
X132214000Y-53521000D02*
X135807000Y-53521000D01*
X132214000Y-73521000D02*
X135807000Y-73521000D01*
X132214000Y-93521000D02*
X135807000Y-93521000D01*
X159907000Y-49866000D02*
X159907000Y-55662000D01*
X159907000Y-69866000D02*
X159907000Y-75662000D01*
X159907000Y-89866000D02*
X159907000Y-95662000D01*
X139522000Y-53521000D02*
X141307000Y-55306000D01*
X139522000Y-73521000D02*
X141307000Y-75306000D01*
X139522000Y-93521000D02*
X141307000Y-95306000D01*
X159907000Y-55662000D02*
X158907000Y-56662000D01*
X159907000Y-75662000D02*
X158907000Y-76662000D01*
X159907000Y-95662000D02*
X158907000Y-96662000D01*
X125657000Y-54435000D02*
X131300000Y-54435000D01*
X125657000Y-74435000D02*
X131300000Y-74435000D01*
X125657000Y-94435000D02*
X131300000Y-94435000D01*
X143383000Y-55306000D02*
X144145000Y-54544000D01*
X143383000Y-75306000D02*
X144145000Y-74544000D01*
X143383000Y-95306000D02*
X144145000Y-94544000D01*
X135807000Y-53521000D02*
X139522000Y-53521000D01*
X135807000Y-73521000D02*
X139522000Y-73521000D01*
X135807000Y-93521000D02*
X139522000Y-93521000D01*
X155915000Y-56662000D02*
X158907000Y-56662000D01*
X155915000Y-76662000D02*
X158907000Y-76662000D01*
X155915000Y-96662000D02*
X158907000Y-96662000D01*
X127163000Y-41021000D02*
X125657000Y-39515000D01*
X134407000Y-41021000D02*
X127163000Y-41021000D01*
X145419000Y-41021000D02*
X148079000Y-38361000D01*
X134407000Y-41021000D02*
X145419000Y-41021000D01*
X180907001Y-40814999D02*
X180800001Y-40814999D01*
X182207000Y-39515000D02*
X180907001Y-40814999D01*
X180800001Y-40814999D02*
X179070000Y-42545000D01*
X179070000Y-42545000D02*
X155067000Y-42545000D01*
X150883000Y-38361000D02*
X148079000Y-38361000D01*
X155067000Y-42545000D02*
X150883000Y-38361000D01*
X180907001Y-60814999D02*
X180800001Y-60814999D01*
X180907001Y-80814999D02*
X180800001Y-80814999D01*
X180907001Y-100814999D02*
X180800001Y-100814999D01*
X150883000Y-58361000D02*
X148079000Y-58361000D01*
X150883000Y-78361000D02*
X148079000Y-78361000D01*
X150883000Y-98361000D02*
X148079000Y-98361000D01*
X180800001Y-60814999D02*
X179070000Y-62545000D01*
X180800001Y-80814999D02*
X179070000Y-82545000D01*
X180800001Y-100814999D02*
X179070000Y-102545000D01*
X179070000Y-62545000D02*
X155067000Y-62545000D01*
X179070000Y-82545000D02*
X155067000Y-82545000D01*
X179070000Y-102545000D02*
X155067000Y-102545000D01*
X145419000Y-61021000D02*
X148079000Y-58361000D01*
X145419000Y-81021000D02*
X148079000Y-78361000D01*
X145419000Y-101021000D02*
X148079000Y-98361000D01*
X134407000Y-61021000D02*
X127163000Y-61021000D01*
X134407000Y-81021000D02*
X127163000Y-81021000D01*
X134407000Y-101021000D02*
X127163000Y-101021000D01*
X127163000Y-61021000D02*
X125657000Y-59515000D01*
X127163000Y-81021000D02*
X125657000Y-79515000D01*
X127163000Y-101021000D02*
X125657000Y-99515000D01*
X182207000Y-59515000D02*
X180907001Y-60814999D01*
X182207000Y-79515000D02*
X180907001Y-80814999D01*
X182207000Y-99515000D02*
X180907001Y-100814999D01*
X134407000Y-61021000D02*
X145419000Y-61021000D01*
X134407000Y-81021000D02*
X145419000Y-81021000D01*
X134407000Y-101021000D02*
X145419000Y-101021000D01*
X155067000Y-62545000D02*
X150883000Y-58361000D01*
X155067000Y-82545000D02*
X150883000Y-78361000D01*
X155067000Y-102545000D02*
X150883000Y-98361000D01*
X167407000Y-37362000D02*
X168907000Y-38862000D01*
X167407000Y-32766000D02*
X167407000Y-37362000D01*
X182207000Y-34435000D02*
X174988000Y-34435000D01*
X170561000Y-38862000D02*
X168907000Y-38862000D01*
X174988000Y-34435000D02*
X170561000Y-38862000D01*
X174988000Y-54435000D02*
X170561000Y-58862000D01*
X174988000Y-74435000D02*
X170561000Y-78862000D01*
X174988000Y-94435000D02*
X170561000Y-98862000D01*
X182207000Y-54435000D02*
X174988000Y-54435000D01*
X182207000Y-74435000D02*
X174988000Y-74435000D01*
X182207000Y-94435000D02*
X174988000Y-94435000D01*
X167407000Y-57362000D02*
X168907000Y-58862000D01*
X167407000Y-77362000D02*
X168907000Y-78862000D01*
X167407000Y-97362000D02*
X168907000Y-98862000D01*
X170561000Y-58862000D02*
X168907000Y-58862000D01*
X170561000Y-78862000D02*
X168907000Y-78862000D01*
X170561000Y-98862000D02*
X168907000Y-98862000D01*
X167407000Y-52766000D02*
X167407000Y-57362000D01*
X167407000Y-72766000D02*
X167407000Y-77362000D01*
X167407000Y-92766000D02*
X167407000Y-97362000D01*
M02*
