M48
; DRILL file {KiCad 5.1.5+dfsg1-2build2} date mar 07 sep 2021 20:18:56
; FORMAT={-:-/ absolute / metric / decimal}
; #@! TF.CreationDate,2021-09-07T20:18:56-05:00
; #@! TF.GenerationSoftware,Kicad,Pcbnew,5.1.5+dfsg1-2build2
; #@! TF.FileFunction,Plated,1,2,PTH
FMAT,2
METRIC
T1C0.800
T2C1.000
T3C1.300
%
G90
G05
T1
X134.407Y-101.021
X135.807Y-33.521
X148.079Y-38.361
X148.079Y-98.361
X149.479Y-90.861
X159.907Y-69.866
X167.407Y-72.766
X141.307Y-95.306
X142.707Y-87.806
X141.307Y-55.306
X142.707Y-47.806
X141.307Y-75.306
X142.707Y-67.806
X159.907Y-29.866
X167.407Y-32.766
X159.907Y-49.866
X167.407Y-52.766
X135.807Y-93.521
X148.079Y-58.361
X149.479Y-50.861
X134.407Y-41.021
X134.407Y-81.021
X135.807Y-73.521
X149.479Y-30.861
X159.907Y-89.866
X167.407Y-92.766
X134.407Y-61.021
X135.807Y-53.521
X141.307Y-35.306
X142.707Y-27.806
X148.079Y-78.361
X149.479Y-70.861
T2
X158.907Y-36.662
X168.907Y-38.862
X158.907Y-96.662
X168.907Y-98.862
X158.907Y-56.662
X168.907Y-58.862
X158.907Y-76.662
X168.907Y-78.862
T3
X182.207Y-89.355
X182.207Y-94.435
X182.207Y-99.515
X182.207Y-29.355
X182.207Y-34.435
X182.207Y-39.515
X125.657Y-29.355
X125.657Y-34.435
X125.657Y-39.515
X125.657Y-49.355
X125.657Y-54.435
X125.657Y-59.515
X182.207Y-49.355
X182.207Y-54.435
X182.207Y-59.515
X182.207Y-69.355
X182.207Y-74.435
X182.207Y-79.515
X125.657Y-69.355
X125.657Y-74.435
X125.657Y-79.515
X125.657Y-89.355
X125.657Y-94.435
X125.657Y-99.515
T0
M30
