G04 #@! TF.GenerationSoftware,KiCad,Pcbnew,5.1.5+dfsg1-2build2*
G04 #@! TF.CreationDate,2021-09-07T20:18:59-05:00*
G04 #@! TF.ProjectId,,58585858-5858-4585-9858-585858585858,rev?*
G04 #@! TF.SameCoordinates,Original*
G04 #@! TF.FileFunction,Soldermask,Bot*
G04 #@! TF.FilePolarity,Negative*
%FSLAX46Y46*%
G04 Gerber Fmt 4.6, Leading zero omitted, Abs format (unit mm)*
G04 Created by KiCad (PCBNEW 5.1.5+dfsg1-2build2) date 2021-09-07 20:18:59*
%MOMM*%
%LPD*%
G04 APERTURE LIST*
%ADD10C,0.100000*%
G04 APERTURE END LIST*
D10*
G36*
X134684395Y-100106546D02*
G01*
X134857466Y-100178234D01*
X134857467Y-100178235D01*
X135013227Y-100282310D01*
X135145690Y-100414773D01*
X135145691Y-100414775D01*
X135249766Y-100570534D01*
X135321454Y-100743605D01*
X135358000Y-100927333D01*
X135358000Y-101114667D01*
X135321454Y-101298395D01*
X135249766Y-101471466D01*
X135249765Y-101471467D01*
X135145690Y-101627227D01*
X135013227Y-101759690D01*
X134934818Y-101812081D01*
X134857466Y-101863766D01*
X134684395Y-101935454D01*
X134500667Y-101972000D01*
X134313333Y-101972000D01*
X134129605Y-101935454D01*
X133956534Y-101863766D01*
X133879182Y-101812081D01*
X133800773Y-101759690D01*
X133668310Y-101627227D01*
X133564235Y-101471467D01*
X133564234Y-101471466D01*
X133492546Y-101298395D01*
X133456000Y-101114667D01*
X133456000Y-100927333D01*
X133492546Y-100743605D01*
X133564234Y-100570534D01*
X133668309Y-100414775D01*
X133668310Y-100414773D01*
X133800773Y-100282310D01*
X133956533Y-100178235D01*
X133956534Y-100178234D01*
X134129605Y-100106546D01*
X134313333Y-100070000D01*
X134500667Y-100070000D01*
X134684395Y-100106546D01*
G37*
G36*
X182601072Y-98215918D02*
G01*
X182725200Y-98267333D01*
X182846939Y-98317759D01*
X182916390Y-98364165D01*
X183068211Y-98465609D01*
X183256391Y-98653789D01*
X183329813Y-98763672D01*
X183361749Y-98811467D01*
X183404242Y-98875063D01*
X183506082Y-99120928D01*
X183558000Y-99381937D01*
X183558000Y-99648063D01*
X183529094Y-99793384D01*
X183506082Y-99909072D01*
X183404241Y-100154939D01*
X183388675Y-100178235D01*
X183256391Y-100376211D01*
X183068211Y-100564391D01*
X183059017Y-100570534D01*
X182846939Y-100712241D01*
X182846938Y-100712242D01*
X182846937Y-100712242D01*
X182601072Y-100814082D01*
X182340063Y-100866000D01*
X182073937Y-100866000D01*
X181812928Y-100814082D01*
X181567063Y-100712242D01*
X181567062Y-100712242D01*
X181567061Y-100712241D01*
X181354983Y-100570534D01*
X181345789Y-100564391D01*
X181157609Y-100376211D01*
X181025325Y-100178235D01*
X181009759Y-100154939D01*
X180907918Y-99909072D01*
X180884906Y-99793384D01*
X180856000Y-99648063D01*
X180856000Y-99381937D01*
X180907918Y-99120928D01*
X181009758Y-98875063D01*
X181052252Y-98811467D01*
X181084187Y-98763672D01*
X181157609Y-98653789D01*
X181345789Y-98465609D01*
X181497610Y-98364165D01*
X181567061Y-98317759D01*
X181688801Y-98267333D01*
X181812928Y-98215918D01*
X182073937Y-98164000D01*
X182340063Y-98164000D01*
X182601072Y-98215918D01*
G37*
G36*
X127008000Y-100866000D02*
G01*
X124306000Y-100866000D01*
X124306000Y-98164000D01*
X127008000Y-98164000D01*
X127008000Y-100866000D01*
G37*
G36*
X169213564Y-97851389D02*
G01*
X169404833Y-97930615D01*
X169404835Y-97930616D01*
X169576973Y-98045635D01*
X169723365Y-98192027D01*
X169838385Y-98364167D01*
X169917611Y-98555436D01*
X169958000Y-98758484D01*
X169958000Y-98965516D01*
X169917611Y-99168564D01*
X169858198Y-99312000D01*
X169838384Y-99359835D01*
X169723365Y-99531973D01*
X169576973Y-99678365D01*
X169404835Y-99793384D01*
X169404834Y-99793385D01*
X169404833Y-99793385D01*
X169213564Y-99872611D01*
X169010516Y-99913000D01*
X168803484Y-99913000D01*
X168600436Y-99872611D01*
X168409167Y-99793385D01*
X168409166Y-99793385D01*
X168409165Y-99793384D01*
X168237027Y-99678365D01*
X168090635Y-99531973D01*
X167975616Y-99359835D01*
X167955802Y-99312000D01*
X167896389Y-99168564D01*
X167856000Y-98965516D01*
X167856000Y-98758484D01*
X167896389Y-98555436D01*
X167975615Y-98364167D01*
X168090635Y-98192027D01*
X168237027Y-98045635D01*
X168409165Y-97930616D01*
X168409167Y-97930615D01*
X168600436Y-97851389D01*
X168803484Y-97811000D01*
X169010516Y-97811000D01*
X169213564Y-97851389D01*
G37*
G36*
X148356395Y-97446546D02*
G01*
X148529466Y-97518234D01*
X148529467Y-97518235D01*
X148685227Y-97622310D01*
X148817690Y-97754773D01*
X148817691Y-97754775D01*
X148921766Y-97910534D01*
X148993454Y-98083605D01*
X149030000Y-98267333D01*
X149030000Y-98454667D01*
X148993454Y-98638395D01*
X148921766Y-98811466D01*
X148921765Y-98811467D01*
X148817690Y-98967227D01*
X148685227Y-99099690D01*
X148653442Y-99120928D01*
X148529466Y-99203766D01*
X148356395Y-99275454D01*
X148172667Y-99312000D01*
X147985333Y-99312000D01*
X147801605Y-99275454D01*
X147628534Y-99203766D01*
X147504558Y-99120928D01*
X147472773Y-99099690D01*
X147340310Y-98967227D01*
X147236235Y-98811467D01*
X147236234Y-98811466D01*
X147164546Y-98638395D01*
X147128000Y-98454667D01*
X147128000Y-98267333D01*
X147164546Y-98083605D01*
X147236234Y-97910534D01*
X147340309Y-97754775D01*
X147340310Y-97754773D01*
X147472773Y-97622310D01*
X147628533Y-97518235D01*
X147628534Y-97518234D01*
X147801605Y-97446546D01*
X147985333Y-97410000D01*
X148172667Y-97410000D01*
X148356395Y-97446546D01*
G37*
G36*
X159213564Y-95651389D02*
G01*
X159404833Y-95730615D01*
X159404835Y-95730616D01*
X159576973Y-95845635D01*
X159723365Y-95992027D01*
X159828095Y-96148766D01*
X159838385Y-96164167D01*
X159917611Y-96355436D01*
X159958000Y-96558484D01*
X159958000Y-96765516D01*
X159917611Y-96968564D01*
X159838385Y-97159833D01*
X159838384Y-97159835D01*
X159723365Y-97331973D01*
X159576973Y-97478365D01*
X159404835Y-97593384D01*
X159404834Y-97593385D01*
X159404833Y-97593385D01*
X159213564Y-97672611D01*
X159010516Y-97713000D01*
X158803484Y-97713000D01*
X158600436Y-97672611D01*
X158409167Y-97593385D01*
X158409166Y-97593385D01*
X158409165Y-97593384D01*
X158237027Y-97478365D01*
X158090635Y-97331973D01*
X157975616Y-97159835D01*
X157975615Y-97159833D01*
X157896389Y-96968564D01*
X157856000Y-96765516D01*
X157856000Y-96558484D01*
X157896389Y-96355436D01*
X157975615Y-96164167D01*
X157985906Y-96148766D01*
X158090635Y-95992027D01*
X158237027Y-95845635D01*
X158409165Y-95730616D01*
X158409167Y-95730615D01*
X158600436Y-95651389D01*
X158803484Y-95611000D01*
X159010516Y-95611000D01*
X159213564Y-95651389D01*
G37*
G36*
X141584395Y-94391546D02*
G01*
X141757466Y-94463234D01*
X141757467Y-94463235D01*
X141913227Y-94567310D01*
X142045690Y-94699773D01*
X142045691Y-94699775D01*
X142149766Y-94855534D01*
X142221454Y-95028605D01*
X142258000Y-95212333D01*
X142258000Y-95399667D01*
X142221454Y-95583395D01*
X142149766Y-95756466D01*
X142149765Y-95756467D01*
X142045690Y-95912227D01*
X141913227Y-96044690D01*
X141834818Y-96097081D01*
X141757466Y-96148766D01*
X141584395Y-96220454D01*
X141400667Y-96257000D01*
X141213333Y-96257000D01*
X141029605Y-96220454D01*
X140856534Y-96148766D01*
X140779182Y-96097081D01*
X140700773Y-96044690D01*
X140568310Y-95912227D01*
X140464235Y-95756467D01*
X140464234Y-95756466D01*
X140392546Y-95583395D01*
X140356000Y-95399667D01*
X140356000Y-95212333D01*
X140392546Y-95028605D01*
X140464234Y-94855534D01*
X140568309Y-94699775D01*
X140568310Y-94699773D01*
X140700773Y-94567310D01*
X140856533Y-94463235D01*
X140856534Y-94463234D01*
X141029605Y-94391546D01*
X141213333Y-94355000D01*
X141400667Y-94355000D01*
X141584395Y-94391546D01*
G37*
G36*
X182601072Y-93135918D02*
G01*
X182795536Y-93216467D01*
X182846939Y-93237759D01*
X182855688Y-93243605D01*
X183068211Y-93385609D01*
X183256391Y-93573789D01*
X183404242Y-93795063D01*
X183506082Y-94040928D01*
X183549597Y-94259690D01*
X183558000Y-94301938D01*
X183558000Y-94568062D01*
X183506082Y-94829072D01*
X183404241Y-95074939D01*
X183256390Y-95296212D01*
X183068212Y-95484390D01*
X182846939Y-95632241D01*
X182846938Y-95632242D01*
X182846937Y-95632242D01*
X182601072Y-95734082D01*
X182340063Y-95786000D01*
X182073937Y-95786000D01*
X181812928Y-95734082D01*
X181567063Y-95632242D01*
X181567062Y-95632242D01*
X181567061Y-95632241D01*
X181345788Y-95484390D01*
X181157610Y-95296212D01*
X181009759Y-95074939D01*
X180907918Y-94829072D01*
X180856000Y-94568062D01*
X180856000Y-94301938D01*
X180864404Y-94259690D01*
X180907918Y-94040928D01*
X181009758Y-93795063D01*
X181157609Y-93573789D01*
X181345789Y-93385609D01*
X181558312Y-93243605D01*
X181567061Y-93237759D01*
X181618465Y-93216467D01*
X181812928Y-93135918D01*
X182073937Y-93084000D01*
X182340063Y-93084000D01*
X182601072Y-93135918D01*
G37*
G36*
X126051072Y-93135918D02*
G01*
X126245536Y-93216467D01*
X126296939Y-93237759D01*
X126305688Y-93243605D01*
X126518211Y-93385609D01*
X126706391Y-93573789D01*
X126854242Y-93795063D01*
X126956082Y-94040928D01*
X126999597Y-94259690D01*
X127008000Y-94301938D01*
X127008000Y-94568062D01*
X126956082Y-94829072D01*
X126854241Y-95074939D01*
X126706390Y-95296212D01*
X126518212Y-95484390D01*
X126296939Y-95632241D01*
X126296938Y-95632242D01*
X126296937Y-95632242D01*
X126051072Y-95734082D01*
X125790063Y-95786000D01*
X125523937Y-95786000D01*
X125262928Y-95734082D01*
X125017063Y-95632242D01*
X125017062Y-95632242D01*
X125017061Y-95632241D01*
X124795788Y-95484390D01*
X124607610Y-95296212D01*
X124459759Y-95074939D01*
X124357918Y-94829072D01*
X124306000Y-94568062D01*
X124306000Y-94301938D01*
X124314404Y-94259690D01*
X124357918Y-94040928D01*
X124459758Y-93795063D01*
X124607609Y-93573789D01*
X124795789Y-93385609D01*
X125008312Y-93243605D01*
X125017061Y-93237759D01*
X125068465Y-93216467D01*
X125262928Y-93135918D01*
X125523937Y-93084000D01*
X125790063Y-93084000D01*
X126051072Y-93135918D01*
G37*
G36*
X136084395Y-92606546D02*
G01*
X136257466Y-92678234D01*
X136257467Y-92678235D01*
X136413227Y-92782310D01*
X136545690Y-92914773D01*
X136545691Y-92914775D01*
X136649766Y-93070534D01*
X136721454Y-93243605D01*
X136758000Y-93427333D01*
X136758000Y-93614667D01*
X136721454Y-93798395D01*
X136649766Y-93971466D01*
X136649765Y-93971467D01*
X136545690Y-94127227D01*
X136413227Y-94259690D01*
X136349998Y-94301938D01*
X136257466Y-94363766D01*
X136084395Y-94435454D01*
X135900667Y-94472000D01*
X135713333Y-94472000D01*
X135529605Y-94435454D01*
X135356534Y-94363766D01*
X135264002Y-94301938D01*
X135200773Y-94259690D01*
X135068310Y-94127227D01*
X134964235Y-93971467D01*
X134964234Y-93971466D01*
X134892546Y-93798395D01*
X134856000Y-93614667D01*
X134856000Y-93427333D01*
X134892546Y-93243605D01*
X134964234Y-93070534D01*
X135068309Y-92914775D01*
X135068310Y-92914773D01*
X135200773Y-92782310D01*
X135356533Y-92678235D01*
X135356534Y-92678234D01*
X135529605Y-92606546D01*
X135713333Y-92570000D01*
X135900667Y-92570000D01*
X136084395Y-92606546D01*
G37*
G36*
X167684395Y-91851546D02*
G01*
X167857466Y-91923234D01*
X167857467Y-91923235D01*
X168013227Y-92027310D01*
X168145690Y-92159773D01*
X168145691Y-92159775D01*
X168249766Y-92315534D01*
X168321454Y-92488605D01*
X168358000Y-92672333D01*
X168358000Y-92859667D01*
X168321454Y-93043395D01*
X168249766Y-93216466D01*
X168249765Y-93216467D01*
X168145690Y-93372227D01*
X168013227Y-93504690D01*
X167934818Y-93557081D01*
X167857466Y-93608766D01*
X167684395Y-93680454D01*
X167500667Y-93717000D01*
X167313333Y-93717000D01*
X167129605Y-93680454D01*
X166956534Y-93608766D01*
X166879182Y-93557081D01*
X166800773Y-93504690D01*
X166668310Y-93372227D01*
X166564235Y-93216467D01*
X166564234Y-93216466D01*
X166492546Y-93043395D01*
X166456000Y-92859667D01*
X166456000Y-92672333D01*
X166492546Y-92488605D01*
X166564234Y-92315534D01*
X166668309Y-92159775D01*
X166668310Y-92159773D01*
X166800773Y-92027310D01*
X166956533Y-91923235D01*
X166956534Y-91923234D01*
X167129605Y-91851546D01*
X167313333Y-91815000D01*
X167500667Y-91815000D01*
X167684395Y-91851546D01*
G37*
G36*
X149756395Y-89946546D02*
G01*
X149929466Y-90018234D01*
X149929467Y-90018235D01*
X150085227Y-90122310D01*
X150217690Y-90254773D01*
X150217691Y-90254775D01*
X150321766Y-90410534D01*
X150393454Y-90583605D01*
X150430000Y-90767333D01*
X150430000Y-90954667D01*
X150393454Y-91138395D01*
X150321766Y-91311466D01*
X150321765Y-91311467D01*
X150217690Y-91467227D01*
X150085227Y-91599690D01*
X150006818Y-91652081D01*
X149929466Y-91703766D01*
X149756395Y-91775454D01*
X149572667Y-91812000D01*
X149385333Y-91812000D01*
X149201605Y-91775454D01*
X149028534Y-91703766D01*
X148951182Y-91652081D01*
X148872773Y-91599690D01*
X148740310Y-91467227D01*
X148636235Y-91311467D01*
X148636234Y-91311466D01*
X148564546Y-91138395D01*
X148528000Y-90954667D01*
X148528000Y-90767333D01*
X148564546Y-90583605D01*
X148636234Y-90410534D01*
X148740309Y-90254775D01*
X148740310Y-90254773D01*
X148872773Y-90122310D01*
X149028533Y-90018235D01*
X149028534Y-90018234D01*
X149201605Y-89946546D01*
X149385333Y-89910000D01*
X149572667Y-89910000D01*
X149756395Y-89946546D01*
G37*
G36*
X160184395Y-88951546D02*
G01*
X160357466Y-89023234D01*
X160357467Y-89023235D01*
X160513227Y-89127310D01*
X160645690Y-89259773D01*
X160645691Y-89259775D01*
X160749766Y-89415534D01*
X160821454Y-89588605D01*
X160858000Y-89772333D01*
X160858000Y-89959667D01*
X160821454Y-90143395D01*
X160749766Y-90316466D01*
X160749765Y-90316467D01*
X160645690Y-90472227D01*
X160513227Y-90604690D01*
X160439306Y-90654082D01*
X160357466Y-90708766D01*
X160184395Y-90780454D01*
X160000667Y-90817000D01*
X159813333Y-90817000D01*
X159629605Y-90780454D01*
X159456534Y-90708766D01*
X159374694Y-90654082D01*
X159300773Y-90604690D01*
X159168310Y-90472227D01*
X159064235Y-90316467D01*
X159064234Y-90316466D01*
X158992546Y-90143395D01*
X158956000Y-89959667D01*
X158956000Y-89772333D01*
X158992546Y-89588605D01*
X159064234Y-89415534D01*
X159168309Y-89259775D01*
X159168310Y-89259773D01*
X159300773Y-89127310D01*
X159456533Y-89023235D01*
X159456534Y-89023234D01*
X159629605Y-88951546D01*
X159813333Y-88915000D01*
X160000667Y-88915000D01*
X160184395Y-88951546D01*
G37*
G36*
X126051072Y-88055918D02*
G01*
X126296939Y-88157759D01*
X126408328Y-88232187D01*
X126518211Y-88305609D01*
X126706391Y-88493789D01*
X126854242Y-88715063D01*
X126856475Y-88720454D01*
X126956082Y-88960928D01*
X127008000Y-89221938D01*
X127008000Y-89488062D01*
X126956082Y-89749072D01*
X126854241Y-89994939D01*
X126838675Y-90018235D01*
X126706391Y-90216211D01*
X126518211Y-90404391D01*
X126509017Y-90410534D01*
X126296939Y-90552241D01*
X126296938Y-90552242D01*
X126296937Y-90552242D01*
X126051072Y-90654082D01*
X125790063Y-90706000D01*
X125523937Y-90706000D01*
X125262928Y-90654082D01*
X125017063Y-90552242D01*
X125017062Y-90552242D01*
X125017061Y-90552241D01*
X124804983Y-90410534D01*
X124795789Y-90404391D01*
X124607609Y-90216211D01*
X124475325Y-90018235D01*
X124459759Y-89994939D01*
X124357918Y-89749072D01*
X124306000Y-89488062D01*
X124306000Y-89221938D01*
X124357918Y-88960928D01*
X124457525Y-88720454D01*
X124459758Y-88715063D01*
X124607609Y-88493789D01*
X124795789Y-88305609D01*
X124905672Y-88232187D01*
X125017061Y-88157759D01*
X125262928Y-88055918D01*
X125523937Y-88004000D01*
X125790063Y-88004000D01*
X126051072Y-88055918D01*
G37*
G36*
X183558000Y-90706000D02*
G01*
X180856000Y-90706000D01*
X180856000Y-88004000D01*
X183558000Y-88004000D01*
X183558000Y-90706000D01*
G37*
G36*
X142984395Y-86891546D02*
G01*
X143157466Y-86963234D01*
X143157467Y-86963235D01*
X143313227Y-87067310D01*
X143445690Y-87199773D01*
X143445691Y-87199775D01*
X143549766Y-87355534D01*
X143621454Y-87528605D01*
X143658000Y-87712333D01*
X143658000Y-87899667D01*
X143621454Y-88083395D01*
X143549766Y-88256466D01*
X143549765Y-88256467D01*
X143445690Y-88412227D01*
X143313227Y-88544690D01*
X143234818Y-88597081D01*
X143157466Y-88648766D01*
X142984395Y-88720454D01*
X142800667Y-88757000D01*
X142613333Y-88757000D01*
X142429605Y-88720454D01*
X142256534Y-88648766D01*
X142179182Y-88597081D01*
X142100773Y-88544690D01*
X141968310Y-88412227D01*
X141864235Y-88256467D01*
X141864234Y-88256466D01*
X141792546Y-88083395D01*
X141756000Y-87899667D01*
X141756000Y-87712333D01*
X141792546Y-87528605D01*
X141864234Y-87355534D01*
X141968309Y-87199775D01*
X141968310Y-87199773D01*
X142100773Y-87067310D01*
X142256533Y-86963235D01*
X142256534Y-86963234D01*
X142429605Y-86891546D01*
X142613333Y-86855000D01*
X142800667Y-86855000D01*
X142984395Y-86891546D01*
G37*
G36*
X134684395Y-80106546D02*
G01*
X134857466Y-80178234D01*
X134857467Y-80178235D01*
X135013227Y-80282310D01*
X135145690Y-80414773D01*
X135145691Y-80414775D01*
X135249766Y-80570534D01*
X135321454Y-80743605D01*
X135358000Y-80927333D01*
X135358000Y-81114667D01*
X135321454Y-81298395D01*
X135249766Y-81471466D01*
X135249765Y-81471467D01*
X135145690Y-81627227D01*
X135013227Y-81759690D01*
X134934818Y-81812081D01*
X134857466Y-81863766D01*
X134684395Y-81935454D01*
X134500667Y-81972000D01*
X134313333Y-81972000D01*
X134129605Y-81935454D01*
X133956534Y-81863766D01*
X133879182Y-81812081D01*
X133800773Y-81759690D01*
X133668310Y-81627227D01*
X133564235Y-81471467D01*
X133564234Y-81471466D01*
X133492546Y-81298395D01*
X133456000Y-81114667D01*
X133456000Y-80927333D01*
X133492546Y-80743605D01*
X133564234Y-80570534D01*
X133668309Y-80414775D01*
X133668310Y-80414773D01*
X133800773Y-80282310D01*
X133956533Y-80178235D01*
X133956534Y-80178234D01*
X134129605Y-80106546D01*
X134313333Y-80070000D01*
X134500667Y-80070000D01*
X134684395Y-80106546D01*
G37*
G36*
X127008000Y-80866000D02*
G01*
X124306000Y-80866000D01*
X124306000Y-78164000D01*
X127008000Y-78164000D01*
X127008000Y-80866000D01*
G37*
G36*
X182601072Y-78215918D02*
G01*
X182725200Y-78267333D01*
X182846939Y-78317759D01*
X182916390Y-78364165D01*
X183068211Y-78465609D01*
X183256391Y-78653789D01*
X183329813Y-78763672D01*
X183361749Y-78811467D01*
X183404242Y-78875063D01*
X183506082Y-79120928D01*
X183558000Y-79381937D01*
X183558000Y-79648063D01*
X183529094Y-79793384D01*
X183506082Y-79909072D01*
X183404241Y-80154939D01*
X183388675Y-80178235D01*
X183256391Y-80376211D01*
X183068211Y-80564391D01*
X183059017Y-80570534D01*
X182846939Y-80712241D01*
X182846938Y-80712242D01*
X182846937Y-80712242D01*
X182601072Y-80814082D01*
X182340063Y-80866000D01*
X182073937Y-80866000D01*
X181812928Y-80814082D01*
X181567063Y-80712242D01*
X181567062Y-80712242D01*
X181567061Y-80712241D01*
X181354983Y-80570534D01*
X181345789Y-80564391D01*
X181157609Y-80376211D01*
X181025325Y-80178235D01*
X181009759Y-80154939D01*
X180907918Y-79909072D01*
X180884906Y-79793384D01*
X180856000Y-79648063D01*
X180856000Y-79381937D01*
X180907918Y-79120928D01*
X181009758Y-78875063D01*
X181052252Y-78811467D01*
X181084187Y-78763672D01*
X181157609Y-78653789D01*
X181345789Y-78465609D01*
X181497610Y-78364165D01*
X181567061Y-78317759D01*
X181688801Y-78267333D01*
X181812928Y-78215918D01*
X182073937Y-78164000D01*
X182340063Y-78164000D01*
X182601072Y-78215918D01*
G37*
G36*
X169213564Y-77851389D02*
G01*
X169404833Y-77930615D01*
X169404835Y-77930616D01*
X169576973Y-78045635D01*
X169723365Y-78192027D01*
X169838385Y-78364167D01*
X169917611Y-78555436D01*
X169958000Y-78758484D01*
X169958000Y-78965516D01*
X169917611Y-79168564D01*
X169858198Y-79312000D01*
X169838384Y-79359835D01*
X169723365Y-79531973D01*
X169576973Y-79678365D01*
X169404835Y-79793384D01*
X169404834Y-79793385D01*
X169404833Y-79793385D01*
X169213564Y-79872611D01*
X169010516Y-79913000D01*
X168803484Y-79913000D01*
X168600436Y-79872611D01*
X168409167Y-79793385D01*
X168409166Y-79793385D01*
X168409165Y-79793384D01*
X168237027Y-79678365D01*
X168090635Y-79531973D01*
X167975616Y-79359835D01*
X167955802Y-79312000D01*
X167896389Y-79168564D01*
X167856000Y-78965516D01*
X167856000Y-78758484D01*
X167896389Y-78555436D01*
X167975615Y-78364167D01*
X168090635Y-78192027D01*
X168237027Y-78045635D01*
X168409165Y-77930616D01*
X168409167Y-77930615D01*
X168600436Y-77851389D01*
X168803484Y-77811000D01*
X169010516Y-77811000D01*
X169213564Y-77851389D01*
G37*
G36*
X148356395Y-77446546D02*
G01*
X148529466Y-77518234D01*
X148529467Y-77518235D01*
X148685227Y-77622310D01*
X148817690Y-77754773D01*
X148817691Y-77754775D01*
X148921766Y-77910534D01*
X148993454Y-78083605D01*
X149030000Y-78267333D01*
X149030000Y-78454667D01*
X148993454Y-78638395D01*
X148921766Y-78811466D01*
X148921765Y-78811467D01*
X148817690Y-78967227D01*
X148685227Y-79099690D01*
X148653442Y-79120928D01*
X148529466Y-79203766D01*
X148356395Y-79275454D01*
X148172667Y-79312000D01*
X147985333Y-79312000D01*
X147801605Y-79275454D01*
X147628534Y-79203766D01*
X147504558Y-79120928D01*
X147472773Y-79099690D01*
X147340310Y-78967227D01*
X147236235Y-78811467D01*
X147236234Y-78811466D01*
X147164546Y-78638395D01*
X147128000Y-78454667D01*
X147128000Y-78267333D01*
X147164546Y-78083605D01*
X147236234Y-77910534D01*
X147340309Y-77754775D01*
X147340310Y-77754773D01*
X147472773Y-77622310D01*
X147628533Y-77518235D01*
X147628534Y-77518234D01*
X147801605Y-77446546D01*
X147985333Y-77410000D01*
X148172667Y-77410000D01*
X148356395Y-77446546D01*
G37*
G36*
X159213564Y-75651389D02*
G01*
X159404833Y-75730615D01*
X159404835Y-75730616D01*
X159576973Y-75845635D01*
X159723365Y-75992027D01*
X159828095Y-76148766D01*
X159838385Y-76164167D01*
X159917611Y-76355436D01*
X159958000Y-76558484D01*
X159958000Y-76765516D01*
X159917611Y-76968564D01*
X159838385Y-77159833D01*
X159838384Y-77159835D01*
X159723365Y-77331973D01*
X159576973Y-77478365D01*
X159404835Y-77593384D01*
X159404834Y-77593385D01*
X159404833Y-77593385D01*
X159213564Y-77672611D01*
X159010516Y-77713000D01*
X158803484Y-77713000D01*
X158600436Y-77672611D01*
X158409167Y-77593385D01*
X158409166Y-77593385D01*
X158409165Y-77593384D01*
X158237027Y-77478365D01*
X158090635Y-77331973D01*
X157975616Y-77159835D01*
X157975615Y-77159833D01*
X157896389Y-76968564D01*
X157856000Y-76765516D01*
X157856000Y-76558484D01*
X157896389Y-76355436D01*
X157975615Y-76164167D01*
X157985906Y-76148766D01*
X158090635Y-75992027D01*
X158237027Y-75845635D01*
X158409165Y-75730616D01*
X158409167Y-75730615D01*
X158600436Y-75651389D01*
X158803484Y-75611000D01*
X159010516Y-75611000D01*
X159213564Y-75651389D01*
G37*
G36*
X141584395Y-74391546D02*
G01*
X141757466Y-74463234D01*
X141757467Y-74463235D01*
X141913227Y-74567310D01*
X142045690Y-74699773D01*
X142045691Y-74699775D01*
X142149766Y-74855534D01*
X142221454Y-75028605D01*
X142258000Y-75212333D01*
X142258000Y-75399667D01*
X142221454Y-75583395D01*
X142149766Y-75756466D01*
X142149765Y-75756467D01*
X142045690Y-75912227D01*
X141913227Y-76044690D01*
X141834818Y-76097081D01*
X141757466Y-76148766D01*
X141584395Y-76220454D01*
X141400667Y-76257000D01*
X141213333Y-76257000D01*
X141029605Y-76220454D01*
X140856534Y-76148766D01*
X140779182Y-76097081D01*
X140700773Y-76044690D01*
X140568310Y-75912227D01*
X140464235Y-75756467D01*
X140464234Y-75756466D01*
X140392546Y-75583395D01*
X140356000Y-75399667D01*
X140356000Y-75212333D01*
X140392546Y-75028605D01*
X140464234Y-74855534D01*
X140568309Y-74699775D01*
X140568310Y-74699773D01*
X140700773Y-74567310D01*
X140856533Y-74463235D01*
X140856534Y-74463234D01*
X141029605Y-74391546D01*
X141213333Y-74355000D01*
X141400667Y-74355000D01*
X141584395Y-74391546D01*
G37*
G36*
X182601072Y-73135918D02*
G01*
X182795536Y-73216467D01*
X182846939Y-73237759D01*
X182855688Y-73243605D01*
X183068211Y-73385609D01*
X183256391Y-73573789D01*
X183404242Y-73795063D01*
X183506082Y-74040928D01*
X183549597Y-74259690D01*
X183558000Y-74301938D01*
X183558000Y-74568062D01*
X183506082Y-74829072D01*
X183404241Y-75074939D01*
X183256390Y-75296212D01*
X183068212Y-75484390D01*
X182846939Y-75632241D01*
X182846938Y-75632242D01*
X182846937Y-75632242D01*
X182601072Y-75734082D01*
X182340063Y-75786000D01*
X182073937Y-75786000D01*
X181812928Y-75734082D01*
X181567063Y-75632242D01*
X181567062Y-75632242D01*
X181567061Y-75632241D01*
X181345788Y-75484390D01*
X181157610Y-75296212D01*
X181009759Y-75074939D01*
X180907918Y-74829072D01*
X180856000Y-74568062D01*
X180856000Y-74301938D01*
X180864404Y-74259690D01*
X180907918Y-74040928D01*
X181009758Y-73795063D01*
X181157609Y-73573789D01*
X181345789Y-73385609D01*
X181558312Y-73243605D01*
X181567061Y-73237759D01*
X181618465Y-73216467D01*
X181812928Y-73135918D01*
X182073937Y-73084000D01*
X182340063Y-73084000D01*
X182601072Y-73135918D01*
G37*
G36*
X126051072Y-73135918D02*
G01*
X126245536Y-73216467D01*
X126296939Y-73237759D01*
X126305688Y-73243605D01*
X126518211Y-73385609D01*
X126706391Y-73573789D01*
X126854242Y-73795063D01*
X126956082Y-74040928D01*
X126999597Y-74259690D01*
X127008000Y-74301938D01*
X127008000Y-74568062D01*
X126956082Y-74829072D01*
X126854241Y-75074939D01*
X126706390Y-75296212D01*
X126518212Y-75484390D01*
X126296939Y-75632241D01*
X126296938Y-75632242D01*
X126296937Y-75632242D01*
X126051072Y-75734082D01*
X125790063Y-75786000D01*
X125523937Y-75786000D01*
X125262928Y-75734082D01*
X125017063Y-75632242D01*
X125017062Y-75632242D01*
X125017061Y-75632241D01*
X124795788Y-75484390D01*
X124607610Y-75296212D01*
X124459759Y-75074939D01*
X124357918Y-74829072D01*
X124306000Y-74568062D01*
X124306000Y-74301938D01*
X124314404Y-74259690D01*
X124357918Y-74040928D01*
X124459758Y-73795063D01*
X124607609Y-73573789D01*
X124795789Y-73385609D01*
X125008312Y-73243605D01*
X125017061Y-73237759D01*
X125068465Y-73216467D01*
X125262928Y-73135918D01*
X125523937Y-73084000D01*
X125790063Y-73084000D01*
X126051072Y-73135918D01*
G37*
G36*
X136084395Y-72606546D02*
G01*
X136257466Y-72678234D01*
X136257467Y-72678235D01*
X136413227Y-72782310D01*
X136545690Y-72914773D01*
X136545691Y-72914775D01*
X136649766Y-73070534D01*
X136721454Y-73243605D01*
X136758000Y-73427333D01*
X136758000Y-73614667D01*
X136721454Y-73798395D01*
X136649766Y-73971466D01*
X136649765Y-73971467D01*
X136545690Y-74127227D01*
X136413227Y-74259690D01*
X136349998Y-74301938D01*
X136257466Y-74363766D01*
X136084395Y-74435454D01*
X135900667Y-74472000D01*
X135713333Y-74472000D01*
X135529605Y-74435454D01*
X135356534Y-74363766D01*
X135264002Y-74301938D01*
X135200773Y-74259690D01*
X135068310Y-74127227D01*
X134964235Y-73971467D01*
X134964234Y-73971466D01*
X134892546Y-73798395D01*
X134856000Y-73614667D01*
X134856000Y-73427333D01*
X134892546Y-73243605D01*
X134964234Y-73070534D01*
X135068309Y-72914775D01*
X135068310Y-72914773D01*
X135200773Y-72782310D01*
X135356533Y-72678235D01*
X135356534Y-72678234D01*
X135529605Y-72606546D01*
X135713333Y-72570000D01*
X135900667Y-72570000D01*
X136084395Y-72606546D01*
G37*
G36*
X167684395Y-71851546D02*
G01*
X167857466Y-71923234D01*
X167857467Y-71923235D01*
X168013227Y-72027310D01*
X168145690Y-72159773D01*
X168145691Y-72159775D01*
X168249766Y-72315534D01*
X168321454Y-72488605D01*
X168358000Y-72672333D01*
X168358000Y-72859667D01*
X168321454Y-73043395D01*
X168249766Y-73216466D01*
X168249765Y-73216467D01*
X168145690Y-73372227D01*
X168013227Y-73504690D01*
X167934818Y-73557081D01*
X167857466Y-73608766D01*
X167684395Y-73680454D01*
X167500667Y-73717000D01*
X167313333Y-73717000D01*
X167129605Y-73680454D01*
X166956534Y-73608766D01*
X166879182Y-73557081D01*
X166800773Y-73504690D01*
X166668310Y-73372227D01*
X166564235Y-73216467D01*
X166564234Y-73216466D01*
X166492546Y-73043395D01*
X166456000Y-72859667D01*
X166456000Y-72672333D01*
X166492546Y-72488605D01*
X166564234Y-72315534D01*
X166668309Y-72159775D01*
X166668310Y-72159773D01*
X166800773Y-72027310D01*
X166956533Y-71923235D01*
X166956534Y-71923234D01*
X167129605Y-71851546D01*
X167313333Y-71815000D01*
X167500667Y-71815000D01*
X167684395Y-71851546D01*
G37*
G36*
X149756395Y-69946546D02*
G01*
X149929466Y-70018234D01*
X149929467Y-70018235D01*
X150085227Y-70122310D01*
X150217690Y-70254773D01*
X150217691Y-70254775D01*
X150321766Y-70410534D01*
X150393454Y-70583605D01*
X150430000Y-70767333D01*
X150430000Y-70954667D01*
X150393454Y-71138395D01*
X150321766Y-71311466D01*
X150321765Y-71311467D01*
X150217690Y-71467227D01*
X150085227Y-71599690D01*
X150006818Y-71652081D01*
X149929466Y-71703766D01*
X149756395Y-71775454D01*
X149572667Y-71812000D01*
X149385333Y-71812000D01*
X149201605Y-71775454D01*
X149028534Y-71703766D01*
X148951182Y-71652081D01*
X148872773Y-71599690D01*
X148740310Y-71467227D01*
X148636235Y-71311467D01*
X148636234Y-71311466D01*
X148564546Y-71138395D01*
X148528000Y-70954667D01*
X148528000Y-70767333D01*
X148564546Y-70583605D01*
X148636234Y-70410534D01*
X148740309Y-70254775D01*
X148740310Y-70254773D01*
X148872773Y-70122310D01*
X149028533Y-70018235D01*
X149028534Y-70018234D01*
X149201605Y-69946546D01*
X149385333Y-69910000D01*
X149572667Y-69910000D01*
X149756395Y-69946546D01*
G37*
G36*
X160184395Y-68951546D02*
G01*
X160357466Y-69023234D01*
X160357467Y-69023235D01*
X160513227Y-69127310D01*
X160645690Y-69259773D01*
X160645691Y-69259775D01*
X160749766Y-69415534D01*
X160821454Y-69588605D01*
X160858000Y-69772333D01*
X160858000Y-69959667D01*
X160821454Y-70143395D01*
X160749766Y-70316466D01*
X160749765Y-70316467D01*
X160645690Y-70472227D01*
X160513227Y-70604690D01*
X160439306Y-70654082D01*
X160357466Y-70708766D01*
X160184395Y-70780454D01*
X160000667Y-70817000D01*
X159813333Y-70817000D01*
X159629605Y-70780454D01*
X159456534Y-70708766D01*
X159374694Y-70654082D01*
X159300773Y-70604690D01*
X159168310Y-70472227D01*
X159064235Y-70316467D01*
X159064234Y-70316466D01*
X158992546Y-70143395D01*
X158956000Y-69959667D01*
X158956000Y-69772333D01*
X158992546Y-69588605D01*
X159064234Y-69415534D01*
X159168309Y-69259775D01*
X159168310Y-69259773D01*
X159300773Y-69127310D01*
X159456533Y-69023235D01*
X159456534Y-69023234D01*
X159629605Y-68951546D01*
X159813333Y-68915000D01*
X160000667Y-68915000D01*
X160184395Y-68951546D01*
G37*
G36*
X183558000Y-70706000D02*
G01*
X180856000Y-70706000D01*
X180856000Y-68004000D01*
X183558000Y-68004000D01*
X183558000Y-70706000D01*
G37*
G36*
X126051072Y-68055918D02*
G01*
X126296939Y-68157759D01*
X126408328Y-68232187D01*
X126518211Y-68305609D01*
X126706391Y-68493789D01*
X126854242Y-68715063D01*
X126856475Y-68720454D01*
X126956082Y-68960928D01*
X127008000Y-69221938D01*
X127008000Y-69488062D01*
X126956082Y-69749072D01*
X126854241Y-69994939D01*
X126838675Y-70018235D01*
X126706391Y-70216211D01*
X126518211Y-70404391D01*
X126509017Y-70410534D01*
X126296939Y-70552241D01*
X126296938Y-70552242D01*
X126296937Y-70552242D01*
X126051072Y-70654082D01*
X125790063Y-70706000D01*
X125523937Y-70706000D01*
X125262928Y-70654082D01*
X125017063Y-70552242D01*
X125017062Y-70552242D01*
X125017061Y-70552241D01*
X124804983Y-70410534D01*
X124795789Y-70404391D01*
X124607609Y-70216211D01*
X124475325Y-70018235D01*
X124459759Y-69994939D01*
X124357918Y-69749072D01*
X124306000Y-69488062D01*
X124306000Y-69221938D01*
X124357918Y-68960928D01*
X124457525Y-68720454D01*
X124459758Y-68715063D01*
X124607609Y-68493789D01*
X124795789Y-68305609D01*
X124905672Y-68232187D01*
X125017061Y-68157759D01*
X125262928Y-68055918D01*
X125523937Y-68004000D01*
X125790063Y-68004000D01*
X126051072Y-68055918D01*
G37*
G36*
X142984395Y-66891546D02*
G01*
X143157466Y-66963234D01*
X143157467Y-66963235D01*
X143313227Y-67067310D01*
X143445690Y-67199773D01*
X143445691Y-67199775D01*
X143549766Y-67355534D01*
X143621454Y-67528605D01*
X143658000Y-67712333D01*
X143658000Y-67899667D01*
X143621454Y-68083395D01*
X143549766Y-68256466D01*
X143549765Y-68256467D01*
X143445690Y-68412227D01*
X143313227Y-68544690D01*
X143234818Y-68597081D01*
X143157466Y-68648766D01*
X142984395Y-68720454D01*
X142800667Y-68757000D01*
X142613333Y-68757000D01*
X142429605Y-68720454D01*
X142256534Y-68648766D01*
X142179182Y-68597081D01*
X142100773Y-68544690D01*
X141968310Y-68412227D01*
X141864235Y-68256467D01*
X141864234Y-68256466D01*
X141792546Y-68083395D01*
X141756000Y-67899667D01*
X141756000Y-67712333D01*
X141792546Y-67528605D01*
X141864234Y-67355534D01*
X141968309Y-67199775D01*
X141968310Y-67199773D01*
X142100773Y-67067310D01*
X142256533Y-66963235D01*
X142256534Y-66963234D01*
X142429605Y-66891546D01*
X142613333Y-66855000D01*
X142800667Y-66855000D01*
X142984395Y-66891546D01*
G37*
G36*
X134684395Y-60106546D02*
G01*
X134857466Y-60178234D01*
X134857467Y-60178235D01*
X135013227Y-60282310D01*
X135145690Y-60414773D01*
X135145691Y-60414775D01*
X135249766Y-60570534D01*
X135321454Y-60743605D01*
X135358000Y-60927333D01*
X135358000Y-61114667D01*
X135321454Y-61298395D01*
X135249766Y-61471466D01*
X135249765Y-61471467D01*
X135145690Y-61627227D01*
X135013227Y-61759690D01*
X134934818Y-61812081D01*
X134857466Y-61863766D01*
X134684395Y-61935454D01*
X134500667Y-61972000D01*
X134313333Y-61972000D01*
X134129605Y-61935454D01*
X133956534Y-61863766D01*
X133879182Y-61812081D01*
X133800773Y-61759690D01*
X133668310Y-61627227D01*
X133564235Y-61471467D01*
X133564234Y-61471466D01*
X133492546Y-61298395D01*
X133456000Y-61114667D01*
X133456000Y-60927333D01*
X133492546Y-60743605D01*
X133564234Y-60570534D01*
X133668309Y-60414775D01*
X133668310Y-60414773D01*
X133800773Y-60282310D01*
X133956533Y-60178235D01*
X133956534Y-60178234D01*
X134129605Y-60106546D01*
X134313333Y-60070000D01*
X134500667Y-60070000D01*
X134684395Y-60106546D01*
G37*
G36*
X127008000Y-60866000D02*
G01*
X124306000Y-60866000D01*
X124306000Y-58164000D01*
X127008000Y-58164000D01*
X127008000Y-60866000D01*
G37*
G36*
X182601072Y-58215918D02*
G01*
X182725200Y-58267333D01*
X182846939Y-58317759D01*
X182916390Y-58364165D01*
X183068211Y-58465609D01*
X183256391Y-58653789D01*
X183329813Y-58763672D01*
X183361749Y-58811467D01*
X183404242Y-58875063D01*
X183506082Y-59120928D01*
X183558000Y-59381937D01*
X183558000Y-59648063D01*
X183529094Y-59793384D01*
X183506082Y-59909072D01*
X183404241Y-60154939D01*
X183388675Y-60178235D01*
X183256391Y-60376211D01*
X183068211Y-60564391D01*
X183059017Y-60570534D01*
X182846939Y-60712241D01*
X182846938Y-60712242D01*
X182846937Y-60712242D01*
X182601072Y-60814082D01*
X182340063Y-60866000D01*
X182073937Y-60866000D01*
X181812928Y-60814082D01*
X181567063Y-60712242D01*
X181567062Y-60712242D01*
X181567061Y-60712241D01*
X181354983Y-60570534D01*
X181345789Y-60564391D01*
X181157609Y-60376211D01*
X181025325Y-60178235D01*
X181009759Y-60154939D01*
X180907918Y-59909072D01*
X180884906Y-59793384D01*
X180856000Y-59648063D01*
X180856000Y-59381937D01*
X180907918Y-59120928D01*
X181009758Y-58875063D01*
X181052252Y-58811467D01*
X181084187Y-58763672D01*
X181157609Y-58653789D01*
X181345789Y-58465609D01*
X181497610Y-58364165D01*
X181567061Y-58317759D01*
X181688801Y-58267333D01*
X181812928Y-58215918D01*
X182073937Y-58164000D01*
X182340063Y-58164000D01*
X182601072Y-58215918D01*
G37*
G36*
X169213564Y-57851389D02*
G01*
X169404833Y-57930615D01*
X169404835Y-57930616D01*
X169576973Y-58045635D01*
X169723365Y-58192027D01*
X169838385Y-58364167D01*
X169917611Y-58555436D01*
X169958000Y-58758484D01*
X169958000Y-58965516D01*
X169917611Y-59168564D01*
X169858198Y-59312000D01*
X169838384Y-59359835D01*
X169723365Y-59531973D01*
X169576973Y-59678365D01*
X169404835Y-59793384D01*
X169404834Y-59793385D01*
X169404833Y-59793385D01*
X169213564Y-59872611D01*
X169010516Y-59913000D01*
X168803484Y-59913000D01*
X168600436Y-59872611D01*
X168409167Y-59793385D01*
X168409166Y-59793385D01*
X168409165Y-59793384D01*
X168237027Y-59678365D01*
X168090635Y-59531973D01*
X167975616Y-59359835D01*
X167955802Y-59312000D01*
X167896389Y-59168564D01*
X167856000Y-58965516D01*
X167856000Y-58758484D01*
X167896389Y-58555436D01*
X167975615Y-58364167D01*
X168090635Y-58192027D01*
X168237027Y-58045635D01*
X168409165Y-57930616D01*
X168409167Y-57930615D01*
X168600436Y-57851389D01*
X168803484Y-57811000D01*
X169010516Y-57811000D01*
X169213564Y-57851389D01*
G37*
G36*
X148356395Y-57446546D02*
G01*
X148529466Y-57518234D01*
X148529467Y-57518235D01*
X148685227Y-57622310D01*
X148817690Y-57754773D01*
X148817691Y-57754775D01*
X148921766Y-57910534D01*
X148993454Y-58083605D01*
X149030000Y-58267333D01*
X149030000Y-58454667D01*
X148993454Y-58638395D01*
X148921766Y-58811466D01*
X148921765Y-58811467D01*
X148817690Y-58967227D01*
X148685227Y-59099690D01*
X148653442Y-59120928D01*
X148529466Y-59203766D01*
X148356395Y-59275454D01*
X148172667Y-59312000D01*
X147985333Y-59312000D01*
X147801605Y-59275454D01*
X147628534Y-59203766D01*
X147504558Y-59120928D01*
X147472773Y-59099690D01*
X147340310Y-58967227D01*
X147236235Y-58811467D01*
X147236234Y-58811466D01*
X147164546Y-58638395D01*
X147128000Y-58454667D01*
X147128000Y-58267333D01*
X147164546Y-58083605D01*
X147236234Y-57910534D01*
X147340309Y-57754775D01*
X147340310Y-57754773D01*
X147472773Y-57622310D01*
X147628533Y-57518235D01*
X147628534Y-57518234D01*
X147801605Y-57446546D01*
X147985333Y-57410000D01*
X148172667Y-57410000D01*
X148356395Y-57446546D01*
G37*
G36*
X159213564Y-55651389D02*
G01*
X159404833Y-55730615D01*
X159404835Y-55730616D01*
X159576973Y-55845635D01*
X159723365Y-55992027D01*
X159828095Y-56148766D01*
X159838385Y-56164167D01*
X159917611Y-56355436D01*
X159958000Y-56558484D01*
X159958000Y-56765516D01*
X159917611Y-56968564D01*
X159838385Y-57159833D01*
X159838384Y-57159835D01*
X159723365Y-57331973D01*
X159576973Y-57478365D01*
X159404835Y-57593384D01*
X159404834Y-57593385D01*
X159404833Y-57593385D01*
X159213564Y-57672611D01*
X159010516Y-57713000D01*
X158803484Y-57713000D01*
X158600436Y-57672611D01*
X158409167Y-57593385D01*
X158409166Y-57593385D01*
X158409165Y-57593384D01*
X158237027Y-57478365D01*
X158090635Y-57331973D01*
X157975616Y-57159835D01*
X157975615Y-57159833D01*
X157896389Y-56968564D01*
X157856000Y-56765516D01*
X157856000Y-56558484D01*
X157896389Y-56355436D01*
X157975615Y-56164167D01*
X157985906Y-56148766D01*
X158090635Y-55992027D01*
X158237027Y-55845635D01*
X158409165Y-55730616D01*
X158409167Y-55730615D01*
X158600436Y-55651389D01*
X158803484Y-55611000D01*
X159010516Y-55611000D01*
X159213564Y-55651389D01*
G37*
G36*
X141584395Y-54391546D02*
G01*
X141757466Y-54463234D01*
X141757467Y-54463235D01*
X141913227Y-54567310D01*
X142045690Y-54699773D01*
X142045691Y-54699775D01*
X142149766Y-54855534D01*
X142221454Y-55028605D01*
X142258000Y-55212333D01*
X142258000Y-55399667D01*
X142221454Y-55583395D01*
X142149766Y-55756466D01*
X142149765Y-55756467D01*
X142045690Y-55912227D01*
X141913227Y-56044690D01*
X141834818Y-56097081D01*
X141757466Y-56148766D01*
X141584395Y-56220454D01*
X141400667Y-56257000D01*
X141213333Y-56257000D01*
X141029605Y-56220454D01*
X140856534Y-56148766D01*
X140779182Y-56097081D01*
X140700773Y-56044690D01*
X140568310Y-55912227D01*
X140464235Y-55756467D01*
X140464234Y-55756466D01*
X140392546Y-55583395D01*
X140356000Y-55399667D01*
X140356000Y-55212333D01*
X140392546Y-55028605D01*
X140464234Y-54855534D01*
X140568309Y-54699775D01*
X140568310Y-54699773D01*
X140700773Y-54567310D01*
X140856533Y-54463235D01*
X140856534Y-54463234D01*
X141029605Y-54391546D01*
X141213333Y-54355000D01*
X141400667Y-54355000D01*
X141584395Y-54391546D01*
G37*
G36*
X126051072Y-53135918D02*
G01*
X126245536Y-53216467D01*
X126296939Y-53237759D01*
X126305688Y-53243605D01*
X126518211Y-53385609D01*
X126706391Y-53573789D01*
X126854242Y-53795063D01*
X126956082Y-54040928D01*
X126999597Y-54259690D01*
X127008000Y-54301938D01*
X127008000Y-54568062D01*
X126956082Y-54829072D01*
X126854241Y-55074939D01*
X126706390Y-55296212D01*
X126518212Y-55484390D01*
X126296939Y-55632241D01*
X126296938Y-55632242D01*
X126296937Y-55632242D01*
X126051072Y-55734082D01*
X125790063Y-55786000D01*
X125523937Y-55786000D01*
X125262928Y-55734082D01*
X125017063Y-55632242D01*
X125017062Y-55632242D01*
X125017061Y-55632241D01*
X124795788Y-55484390D01*
X124607610Y-55296212D01*
X124459759Y-55074939D01*
X124357918Y-54829072D01*
X124306000Y-54568062D01*
X124306000Y-54301938D01*
X124314404Y-54259690D01*
X124357918Y-54040928D01*
X124459758Y-53795063D01*
X124607609Y-53573789D01*
X124795789Y-53385609D01*
X125008312Y-53243605D01*
X125017061Y-53237759D01*
X125068465Y-53216467D01*
X125262928Y-53135918D01*
X125523937Y-53084000D01*
X125790063Y-53084000D01*
X126051072Y-53135918D01*
G37*
G36*
X182601072Y-53135918D02*
G01*
X182795536Y-53216467D01*
X182846939Y-53237759D01*
X182855688Y-53243605D01*
X183068211Y-53385609D01*
X183256391Y-53573789D01*
X183404242Y-53795063D01*
X183506082Y-54040928D01*
X183549597Y-54259690D01*
X183558000Y-54301938D01*
X183558000Y-54568062D01*
X183506082Y-54829072D01*
X183404241Y-55074939D01*
X183256390Y-55296212D01*
X183068212Y-55484390D01*
X182846939Y-55632241D01*
X182846938Y-55632242D01*
X182846937Y-55632242D01*
X182601072Y-55734082D01*
X182340063Y-55786000D01*
X182073937Y-55786000D01*
X181812928Y-55734082D01*
X181567063Y-55632242D01*
X181567062Y-55632242D01*
X181567061Y-55632241D01*
X181345788Y-55484390D01*
X181157610Y-55296212D01*
X181009759Y-55074939D01*
X180907918Y-54829072D01*
X180856000Y-54568062D01*
X180856000Y-54301938D01*
X180864404Y-54259690D01*
X180907918Y-54040928D01*
X181009758Y-53795063D01*
X181157609Y-53573789D01*
X181345789Y-53385609D01*
X181558312Y-53243605D01*
X181567061Y-53237759D01*
X181618465Y-53216467D01*
X181812928Y-53135918D01*
X182073937Y-53084000D01*
X182340063Y-53084000D01*
X182601072Y-53135918D01*
G37*
G36*
X136084395Y-52606546D02*
G01*
X136257466Y-52678234D01*
X136257467Y-52678235D01*
X136413227Y-52782310D01*
X136545690Y-52914773D01*
X136545691Y-52914775D01*
X136649766Y-53070534D01*
X136721454Y-53243605D01*
X136758000Y-53427333D01*
X136758000Y-53614667D01*
X136721454Y-53798395D01*
X136649766Y-53971466D01*
X136649765Y-53971467D01*
X136545690Y-54127227D01*
X136413227Y-54259690D01*
X136349998Y-54301938D01*
X136257466Y-54363766D01*
X136084395Y-54435454D01*
X135900667Y-54472000D01*
X135713333Y-54472000D01*
X135529605Y-54435454D01*
X135356534Y-54363766D01*
X135264002Y-54301938D01*
X135200773Y-54259690D01*
X135068310Y-54127227D01*
X134964235Y-53971467D01*
X134964234Y-53971466D01*
X134892546Y-53798395D01*
X134856000Y-53614667D01*
X134856000Y-53427333D01*
X134892546Y-53243605D01*
X134964234Y-53070534D01*
X135068309Y-52914775D01*
X135068310Y-52914773D01*
X135200773Y-52782310D01*
X135356533Y-52678235D01*
X135356534Y-52678234D01*
X135529605Y-52606546D01*
X135713333Y-52570000D01*
X135900667Y-52570000D01*
X136084395Y-52606546D01*
G37*
G36*
X167684395Y-51851546D02*
G01*
X167857466Y-51923234D01*
X167857467Y-51923235D01*
X168013227Y-52027310D01*
X168145690Y-52159773D01*
X168145691Y-52159775D01*
X168249766Y-52315534D01*
X168321454Y-52488605D01*
X168358000Y-52672333D01*
X168358000Y-52859667D01*
X168321454Y-53043395D01*
X168249766Y-53216466D01*
X168249765Y-53216467D01*
X168145690Y-53372227D01*
X168013227Y-53504690D01*
X167934818Y-53557081D01*
X167857466Y-53608766D01*
X167684395Y-53680454D01*
X167500667Y-53717000D01*
X167313333Y-53717000D01*
X167129605Y-53680454D01*
X166956534Y-53608766D01*
X166879182Y-53557081D01*
X166800773Y-53504690D01*
X166668310Y-53372227D01*
X166564235Y-53216467D01*
X166564234Y-53216466D01*
X166492546Y-53043395D01*
X166456000Y-52859667D01*
X166456000Y-52672333D01*
X166492546Y-52488605D01*
X166564234Y-52315534D01*
X166668309Y-52159775D01*
X166668310Y-52159773D01*
X166800773Y-52027310D01*
X166956533Y-51923235D01*
X166956534Y-51923234D01*
X167129605Y-51851546D01*
X167313333Y-51815000D01*
X167500667Y-51815000D01*
X167684395Y-51851546D01*
G37*
G36*
X149756395Y-49946546D02*
G01*
X149929466Y-50018234D01*
X149929467Y-50018235D01*
X150085227Y-50122310D01*
X150217690Y-50254773D01*
X150217691Y-50254775D01*
X150321766Y-50410534D01*
X150393454Y-50583605D01*
X150430000Y-50767333D01*
X150430000Y-50954667D01*
X150393454Y-51138395D01*
X150321766Y-51311466D01*
X150321765Y-51311467D01*
X150217690Y-51467227D01*
X150085227Y-51599690D01*
X150006818Y-51652081D01*
X149929466Y-51703766D01*
X149756395Y-51775454D01*
X149572667Y-51812000D01*
X149385333Y-51812000D01*
X149201605Y-51775454D01*
X149028534Y-51703766D01*
X148951182Y-51652081D01*
X148872773Y-51599690D01*
X148740310Y-51467227D01*
X148636235Y-51311467D01*
X148636234Y-51311466D01*
X148564546Y-51138395D01*
X148528000Y-50954667D01*
X148528000Y-50767333D01*
X148564546Y-50583605D01*
X148636234Y-50410534D01*
X148740309Y-50254775D01*
X148740310Y-50254773D01*
X148872773Y-50122310D01*
X149028533Y-50018235D01*
X149028534Y-50018234D01*
X149201605Y-49946546D01*
X149385333Y-49910000D01*
X149572667Y-49910000D01*
X149756395Y-49946546D01*
G37*
G36*
X160184395Y-48951546D02*
G01*
X160357466Y-49023234D01*
X160357467Y-49023235D01*
X160513227Y-49127310D01*
X160645690Y-49259773D01*
X160645691Y-49259775D01*
X160749766Y-49415534D01*
X160821454Y-49588605D01*
X160858000Y-49772333D01*
X160858000Y-49959667D01*
X160821454Y-50143395D01*
X160749766Y-50316466D01*
X160749765Y-50316467D01*
X160645690Y-50472227D01*
X160513227Y-50604690D01*
X160439306Y-50654082D01*
X160357466Y-50708766D01*
X160184395Y-50780454D01*
X160000667Y-50817000D01*
X159813333Y-50817000D01*
X159629605Y-50780454D01*
X159456534Y-50708766D01*
X159374694Y-50654082D01*
X159300773Y-50604690D01*
X159168310Y-50472227D01*
X159064235Y-50316467D01*
X159064234Y-50316466D01*
X158992546Y-50143395D01*
X158956000Y-49959667D01*
X158956000Y-49772333D01*
X158992546Y-49588605D01*
X159064234Y-49415534D01*
X159168309Y-49259775D01*
X159168310Y-49259773D01*
X159300773Y-49127310D01*
X159456533Y-49023235D01*
X159456534Y-49023234D01*
X159629605Y-48951546D01*
X159813333Y-48915000D01*
X160000667Y-48915000D01*
X160184395Y-48951546D01*
G37*
G36*
X183558000Y-50706000D02*
G01*
X180856000Y-50706000D01*
X180856000Y-48004000D01*
X183558000Y-48004000D01*
X183558000Y-50706000D01*
G37*
G36*
X126051072Y-48055918D02*
G01*
X126296939Y-48157759D01*
X126408328Y-48232187D01*
X126518211Y-48305609D01*
X126706391Y-48493789D01*
X126854242Y-48715063D01*
X126856475Y-48720454D01*
X126956082Y-48960928D01*
X127008000Y-49221938D01*
X127008000Y-49488062D01*
X126956082Y-49749072D01*
X126854241Y-49994939D01*
X126838675Y-50018235D01*
X126706391Y-50216211D01*
X126518211Y-50404391D01*
X126509017Y-50410534D01*
X126296939Y-50552241D01*
X126296938Y-50552242D01*
X126296937Y-50552242D01*
X126051072Y-50654082D01*
X125790063Y-50706000D01*
X125523937Y-50706000D01*
X125262928Y-50654082D01*
X125017063Y-50552242D01*
X125017062Y-50552242D01*
X125017061Y-50552241D01*
X124804983Y-50410534D01*
X124795789Y-50404391D01*
X124607609Y-50216211D01*
X124475325Y-50018235D01*
X124459759Y-49994939D01*
X124357918Y-49749072D01*
X124306000Y-49488062D01*
X124306000Y-49221938D01*
X124357918Y-48960928D01*
X124457525Y-48720454D01*
X124459758Y-48715063D01*
X124607609Y-48493789D01*
X124795789Y-48305609D01*
X124905672Y-48232187D01*
X125017061Y-48157759D01*
X125262928Y-48055918D01*
X125523937Y-48004000D01*
X125790063Y-48004000D01*
X126051072Y-48055918D01*
G37*
G36*
X142984395Y-46891546D02*
G01*
X143157466Y-46963234D01*
X143157467Y-46963235D01*
X143313227Y-47067310D01*
X143445690Y-47199773D01*
X143445691Y-47199775D01*
X143549766Y-47355534D01*
X143621454Y-47528605D01*
X143658000Y-47712333D01*
X143658000Y-47899667D01*
X143621454Y-48083395D01*
X143549766Y-48256466D01*
X143549765Y-48256467D01*
X143445690Y-48412227D01*
X143313227Y-48544690D01*
X143234818Y-48597081D01*
X143157466Y-48648766D01*
X142984395Y-48720454D01*
X142800667Y-48757000D01*
X142613333Y-48757000D01*
X142429605Y-48720454D01*
X142256534Y-48648766D01*
X142179182Y-48597081D01*
X142100773Y-48544690D01*
X141968310Y-48412227D01*
X141864235Y-48256467D01*
X141864234Y-48256466D01*
X141792546Y-48083395D01*
X141756000Y-47899667D01*
X141756000Y-47712333D01*
X141792546Y-47528605D01*
X141864234Y-47355534D01*
X141968309Y-47199775D01*
X141968310Y-47199773D01*
X142100773Y-47067310D01*
X142256533Y-46963235D01*
X142256534Y-46963234D01*
X142429605Y-46891546D01*
X142613333Y-46855000D01*
X142800667Y-46855000D01*
X142984395Y-46891546D01*
G37*
G36*
X134684395Y-40106546D02*
G01*
X134857466Y-40178234D01*
X134857467Y-40178235D01*
X135013227Y-40282310D01*
X135145690Y-40414773D01*
X135145691Y-40414775D01*
X135249766Y-40570534D01*
X135321454Y-40743605D01*
X135358000Y-40927333D01*
X135358000Y-41114667D01*
X135321454Y-41298395D01*
X135249766Y-41471466D01*
X135249765Y-41471467D01*
X135145690Y-41627227D01*
X135013227Y-41759690D01*
X134934818Y-41812081D01*
X134857466Y-41863766D01*
X134684395Y-41935454D01*
X134500667Y-41972000D01*
X134313333Y-41972000D01*
X134129605Y-41935454D01*
X133956534Y-41863766D01*
X133879182Y-41812081D01*
X133800773Y-41759690D01*
X133668310Y-41627227D01*
X133564235Y-41471467D01*
X133564234Y-41471466D01*
X133492546Y-41298395D01*
X133456000Y-41114667D01*
X133456000Y-40927333D01*
X133492546Y-40743605D01*
X133564234Y-40570534D01*
X133668309Y-40414775D01*
X133668310Y-40414773D01*
X133800773Y-40282310D01*
X133956533Y-40178235D01*
X133956534Y-40178234D01*
X134129605Y-40106546D01*
X134313333Y-40070000D01*
X134500667Y-40070000D01*
X134684395Y-40106546D01*
G37*
G36*
X127008000Y-40866000D02*
G01*
X124306000Y-40866000D01*
X124306000Y-38164000D01*
X127008000Y-38164000D01*
X127008000Y-40866000D01*
G37*
G36*
X182601072Y-38215918D02*
G01*
X182725200Y-38267333D01*
X182846939Y-38317759D01*
X182916390Y-38364165D01*
X183068211Y-38465609D01*
X183256391Y-38653789D01*
X183329813Y-38763672D01*
X183361749Y-38811467D01*
X183404242Y-38875063D01*
X183506082Y-39120928D01*
X183558000Y-39381937D01*
X183558000Y-39648063D01*
X183529094Y-39793384D01*
X183506082Y-39909072D01*
X183404241Y-40154939D01*
X183388675Y-40178235D01*
X183256391Y-40376211D01*
X183068211Y-40564391D01*
X183059017Y-40570534D01*
X182846939Y-40712241D01*
X182846938Y-40712242D01*
X182846937Y-40712242D01*
X182601072Y-40814082D01*
X182340063Y-40866000D01*
X182073937Y-40866000D01*
X181812928Y-40814082D01*
X181567063Y-40712242D01*
X181567062Y-40712242D01*
X181567061Y-40712241D01*
X181354983Y-40570534D01*
X181345789Y-40564391D01*
X181157609Y-40376211D01*
X181025325Y-40178235D01*
X181009759Y-40154939D01*
X180907918Y-39909072D01*
X180884906Y-39793384D01*
X180856000Y-39648063D01*
X180856000Y-39381937D01*
X180907918Y-39120928D01*
X181009758Y-38875063D01*
X181052252Y-38811467D01*
X181084187Y-38763672D01*
X181157609Y-38653789D01*
X181345789Y-38465609D01*
X181497610Y-38364165D01*
X181567061Y-38317759D01*
X181688801Y-38267333D01*
X181812928Y-38215918D01*
X182073937Y-38164000D01*
X182340063Y-38164000D01*
X182601072Y-38215918D01*
G37*
G36*
X169213564Y-37851389D02*
G01*
X169404833Y-37930615D01*
X169404835Y-37930616D01*
X169576973Y-38045635D01*
X169723365Y-38192027D01*
X169838385Y-38364167D01*
X169917611Y-38555436D01*
X169958000Y-38758484D01*
X169958000Y-38965516D01*
X169917611Y-39168564D01*
X169858198Y-39312000D01*
X169838384Y-39359835D01*
X169723365Y-39531973D01*
X169576973Y-39678365D01*
X169404835Y-39793384D01*
X169404834Y-39793385D01*
X169404833Y-39793385D01*
X169213564Y-39872611D01*
X169010516Y-39913000D01*
X168803484Y-39913000D01*
X168600436Y-39872611D01*
X168409167Y-39793385D01*
X168409166Y-39793385D01*
X168409165Y-39793384D01*
X168237027Y-39678365D01*
X168090635Y-39531973D01*
X167975616Y-39359835D01*
X167955802Y-39312000D01*
X167896389Y-39168564D01*
X167856000Y-38965516D01*
X167856000Y-38758484D01*
X167896389Y-38555436D01*
X167975615Y-38364167D01*
X168090635Y-38192027D01*
X168237027Y-38045635D01*
X168409165Y-37930616D01*
X168409167Y-37930615D01*
X168600436Y-37851389D01*
X168803484Y-37811000D01*
X169010516Y-37811000D01*
X169213564Y-37851389D01*
G37*
G36*
X148356395Y-37446546D02*
G01*
X148529466Y-37518234D01*
X148529467Y-37518235D01*
X148685227Y-37622310D01*
X148817690Y-37754773D01*
X148817691Y-37754775D01*
X148921766Y-37910534D01*
X148993454Y-38083605D01*
X149030000Y-38267333D01*
X149030000Y-38454667D01*
X148993454Y-38638395D01*
X148921766Y-38811466D01*
X148921765Y-38811467D01*
X148817690Y-38967227D01*
X148685227Y-39099690D01*
X148653442Y-39120928D01*
X148529466Y-39203766D01*
X148356395Y-39275454D01*
X148172667Y-39312000D01*
X147985333Y-39312000D01*
X147801605Y-39275454D01*
X147628534Y-39203766D01*
X147504558Y-39120928D01*
X147472773Y-39099690D01*
X147340310Y-38967227D01*
X147236235Y-38811467D01*
X147236234Y-38811466D01*
X147164546Y-38638395D01*
X147128000Y-38454667D01*
X147128000Y-38267333D01*
X147164546Y-38083605D01*
X147236234Y-37910534D01*
X147340309Y-37754775D01*
X147340310Y-37754773D01*
X147472773Y-37622310D01*
X147628533Y-37518235D01*
X147628534Y-37518234D01*
X147801605Y-37446546D01*
X147985333Y-37410000D01*
X148172667Y-37410000D01*
X148356395Y-37446546D01*
G37*
G36*
X159213564Y-35651389D02*
G01*
X159404833Y-35730615D01*
X159404835Y-35730616D01*
X159576973Y-35845635D01*
X159723365Y-35992027D01*
X159828095Y-36148766D01*
X159838385Y-36164167D01*
X159917611Y-36355436D01*
X159958000Y-36558484D01*
X159958000Y-36765516D01*
X159917611Y-36968564D01*
X159838385Y-37159833D01*
X159838384Y-37159835D01*
X159723365Y-37331973D01*
X159576973Y-37478365D01*
X159404835Y-37593384D01*
X159404834Y-37593385D01*
X159404833Y-37593385D01*
X159213564Y-37672611D01*
X159010516Y-37713000D01*
X158803484Y-37713000D01*
X158600436Y-37672611D01*
X158409167Y-37593385D01*
X158409166Y-37593385D01*
X158409165Y-37593384D01*
X158237027Y-37478365D01*
X158090635Y-37331973D01*
X157975616Y-37159835D01*
X157975615Y-37159833D01*
X157896389Y-36968564D01*
X157856000Y-36765516D01*
X157856000Y-36558484D01*
X157896389Y-36355436D01*
X157975615Y-36164167D01*
X157985906Y-36148766D01*
X158090635Y-35992027D01*
X158237027Y-35845635D01*
X158409165Y-35730616D01*
X158409167Y-35730615D01*
X158600436Y-35651389D01*
X158803484Y-35611000D01*
X159010516Y-35611000D01*
X159213564Y-35651389D01*
G37*
G36*
X141584395Y-34391546D02*
G01*
X141757466Y-34463234D01*
X141757467Y-34463235D01*
X141913227Y-34567310D01*
X142045690Y-34699773D01*
X142045691Y-34699775D01*
X142149766Y-34855534D01*
X142221454Y-35028605D01*
X142258000Y-35212333D01*
X142258000Y-35399667D01*
X142221454Y-35583395D01*
X142149766Y-35756466D01*
X142149765Y-35756467D01*
X142045690Y-35912227D01*
X141913227Y-36044690D01*
X141834818Y-36097081D01*
X141757466Y-36148766D01*
X141584395Y-36220454D01*
X141400667Y-36257000D01*
X141213333Y-36257000D01*
X141029605Y-36220454D01*
X140856534Y-36148766D01*
X140779182Y-36097081D01*
X140700773Y-36044690D01*
X140568310Y-35912227D01*
X140464235Y-35756467D01*
X140464234Y-35756466D01*
X140392546Y-35583395D01*
X140356000Y-35399667D01*
X140356000Y-35212333D01*
X140392546Y-35028605D01*
X140464234Y-34855534D01*
X140568309Y-34699775D01*
X140568310Y-34699773D01*
X140700773Y-34567310D01*
X140856533Y-34463235D01*
X140856534Y-34463234D01*
X141029605Y-34391546D01*
X141213333Y-34355000D01*
X141400667Y-34355000D01*
X141584395Y-34391546D01*
G37*
G36*
X126051072Y-33135918D02*
G01*
X126245536Y-33216467D01*
X126296939Y-33237759D01*
X126305688Y-33243605D01*
X126518211Y-33385609D01*
X126706391Y-33573789D01*
X126854242Y-33795063D01*
X126956082Y-34040928D01*
X126999597Y-34259690D01*
X127008000Y-34301938D01*
X127008000Y-34568062D01*
X126956082Y-34829072D01*
X126854241Y-35074939D01*
X126706390Y-35296212D01*
X126518212Y-35484390D01*
X126296939Y-35632241D01*
X126296938Y-35632242D01*
X126296937Y-35632242D01*
X126051072Y-35734082D01*
X125790063Y-35786000D01*
X125523937Y-35786000D01*
X125262928Y-35734082D01*
X125017063Y-35632242D01*
X125017062Y-35632242D01*
X125017061Y-35632241D01*
X124795788Y-35484390D01*
X124607610Y-35296212D01*
X124459759Y-35074939D01*
X124357918Y-34829072D01*
X124306000Y-34568062D01*
X124306000Y-34301938D01*
X124314404Y-34259690D01*
X124357918Y-34040928D01*
X124459758Y-33795063D01*
X124607609Y-33573789D01*
X124795789Y-33385609D01*
X125008312Y-33243605D01*
X125017061Y-33237759D01*
X125068465Y-33216467D01*
X125262928Y-33135918D01*
X125523937Y-33084000D01*
X125790063Y-33084000D01*
X126051072Y-33135918D01*
G37*
G36*
X182601072Y-33135918D02*
G01*
X182795536Y-33216467D01*
X182846939Y-33237759D01*
X182855688Y-33243605D01*
X183068211Y-33385609D01*
X183256391Y-33573789D01*
X183404242Y-33795063D01*
X183506082Y-34040928D01*
X183549597Y-34259690D01*
X183558000Y-34301938D01*
X183558000Y-34568062D01*
X183506082Y-34829072D01*
X183404241Y-35074939D01*
X183256390Y-35296212D01*
X183068212Y-35484390D01*
X182846939Y-35632241D01*
X182846938Y-35632242D01*
X182846937Y-35632242D01*
X182601072Y-35734082D01*
X182340063Y-35786000D01*
X182073937Y-35786000D01*
X181812928Y-35734082D01*
X181567063Y-35632242D01*
X181567062Y-35632242D01*
X181567061Y-35632241D01*
X181345788Y-35484390D01*
X181157610Y-35296212D01*
X181009759Y-35074939D01*
X180907918Y-34829072D01*
X180856000Y-34568062D01*
X180856000Y-34301938D01*
X180864404Y-34259690D01*
X180907918Y-34040928D01*
X181009758Y-33795063D01*
X181157609Y-33573789D01*
X181345789Y-33385609D01*
X181558312Y-33243605D01*
X181567061Y-33237759D01*
X181618465Y-33216467D01*
X181812928Y-33135918D01*
X182073937Y-33084000D01*
X182340063Y-33084000D01*
X182601072Y-33135918D01*
G37*
G36*
X136084395Y-32606546D02*
G01*
X136257466Y-32678234D01*
X136257467Y-32678235D01*
X136413227Y-32782310D01*
X136545690Y-32914773D01*
X136545691Y-32914775D01*
X136649766Y-33070534D01*
X136721454Y-33243605D01*
X136758000Y-33427333D01*
X136758000Y-33614667D01*
X136721454Y-33798395D01*
X136649766Y-33971466D01*
X136649765Y-33971467D01*
X136545690Y-34127227D01*
X136413227Y-34259690D01*
X136349998Y-34301938D01*
X136257466Y-34363766D01*
X136084395Y-34435454D01*
X135900667Y-34472000D01*
X135713333Y-34472000D01*
X135529605Y-34435454D01*
X135356534Y-34363766D01*
X135264002Y-34301938D01*
X135200773Y-34259690D01*
X135068310Y-34127227D01*
X134964235Y-33971467D01*
X134964234Y-33971466D01*
X134892546Y-33798395D01*
X134856000Y-33614667D01*
X134856000Y-33427333D01*
X134892546Y-33243605D01*
X134964234Y-33070534D01*
X135068309Y-32914775D01*
X135068310Y-32914773D01*
X135200773Y-32782310D01*
X135356533Y-32678235D01*
X135356534Y-32678234D01*
X135529605Y-32606546D01*
X135713333Y-32570000D01*
X135900667Y-32570000D01*
X136084395Y-32606546D01*
G37*
G36*
X167684395Y-31851546D02*
G01*
X167857466Y-31923234D01*
X167857467Y-31923235D01*
X168013227Y-32027310D01*
X168145690Y-32159773D01*
X168145691Y-32159775D01*
X168249766Y-32315534D01*
X168321454Y-32488605D01*
X168358000Y-32672333D01*
X168358000Y-32859667D01*
X168321454Y-33043395D01*
X168249766Y-33216466D01*
X168249765Y-33216467D01*
X168145690Y-33372227D01*
X168013227Y-33504690D01*
X167934818Y-33557081D01*
X167857466Y-33608766D01*
X167684395Y-33680454D01*
X167500667Y-33717000D01*
X167313333Y-33717000D01*
X167129605Y-33680454D01*
X166956534Y-33608766D01*
X166879182Y-33557081D01*
X166800773Y-33504690D01*
X166668310Y-33372227D01*
X166564235Y-33216467D01*
X166564234Y-33216466D01*
X166492546Y-33043395D01*
X166456000Y-32859667D01*
X166456000Y-32672333D01*
X166492546Y-32488605D01*
X166564234Y-32315534D01*
X166668309Y-32159775D01*
X166668310Y-32159773D01*
X166800773Y-32027310D01*
X166956533Y-31923235D01*
X166956534Y-31923234D01*
X167129605Y-31851546D01*
X167313333Y-31815000D01*
X167500667Y-31815000D01*
X167684395Y-31851546D01*
G37*
G36*
X149756395Y-29946546D02*
G01*
X149929466Y-30018234D01*
X149929467Y-30018235D01*
X150085227Y-30122310D01*
X150217690Y-30254773D01*
X150217691Y-30254775D01*
X150321766Y-30410534D01*
X150393454Y-30583605D01*
X150430000Y-30767333D01*
X150430000Y-30954667D01*
X150393454Y-31138395D01*
X150321766Y-31311466D01*
X150321765Y-31311467D01*
X150217690Y-31467227D01*
X150085227Y-31599690D01*
X150006818Y-31652081D01*
X149929466Y-31703766D01*
X149756395Y-31775454D01*
X149572667Y-31812000D01*
X149385333Y-31812000D01*
X149201605Y-31775454D01*
X149028534Y-31703766D01*
X148951182Y-31652081D01*
X148872773Y-31599690D01*
X148740310Y-31467227D01*
X148636235Y-31311467D01*
X148636234Y-31311466D01*
X148564546Y-31138395D01*
X148528000Y-30954667D01*
X148528000Y-30767333D01*
X148564546Y-30583605D01*
X148636234Y-30410534D01*
X148740309Y-30254775D01*
X148740310Y-30254773D01*
X148872773Y-30122310D01*
X149028533Y-30018235D01*
X149028534Y-30018234D01*
X149201605Y-29946546D01*
X149385333Y-29910000D01*
X149572667Y-29910000D01*
X149756395Y-29946546D01*
G37*
G36*
X160184395Y-28951546D02*
G01*
X160357466Y-29023234D01*
X160357467Y-29023235D01*
X160513227Y-29127310D01*
X160645690Y-29259773D01*
X160645691Y-29259775D01*
X160749766Y-29415534D01*
X160821454Y-29588605D01*
X160858000Y-29772333D01*
X160858000Y-29959667D01*
X160821454Y-30143395D01*
X160749766Y-30316466D01*
X160749765Y-30316467D01*
X160645690Y-30472227D01*
X160513227Y-30604690D01*
X160439306Y-30654082D01*
X160357466Y-30708766D01*
X160184395Y-30780454D01*
X160000667Y-30817000D01*
X159813333Y-30817000D01*
X159629605Y-30780454D01*
X159456534Y-30708766D01*
X159374694Y-30654082D01*
X159300773Y-30604690D01*
X159168310Y-30472227D01*
X159064235Y-30316467D01*
X159064234Y-30316466D01*
X158992546Y-30143395D01*
X158956000Y-29959667D01*
X158956000Y-29772333D01*
X158992546Y-29588605D01*
X159064234Y-29415534D01*
X159168309Y-29259775D01*
X159168310Y-29259773D01*
X159300773Y-29127310D01*
X159456533Y-29023235D01*
X159456534Y-29023234D01*
X159629605Y-28951546D01*
X159813333Y-28915000D01*
X160000667Y-28915000D01*
X160184395Y-28951546D01*
G37*
G36*
X183558000Y-30706000D02*
G01*
X180856000Y-30706000D01*
X180856000Y-28004000D01*
X183558000Y-28004000D01*
X183558000Y-30706000D01*
G37*
G36*
X126051072Y-28055918D02*
G01*
X126296939Y-28157759D01*
X126408328Y-28232187D01*
X126518211Y-28305609D01*
X126706391Y-28493789D01*
X126854242Y-28715063D01*
X126856475Y-28720454D01*
X126956082Y-28960928D01*
X127008000Y-29221938D01*
X127008000Y-29488062D01*
X126956082Y-29749072D01*
X126854241Y-29994939D01*
X126838675Y-30018235D01*
X126706391Y-30216211D01*
X126518211Y-30404391D01*
X126509017Y-30410534D01*
X126296939Y-30552241D01*
X126296938Y-30552242D01*
X126296937Y-30552242D01*
X126051072Y-30654082D01*
X125790063Y-30706000D01*
X125523937Y-30706000D01*
X125262928Y-30654082D01*
X125017063Y-30552242D01*
X125017062Y-30552242D01*
X125017061Y-30552241D01*
X124804983Y-30410534D01*
X124795789Y-30404391D01*
X124607609Y-30216211D01*
X124475325Y-30018235D01*
X124459759Y-29994939D01*
X124357918Y-29749072D01*
X124306000Y-29488062D01*
X124306000Y-29221938D01*
X124357918Y-28960928D01*
X124457525Y-28720454D01*
X124459758Y-28715063D01*
X124607609Y-28493789D01*
X124795789Y-28305609D01*
X124905672Y-28232187D01*
X125017061Y-28157759D01*
X125262928Y-28055918D01*
X125523937Y-28004000D01*
X125790063Y-28004000D01*
X126051072Y-28055918D01*
G37*
G36*
X142984395Y-26891546D02*
G01*
X143157466Y-26963234D01*
X143157467Y-26963235D01*
X143313227Y-27067310D01*
X143445690Y-27199773D01*
X143445691Y-27199775D01*
X143549766Y-27355534D01*
X143621454Y-27528605D01*
X143658000Y-27712333D01*
X143658000Y-27899667D01*
X143621454Y-28083395D01*
X143549766Y-28256466D01*
X143549765Y-28256467D01*
X143445690Y-28412227D01*
X143313227Y-28544690D01*
X143234818Y-28597081D01*
X143157466Y-28648766D01*
X142984395Y-28720454D01*
X142800667Y-28757000D01*
X142613333Y-28757000D01*
X142429605Y-28720454D01*
X142256534Y-28648766D01*
X142179182Y-28597081D01*
X142100773Y-28544690D01*
X141968310Y-28412227D01*
X141864235Y-28256467D01*
X141864234Y-28256466D01*
X141792546Y-28083395D01*
X141756000Y-27899667D01*
X141756000Y-27712333D01*
X141792546Y-27528605D01*
X141864234Y-27355534D01*
X141968309Y-27199775D01*
X141968310Y-27199773D01*
X142100773Y-27067310D01*
X142256533Y-26963235D01*
X142256534Y-26963234D01*
X142429605Y-26891546D01*
X142613333Y-26855000D01*
X142800667Y-26855000D01*
X142984395Y-26891546D01*
G37*
M02*
