G04 #@! TF.GenerationSoftware,KiCad,Pcbnew,5.1.5+dfsg1-2build2*
G04 #@! TF.CreationDate,2021-09-07T20:18:59-05:00*
G04 #@! TF.ProjectId,,58585858-5858-4585-9858-585858585858,rev?*
G04 #@! TF.SameCoordinates,Original*
G04 #@! TF.FileFunction,Legend,Top*
G04 #@! TF.FilePolarity,Positive*
%FSLAX46Y46*%
G04 Gerber Fmt 4.6, Leading zero omitted, Abs format (unit mm)*
G04 Created by KiCad (PCBNEW 5.1.5+dfsg1-2build2) date 2021-09-07 20:18:59*
%MOMM*%
%LPD*%
G04 APERTURE LIST*
%ADD10C,0.150000*%
%ADD11C,0.010000*%
%ADD12C,0.120000*%
G04 APERTURE END LIST*
D10*
X159186190Y-86788619D02*
X159186190Y-87788619D01*
X158948095Y-87788619D01*
X158805238Y-87741000D01*
X158710000Y-87645761D01*
X158662380Y-87550523D01*
X158614761Y-87360047D01*
X158614761Y-87217190D01*
X158662380Y-87026714D01*
X158710000Y-86931476D01*
X158805238Y-86836238D01*
X158948095Y-86788619D01*
X159186190Y-86788619D01*
X158186190Y-86788619D02*
X158186190Y-87788619D01*
X157710000Y-86788619D02*
X157710000Y-87788619D01*
X157138571Y-86788619D01*
X157138571Y-87788619D01*
X155329047Y-86788619D02*
X155662380Y-87264809D01*
X155900476Y-86788619D02*
X155900476Y-87788619D01*
X155519523Y-87788619D01*
X155424285Y-87741000D01*
X155376666Y-87693380D01*
X155329047Y-87598142D01*
X155329047Y-87455285D01*
X155376666Y-87360047D01*
X155424285Y-87312428D01*
X155519523Y-87264809D01*
X155900476Y-87264809D01*
X154948095Y-87074333D02*
X154471904Y-87074333D01*
X155043333Y-86788619D02*
X154710000Y-87788619D01*
X154376666Y-86788619D01*
X154043333Y-86788619D02*
X154043333Y-87788619D01*
X153090952Y-86788619D02*
X153567142Y-86788619D01*
X153567142Y-87788619D01*
X167757619Y-85138619D02*
X167757619Y-86138619D01*
X167281428Y-85138619D02*
X167281428Y-86138619D01*
X166710000Y-85138619D01*
X166710000Y-86138619D01*
X165662380Y-85138619D02*
X165995714Y-85614809D01*
X166233809Y-85138619D02*
X166233809Y-86138619D01*
X165852857Y-86138619D01*
X165757619Y-86091000D01*
X165710000Y-86043380D01*
X165662380Y-85948142D01*
X165662380Y-85805285D01*
X165710000Y-85710047D01*
X165757619Y-85662428D01*
X165852857Y-85614809D01*
X166233809Y-85614809D01*
X165233809Y-86138619D02*
X165233809Y-85329095D01*
X165186190Y-85233857D01*
X165138571Y-85186238D01*
X165043333Y-85138619D01*
X164852857Y-85138619D01*
X164757619Y-85186238D01*
X164710000Y-85233857D01*
X164662380Y-85329095D01*
X164662380Y-86138619D01*
X164233809Y-85186238D02*
X164090952Y-85138619D01*
X163852857Y-85138619D01*
X163757619Y-85186238D01*
X163710000Y-85233857D01*
X163662380Y-85329095D01*
X163662380Y-85424333D01*
X163710000Y-85519571D01*
X163757619Y-85567190D01*
X163852857Y-85614809D01*
X164043333Y-85662428D01*
X164138571Y-85710047D01*
X164186190Y-85757666D01*
X164233809Y-85852904D01*
X164233809Y-85948142D01*
X164186190Y-86043380D01*
X164138571Y-86091000D01*
X164043333Y-86138619D01*
X163805238Y-86138619D01*
X163662380Y-86091000D01*
X163233809Y-85138619D02*
X163233809Y-86138619D01*
X163233809Y-85662428D02*
X162662380Y-85662428D01*
X162662380Y-85138619D02*
X162662380Y-86138619D01*
X160852857Y-85233857D02*
X160900476Y-85186238D01*
X161043333Y-85138619D01*
X161138571Y-85138619D01*
X161281428Y-85186238D01*
X161376666Y-85281476D01*
X161424285Y-85376714D01*
X161471904Y-85567190D01*
X161471904Y-85710047D01*
X161424285Y-85900523D01*
X161376666Y-85995761D01*
X161281428Y-86091000D01*
X161138571Y-86138619D01*
X161043333Y-86138619D01*
X160900476Y-86091000D01*
X160852857Y-86043380D01*
X160424285Y-86138619D02*
X160424285Y-85329095D01*
X160376666Y-85233857D01*
X160329047Y-85186238D01*
X160233809Y-85138619D01*
X160043333Y-85138619D01*
X159948095Y-85186238D01*
X159900476Y-85233857D01*
X159852857Y-85329095D01*
X159852857Y-86138619D01*
X158805238Y-85138619D02*
X159138571Y-85614809D01*
X159376666Y-85138619D02*
X159376666Y-86138619D01*
X158995714Y-86138619D01*
X158900476Y-86091000D01*
X158852857Y-86043380D01*
X158805238Y-85948142D01*
X158805238Y-85805285D01*
X158852857Y-85710047D01*
X158900476Y-85662428D01*
X158995714Y-85614809D01*
X159376666Y-85614809D01*
X157805238Y-85138619D02*
X158138571Y-85614809D01*
X158376666Y-85138619D02*
X158376666Y-86138619D01*
X157995714Y-86138619D01*
X157900476Y-86091000D01*
X157852857Y-86043380D01*
X157805238Y-85948142D01*
X157805238Y-85805285D01*
X157852857Y-85710047D01*
X157900476Y-85662428D01*
X157995714Y-85614809D01*
X158376666Y-85614809D01*
X157376666Y-85662428D02*
X157043333Y-85662428D01*
X156900476Y-85138619D02*
X157376666Y-85138619D01*
X157376666Y-86138619D01*
X156900476Y-86138619D01*
X156471904Y-85138619D02*
X156471904Y-86138619D01*
X155900476Y-85138619D01*
X155900476Y-86138619D01*
X155567142Y-86138619D02*
X154995714Y-86138619D01*
X155281428Y-85138619D02*
X155281428Y-86138619D01*
X153424285Y-85138619D02*
X153900476Y-85138619D01*
X153900476Y-86138619D01*
X153090952Y-85138619D02*
X153090952Y-86138619D01*
X152614761Y-85138619D02*
X152614761Y-86138619D01*
X152281428Y-85424333D01*
X151948095Y-86138619D01*
X151948095Y-85138619D01*
X151471904Y-85138619D02*
X151471904Y-86138619D01*
X151138571Y-86138619D02*
X150567142Y-86138619D01*
X150852857Y-85138619D02*
X150852857Y-86138619D01*
X150233809Y-85662428D02*
X149900476Y-85662428D01*
X149757619Y-85138619D02*
X150233809Y-85138619D01*
X150233809Y-86138619D01*
X149757619Y-86138619D01*
X148757619Y-85138619D02*
X149090952Y-85614809D01*
X149329047Y-85138619D02*
X149329047Y-86138619D01*
X148948095Y-86138619D01*
X148852857Y-86091000D01*
X148805238Y-86043380D01*
X148757619Y-85948142D01*
X148757619Y-85805285D01*
X148805238Y-85710047D01*
X148852857Y-85662428D01*
X148948095Y-85614809D01*
X149329047Y-85614809D01*
X147614761Y-85186238D02*
X147471904Y-85138619D01*
X147233809Y-85138619D01*
X147138571Y-85186238D01*
X147090952Y-85233857D01*
X147043333Y-85329095D01*
X147043333Y-85424333D01*
X147090952Y-85519571D01*
X147138571Y-85567190D01*
X147233809Y-85614809D01*
X147424285Y-85662428D01*
X147519523Y-85710047D01*
X147567142Y-85757666D01*
X147614761Y-85852904D01*
X147614761Y-85948142D01*
X147567142Y-86043380D01*
X147519523Y-86091000D01*
X147424285Y-86138619D01*
X147186190Y-86138619D01*
X147043333Y-86091000D01*
X146138571Y-85138619D02*
X146614761Y-85138619D01*
X146614761Y-86138619D01*
X145805238Y-85138619D02*
X145805238Y-86138619D01*
X145329047Y-85138619D02*
X145329047Y-86138619D01*
X144995714Y-85424333D01*
X144662380Y-86138619D01*
X144662380Y-85138619D01*
X159186190Y-66788619D02*
X159186190Y-67788619D01*
X158948095Y-67788619D01*
X158805238Y-67741000D01*
X158710000Y-67645761D01*
X158662380Y-67550523D01*
X158614761Y-67360047D01*
X158614761Y-67217190D01*
X158662380Y-67026714D01*
X158710000Y-66931476D01*
X158805238Y-66836238D01*
X158948095Y-66788619D01*
X159186190Y-66788619D01*
X158186190Y-66788619D02*
X158186190Y-67788619D01*
X157710000Y-66788619D02*
X157710000Y-67788619D01*
X157138571Y-66788619D01*
X157138571Y-67788619D01*
X155329047Y-66788619D02*
X155662380Y-67264809D01*
X155900476Y-66788619D02*
X155900476Y-67788619D01*
X155519523Y-67788619D01*
X155424285Y-67741000D01*
X155376666Y-67693380D01*
X155329047Y-67598142D01*
X155329047Y-67455285D01*
X155376666Y-67360047D01*
X155424285Y-67312428D01*
X155519523Y-67264809D01*
X155900476Y-67264809D01*
X154948095Y-67074333D02*
X154471904Y-67074333D01*
X155043333Y-66788619D02*
X154710000Y-67788619D01*
X154376666Y-66788619D01*
X154043333Y-66788619D02*
X154043333Y-67788619D01*
X153090952Y-66788619D02*
X153567142Y-66788619D01*
X153567142Y-67788619D01*
X167757619Y-65138619D02*
X167757619Y-66138619D01*
X167281428Y-65138619D02*
X167281428Y-66138619D01*
X166710000Y-65138619D01*
X166710000Y-66138619D01*
X165662380Y-65138619D02*
X165995714Y-65614809D01*
X166233809Y-65138619D02*
X166233809Y-66138619D01*
X165852857Y-66138619D01*
X165757619Y-66091000D01*
X165710000Y-66043380D01*
X165662380Y-65948142D01*
X165662380Y-65805285D01*
X165710000Y-65710047D01*
X165757619Y-65662428D01*
X165852857Y-65614809D01*
X166233809Y-65614809D01*
X165233809Y-66138619D02*
X165233809Y-65329095D01*
X165186190Y-65233857D01*
X165138571Y-65186238D01*
X165043333Y-65138619D01*
X164852857Y-65138619D01*
X164757619Y-65186238D01*
X164710000Y-65233857D01*
X164662380Y-65329095D01*
X164662380Y-66138619D01*
X164233809Y-65186238D02*
X164090952Y-65138619D01*
X163852857Y-65138619D01*
X163757619Y-65186238D01*
X163710000Y-65233857D01*
X163662380Y-65329095D01*
X163662380Y-65424333D01*
X163710000Y-65519571D01*
X163757619Y-65567190D01*
X163852857Y-65614809D01*
X164043333Y-65662428D01*
X164138571Y-65710047D01*
X164186190Y-65757666D01*
X164233809Y-65852904D01*
X164233809Y-65948142D01*
X164186190Y-66043380D01*
X164138571Y-66091000D01*
X164043333Y-66138619D01*
X163805238Y-66138619D01*
X163662380Y-66091000D01*
X163233809Y-65138619D02*
X163233809Y-66138619D01*
X163233809Y-65662428D02*
X162662380Y-65662428D01*
X162662380Y-65138619D02*
X162662380Y-66138619D01*
X160852857Y-65233857D02*
X160900476Y-65186238D01*
X161043333Y-65138619D01*
X161138571Y-65138619D01*
X161281428Y-65186238D01*
X161376666Y-65281476D01*
X161424285Y-65376714D01*
X161471904Y-65567190D01*
X161471904Y-65710047D01*
X161424285Y-65900523D01*
X161376666Y-65995761D01*
X161281428Y-66091000D01*
X161138571Y-66138619D01*
X161043333Y-66138619D01*
X160900476Y-66091000D01*
X160852857Y-66043380D01*
X160424285Y-66138619D02*
X160424285Y-65329095D01*
X160376666Y-65233857D01*
X160329047Y-65186238D01*
X160233809Y-65138619D01*
X160043333Y-65138619D01*
X159948095Y-65186238D01*
X159900476Y-65233857D01*
X159852857Y-65329095D01*
X159852857Y-66138619D01*
X158805238Y-65138619D02*
X159138571Y-65614809D01*
X159376666Y-65138619D02*
X159376666Y-66138619D01*
X158995714Y-66138619D01*
X158900476Y-66091000D01*
X158852857Y-66043380D01*
X158805238Y-65948142D01*
X158805238Y-65805285D01*
X158852857Y-65710047D01*
X158900476Y-65662428D01*
X158995714Y-65614809D01*
X159376666Y-65614809D01*
X157805238Y-65138619D02*
X158138571Y-65614809D01*
X158376666Y-65138619D02*
X158376666Y-66138619D01*
X157995714Y-66138619D01*
X157900476Y-66091000D01*
X157852857Y-66043380D01*
X157805238Y-65948142D01*
X157805238Y-65805285D01*
X157852857Y-65710047D01*
X157900476Y-65662428D01*
X157995714Y-65614809D01*
X158376666Y-65614809D01*
X157376666Y-65662428D02*
X157043333Y-65662428D01*
X156900476Y-65138619D02*
X157376666Y-65138619D01*
X157376666Y-66138619D01*
X156900476Y-66138619D01*
X156471904Y-65138619D02*
X156471904Y-66138619D01*
X155900476Y-65138619D01*
X155900476Y-66138619D01*
X155567142Y-66138619D02*
X154995714Y-66138619D01*
X155281428Y-65138619D02*
X155281428Y-66138619D01*
X153424285Y-65138619D02*
X153900476Y-65138619D01*
X153900476Y-66138619D01*
X153090952Y-65138619D02*
X153090952Y-66138619D01*
X152614761Y-65138619D02*
X152614761Y-66138619D01*
X152281428Y-65424333D01*
X151948095Y-66138619D01*
X151948095Y-65138619D01*
X151471904Y-65138619D02*
X151471904Y-66138619D01*
X151138571Y-66138619D02*
X150567142Y-66138619D01*
X150852857Y-65138619D02*
X150852857Y-66138619D01*
X150233809Y-65662428D02*
X149900476Y-65662428D01*
X149757619Y-65138619D02*
X150233809Y-65138619D01*
X150233809Y-66138619D01*
X149757619Y-66138619D01*
X148757619Y-65138619D02*
X149090952Y-65614809D01*
X149329047Y-65138619D02*
X149329047Y-66138619D01*
X148948095Y-66138619D01*
X148852857Y-66091000D01*
X148805238Y-66043380D01*
X148757619Y-65948142D01*
X148757619Y-65805285D01*
X148805238Y-65710047D01*
X148852857Y-65662428D01*
X148948095Y-65614809D01*
X149329047Y-65614809D01*
X147614761Y-65186238D02*
X147471904Y-65138619D01*
X147233809Y-65138619D01*
X147138571Y-65186238D01*
X147090952Y-65233857D01*
X147043333Y-65329095D01*
X147043333Y-65424333D01*
X147090952Y-65519571D01*
X147138571Y-65567190D01*
X147233809Y-65614809D01*
X147424285Y-65662428D01*
X147519523Y-65710047D01*
X147567142Y-65757666D01*
X147614761Y-65852904D01*
X147614761Y-65948142D01*
X147567142Y-66043380D01*
X147519523Y-66091000D01*
X147424285Y-66138619D01*
X147186190Y-66138619D01*
X147043333Y-66091000D01*
X146138571Y-65138619D02*
X146614761Y-65138619D01*
X146614761Y-66138619D01*
X145805238Y-65138619D02*
X145805238Y-66138619D01*
X145329047Y-65138619D02*
X145329047Y-66138619D01*
X144995714Y-65424333D01*
X144662380Y-66138619D01*
X144662380Y-65138619D01*
X159186190Y-46788619D02*
X159186190Y-47788619D01*
X158948095Y-47788619D01*
X158805238Y-47741000D01*
X158710000Y-47645761D01*
X158662380Y-47550523D01*
X158614761Y-47360047D01*
X158614761Y-47217190D01*
X158662380Y-47026714D01*
X158710000Y-46931476D01*
X158805238Y-46836238D01*
X158948095Y-46788619D01*
X159186190Y-46788619D01*
X158186190Y-46788619D02*
X158186190Y-47788619D01*
X157710000Y-46788619D02*
X157710000Y-47788619D01*
X157138571Y-46788619D01*
X157138571Y-47788619D01*
X155329047Y-46788619D02*
X155662380Y-47264809D01*
X155900476Y-46788619D02*
X155900476Y-47788619D01*
X155519523Y-47788619D01*
X155424285Y-47741000D01*
X155376666Y-47693380D01*
X155329047Y-47598142D01*
X155329047Y-47455285D01*
X155376666Y-47360047D01*
X155424285Y-47312428D01*
X155519523Y-47264809D01*
X155900476Y-47264809D01*
X154948095Y-47074333D02*
X154471904Y-47074333D01*
X155043333Y-46788619D02*
X154710000Y-47788619D01*
X154376666Y-46788619D01*
X154043333Y-46788619D02*
X154043333Y-47788619D01*
X153090952Y-46788619D02*
X153567142Y-46788619D01*
X153567142Y-47788619D01*
X167757619Y-45138619D02*
X167757619Y-46138619D01*
X167281428Y-45138619D02*
X167281428Y-46138619D01*
X166710000Y-45138619D01*
X166710000Y-46138619D01*
X165662380Y-45138619D02*
X165995714Y-45614809D01*
X166233809Y-45138619D02*
X166233809Y-46138619D01*
X165852857Y-46138619D01*
X165757619Y-46091000D01*
X165710000Y-46043380D01*
X165662380Y-45948142D01*
X165662380Y-45805285D01*
X165710000Y-45710047D01*
X165757619Y-45662428D01*
X165852857Y-45614809D01*
X166233809Y-45614809D01*
X165233809Y-46138619D02*
X165233809Y-45329095D01*
X165186190Y-45233857D01*
X165138571Y-45186238D01*
X165043333Y-45138619D01*
X164852857Y-45138619D01*
X164757619Y-45186238D01*
X164710000Y-45233857D01*
X164662380Y-45329095D01*
X164662380Y-46138619D01*
X164233809Y-45186238D02*
X164090952Y-45138619D01*
X163852857Y-45138619D01*
X163757619Y-45186238D01*
X163710000Y-45233857D01*
X163662380Y-45329095D01*
X163662380Y-45424333D01*
X163710000Y-45519571D01*
X163757619Y-45567190D01*
X163852857Y-45614809D01*
X164043333Y-45662428D01*
X164138571Y-45710047D01*
X164186190Y-45757666D01*
X164233809Y-45852904D01*
X164233809Y-45948142D01*
X164186190Y-46043380D01*
X164138571Y-46091000D01*
X164043333Y-46138619D01*
X163805238Y-46138619D01*
X163662380Y-46091000D01*
X163233809Y-45138619D02*
X163233809Y-46138619D01*
X163233809Y-45662428D02*
X162662380Y-45662428D01*
X162662380Y-45138619D02*
X162662380Y-46138619D01*
X160852857Y-45233857D02*
X160900476Y-45186238D01*
X161043333Y-45138619D01*
X161138571Y-45138619D01*
X161281428Y-45186238D01*
X161376666Y-45281476D01*
X161424285Y-45376714D01*
X161471904Y-45567190D01*
X161471904Y-45710047D01*
X161424285Y-45900523D01*
X161376666Y-45995761D01*
X161281428Y-46091000D01*
X161138571Y-46138619D01*
X161043333Y-46138619D01*
X160900476Y-46091000D01*
X160852857Y-46043380D01*
X160424285Y-46138619D02*
X160424285Y-45329095D01*
X160376666Y-45233857D01*
X160329047Y-45186238D01*
X160233809Y-45138619D01*
X160043333Y-45138619D01*
X159948095Y-45186238D01*
X159900476Y-45233857D01*
X159852857Y-45329095D01*
X159852857Y-46138619D01*
X158805238Y-45138619D02*
X159138571Y-45614809D01*
X159376666Y-45138619D02*
X159376666Y-46138619D01*
X158995714Y-46138619D01*
X158900476Y-46091000D01*
X158852857Y-46043380D01*
X158805238Y-45948142D01*
X158805238Y-45805285D01*
X158852857Y-45710047D01*
X158900476Y-45662428D01*
X158995714Y-45614809D01*
X159376666Y-45614809D01*
X157805238Y-45138619D02*
X158138571Y-45614809D01*
X158376666Y-45138619D02*
X158376666Y-46138619D01*
X157995714Y-46138619D01*
X157900476Y-46091000D01*
X157852857Y-46043380D01*
X157805238Y-45948142D01*
X157805238Y-45805285D01*
X157852857Y-45710047D01*
X157900476Y-45662428D01*
X157995714Y-45614809D01*
X158376666Y-45614809D01*
X157376666Y-45662428D02*
X157043333Y-45662428D01*
X156900476Y-45138619D02*
X157376666Y-45138619D01*
X157376666Y-46138619D01*
X156900476Y-46138619D01*
X156471904Y-45138619D02*
X156471904Y-46138619D01*
X155900476Y-45138619D01*
X155900476Y-46138619D01*
X155567142Y-46138619D02*
X154995714Y-46138619D01*
X155281428Y-45138619D02*
X155281428Y-46138619D01*
X153424285Y-45138619D02*
X153900476Y-45138619D01*
X153900476Y-46138619D01*
X153090952Y-45138619D02*
X153090952Y-46138619D01*
X152614761Y-45138619D02*
X152614761Y-46138619D01*
X152281428Y-45424333D01*
X151948095Y-46138619D01*
X151948095Y-45138619D01*
X151471904Y-45138619D02*
X151471904Y-46138619D01*
X151138571Y-46138619D02*
X150567142Y-46138619D01*
X150852857Y-45138619D02*
X150852857Y-46138619D01*
X150233809Y-45662428D02*
X149900476Y-45662428D01*
X149757619Y-45138619D02*
X150233809Y-45138619D01*
X150233809Y-46138619D01*
X149757619Y-46138619D01*
X148757619Y-45138619D02*
X149090952Y-45614809D01*
X149329047Y-45138619D02*
X149329047Y-46138619D01*
X148948095Y-46138619D01*
X148852857Y-46091000D01*
X148805238Y-46043380D01*
X148757619Y-45948142D01*
X148757619Y-45805285D01*
X148805238Y-45710047D01*
X148852857Y-45662428D01*
X148948095Y-45614809D01*
X149329047Y-45614809D01*
X147614761Y-45186238D02*
X147471904Y-45138619D01*
X147233809Y-45138619D01*
X147138571Y-45186238D01*
X147090952Y-45233857D01*
X147043333Y-45329095D01*
X147043333Y-45424333D01*
X147090952Y-45519571D01*
X147138571Y-45567190D01*
X147233809Y-45614809D01*
X147424285Y-45662428D01*
X147519523Y-45710047D01*
X147567142Y-45757666D01*
X147614761Y-45852904D01*
X147614761Y-45948142D01*
X147567142Y-46043380D01*
X147519523Y-46091000D01*
X147424285Y-46138619D01*
X147186190Y-46138619D01*
X147043333Y-46091000D01*
X146138571Y-45138619D02*
X146614761Y-45138619D01*
X146614761Y-46138619D01*
X145805238Y-45138619D02*
X145805238Y-46138619D01*
X145329047Y-45138619D02*
X145329047Y-46138619D01*
X144995714Y-45424333D01*
X144662380Y-46138619D01*
X144662380Y-45138619D01*
X187570761Y-85947619D02*
X187380285Y-85947619D01*
X187285047Y-85900000D01*
X187189809Y-85804761D01*
X187142190Y-85614285D01*
X187142190Y-85280952D01*
X187189809Y-85090476D01*
X187285047Y-84995238D01*
X187380285Y-84947619D01*
X187570761Y-84947619D01*
X187666000Y-84995238D01*
X187761238Y-85090476D01*
X187808857Y-85280952D01*
X187808857Y-85614285D01*
X187761238Y-85804761D01*
X187666000Y-85900000D01*
X187570761Y-85947619D01*
X186713619Y-85947619D02*
X186713619Y-85138095D01*
X186666000Y-85042857D01*
X186618380Y-84995238D01*
X186523142Y-84947619D01*
X186332666Y-84947619D01*
X186237428Y-84995238D01*
X186189809Y-85042857D01*
X186142190Y-85138095D01*
X186142190Y-85947619D01*
X185808857Y-85947619D02*
X185237428Y-85947619D01*
X185523142Y-84947619D02*
X185523142Y-85947619D01*
X184904095Y-84947619D02*
X184904095Y-85947619D01*
X184523142Y-85947619D01*
X184427904Y-85900000D01*
X184380285Y-85852380D01*
X184332666Y-85757142D01*
X184332666Y-85614285D01*
X184380285Y-85519047D01*
X184427904Y-85471428D01*
X184523142Y-85423809D01*
X184904095Y-85423809D01*
X183904095Y-85947619D02*
X183904095Y-85138095D01*
X183856476Y-85042857D01*
X183808857Y-84995238D01*
X183713619Y-84947619D01*
X183523142Y-84947619D01*
X183427904Y-84995238D01*
X183380285Y-85042857D01*
X183332666Y-85138095D01*
X183332666Y-85947619D01*
X182999333Y-85947619D02*
X182427904Y-85947619D01*
X182713619Y-84947619D02*
X182713619Y-85947619D01*
X187570761Y-65947619D02*
X187380285Y-65947619D01*
X187285047Y-65900000D01*
X187189809Y-65804761D01*
X187142190Y-65614285D01*
X187142190Y-65280952D01*
X187189809Y-65090476D01*
X187285047Y-64995238D01*
X187380285Y-64947619D01*
X187570761Y-64947619D01*
X187666000Y-64995238D01*
X187761238Y-65090476D01*
X187808857Y-65280952D01*
X187808857Y-65614285D01*
X187761238Y-65804761D01*
X187666000Y-65900000D01*
X187570761Y-65947619D01*
X186713619Y-65947619D02*
X186713619Y-65138095D01*
X186666000Y-65042857D01*
X186618380Y-64995238D01*
X186523142Y-64947619D01*
X186332666Y-64947619D01*
X186237428Y-64995238D01*
X186189809Y-65042857D01*
X186142190Y-65138095D01*
X186142190Y-65947619D01*
X185808857Y-65947619D02*
X185237428Y-65947619D01*
X185523142Y-64947619D02*
X185523142Y-65947619D01*
X184904095Y-64947619D02*
X184904095Y-65947619D01*
X184523142Y-65947619D01*
X184427904Y-65900000D01*
X184380285Y-65852380D01*
X184332666Y-65757142D01*
X184332666Y-65614285D01*
X184380285Y-65519047D01*
X184427904Y-65471428D01*
X184523142Y-65423809D01*
X184904095Y-65423809D01*
X183904095Y-65947619D02*
X183904095Y-65138095D01*
X183856476Y-65042857D01*
X183808857Y-64995238D01*
X183713619Y-64947619D01*
X183523142Y-64947619D01*
X183427904Y-64995238D01*
X183380285Y-65042857D01*
X183332666Y-65138095D01*
X183332666Y-65947619D01*
X182999333Y-65947619D02*
X182427904Y-65947619D01*
X182713619Y-64947619D02*
X182713619Y-65947619D01*
X187570761Y-45947619D02*
X187380285Y-45947619D01*
X187285047Y-45900000D01*
X187189809Y-45804761D01*
X187142190Y-45614285D01*
X187142190Y-45280952D01*
X187189809Y-45090476D01*
X187285047Y-44995238D01*
X187380285Y-44947619D01*
X187570761Y-44947619D01*
X187666000Y-44995238D01*
X187761238Y-45090476D01*
X187808857Y-45280952D01*
X187808857Y-45614285D01*
X187761238Y-45804761D01*
X187666000Y-45900000D01*
X187570761Y-45947619D01*
X186713619Y-45947619D02*
X186713619Y-45138095D01*
X186666000Y-45042857D01*
X186618380Y-44995238D01*
X186523142Y-44947619D01*
X186332666Y-44947619D01*
X186237428Y-44995238D01*
X186189809Y-45042857D01*
X186142190Y-45138095D01*
X186142190Y-45947619D01*
X185808857Y-45947619D02*
X185237428Y-45947619D01*
X185523142Y-44947619D02*
X185523142Y-45947619D01*
X184904095Y-44947619D02*
X184904095Y-45947619D01*
X184523142Y-45947619D01*
X184427904Y-45900000D01*
X184380285Y-45852380D01*
X184332666Y-45757142D01*
X184332666Y-45614285D01*
X184380285Y-45519047D01*
X184427904Y-45471428D01*
X184523142Y-45423809D01*
X184904095Y-45423809D01*
X183904095Y-45947619D02*
X183904095Y-45138095D01*
X183856476Y-45042857D01*
X183808857Y-44995238D01*
X183713619Y-44947619D01*
X183523142Y-44947619D01*
X183427904Y-44995238D01*
X183380285Y-45042857D01*
X183332666Y-45138095D01*
X183332666Y-45947619D01*
X182999333Y-45947619D02*
X182427904Y-45947619D01*
X182713619Y-44947619D02*
X182713619Y-45947619D01*
X124102571Y-84820619D02*
X124102571Y-85820619D01*
X123626380Y-84820619D02*
X123626380Y-85820619D01*
X123054952Y-84820619D01*
X123054952Y-85820619D01*
X122578761Y-84820619D02*
X122578761Y-85820619D01*
X122197809Y-85820619D01*
X122102571Y-85773000D01*
X122054952Y-85725380D01*
X122007333Y-85630142D01*
X122007333Y-85487285D01*
X122054952Y-85392047D01*
X122102571Y-85344428D01*
X122197809Y-85296809D01*
X122578761Y-85296809D01*
X121578761Y-85820619D02*
X121578761Y-85011095D01*
X121531142Y-84915857D01*
X121483523Y-84868238D01*
X121388285Y-84820619D01*
X121197809Y-84820619D01*
X121102571Y-84868238D01*
X121054952Y-84915857D01*
X121007333Y-85011095D01*
X121007333Y-85820619D01*
X120674000Y-85820619D02*
X120102571Y-85820619D01*
X120388285Y-84820619D02*
X120388285Y-85820619D01*
X124102571Y-64820619D02*
X124102571Y-65820619D01*
X123626380Y-64820619D02*
X123626380Y-65820619D01*
X123054952Y-64820619D01*
X123054952Y-65820619D01*
X122578761Y-64820619D02*
X122578761Y-65820619D01*
X122197809Y-65820619D01*
X122102571Y-65773000D01*
X122054952Y-65725380D01*
X122007333Y-65630142D01*
X122007333Y-65487285D01*
X122054952Y-65392047D01*
X122102571Y-65344428D01*
X122197809Y-65296809D01*
X122578761Y-65296809D01*
X121578761Y-65820619D02*
X121578761Y-65011095D01*
X121531142Y-64915857D01*
X121483523Y-64868238D01*
X121388285Y-64820619D01*
X121197809Y-64820619D01*
X121102571Y-64868238D01*
X121054952Y-64915857D01*
X121007333Y-65011095D01*
X121007333Y-65820619D01*
X120674000Y-65820619D02*
X120102571Y-65820619D01*
X120388285Y-64820619D02*
X120388285Y-65820619D01*
X124102571Y-44820619D02*
X124102571Y-45820619D01*
X123626380Y-44820619D02*
X123626380Y-45820619D01*
X123054952Y-44820619D01*
X123054952Y-45820619D01*
X122578761Y-44820619D02*
X122578761Y-45820619D01*
X122197809Y-45820619D01*
X122102571Y-45773000D01*
X122054952Y-45725380D01*
X122007333Y-45630142D01*
X122007333Y-45487285D01*
X122054952Y-45392047D01*
X122102571Y-45344428D01*
X122197809Y-45296809D01*
X122578761Y-45296809D01*
X121578761Y-45820619D02*
X121578761Y-45011095D01*
X121531142Y-44915857D01*
X121483523Y-44868238D01*
X121388285Y-44820619D01*
X121197809Y-44820619D01*
X121102571Y-44868238D01*
X121054952Y-44915857D01*
X121007333Y-45011095D01*
X121007333Y-45820619D01*
X120674000Y-45820619D02*
X120102571Y-45820619D01*
X120388285Y-44820619D02*
X120388285Y-45820619D01*
X119324380Y-99924904D02*
X118324380Y-99924904D01*
X119324380Y-99353476D01*
X118324380Y-99353476D01*
X119324380Y-93829666D02*
X119324380Y-94305857D01*
X118324380Y-94305857D01*
X118372000Y-88401095D02*
X118324380Y-88496333D01*
X118324380Y-88639190D01*
X118372000Y-88782047D01*
X118467238Y-88877285D01*
X118562476Y-88924904D01*
X118752952Y-88972523D01*
X118895809Y-88972523D01*
X119086285Y-88924904D01*
X119181523Y-88877285D01*
X119276761Y-88782047D01*
X119324380Y-88639190D01*
X119324380Y-88543952D01*
X119276761Y-88401095D01*
X119229142Y-88353476D01*
X118895809Y-88353476D01*
X118895809Y-88543952D01*
X119324380Y-79924904D02*
X118324380Y-79924904D01*
X119324380Y-79353476D01*
X118324380Y-79353476D01*
X119324380Y-73829666D02*
X119324380Y-74305857D01*
X118324380Y-74305857D01*
X118372000Y-68401095D02*
X118324380Y-68496333D01*
X118324380Y-68639190D01*
X118372000Y-68782047D01*
X118467238Y-68877285D01*
X118562476Y-68924904D01*
X118752952Y-68972523D01*
X118895809Y-68972523D01*
X119086285Y-68924904D01*
X119181523Y-68877285D01*
X119276761Y-68782047D01*
X119324380Y-68639190D01*
X119324380Y-68543952D01*
X119276761Y-68401095D01*
X119229142Y-68353476D01*
X118895809Y-68353476D01*
X118895809Y-68543952D01*
X119324380Y-59924904D02*
X118324380Y-59924904D01*
X119324380Y-59353476D01*
X118324380Y-59353476D01*
X119324380Y-53829666D02*
X119324380Y-54305857D01*
X118324380Y-54305857D01*
X118372000Y-48401095D02*
X118324380Y-48496333D01*
X118324380Y-48639190D01*
X118372000Y-48782047D01*
X118467238Y-48877285D01*
X118562476Y-48924904D01*
X118752952Y-48972523D01*
X118895809Y-48972523D01*
X119086285Y-48924904D01*
X119181523Y-48877285D01*
X119276761Y-48782047D01*
X119324380Y-48639190D01*
X119324380Y-48543952D01*
X119276761Y-48401095D01*
X119229142Y-48353476D01*
X118895809Y-48353476D01*
X118895809Y-48543952D01*
X189301380Y-100178952D02*
X188301380Y-100178952D01*
X189301380Y-99607523D01*
X188301380Y-99607523D01*
X189301380Y-94083714D02*
X189301380Y-94559904D01*
X188301380Y-94559904D01*
X188349000Y-89417047D02*
X188301380Y-89512285D01*
X188301380Y-89655142D01*
X188349000Y-89798000D01*
X188444238Y-89893238D01*
X188539476Y-89940857D01*
X188729952Y-89988476D01*
X188872809Y-89988476D01*
X189063285Y-89940857D01*
X189158523Y-89893238D01*
X189253761Y-89798000D01*
X189301380Y-89655142D01*
X189301380Y-89559904D01*
X189253761Y-89417047D01*
X189206142Y-89369428D01*
X188872809Y-89369428D01*
X188872809Y-89559904D01*
X189301380Y-80178952D02*
X188301380Y-80178952D01*
X189301380Y-79607523D01*
X188301380Y-79607523D01*
X189301380Y-74083714D02*
X189301380Y-74559904D01*
X188301380Y-74559904D01*
X188349000Y-69417047D02*
X188301380Y-69512285D01*
X188301380Y-69655142D01*
X188349000Y-69798000D01*
X188444238Y-69893238D01*
X188539476Y-69940857D01*
X188729952Y-69988476D01*
X188872809Y-69988476D01*
X189063285Y-69940857D01*
X189158523Y-69893238D01*
X189253761Y-69798000D01*
X189301380Y-69655142D01*
X189301380Y-69559904D01*
X189253761Y-69417047D01*
X189206142Y-69369428D01*
X188872809Y-69369428D01*
X188872809Y-69559904D01*
X189301380Y-60178952D02*
X188301380Y-60178952D01*
X189301380Y-59607523D01*
X188301380Y-59607523D01*
X189301380Y-54083714D02*
X189301380Y-54559904D01*
X188301380Y-54559904D01*
X188349000Y-49417047D02*
X188301380Y-49512285D01*
X188301380Y-49655142D01*
X188349000Y-49798000D01*
X188444238Y-49893238D01*
X188539476Y-49940857D01*
X188729952Y-49988476D01*
X188872809Y-49988476D01*
X189063285Y-49940857D01*
X189158523Y-49893238D01*
X189253761Y-49798000D01*
X189301380Y-49655142D01*
X189301380Y-49559904D01*
X189253761Y-49417047D01*
X189206142Y-49369428D01*
X188872809Y-49369428D01*
X188872809Y-49559904D01*
X119324380Y-39924904D02*
X118324380Y-39924904D01*
X119324380Y-39353476D01*
X118324380Y-39353476D01*
X119324380Y-33829666D02*
X119324380Y-34305857D01*
X118324380Y-34305857D01*
X118372000Y-28401095D02*
X118324380Y-28496333D01*
X118324380Y-28639190D01*
X118372000Y-28782047D01*
X118467238Y-28877285D01*
X118562476Y-28924904D01*
X118752952Y-28972523D01*
X118895809Y-28972523D01*
X119086285Y-28924904D01*
X119181523Y-28877285D01*
X119276761Y-28782047D01*
X119324380Y-28639190D01*
X119324380Y-28543952D01*
X119276761Y-28401095D01*
X119229142Y-28353476D01*
X118895809Y-28353476D01*
X118895809Y-28543952D01*
X189301380Y-40178952D02*
X188301380Y-40178952D01*
X189301380Y-39607523D01*
X188301380Y-39607523D01*
X189301380Y-34083714D02*
X189301380Y-34559904D01*
X188301380Y-34559904D01*
X188349000Y-29417047D02*
X188301380Y-29512285D01*
X188301380Y-29655142D01*
X188349000Y-29798000D01*
X188444238Y-29893238D01*
X188539476Y-29940857D01*
X188729952Y-29988476D01*
X188872809Y-29988476D01*
X189063285Y-29940857D01*
X189158523Y-29893238D01*
X189253761Y-29798000D01*
X189301380Y-29655142D01*
X189301380Y-29559904D01*
X189253761Y-29417047D01*
X189206142Y-29369428D01*
X188872809Y-29369428D01*
X188872809Y-29559904D01*
X159186190Y-26788619D02*
X159186190Y-27788619D01*
X158948095Y-27788619D01*
X158805238Y-27741000D01*
X158710000Y-27645761D01*
X158662380Y-27550523D01*
X158614761Y-27360047D01*
X158614761Y-27217190D01*
X158662380Y-27026714D01*
X158710000Y-26931476D01*
X158805238Y-26836238D01*
X158948095Y-26788619D01*
X159186190Y-26788619D01*
X158186190Y-26788619D02*
X158186190Y-27788619D01*
X157710000Y-26788619D02*
X157710000Y-27788619D01*
X157138571Y-26788619D01*
X157138571Y-27788619D01*
X155329047Y-26788619D02*
X155662380Y-27264809D01*
X155900476Y-26788619D02*
X155900476Y-27788619D01*
X155519523Y-27788619D01*
X155424285Y-27741000D01*
X155376666Y-27693380D01*
X155329047Y-27598142D01*
X155329047Y-27455285D01*
X155376666Y-27360047D01*
X155424285Y-27312428D01*
X155519523Y-27264809D01*
X155900476Y-27264809D01*
X154948095Y-27074333D02*
X154471904Y-27074333D01*
X155043333Y-26788619D02*
X154710000Y-27788619D01*
X154376666Y-26788619D01*
X154043333Y-26788619D02*
X154043333Y-27788619D01*
X153090952Y-26788619D02*
X153567142Y-26788619D01*
X153567142Y-27788619D01*
X167757619Y-25138619D02*
X167757619Y-26138619D01*
X167281428Y-25138619D02*
X167281428Y-26138619D01*
X166710000Y-25138619D01*
X166710000Y-26138619D01*
X165662380Y-25138619D02*
X165995714Y-25614809D01*
X166233809Y-25138619D02*
X166233809Y-26138619D01*
X165852857Y-26138619D01*
X165757619Y-26091000D01*
X165710000Y-26043380D01*
X165662380Y-25948142D01*
X165662380Y-25805285D01*
X165710000Y-25710047D01*
X165757619Y-25662428D01*
X165852857Y-25614809D01*
X166233809Y-25614809D01*
X165233809Y-26138619D02*
X165233809Y-25329095D01*
X165186190Y-25233857D01*
X165138571Y-25186238D01*
X165043333Y-25138619D01*
X164852857Y-25138619D01*
X164757619Y-25186238D01*
X164710000Y-25233857D01*
X164662380Y-25329095D01*
X164662380Y-26138619D01*
X164233809Y-25186238D02*
X164090952Y-25138619D01*
X163852857Y-25138619D01*
X163757619Y-25186238D01*
X163710000Y-25233857D01*
X163662380Y-25329095D01*
X163662380Y-25424333D01*
X163710000Y-25519571D01*
X163757619Y-25567190D01*
X163852857Y-25614809D01*
X164043333Y-25662428D01*
X164138571Y-25710047D01*
X164186190Y-25757666D01*
X164233809Y-25852904D01*
X164233809Y-25948142D01*
X164186190Y-26043380D01*
X164138571Y-26091000D01*
X164043333Y-26138619D01*
X163805238Y-26138619D01*
X163662380Y-26091000D01*
X163233809Y-25138619D02*
X163233809Y-26138619D01*
X163233809Y-25662428D02*
X162662380Y-25662428D01*
X162662380Y-25138619D02*
X162662380Y-26138619D01*
X160852857Y-25233857D02*
X160900476Y-25186238D01*
X161043333Y-25138619D01*
X161138571Y-25138619D01*
X161281428Y-25186238D01*
X161376666Y-25281476D01*
X161424285Y-25376714D01*
X161471904Y-25567190D01*
X161471904Y-25710047D01*
X161424285Y-25900523D01*
X161376666Y-25995761D01*
X161281428Y-26091000D01*
X161138571Y-26138619D01*
X161043333Y-26138619D01*
X160900476Y-26091000D01*
X160852857Y-26043380D01*
X160424285Y-26138619D02*
X160424285Y-25329095D01*
X160376666Y-25233857D01*
X160329047Y-25186238D01*
X160233809Y-25138619D01*
X160043333Y-25138619D01*
X159948095Y-25186238D01*
X159900476Y-25233857D01*
X159852857Y-25329095D01*
X159852857Y-26138619D01*
X158805238Y-25138619D02*
X159138571Y-25614809D01*
X159376666Y-25138619D02*
X159376666Y-26138619D01*
X158995714Y-26138619D01*
X158900476Y-26091000D01*
X158852857Y-26043380D01*
X158805238Y-25948142D01*
X158805238Y-25805285D01*
X158852857Y-25710047D01*
X158900476Y-25662428D01*
X158995714Y-25614809D01*
X159376666Y-25614809D01*
X157805238Y-25138619D02*
X158138571Y-25614809D01*
X158376666Y-25138619D02*
X158376666Y-26138619D01*
X157995714Y-26138619D01*
X157900476Y-26091000D01*
X157852857Y-26043380D01*
X157805238Y-25948142D01*
X157805238Y-25805285D01*
X157852857Y-25710047D01*
X157900476Y-25662428D01*
X157995714Y-25614809D01*
X158376666Y-25614809D01*
X157376666Y-25662428D02*
X157043333Y-25662428D01*
X156900476Y-25138619D02*
X157376666Y-25138619D01*
X157376666Y-26138619D01*
X156900476Y-26138619D01*
X156471904Y-25138619D02*
X156471904Y-26138619D01*
X155900476Y-25138619D01*
X155900476Y-26138619D01*
X155567142Y-26138619D02*
X154995714Y-26138619D01*
X155281428Y-25138619D02*
X155281428Y-26138619D01*
X153424285Y-25138619D02*
X153900476Y-25138619D01*
X153900476Y-26138619D01*
X153090952Y-25138619D02*
X153090952Y-26138619D01*
X152614761Y-25138619D02*
X152614761Y-26138619D01*
X152281428Y-25424333D01*
X151948095Y-26138619D01*
X151948095Y-25138619D01*
X151471904Y-25138619D02*
X151471904Y-26138619D01*
X151138571Y-26138619D02*
X150567142Y-26138619D01*
X150852857Y-25138619D02*
X150852857Y-26138619D01*
X150233809Y-25662428D02*
X149900476Y-25662428D01*
X149757619Y-25138619D02*
X150233809Y-25138619D01*
X150233809Y-26138619D01*
X149757619Y-26138619D01*
X148757619Y-25138619D02*
X149090952Y-25614809D01*
X149329047Y-25138619D02*
X149329047Y-26138619D01*
X148948095Y-26138619D01*
X148852857Y-26091000D01*
X148805238Y-26043380D01*
X148757619Y-25948142D01*
X148757619Y-25805285D01*
X148805238Y-25710047D01*
X148852857Y-25662428D01*
X148948095Y-25614809D01*
X149329047Y-25614809D01*
X147614761Y-25186238D02*
X147471904Y-25138619D01*
X147233809Y-25138619D01*
X147138571Y-25186238D01*
X147090952Y-25233857D01*
X147043333Y-25329095D01*
X147043333Y-25424333D01*
X147090952Y-25519571D01*
X147138571Y-25567190D01*
X147233809Y-25614809D01*
X147424285Y-25662428D01*
X147519523Y-25710047D01*
X147567142Y-25757666D01*
X147614761Y-25852904D01*
X147614761Y-25948142D01*
X147567142Y-26043380D01*
X147519523Y-26091000D01*
X147424285Y-26138619D01*
X147186190Y-26138619D01*
X147043333Y-26091000D01*
X146138571Y-25138619D02*
X146614761Y-25138619D01*
X146614761Y-26138619D01*
X145805238Y-25138619D02*
X145805238Y-26138619D01*
X145329047Y-25138619D02*
X145329047Y-26138619D01*
X144995714Y-25424333D01*
X144662380Y-26138619D01*
X144662380Y-25138619D01*
X187570761Y-25947619D02*
X187380285Y-25947619D01*
X187285047Y-25900000D01*
X187189809Y-25804761D01*
X187142190Y-25614285D01*
X187142190Y-25280952D01*
X187189809Y-25090476D01*
X187285047Y-24995238D01*
X187380285Y-24947619D01*
X187570761Y-24947619D01*
X187666000Y-24995238D01*
X187761238Y-25090476D01*
X187808857Y-25280952D01*
X187808857Y-25614285D01*
X187761238Y-25804761D01*
X187666000Y-25900000D01*
X187570761Y-25947619D01*
X186713619Y-25947619D02*
X186713619Y-25138095D01*
X186666000Y-25042857D01*
X186618380Y-24995238D01*
X186523142Y-24947619D01*
X186332666Y-24947619D01*
X186237428Y-24995238D01*
X186189809Y-25042857D01*
X186142190Y-25138095D01*
X186142190Y-25947619D01*
X185808857Y-25947619D02*
X185237428Y-25947619D01*
X185523142Y-24947619D02*
X185523142Y-25947619D01*
X184904095Y-24947619D02*
X184904095Y-25947619D01*
X184523142Y-25947619D01*
X184427904Y-25900000D01*
X184380285Y-25852380D01*
X184332666Y-25757142D01*
X184332666Y-25614285D01*
X184380285Y-25519047D01*
X184427904Y-25471428D01*
X184523142Y-25423809D01*
X184904095Y-25423809D01*
X183904095Y-25947619D02*
X183904095Y-25138095D01*
X183856476Y-25042857D01*
X183808857Y-24995238D01*
X183713619Y-24947619D01*
X183523142Y-24947619D01*
X183427904Y-24995238D01*
X183380285Y-25042857D01*
X183332666Y-25138095D01*
X183332666Y-25947619D01*
X182999333Y-25947619D02*
X182427904Y-25947619D01*
X182713619Y-24947619D02*
X182713619Y-25947619D01*
X124102571Y-24820619D02*
X124102571Y-25820619D01*
X123626380Y-24820619D02*
X123626380Y-25820619D01*
X123054952Y-24820619D01*
X123054952Y-25820619D01*
X122578761Y-24820619D02*
X122578761Y-25820619D01*
X122197809Y-25820619D01*
X122102571Y-25773000D01*
X122054952Y-25725380D01*
X122007333Y-25630142D01*
X122007333Y-25487285D01*
X122054952Y-25392047D01*
X122102571Y-25344428D01*
X122197809Y-25296809D01*
X122578761Y-25296809D01*
X121578761Y-25820619D02*
X121578761Y-25011095D01*
X121531142Y-24915857D01*
X121483523Y-24868238D01*
X121388285Y-24820619D01*
X121197809Y-24820619D01*
X121102571Y-24868238D01*
X121054952Y-24915857D01*
X121007333Y-25011095D01*
X121007333Y-25820619D01*
X120674000Y-25820619D02*
X120102571Y-25820619D01*
X120388285Y-24820619D02*
X120388285Y-25820619D01*
D11*
G36*
X134572186Y-90217069D02*
G01*
X134488365Y-89772445D01*
X134179080Y-89644947D01*
X133869794Y-89517449D01*
X133498754Y-89769754D01*
X133394843Y-89840004D01*
X133300913Y-89902728D01*
X133221348Y-89955062D01*
X133160530Y-89994143D01*
X133122843Y-90017107D01*
X133112579Y-90022058D01*
X133094090Y-90009324D01*
X133054580Y-89974118D01*
X132998478Y-89920938D01*
X132930213Y-89854282D01*
X132854214Y-89778646D01*
X132774908Y-89698528D01*
X132696725Y-89618426D01*
X132624093Y-89542836D01*
X132561441Y-89476255D01*
X132513197Y-89423182D01*
X132483790Y-89388113D01*
X132476759Y-89376377D01*
X132486877Y-89354740D01*
X132515241Y-89307338D01*
X132558871Y-89238807D01*
X132614782Y-89153785D01*
X132679994Y-89056907D01*
X132717781Y-89001650D01*
X132786657Y-88900752D01*
X132847860Y-88809701D01*
X132898422Y-88733030D01*
X132935372Y-88675272D01*
X132955742Y-88640957D01*
X132958803Y-88633746D01*
X132951864Y-88613252D01*
X132932949Y-88565487D01*
X132904913Y-88497168D01*
X132870609Y-88415011D01*
X132832891Y-88325730D01*
X132794613Y-88236042D01*
X132758630Y-88152662D01*
X132727794Y-88082306D01*
X132704961Y-88031690D01*
X132692983Y-88007529D01*
X132692276Y-88006578D01*
X132673469Y-88001964D01*
X132623382Y-87991672D01*
X132547207Y-87976713D01*
X132450135Y-87958099D01*
X132337357Y-87936841D01*
X132271558Y-87924582D01*
X132151050Y-87901638D01*
X132042203Y-87879805D01*
X131950524Y-87860278D01*
X131881519Y-87844252D01*
X131840696Y-87832921D01*
X131832489Y-87829326D01*
X131824452Y-87804994D01*
X131817967Y-87750041D01*
X131813030Y-87670892D01*
X131809636Y-87573974D01*
X131807782Y-87465713D01*
X131807462Y-87352535D01*
X131808673Y-87240865D01*
X131811410Y-87137132D01*
X131815669Y-87047759D01*
X131821445Y-86979174D01*
X131828733Y-86937803D01*
X131833105Y-86929190D01*
X131859236Y-86918867D01*
X131914607Y-86904108D01*
X131991893Y-86886648D01*
X132083770Y-86868220D01*
X132115842Y-86862259D01*
X132270476Y-86833934D01*
X132392625Y-86811124D01*
X132486327Y-86792920D01*
X132555616Y-86778417D01*
X132604529Y-86766708D01*
X132637103Y-86756885D01*
X132657372Y-86748044D01*
X132669374Y-86739276D01*
X132671053Y-86737543D01*
X132687816Y-86709629D01*
X132713386Y-86655305D01*
X132745212Y-86581223D01*
X132780740Y-86494035D01*
X132817417Y-86400392D01*
X132852689Y-86306948D01*
X132884004Y-86220353D01*
X132908807Y-86147260D01*
X132924546Y-86094322D01*
X132928668Y-86068189D01*
X132928324Y-86067274D01*
X132914359Y-86045914D01*
X132882678Y-85998916D01*
X132836609Y-85931173D01*
X132779482Y-85847577D01*
X132714627Y-85753018D01*
X132696157Y-85726146D01*
X132630301Y-85628725D01*
X132572350Y-85539837D01*
X132525462Y-85464588D01*
X132492793Y-85408080D01*
X132477500Y-85375419D01*
X132476759Y-85371407D01*
X132489608Y-85350316D01*
X132525112Y-85308536D01*
X132578707Y-85250555D01*
X132645829Y-85180865D01*
X132721913Y-85103955D01*
X132802396Y-85024317D01*
X132882713Y-84946439D01*
X132958301Y-84874814D01*
X133024595Y-84813930D01*
X133077031Y-84768279D01*
X133111045Y-84742350D01*
X133120455Y-84738117D01*
X133142357Y-84748088D01*
X133187200Y-84774980D01*
X133247679Y-84814264D01*
X133294211Y-84845883D01*
X133378525Y-84903902D01*
X133478374Y-84972216D01*
X133578527Y-85040421D01*
X133632373Y-85076925D01*
X133814629Y-85200200D01*
X133967619Y-85117480D01*
X134037318Y-85081241D01*
X134096586Y-85053074D01*
X134136689Y-85037009D01*
X134146897Y-85034774D01*
X134159171Y-85051278D01*
X134183387Y-85097918D01*
X134217737Y-85170391D01*
X134260412Y-85264394D01*
X134309606Y-85375626D01*
X134363510Y-85499785D01*
X134420316Y-85632568D01*
X134478218Y-85769673D01*
X134535407Y-85906798D01*
X134590076Y-86039642D01*
X134640416Y-86163902D01*
X134684620Y-86275275D01*
X134720881Y-86369461D01*
X134747391Y-86442156D01*
X134762342Y-86489059D01*
X134764746Y-86505167D01*
X134745689Y-86525714D01*
X134703964Y-86559067D01*
X134648294Y-86598298D01*
X134643622Y-86601401D01*
X134499736Y-86716577D01*
X134383717Y-86850947D01*
X134296570Y-87000216D01*
X134239301Y-87160087D01*
X134212914Y-87326263D01*
X134218415Y-87494448D01*
X134256810Y-87660345D01*
X134329105Y-87819658D01*
X134350374Y-87854513D01*
X134461004Y-87995263D01*
X134591698Y-88108286D01*
X134737936Y-88192997D01*
X134895192Y-88248806D01*
X135058943Y-88275126D01*
X135224667Y-88271370D01*
X135387838Y-88236950D01*
X135543935Y-88171277D01*
X135688433Y-88073765D01*
X135733131Y-88034187D01*
X135846888Y-87910297D01*
X135929782Y-87779876D01*
X135986644Y-87633685D01*
X136018313Y-87488912D01*
X136026131Y-87326140D01*
X136000062Y-87162560D01*
X135942755Y-87003702D01*
X135856856Y-86855094D01*
X135745014Y-86722265D01*
X135609877Y-86610744D01*
X135592117Y-86598989D01*
X135535850Y-86560492D01*
X135493077Y-86527137D01*
X135472628Y-86505840D01*
X135472331Y-86505167D01*
X135476721Y-86482129D01*
X135494124Y-86429843D01*
X135522732Y-86352610D01*
X135560735Y-86254732D01*
X135606326Y-86140509D01*
X135657697Y-86014242D01*
X135713038Y-85880233D01*
X135770542Y-85742782D01*
X135828399Y-85606192D01*
X135884802Y-85474763D01*
X135937942Y-85352795D01*
X135986010Y-85244591D01*
X136027199Y-85154451D01*
X136059699Y-85086677D01*
X136081703Y-85045570D01*
X136090564Y-85034774D01*
X136117640Y-85043181D01*
X136168303Y-85065728D01*
X136233817Y-85098387D01*
X136269841Y-85117480D01*
X136422832Y-85200200D01*
X136605088Y-85076925D01*
X136698125Y-85013772D01*
X136799985Y-84944273D01*
X136895438Y-84878835D01*
X136943250Y-84845883D01*
X137010495Y-84800727D01*
X137067436Y-84764943D01*
X137106646Y-84743062D01*
X137119381Y-84738437D01*
X137137917Y-84750915D01*
X137178941Y-84785748D01*
X137238475Y-84839322D01*
X137312542Y-84908017D01*
X137397165Y-84988219D01*
X137450685Y-85039714D01*
X137544319Y-85131714D01*
X137625241Y-85214001D01*
X137690177Y-85283055D01*
X137735858Y-85335356D01*
X137759011Y-85367384D01*
X137761232Y-85373884D01*
X137750924Y-85398606D01*
X137722439Y-85448595D01*
X137678937Y-85518788D01*
X137623577Y-85604125D01*
X137559520Y-85699544D01*
X137541303Y-85726146D01*
X137474927Y-85822833D01*
X137415378Y-85909883D01*
X137365984Y-85982405D01*
X137330075Y-86035507D01*
X137310981Y-86064297D01*
X137309136Y-86067274D01*
X137311895Y-86090218D01*
X137326538Y-86140664D01*
X137350513Y-86211959D01*
X137381266Y-86297453D01*
X137416244Y-86390493D01*
X137452893Y-86484426D01*
X137488661Y-86572601D01*
X137520994Y-86648366D01*
X137547338Y-86705069D01*
X137565142Y-86736057D01*
X137566407Y-86737543D01*
X137577294Y-86746399D01*
X137595682Y-86755157D01*
X137625606Y-86764723D01*
X137671103Y-86776004D01*
X137736209Y-86789907D01*
X137824961Y-86807337D01*
X137941393Y-86829202D01*
X138089542Y-86856409D01*
X138121618Y-86862259D01*
X138216686Y-86880626D01*
X138299565Y-86898595D01*
X138362930Y-86914431D01*
X138399458Y-86926400D01*
X138404356Y-86929190D01*
X138412427Y-86953928D01*
X138418987Y-87009210D01*
X138424033Y-87088611D01*
X138427559Y-87185704D01*
X138429561Y-87294062D01*
X138430036Y-87407260D01*
X138428977Y-87518872D01*
X138426382Y-87622471D01*
X138422246Y-87711632D01*
X138416563Y-87779928D01*
X138409331Y-87820934D01*
X138404971Y-87829326D01*
X138380698Y-87837792D01*
X138325426Y-87851565D01*
X138244662Y-87869450D01*
X138143912Y-87890252D01*
X138028683Y-87912777D01*
X137965902Y-87924582D01*
X137846787Y-87946849D01*
X137740565Y-87967021D01*
X137652427Y-87984085D01*
X137587566Y-87997031D01*
X137551174Y-88004845D01*
X137545184Y-88006578D01*
X137535061Y-88026110D01*
X137513662Y-88073157D01*
X137483839Y-88140997D01*
X137448445Y-88222909D01*
X137410332Y-88312172D01*
X137372353Y-88402065D01*
X137337360Y-88485865D01*
X137308206Y-88556853D01*
X137287743Y-88608306D01*
X137278823Y-88633503D01*
X137278657Y-88634604D01*
X137288769Y-88654481D01*
X137317117Y-88700223D01*
X137360723Y-88767283D01*
X137416606Y-88851116D01*
X137481787Y-88947174D01*
X137519679Y-89002350D01*
X137588725Y-89103519D01*
X137650050Y-89195370D01*
X137700663Y-89273256D01*
X137737571Y-89332531D01*
X137757782Y-89368549D01*
X137760701Y-89376623D01*
X137748153Y-89395416D01*
X137713463Y-89435543D01*
X137661063Y-89492507D01*
X137595384Y-89561815D01*
X137520856Y-89638969D01*
X137441913Y-89719475D01*
X137362983Y-89798837D01*
X137288500Y-89872560D01*
X137222894Y-89936148D01*
X137170596Y-89985106D01*
X137136039Y-90014939D01*
X137124478Y-90022058D01*
X137105654Y-90012047D01*
X137060631Y-89983922D01*
X136993787Y-89940546D01*
X136909499Y-89884782D01*
X136812144Y-89819494D01*
X136738707Y-89769754D01*
X136367667Y-89517449D01*
X135749095Y-89772445D01*
X135665275Y-90217069D01*
X135581454Y-90661693D01*
X134656006Y-90661693D01*
X134572186Y-90217069D01*
G37*
X134572186Y-90217069D02*
X134488365Y-89772445D01*
X134179080Y-89644947D01*
X133869794Y-89517449D01*
X133498754Y-89769754D01*
X133394843Y-89840004D01*
X133300913Y-89902728D01*
X133221348Y-89955062D01*
X133160530Y-89994143D01*
X133122843Y-90017107D01*
X133112579Y-90022058D01*
X133094090Y-90009324D01*
X133054580Y-89974118D01*
X132998478Y-89920938D01*
X132930213Y-89854282D01*
X132854214Y-89778646D01*
X132774908Y-89698528D01*
X132696725Y-89618426D01*
X132624093Y-89542836D01*
X132561441Y-89476255D01*
X132513197Y-89423182D01*
X132483790Y-89388113D01*
X132476759Y-89376377D01*
X132486877Y-89354740D01*
X132515241Y-89307338D01*
X132558871Y-89238807D01*
X132614782Y-89153785D01*
X132679994Y-89056907D01*
X132717781Y-89001650D01*
X132786657Y-88900752D01*
X132847860Y-88809701D01*
X132898422Y-88733030D01*
X132935372Y-88675272D01*
X132955742Y-88640957D01*
X132958803Y-88633746D01*
X132951864Y-88613252D01*
X132932949Y-88565487D01*
X132904913Y-88497168D01*
X132870609Y-88415011D01*
X132832891Y-88325730D01*
X132794613Y-88236042D01*
X132758630Y-88152662D01*
X132727794Y-88082306D01*
X132704961Y-88031690D01*
X132692983Y-88007529D01*
X132692276Y-88006578D01*
X132673469Y-88001964D01*
X132623382Y-87991672D01*
X132547207Y-87976713D01*
X132450135Y-87958099D01*
X132337357Y-87936841D01*
X132271558Y-87924582D01*
X132151050Y-87901638D01*
X132042203Y-87879805D01*
X131950524Y-87860278D01*
X131881519Y-87844252D01*
X131840696Y-87832921D01*
X131832489Y-87829326D01*
X131824452Y-87804994D01*
X131817967Y-87750041D01*
X131813030Y-87670892D01*
X131809636Y-87573974D01*
X131807782Y-87465713D01*
X131807462Y-87352535D01*
X131808673Y-87240865D01*
X131811410Y-87137132D01*
X131815669Y-87047759D01*
X131821445Y-86979174D01*
X131828733Y-86937803D01*
X131833105Y-86929190D01*
X131859236Y-86918867D01*
X131914607Y-86904108D01*
X131991893Y-86886648D01*
X132083770Y-86868220D01*
X132115842Y-86862259D01*
X132270476Y-86833934D01*
X132392625Y-86811124D01*
X132486327Y-86792920D01*
X132555616Y-86778417D01*
X132604529Y-86766708D01*
X132637103Y-86756885D01*
X132657372Y-86748044D01*
X132669374Y-86739276D01*
X132671053Y-86737543D01*
X132687816Y-86709629D01*
X132713386Y-86655305D01*
X132745212Y-86581223D01*
X132780740Y-86494035D01*
X132817417Y-86400392D01*
X132852689Y-86306948D01*
X132884004Y-86220353D01*
X132908807Y-86147260D01*
X132924546Y-86094322D01*
X132928668Y-86068189D01*
X132928324Y-86067274D01*
X132914359Y-86045914D01*
X132882678Y-85998916D01*
X132836609Y-85931173D01*
X132779482Y-85847577D01*
X132714627Y-85753018D01*
X132696157Y-85726146D01*
X132630301Y-85628725D01*
X132572350Y-85539837D01*
X132525462Y-85464588D01*
X132492793Y-85408080D01*
X132477500Y-85375419D01*
X132476759Y-85371407D01*
X132489608Y-85350316D01*
X132525112Y-85308536D01*
X132578707Y-85250555D01*
X132645829Y-85180865D01*
X132721913Y-85103955D01*
X132802396Y-85024317D01*
X132882713Y-84946439D01*
X132958301Y-84874814D01*
X133024595Y-84813930D01*
X133077031Y-84768279D01*
X133111045Y-84742350D01*
X133120455Y-84738117D01*
X133142357Y-84748088D01*
X133187200Y-84774980D01*
X133247679Y-84814264D01*
X133294211Y-84845883D01*
X133378525Y-84903902D01*
X133478374Y-84972216D01*
X133578527Y-85040421D01*
X133632373Y-85076925D01*
X133814629Y-85200200D01*
X133967619Y-85117480D01*
X134037318Y-85081241D01*
X134096586Y-85053074D01*
X134136689Y-85037009D01*
X134146897Y-85034774D01*
X134159171Y-85051278D01*
X134183387Y-85097918D01*
X134217737Y-85170391D01*
X134260412Y-85264394D01*
X134309606Y-85375626D01*
X134363510Y-85499785D01*
X134420316Y-85632568D01*
X134478218Y-85769673D01*
X134535407Y-85906798D01*
X134590076Y-86039642D01*
X134640416Y-86163902D01*
X134684620Y-86275275D01*
X134720881Y-86369461D01*
X134747391Y-86442156D01*
X134762342Y-86489059D01*
X134764746Y-86505167D01*
X134745689Y-86525714D01*
X134703964Y-86559067D01*
X134648294Y-86598298D01*
X134643622Y-86601401D01*
X134499736Y-86716577D01*
X134383717Y-86850947D01*
X134296570Y-87000216D01*
X134239301Y-87160087D01*
X134212914Y-87326263D01*
X134218415Y-87494448D01*
X134256810Y-87660345D01*
X134329105Y-87819658D01*
X134350374Y-87854513D01*
X134461004Y-87995263D01*
X134591698Y-88108286D01*
X134737936Y-88192997D01*
X134895192Y-88248806D01*
X135058943Y-88275126D01*
X135224667Y-88271370D01*
X135387838Y-88236950D01*
X135543935Y-88171277D01*
X135688433Y-88073765D01*
X135733131Y-88034187D01*
X135846888Y-87910297D01*
X135929782Y-87779876D01*
X135986644Y-87633685D01*
X136018313Y-87488912D01*
X136026131Y-87326140D01*
X136000062Y-87162560D01*
X135942755Y-87003702D01*
X135856856Y-86855094D01*
X135745014Y-86722265D01*
X135609877Y-86610744D01*
X135592117Y-86598989D01*
X135535850Y-86560492D01*
X135493077Y-86527137D01*
X135472628Y-86505840D01*
X135472331Y-86505167D01*
X135476721Y-86482129D01*
X135494124Y-86429843D01*
X135522732Y-86352610D01*
X135560735Y-86254732D01*
X135606326Y-86140509D01*
X135657697Y-86014242D01*
X135713038Y-85880233D01*
X135770542Y-85742782D01*
X135828399Y-85606192D01*
X135884802Y-85474763D01*
X135937942Y-85352795D01*
X135986010Y-85244591D01*
X136027199Y-85154451D01*
X136059699Y-85086677D01*
X136081703Y-85045570D01*
X136090564Y-85034774D01*
X136117640Y-85043181D01*
X136168303Y-85065728D01*
X136233817Y-85098387D01*
X136269841Y-85117480D01*
X136422832Y-85200200D01*
X136605088Y-85076925D01*
X136698125Y-85013772D01*
X136799985Y-84944273D01*
X136895438Y-84878835D01*
X136943250Y-84845883D01*
X137010495Y-84800727D01*
X137067436Y-84764943D01*
X137106646Y-84743062D01*
X137119381Y-84738437D01*
X137137917Y-84750915D01*
X137178941Y-84785748D01*
X137238475Y-84839322D01*
X137312542Y-84908017D01*
X137397165Y-84988219D01*
X137450685Y-85039714D01*
X137544319Y-85131714D01*
X137625241Y-85214001D01*
X137690177Y-85283055D01*
X137735858Y-85335356D01*
X137759011Y-85367384D01*
X137761232Y-85373884D01*
X137750924Y-85398606D01*
X137722439Y-85448595D01*
X137678937Y-85518788D01*
X137623577Y-85604125D01*
X137559520Y-85699544D01*
X137541303Y-85726146D01*
X137474927Y-85822833D01*
X137415378Y-85909883D01*
X137365984Y-85982405D01*
X137330075Y-86035507D01*
X137310981Y-86064297D01*
X137309136Y-86067274D01*
X137311895Y-86090218D01*
X137326538Y-86140664D01*
X137350513Y-86211959D01*
X137381266Y-86297453D01*
X137416244Y-86390493D01*
X137452893Y-86484426D01*
X137488661Y-86572601D01*
X137520994Y-86648366D01*
X137547338Y-86705069D01*
X137565142Y-86736057D01*
X137566407Y-86737543D01*
X137577294Y-86746399D01*
X137595682Y-86755157D01*
X137625606Y-86764723D01*
X137671103Y-86776004D01*
X137736209Y-86789907D01*
X137824961Y-86807337D01*
X137941393Y-86829202D01*
X138089542Y-86856409D01*
X138121618Y-86862259D01*
X138216686Y-86880626D01*
X138299565Y-86898595D01*
X138362930Y-86914431D01*
X138399458Y-86926400D01*
X138404356Y-86929190D01*
X138412427Y-86953928D01*
X138418987Y-87009210D01*
X138424033Y-87088611D01*
X138427559Y-87185704D01*
X138429561Y-87294062D01*
X138430036Y-87407260D01*
X138428977Y-87518872D01*
X138426382Y-87622471D01*
X138422246Y-87711632D01*
X138416563Y-87779928D01*
X138409331Y-87820934D01*
X138404971Y-87829326D01*
X138380698Y-87837792D01*
X138325426Y-87851565D01*
X138244662Y-87869450D01*
X138143912Y-87890252D01*
X138028683Y-87912777D01*
X137965902Y-87924582D01*
X137846787Y-87946849D01*
X137740565Y-87967021D01*
X137652427Y-87984085D01*
X137587566Y-87997031D01*
X137551174Y-88004845D01*
X137545184Y-88006578D01*
X137535061Y-88026110D01*
X137513662Y-88073157D01*
X137483839Y-88140997D01*
X137448445Y-88222909D01*
X137410332Y-88312172D01*
X137372353Y-88402065D01*
X137337360Y-88485865D01*
X137308206Y-88556853D01*
X137287743Y-88608306D01*
X137278823Y-88633503D01*
X137278657Y-88634604D01*
X137288769Y-88654481D01*
X137317117Y-88700223D01*
X137360723Y-88767283D01*
X137416606Y-88851116D01*
X137481787Y-88947174D01*
X137519679Y-89002350D01*
X137588725Y-89103519D01*
X137650050Y-89195370D01*
X137700663Y-89273256D01*
X137737571Y-89332531D01*
X137757782Y-89368549D01*
X137760701Y-89376623D01*
X137748153Y-89395416D01*
X137713463Y-89435543D01*
X137661063Y-89492507D01*
X137595384Y-89561815D01*
X137520856Y-89638969D01*
X137441913Y-89719475D01*
X137362983Y-89798837D01*
X137288500Y-89872560D01*
X137222894Y-89936148D01*
X137170596Y-89985106D01*
X137136039Y-90014939D01*
X137124478Y-90022058D01*
X137105654Y-90012047D01*
X137060631Y-89983922D01*
X136993787Y-89940546D01*
X136909499Y-89884782D01*
X136812144Y-89819494D01*
X136738707Y-89769754D01*
X136367667Y-89517449D01*
X135749095Y-89772445D01*
X135665275Y-90217069D01*
X135581454Y-90661693D01*
X134656006Y-90661693D01*
X134572186Y-90217069D01*
G36*
X134572186Y-70217069D02*
G01*
X134488365Y-69772445D01*
X134179080Y-69644947D01*
X133869794Y-69517449D01*
X133498754Y-69769754D01*
X133394843Y-69840004D01*
X133300913Y-69902728D01*
X133221348Y-69955062D01*
X133160530Y-69994143D01*
X133122843Y-70017107D01*
X133112579Y-70022058D01*
X133094090Y-70009324D01*
X133054580Y-69974118D01*
X132998478Y-69920938D01*
X132930213Y-69854282D01*
X132854214Y-69778646D01*
X132774908Y-69698528D01*
X132696725Y-69618426D01*
X132624093Y-69542836D01*
X132561441Y-69476255D01*
X132513197Y-69423182D01*
X132483790Y-69388113D01*
X132476759Y-69376377D01*
X132486877Y-69354740D01*
X132515241Y-69307338D01*
X132558871Y-69238807D01*
X132614782Y-69153785D01*
X132679994Y-69056907D01*
X132717781Y-69001650D01*
X132786657Y-68900752D01*
X132847860Y-68809701D01*
X132898422Y-68733030D01*
X132935372Y-68675272D01*
X132955742Y-68640957D01*
X132958803Y-68633746D01*
X132951864Y-68613252D01*
X132932949Y-68565487D01*
X132904913Y-68497168D01*
X132870609Y-68415011D01*
X132832891Y-68325730D01*
X132794613Y-68236042D01*
X132758630Y-68152662D01*
X132727794Y-68082306D01*
X132704961Y-68031690D01*
X132692983Y-68007529D01*
X132692276Y-68006578D01*
X132673469Y-68001964D01*
X132623382Y-67991672D01*
X132547207Y-67976713D01*
X132450135Y-67958099D01*
X132337357Y-67936841D01*
X132271558Y-67924582D01*
X132151050Y-67901638D01*
X132042203Y-67879805D01*
X131950524Y-67860278D01*
X131881519Y-67844252D01*
X131840696Y-67832921D01*
X131832489Y-67829326D01*
X131824452Y-67804994D01*
X131817967Y-67750041D01*
X131813030Y-67670892D01*
X131809636Y-67573974D01*
X131807782Y-67465713D01*
X131807462Y-67352535D01*
X131808673Y-67240865D01*
X131811410Y-67137132D01*
X131815669Y-67047759D01*
X131821445Y-66979174D01*
X131828733Y-66937803D01*
X131833105Y-66929190D01*
X131859236Y-66918867D01*
X131914607Y-66904108D01*
X131991893Y-66886648D01*
X132083770Y-66868220D01*
X132115842Y-66862259D01*
X132270476Y-66833934D01*
X132392625Y-66811124D01*
X132486327Y-66792920D01*
X132555616Y-66778417D01*
X132604529Y-66766708D01*
X132637103Y-66756885D01*
X132657372Y-66748044D01*
X132669374Y-66739276D01*
X132671053Y-66737543D01*
X132687816Y-66709629D01*
X132713386Y-66655305D01*
X132745212Y-66581223D01*
X132780740Y-66494035D01*
X132817417Y-66400392D01*
X132852689Y-66306948D01*
X132884004Y-66220353D01*
X132908807Y-66147260D01*
X132924546Y-66094322D01*
X132928668Y-66068189D01*
X132928324Y-66067274D01*
X132914359Y-66045914D01*
X132882678Y-65998916D01*
X132836609Y-65931173D01*
X132779482Y-65847577D01*
X132714627Y-65753018D01*
X132696157Y-65726146D01*
X132630301Y-65628725D01*
X132572350Y-65539837D01*
X132525462Y-65464588D01*
X132492793Y-65408080D01*
X132477500Y-65375419D01*
X132476759Y-65371407D01*
X132489608Y-65350316D01*
X132525112Y-65308536D01*
X132578707Y-65250555D01*
X132645829Y-65180865D01*
X132721913Y-65103955D01*
X132802396Y-65024317D01*
X132882713Y-64946439D01*
X132958301Y-64874814D01*
X133024595Y-64813930D01*
X133077031Y-64768279D01*
X133111045Y-64742350D01*
X133120455Y-64738117D01*
X133142357Y-64748088D01*
X133187200Y-64774980D01*
X133247679Y-64814264D01*
X133294211Y-64845883D01*
X133378525Y-64903902D01*
X133478374Y-64972216D01*
X133578527Y-65040421D01*
X133632373Y-65076925D01*
X133814629Y-65200200D01*
X133967619Y-65117480D01*
X134037318Y-65081241D01*
X134096586Y-65053074D01*
X134136689Y-65037009D01*
X134146897Y-65034774D01*
X134159171Y-65051278D01*
X134183387Y-65097918D01*
X134217737Y-65170391D01*
X134260412Y-65264394D01*
X134309606Y-65375626D01*
X134363510Y-65499785D01*
X134420316Y-65632568D01*
X134478218Y-65769673D01*
X134535407Y-65906798D01*
X134590076Y-66039642D01*
X134640416Y-66163902D01*
X134684620Y-66275275D01*
X134720881Y-66369461D01*
X134747391Y-66442156D01*
X134762342Y-66489059D01*
X134764746Y-66505167D01*
X134745689Y-66525714D01*
X134703964Y-66559067D01*
X134648294Y-66598298D01*
X134643622Y-66601401D01*
X134499736Y-66716577D01*
X134383717Y-66850947D01*
X134296570Y-67000216D01*
X134239301Y-67160087D01*
X134212914Y-67326263D01*
X134218415Y-67494448D01*
X134256810Y-67660345D01*
X134329105Y-67819658D01*
X134350374Y-67854513D01*
X134461004Y-67995263D01*
X134591698Y-68108286D01*
X134737936Y-68192997D01*
X134895192Y-68248806D01*
X135058943Y-68275126D01*
X135224667Y-68271370D01*
X135387838Y-68236950D01*
X135543935Y-68171277D01*
X135688433Y-68073765D01*
X135733131Y-68034187D01*
X135846888Y-67910297D01*
X135929782Y-67779876D01*
X135986644Y-67633685D01*
X136018313Y-67488912D01*
X136026131Y-67326140D01*
X136000062Y-67162560D01*
X135942755Y-67003702D01*
X135856856Y-66855094D01*
X135745014Y-66722265D01*
X135609877Y-66610744D01*
X135592117Y-66598989D01*
X135535850Y-66560492D01*
X135493077Y-66527137D01*
X135472628Y-66505840D01*
X135472331Y-66505167D01*
X135476721Y-66482129D01*
X135494124Y-66429843D01*
X135522732Y-66352610D01*
X135560735Y-66254732D01*
X135606326Y-66140509D01*
X135657697Y-66014242D01*
X135713038Y-65880233D01*
X135770542Y-65742782D01*
X135828399Y-65606192D01*
X135884802Y-65474763D01*
X135937942Y-65352795D01*
X135986010Y-65244591D01*
X136027199Y-65154451D01*
X136059699Y-65086677D01*
X136081703Y-65045570D01*
X136090564Y-65034774D01*
X136117640Y-65043181D01*
X136168303Y-65065728D01*
X136233817Y-65098387D01*
X136269841Y-65117480D01*
X136422832Y-65200200D01*
X136605088Y-65076925D01*
X136698125Y-65013772D01*
X136799985Y-64944273D01*
X136895438Y-64878835D01*
X136943250Y-64845883D01*
X137010495Y-64800727D01*
X137067436Y-64764943D01*
X137106646Y-64743062D01*
X137119381Y-64738437D01*
X137137917Y-64750915D01*
X137178941Y-64785748D01*
X137238475Y-64839322D01*
X137312542Y-64908017D01*
X137397165Y-64988219D01*
X137450685Y-65039714D01*
X137544319Y-65131714D01*
X137625241Y-65214001D01*
X137690177Y-65283055D01*
X137735858Y-65335356D01*
X137759011Y-65367384D01*
X137761232Y-65373884D01*
X137750924Y-65398606D01*
X137722439Y-65448595D01*
X137678937Y-65518788D01*
X137623577Y-65604125D01*
X137559520Y-65699544D01*
X137541303Y-65726146D01*
X137474927Y-65822833D01*
X137415378Y-65909883D01*
X137365984Y-65982405D01*
X137330075Y-66035507D01*
X137310981Y-66064297D01*
X137309136Y-66067274D01*
X137311895Y-66090218D01*
X137326538Y-66140664D01*
X137350513Y-66211959D01*
X137381266Y-66297453D01*
X137416244Y-66390493D01*
X137452893Y-66484426D01*
X137488661Y-66572601D01*
X137520994Y-66648366D01*
X137547338Y-66705069D01*
X137565142Y-66736057D01*
X137566407Y-66737543D01*
X137577294Y-66746399D01*
X137595682Y-66755157D01*
X137625606Y-66764723D01*
X137671103Y-66776004D01*
X137736209Y-66789907D01*
X137824961Y-66807337D01*
X137941393Y-66829202D01*
X138089542Y-66856409D01*
X138121618Y-66862259D01*
X138216686Y-66880626D01*
X138299565Y-66898595D01*
X138362930Y-66914431D01*
X138399458Y-66926400D01*
X138404356Y-66929190D01*
X138412427Y-66953928D01*
X138418987Y-67009210D01*
X138424033Y-67088611D01*
X138427559Y-67185704D01*
X138429561Y-67294062D01*
X138430036Y-67407260D01*
X138428977Y-67518872D01*
X138426382Y-67622471D01*
X138422246Y-67711632D01*
X138416563Y-67779928D01*
X138409331Y-67820934D01*
X138404971Y-67829326D01*
X138380698Y-67837792D01*
X138325426Y-67851565D01*
X138244662Y-67869450D01*
X138143912Y-67890252D01*
X138028683Y-67912777D01*
X137965902Y-67924582D01*
X137846787Y-67946849D01*
X137740565Y-67967021D01*
X137652427Y-67984085D01*
X137587566Y-67997031D01*
X137551174Y-68004845D01*
X137545184Y-68006578D01*
X137535061Y-68026110D01*
X137513662Y-68073157D01*
X137483839Y-68140997D01*
X137448445Y-68222909D01*
X137410332Y-68312172D01*
X137372353Y-68402065D01*
X137337360Y-68485865D01*
X137308206Y-68556853D01*
X137287743Y-68608306D01*
X137278823Y-68633503D01*
X137278657Y-68634604D01*
X137288769Y-68654481D01*
X137317117Y-68700223D01*
X137360723Y-68767283D01*
X137416606Y-68851116D01*
X137481787Y-68947174D01*
X137519679Y-69002350D01*
X137588725Y-69103519D01*
X137650050Y-69195370D01*
X137700663Y-69273256D01*
X137737571Y-69332531D01*
X137757782Y-69368549D01*
X137760701Y-69376623D01*
X137748153Y-69395416D01*
X137713463Y-69435543D01*
X137661063Y-69492507D01*
X137595384Y-69561815D01*
X137520856Y-69638969D01*
X137441913Y-69719475D01*
X137362983Y-69798837D01*
X137288500Y-69872560D01*
X137222894Y-69936148D01*
X137170596Y-69985106D01*
X137136039Y-70014939D01*
X137124478Y-70022058D01*
X137105654Y-70012047D01*
X137060631Y-69983922D01*
X136993787Y-69940546D01*
X136909499Y-69884782D01*
X136812144Y-69819494D01*
X136738707Y-69769754D01*
X136367667Y-69517449D01*
X135749095Y-69772445D01*
X135665275Y-70217069D01*
X135581454Y-70661693D01*
X134656006Y-70661693D01*
X134572186Y-70217069D01*
G37*
X134572186Y-70217069D02*
X134488365Y-69772445D01*
X134179080Y-69644947D01*
X133869794Y-69517449D01*
X133498754Y-69769754D01*
X133394843Y-69840004D01*
X133300913Y-69902728D01*
X133221348Y-69955062D01*
X133160530Y-69994143D01*
X133122843Y-70017107D01*
X133112579Y-70022058D01*
X133094090Y-70009324D01*
X133054580Y-69974118D01*
X132998478Y-69920938D01*
X132930213Y-69854282D01*
X132854214Y-69778646D01*
X132774908Y-69698528D01*
X132696725Y-69618426D01*
X132624093Y-69542836D01*
X132561441Y-69476255D01*
X132513197Y-69423182D01*
X132483790Y-69388113D01*
X132476759Y-69376377D01*
X132486877Y-69354740D01*
X132515241Y-69307338D01*
X132558871Y-69238807D01*
X132614782Y-69153785D01*
X132679994Y-69056907D01*
X132717781Y-69001650D01*
X132786657Y-68900752D01*
X132847860Y-68809701D01*
X132898422Y-68733030D01*
X132935372Y-68675272D01*
X132955742Y-68640957D01*
X132958803Y-68633746D01*
X132951864Y-68613252D01*
X132932949Y-68565487D01*
X132904913Y-68497168D01*
X132870609Y-68415011D01*
X132832891Y-68325730D01*
X132794613Y-68236042D01*
X132758630Y-68152662D01*
X132727794Y-68082306D01*
X132704961Y-68031690D01*
X132692983Y-68007529D01*
X132692276Y-68006578D01*
X132673469Y-68001964D01*
X132623382Y-67991672D01*
X132547207Y-67976713D01*
X132450135Y-67958099D01*
X132337357Y-67936841D01*
X132271558Y-67924582D01*
X132151050Y-67901638D01*
X132042203Y-67879805D01*
X131950524Y-67860278D01*
X131881519Y-67844252D01*
X131840696Y-67832921D01*
X131832489Y-67829326D01*
X131824452Y-67804994D01*
X131817967Y-67750041D01*
X131813030Y-67670892D01*
X131809636Y-67573974D01*
X131807782Y-67465713D01*
X131807462Y-67352535D01*
X131808673Y-67240865D01*
X131811410Y-67137132D01*
X131815669Y-67047759D01*
X131821445Y-66979174D01*
X131828733Y-66937803D01*
X131833105Y-66929190D01*
X131859236Y-66918867D01*
X131914607Y-66904108D01*
X131991893Y-66886648D01*
X132083770Y-66868220D01*
X132115842Y-66862259D01*
X132270476Y-66833934D01*
X132392625Y-66811124D01*
X132486327Y-66792920D01*
X132555616Y-66778417D01*
X132604529Y-66766708D01*
X132637103Y-66756885D01*
X132657372Y-66748044D01*
X132669374Y-66739276D01*
X132671053Y-66737543D01*
X132687816Y-66709629D01*
X132713386Y-66655305D01*
X132745212Y-66581223D01*
X132780740Y-66494035D01*
X132817417Y-66400392D01*
X132852689Y-66306948D01*
X132884004Y-66220353D01*
X132908807Y-66147260D01*
X132924546Y-66094322D01*
X132928668Y-66068189D01*
X132928324Y-66067274D01*
X132914359Y-66045914D01*
X132882678Y-65998916D01*
X132836609Y-65931173D01*
X132779482Y-65847577D01*
X132714627Y-65753018D01*
X132696157Y-65726146D01*
X132630301Y-65628725D01*
X132572350Y-65539837D01*
X132525462Y-65464588D01*
X132492793Y-65408080D01*
X132477500Y-65375419D01*
X132476759Y-65371407D01*
X132489608Y-65350316D01*
X132525112Y-65308536D01*
X132578707Y-65250555D01*
X132645829Y-65180865D01*
X132721913Y-65103955D01*
X132802396Y-65024317D01*
X132882713Y-64946439D01*
X132958301Y-64874814D01*
X133024595Y-64813930D01*
X133077031Y-64768279D01*
X133111045Y-64742350D01*
X133120455Y-64738117D01*
X133142357Y-64748088D01*
X133187200Y-64774980D01*
X133247679Y-64814264D01*
X133294211Y-64845883D01*
X133378525Y-64903902D01*
X133478374Y-64972216D01*
X133578527Y-65040421D01*
X133632373Y-65076925D01*
X133814629Y-65200200D01*
X133967619Y-65117480D01*
X134037318Y-65081241D01*
X134096586Y-65053074D01*
X134136689Y-65037009D01*
X134146897Y-65034774D01*
X134159171Y-65051278D01*
X134183387Y-65097918D01*
X134217737Y-65170391D01*
X134260412Y-65264394D01*
X134309606Y-65375626D01*
X134363510Y-65499785D01*
X134420316Y-65632568D01*
X134478218Y-65769673D01*
X134535407Y-65906798D01*
X134590076Y-66039642D01*
X134640416Y-66163902D01*
X134684620Y-66275275D01*
X134720881Y-66369461D01*
X134747391Y-66442156D01*
X134762342Y-66489059D01*
X134764746Y-66505167D01*
X134745689Y-66525714D01*
X134703964Y-66559067D01*
X134648294Y-66598298D01*
X134643622Y-66601401D01*
X134499736Y-66716577D01*
X134383717Y-66850947D01*
X134296570Y-67000216D01*
X134239301Y-67160087D01*
X134212914Y-67326263D01*
X134218415Y-67494448D01*
X134256810Y-67660345D01*
X134329105Y-67819658D01*
X134350374Y-67854513D01*
X134461004Y-67995263D01*
X134591698Y-68108286D01*
X134737936Y-68192997D01*
X134895192Y-68248806D01*
X135058943Y-68275126D01*
X135224667Y-68271370D01*
X135387838Y-68236950D01*
X135543935Y-68171277D01*
X135688433Y-68073765D01*
X135733131Y-68034187D01*
X135846888Y-67910297D01*
X135929782Y-67779876D01*
X135986644Y-67633685D01*
X136018313Y-67488912D01*
X136026131Y-67326140D01*
X136000062Y-67162560D01*
X135942755Y-67003702D01*
X135856856Y-66855094D01*
X135745014Y-66722265D01*
X135609877Y-66610744D01*
X135592117Y-66598989D01*
X135535850Y-66560492D01*
X135493077Y-66527137D01*
X135472628Y-66505840D01*
X135472331Y-66505167D01*
X135476721Y-66482129D01*
X135494124Y-66429843D01*
X135522732Y-66352610D01*
X135560735Y-66254732D01*
X135606326Y-66140509D01*
X135657697Y-66014242D01*
X135713038Y-65880233D01*
X135770542Y-65742782D01*
X135828399Y-65606192D01*
X135884802Y-65474763D01*
X135937942Y-65352795D01*
X135986010Y-65244591D01*
X136027199Y-65154451D01*
X136059699Y-65086677D01*
X136081703Y-65045570D01*
X136090564Y-65034774D01*
X136117640Y-65043181D01*
X136168303Y-65065728D01*
X136233817Y-65098387D01*
X136269841Y-65117480D01*
X136422832Y-65200200D01*
X136605088Y-65076925D01*
X136698125Y-65013772D01*
X136799985Y-64944273D01*
X136895438Y-64878835D01*
X136943250Y-64845883D01*
X137010495Y-64800727D01*
X137067436Y-64764943D01*
X137106646Y-64743062D01*
X137119381Y-64738437D01*
X137137917Y-64750915D01*
X137178941Y-64785748D01*
X137238475Y-64839322D01*
X137312542Y-64908017D01*
X137397165Y-64988219D01*
X137450685Y-65039714D01*
X137544319Y-65131714D01*
X137625241Y-65214001D01*
X137690177Y-65283055D01*
X137735858Y-65335356D01*
X137759011Y-65367384D01*
X137761232Y-65373884D01*
X137750924Y-65398606D01*
X137722439Y-65448595D01*
X137678937Y-65518788D01*
X137623577Y-65604125D01*
X137559520Y-65699544D01*
X137541303Y-65726146D01*
X137474927Y-65822833D01*
X137415378Y-65909883D01*
X137365984Y-65982405D01*
X137330075Y-66035507D01*
X137310981Y-66064297D01*
X137309136Y-66067274D01*
X137311895Y-66090218D01*
X137326538Y-66140664D01*
X137350513Y-66211959D01*
X137381266Y-66297453D01*
X137416244Y-66390493D01*
X137452893Y-66484426D01*
X137488661Y-66572601D01*
X137520994Y-66648366D01*
X137547338Y-66705069D01*
X137565142Y-66736057D01*
X137566407Y-66737543D01*
X137577294Y-66746399D01*
X137595682Y-66755157D01*
X137625606Y-66764723D01*
X137671103Y-66776004D01*
X137736209Y-66789907D01*
X137824961Y-66807337D01*
X137941393Y-66829202D01*
X138089542Y-66856409D01*
X138121618Y-66862259D01*
X138216686Y-66880626D01*
X138299565Y-66898595D01*
X138362930Y-66914431D01*
X138399458Y-66926400D01*
X138404356Y-66929190D01*
X138412427Y-66953928D01*
X138418987Y-67009210D01*
X138424033Y-67088611D01*
X138427559Y-67185704D01*
X138429561Y-67294062D01*
X138430036Y-67407260D01*
X138428977Y-67518872D01*
X138426382Y-67622471D01*
X138422246Y-67711632D01*
X138416563Y-67779928D01*
X138409331Y-67820934D01*
X138404971Y-67829326D01*
X138380698Y-67837792D01*
X138325426Y-67851565D01*
X138244662Y-67869450D01*
X138143912Y-67890252D01*
X138028683Y-67912777D01*
X137965902Y-67924582D01*
X137846787Y-67946849D01*
X137740565Y-67967021D01*
X137652427Y-67984085D01*
X137587566Y-67997031D01*
X137551174Y-68004845D01*
X137545184Y-68006578D01*
X137535061Y-68026110D01*
X137513662Y-68073157D01*
X137483839Y-68140997D01*
X137448445Y-68222909D01*
X137410332Y-68312172D01*
X137372353Y-68402065D01*
X137337360Y-68485865D01*
X137308206Y-68556853D01*
X137287743Y-68608306D01*
X137278823Y-68633503D01*
X137278657Y-68634604D01*
X137288769Y-68654481D01*
X137317117Y-68700223D01*
X137360723Y-68767283D01*
X137416606Y-68851116D01*
X137481787Y-68947174D01*
X137519679Y-69002350D01*
X137588725Y-69103519D01*
X137650050Y-69195370D01*
X137700663Y-69273256D01*
X137737571Y-69332531D01*
X137757782Y-69368549D01*
X137760701Y-69376623D01*
X137748153Y-69395416D01*
X137713463Y-69435543D01*
X137661063Y-69492507D01*
X137595384Y-69561815D01*
X137520856Y-69638969D01*
X137441913Y-69719475D01*
X137362983Y-69798837D01*
X137288500Y-69872560D01*
X137222894Y-69936148D01*
X137170596Y-69985106D01*
X137136039Y-70014939D01*
X137124478Y-70022058D01*
X137105654Y-70012047D01*
X137060631Y-69983922D01*
X136993787Y-69940546D01*
X136909499Y-69884782D01*
X136812144Y-69819494D01*
X136738707Y-69769754D01*
X136367667Y-69517449D01*
X135749095Y-69772445D01*
X135665275Y-70217069D01*
X135581454Y-70661693D01*
X134656006Y-70661693D01*
X134572186Y-70217069D01*
G36*
X134572186Y-50217069D02*
G01*
X134488365Y-49772445D01*
X134179080Y-49644947D01*
X133869794Y-49517449D01*
X133498754Y-49769754D01*
X133394843Y-49840004D01*
X133300913Y-49902728D01*
X133221348Y-49955062D01*
X133160530Y-49994143D01*
X133122843Y-50017107D01*
X133112579Y-50022058D01*
X133094090Y-50009324D01*
X133054580Y-49974118D01*
X132998478Y-49920938D01*
X132930213Y-49854282D01*
X132854214Y-49778646D01*
X132774908Y-49698528D01*
X132696725Y-49618426D01*
X132624093Y-49542836D01*
X132561441Y-49476255D01*
X132513197Y-49423182D01*
X132483790Y-49388113D01*
X132476759Y-49376377D01*
X132486877Y-49354740D01*
X132515241Y-49307338D01*
X132558871Y-49238807D01*
X132614782Y-49153785D01*
X132679994Y-49056907D01*
X132717781Y-49001650D01*
X132786657Y-48900752D01*
X132847860Y-48809701D01*
X132898422Y-48733030D01*
X132935372Y-48675272D01*
X132955742Y-48640957D01*
X132958803Y-48633746D01*
X132951864Y-48613252D01*
X132932949Y-48565487D01*
X132904913Y-48497168D01*
X132870609Y-48415011D01*
X132832891Y-48325730D01*
X132794613Y-48236042D01*
X132758630Y-48152662D01*
X132727794Y-48082306D01*
X132704961Y-48031690D01*
X132692983Y-48007529D01*
X132692276Y-48006578D01*
X132673469Y-48001964D01*
X132623382Y-47991672D01*
X132547207Y-47976713D01*
X132450135Y-47958099D01*
X132337357Y-47936841D01*
X132271558Y-47924582D01*
X132151050Y-47901638D01*
X132042203Y-47879805D01*
X131950524Y-47860278D01*
X131881519Y-47844252D01*
X131840696Y-47832921D01*
X131832489Y-47829326D01*
X131824452Y-47804994D01*
X131817967Y-47750041D01*
X131813030Y-47670892D01*
X131809636Y-47573974D01*
X131807782Y-47465713D01*
X131807462Y-47352535D01*
X131808673Y-47240865D01*
X131811410Y-47137132D01*
X131815669Y-47047759D01*
X131821445Y-46979174D01*
X131828733Y-46937803D01*
X131833105Y-46929190D01*
X131859236Y-46918867D01*
X131914607Y-46904108D01*
X131991893Y-46886648D01*
X132083770Y-46868220D01*
X132115842Y-46862259D01*
X132270476Y-46833934D01*
X132392625Y-46811124D01*
X132486327Y-46792920D01*
X132555616Y-46778417D01*
X132604529Y-46766708D01*
X132637103Y-46756885D01*
X132657372Y-46748044D01*
X132669374Y-46739276D01*
X132671053Y-46737543D01*
X132687816Y-46709629D01*
X132713386Y-46655305D01*
X132745212Y-46581223D01*
X132780740Y-46494035D01*
X132817417Y-46400392D01*
X132852689Y-46306948D01*
X132884004Y-46220353D01*
X132908807Y-46147260D01*
X132924546Y-46094322D01*
X132928668Y-46068189D01*
X132928324Y-46067274D01*
X132914359Y-46045914D01*
X132882678Y-45998916D01*
X132836609Y-45931173D01*
X132779482Y-45847577D01*
X132714627Y-45753018D01*
X132696157Y-45726146D01*
X132630301Y-45628725D01*
X132572350Y-45539837D01*
X132525462Y-45464588D01*
X132492793Y-45408080D01*
X132477500Y-45375419D01*
X132476759Y-45371407D01*
X132489608Y-45350316D01*
X132525112Y-45308536D01*
X132578707Y-45250555D01*
X132645829Y-45180865D01*
X132721913Y-45103955D01*
X132802396Y-45024317D01*
X132882713Y-44946439D01*
X132958301Y-44874814D01*
X133024595Y-44813930D01*
X133077031Y-44768279D01*
X133111045Y-44742350D01*
X133120455Y-44738117D01*
X133142357Y-44748088D01*
X133187200Y-44774980D01*
X133247679Y-44814264D01*
X133294211Y-44845883D01*
X133378525Y-44903902D01*
X133478374Y-44972216D01*
X133578527Y-45040421D01*
X133632373Y-45076925D01*
X133814629Y-45200200D01*
X133967619Y-45117480D01*
X134037318Y-45081241D01*
X134096586Y-45053074D01*
X134136689Y-45037009D01*
X134146897Y-45034774D01*
X134159171Y-45051278D01*
X134183387Y-45097918D01*
X134217737Y-45170391D01*
X134260412Y-45264394D01*
X134309606Y-45375626D01*
X134363510Y-45499785D01*
X134420316Y-45632568D01*
X134478218Y-45769673D01*
X134535407Y-45906798D01*
X134590076Y-46039642D01*
X134640416Y-46163902D01*
X134684620Y-46275275D01*
X134720881Y-46369461D01*
X134747391Y-46442156D01*
X134762342Y-46489059D01*
X134764746Y-46505167D01*
X134745689Y-46525714D01*
X134703964Y-46559067D01*
X134648294Y-46598298D01*
X134643622Y-46601401D01*
X134499736Y-46716577D01*
X134383717Y-46850947D01*
X134296570Y-47000216D01*
X134239301Y-47160087D01*
X134212914Y-47326263D01*
X134218415Y-47494448D01*
X134256810Y-47660345D01*
X134329105Y-47819658D01*
X134350374Y-47854513D01*
X134461004Y-47995263D01*
X134591698Y-48108286D01*
X134737936Y-48192997D01*
X134895192Y-48248806D01*
X135058943Y-48275126D01*
X135224667Y-48271370D01*
X135387838Y-48236950D01*
X135543935Y-48171277D01*
X135688433Y-48073765D01*
X135733131Y-48034187D01*
X135846888Y-47910297D01*
X135929782Y-47779876D01*
X135986644Y-47633685D01*
X136018313Y-47488912D01*
X136026131Y-47326140D01*
X136000062Y-47162560D01*
X135942755Y-47003702D01*
X135856856Y-46855094D01*
X135745014Y-46722265D01*
X135609877Y-46610744D01*
X135592117Y-46598989D01*
X135535850Y-46560492D01*
X135493077Y-46527137D01*
X135472628Y-46505840D01*
X135472331Y-46505167D01*
X135476721Y-46482129D01*
X135494124Y-46429843D01*
X135522732Y-46352610D01*
X135560735Y-46254732D01*
X135606326Y-46140509D01*
X135657697Y-46014242D01*
X135713038Y-45880233D01*
X135770542Y-45742782D01*
X135828399Y-45606192D01*
X135884802Y-45474763D01*
X135937942Y-45352795D01*
X135986010Y-45244591D01*
X136027199Y-45154451D01*
X136059699Y-45086677D01*
X136081703Y-45045570D01*
X136090564Y-45034774D01*
X136117640Y-45043181D01*
X136168303Y-45065728D01*
X136233817Y-45098387D01*
X136269841Y-45117480D01*
X136422832Y-45200200D01*
X136605088Y-45076925D01*
X136698125Y-45013772D01*
X136799985Y-44944273D01*
X136895438Y-44878835D01*
X136943250Y-44845883D01*
X137010495Y-44800727D01*
X137067436Y-44764943D01*
X137106646Y-44743062D01*
X137119381Y-44738437D01*
X137137917Y-44750915D01*
X137178941Y-44785748D01*
X137238475Y-44839322D01*
X137312542Y-44908017D01*
X137397165Y-44988219D01*
X137450685Y-45039714D01*
X137544319Y-45131714D01*
X137625241Y-45214001D01*
X137690177Y-45283055D01*
X137735858Y-45335356D01*
X137759011Y-45367384D01*
X137761232Y-45373884D01*
X137750924Y-45398606D01*
X137722439Y-45448595D01*
X137678937Y-45518788D01*
X137623577Y-45604125D01*
X137559520Y-45699544D01*
X137541303Y-45726146D01*
X137474927Y-45822833D01*
X137415378Y-45909883D01*
X137365984Y-45982405D01*
X137330075Y-46035507D01*
X137310981Y-46064297D01*
X137309136Y-46067274D01*
X137311895Y-46090218D01*
X137326538Y-46140664D01*
X137350513Y-46211959D01*
X137381266Y-46297453D01*
X137416244Y-46390493D01*
X137452893Y-46484426D01*
X137488661Y-46572601D01*
X137520994Y-46648366D01*
X137547338Y-46705069D01*
X137565142Y-46736057D01*
X137566407Y-46737543D01*
X137577294Y-46746399D01*
X137595682Y-46755157D01*
X137625606Y-46764723D01*
X137671103Y-46776004D01*
X137736209Y-46789907D01*
X137824961Y-46807337D01*
X137941393Y-46829202D01*
X138089542Y-46856409D01*
X138121618Y-46862259D01*
X138216686Y-46880626D01*
X138299565Y-46898595D01*
X138362930Y-46914431D01*
X138399458Y-46926400D01*
X138404356Y-46929190D01*
X138412427Y-46953928D01*
X138418987Y-47009210D01*
X138424033Y-47088611D01*
X138427559Y-47185704D01*
X138429561Y-47294062D01*
X138430036Y-47407260D01*
X138428977Y-47518872D01*
X138426382Y-47622471D01*
X138422246Y-47711632D01*
X138416563Y-47779928D01*
X138409331Y-47820934D01*
X138404971Y-47829326D01*
X138380698Y-47837792D01*
X138325426Y-47851565D01*
X138244662Y-47869450D01*
X138143912Y-47890252D01*
X138028683Y-47912777D01*
X137965902Y-47924582D01*
X137846787Y-47946849D01*
X137740565Y-47967021D01*
X137652427Y-47984085D01*
X137587566Y-47997031D01*
X137551174Y-48004845D01*
X137545184Y-48006578D01*
X137535061Y-48026110D01*
X137513662Y-48073157D01*
X137483839Y-48140997D01*
X137448445Y-48222909D01*
X137410332Y-48312172D01*
X137372353Y-48402065D01*
X137337360Y-48485865D01*
X137308206Y-48556853D01*
X137287743Y-48608306D01*
X137278823Y-48633503D01*
X137278657Y-48634604D01*
X137288769Y-48654481D01*
X137317117Y-48700223D01*
X137360723Y-48767283D01*
X137416606Y-48851116D01*
X137481787Y-48947174D01*
X137519679Y-49002350D01*
X137588725Y-49103519D01*
X137650050Y-49195370D01*
X137700663Y-49273256D01*
X137737571Y-49332531D01*
X137757782Y-49368549D01*
X137760701Y-49376623D01*
X137748153Y-49395416D01*
X137713463Y-49435543D01*
X137661063Y-49492507D01*
X137595384Y-49561815D01*
X137520856Y-49638969D01*
X137441913Y-49719475D01*
X137362983Y-49798837D01*
X137288500Y-49872560D01*
X137222894Y-49936148D01*
X137170596Y-49985106D01*
X137136039Y-50014939D01*
X137124478Y-50022058D01*
X137105654Y-50012047D01*
X137060631Y-49983922D01*
X136993787Y-49940546D01*
X136909499Y-49884782D01*
X136812144Y-49819494D01*
X136738707Y-49769754D01*
X136367667Y-49517449D01*
X135749095Y-49772445D01*
X135665275Y-50217069D01*
X135581454Y-50661693D01*
X134656006Y-50661693D01*
X134572186Y-50217069D01*
G37*
X134572186Y-50217069D02*
X134488365Y-49772445D01*
X134179080Y-49644947D01*
X133869794Y-49517449D01*
X133498754Y-49769754D01*
X133394843Y-49840004D01*
X133300913Y-49902728D01*
X133221348Y-49955062D01*
X133160530Y-49994143D01*
X133122843Y-50017107D01*
X133112579Y-50022058D01*
X133094090Y-50009324D01*
X133054580Y-49974118D01*
X132998478Y-49920938D01*
X132930213Y-49854282D01*
X132854214Y-49778646D01*
X132774908Y-49698528D01*
X132696725Y-49618426D01*
X132624093Y-49542836D01*
X132561441Y-49476255D01*
X132513197Y-49423182D01*
X132483790Y-49388113D01*
X132476759Y-49376377D01*
X132486877Y-49354740D01*
X132515241Y-49307338D01*
X132558871Y-49238807D01*
X132614782Y-49153785D01*
X132679994Y-49056907D01*
X132717781Y-49001650D01*
X132786657Y-48900752D01*
X132847860Y-48809701D01*
X132898422Y-48733030D01*
X132935372Y-48675272D01*
X132955742Y-48640957D01*
X132958803Y-48633746D01*
X132951864Y-48613252D01*
X132932949Y-48565487D01*
X132904913Y-48497168D01*
X132870609Y-48415011D01*
X132832891Y-48325730D01*
X132794613Y-48236042D01*
X132758630Y-48152662D01*
X132727794Y-48082306D01*
X132704961Y-48031690D01*
X132692983Y-48007529D01*
X132692276Y-48006578D01*
X132673469Y-48001964D01*
X132623382Y-47991672D01*
X132547207Y-47976713D01*
X132450135Y-47958099D01*
X132337357Y-47936841D01*
X132271558Y-47924582D01*
X132151050Y-47901638D01*
X132042203Y-47879805D01*
X131950524Y-47860278D01*
X131881519Y-47844252D01*
X131840696Y-47832921D01*
X131832489Y-47829326D01*
X131824452Y-47804994D01*
X131817967Y-47750041D01*
X131813030Y-47670892D01*
X131809636Y-47573974D01*
X131807782Y-47465713D01*
X131807462Y-47352535D01*
X131808673Y-47240865D01*
X131811410Y-47137132D01*
X131815669Y-47047759D01*
X131821445Y-46979174D01*
X131828733Y-46937803D01*
X131833105Y-46929190D01*
X131859236Y-46918867D01*
X131914607Y-46904108D01*
X131991893Y-46886648D01*
X132083770Y-46868220D01*
X132115842Y-46862259D01*
X132270476Y-46833934D01*
X132392625Y-46811124D01*
X132486327Y-46792920D01*
X132555616Y-46778417D01*
X132604529Y-46766708D01*
X132637103Y-46756885D01*
X132657372Y-46748044D01*
X132669374Y-46739276D01*
X132671053Y-46737543D01*
X132687816Y-46709629D01*
X132713386Y-46655305D01*
X132745212Y-46581223D01*
X132780740Y-46494035D01*
X132817417Y-46400392D01*
X132852689Y-46306948D01*
X132884004Y-46220353D01*
X132908807Y-46147260D01*
X132924546Y-46094322D01*
X132928668Y-46068189D01*
X132928324Y-46067274D01*
X132914359Y-46045914D01*
X132882678Y-45998916D01*
X132836609Y-45931173D01*
X132779482Y-45847577D01*
X132714627Y-45753018D01*
X132696157Y-45726146D01*
X132630301Y-45628725D01*
X132572350Y-45539837D01*
X132525462Y-45464588D01*
X132492793Y-45408080D01*
X132477500Y-45375419D01*
X132476759Y-45371407D01*
X132489608Y-45350316D01*
X132525112Y-45308536D01*
X132578707Y-45250555D01*
X132645829Y-45180865D01*
X132721913Y-45103955D01*
X132802396Y-45024317D01*
X132882713Y-44946439D01*
X132958301Y-44874814D01*
X133024595Y-44813930D01*
X133077031Y-44768279D01*
X133111045Y-44742350D01*
X133120455Y-44738117D01*
X133142357Y-44748088D01*
X133187200Y-44774980D01*
X133247679Y-44814264D01*
X133294211Y-44845883D01*
X133378525Y-44903902D01*
X133478374Y-44972216D01*
X133578527Y-45040421D01*
X133632373Y-45076925D01*
X133814629Y-45200200D01*
X133967619Y-45117480D01*
X134037318Y-45081241D01*
X134096586Y-45053074D01*
X134136689Y-45037009D01*
X134146897Y-45034774D01*
X134159171Y-45051278D01*
X134183387Y-45097918D01*
X134217737Y-45170391D01*
X134260412Y-45264394D01*
X134309606Y-45375626D01*
X134363510Y-45499785D01*
X134420316Y-45632568D01*
X134478218Y-45769673D01*
X134535407Y-45906798D01*
X134590076Y-46039642D01*
X134640416Y-46163902D01*
X134684620Y-46275275D01*
X134720881Y-46369461D01*
X134747391Y-46442156D01*
X134762342Y-46489059D01*
X134764746Y-46505167D01*
X134745689Y-46525714D01*
X134703964Y-46559067D01*
X134648294Y-46598298D01*
X134643622Y-46601401D01*
X134499736Y-46716577D01*
X134383717Y-46850947D01*
X134296570Y-47000216D01*
X134239301Y-47160087D01*
X134212914Y-47326263D01*
X134218415Y-47494448D01*
X134256810Y-47660345D01*
X134329105Y-47819658D01*
X134350374Y-47854513D01*
X134461004Y-47995263D01*
X134591698Y-48108286D01*
X134737936Y-48192997D01*
X134895192Y-48248806D01*
X135058943Y-48275126D01*
X135224667Y-48271370D01*
X135387838Y-48236950D01*
X135543935Y-48171277D01*
X135688433Y-48073765D01*
X135733131Y-48034187D01*
X135846888Y-47910297D01*
X135929782Y-47779876D01*
X135986644Y-47633685D01*
X136018313Y-47488912D01*
X136026131Y-47326140D01*
X136000062Y-47162560D01*
X135942755Y-47003702D01*
X135856856Y-46855094D01*
X135745014Y-46722265D01*
X135609877Y-46610744D01*
X135592117Y-46598989D01*
X135535850Y-46560492D01*
X135493077Y-46527137D01*
X135472628Y-46505840D01*
X135472331Y-46505167D01*
X135476721Y-46482129D01*
X135494124Y-46429843D01*
X135522732Y-46352610D01*
X135560735Y-46254732D01*
X135606326Y-46140509D01*
X135657697Y-46014242D01*
X135713038Y-45880233D01*
X135770542Y-45742782D01*
X135828399Y-45606192D01*
X135884802Y-45474763D01*
X135937942Y-45352795D01*
X135986010Y-45244591D01*
X136027199Y-45154451D01*
X136059699Y-45086677D01*
X136081703Y-45045570D01*
X136090564Y-45034774D01*
X136117640Y-45043181D01*
X136168303Y-45065728D01*
X136233817Y-45098387D01*
X136269841Y-45117480D01*
X136422832Y-45200200D01*
X136605088Y-45076925D01*
X136698125Y-45013772D01*
X136799985Y-44944273D01*
X136895438Y-44878835D01*
X136943250Y-44845883D01*
X137010495Y-44800727D01*
X137067436Y-44764943D01*
X137106646Y-44743062D01*
X137119381Y-44738437D01*
X137137917Y-44750915D01*
X137178941Y-44785748D01*
X137238475Y-44839322D01*
X137312542Y-44908017D01*
X137397165Y-44988219D01*
X137450685Y-45039714D01*
X137544319Y-45131714D01*
X137625241Y-45214001D01*
X137690177Y-45283055D01*
X137735858Y-45335356D01*
X137759011Y-45367384D01*
X137761232Y-45373884D01*
X137750924Y-45398606D01*
X137722439Y-45448595D01*
X137678937Y-45518788D01*
X137623577Y-45604125D01*
X137559520Y-45699544D01*
X137541303Y-45726146D01*
X137474927Y-45822833D01*
X137415378Y-45909883D01*
X137365984Y-45982405D01*
X137330075Y-46035507D01*
X137310981Y-46064297D01*
X137309136Y-46067274D01*
X137311895Y-46090218D01*
X137326538Y-46140664D01*
X137350513Y-46211959D01*
X137381266Y-46297453D01*
X137416244Y-46390493D01*
X137452893Y-46484426D01*
X137488661Y-46572601D01*
X137520994Y-46648366D01*
X137547338Y-46705069D01*
X137565142Y-46736057D01*
X137566407Y-46737543D01*
X137577294Y-46746399D01*
X137595682Y-46755157D01*
X137625606Y-46764723D01*
X137671103Y-46776004D01*
X137736209Y-46789907D01*
X137824961Y-46807337D01*
X137941393Y-46829202D01*
X138089542Y-46856409D01*
X138121618Y-46862259D01*
X138216686Y-46880626D01*
X138299565Y-46898595D01*
X138362930Y-46914431D01*
X138399458Y-46926400D01*
X138404356Y-46929190D01*
X138412427Y-46953928D01*
X138418987Y-47009210D01*
X138424033Y-47088611D01*
X138427559Y-47185704D01*
X138429561Y-47294062D01*
X138430036Y-47407260D01*
X138428977Y-47518872D01*
X138426382Y-47622471D01*
X138422246Y-47711632D01*
X138416563Y-47779928D01*
X138409331Y-47820934D01*
X138404971Y-47829326D01*
X138380698Y-47837792D01*
X138325426Y-47851565D01*
X138244662Y-47869450D01*
X138143912Y-47890252D01*
X138028683Y-47912777D01*
X137965902Y-47924582D01*
X137846787Y-47946849D01*
X137740565Y-47967021D01*
X137652427Y-47984085D01*
X137587566Y-47997031D01*
X137551174Y-48004845D01*
X137545184Y-48006578D01*
X137535061Y-48026110D01*
X137513662Y-48073157D01*
X137483839Y-48140997D01*
X137448445Y-48222909D01*
X137410332Y-48312172D01*
X137372353Y-48402065D01*
X137337360Y-48485865D01*
X137308206Y-48556853D01*
X137287743Y-48608306D01*
X137278823Y-48633503D01*
X137278657Y-48634604D01*
X137288769Y-48654481D01*
X137317117Y-48700223D01*
X137360723Y-48767283D01*
X137416606Y-48851116D01*
X137481787Y-48947174D01*
X137519679Y-49002350D01*
X137588725Y-49103519D01*
X137650050Y-49195370D01*
X137700663Y-49273256D01*
X137737571Y-49332531D01*
X137757782Y-49368549D01*
X137760701Y-49376623D01*
X137748153Y-49395416D01*
X137713463Y-49435543D01*
X137661063Y-49492507D01*
X137595384Y-49561815D01*
X137520856Y-49638969D01*
X137441913Y-49719475D01*
X137362983Y-49798837D01*
X137288500Y-49872560D01*
X137222894Y-49936148D01*
X137170596Y-49985106D01*
X137136039Y-50014939D01*
X137124478Y-50022058D01*
X137105654Y-50012047D01*
X137060631Y-49983922D01*
X136993787Y-49940546D01*
X136909499Y-49884782D01*
X136812144Y-49819494D01*
X136738707Y-49769754D01*
X136367667Y-49517449D01*
X135749095Y-49772445D01*
X135665275Y-50217069D01*
X135581454Y-50661693D01*
X134656006Y-50661693D01*
X134572186Y-50217069D01*
D10*
X146829000Y-88611000D02*
X146829000Y-100611000D01*
X150729000Y-88611000D02*
X150729000Y-100611000D01*
X150729000Y-100611000D02*
X146829000Y-100611000D01*
X150729000Y-88611000D02*
X146829000Y-88611000D01*
X146829000Y-68611000D02*
X146829000Y-80611000D01*
X150729000Y-68611000D02*
X150729000Y-80611000D01*
X150729000Y-80611000D02*
X146829000Y-80611000D01*
X150729000Y-68611000D02*
X146829000Y-68611000D01*
X146829000Y-48611000D02*
X146829000Y-60611000D01*
X150729000Y-48611000D02*
X150729000Y-60611000D01*
X150729000Y-60611000D02*
X146829000Y-60611000D01*
X150729000Y-48611000D02*
X146829000Y-48611000D01*
D12*
X127191756Y-98831682D02*
G75*
G02X127337000Y-99515000I-1534756J-683318D01*
G01*
X124973958Y-97979574D02*
G75*
G02X126341000Y-97980000I683042J-1535426D01*
G01*
X124121574Y-100198042D02*
G75*
G02X124122000Y-98831000I1535426J683042D01*
G01*
X126340042Y-101050426D02*
G75*
G02X124973000Y-101050000I-683042J1535426D01*
G01*
X127337253Y-99486195D02*
G75*
G02X127192000Y-100199000I-1680253J-28805D01*
G01*
X127337000Y-94435000D02*
G75*
G03X127337000Y-94435000I-1680000J0D01*
G01*
X127337000Y-89355000D02*
G75*
G03X127337000Y-89355000I-1680000J0D01*
G01*
X129757000Y-102115000D02*
X129757000Y-86755000D01*
X128257000Y-102115000D02*
X128257000Y-86755000D01*
X123356000Y-102115000D02*
X123356000Y-86755000D01*
X120396000Y-102115000D02*
X120396000Y-86755000D01*
X130317000Y-102115000D02*
X130317000Y-86755000D01*
X120396000Y-102115000D02*
X130317000Y-102115000D01*
X120396000Y-86755000D02*
X130317000Y-86755000D01*
X124588000Y-93160000D02*
X124634000Y-93207000D01*
X126896000Y-95469000D02*
X126931000Y-95504000D01*
X124382000Y-93365000D02*
X124418000Y-93400000D01*
X126680000Y-95662000D02*
X126726000Y-95709000D01*
X124588000Y-88080000D02*
X124634000Y-88127000D01*
X126896000Y-90389000D02*
X126931000Y-90424000D01*
X124382000Y-88285000D02*
X124418000Y-88320000D01*
X126680000Y-90582000D02*
X126726000Y-90629000D01*
X129817000Y-102355000D02*
X130557000Y-102355000D01*
X130557000Y-102355000D02*
X130557000Y-101855000D01*
X127191756Y-78831682D02*
G75*
G02X127337000Y-79515000I-1534756J-683318D01*
G01*
X124973958Y-77979574D02*
G75*
G02X126341000Y-77980000I683042J-1535426D01*
G01*
X124121574Y-80198042D02*
G75*
G02X124122000Y-78831000I1535426J683042D01*
G01*
X126340042Y-81050426D02*
G75*
G02X124973000Y-81050000I-683042J1535426D01*
G01*
X127337253Y-79486195D02*
G75*
G02X127192000Y-80199000I-1680253J-28805D01*
G01*
X127337000Y-74435000D02*
G75*
G03X127337000Y-74435000I-1680000J0D01*
G01*
X127337000Y-69355000D02*
G75*
G03X127337000Y-69355000I-1680000J0D01*
G01*
X129757000Y-82115000D02*
X129757000Y-66755000D01*
X128257000Y-82115000D02*
X128257000Y-66755000D01*
X123356000Y-82115000D02*
X123356000Y-66755000D01*
X120396000Y-82115000D02*
X120396000Y-66755000D01*
X130317000Y-82115000D02*
X130317000Y-66755000D01*
X120396000Y-82115000D02*
X130317000Y-82115000D01*
X120396000Y-66755000D02*
X130317000Y-66755000D01*
X124588000Y-73160000D02*
X124634000Y-73207000D01*
X126896000Y-75469000D02*
X126931000Y-75504000D01*
X124382000Y-73365000D02*
X124418000Y-73400000D01*
X126680000Y-75662000D02*
X126726000Y-75709000D01*
X124588000Y-68080000D02*
X124634000Y-68127000D01*
X126896000Y-70389000D02*
X126931000Y-70424000D01*
X124382000Y-68285000D02*
X124418000Y-68320000D01*
X126680000Y-70582000D02*
X126726000Y-70629000D01*
X129817000Y-82355000D02*
X130557000Y-82355000D01*
X130557000Y-82355000D02*
X130557000Y-81855000D01*
X127191756Y-58831682D02*
G75*
G02X127337000Y-59515000I-1534756J-683318D01*
G01*
X124973958Y-57979574D02*
G75*
G02X126341000Y-57980000I683042J-1535426D01*
G01*
X124121574Y-60198042D02*
G75*
G02X124122000Y-58831000I1535426J683042D01*
G01*
X126340042Y-61050426D02*
G75*
G02X124973000Y-61050000I-683042J1535426D01*
G01*
X127337253Y-59486195D02*
G75*
G02X127192000Y-60199000I-1680253J-28805D01*
G01*
X127337000Y-54435000D02*
G75*
G03X127337000Y-54435000I-1680000J0D01*
G01*
X127337000Y-49355000D02*
G75*
G03X127337000Y-49355000I-1680000J0D01*
G01*
X129757000Y-62115000D02*
X129757000Y-46755000D01*
X128257000Y-62115000D02*
X128257000Y-46755000D01*
X123356000Y-62115000D02*
X123356000Y-46755000D01*
X120396000Y-62115000D02*
X120396000Y-46755000D01*
X130317000Y-62115000D02*
X130317000Y-46755000D01*
X120396000Y-62115000D02*
X130317000Y-62115000D01*
X120396000Y-46755000D02*
X130317000Y-46755000D01*
X124588000Y-53160000D02*
X124634000Y-53207000D01*
X126896000Y-55469000D02*
X126931000Y-55504000D01*
X124382000Y-53365000D02*
X124418000Y-53400000D01*
X126680000Y-55662000D02*
X126726000Y-55709000D01*
X124588000Y-48080000D02*
X124634000Y-48127000D01*
X126896000Y-50389000D02*
X126931000Y-50424000D01*
X124382000Y-48285000D02*
X124418000Y-48320000D01*
X126680000Y-50582000D02*
X126726000Y-50629000D01*
X129817000Y-62355000D02*
X130557000Y-62355000D01*
X130557000Y-62355000D02*
X130557000Y-61855000D01*
D10*
X137057000Y-103271000D02*
X137057000Y-91271000D01*
X133157000Y-103271000D02*
X133157000Y-91271000D01*
X133157000Y-91271000D02*
X137057000Y-91271000D01*
X133157000Y-103271000D02*
X137057000Y-103271000D01*
X137057000Y-83271000D02*
X137057000Y-71271000D01*
X133157000Y-83271000D02*
X133157000Y-71271000D01*
X133157000Y-71271000D02*
X137057000Y-71271000D01*
X133157000Y-83271000D02*
X137057000Y-83271000D01*
X137057000Y-63271000D02*
X137057000Y-51271000D01*
X133157000Y-63271000D02*
X133157000Y-51271000D01*
X133157000Y-51271000D02*
X137057000Y-51271000D01*
X133157000Y-63271000D02*
X137057000Y-63271000D01*
X143957000Y-97556000D02*
X143957000Y-85556000D01*
X140057000Y-97556000D02*
X140057000Y-85556000D01*
X140057000Y-85556000D02*
X143957000Y-85556000D01*
X140057000Y-97556000D02*
X143957000Y-97556000D01*
X143957000Y-77556000D02*
X143957000Y-65556000D01*
X140057000Y-77556000D02*
X140057000Y-65556000D01*
X140057000Y-65556000D02*
X143957000Y-65556000D01*
X140057000Y-77556000D02*
X143957000Y-77556000D01*
X143957000Y-57556000D02*
X143957000Y-45556000D01*
X140057000Y-57556000D02*
X140057000Y-45556000D01*
X140057000Y-45556000D02*
X143957000Y-45556000D01*
X140057000Y-57556000D02*
X143957000Y-57556000D01*
X171407000Y-88266000D02*
X155907000Y-88266000D01*
X171407000Y-94366000D02*
X155907000Y-94366000D01*
X155907000Y-94366000D02*
X155907000Y-88266000D01*
X171407000Y-94366000D02*
X171407000Y-88266000D01*
X171407000Y-68266000D02*
X155907000Y-68266000D01*
X171407000Y-74366000D02*
X155907000Y-74366000D01*
X155907000Y-74366000D02*
X155907000Y-68266000D01*
X171407000Y-74366000D02*
X171407000Y-68266000D01*
X171407000Y-48266000D02*
X155907000Y-48266000D01*
X171407000Y-54366000D02*
X155907000Y-54366000D01*
X155907000Y-54366000D02*
X155907000Y-48266000D01*
X171407000Y-54366000D02*
X171407000Y-48266000D01*
X174657000Y-95112000D02*
X153157000Y-95112000D01*
X174657000Y-100412000D02*
X153157000Y-100412000D01*
X153157000Y-100412000D02*
X153157000Y-95112000D01*
X174657000Y-100412000D02*
X174657000Y-95112000D01*
X174657000Y-75112000D02*
X153157000Y-75112000D01*
X174657000Y-80412000D02*
X153157000Y-80412000D01*
X153157000Y-80412000D02*
X153157000Y-75112000D01*
X174657000Y-80412000D02*
X174657000Y-75112000D01*
X174657000Y-55112000D02*
X153157000Y-55112000D01*
X174657000Y-60412000D02*
X153157000Y-60412000D01*
X153157000Y-60412000D02*
X153157000Y-55112000D01*
X174657000Y-60412000D02*
X174657000Y-55112000D01*
D12*
X180672244Y-90038318D02*
G75*
G02X180527000Y-89355000I1534756J683318D01*
G01*
X182890042Y-90890426D02*
G75*
G02X181523000Y-90890000I-683042J1535426D01*
G01*
X183742426Y-88671958D02*
G75*
G02X183742000Y-90039000I-1535426J-683042D01*
G01*
X181523958Y-87819574D02*
G75*
G02X182891000Y-87820000I683042J-1535426D01*
G01*
X180526747Y-89383805D02*
G75*
G02X180672000Y-88671000I1680253J28805D01*
G01*
X183887000Y-94435000D02*
G75*
G03X183887000Y-94435000I-1680000J0D01*
G01*
X183887000Y-99515000D02*
G75*
G03X183887000Y-99515000I-1680000J0D01*
G01*
X178107000Y-86755000D02*
X178107000Y-102115000D01*
X179607000Y-86755000D02*
X179607000Y-102115000D01*
X184508000Y-86755000D02*
X184508000Y-102115000D01*
X187468000Y-86755000D02*
X187468000Y-102115000D01*
X177547000Y-86755000D02*
X177547000Y-102115000D01*
X187468000Y-86755000D02*
X177547000Y-86755000D01*
X187468000Y-102115000D02*
X177547000Y-102115000D01*
X183276000Y-95710000D02*
X183230000Y-95663000D01*
X180968000Y-93401000D02*
X180933000Y-93366000D01*
X183482000Y-95505000D02*
X183446000Y-95470000D01*
X181184000Y-93208000D02*
X181138000Y-93161000D01*
X183276000Y-100790000D02*
X183230000Y-100743000D01*
X180968000Y-98481000D02*
X180933000Y-98446000D01*
X183482000Y-100585000D02*
X183446000Y-100550000D01*
X181184000Y-98288000D02*
X181138000Y-98241000D01*
X178047000Y-86515000D02*
X177307000Y-86515000D01*
X177307000Y-86515000D02*
X177307000Y-87015000D01*
X180672244Y-70038318D02*
G75*
G02X180527000Y-69355000I1534756J683318D01*
G01*
X182890042Y-70890426D02*
G75*
G02X181523000Y-70890000I-683042J1535426D01*
G01*
X183742426Y-68671958D02*
G75*
G02X183742000Y-70039000I-1535426J-683042D01*
G01*
X181523958Y-67819574D02*
G75*
G02X182891000Y-67820000I683042J-1535426D01*
G01*
X180526747Y-69383805D02*
G75*
G02X180672000Y-68671000I1680253J28805D01*
G01*
X183887000Y-74435000D02*
G75*
G03X183887000Y-74435000I-1680000J0D01*
G01*
X183887000Y-79515000D02*
G75*
G03X183887000Y-79515000I-1680000J0D01*
G01*
X178107000Y-66755000D02*
X178107000Y-82115000D01*
X179607000Y-66755000D02*
X179607000Y-82115000D01*
X184508000Y-66755000D02*
X184508000Y-82115000D01*
X187468000Y-66755000D02*
X187468000Y-82115000D01*
X177547000Y-66755000D02*
X177547000Y-82115000D01*
X187468000Y-66755000D02*
X177547000Y-66755000D01*
X187468000Y-82115000D02*
X177547000Y-82115000D01*
X183276000Y-75710000D02*
X183230000Y-75663000D01*
X180968000Y-73401000D02*
X180933000Y-73366000D01*
X183482000Y-75505000D02*
X183446000Y-75470000D01*
X181184000Y-73208000D02*
X181138000Y-73161000D01*
X183276000Y-80790000D02*
X183230000Y-80743000D01*
X180968000Y-78481000D02*
X180933000Y-78446000D01*
X183482000Y-80585000D02*
X183446000Y-80550000D01*
X181184000Y-78288000D02*
X181138000Y-78241000D01*
X178047000Y-66515000D02*
X177307000Y-66515000D01*
X177307000Y-66515000D02*
X177307000Y-67015000D01*
X180672244Y-50038318D02*
G75*
G02X180527000Y-49355000I1534756J683318D01*
G01*
X182890042Y-50890426D02*
G75*
G02X181523000Y-50890000I-683042J1535426D01*
G01*
X183742426Y-48671958D02*
G75*
G02X183742000Y-50039000I-1535426J-683042D01*
G01*
X181523958Y-47819574D02*
G75*
G02X182891000Y-47820000I683042J-1535426D01*
G01*
X180526747Y-49383805D02*
G75*
G02X180672000Y-48671000I1680253J28805D01*
G01*
X183887000Y-54435000D02*
G75*
G03X183887000Y-54435000I-1680000J0D01*
G01*
X183887000Y-59515000D02*
G75*
G03X183887000Y-59515000I-1680000J0D01*
G01*
X178107000Y-46755000D02*
X178107000Y-62115000D01*
X179607000Y-46755000D02*
X179607000Y-62115000D01*
X184508000Y-46755000D02*
X184508000Y-62115000D01*
X187468000Y-46755000D02*
X187468000Y-62115000D01*
X177547000Y-46755000D02*
X177547000Y-62115000D01*
X187468000Y-46755000D02*
X177547000Y-46755000D01*
X187468000Y-62115000D02*
X177547000Y-62115000D01*
X183276000Y-55710000D02*
X183230000Y-55663000D01*
X180968000Y-53401000D02*
X180933000Y-53366000D01*
X183482000Y-55505000D02*
X183446000Y-55470000D01*
X181184000Y-53208000D02*
X181138000Y-53161000D01*
X183276000Y-60790000D02*
X183230000Y-60743000D01*
X180968000Y-58481000D02*
X180933000Y-58446000D01*
X183482000Y-60585000D02*
X183446000Y-60550000D01*
X181184000Y-58288000D02*
X181138000Y-58241000D01*
X178047000Y-46515000D02*
X177307000Y-46515000D01*
X177307000Y-46515000D02*
X177307000Y-47015000D01*
D11*
G36*
X134572186Y-30217069D02*
G01*
X134488365Y-29772445D01*
X134179080Y-29644947D01*
X133869794Y-29517449D01*
X133498754Y-29769754D01*
X133394843Y-29840004D01*
X133300913Y-29902728D01*
X133221348Y-29955062D01*
X133160530Y-29994143D01*
X133122843Y-30017107D01*
X133112579Y-30022058D01*
X133094090Y-30009324D01*
X133054580Y-29974118D01*
X132998478Y-29920938D01*
X132930213Y-29854282D01*
X132854214Y-29778646D01*
X132774908Y-29698528D01*
X132696725Y-29618426D01*
X132624093Y-29542836D01*
X132561441Y-29476255D01*
X132513197Y-29423182D01*
X132483790Y-29388113D01*
X132476759Y-29376377D01*
X132486877Y-29354740D01*
X132515241Y-29307338D01*
X132558871Y-29238807D01*
X132614782Y-29153785D01*
X132679994Y-29056907D01*
X132717781Y-29001650D01*
X132786657Y-28900752D01*
X132847860Y-28809701D01*
X132898422Y-28733030D01*
X132935372Y-28675272D01*
X132955742Y-28640957D01*
X132958803Y-28633746D01*
X132951864Y-28613252D01*
X132932949Y-28565487D01*
X132904913Y-28497168D01*
X132870609Y-28415011D01*
X132832891Y-28325730D01*
X132794613Y-28236042D01*
X132758630Y-28152662D01*
X132727794Y-28082306D01*
X132704961Y-28031690D01*
X132692983Y-28007529D01*
X132692276Y-28006578D01*
X132673469Y-28001964D01*
X132623382Y-27991672D01*
X132547207Y-27976713D01*
X132450135Y-27958099D01*
X132337357Y-27936841D01*
X132271558Y-27924582D01*
X132151050Y-27901638D01*
X132042203Y-27879805D01*
X131950524Y-27860278D01*
X131881519Y-27844252D01*
X131840696Y-27832921D01*
X131832489Y-27829326D01*
X131824452Y-27804994D01*
X131817967Y-27750041D01*
X131813030Y-27670892D01*
X131809636Y-27573974D01*
X131807782Y-27465713D01*
X131807462Y-27352535D01*
X131808673Y-27240865D01*
X131811410Y-27137132D01*
X131815669Y-27047759D01*
X131821445Y-26979174D01*
X131828733Y-26937803D01*
X131833105Y-26929190D01*
X131859236Y-26918867D01*
X131914607Y-26904108D01*
X131991893Y-26886648D01*
X132083770Y-26868220D01*
X132115842Y-26862259D01*
X132270476Y-26833934D01*
X132392625Y-26811124D01*
X132486327Y-26792920D01*
X132555616Y-26778417D01*
X132604529Y-26766708D01*
X132637103Y-26756885D01*
X132657372Y-26748044D01*
X132669374Y-26739276D01*
X132671053Y-26737543D01*
X132687816Y-26709629D01*
X132713386Y-26655305D01*
X132745212Y-26581223D01*
X132780740Y-26494035D01*
X132817417Y-26400392D01*
X132852689Y-26306948D01*
X132884004Y-26220353D01*
X132908807Y-26147260D01*
X132924546Y-26094322D01*
X132928668Y-26068189D01*
X132928324Y-26067274D01*
X132914359Y-26045914D01*
X132882678Y-25998916D01*
X132836609Y-25931173D01*
X132779482Y-25847577D01*
X132714627Y-25753018D01*
X132696157Y-25726146D01*
X132630301Y-25628725D01*
X132572350Y-25539837D01*
X132525462Y-25464588D01*
X132492793Y-25408080D01*
X132477500Y-25375419D01*
X132476759Y-25371407D01*
X132489608Y-25350316D01*
X132525112Y-25308536D01*
X132578707Y-25250555D01*
X132645829Y-25180865D01*
X132721913Y-25103955D01*
X132802396Y-25024317D01*
X132882713Y-24946439D01*
X132958301Y-24874814D01*
X133024595Y-24813930D01*
X133077031Y-24768279D01*
X133111045Y-24742350D01*
X133120455Y-24738117D01*
X133142357Y-24748088D01*
X133187200Y-24774980D01*
X133247679Y-24814264D01*
X133294211Y-24845883D01*
X133378525Y-24903902D01*
X133478374Y-24972216D01*
X133578527Y-25040421D01*
X133632373Y-25076925D01*
X133814629Y-25200200D01*
X133967619Y-25117480D01*
X134037318Y-25081241D01*
X134096586Y-25053074D01*
X134136689Y-25037009D01*
X134146897Y-25034774D01*
X134159171Y-25051278D01*
X134183387Y-25097918D01*
X134217737Y-25170391D01*
X134260412Y-25264394D01*
X134309606Y-25375626D01*
X134363510Y-25499785D01*
X134420316Y-25632568D01*
X134478218Y-25769673D01*
X134535407Y-25906798D01*
X134590076Y-26039642D01*
X134640416Y-26163902D01*
X134684620Y-26275275D01*
X134720881Y-26369461D01*
X134747391Y-26442156D01*
X134762342Y-26489059D01*
X134764746Y-26505167D01*
X134745689Y-26525714D01*
X134703964Y-26559067D01*
X134648294Y-26598298D01*
X134643622Y-26601401D01*
X134499736Y-26716577D01*
X134383717Y-26850947D01*
X134296570Y-27000216D01*
X134239301Y-27160087D01*
X134212914Y-27326263D01*
X134218415Y-27494448D01*
X134256810Y-27660345D01*
X134329105Y-27819658D01*
X134350374Y-27854513D01*
X134461004Y-27995263D01*
X134591698Y-28108286D01*
X134737936Y-28192997D01*
X134895192Y-28248806D01*
X135058943Y-28275126D01*
X135224667Y-28271370D01*
X135387838Y-28236950D01*
X135543935Y-28171277D01*
X135688433Y-28073765D01*
X135733131Y-28034187D01*
X135846888Y-27910297D01*
X135929782Y-27779876D01*
X135986644Y-27633685D01*
X136018313Y-27488912D01*
X136026131Y-27326140D01*
X136000062Y-27162560D01*
X135942755Y-27003702D01*
X135856856Y-26855094D01*
X135745014Y-26722265D01*
X135609877Y-26610744D01*
X135592117Y-26598989D01*
X135535850Y-26560492D01*
X135493077Y-26527137D01*
X135472628Y-26505840D01*
X135472331Y-26505167D01*
X135476721Y-26482129D01*
X135494124Y-26429843D01*
X135522732Y-26352610D01*
X135560735Y-26254732D01*
X135606326Y-26140509D01*
X135657697Y-26014242D01*
X135713038Y-25880233D01*
X135770542Y-25742782D01*
X135828399Y-25606192D01*
X135884802Y-25474763D01*
X135937942Y-25352795D01*
X135986010Y-25244591D01*
X136027199Y-25154451D01*
X136059699Y-25086677D01*
X136081703Y-25045570D01*
X136090564Y-25034774D01*
X136117640Y-25043181D01*
X136168303Y-25065728D01*
X136233817Y-25098387D01*
X136269841Y-25117480D01*
X136422832Y-25200200D01*
X136605088Y-25076925D01*
X136698125Y-25013772D01*
X136799985Y-24944273D01*
X136895438Y-24878835D01*
X136943250Y-24845883D01*
X137010495Y-24800727D01*
X137067436Y-24764943D01*
X137106646Y-24743062D01*
X137119381Y-24738437D01*
X137137917Y-24750915D01*
X137178941Y-24785748D01*
X137238475Y-24839322D01*
X137312542Y-24908017D01*
X137397165Y-24988219D01*
X137450685Y-25039714D01*
X137544319Y-25131714D01*
X137625241Y-25214001D01*
X137690177Y-25283055D01*
X137735858Y-25335356D01*
X137759011Y-25367384D01*
X137761232Y-25373884D01*
X137750924Y-25398606D01*
X137722439Y-25448595D01*
X137678937Y-25518788D01*
X137623577Y-25604125D01*
X137559520Y-25699544D01*
X137541303Y-25726146D01*
X137474927Y-25822833D01*
X137415378Y-25909883D01*
X137365984Y-25982405D01*
X137330075Y-26035507D01*
X137310981Y-26064297D01*
X137309136Y-26067274D01*
X137311895Y-26090218D01*
X137326538Y-26140664D01*
X137350513Y-26211959D01*
X137381266Y-26297453D01*
X137416244Y-26390493D01*
X137452893Y-26484426D01*
X137488661Y-26572601D01*
X137520994Y-26648366D01*
X137547338Y-26705069D01*
X137565142Y-26736057D01*
X137566407Y-26737543D01*
X137577294Y-26746399D01*
X137595682Y-26755157D01*
X137625606Y-26764723D01*
X137671103Y-26776004D01*
X137736209Y-26789907D01*
X137824961Y-26807337D01*
X137941393Y-26829202D01*
X138089542Y-26856409D01*
X138121618Y-26862259D01*
X138216686Y-26880626D01*
X138299565Y-26898595D01*
X138362930Y-26914431D01*
X138399458Y-26926400D01*
X138404356Y-26929190D01*
X138412427Y-26953928D01*
X138418987Y-27009210D01*
X138424033Y-27088611D01*
X138427559Y-27185704D01*
X138429561Y-27294062D01*
X138430036Y-27407260D01*
X138428977Y-27518872D01*
X138426382Y-27622471D01*
X138422246Y-27711632D01*
X138416563Y-27779928D01*
X138409331Y-27820934D01*
X138404971Y-27829326D01*
X138380698Y-27837792D01*
X138325426Y-27851565D01*
X138244662Y-27869450D01*
X138143912Y-27890252D01*
X138028683Y-27912777D01*
X137965902Y-27924582D01*
X137846787Y-27946849D01*
X137740565Y-27967021D01*
X137652427Y-27984085D01*
X137587566Y-27997031D01*
X137551174Y-28004845D01*
X137545184Y-28006578D01*
X137535061Y-28026110D01*
X137513662Y-28073157D01*
X137483839Y-28140997D01*
X137448445Y-28222909D01*
X137410332Y-28312172D01*
X137372353Y-28402065D01*
X137337360Y-28485865D01*
X137308206Y-28556853D01*
X137287743Y-28608306D01*
X137278823Y-28633503D01*
X137278657Y-28634604D01*
X137288769Y-28654481D01*
X137317117Y-28700223D01*
X137360723Y-28767283D01*
X137416606Y-28851116D01*
X137481787Y-28947174D01*
X137519679Y-29002350D01*
X137588725Y-29103519D01*
X137650050Y-29195370D01*
X137700663Y-29273256D01*
X137737571Y-29332531D01*
X137757782Y-29368549D01*
X137760701Y-29376623D01*
X137748153Y-29395416D01*
X137713463Y-29435543D01*
X137661063Y-29492507D01*
X137595384Y-29561815D01*
X137520856Y-29638969D01*
X137441913Y-29719475D01*
X137362983Y-29798837D01*
X137288500Y-29872560D01*
X137222894Y-29936148D01*
X137170596Y-29985106D01*
X137136039Y-30014939D01*
X137124478Y-30022058D01*
X137105654Y-30012047D01*
X137060631Y-29983922D01*
X136993787Y-29940546D01*
X136909499Y-29884782D01*
X136812144Y-29819494D01*
X136738707Y-29769754D01*
X136367667Y-29517449D01*
X135749095Y-29772445D01*
X135665275Y-30217069D01*
X135581454Y-30661693D01*
X134656006Y-30661693D01*
X134572186Y-30217069D01*
G37*
X134572186Y-30217069D02*
X134488365Y-29772445D01*
X134179080Y-29644947D01*
X133869794Y-29517449D01*
X133498754Y-29769754D01*
X133394843Y-29840004D01*
X133300913Y-29902728D01*
X133221348Y-29955062D01*
X133160530Y-29994143D01*
X133122843Y-30017107D01*
X133112579Y-30022058D01*
X133094090Y-30009324D01*
X133054580Y-29974118D01*
X132998478Y-29920938D01*
X132930213Y-29854282D01*
X132854214Y-29778646D01*
X132774908Y-29698528D01*
X132696725Y-29618426D01*
X132624093Y-29542836D01*
X132561441Y-29476255D01*
X132513197Y-29423182D01*
X132483790Y-29388113D01*
X132476759Y-29376377D01*
X132486877Y-29354740D01*
X132515241Y-29307338D01*
X132558871Y-29238807D01*
X132614782Y-29153785D01*
X132679994Y-29056907D01*
X132717781Y-29001650D01*
X132786657Y-28900752D01*
X132847860Y-28809701D01*
X132898422Y-28733030D01*
X132935372Y-28675272D01*
X132955742Y-28640957D01*
X132958803Y-28633746D01*
X132951864Y-28613252D01*
X132932949Y-28565487D01*
X132904913Y-28497168D01*
X132870609Y-28415011D01*
X132832891Y-28325730D01*
X132794613Y-28236042D01*
X132758630Y-28152662D01*
X132727794Y-28082306D01*
X132704961Y-28031690D01*
X132692983Y-28007529D01*
X132692276Y-28006578D01*
X132673469Y-28001964D01*
X132623382Y-27991672D01*
X132547207Y-27976713D01*
X132450135Y-27958099D01*
X132337357Y-27936841D01*
X132271558Y-27924582D01*
X132151050Y-27901638D01*
X132042203Y-27879805D01*
X131950524Y-27860278D01*
X131881519Y-27844252D01*
X131840696Y-27832921D01*
X131832489Y-27829326D01*
X131824452Y-27804994D01*
X131817967Y-27750041D01*
X131813030Y-27670892D01*
X131809636Y-27573974D01*
X131807782Y-27465713D01*
X131807462Y-27352535D01*
X131808673Y-27240865D01*
X131811410Y-27137132D01*
X131815669Y-27047759D01*
X131821445Y-26979174D01*
X131828733Y-26937803D01*
X131833105Y-26929190D01*
X131859236Y-26918867D01*
X131914607Y-26904108D01*
X131991893Y-26886648D01*
X132083770Y-26868220D01*
X132115842Y-26862259D01*
X132270476Y-26833934D01*
X132392625Y-26811124D01*
X132486327Y-26792920D01*
X132555616Y-26778417D01*
X132604529Y-26766708D01*
X132637103Y-26756885D01*
X132657372Y-26748044D01*
X132669374Y-26739276D01*
X132671053Y-26737543D01*
X132687816Y-26709629D01*
X132713386Y-26655305D01*
X132745212Y-26581223D01*
X132780740Y-26494035D01*
X132817417Y-26400392D01*
X132852689Y-26306948D01*
X132884004Y-26220353D01*
X132908807Y-26147260D01*
X132924546Y-26094322D01*
X132928668Y-26068189D01*
X132928324Y-26067274D01*
X132914359Y-26045914D01*
X132882678Y-25998916D01*
X132836609Y-25931173D01*
X132779482Y-25847577D01*
X132714627Y-25753018D01*
X132696157Y-25726146D01*
X132630301Y-25628725D01*
X132572350Y-25539837D01*
X132525462Y-25464588D01*
X132492793Y-25408080D01*
X132477500Y-25375419D01*
X132476759Y-25371407D01*
X132489608Y-25350316D01*
X132525112Y-25308536D01*
X132578707Y-25250555D01*
X132645829Y-25180865D01*
X132721913Y-25103955D01*
X132802396Y-25024317D01*
X132882713Y-24946439D01*
X132958301Y-24874814D01*
X133024595Y-24813930D01*
X133077031Y-24768279D01*
X133111045Y-24742350D01*
X133120455Y-24738117D01*
X133142357Y-24748088D01*
X133187200Y-24774980D01*
X133247679Y-24814264D01*
X133294211Y-24845883D01*
X133378525Y-24903902D01*
X133478374Y-24972216D01*
X133578527Y-25040421D01*
X133632373Y-25076925D01*
X133814629Y-25200200D01*
X133967619Y-25117480D01*
X134037318Y-25081241D01*
X134096586Y-25053074D01*
X134136689Y-25037009D01*
X134146897Y-25034774D01*
X134159171Y-25051278D01*
X134183387Y-25097918D01*
X134217737Y-25170391D01*
X134260412Y-25264394D01*
X134309606Y-25375626D01*
X134363510Y-25499785D01*
X134420316Y-25632568D01*
X134478218Y-25769673D01*
X134535407Y-25906798D01*
X134590076Y-26039642D01*
X134640416Y-26163902D01*
X134684620Y-26275275D01*
X134720881Y-26369461D01*
X134747391Y-26442156D01*
X134762342Y-26489059D01*
X134764746Y-26505167D01*
X134745689Y-26525714D01*
X134703964Y-26559067D01*
X134648294Y-26598298D01*
X134643622Y-26601401D01*
X134499736Y-26716577D01*
X134383717Y-26850947D01*
X134296570Y-27000216D01*
X134239301Y-27160087D01*
X134212914Y-27326263D01*
X134218415Y-27494448D01*
X134256810Y-27660345D01*
X134329105Y-27819658D01*
X134350374Y-27854513D01*
X134461004Y-27995263D01*
X134591698Y-28108286D01*
X134737936Y-28192997D01*
X134895192Y-28248806D01*
X135058943Y-28275126D01*
X135224667Y-28271370D01*
X135387838Y-28236950D01*
X135543935Y-28171277D01*
X135688433Y-28073765D01*
X135733131Y-28034187D01*
X135846888Y-27910297D01*
X135929782Y-27779876D01*
X135986644Y-27633685D01*
X136018313Y-27488912D01*
X136026131Y-27326140D01*
X136000062Y-27162560D01*
X135942755Y-27003702D01*
X135856856Y-26855094D01*
X135745014Y-26722265D01*
X135609877Y-26610744D01*
X135592117Y-26598989D01*
X135535850Y-26560492D01*
X135493077Y-26527137D01*
X135472628Y-26505840D01*
X135472331Y-26505167D01*
X135476721Y-26482129D01*
X135494124Y-26429843D01*
X135522732Y-26352610D01*
X135560735Y-26254732D01*
X135606326Y-26140509D01*
X135657697Y-26014242D01*
X135713038Y-25880233D01*
X135770542Y-25742782D01*
X135828399Y-25606192D01*
X135884802Y-25474763D01*
X135937942Y-25352795D01*
X135986010Y-25244591D01*
X136027199Y-25154451D01*
X136059699Y-25086677D01*
X136081703Y-25045570D01*
X136090564Y-25034774D01*
X136117640Y-25043181D01*
X136168303Y-25065728D01*
X136233817Y-25098387D01*
X136269841Y-25117480D01*
X136422832Y-25200200D01*
X136605088Y-25076925D01*
X136698125Y-25013772D01*
X136799985Y-24944273D01*
X136895438Y-24878835D01*
X136943250Y-24845883D01*
X137010495Y-24800727D01*
X137067436Y-24764943D01*
X137106646Y-24743062D01*
X137119381Y-24738437D01*
X137137917Y-24750915D01*
X137178941Y-24785748D01*
X137238475Y-24839322D01*
X137312542Y-24908017D01*
X137397165Y-24988219D01*
X137450685Y-25039714D01*
X137544319Y-25131714D01*
X137625241Y-25214001D01*
X137690177Y-25283055D01*
X137735858Y-25335356D01*
X137759011Y-25367384D01*
X137761232Y-25373884D01*
X137750924Y-25398606D01*
X137722439Y-25448595D01*
X137678937Y-25518788D01*
X137623577Y-25604125D01*
X137559520Y-25699544D01*
X137541303Y-25726146D01*
X137474927Y-25822833D01*
X137415378Y-25909883D01*
X137365984Y-25982405D01*
X137330075Y-26035507D01*
X137310981Y-26064297D01*
X137309136Y-26067274D01*
X137311895Y-26090218D01*
X137326538Y-26140664D01*
X137350513Y-26211959D01*
X137381266Y-26297453D01*
X137416244Y-26390493D01*
X137452893Y-26484426D01*
X137488661Y-26572601D01*
X137520994Y-26648366D01*
X137547338Y-26705069D01*
X137565142Y-26736057D01*
X137566407Y-26737543D01*
X137577294Y-26746399D01*
X137595682Y-26755157D01*
X137625606Y-26764723D01*
X137671103Y-26776004D01*
X137736209Y-26789907D01*
X137824961Y-26807337D01*
X137941393Y-26829202D01*
X138089542Y-26856409D01*
X138121618Y-26862259D01*
X138216686Y-26880626D01*
X138299565Y-26898595D01*
X138362930Y-26914431D01*
X138399458Y-26926400D01*
X138404356Y-26929190D01*
X138412427Y-26953928D01*
X138418987Y-27009210D01*
X138424033Y-27088611D01*
X138427559Y-27185704D01*
X138429561Y-27294062D01*
X138430036Y-27407260D01*
X138428977Y-27518872D01*
X138426382Y-27622471D01*
X138422246Y-27711632D01*
X138416563Y-27779928D01*
X138409331Y-27820934D01*
X138404971Y-27829326D01*
X138380698Y-27837792D01*
X138325426Y-27851565D01*
X138244662Y-27869450D01*
X138143912Y-27890252D01*
X138028683Y-27912777D01*
X137965902Y-27924582D01*
X137846787Y-27946849D01*
X137740565Y-27967021D01*
X137652427Y-27984085D01*
X137587566Y-27997031D01*
X137551174Y-28004845D01*
X137545184Y-28006578D01*
X137535061Y-28026110D01*
X137513662Y-28073157D01*
X137483839Y-28140997D01*
X137448445Y-28222909D01*
X137410332Y-28312172D01*
X137372353Y-28402065D01*
X137337360Y-28485865D01*
X137308206Y-28556853D01*
X137287743Y-28608306D01*
X137278823Y-28633503D01*
X137278657Y-28634604D01*
X137288769Y-28654481D01*
X137317117Y-28700223D01*
X137360723Y-28767283D01*
X137416606Y-28851116D01*
X137481787Y-28947174D01*
X137519679Y-29002350D01*
X137588725Y-29103519D01*
X137650050Y-29195370D01*
X137700663Y-29273256D01*
X137737571Y-29332531D01*
X137757782Y-29368549D01*
X137760701Y-29376623D01*
X137748153Y-29395416D01*
X137713463Y-29435543D01*
X137661063Y-29492507D01*
X137595384Y-29561815D01*
X137520856Y-29638969D01*
X137441913Y-29719475D01*
X137362983Y-29798837D01*
X137288500Y-29872560D01*
X137222894Y-29936148D01*
X137170596Y-29985106D01*
X137136039Y-30014939D01*
X137124478Y-30022058D01*
X137105654Y-30012047D01*
X137060631Y-29983922D01*
X136993787Y-29940546D01*
X136909499Y-29884782D01*
X136812144Y-29819494D01*
X136738707Y-29769754D01*
X136367667Y-29517449D01*
X135749095Y-29772445D01*
X135665275Y-30217069D01*
X135581454Y-30661693D01*
X134656006Y-30661693D01*
X134572186Y-30217069D01*
D10*
X150729000Y-28611000D02*
X146829000Y-28611000D01*
X150729000Y-40611000D02*
X146829000Y-40611000D01*
X150729000Y-28611000D02*
X150729000Y-40611000D01*
X146829000Y-28611000D02*
X146829000Y-40611000D01*
X140057000Y-37556000D02*
X143957000Y-37556000D01*
X140057000Y-25556000D02*
X143957000Y-25556000D01*
X140057000Y-37556000D02*
X140057000Y-25556000D01*
X143957000Y-37556000D02*
X143957000Y-25556000D01*
X133157000Y-43271000D02*
X137057000Y-43271000D01*
X133157000Y-31271000D02*
X137057000Y-31271000D01*
X133157000Y-43271000D02*
X133157000Y-31271000D01*
X137057000Y-43271000D02*
X137057000Y-31271000D01*
X171407000Y-34366000D02*
X171407000Y-28266000D01*
X155907000Y-34366000D02*
X155907000Y-28266000D01*
X171407000Y-34366000D02*
X155907000Y-34366000D01*
X171407000Y-28266000D02*
X155907000Y-28266000D01*
X174657000Y-40412000D02*
X174657000Y-35112000D01*
X153157000Y-40412000D02*
X153157000Y-35112000D01*
X174657000Y-40412000D02*
X153157000Y-40412000D01*
X174657000Y-35112000D02*
X153157000Y-35112000D01*
D12*
X177307000Y-26515000D02*
X177307000Y-27015000D01*
X178047000Y-26515000D02*
X177307000Y-26515000D01*
X181184000Y-38288000D02*
X181138000Y-38241000D01*
X183482000Y-40585000D02*
X183446000Y-40550000D01*
X180968000Y-38481000D02*
X180933000Y-38446000D01*
X183276000Y-40790000D02*
X183230000Y-40743000D01*
X181184000Y-33208000D02*
X181138000Y-33161000D01*
X183482000Y-35505000D02*
X183446000Y-35470000D01*
X180968000Y-33401000D02*
X180933000Y-33366000D01*
X183276000Y-35710000D02*
X183230000Y-35663000D01*
X187468000Y-42115000D02*
X177547000Y-42115000D01*
X187468000Y-26755000D02*
X177547000Y-26755000D01*
X177547000Y-26755000D02*
X177547000Y-42115000D01*
X187468000Y-26755000D02*
X187468000Y-42115000D01*
X184508000Y-26755000D02*
X184508000Y-42115000D01*
X179607000Y-26755000D02*
X179607000Y-42115000D01*
X178107000Y-26755000D02*
X178107000Y-42115000D01*
X183887000Y-39515000D02*
G75*
G03X183887000Y-39515000I-1680000J0D01*
G01*
X183887000Y-34435000D02*
G75*
G03X183887000Y-34435000I-1680000J0D01*
G01*
X180526747Y-29383805D02*
G75*
G02X180672000Y-28671000I1680253J28805D01*
G01*
X181523958Y-27819574D02*
G75*
G02X182891000Y-27820000I683042J-1535426D01*
G01*
X183742426Y-28671958D02*
G75*
G02X183742000Y-30039000I-1535426J-683042D01*
G01*
X182890042Y-30890426D02*
G75*
G02X181523000Y-30890000I-683042J1535426D01*
G01*
X180672244Y-30038318D02*
G75*
G02X180527000Y-29355000I1534756J683318D01*
G01*
X130557000Y-42355000D02*
X130557000Y-41855000D01*
X129817000Y-42355000D02*
X130557000Y-42355000D01*
X126680000Y-30582000D02*
X126726000Y-30629000D01*
X124382000Y-28285000D02*
X124418000Y-28320000D01*
X126896000Y-30389000D02*
X126931000Y-30424000D01*
X124588000Y-28080000D02*
X124634000Y-28127000D01*
X126680000Y-35662000D02*
X126726000Y-35709000D01*
X124382000Y-33365000D02*
X124418000Y-33400000D01*
X126896000Y-35469000D02*
X126931000Y-35504000D01*
X124588000Y-33160000D02*
X124634000Y-33207000D01*
X120396000Y-26755000D02*
X130317000Y-26755000D01*
X120396000Y-42115000D02*
X130317000Y-42115000D01*
X130317000Y-42115000D02*
X130317000Y-26755000D01*
X120396000Y-42115000D02*
X120396000Y-26755000D01*
X123356000Y-42115000D02*
X123356000Y-26755000D01*
X128257000Y-42115000D02*
X128257000Y-26755000D01*
X129757000Y-42115000D02*
X129757000Y-26755000D01*
X127337000Y-29355000D02*
G75*
G03X127337000Y-29355000I-1680000J0D01*
G01*
X127337000Y-34435000D02*
G75*
G03X127337000Y-34435000I-1680000J0D01*
G01*
X127337253Y-39486195D02*
G75*
G02X127192000Y-40199000I-1680253J-28805D01*
G01*
X126340042Y-41050426D02*
G75*
G02X124973000Y-41050000I-683042J1535426D01*
G01*
X124121574Y-40198042D02*
G75*
G02X124122000Y-38831000I1535426J683042D01*
G01*
X124973958Y-37979574D02*
G75*
G02X126341000Y-37980000I683042J-1535426D01*
G01*
X127191756Y-38831682D02*
G75*
G02X127337000Y-39515000I-1534756J-683318D01*
G01*
D10*
X149550380Y-103140238D02*
X149074190Y-103473571D01*
X149550380Y-103711666D02*
X148550380Y-103711666D01*
X148550380Y-103330714D01*
X148598000Y-103235476D01*
X148645619Y-103187857D01*
X148740857Y-103140238D01*
X148883714Y-103140238D01*
X148978952Y-103187857D01*
X149026571Y-103235476D01*
X149074190Y-103330714D01*
X149074190Y-103711666D01*
X148550380Y-102854523D02*
X149550380Y-102521190D01*
X148550380Y-102187857D01*
X148645619Y-101902142D02*
X148598000Y-101854523D01*
X148550380Y-101759285D01*
X148550380Y-101521190D01*
X148598000Y-101425952D01*
X148645619Y-101378333D01*
X148740857Y-101330714D01*
X148836095Y-101330714D01*
X148978952Y-101378333D01*
X149550380Y-101949761D01*
X149550380Y-101330714D01*
X149550380Y-83140238D02*
X149074190Y-83473571D01*
X149550380Y-83711666D02*
X148550380Y-83711666D01*
X148550380Y-83330714D01*
X148598000Y-83235476D01*
X148645619Y-83187857D01*
X148740857Y-83140238D01*
X148883714Y-83140238D01*
X148978952Y-83187857D01*
X149026571Y-83235476D01*
X149074190Y-83330714D01*
X149074190Y-83711666D01*
X148550380Y-82854523D02*
X149550380Y-82521190D01*
X148550380Y-82187857D01*
X148645619Y-81902142D02*
X148598000Y-81854523D01*
X148550380Y-81759285D01*
X148550380Y-81521190D01*
X148598000Y-81425952D01*
X148645619Y-81378333D01*
X148740857Y-81330714D01*
X148836095Y-81330714D01*
X148978952Y-81378333D01*
X149550380Y-81949761D01*
X149550380Y-81330714D01*
X149550380Y-63140238D02*
X149074190Y-63473571D01*
X149550380Y-63711666D02*
X148550380Y-63711666D01*
X148550380Y-63330714D01*
X148598000Y-63235476D01*
X148645619Y-63187857D01*
X148740857Y-63140238D01*
X148883714Y-63140238D01*
X148978952Y-63187857D01*
X149026571Y-63235476D01*
X149074190Y-63330714D01*
X149074190Y-63711666D01*
X148550380Y-62854523D02*
X149550380Y-62521190D01*
X148550380Y-62187857D01*
X148645619Y-61902142D02*
X148598000Y-61854523D01*
X148550380Y-61759285D01*
X148550380Y-61521190D01*
X148598000Y-61425952D01*
X148645619Y-61378333D01*
X148740857Y-61330714D01*
X148836095Y-61330714D01*
X148978952Y-61378333D01*
X149550380Y-61949761D01*
X149550380Y-61330714D01*
X125182380Y-103767333D02*
X125896666Y-103767333D01*
X126039523Y-103814952D01*
X126134761Y-103910190D01*
X126182380Y-104053047D01*
X126182380Y-104148285D01*
X126182380Y-102767333D02*
X126182380Y-103338761D01*
X126182380Y-103053047D02*
X125182380Y-103053047D01*
X125325238Y-103148285D01*
X125420476Y-103243523D01*
X125468095Y-103338761D01*
X125182380Y-83767333D02*
X125896666Y-83767333D01*
X126039523Y-83814952D01*
X126134761Y-83910190D01*
X126182380Y-84053047D01*
X126182380Y-84148285D01*
X126182380Y-82767333D02*
X126182380Y-83338761D01*
X126182380Y-83053047D02*
X125182380Y-83053047D01*
X125325238Y-83148285D01*
X125420476Y-83243523D01*
X125468095Y-83338761D01*
X125182380Y-63767333D02*
X125896666Y-63767333D01*
X126039523Y-63814952D01*
X126134761Y-63910190D01*
X126182380Y-64053047D01*
X126182380Y-64148285D01*
X126182380Y-62767333D02*
X126182380Y-63338761D01*
X126182380Y-63053047D02*
X125182380Y-63053047D01*
X125325238Y-63148285D01*
X125420476Y-63243523D01*
X125468095Y-63338761D01*
X139009380Y-103394238D02*
X138533190Y-103727571D01*
X139009380Y-103965666D02*
X138009380Y-103965666D01*
X138009380Y-103584714D01*
X138057000Y-103489476D01*
X138104619Y-103441857D01*
X138199857Y-103394238D01*
X138342714Y-103394238D01*
X138437952Y-103441857D01*
X138485571Y-103489476D01*
X138533190Y-103584714D01*
X138533190Y-103965666D01*
X138009380Y-103108523D02*
X139009380Y-102775190D01*
X138009380Y-102441857D01*
X138009380Y-102203761D02*
X138009380Y-101584714D01*
X138390333Y-101918047D01*
X138390333Y-101775190D01*
X138437952Y-101679952D01*
X138485571Y-101632333D01*
X138580809Y-101584714D01*
X138818904Y-101584714D01*
X138914142Y-101632333D01*
X138961761Y-101679952D01*
X139009380Y-101775190D01*
X139009380Y-102060904D01*
X138961761Y-102156142D01*
X138914142Y-102203761D01*
X139009380Y-83394238D02*
X138533190Y-83727571D01*
X139009380Y-83965666D02*
X138009380Y-83965666D01*
X138009380Y-83584714D01*
X138057000Y-83489476D01*
X138104619Y-83441857D01*
X138199857Y-83394238D01*
X138342714Y-83394238D01*
X138437952Y-83441857D01*
X138485571Y-83489476D01*
X138533190Y-83584714D01*
X138533190Y-83965666D01*
X138009380Y-83108523D02*
X139009380Y-82775190D01*
X138009380Y-82441857D01*
X138009380Y-82203761D02*
X138009380Y-81584714D01*
X138390333Y-81918047D01*
X138390333Y-81775190D01*
X138437952Y-81679952D01*
X138485571Y-81632333D01*
X138580809Y-81584714D01*
X138818904Y-81584714D01*
X138914142Y-81632333D01*
X138961761Y-81679952D01*
X139009380Y-81775190D01*
X139009380Y-82060904D01*
X138961761Y-82156142D01*
X138914142Y-82203761D01*
X139009380Y-63394238D02*
X138533190Y-63727571D01*
X139009380Y-63965666D02*
X138009380Y-63965666D01*
X138009380Y-63584714D01*
X138057000Y-63489476D01*
X138104619Y-63441857D01*
X138199857Y-63394238D01*
X138342714Y-63394238D01*
X138437952Y-63441857D01*
X138485571Y-63489476D01*
X138533190Y-63584714D01*
X138533190Y-63965666D01*
X138009380Y-63108523D02*
X139009380Y-62775190D01*
X138009380Y-62441857D01*
X138009380Y-62203761D02*
X138009380Y-61584714D01*
X138390333Y-61918047D01*
X138390333Y-61775190D01*
X138437952Y-61679952D01*
X138485571Y-61632333D01*
X138580809Y-61584714D01*
X138818904Y-61584714D01*
X138914142Y-61632333D01*
X138961761Y-61679952D01*
X139009380Y-61775190D01*
X139009380Y-62060904D01*
X138961761Y-62156142D01*
X138914142Y-62203761D01*
X142311380Y-99965238D02*
X141835190Y-100298571D01*
X142311380Y-100536666D02*
X141311380Y-100536666D01*
X141311380Y-100155714D01*
X141359000Y-100060476D01*
X141406619Y-100012857D01*
X141501857Y-99965238D01*
X141644714Y-99965238D01*
X141739952Y-100012857D01*
X141787571Y-100060476D01*
X141835190Y-100155714D01*
X141835190Y-100536666D01*
X141311380Y-99679523D02*
X142311380Y-99346190D01*
X141311380Y-99012857D01*
X142311380Y-98155714D02*
X142311380Y-98727142D01*
X142311380Y-98441428D02*
X141311380Y-98441428D01*
X141454238Y-98536666D01*
X141549476Y-98631904D01*
X141597095Y-98727142D01*
X142311380Y-79965238D02*
X141835190Y-80298571D01*
X142311380Y-80536666D02*
X141311380Y-80536666D01*
X141311380Y-80155714D01*
X141359000Y-80060476D01*
X141406619Y-80012857D01*
X141501857Y-79965238D01*
X141644714Y-79965238D01*
X141739952Y-80012857D01*
X141787571Y-80060476D01*
X141835190Y-80155714D01*
X141835190Y-80536666D01*
X141311380Y-79679523D02*
X142311380Y-79346190D01*
X141311380Y-79012857D01*
X142311380Y-78155714D02*
X142311380Y-78727142D01*
X142311380Y-78441428D02*
X141311380Y-78441428D01*
X141454238Y-78536666D01*
X141549476Y-78631904D01*
X141597095Y-78727142D01*
X142311380Y-59965238D02*
X141835190Y-60298571D01*
X142311380Y-60536666D02*
X141311380Y-60536666D01*
X141311380Y-60155714D01*
X141359000Y-60060476D01*
X141406619Y-60012857D01*
X141501857Y-59965238D01*
X141644714Y-59965238D01*
X141739952Y-60012857D01*
X141787571Y-60060476D01*
X141835190Y-60155714D01*
X141835190Y-60536666D01*
X141311380Y-59679523D02*
X142311380Y-59346190D01*
X141311380Y-59012857D01*
X142311380Y-58155714D02*
X142311380Y-58727142D01*
X142311380Y-58441428D02*
X141311380Y-58441428D01*
X141454238Y-58536666D01*
X141549476Y-58631904D01*
X141597095Y-58727142D01*
X172172380Y-92273714D02*
X172172380Y-91702285D01*
X173172380Y-91988000D02*
X172172380Y-91988000D01*
X173172380Y-91368952D02*
X172172380Y-91368952D01*
X172648571Y-91368952D02*
X172648571Y-90797523D01*
X173172380Y-90797523D02*
X172172380Y-90797523D01*
X172267619Y-90368952D02*
X172220000Y-90321333D01*
X172172380Y-90226095D01*
X172172380Y-89988000D01*
X172220000Y-89892761D01*
X172267619Y-89845142D01*
X172362857Y-89797523D01*
X172458095Y-89797523D01*
X172600952Y-89845142D01*
X173172380Y-90416571D01*
X173172380Y-89797523D01*
X172172380Y-72273714D02*
X172172380Y-71702285D01*
X173172380Y-71988000D02*
X172172380Y-71988000D01*
X173172380Y-71368952D02*
X172172380Y-71368952D01*
X172648571Y-71368952D02*
X172648571Y-70797523D01*
X173172380Y-70797523D02*
X172172380Y-70797523D01*
X172267619Y-70368952D02*
X172220000Y-70321333D01*
X172172380Y-70226095D01*
X172172380Y-69988000D01*
X172220000Y-69892761D01*
X172267619Y-69845142D01*
X172362857Y-69797523D01*
X172458095Y-69797523D01*
X172600952Y-69845142D01*
X173172380Y-70416571D01*
X173172380Y-69797523D01*
X172172380Y-52273714D02*
X172172380Y-51702285D01*
X173172380Y-51988000D02*
X172172380Y-51988000D01*
X173172380Y-51368952D02*
X172172380Y-51368952D01*
X172648571Y-51368952D02*
X172648571Y-50797523D01*
X173172380Y-50797523D02*
X172172380Y-50797523D01*
X172267619Y-50368952D02*
X172220000Y-50321333D01*
X172172380Y-50226095D01*
X172172380Y-49988000D01*
X172220000Y-49892761D01*
X172267619Y-49845142D01*
X172362857Y-49797523D01*
X172458095Y-49797523D01*
X172600952Y-49845142D01*
X173172380Y-50416571D01*
X173172380Y-49797523D01*
X175220380Y-99258714D02*
X175220380Y-98687285D01*
X176220380Y-98973000D02*
X175220380Y-98973000D01*
X176220380Y-98353952D02*
X175220380Y-98353952D01*
X175696571Y-98353952D02*
X175696571Y-97782523D01*
X176220380Y-97782523D02*
X175220380Y-97782523D01*
X176220380Y-96782523D02*
X176220380Y-97353952D01*
X176220380Y-97068238D02*
X175220380Y-97068238D01*
X175363238Y-97163476D01*
X175458476Y-97258714D01*
X175506095Y-97353952D01*
X175220380Y-79258714D02*
X175220380Y-78687285D01*
X176220380Y-78973000D02*
X175220380Y-78973000D01*
X176220380Y-78353952D02*
X175220380Y-78353952D01*
X175696571Y-78353952D02*
X175696571Y-77782523D01*
X176220380Y-77782523D02*
X175220380Y-77782523D01*
X176220380Y-76782523D02*
X176220380Y-77353952D01*
X176220380Y-77068238D02*
X175220380Y-77068238D01*
X175363238Y-77163476D01*
X175458476Y-77258714D01*
X175506095Y-77353952D01*
X175220380Y-59258714D02*
X175220380Y-58687285D01*
X176220380Y-58973000D02*
X175220380Y-58973000D01*
X176220380Y-58353952D02*
X175220380Y-58353952D01*
X175696571Y-58353952D02*
X175696571Y-57782523D01*
X176220380Y-57782523D02*
X175220380Y-57782523D01*
X176220380Y-56782523D02*
X176220380Y-57353952D01*
X176220380Y-57068238D02*
X175220380Y-57068238D01*
X175363238Y-57163476D01*
X175458476Y-57258714D01*
X175506095Y-57353952D01*
X181824380Y-103767333D02*
X182538666Y-103767333D01*
X182681523Y-103814952D01*
X182776761Y-103910190D01*
X182824380Y-104053047D01*
X182824380Y-104148285D01*
X181919619Y-103338761D02*
X181872000Y-103291142D01*
X181824380Y-103195904D01*
X181824380Y-102957809D01*
X181872000Y-102862571D01*
X181919619Y-102814952D01*
X182014857Y-102767333D01*
X182110095Y-102767333D01*
X182252952Y-102814952D01*
X182824380Y-103386380D01*
X182824380Y-102767333D01*
X181824380Y-83767333D02*
X182538666Y-83767333D01*
X182681523Y-83814952D01*
X182776761Y-83910190D01*
X182824380Y-84053047D01*
X182824380Y-84148285D01*
X181919619Y-83338761D02*
X181872000Y-83291142D01*
X181824380Y-83195904D01*
X181824380Y-82957809D01*
X181872000Y-82862571D01*
X181919619Y-82814952D01*
X182014857Y-82767333D01*
X182110095Y-82767333D01*
X182252952Y-82814952D01*
X182824380Y-83386380D01*
X182824380Y-82767333D01*
X181824380Y-63767333D02*
X182538666Y-63767333D01*
X182681523Y-63814952D01*
X182776761Y-63910190D01*
X182824380Y-64053047D01*
X182824380Y-64148285D01*
X181919619Y-63338761D02*
X181872000Y-63291142D01*
X181824380Y-63195904D01*
X181824380Y-62957809D01*
X181872000Y-62862571D01*
X181919619Y-62814952D01*
X182014857Y-62767333D01*
X182110095Y-62767333D01*
X182252952Y-62814952D01*
X182824380Y-63386380D01*
X182824380Y-62767333D01*
X149550380Y-43140238D02*
X149074190Y-43473571D01*
X149550380Y-43711666D02*
X148550380Y-43711666D01*
X148550380Y-43330714D01*
X148598000Y-43235476D01*
X148645619Y-43187857D01*
X148740857Y-43140238D01*
X148883714Y-43140238D01*
X148978952Y-43187857D01*
X149026571Y-43235476D01*
X149074190Y-43330714D01*
X149074190Y-43711666D01*
X148550380Y-42854523D02*
X149550380Y-42521190D01*
X148550380Y-42187857D01*
X148645619Y-41902142D02*
X148598000Y-41854523D01*
X148550380Y-41759285D01*
X148550380Y-41521190D01*
X148598000Y-41425952D01*
X148645619Y-41378333D01*
X148740857Y-41330714D01*
X148836095Y-41330714D01*
X148978952Y-41378333D01*
X149550380Y-41949761D01*
X149550380Y-41330714D01*
X142311380Y-39965238D02*
X141835190Y-40298571D01*
X142311380Y-40536666D02*
X141311380Y-40536666D01*
X141311380Y-40155714D01*
X141359000Y-40060476D01*
X141406619Y-40012857D01*
X141501857Y-39965238D01*
X141644714Y-39965238D01*
X141739952Y-40012857D01*
X141787571Y-40060476D01*
X141835190Y-40155714D01*
X141835190Y-40536666D01*
X141311380Y-39679523D02*
X142311380Y-39346190D01*
X141311380Y-39012857D01*
X142311380Y-38155714D02*
X142311380Y-38727142D01*
X142311380Y-38441428D02*
X141311380Y-38441428D01*
X141454238Y-38536666D01*
X141549476Y-38631904D01*
X141597095Y-38727142D01*
X139009380Y-43394238D02*
X138533190Y-43727571D01*
X139009380Y-43965666D02*
X138009380Y-43965666D01*
X138009380Y-43584714D01*
X138057000Y-43489476D01*
X138104619Y-43441857D01*
X138199857Y-43394238D01*
X138342714Y-43394238D01*
X138437952Y-43441857D01*
X138485571Y-43489476D01*
X138533190Y-43584714D01*
X138533190Y-43965666D01*
X138009380Y-43108523D02*
X139009380Y-42775190D01*
X138009380Y-42441857D01*
X138009380Y-42203761D02*
X138009380Y-41584714D01*
X138390333Y-41918047D01*
X138390333Y-41775190D01*
X138437952Y-41679952D01*
X138485571Y-41632333D01*
X138580809Y-41584714D01*
X138818904Y-41584714D01*
X138914142Y-41632333D01*
X138961761Y-41679952D01*
X139009380Y-41775190D01*
X139009380Y-42060904D01*
X138961761Y-42156142D01*
X138914142Y-42203761D01*
X172172380Y-32273714D02*
X172172380Y-31702285D01*
X173172380Y-31988000D02*
X172172380Y-31988000D01*
X173172380Y-31368952D02*
X172172380Y-31368952D01*
X172648571Y-31368952D02*
X172648571Y-30797523D01*
X173172380Y-30797523D02*
X172172380Y-30797523D01*
X172267619Y-30368952D02*
X172220000Y-30321333D01*
X172172380Y-30226095D01*
X172172380Y-29988000D01*
X172220000Y-29892761D01*
X172267619Y-29845142D01*
X172362857Y-29797523D01*
X172458095Y-29797523D01*
X172600952Y-29845142D01*
X173172380Y-30416571D01*
X173172380Y-29797523D01*
X175220380Y-39258714D02*
X175220380Y-38687285D01*
X176220380Y-38973000D02*
X175220380Y-38973000D01*
X176220380Y-38353952D02*
X175220380Y-38353952D01*
X175696571Y-38353952D02*
X175696571Y-37782523D01*
X176220380Y-37782523D02*
X175220380Y-37782523D01*
X176220380Y-36782523D02*
X176220380Y-37353952D01*
X176220380Y-37068238D02*
X175220380Y-37068238D01*
X175363238Y-37163476D01*
X175458476Y-37258714D01*
X175506095Y-37353952D01*
X181824380Y-43767333D02*
X182538666Y-43767333D01*
X182681523Y-43814952D01*
X182776761Y-43910190D01*
X182824380Y-44053047D01*
X182824380Y-44148285D01*
X181919619Y-43338761D02*
X181872000Y-43291142D01*
X181824380Y-43195904D01*
X181824380Y-42957809D01*
X181872000Y-42862571D01*
X181919619Y-42814952D01*
X182014857Y-42767333D01*
X182110095Y-42767333D01*
X182252952Y-42814952D01*
X182824380Y-43386380D01*
X182824380Y-42767333D01*
X125182380Y-43767333D02*
X125896666Y-43767333D01*
X126039523Y-43814952D01*
X126134761Y-43910190D01*
X126182380Y-44053047D01*
X126182380Y-44148285D01*
X126182380Y-42767333D02*
X126182380Y-43338761D01*
X126182380Y-43053047D02*
X125182380Y-43053047D01*
X125325238Y-43148285D01*
X125420476Y-43243523D01*
X125468095Y-43338761D01*
M02*
