%TF.GenerationSoftware,KiCad,Pcbnew,6.0.11-2627ca5db0~126~ubuntu20.04.1*%
%TF.CreationDate,2024-09-22T13:49:42-05:00*%
%TF.ProjectId,modbus_rtu_mirror_base_88x37x59mm,6d6f6462-7573-45f7-9274-755f6d697272,rev?*%
%TF.SameCoordinates,Original*%
%TF.FileFunction,Legend,Bot*%
%TF.FilePolarity,Positive*%
%FSLAX46Y46*%
G04 Gerber Fmt 4.6, Leading zero omitted, Abs format (unit mm)*
G04 Created by KiCad (PCBNEW 6.0.11-2627ca5db0~126~ubuntu20.04.1) date 2024-09-22 13:49:42*
%MOMM*%
%LPD*%
G01*
G04 APERTURE LIST*
%TA.AperFunction,Profile*%
%ADD10C,0.100000*%
%TD*%
%ADD11C,0.200000*%
G04 APERTURE END LIST*
D10*
X133000000Y-101500000D02*
X149000000Y-101500000D01*
X149000000Y-131000000D02*
X149000000Y-129500000D01*
X149000000Y-100000000D02*
X149000000Y-101500000D01*
X133000000Y-129500000D02*
X149000000Y-129500000D01*
X100000000Y-100000000D02*
X100000000Y-131000000D01*
X100000000Y-131000000D02*
X133000000Y-131000000D01*
X182000000Y-100000000D02*
X182000000Y-131000000D01*
X149000000Y-131000000D02*
X182000000Y-131000000D01*
X100000000Y-100000000D02*
X133000000Y-100000000D01*
X133000000Y-100000000D02*
X133000000Y-101500000D01*
X133000000Y-131000000D02*
X133000000Y-129500000D01*
X149000000Y-100000000D02*
X182000000Y-100000000D01*
D11*
X112836523Y-101317904D02*
X112836523Y-100517904D01*
X112569857Y-101089333D01*
X112303190Y-100517904D01*
X112303190Y-101317904D01*
X111769857Y-100517904D02*
X111617476Y-100517904D01*
X111541285Y-100556000D01*
X111465095Y-100632190D01*
X111427000Y-100784571D01*
X111427000Y-101051238D01*
X111465095Y-101203619D01*
X111541285Y-101279809D01*
X111617476Y-101317904D01*
X111769857Y-101317904D01*
X111846047Y-101279809D01*
X111922238Y-101203619D01*
X111960333Y-101051238D01*
X111960333Y-100784571D01*
X111922238Y-100632190D01*
X111846047Y-100556000D01*
X111769857Y-100517904D01*
X111084142Y-101317904D02*
X111084142Y-100517904D01*
X110893666Y-100517904D01*
X110779380Y-100556000D01*
X110703190Y-100632190D01*
X110665095Y-100708380D01*
X110627000Y-100860761D01*
X110627000Y-100975047D01*
X110665095Y-101127428D01*
X110703190Y-101203619D01*
X110779380Y-101279809D01*
X110893666Y-101317904D01*
X111084142Y-101317904D01*
X110017476Y-100898857D02*
X109903190Y-100936952D01*
X109865095Y-100975047D01*
X109827000Y-101051238D01*
X109827000Y-101165523D01*
X109865095Y-101241714D01*
X109903190Y-101279809D01*
X109979380Y-101317904D01*
X110284142Y-101317904D01*
X110284142Y-100517904D01*
X110017476Y-100517904D01*
X109941285Y-100556000D01*
X109903190Y-100594095D01*
X109865095Y-100670285D01*
X109865095Y-100746476D01*
X109903190Y-100822666D01*
X109941285Y-100860761D01*
X110017476Y-100898857D01*
X110284142Y-100898857D01*
X109484142Y-100517904D02*
X109484142Y-101165523D01*
X109446047Y-101241714D01*
X109407952Y-101279809D01*
X109331761Y-101317904D01*
X109179380Y-101317904D01*
X109103190Y-101279809D01*
X109065095Y-101241714D01*
X109027000Y-101165523D01*
X109027000Y-100517904D01*
X108684142Y-101279809D02*
X108569857Y-101317904D01*
X108379380Y-101317904D01*
X108303190Y-101279809D01*
X108265095Y-101241714D01*
X108227000Y-101165523D01*
X108227000Y-101089333D01*
X108265095Y-101013142D01*
X108303190Y-100975047D01*
X108379380Y-100936952D01*
X108531761Y-100898857D01*
X108607952Y-100860761D01*
X108646047Y-100822666D01*
X108684142Y-100746476D01*
X108684142Y-100670285D01*
X108646047Y-100594095D01*
X108607952Y-100556000D01*
X108531761Y-100517904D01*
X108341285Y-100517904D01*
X108227000Y-100556000D01*
X106817476Y-101317904D02*
X107084142Y-100936952D01*
X107274619Y-101317904D02*
X107274619Y-100517904D01*
X106969857Y-100517904D01*
X106893666Y-100556000D01*
X106855571Y-100594095D01*
X106817476Y-100670285D01*
X106817476Y-100784571D01*
X106855571Y-100860761D01*
X106893666Y-100898857D01*
X106969857Y-100936952D01*
X107274619Y-100936952D01*
X106588904Y-100517904D02*
X106131761Y-100517904D01*
X106360333Y-101317904D02*
X106360333Y-100517904D01*
X105865095Y-100517904D02*
X105865095Y-101165523D01*
X105827000Y-101241714D01*
X105788904Y-101279809D01*
X105712714Y-101317904D01*
X105560333Y-101317904D01*
X105484142Y-101279809D01*
X105446047Y-101241714D01*
X105407952Y-101165523D01*
X105407952Y-100517904D01*
X104417476Y-101317904D02*
X104417476Y-100517904D01*
X104150809Y-101089333D01*
X103884142Y-100517904D01*
X103884142Y-101317904D01*
X103503190Y-101317904D02*
X103503190Y-100517904D01*
X102665095Y-101317904D02*
X102931761Y-100936952D01*
X103122238Y-101317904D02*
X103122238Y-100517904D01*
X102817476Y-100517904D01*
X102741285Y-100556000D01*
X102703190Y-100594095D01*
X102665095Y-100670285D01*
X102665095Y-100784571D01*
X102703190Y-100860761D01*
X102741285Y-100898857D01*
X102817476Y-100936952D01*
X103122238Y-100936952D01*
X101865095Y-101317904D02*
X102131761Y-100936952D01*
X102322238Y-101317904D02*
X102322238Y-100517904D01*
X102017476Y-100517904D01*
X101941285Y-100556000D01*
X101903190Y-100594095D01*
X101865095Y-100670285D01*
X101865095Y-100784571D01*
X101903190Y-100860761D01*
X101941285Y-100898857D01*
X102017476Y-100936952D01*
X102322238Y-100936952D01*
X101369857Y-100517904D02*
X101217476Y-100517904D01*
X101141285Y-100556000D01*
X101065095Y-100632190D01*
X101026999Y-100784571D01*
X101026999Y-101051238D01*
X101065095Y-101203619D01*
X101141285Y-101279809D01*
X101217476Y-101317904D01*
X101369857Y-101317904D01*
X101446047Y-101279809D01*
X101522238Y-101203619D01*
X101560333Y-101051238D01*
X101560333Y-100784571D01*
X101522238Y-100632190D01*
X101446047Y-100556000D01*
X101369857Y-100517904D01*
X100226999Y-101317904D02*
X100493666Y-100936952D01*
X100684142Y-101317904D02*
X100684142Y-100517904D01*
X100379380Y-100517904D01*
X100303190Y-100556000D01*
X100265095Y-100594095D01*
X100226999Y-100670285D01*
X100226999Y-100784571D01*
X100265095Y-100860761D01*
X100303190Y-100898857D01*
X100379380Y-100936952D01*
X100684142Y-100936952D01*
X112569857Y-102186857D02*
X112455571Y-102224952D01*
X112417476Y-102263047D01*
X112379380Y-102339238D01*
X112379380Y-102453523D01*
X112417476Y-102529714D01*
X112455571Y-102567809D01*
X112531761Y-102605904D01*
X112836523Y-102605904D01*
X112836523Y-101805904D01*
X112569857Y-101805904D01*
X112493666Y-101844000D01*
X112455571Y-101882095D01*
X112417476Y-101958285D01*
X112417476Y-102034476D01*
X112455571Y-102110666D01*
X112493666Y-102148761D01*
X112569857Y-102186857D01*
X112836523Y-102186857D01*
X112074619Y-102377333D02*
X111693666Y-102377333D01*
X112150809Y-102605904D02*
X111884142Y-101805904D01*
X111617476Y-102605904D01*
X111388904Y-102567809D02*
X111274619Y-102605904D01*
X111084142Y-102605904D01*
X111007952Y-102567809D01*
X110969857Y-102529714D01*
X110931761Y-102453523D01*
X110931761Y-102377333D01*
X110969857Y-102301142D01*
X111007952Y-102263047D01*
X111084142Y-102224952D01*
X111236523Y-102186857D01*
X111312714Y-102148761D01*
X111350809Y-102110666D01*
X111388904Y-102034476D01*
X111388904Y-101958285D01*
X111350809Y-101882095D01*
X111312714Y-101844000D01*
X111236523Y-101805904D01*
X111046047Y-101805904D01*
X110931761Y-101844000D01*
X110588904Y-102186857D02*
X110322238Y-102186857D01*
X110207952Y-102605904D02*
X110588904Y-102605904D01*
X110588904Y-101805904D01*
X110207952Y-101805904D01*
M02*
