%TF.GenerationSoftware,KiCad,Pcbnew,6.0.11-2627ca5db0~126~ubuntu20.04.1*%
%TF.CreationDate,2024-09-22T13:49:41-05:00*%
%TF.ProjectId,modbus_rtu_mirror_base_88x37x59mm,6d6f6462-7573-45f7-9274-755f6d697272,rev?*%
%TF.SameCoordinates,Original*%
%TF.FileFunction,Copper,L2,Bot*%
%TF.FilePolarity,Positive*%
%FSLAX46Y46*%
G04 Gerber Fmt 4.6, Leading zero omitted, Abs format (unit mm)*
G04 Created by KiCad (PCBNEW 6.0.11-2627ca5db0~126~ubuntu20.04.1) date 2024-09-22 13:49:41*
%MOMM*%
%LPD*%
G01*
G04 APERTURE LIST*
%TA.AperFunction,Profile*%
%ADD10C,0.100000*%
%TD*%
%TA.AperFunction,ComponentPad*%
%ADD11R,2.500000X2.500000*%
%TD*%
%TA.AperFunction,ComponentPad*%
%ADD12C,2.500000*%
%TD*%
%TA.AperFunction,ComponentPad*%
%ADD13R,1.700000X1.700000*%
%TD*%
%TA.AperFunction,ComponentPad*%
%ADD14O,1.700000X1.700000*%
%TD*%
%TA.AperFunction,ComponentPad*%
%ADD15R,2.300000X2.000000*%
%TD*%
%TA.AperFunction,ComponentPad*%
%ADD16C,2.300000*%
%TD*%
%TA.AperFunction,ViaPad*%
%ADD17C,0.800000*%
%TD*%
%TA.AperFunction,Conductor*%
%ADD18C,0.250000*%
%TD*%
%TA.AperFunction,Conductor*%
%ADD19C,1.000000*%
%TD*%
G04 APERTURE END LIST*
D10*
X133000000Y-101500000D02*
X149000000Y-101500000D01*
X149000000Y-131000000D02*
X149000000Y-129500000D01*
X149000000Y-100000000D02*
X149000000Y-101500000D01*
X133000000Y-129500000D02*
X149000000Y-129500000D01*
X100000000Y-100000000D02*
X100000000Y-131000000D01*
X100000000Y-131000000D02*
X133000000Y-131000000D01*
X182000000Y-100000000D02*
X182000000Y-131000000D01*
X149000000Y-131000000D02*
X182000000Y-131000000D01*
X100000000Y-100000000D02*
X133000000Y-100000000D01*
X133000000Y-100000000D02*
X133000000Y-101500000D01*
X133000000Y-131000000D02*
X133000000Y-129500000D01*
X149000000Y-100000000D02*
X182000000Y-100000000D01*
D11*
%TO.P,J3,1,Pin_1*%
%TO.N,/RS485_1_A*%
X178000000Y-118000000D03*
D12*
%TO.P,J3,2,Pin_2*%
%TO.N,/RS485_1_B*%
X178000000Y-113000000D03*
%TD*%
D11*
%TO.P,J2,1,Pin_1*%
%TO.N,/RS485_1_A*%
X178000000Y-128000000D03*
D12*
%TO.P,J2,2,Pin_2*%
%TO.N,/RS485_1_B*%
X178000000Y-123000000D03*
%TD*%
D13*
%TO.P,J5,1,Pin_1*%
%TO.N,+5V*%
X158780000Y-103505000D03*
D14*
%TO.P,J5,2,Pin_2*%
%TO.N,GND*%
X156240000Y-103505000D03*
%TO.P,J5,3,Pin_3*%
%TO.N,Net-(U2-Pad1)*%
X153700000Y-103505000D03*
%TO.P,J5,4,Pin_4*%
%TO.N,Net-(U2-Pad3)*%
X151160000Y-103505000D03*
%TD*%
D11*
%TO.P,J1,1,Pin_1*%
%TO.N,Net-(PS1-Pad1)*%
X104000000Y-113000000D03*
D12*
%TO.P,J1,2,Pin_2*%
%TO.N,Net-(PS1-Pad2)*%
X104000000Y-118000000D03*
%TD*%
D11*
%TO.P,J4,1,Pin_1*%
%TO.N,/RS485_2_A*%
X178000000Y-108000000D03*
D12*
%TO.P,J4,2,Pin_2*%
%TO.N,/RS485_2_B*%
X178000000Y-103000000D03*
%TD*%
D15*
%TO.P,PS1,1,AC/L*%
%TO.N,Net-(PS1-Pad1)*%
X112395000Y-115951000D03*
D16*
%TO.P,PS1,2,AC/N*%
%TO.N,Net-(PS1-Pad2)*%
X112395000Y-120951000D03*
%TO.P,PS1,3,-Vout*%
%TO.N,GND*%
X141795000Y-110751000D03*
%TO.P,PS1,4,+Vout*%
%TO.N,+5V*%
X141795000Y-126151000D03*
%TD*%
D13*
%TO.P,J6,1,Pin_1*%
%TO.N,Net-(U2-Pad4)*%
X130840000Y-103505000D03*
D14*
%TO.P,J6,2,Pin_2*%
%TO.N,Net-(J6-Pad2)*%
X128300000Y-103505000D03*
%TO.P,J6,3,Pin_3*%
%TO.N,Net-(J6-Pad3)*%
X125760000Y-103505000D03*
%TO.P,J6,4,Pin_4*%
%TO.N,Net-(J6-Pad4)*%
X123220000Y-103505000D03*
%TD*%
D17*
%TO.N,GND*%
X158015500Y-118717300D03*
X156585500Y-113576900D03*
%TO.N,/RS485_1_A*%
X172720000Y-119380000D03*
X173482000Y-116840000D03*
%TO.N,/RS485_1_B*%
X160147000Y-126492000D03*
X169164000Y-123444000D03*
%TO.N,/RS485_2_B*%
X161290000Y-110654500D03*
X161290000Y-112141000D03*
X163703000Y-121539000D03*
%TO.N,+5V*%
X158496000Y-108458000D03*
%TO.N,Net-(R1-Pad1)*%
X163576000Y-129159000D03*
X175260000Y-119507000D03*
%TO.N,Net-(R4-Pad1)*%
X162052000Y-121673100D03*
X172593000Y-106172000D03*
%TO.N,Net-(R5-Pad1)*%
X165481000Y-109220000D03*
X153107354Y-121983244D03*
%TO.N,Net-(R6-Pad2)*%
X155194000Y-122428000D03*
X168656000Y-114681000D03*
%TD*%
D18*
%TO.N,GND*%
X156585500Y-117287300D02*
X156585500Y-113576900D01*
X153759600Y-110751000D02*
X156585500Y-113576900D01*
X141795000Y-110751000D02*
X153759600Y-110751000D01*
X156718000Y-107792600D02*
X156718000Y-103983000D01*
X156718000Y-103983000D02*
X156240000Y-103505000D01*
X158015500Y-118717300D02*
X156585500Y-117287300D01*
X153759600Y-110751000D02*
X156718000Y-107792600D01*
%TO.N,/RS485_1_A*%
X179575300Y-124849400D02*
X179575300Y-121150600D01*
X179575300Y-121150600D02*
X178000000Y-119575300D01*
X178000000Y-118000000D02*
X178000000Y-119575300D01*
X178000000Y-128000000D02*
X178000000Y-126424700D01*
X172720000Y-119380000D02*
X172720000Y-117602000D01*
X178000000Y-126424700D02*
X179575300Y-124849400D01*
X172720000Y-117602000D02*
X173482000Y-116840000D01*
%TO.N,/RS485_1_B*%
X176424600Y-114575400D02*
X176424600Y-121424600D01*
X178000000Y-113000000D02*
X176424600Y-114575400D01*
X162179000Y-126238000D02*
X165735000Y-122682000D01*
X160147000Y-126492000D02*
X160401000Y-126238000D01*
X176424600Y-121424600D02*
X178000000Y-123000000D01*
X168402000Y-122682000D02*
X169164000Y-123444000D01*
X165735000Y-122682000D02*
X168402000Y-122682000D01*
X160401000Y-126238000D02*
X162179000Y-126238000D01*
%TO.N,/RS485_2_B*%
X165082500Y-120159500D02*
X165082500Y-115917500D01*
X161290000Y-112141000D02*
X161290000Y-110654500D01*
X163703000Y-121539000D02*
X165082500Y-120159500D01*
X165082500Y-115917500D02*
X178000000Y-103000000D01*
%TO.N,+5V*%
X158496000Y-108458000D02*
X158780000Y-108174000D01*
X158780000Y-108174000D02*
X158780000Y-103505000D01*
%TO.N,Net-(R1-Pad1)*%
X175260000Y-126746000D02*
X175260000Y-119507000D01*
X164338000Y-129921000D02*
X172085000Y-129921000D01*
X163576000Y-129159000D02*
X164338000Y-129921000D01*
X172085000Y-129921000D02*
X175260000Y-126746000D01*
%TO.N,Net-(R4-Pad1)*%
X163726200Y-113187000D02*
X163726200Y-119998900D01*
X163726200Y-119998900D02*
X162052000Y-121673100D01*
X172593000Y-106172000D02*
X170741200Y-106172000D01*
X170741200Y-106172000D02*
X163726200Y-113187000D01*
%TO.N,Net-(R5-Pad1)*%
X159766000Y-112395000D02*
X159766000Y-110998000D01*
X153670000Y-121539000D02*
X153797000Y-121412000D01*
X153107354Y-121983244D02*
X153225756Y-121983244D01*
X153797000Y-121412000D02*
X156972000Y-121412000D01*
X159766000Y-118618000D02*
X159766000Y-112395000D01*
X159766000Y-110998000D02*
X161544000Y-109220000D01*
X153225756Y-121983244D02*
X153670000Y-121539000D01*
X161544000Y-109220000D02*
X165481000Y-109220000D01*
X156972000Y-121412000D02*
X159766000Y-118618000D01*
%TO.N,Net-(R6-Pad2)*%
X167513000Y-118872000D02*
X163957000Y-122428000D01*
X168656000Y-114681000D02*
X167513000Y-115824000D01*
X163957000Y-122428000D02*
X155194000Y-122428000D01*
X167513000Y-115824000D02*
X167513000Y-118872000D01*
D19*
%TO.N,Net-(PS1-Pad1)*%
X112395000Y-114681000D02*
X112395000Y-115951000D01*
X104000000Y-113000000D02*
X110714000Y-113000000D01*
X110714000Y-113000000D02*
X112395000Y-114681000D01*
%TO.N,Net-(PS1-Pad2)*%
X104982000Y-120951000D02*
X112395000Y-120951000D01*
X104000000Y-118000000D02*
X104000000Y-120129000D01*
X104000000Y-120129000D02*
X104902000Y-121031000D01*
X104902000Y-121031000D02*
X104982000Y-120951000D01*
%TD*%
%TA.AperFunction,Conductor*%
%TO.N,GND*%
G36*
X132941121Y-100021002D02*
G01*
X132987614Y-100074658D01*
X132999000Y-100127000D01*
X132999000Y-101499802D01*
X132998918Y-101500000D01*
X132999000Y-101500198D01*
X132999235Y-101500765D01*
X133000000Y-101501082D01*
X133000198Y-101501000D01*
X148999802Y-101501000D01*
X149000000Y-101501082D01*
X149000765Y-101500765D01*
X149001000Y-101500198D01*
X149001082Y-101500000D01*
X149001000Y-101499802D01*
X149001000Y-100127000D01*
X149021002Y-100058879D01*
X149074658Y-100012386D01*
X149127000Y-100001000D01*
X181873000Y-100001000D01*
X181941121Y-100021002D01*
X181987614Y-100074658D01*
X181999000Y-100127000D01*
X181999000Y-130873000D01*
X181978998Y-130941121D01*
X181925342Y-130987614D01*
X181873000Y-130999000D01*
X149127000Y-130999000D01*
X149058879Y-130978998D01*
X149012386Y-130925342D01*
X149001000Y-130873000D01*
X149001000Y-129500198D01*
X149001082Y-129500000D01*
X149000765Y-129499235D01*
X149000198Y-129499000D01*
X149000000Y-129498918D01*
X148999802Y-129499000D01*
X133000198Y-129499000D01*
X133000000Y-129498918D01*
X132999802Y-129499000D01*
X132999235Y-129499235D01*
X132998918Y-129500000D01*
X132999000Y-129500198D01*
X132999000Y-130873000D01*
X132978998Y-130941121D01*
X132925342Y-130987614D01*
X132873000Y-130999000D01*
X121795661Y-130999000D01*
X121727540Y-130978998D01*
X121681047Y-130925342D01*
X121669663Y-130872340D01*
X121672971Y-130240509D01*
X121678633Y-129159000D01*
X162970318Y-129159000D01*
X162990956Y-129315762D01*
X163051464Y-129461841D01*
X163147718Y-129587282D01*
X163273159Y-129683536D01*
X163419238Y-129744044D01*
X163576000Y-129764682D01*
X163642843Y-129755882D01*
X163712990Y-129766821D01*
X163748383Y-129791709D01*
X164093889Y-130137215D01*
X164101315Y-130145318D01*
X164125545Y-130174194D01*
X164135094Y-130179707D01*
X164158185Y-130193039D01*
X164167456Y-130198945D01*
X164198316Y-130220554D01*
X164208966Y-130223408D01*
X164212134Y-130224885D01*
X164215410Y-130226077D01*
X164224955Y-130231588D01*
X164258699Y-130237538D01*
X164262058Y-130238130D01*
X164272785Y-130240508D01*
X164309193Y-130250264D01*
X164320169Y-130249304D01*
X164320172Y-130249304D01*
X164346743Y-130246979D01*
X164357724Y-130246500D01*
X172065290Y-130246500D01*
X172076272Y-130246980D01*
X172102820Y-130249303D01*
X172102822Y-130249303D01*
X172113807Y-130250264D01*
X172150215Y-130240508D01*
X172160942Y-130238130D01*
X172164301Y-130237538D01*
X172198045Y-130231588D01*
X172207590Y-130226077D01*
X172210866Y-130224885D01*
X172214034Y-130223408D01*
X172224684Y-130220554D01*
X172255544Y-130198945D01*
X172264815Y-130193039D01*
X172287906Y-130179707D01*
X172297455Y-130174194D01*
X172321685Y-130145317D01*
X172329111Y-130137215D01*
X175476215Y-126990111D01*
X175484319Y-126982684D01*
X175504749Y-126965541D01*
X175513194Y-126958455D01*
X175518707Y-126948906D01*
X175532039Y-126925815D01*
X175537945Y-126916544D01*
X175553230Y-126894715D01*
X175559554Y-126885684D01*
X175562408Y-126875034D01*
X175563885Y-126871866D01*
X175565077Y-126868590D01*
X175570588Y-126859045D01*
X175577130Y-126821942D01*
X175579509Y-126811210D01*
X175582140Y-126801392D01*
X175589264Y-126774807D01*
X175585980Y-126737272D01*
X175585500Y-126726290D01*
X175585500Y-120076286D01*
X175605502Y-120008165D01*
X175634796Y-119976323D01*
X175681736Y-119940305D01*
X175688282Y-119935282D01*
X175784536Y-119809841D01*
X175845044Y-119663762D01*
X175848178Y-119639957D01*
X175876900Y-119575029D01*
X175936166Y-119535938D01*
X176007157Y-119535093D01*
X176067336Y-119572763D01*
X176097595Y-119636989D01*
X176099100Y-119656403D01*
X176099100Y-121404890D01*
X176098620Y-121415872D01*
X176095336Y-121453407D01*
X176098190Y-121464056D01*
X176105091Y-121489810D01*
X176107470Y-121500542D01*
X176114012Y-121537645D01*
X176119522Y-121547188D01*
X176120715Y-121550466D01*
X176122192Y-121553634D01*
X176125046Y-121564284D01*
X176131370Y-121573315D01*
X176146655Y-121595144D01*
X176152561Y-121604415D01*
X176165893Y-121627506D01*
X176171406Y-121637055D01*
X176200282Y-121661285D01*
X176208385Y-121668711D01*
X176699559Y-122159885D01*
X176733585Y-122222197D01*
X176728520Y-122293012D01*
X176724751Y-122302031D01*
X176636232Y-122492727D01*
X176636228Y-122492739D01*
X176634051Y-122497428D01*
X176570309Y-122727272D01*
X176569760Y-122732409D01*
X176549770Y-122919464D01*
X176544963Y-122964440D01*
X176545260Y-122969592D01*
X176545260Y-122969596D01*
X176558396Y-123197403D01*
X176558397Y-123197409D01*
X176558694Y-123202562D01*
X176611131Y-123435245D01*
X176613075Y-123440032D01*
X176613076Y-123440036D01*
X176675015Y-123592574D01*
X176700867Y-123656239D01*
X176825493Y-123859609D01*
X176981660Y-124039894D01*
X177165176Y-124192252D01*
X177371112Y-124312591D01*
X177593937Y-124397680D01*
X177599005Y-124398711D01*
X177599008Y-124398712D01*
X177714267Y-124422162D01*
X177827666Y-124445233D01*
X177832839Y-124445423D01*
X177832842Y-124445423D01*
X178060861Y-124453784D01*
X178060865Y-124453784D01*
X178066025Y-124453973D01*
X178071146Y-124453317D01*
X178297489Y-124424321D01*
X178297490Y-124424321D01*
X178302609Y-124423665D01*
X178531068Y-124355125D01*
X178745264Y-124250191D01*
X178826492Y-124192252D01*
X178935242Y-124114681D01*
X178939445Y-124111683D01*
X178943104Y-124108037D01*
X179034860Y-124016601D01*
X179097232Y-123982685D01*
X179168039Y-123987873D01*
X179224800Y-124030519D01*
X179249494Y-124097083D01*
X179249800Y-124105852D01*
X179249800Y-124662384D01*
X179229798Y-124730505D01*
X179212895Y-124751479D01*
X177783785Y-126180589D01*
X177775681Y-126188016D01*
X177746806Y-126212245D01*
X177741293Y-126221794D01*
X177727961Y-126244885D01*
X177722055Y-126254156D01*
X177700446Y-126285016D01*
X177697592Y-126295666D01*
X177696115Y-126298834D01*
X177694923Y-126302110D01*
X177689412Y-126311655D01*
X177685401Y-126334405D01*
X177682870Y-126348758D01*
X177680492Y-126359485D01*
X177670736Y-126395893D01*
X177672191Y-126412517D01*
X177658204Y-126482120D01*
X177608807Y-126533114D01*
X177546671Y-126549500D01*
X176730252Y-126549500D01*
X176724184Y-126550707D01*
X176683939Y-126558712D01*
X176683938Y-126558712D01*
X176671769Y-126561133D01*
X176605448Y-126605448D01*
X176561133Y-126671769D01*
X176549500Y-126730252D01*
X176549500Y-129269748D01*
X176561133Y-129328231D01*
X176605448Y-129394552D01*
X176671769Y-129438867D01*
X176683938Y-129441288D01*
X176683939Y-129441288D01*
X176724184Y-129449293D01*
X176730252Y-129450500D01*
X179269748Y-129450500D01*
X179275816Y-129449293D01*
X179316061Y-129441288D01*
X179316062Y-129441288D01*
X179328231Y-129438867D01*
X179394552Y-129394552D01*
X179438867Y-129328231D01*
X179450500Y-129269748D01*
X179450500Y-126730252D01*
X179438867Y-126671769D01*
X179394552Y-126605448D01*
X179328231Y-126561133D01*
X179316062Y-126558712D01*
X179316061Y-126558712D01*
X179275816Y-126550707D01*
X179269748Y-126549500D01*
X178639716Y-126549500D01*
X178571595Y-126529498D01*
X178525102Y-126475842D01*
X178514998Y-126405568D01*
X178544492Y-126340988D01*
X178550621Y-126334405D01*
X179791515Y-125093511D01*
X179799619Y-125086084D01*
X179814157Y-125073885D01*
X179828494Y-125061855D01*
X179838398Y-125044701D01*
X179847339Y-125029215D01*
X179853245Y-125019944D01*
X179868530Y-124998115D01*
X179874854Y-124989084D01*
X179877708Y-124978434D01*
X179879185Y-124975266D01*
X179880377Y-124971990D01*
X179885888Y-124962445D01*
X179892430Y-124925342D01*
X179894809Y-124914610D01*
X179894999Y-124913902D01*
X179904564Y-124878207D01*
X179901279Y-124840657D01*
X179900800Y-124829676D01*
X179900800Y-121170310D01*
X179901280Y-121159328D01*
X179903603Y-121132780D01*
X179903603Y-121132778D01*
X179904564Y-121121793D01*
X179894808Y-121085385D01*
X179892430Y-121074658D01*
X179891153Y-121067418D01*
X179885888Y-121037555D01*
X179880377Y-121028010D01*
X179879185Y-121024734D01*
X179877708Y-121021566D01*
X179874854Y-121010916D01*
X179853245Y-120980056D01*
X179847339Y-120970785D01*
X179834007Y-120947694D01*
X179828494Y-120938145D01*
X179799617Y-120913915D01*
X179791515Y-120906489D01*
X178550621Y-119665595D01*
X178516595Y-119603283D01*
X178521660Y-119532468D01*
X178564207Y-119475632D01*
X178630727Y-119450821D01*
X178639716Y-119450500D01*
X179269748Y-119450500D01*
X179275816Y-119449293D01*
X179316061Y-119441288D01*
X179316062Y-119441288D01*
X179328231Y-119438867D01*
X179394552Y-119394552D01*
X179438867Y-119328231D01*
X179450500Y-119269748D01*
X179450500Y-116730252D01*
X179438867Y-116671769D01*
X179394552Y-116605448D01*
X179328231Y-116561133D01*
X179316062Y-116558712D01*
X179316061Y-116558712D01*
X179275816Y-116550707D01*
X179269748Y-116549500D01*
X176876100Y-116549500D01*
X176807979Y-116529498D01*
X176761486Y-116475842D01*
X176750100Y-116423500D01*
X176750100Y-114762416D01*
X176770102Y-114694295D01*
X176787005Y-114673321D01*
X177161386Y-114298940D01*
X177223698Y-114264914D01*
X177294513Y-114269979D01*
X177314041Y-114279242D01*
X177371112Y-114312591D01*
X177593937Y-114397680D01*
X177599005Y-114398711D01*
X177599008Y-114398712D01*
X177714267Y-114422162D01*
X177827666Y-114445233D01*
X177832839Y-114445423D01*
X177832842Y-114445423D01*
X178060861Y-114453784D01*
X178060865Y-114453784D01*
X178066025Y-114453973D01*
X178071146Y-114453317D01*
X178297489Y-114424321D01*
X178297490Y-114424321D01*
X178302609Y-114423665D01*
X178531068Y-114355125D01*
X178745264Y-114250191D01*
X178939445Y-114111683D01*
X178974856Y-114076396D01*
X179104736Y-113946968D01*
X179108397Y-113943320D01*
X179247582Y-113749623D01*
X179279648Y-113684744D01*
X179350969Y-113540437D01*
X179350970Y-113540435D01*
X179353263Y-113535795D01*
X179422600Y-113307577D01*
X179425583Y-113284921D01*
X179453296Y-113074421D01*
X179453297Y-113074414D01*
X179453733Y-113071099D01*
X179455179Y-113011946D01*
X179455389Y-113003364D01*
X179455389Y-113003360D01*
X179455471Y-113000000D01*
X179447755Y-112906143D01*
X179436351Y-112767435D01*
X179436350Y-112767429D01*
X179435927Y-112762284D01*
X179406874Y-112646618D01*
X179379080Y-112535963D01*
X179379079Y-112535959D01*
X179377821Y-112530952D01*
X179365415Y-112502420D01*
X179284772Y-112316953D01*
X179284770Y-112316950D01*
X179282712Y-112312216D01*
X179153155Y-112111951D01*
X179142040Y-112099735D01*
X178996107Y-111939358D01*
X178996105Y-111939357D01*
X178992629Y-111935536D01*
X178988578Y-111932337D01*
X178988574Y-111932333D01*
X178809500Y-111790909D01*
X178809496Y-111790907D01*
X178805445Y-111787707D01*
X178766125Y-111766001D01*
X178669602Y-111712718D01*
X178596631Y-111672436D01*
X178591762Y-111670712D01*
X178591758Y-111670710D01*
X178376663Y-111594541D01*
X178376661Y-111594540D01*
X178371794Y-111592817D01*
X178253325Y-111571714D01*
X178142060Y-111551894D01*
X178142056Y-111551894D01*
X178136972Y-111550988D01*
X178053140Y-111549964D01*
X177903640Y-111548137D01*
X177903638Y-111548137D01*
X177898471Y-111548074D01*
X177662698Y-111584153D01*
X177435982Y-111658255D01*
X177431394Y-111660643D01*
X177431390Y-111660645D01*
X177229003Y-111766001D01*
X177224414Y-111768390D01*
X177220281Y-111771493D01*
X177220278Y-111771495D01*
X177140216Y-111831608D01*
X177033675Y-111911602D01*
X176868887Y-112084042D01*
X176865973Y-112088314D01*
X176865972Y-112088315D01*
X176852459Y-112108125D01*
X176734475Y-112281082D01*
X176634051Y-112497428D01*
X176570309Y-112727272D01*
X176569760Y-112732409D01*
X176546850Y-112946786D01*
X176544963Y-112964440D01*
X176545260Y-112969592D01*
X176545260Y-112969596D01*
X176558396Y-113197403D01*
X176558397Y-113197409D01*
X176558694Y-113202562D01*
X176559831Y-113207606D01*
X176597333Y-113374016D01*
X176611131Y-113435245D01*
X176613075Y-113440032D01*
X176613076Y-113440036D01*
X176651960Y-113535795D01*
X176700867Y-113656239D01*
X176718337Y-113684747D01*
X176736875Y-113753277D01*
X176715419Y-113820954D01*
X176699999Y-113839675D01*
X176208385Y-114331289D01*
X176200281Y-114338716D01*
X176171406Y-114362945D01*
X176165893Y-114372494D01*
X176152561Y-114395585D01*
X176146655Y-114404856D01*
X176125046Y-114435716D01*
X176122192Y-114446366D01*
X176120715Y-114449534D01*
X176119523Y-114452810D01*
X176114012Y-114462355D01*
X176108062Y-114496099D01*
X176107470Y-114499458D01*
X176105092Y-114510185D01*
X176095336Y-114546593D01*
X176096297Y-114557578D01*
X176096297Y-114557580D01*
X176098620Y-114584128D01*
X176099100Y-114595110D01*
X176099100Y-119357597D01*
X176079098Y-119425718D01*
X176025442Y-119472211D01*
X175955168Y-119482315D01*
X175890588Y-119452821D01*
X175852204Y-119393095D01*
X175848178Y-119374043D01*
X175846122Y-119358426D01*
X175845044Y-119350238D01*
X175784536Y-119204159D01*
X175688282Y-119078718D01*
X175562841Y-118982464D01*
X175416762Y-118921956D01*
X175260000Y-118901318D01*
X175103238Y-118921956D01*
X174957159Y-118982464D01*
X174831718Y-119078718D01*
X174735464Y-119204159D01*
X174674956Y-119350238D01*
X174654318Y-119507000D01*
X174674956Y-119663762D01*
X174735464Y-119809841D01*
X174831718Y-119935282D01*
X174838264Y-119940305D01*
X174885204Y-119976323D01*
X174927071Y-120033661D01*
X174934500Y-120076286D01*
X174934500Y-126558984D01*
X174914498Y-126627105D01*
X174897595Y-126648079D01*
X171987079Y-129558595D01*
X171924767Y-129592621D01*
X171897984Y-129595500D01*
X164525016Y-129595500D01*
X164456895Y-129575498D01*
X164435921Y-129558595D01*
X164208709Y-129331383D01*
X164174683Y-129269071D01*
X164172882Y-129225842D01*
X164180604Y-129167188D01*
X164181682Y-129159000D01*
X164161044Y-129002238D01*
X164100536Y-128856159D01*
X164004282Y-128730718D01*
X163878841Y-128634464D01*
X163732762Y-128573956D01*
X163576000Y-128553318D01*
X163419238Y-128573956D01*
X163273159Y-128634464D01*
X163147718Y-128730718D01*
X163051464Y-128856159D01*
X162990956Y-129002238D01*
X162970318Y-129159000D01*
X121678633Y-129159000D01*
X121694382Y-126151000D01*
X140439341Y-126151000D01*
X140459937Y-126386408D01*
X140461361Y-126391722D01*
X140461361Y-126391723D01*
X140508397Y-126567264D01*
X140521097Y-126614663D01*
X140523419Y-126619643D01*
X140523420Y-126619645D01*
X140617754Y-126821942D01*
X140620965Y-126828829D01*
X140756505Y-127022401D01*
X140923599Y-127189495D01*
X140928107Y-127192652D01*
X140928110Y-127192654D01*
X141112661Y-127321878D01*
X141117170Y-127325035D01*
X141122152Y-127327358D01*
X141122157Y-127327361D01*
X141266736Y-127394779D01*
X141331337Y-127424903D01*
X141336645Y-127426325D01*
X141336647Y-127426326D01*
X141554277Y-127484639D01*
X141559592Y-127486063D01*
X141795000Y-127506659D01*
X142030408Y-127486063D01*
X142035723Y-127484639D01*
X142253353Y-127426326D01*
X142253355Y-127426325D01*
X142258663Y-127424903D01*
X142323264Y-127394779D01*
X142467843Y-127327361D01*
X142467848Y-127327358D01*
X142472830Y-127325035D01*
X142477339Y-127321878D01*
X142661890Y-127192654D01*
X142661893Y-127192652D01*
X142666401Y-127189495D01*
X142833495Y-127022401D01*
X142969035Y-126828829D01*
X142972247Y-126821942D01*
X143066580Y-126619645D01*
X143066581Y-126619643D01*
X143068903Y-126614663D01*
X143081604Y-126567264D01*
X143101770Y-126492000D01*
X159541318Y-126492000D01*
X159561956Y-126648762D01*
X159622464Y-126794841D01*
X159718718Y-126920282D01*
X159844159Y-127016536D01*
X159990238Y-127077044D01*
X160147000Y-127097682D01*
X160155188Y-127096604D01*
X160295574Y-127078122D01*
X160303762Y-127077044D01*
X160449841Y-127016536D01*
X160575282Y-126920282D01*
X160671536Y-126794841D01*
X160732044Y-126648762D01*
X160733370Y-126649311D01*
X160759058Y-126607165D01*
X164747866Y-126607165D01*
X164782952Y-126864970D01*
X164784260Y-126869456D01*
X164784260Y-126869458D01*
X164791622Y-126894715D01*
X164855758Y-127114757D01*
X164964686Y-127351039D01*
X164967246Y-127354944D01*
X164967249Y-127354949D01*
X165104775Y-127564712D01*
X165104779Y-127564717D01*
X165107341Y-127568625D01*
X165280591Y-127762735D01*
X165480629Y-127929105D01*
X165703061Y-128064080D01*
X165707375Y-128065889D01*
X165707377Y-128065890D01*
X165938686Y-128162886D01*
X165938691Y-128162888D01*
X165943001Y-128164695D01*
X165947533Y-128165846D01*
X165947536Y-128165847D01*
X166072815Y-128197663D01*
X166195177Y-128228739D01*
X166411286Y-128250500D01*
X166566044Y-128250500D01*
X166568369Y-128250327D01*
X166568375Y-128250327D01*
X166754814Y-128236472D01*
X166754818Y-128236471D01*
X166759466Y-128236126D01*
X167013232Y-128178705D01*
X167017586Y-128177012D01*
X167251370Y-128086098D01*
X167251372Y-128086097D01*
X167255723Y-128084405D01*
X167291285Y-128064080D01*
X167339038Y-128036786D01*
X167481612Y-127955299D01*
X167685936Y-127794223D01*
X167864208Y-127604714D01*
X167988948Y-127424903D01*
X168009846Y-127394779D01*
X168009848Y-127394776D01*
X168012511Y-127390937D01*
X168030258Y-127354949D01*
X168125521Y-127161775D01*
X168125522Y-127161772D01*
X168127586Y-127157587D01*
X168206906Y-126909792D01*
X168248728Y-126652994D01*
X168251224Y-126462318D01*
X168252073Y-126397512D01*
X168252073Y-126397509D01*
X168252134Y-126392835D01*
X168217048Y-126135030D01*
X168144242Y-125885243D01*
X168035314Y-125648961D01*
X168006637Y-125605221D01*
X167895225Y-125435288D01*
X167895221Y-125435283D01*
X167892659Y-125431375D01*
X167719409Y-125237265D01*
X167519371Y-125070895D01*
X167296939Y-124935920D01*
X167292623Y-124934110D01*
X167061314Y-124837114D01*
X167061309Y-124837112D01*
X167056999Y-124835305D01*
X167052467Y-124834154D01*
X167052464Y-124834153D01*
X166899639Y-124795341D01*
X166804823Y-124771261D01*
X166588714Y-124749500D01*
X166433956Y-124749500D01*
X166431631Y-124749673D01*
X166431625Y-124749673D01*
X166245186Y-124763528D01*
X166245182Y-124763529D01*
X166240534Y-124763874D01*
X165986768Y-124821295D01*
X165982416Y-124822987D01*
X165982414Y-124822988D01*
X165748630Y-124913902D01*
X165748628Y-124913903D01*
X165744277Y-124915595D01*
X165740223Y-124917912D01*
X165740221Y-124917913D01*
X165704467Y-124938348D01*
X165518388Y-125044701D01*
X165314064Y-125205777D01*
X165135792Y-125395286D01*
X164987489Y-125609063D01*
X164985423Y-125613253D01*
X164985421Y-125613256D01*
X164948889Y-125687337D01*
X164872414Y-125842413D01*
X164870992Y-125846856D01*
X164870991Y-125846858D01*
X164847235Y-125921072D01*
X164793094Y-126090208D01*
X164782302Y-126156475D01*
X164753189Y-126335238D01*
X164751272Y-126347006D01*
X164750756Y-126386408D01*
X164747979Y-126598557D01*
X164747866Y-126607165D01*
X160759058Y-126607165D01*
X160765699Y-126596269D01*
X160829558Y-126565245D01*
X160850457Y-126563500D01*
X162159290Y-126563500D01*
X162170272Y-126563980D01*
X162196820Y-126566303D01*
X162196822Y-126566303D01*
X162207807Y-126567264D01*
X162244215Y-126557508D01*
X162254942Y-126555130D01*
X162258301Y-126554538D01*
X162292045Y-126548588D01*
X162301590Y-126543077D01*
X162304866Y-126541885D01*
X162308034Y-126540408D01*
X162318684Y-126537554D01*
X162349544Y-126515945D01*
X162358815Y-126510039D01*
X162381906Y-126496707D01*
X162391455Y-126491194D01*
X162415685Y-126462317D01*
X162423111Y-126454215D01*
X165832922Y-123044405D01*
X165895234Y-123010379D01*
X165922017Y-123007500D01*
X168214984Y-123007500D01*
X168283105Y-123027502D01*
X168304079Y-123044405D01*
X168531291Y-123271617D01*
X168565317Y-123333929D01*
X168567118Y-123377157D01*
X168558318Y-123444000D01*
X168578956Y-123600762D01*
X168639464Y-123746841D01*
X168735718Y-123872282D01*
X168861159Y-123968536D01*
X169007238Y-124029044D01*
X169164000Y-124049682D01*
X169172188Y-124048604D01*
X169312574Y-124030122D01*
X169320762Y-124029044D01*
X169466841Y-123968536D01*
X169592282Y-123872282D01*
X169688536Y-123746841D01*
X169749044Y-123600762D01*
X169769682Y-123444000D01*
X169749044Y-123287238D01*
X169688536Y-123141159D01*
X169592282Y-123015718D01*
X169466841Y-122919464D01*
X169320762Y-122858956D01*
X169164000Y-122838318D01*
X169097157Y-122847118D01*
X169027010Y-122836179D01*
X168991617Y-122811291D01*
X168646111Y-122465785D01*
X168638684Y-122457681D01*
X168621541Y-122437251D01*
X168621542Y-122437251D01*
X168614455Y-122428806D01*
X168593225Y-122416549D01*
X168581815Y-122409961D01*
X168572544Y-122404055D01*
X168550715Y-122388770D01*
X168541684Y-122382446D01*
X168531034Y-122379592D01*
X168527866Y-122378115D01*
X168524590Y-122376923D01*
X168515045Y-122371412D01*
X168481301Y-122365462D01*
X168477942Y-122364870D01*
X168467215Y-122362492D01*
X168430807Y-122352736D01*
X168419822Y-122353697D01*
X168419820Y-122353697D01*
X168393272Y-122356020D01*
X168382290Y-122356500D01*
X165754698Y-122356500D01*
X165743716Y-122356020D01*
X165717180Y-122353698D01*
X165717178Y-122353698D01*
X165706193Y-122352737D01*
X165695543Y-122355591D01*
X165695541Y-122355591D01*
X165669804Y-122362488D01*
X165659069Y-122364868D01*
X165659058Y-122364870D01*
X165621955Y-122371412D01*
X165612407Y-122376924D01*
X165609130Y-122378117D01*
X165605962Y-122379594D01*
X165595316Y-122382447D01*
X165586287Y-122388769D01*
X165564453Y-122404057D01*
X165555185Y-122409961D01*
X165522545Y-122428806D01*
X165515459Y-122437251D01*
X165515457Y-122437253D01*
X165498326Y-122457669D01*
X165490900Y-122465773D01*
X162081079Y-125875595D01*
X162018767Y-125909621D01*
X161991984Y-125912500D01*
X160420713Y-125912500D01*
X160409732Y-125912021D01*
X160383169Y-125909697D01*
X160383168Y-125909697D01*
X160372193Y-125908737D01*
X160361550Y-125911589D01*
X160350564Y-125912550D01*
X160350237Y-125908809D01*
X160308294Y-125908833D01*
X160303762Y-125906956D01*
X160147000Y-125886318D01*
X159990238Y-125906956D01*
X159844159Y-125967464D01*
X159718718Y-126063718D01*
X159622464Y-126189159D01*
X159561956Y-126335238D01*
X159541318Y-126492000D01*
X143101770Y-126492000D01*
X143128639Y-126391723D01*
X143128639Y-126391722D01*
X143130063Y-126386408D01*
X143150659Y-126151000D01*
X143130063Y-125915592D01*
X143128596Y-125910116D01*
X143070326Y-125692647D01*
X143070325Y-125692645D01*
X143068903Y-125687337D01*
X143032403Y-125609063D01*
X142971358Y-125478152D01*
X142971356Y-125478149D01*
X142969035Y-125473171D01*
X142833495Y-125279599D01*
X142666401Y-125112505D01*
X142661893Y-125109348D01*
X142661890Y-125109346D01*
X142477339Y-124980122D01*
X142477336Y-124980120D01*
X142472830Y-124976965D01*
X142467848Y-124974642D01*
X142467843Y-124974639D01*
X142263645Y-124879420D01*
X142263644Y-124879419D01*
X142258663Y-124877097D01*
X142253355Y-124875675D01*
X142253353Y-124875674D01*
X142035723Y-124817361D01*
X142035722Y-124817361D01*
X142030408Y-124815937D01*
X141795000Y-124795341D01*
X141559592Y-124815937D01*
X141554278Y-124817361D01*
X141554277Y-124817361D01*
X141336647Y-124875674D01*
X141336645Y-124875675D01*
X141331337Y-124877097D01*
X141326357Y-124879419D01*
X141326355Y-124879420D01*
X141122152Y-124974642D01*
X141122149Y-124974644D01*
X141117171Y-124976965D01*
X140923599Y-125112505D01*
X140756505Y-125279599D01*
X140620965Y-125473171D01*
X140618644Y-125478149D01*
X140618642Y-125478152D01*
X140557597Y-125609063D01*
X140521097Y-125687337D01*
X140519675Y-125692645D01*
X140519674Y-125692647D01*
X140461404Y-125910116D01*
X140459937Y-125915592D01*
X140439341Y-126151000D01*
X121694382Y-126151000D01*
X121716203Y-121983244D01*
X152501672Y-121983244D01*
X152502750Y-121991432D01*
X152518617Y-122111951D01*
X152522310Y-122140006D01*
X152582818Y-122286085D01*
X152679072Y-122411526D01*
X152685618Y-122416549D01*
X152694407Y-122423293D01*
X152804513Y-122507780D01*
X152950592Y-122568288D01*
X153107354Y-122588926D01*
X153115542Y-122587848D01*
X153255928Y-122569366D01*
X153264116Y-122568288D01*
X153410195Y-122507780D01*
X153520301Y-122423293D01*
X153529090Y-122416549D01*
X153535636Y-122411526D01*
X153631890Y-122286085D01*
X153692398Y-122140006D01*
X153695215Y-122118608D01*
X153711540Y-121994608D01*
X153740262Y-121929681D01*
X153747367Y-121921959D01*
X153894921Y-121774405D01*
X153957233Y-121740379D01*
X153984016Y-121737500D01*
X154736263Y-121737500D01*
X154804384Y-121757502D01*
X154850877Y-121811158D01*
X154860981Y-121881432D01*
X154831487Y-121946012D01*
X154812966Y-121963463D01*
X154772267Y-121994692D01*
X154772264Y-121994695D01*
X154765718Y-121999718D01*
X154760695Y-122006264D01*
X154743370Y-122028842D01*
X154669464Y-122125159D01*
X154608956Y-122271238D01*
X154588318Y-122428000D01*
X154608956Y-122584762D01*
X154669464Y-122730841D01*
X154765718Y-122856282D01*
X154891159Y-122952536D01*
X155037238Y-123013044D01*
X155194000Y-123033682D01*
X155202188Y-123032604D01*
X155342574Y-123014122D01*
X155350762Y-123013044D01*
X155496841Y-122952536D01*
X155622282Y-122856282D01*
X155637708Y-122836179D01*
X155663323Y-122802796D01*
X155720661Y-122760929D01*
X155763286Y-122753500D01*
X163937290Y-122753500D01*
X163948272Y-122753980D01*
X163974820Y-122756303D01*
X163974822Y-122756303D01*
X163985807Y-122757264D01*
X164022215Y-122747508D01*
X164032942Y-122745130D01*
X164036301Y-122744538D01*
X164070045Y-122738588D01*
X164079590Y-122733077D01*
X164082866Y-122731885D01*
X164086034Y-122730408D01*
X164096684Y-122727554D01*
X164127544Y-122705945D01*
X164136815Y-122700039D01*
X164159906Y-122686707D01*
X164169455Y-122681194D01*
X164193685Y-122652317D01*
X164201111Y-122644215D01*
X167465327Y-119380000D01*
X172114318Y-119380000D01*
X172134956Y-119536762D01*
X172195464Y-119682841D01*
X172291718Y-119808282D01*
X172298264Y-119813305D01*
X172302287Y-119816392D01*
X172417159Y-119904536D01*
X172563238Y-119965044D01*
X172720000Y-119985682D01*
X172728188Y-119984604D01*
X172868574Y-119966122D01*
X172876762Y-119965044D01*
X173022841Y-119904536D01*
X173137713Y-119816392D01*
X173141736Y-119813305D01*
X173148282Y-119808282D01*
X173244536Y-119682841D01*
X173305044Y-119536762D01*
X173325682Y-119380000D01*
X173305044Y-119223238D01*
X173244536Y-119077159D01*
X173148282Y-118951718D01*
X173129357Y-118937196D01*
X173094796Y-118910677D01*
X173052929Y-118853339D01*
X173045500Y-118810714D01*
X173045500Y-117789016D01*
X173065502Y-117720895D01*
X173082405Y-117699921D01*
X173309617Y-117472709D01*
X173371929Y-117438683D01*
X173415157Y-117436882D01*
X173482000Y-117445682D01*
X173490188Y-117444604D01*
X173630574Y-117426122D01*
X173638762Y-117425044D01*
X173784841Y-117364536D01*
X173910282Y-117268282D01*
X174006536Y-117142841D01*
X174067044Y-116996762D01*
X174087682Y-116840000D01*
X174067044Y-116683238D01*
X174006536Y-116537159D01*
X173910282Y-116411718D01*
X173784841Y-116315464D01*
X173638762Y-116254956D01*
X173482000Y-116234318D01*
X173325238Y-116254956D01*
X173179159Y-116315464D01*
X173053718Y-116411718D01*
X172957464Y-116537159D01*
X172896956Y-116683238D01*
X172876318Y-116840000D01*
X172877396Y-116848188D01*
X172885118Y-116906842D01*
X172874179Y-116976990D01*
X172849291Y-117012383D01*
X172503785Y-117357889D01*
X172495681Y-117365316D01*
X172466806Y-117389545D01*
X172461293Y-117399094D01*
X172447961Y-117422185D01*
X172442055Y-117431456D01*
X172420446Y-117462316D01*
X172417592Y-117472966D01*
X172416115Y-117476134D01*
X172414923Y-117479410D01*
X172409412Y-117488955D01*
X172403462Y-117522699D01*
X172402870Y-117526058D01*
X172400492Y-117536785D01*
X172390736Y-117573193D01*
X172391697Y-117584178D01*
X172391697Y-117584180D01*
X172394020Y-117610728D01*
X172394500Y-117621710D01*
X172394500Y-118810714D01*
X172374498Y-118878835D01*
X172345204Y-118910677D01*
X172310644Y-118937196D01*
X172291718Y-118951718D01*
X172195464Y-119077159D01*
X172134956Y-119223238D01*
X172114318Y-119380000D01*
X167465327Y-119380000D01*
X167729222Y-119116105D01*
X167737326Y-119108678D01*
X167757749Y-119091541D01*
X167766194Y-119084455D01*
X167785039Y-119051815D01*
X167790943Y-119042547D01*
X167806231Y-119020713D01*
X167812553Y-119011684D01*
X167815406Y-119001038D01*
X167816883Y-118997870D01*
X167818076Y-118994593D01*
X167823588Y-118985045D01*
X167830132Y-118947931D01*
X167832512Y-118937196D01*
X167839410Y-118911454D01*
X167842263Y-118900807D01*
X167838979Y-118863269D01*
X167838500Y-118852288D01*
X167838500Y-116011016D01*
X167858502Y-115942895D01*
X167875405Y-115921921D01*
X168483617Y-115313709D01*
X168545929Y-115279683D01*
X168589157Y-115277882D01*
X168656000Y-115286682D01*
X168664188Y-115285604D01*
X168804574Y-115267122D01*
X168812762Y-115266044D01*
X168958841Y-115205536D01*
X169084282Y-115109282D01*
X169180536Y-114983841D01*
X169241044Y-114837762D01*
X169261682Y-114681000D01*
X169241044Y-114524238D01*
X169180536Y-114378159D01*
X169084282Y-114252718D01*
X168958841Y-114156464D01*
X168812762Y-114095956D01*
X168656000Y-114075318D01*
X168499238Y-114095956D01*
X168353159Y-114156464D01*
X168227718Y-114252718D01*
X168131464Y-114378159D01*
X168070956Y-114524238D01*
X168050318Y-114681000D01*
X168051396Y-114689188D01*
X168059118Y-114747842D01*
X168048179Y-114817990D01*
X168023291Y-114853383D01*
X167296785Y-115579889D01*
X167288681Y-115587316D01*
X167259806Y-115611545D01*
X167254293Y-115621094D01*
X167240961Y-115644185D01*
X167235055Y-115653456D01*
X167213446Y-115684316D01*
X167210592Y-115694966D01*
X167209115Y-115698134D01*
X167207923Y-115701410D01*
X167202412Y-115710955D01*
X167197699Y-115737685D01*
X167195870Y-115748058D01*
X167193492Y-115758785D01*
X167183736Y-115795193D01*
X167184697Y-115806178D01*
X167184697Y-115806180D01*
X167187020Y-115832728D01*
X167187500Y-115843710D01*
X167187500Y-118684983D01*
X167167498Y-118753104D01*
X167150595Y-118774078D01*
X165623323Y-120301350D01*
X165561011Y-120335376D01*
X165490196Y-120330311D01*
X165433360Y-120287764D01*
X165408549Y-120221244D01*
X165408708Y-120201269D01*
X165408910Y-120198956D01*
X165411764Y-120188307D01*
X165408479Y-120150757D01*
X165408000Y-120139776D01*
X165408000Y-116104516D01*
X165428002Y-116036395D01*
X165444905Y-116015421D01*
X172190578Y-109269748D01*
X176549500Y-109269748D01*
X176561133Y-109328231D01*
X176605448Y-109394552D01*
X176615761Y-109401443D01*
X176644843Y-109420875D01*
X176671769Y-109438867D01*
X176683938Y-109441288D01*
X176683939Y-109441288D01*
X176724184Y-109449293D01*
X176730252Y-109450500D01*
X179269748Y-109450500D01*
X179275816Y-109449293D01*
X179316061Y-109441288D01*
X179316062Y-109441288D01*
X179328231Y-109438867D01*
X179355158Y-109420875D01*
X179384239Y-109401443D01*
X179394552Y-109394552D01*
X179438867Y-109328231D01*
X179450500Y-109269748D01*
X179450500Y-106730252D01*
X179444422Y-106699696D01*
X179441288Y-106683939D01*
X179441288Y-106683938D01*
X179438867Y-106671769D01*
X179394552Y-106605448D01*
X179328231Y-106561133D01*
X179316062Y-106558712D01*
X179316061Y-106558712D01*
X179275816Y-106550707D01*
X179269748Y-106549500D01*
X176730252Y-106549500D01*
X176724184Y-106550707D01*
X176683939Y-106558712D01*
X176683938Y-106558712D01*
X176671769Y-106561133D01*
X176605448Y-106605448D01*
X176561133Y-106671769D01*
X176558712Y-106683938D01*
X176558712Y-106683939D01*
X176555578Y-106699696D01*
X176549500Y-106730252D01*
X176549500Y-109269748D01*
X172190578Y-109269748D01*
X177161386Y-104298940D01*
X177223698Y-104264914D01*
X177294513Y-104269979D01*
X177314041Y-104279242D01*
X177371112Y-104312591D01*
X177593937Y-104397680D01*
X177599005Y-104398711D01*
X177599008Y-104398712D01*
X177708858Y-104421061D01*
X177827666Y-104445233D01*
X177832839Y-104445423D01*
X177832842Y-104445423D01*
X178060861Y-104453784D01*
X178060865Y-104453784D01*
X178066025Y-104453973D01*
X178071146Y-104453317D01*
X178297489Y-104424321D01*
X178297490Y-104424321D01*
X178302609Y-104423665D01*
X178531068Y-104355125D01*
X178745264Y-104250191D01*
X178768750Y-104233439D01*
X178935242Y-104114681D01*
X178939445Y-104111683D01*
X179108397Y-103943320D01*
X179134177Y-103907444D01*
X179244564Y-103753823D01*
X179247582Y-103749623D01*
X179279648Y-103684744D01*
X179350969Y-103540437D01*
X179350970Y-103540435D01*
X179353263Y-103535795D01*
X179422600Y-103307577D01*
X179423275Y-103302451D01*
X179453296Y-103074421D01*
X179453297Y-103074414D01*
X179453733Y-103071099D01*
X179455471Y-103000000D01*
X179442039Y-102836623D01*
X179436351Y-102767435D01*
X179436350Y-102767429D01*
X179435927Y-102762284D01*
X179392386Y-102588939D01*
X179379080Y-102535963D01*
X179379079Y-102535959D01*
X179377821Y-102530952D01*
X179368906Y-102510448D01*
X179284772Y-102316953D01*
X179284770Y-102316950D01*
X179282712Y-102312216D01*
X179153155Y-102111951D01*
X179124360Y-102080305D01*
X178996107Y-101939358D01*
X178996105Y-101939357D01*
X178992629Y-101935536D01*
X178988578Y-101932337D01*
X178988574Y-101932333D01*
X178809500Y-101790909D01*
X178809496Y-101790907D01*
X178805445Y-101787707D01*
X178766125Y-101766001D01*
X178749682Y-101756924D01*
X178596631Y-101672436D01*
X178591762Y-101670712D01*
X178591758Y-101670710D01*
X178376663Y-101594541D01*
X178376661Y-101594540D01*
X178371794Y-101592817D01*
X178254383Y-101571903D01*
X178142060Y-101551894D01*
X178142056Y-101551894D01*
X178136972Y-101550988D01*
X178053140Y-101549964D01*
X177903640Y-101548137D01*
X177903638Y-101548137D01*
X177898471Y-101548074D01*
X177662698Y-101584153D01*
X177435982Y-101658255D01*
X177431394Y-101660643D01*
X177431390Y-101660645D01*
X177229003Y-101766001D01*
X177224414Y-101768390D01*
X177220281Y-101771493D01*
X177220278Y-101771495D01*
X177037810Y-101908497D01*
X177033675Y-101911602D01*
X176868887Y-102084042D01*
X176865973Y-102088314D01*
X176865972Y-102088315D01*
X176806545Y-102175432D01*
X176734475Y-102281082D01*
X176702697Y-102349542D01*
X176647918Y-102467555D01*
X176634051Y-102497428D01*
X176570309Y-102727272D01*
X176569760Y-102732409D01*
X176549622Y-102920849D01*
X176544963Y-102964440D01*
X176545260Y-102969592D01*
X176545260Y-102969596D01*
X176558396Y-103197403D01*
X176558397Y-103197409D01*
X176558694Y-103202562D01*
X176611131Y-103435245D01*
X176613075Y-103440032D01*
X176613076Y-103440036D01*
X176651960Y-103535795D01*
X176700867Y-103656239D01*
X176718337Y-103684747D01*
X176736875Y-103753277D01*
X176715419Y-103820954D01*
X176699999Y-103839675D01*
X164866285Y-115673389D01*
X164858181Y-115680816D01*
X164829306Y-115705045D01*
X164823793Y-115714594D01*
X164810461Y-115737685D01*
X164804555Y-115746956D01*
X164782946Y-115777816D01*
X164780092Y-115788466D01*
X164778615Y-115791634D01*
X164777423Y-115794910D01*
X164771912Y-115804455D01*
X164766927Y-115832728D01*
X164765370Y-115841558D01*
X164762992Y-115852285D01*
X164753236Y-115888693D01*
X164754197Y-115899678D01*
X164754197Y-115899680D01*
X164756520Y-115926228D01*
X164757000Y-115937210D01*
X164757000Y-119972484D01*
X164736998Y-120040605D01*
X164720095Y-120061579D01*
X163875383Y-120906291D01*
X163813071Y-120940317D01*
X163769843Y-120942118D01*
X163703000Y-120933318D01*
X163551754Y-120953230D01*
X163481607Y-120942291D01*
X163428508Y-120895163D01*
X163409318Y-120826809D01*
X163430129Y-120758931D01*
X163446214Y-120739213D01*
X163942422Y-120243005D01*
X163950526Y-120235578D01*
X163957144Y-120230025D01*
X163979394Y-120211355D01*
X163984904Y-120201812D01*
X163984907Y-120201808D01*
X163998236Y-120178721D01*
X164004141Y-120169451D01*
X164019432Y-120147613D01*
X164025754Y-120138584D01*
X164028607Y-120127936D01*
X164030086Y-120124765D01*
X164031278Y-120121489D01*
X164036788Y-120111945D01*
X164043334Y-120074824D01*
X164045708Y-120064117D01*
X164055463Y-120027707D01*
X164053754Y-120008165D01*
X164052179Y-119990169D01*
X164051700Y-119979188D01*
X164051700Y-113374016D01*
X164071702Y-113305895D01*
X164088605Y-113284921D01*
X170839121Y-106534405D01*
X170901433Y-106500379D01*
X170928216Y-106497500D01*
X172023714Y-106497500D01*
X172091835Y-106517502D01*
X172123677Y-106546796D01*
X172164718Y-106600282D01*
X172290159Y-106696536D01*
X172436238Y-106757044D01*
X172593000Y-106777682D01*
X172601188Y-106776604D01*
X172741574Y-106758122D01*
X172749762Y-106757044D01*
X172895841Y-106696536D01*
X173021282Y-106600282D01*
X173117536Y-106474841D01*
X173178044Y-106328762D01*
X173198682Y-106172000D01*
X173184474Y-106064080D01*
X173179122Y-106023426D01*
X173178044Y-106015238D01*
X173117536Y-105869159D01*
X173021282Y-105743718D01*
X172895841Y-105647464D01*
X172749762Y-105586956D01*
X172593000Y-105566318D01*
X172436238Y-105586956D01*
X172290159Y-105647464D01*
X172164718Y-105743718D01*
X172159695Y-105750264D01*
X172123677Y-105797204D01*
X172066339Y-105839071D01*
X172023714Y-105846500D01*
X170760913Y-105846500D01*
X170749932Y-105846021D01*
X170723370Y-105843697D01*
X170723368Y-105843697D01*
X170712393Y-105842737D01*
X170675983Y-105852492D01*
X170665276Y-105854866D01*
X170628155Y-105861412D01*
X170618612Y-105866921D01*
X170615340Y-105868112D01*
X170612167Y-105869592D01*
X170601516Y-105872446D01*
X170570656Y-105894055D01*
X170561385Y-105899961D01*
X170538294Y-105913293D01*
X170528745Y-105918806D01*
X170521659Y-105927251D01*
X170504515Y-105947682D01*
X170497089Y-105955785D01*
X163509985Y-112942889D01*
X163501881Y-112950316D01*
X163473006Y-112974545D01*
X163467493Y-112984094D01*
X163454161Y-113007185D01*
X163448255Y-113016456D01*
X163426646Y-113047316D01*
X163423792Y-113057966D01*
X163422315Y-113061134D01*
X163421123Y-113064410D01*
X163415612Y-113073955D01*
X163409662Y-113107699D01*
X163409070Y-113111058D01*
X163406692Y-113121785D01*
X163396936Y-113158193D01*
X163397897Y-113169178D01*
X163397897Y-113169180D01*
X163400220Y-113195728D01*
X163400700Y-113206710D01*
X163400700Y-119811883D01*
X163380698Y-119880004D01*
X163363795Y-119900978D01*
X162224383Y-121040391D01*
X162162071Y-121074416D01*
X162118843Y-121076218D01*
X162052000Y-121067418D01*
X161895238Y-121088056D01*
X161749159Y-121148564D01*
X161735131Y-121159328D01*
X161633146Y-121237584D01*
X161623718Y-121244818D01*
X161527464Y-121370259D01*
X161466956Y-121516338D01*
X161465878Y-121524526D01*
X161463228Y-121544654D01*
X161446318Y-121673100D01*
X161466956Y-121829862D01*
X161470116Y-121837491D01*
X161507723Y-121928282D01*
X161515312Y-121998872D01*
X161483533Y-122062359D01*
X161422475Y-122098586D01*
X161391314Y-122102500D01*
X155763286Y-122102500D01*
X155695165Y-122082498D01*
X155663323Y-122053204D01*
X155627305Y-122006264D01*
X155622282Y-121999718D01*
X155615736Y-121994695D01*
X155615733Y-121994692D01*
X155575034Y-121963463D01*
X155533166Y-121906125D01*
X155528944Y-121835254D01*
X155563708Y-121773351D01*
X155626420Y-121740070D01*
X155651737Y-121737500D01*
X156952290Y-121737500D01*
X156963272Y-121737980D01*
X156989820Y-121740303D01*
X156989822Y-121740303D01*
X157000807Y-121741264D01*
X157037215Y-121731508D01*
X157047942Y-121729130D01*
X157051301Y-121728538D01*
X157085045Y-121722588D01*
X157094590Y-121717077D01*
X157097866Y-121715885D01*
X157101034Y-121714408D01*
X157111684Y-121711554D01*
X157142544Y-121689945D01*
X157151815Y-121684039D01*
X157174906Y-121670707D01*
X157184455Y-121665194D01*
X157208685Y-121636317D01*
X157216111Y-121628215D01*
X159982215Y-118862111D01*
X159990319Y-118854684D01*
X160010749Y-118837541D01*
X160019194Y-118830455D01*
X160024707Y-118820906D01*
X160038039Y-118797815D01*
X160043945Y-118788544D01*
X160059230Y-118766715D01*
X160065554Y-118757684D01*
X160068408Y-118747034D01*
X160069885Y-118743866D01*
X160071077Y-118740590D01*
X160076588Y-118731045D01*
X160083130Y-118693942D01*
X160085509Y-118683210D01*
X160095264Y-118646807D01*
X160091979Y-118609257D01*
X160091500Y-118598276D01*
X160091500Y-111185016D01*
X160111502Y-111116895D01*
X160128405Y-111095921D01*
X160490331Y-110733995D01*
X160552643Y-110699969D01*
X160623458Y-110705034D01*
X160680294Y-110747581D01*
X160699852Y-110795604D01*
X160701741Y-110795098D01*
X160703878Y-110803074D01*
X160704956Y-110811262D01*
X160765464Y-110957341D01*
X160861718Y-111082782D01*
X160868264Y-111087805D01*
X160915204Y-111123823D01*
X160957071Y-111181161D01*
X160964500Y-111223786D01*
X160964500Y-111571714D01*
X160944498Y-111639835D01*
X160915204Y-111671677D01*
X160861718Y-111712718D01*
X160856695Y-111719264D01*
X160850108Y-111727849D01*
X160765464Y-111838159D01*
X160704956Y-111984238D01*
X160684318Y-112141000D01*
X160704956Y-112297762D01*
X160765464Y-112443841D01*
X160770491Y-112450392D01*
X160836152Y-112535963D01*
X160861718Y-112569282D01*
X160987159Y-112665536D01*
X161133238Y-112726044D01*
X161141426Y-112727122D01*
X161181585Y-112732409D01*
X161290000Y-112746682D01*
X161298188Y-112745604D01*
X161438574Y-112727122D01*
X161446762Y-112726044D01*
X161592841Y-112665536D01*
X161718282Y-112569282D01*
X161743849Y-112535963D01*
X161809509Y-112450392D01*
X161814536Y-112443841D01*
X161875044Y-112297762D01*
X161895682Y-112141000D01*
X161875044Y-111984238D01*
X161814536Y-111838159D01*
X161729892Y-111727849D01*
X161723305Y-111719264D01*
X161718282Y-111712718D01*
X161664796Y-111671677D01*
X161622929Y-111614339D01*
X161615500Y-111571714D01*
X161615500Y-111223786D01*
X161635502Y-111155665D01*
X161664796Y-111123823D01*
X161711736Y-111087805D01*
X161718282Y-111082782D01*
X161814536Y-110957341D01*
X161875044Y-110811262D01*
X161895682Y-110654500D01*
X161875044Y-110497738D01*
X161814536Y-110351659D01*
X161718282Y-110226218D01*
X161592841Y-110129964D01*
X161446762Y-110069456D01*
X161438574Y-110068378D01*
X161430598Y-110066241D01*
X161431197Y-110064006D01*
X161377216Y-110040125D01*
X161338125Y-109980860D01*
X161337280Y-109909868D01*
X161369495Y-109854831D01*
X161641921Y-109582405D01*
X161704233Y-109548379D01*
X161731016Y-109545500D01*
X164911714Y-109545500D01*
X164979835Y-109565502D01*
X165011677Y-109594796D01*
X165052718Y-109648282D01*
X165178159Y-109744536D01*
X165324238Y-109805044D01*
X165481000Y-109825682D01*
X165489188Y-109824604D01*
X165629574Y-109806122D01*
X165637762Y-109805044D01*
X165783841Y-109744536D01*
X165909282Y-109648282D01*
X166005536Y-109522841D01*
X166066044Y-109376762D01*
X166086682Y-109220000D01*
X166066044Y-109063238D01*
X166005536Y-108917159D01*
X165909282Y-108791718D01*
X165783841Y-108695464D01*
X165637762Y-108634956D01*
X165481000Y-108614318D01*
X165324238Y-108634956D01*
X165178159Y-108695464D01*
X165052718Y-108791718D01*
X165047695Y-108798264D01*
X165011677Y-108845204D01*
X164954339Y-108887071D01*
X164911714Y-108894500D01*
X161563710Y-108894500D01*
X161552728Y-108894020D01*
X161526180Y-108891697D01*
X161526178Y-108891697D01*
X161515193Y-108890736D01*
X161478785Y-108900492D01*
X161468058Y-108902870D01*
X161464699Y-108903462D01*
X161430955Y-108909412D01*
X161421410Y-108914923D01*
X161418134Y-108916115D01*
X161414966Y-108917592D01*
X161404316Y-108920446D01*
X161395285Y-108926770D01*
X161373456Y-108942055D01*
X161364185Y-108947961D01*
X161341094Y-108961293D01*
X161331545Y-108966806D01*
X161324459Y-108975251D01*
X161307315Y-108995682D01*
X161299889Y-109003785D01*
X159549785Y-110753889D01*
X159541681Y-110761316D01*
X159512806Y-110785545D01*
X159507293Y-110795094D01*
X159493961Y-110818185D01*
X159488055Y-110827456D01*
X159466446Y-110858316D01*
X159463592Y-110868966D01*
X159462115Y-110872134D01*
X159460923Y-110875410D01*
X159455412Y-110884955D01*
X159449462Y-110918699D01*
X159448870Y-110922058D01*
X159446492Y-110932785D01*
X159436736Y-110969193D01*
X159437697Y-110980178D01*
X159437697Y-110980180D01*
X159440020Y-111006728D01*
X159440500Y-111017710D01*
X159440500Y-118430984D01*
X159420498Y-118499105D01*
X159403595Y-118520079D01*
X156874079Y-121049595D01*
X156811767Y-121083621D01*
X156784984Y-121086500D01*
X153816713Y-121086500D01*
X153805732Y-121086021D01*
X153779170Y-121083697D01*
X153779168Y-121083697D01*
X153768193Y-121082737D01*
X153731783Y-121092492D01*
X153721076Y-121094866D01*
X153683955Y-121101412D01*
X153674412Y-121106921D01*
X153671140Y-121108112D01*
X153667967Y-121109592D01*
X153657316Y-121112446D01*
X153628277Y-121132780D01*
X153626456Y-121134055D01*
X153617185Y-121139961D01*
X153607758Y-121145404D01*
X153584545Y-121158806D01*
X153577459Y-121167251D01*
X153560315Y-121187682D01*
X153552889Y-121195785D01*
X153382784Y-121365890D01*
X153320472Y-121399916D01*
X153265077Y-121398598D01*
X153264116Y-121398200D01*
X153107354Y-121377562D01*
X152950592Y-121398200D01*
X152804513Y-121458708D01*
X152763980Y-121489810D01*
X152687967Y-121548137D01*
X152679072Y-121554962D01*
X152582818Y-121680403D01*
X152522310Y-121826482D01*
X152501672Y-121983244D01*
X121716203Y-121983244D01*
X121767984Y-112093204D01*
X140818151Y-112093204D01*
X140822720Y-112099735D01*
X141035736Y-112230271D01*
X141044530Y-112234752D01*
X141276492Y-112330834D01*
X141285877Y-112333883D01*
X141530017Y-112392496D01*
X141539764Y-112394039D01*
X141790070Y-112413739D01*
X141799930Y-112413739D01*
X142050236Y-112394039D01*
X142059983Y-112392496D01*
X142304123Y-112333883D01*
X142313508Y-112330834D01*
X142545470Y-112234752D01*
X142554264Y-112230271D01*
X142765875Y-112100596D01*
X142771922Y-112091330D01*
X142765915Y-112081125D01*
X141807812Y-111123022D01*
X141793868Y-111115408D01*
X141792035Y-111115539D01*
X141785420Y-111119790D01*
X140825544Y-112079666D01*
X140818151Y-112093204D01*
X121767984Y-112093204D01*
X121774985Y-110755930D01*
X140132261Y-110755930D01*
X140151961Y-111006236D01*
X140153504Y-111015983D01*
X140212117Y-111260123D01*
X140215166Y-111269508D01*
X140311248Y-111501470D01*
X140315729Y-111510264D01*
X140445404Y-111721875D01*
X140454670Y-111727922D01*
X140464875Y-111721915D01*
X141422978Y-110763812D01*
X141429356Y-110752132D01*
X142159408Y-110752132D01*
X142159539Y-110753965D01*
X142163790Y-110760580D01*
X143123666Y-111720456D01*
X143137204Y-111727849D01*
X143143735Y-111723280D01*
X143274271Y-111510264D01*
X143278752Y-111501470D01*
X143374834Y-111269508D01*
X143377883Y-111260123D01*
X143436496Y-111015983D01*
X143438039Y-111006236D01*
X143457739Y-110755930D01*
X143457739Y-110746070D01*
X143438039Y-110495764D01*
X143436496Y-110486017D01*
X143377883Y-110241877D01*
X143374834Y-110232492D01*
X143278752Y-110000530D01*
X143274271Y-109991736D01*
X143144596Y-109780125D01*
X143135330Y-109774078D01*
X143125125Y-109780085D01*
X142167022Y-110738188D01*
X142159408Y-110752132D01*
X141429356Y-110752132D01*
X141430592Y-110749868D01*
X141430461Y-110748035D01*
X141426210Y-110741420D01*
X140466334Y-109781544D01*
X140452796Y-109774151D01*
X140446265Y-109778720D01*
X140315729Y-109991736D01*
X140311248Y-110000530D01*
X140215166Y-110232492D01*
X140212117Y-110241877D01*
X140153504Y-110486017D01*
X140151961Y-110495764D01*
X140132261Y-110746070D01*
X140132261Y-110755930D01*
X121774985Y-110755930D01*
X121782028Y-109410670D01*
X140818078Y-109410670D01*
X140824085Y-109420875D01*
X141782188Y-110378978D01*
X141796132Y-110386592D01*
X141797965Y-110386461D01*
X141804580Y-110382210D01*
X142764456Y-109422334D01*
X142771849Y-109408796D01*
X142767280Y-109402265D01*
X142554264Y-109271729D01*
X142545470Y-109267248D01*
X142313508Y-109171166D01*
X142304123Y-109168117D01*
X142059983Y-109109504D01*
X142050236Y-109107961D01*
X141799930Y-109088261D01*
X141790070Y-109088261D01*
X141539764Y-109107961D01*
X141530017Y-109109504D01*
X141285877Y-109168117D01*
X141276492Y-109171166D01*
X141044530Y-109267248D01*
X141035736Y-109271729D01*
X140824125Y-109401404D01*
X140818078Y-109410670D01*
X121782028Y-109410670D01*
X121793000Y-107315000D01*
X100127000Y-107315000D01*
X100058879Y-107294998D01*
X100012386Y-107241342D01*
X100001000Y-107189000D01*
X100001000Y-104607165D01*
X113747866Y-104607165D01*
X113782952Y-104864970D01*
X113855758Y-105114757D01*
X113964686Y-105351039D01*
X113967246Y-105354944D01*
X113967249Y-105354949D01*
X114104775Y-105564712D01*
X114104779Y-105564717D01*
X114107341Y-105568625D01*
X114174887Y-105644304D01*
X114263618Y-105743718D01*
X114280591Y-105762735D01*
X114480629Y-105929105D01*
X114703061Y-106064080D01*
X114707375Y-106065889D01*
X114707377Y-106065890D01*
X114938686Y-106162886D01*
X114938691Y-106162888D01*
X114943001Y-106164695D01*
X114947533Y-106165846D01*
X114947536Y-106165847D01*
X115004005Y-106180188D01*
X115195177Y-106228739D01*
X115411286Y-106250500D01*
X115566044Y-106250500D01*
X115568369Y-106250327D01*
X115568375Y-106250327D01*
X115754814Y-106236472D01*
X115754818Y-106236471D01*
X115759466Y-106236126D01*
X116013232Y-106178705D01*
X116030474Y-106172000D01*
X116251370Y-106086098D01*
X116251372Y-106086097D01*
X116255723Y-106084405D01*
X116291285Y-106064080D01*
X116390088Y-106007609D01*
X116481612Y-105955299D01*
X116685936Y-105794223D01*
X116864208Y-105604714D01*
X117012511Y-105390937D01*
X117030258Y-105354949D01*
X117125521Y-105161775D01*
X117125522Y-105161772D01*
X117127586Y-105157587D01*
X117206906Y-104909792D01*
X117248728Y-104652994D01*
X117250737Y-104499552D01*
X117252073Y-104397512D01*
X117252073Y-104397509D01*
X117252134Y-104392835D01*
X117217048Y-104135030D01*
X117210765Y-104113472D01*
X117174089Y-103987644D01*
X117144242Y-103885243D01*
X117035314Y-103648961D01*
X116962551Y-103537978D01*
X116931267Y-103490262D01*
X122164520Y-103490262D01*
X122165036Y-103496406D01*
X122178458Y-103656239D01*
X122181759Y-103695553D01*
X122183458Y-103701478D01*
X122236152Y-103885243D01*
X122238544Y-103893586D01*
X122241359Y-103899063D01*
X122241360Y-103899066D01*
X122317321Y-104046870D01*
X122332712Y-104076818D01*
X122460677Y-104238270D01*
X122465370Y-104242264D01*
X122465371Y-104242265D01*
X122588442Y-104347006D01*
X122617564Y-104371791D01*
X122622942Y-104374797D01*
X122622944Y-104374798D01*
X122661342Y-104396258D01*
X122797398Y-104472297D01*
X122881280Y-104499552D01*
X122987471Y-104534056D01*
X122987475Y-104534057D01*
X122993329Y-104535959D01*
X123197894Y-104560351D01*
X123204029Y-104559879D01*
X123204031Y-104559879D01*
X123276625Y-104554293D01*
X123403300Y-104544546D01*
X123409230Y-104542890D01*
X123409232Y-104542890D01*
X123595797Y-104490800D01*
X123595796Y-104490800D01*
X123601725Y-104489145D01*
X123607214Y-104486372D01*
X123607220Y-104486370D01*
X123780116Y-104399033D01*
X123785610Y-104396258D01*
X123801345Y-104383965D01*
X123866781Y-104332841D01*
X123947951Y-104269424D01*
X123962590Y-104252465D01*
X124078540Y-104118134D01*
X124078540Y-104118133D01*
X124082564Y-104113472D01*
X124092673Y-104095678D01*
X124164217Y-103969737D01*
X124184323Y-103934344D01*
X124249351Y-103738863D01*
X124275171Y-103534474D01*
X124275583Y-103505000D01*
X124274138Y-103490262D01*
X124704520Y-103490262D01*
X124705036Y-103496406D01*
X124718458Y-103656239D01*
X124721759Y-103695553D01*
X124723458Y-103701478D01*
X124776152Y-103885243D01*
X124778544Y-103893586D01*
X124781359Y-103899063D01*
X124781360Y-103899066D01*
X124857321Y-104046870D01*
X124872712Y-104076818D01*
X125000677Y-104238270D01*
X125005370Y-104242264D01*
X125005371Y-104242265D01*
X125128442Y-104347006D01*
X125157564Y-104371791D01*
X125162942Y-104374797D01*
X125162944Y-104374798D01*
X125201342Y-104396258D01*
X125337398Y-104472297D01*
X125421280Y-104499552D01*
X125527471Y-104534056D01*
X125527475Y-104534057D01*
X125533329Y-104535959D01*
X125737894Y-104560351D01*
X125744029Y-104559879D01*
X125744031Y-104559879D01*
X125816625Y-104554293D01*
X125943300Y-104544546D01*
X125949230Y-104542890D01*
X125949232Y-104542890D01*
X126135797Y-104490800D01*
X126135796Y-104490800D01*
X126141725Y-104489145D01*
X126147214Y-104486372D01*
X126147220Y-104486370D01*
X126320116Y-104399033D01*
X126325610Y-104396258D01*
X126341345Y-104383965D01*
X126406781Y-104332841D01*
X126487951Y-104269424D01*
X126502590Y-104252465D01*
X126618540Y-104118134D01*
X126618540Y-104118133D01*
X126622564Y-104113472D01*
X126632673Y-104095678D01*
X126704217Y-103969737D01*
X126724323Y-103934344D01*
X126789351Y-103738863D01*
X126815171Y-103534474D01*
X126815583Y-103505000D01*
X126814138Y-103490262D01*
X127244520Y-103490262D01*
X127245036Y-103496406D01*
X127258458Y-103656239D01*
X127261759Y-103695553D01*
X127263458Y-103701478D01*
X127316152Y-103885243D01*
X127318544Y-103893586D01*
X127321359Y-103899063D01*
X127321360Y-103899066D01*
X127397321Y-104046870D01*
X127412712Y-104076818D01*
X127540677Y-104238270D01*
X127545370Y-104242264D01*
X127545371Y-104242265D01*
X127668442Y-104347006D01*
X127697564Y-104371791D01*
X127702942Y-104374797D01*
X127702944Y-104374798D01*
X127741342Y-104396258D01*
X127877398Y-104472297D01*
X127961280Y-104499552D01*
X128067471Y-104534056D01*
X128067475Y-104534057D01*
X128073329Y-104535959D01*
X128277894Y-104560351D01*
X128284029Y-104559879D01*
X128284031Y-104559879D01*
X128356625Y-104554293D01*
X128483300Y-104544546D01*
X128489230Y-104542890D01*
X128489232Y-104542890D01*
X128675797Y-104490800D01*
X128675796Y-104490800D01*
X128681725Y-104489145D01*
X128687214Y-104486372D01*
X128687220Y-104486370D01*
X128860116Y-104399033D01*
X128865610Y-104396258D01*
X128881345Y-104383965D01*
X128893142Y-104374748D01*
X129789500Y-104374748D01*
X129790707Y-104380816D01*
X129794331Y-104399033D01*
X129801133Y-104433231D01*
X129845448Y-104499552D01*
X129911769Y-104543867D01*
X129923938Y-104546288D01*
X129923939Y-104546288D01*
X129964184Y-104554293D01*
X129970252Y-104555500D01*
X131709748Y-104555500D01*
X131715816Y-104554293D01*
X131756061Y-104546288D01*
X131756062Y-104546288D01*
X131768231Y-104543867D01*
X131834552Y-104499552D01*
X131878867Y-104433231D01*
X131885670Y-104399033D01*
X131889293Y-104380816D01*
X131890500Y-104374748D01*
X131890500Y-103490262D01*
X150104520Y-103490262D01*
X150105036Y-103496406D01*
X150118458Y-103656239D01*
X150121759Y-103695553D01*
X150123458Y-103701478D01*
X150176152Y-103885243D01*
X150178544Y-103893586D01*
X150181359Y-103899063D01*
X150181360Y-103899066D01*
X150257321Y-104046870D01*
X150272712Y-104076818D01*
X150400677Y-104238270D01*
X150405370Y-104242264D01*
X150405371Y-104242265D01*
X150528442Y-104347006D01*
X150557564Y-104371791D01*
X150562942Y-104374797D01*
X150562944Y-104374798D01*
X150601342Y-104396258D01*
X150737398Y-104472297D01*
X150821280Y-104499552D01*
X150927471Y-104534056D01*
X150927475Y-104534057D01*
X150933329Y-104535959D01*
X151137894Y-104560351D01*
X151144029Y-104559879D01*
X151144031Y-104559879D01*
X151216625Y-104554293D01*
X151343300Y-104544546D01*
X151349230Y-104542890D01*
X151349232Y-104542890D01*
X151535797Y-104490800D01*
X151535796Y-104490800D01*
X151541725Y-104489145D01*
X151547214Y-104486372D01*
X151547220Y-104486370D01*
X151720116Y-104399033D01*
X151725610Y-104396258D01*
X151741345Y-104383965D01*
X151806781Y-104332841D01*
X151887951Y-104269424D01*
X151902590Y-104252465D01*
X152018540Y-104118134D01*
X152018540Y-104118133D01*
X152022564Y-104113472D01*
X152032673Y-104095678D01*
X152104217Y-103969737D01*
X152124323Y-103934344D01*
X152189351Y-103738863D01*
X152215171Y-103534474D01*
X152215583Y-103505000D01*
X152214138Y-103490262D01*
X152644520Y-103490262D01*
X152645036Y-103496406D01*
X152658458Y-103656239D01*
X152661759Y-103695553D01*
X152663458Y-103701478D01*
X152716152Y-103885243D01*
X152718544Y-103893586D01*
X152721359Y-103899063D01*
X152721360Y-103899066D01*
X152797321Y-104046870D01*
X152812712Y-104076818D01*
X152940677Y-104238270D01*
X152945370Y-104242264D01*
X152945371Y-104242265D01*
X153068442Y-104347006D01*
X153097564Y-104371791D01*
X153102942Y-104374797D01*
X153102944Y-104374798D01*
X153141342Y-104396258D01*
X153277398Y-104472297D01*
X153361280Y-104499552D01*
X153467471Y-104534056D01*
X153467475Y-104534057D01*
X153473329Y-104535959D01*
X153677894Y-104560351D01*
X153684029Y-104559879D01*
X153684031Y-104559879D01*
X153756625Y-104554293D01*
X153883300Y-104544546D01*
X153889230Y-104542890D01*
X153889232Y-104542890D01*
X154075797Y-104490800D01*
X154075796Y-104490800D01*
X154081725Y-104489145D01*
X154087214Y-104486372D01*
X154087220Y-104486370D01*
X154260116Y-104399033D01*
X154265610Y-104396258D01*
X154281345Y-104383965D01*
X154346781Y-104332841D01*
X154427951Y-104269424D01*
X154442590Y-104252465D01*
X154558540Y-104118134D01*
X154558540Y-104118133D01*
X154562564Y-104113472D01*
X154572673Y-104095678D01*
X154644217Y-103969737D01*
X154664323Y-103934344D01*
X154673271Y-103907444D01*
X154688496Y-103861678D01*
X154728978Y-103803354D01*
X154794566Y-103776175D01*
X154864437Y-103788770D01*
X154916406Y-103837141D01*
X154930971Y-103873751D01*
X154938564Y-103907444D01*
X154941645Y-103917275D01*
X155021770Y-104114603D01*
X155026413Y-104123794D01*
X155137694Y-104305388D01*
X155143777Y-104313699D01*
X155283213Y-104474667D01*
X155290580Y-104481883D01*
X155454434Y-104617916D01*
X155462881Y-104623831D01*
X155646756Y-104731279D01*
X155656042Y-104735729D01*
X155855001Y-104811703D01*
X155864899Y-104814579D01*
X155968250Y-104835606D01*
X155982299Y-104834410D01*
X155986000Y-104824065D01*
X155986000Y-104823517D01*
X156494000Y-104823517D01*
X156498064Y-104837359D01*
X156511478Y-104839393D01*
X156518184Y-104838534D01*
X156528262Y-104836392D01*
X156732255Y-104775191D01*
X156741842Y-104771433D01*
X156933095Y-104677739D01*
X156941945Y-104672464D01*
X157115328Y-104548792D01*
X157123200Y-104542139D01*
X157274052Y-104391812D01*
X157280730Y-104383965D01*
X157405003Y-104211020D01*
X157410313Y-104202183D01*
X157490543Y-104039851D01*
X157538657Y-103987644D01*
X157607358Y-103969737D01*
X157674834Y-103991816D01*
X157719663Y-104046870D01*
X157729500Y-104095678D01*
X157729500Y-104374748D01*
X157730707Y-104380816D01*
X157734331Y-104399033D01*
X157741133Y-104433231D01*
X157785448Y-104499552D01*
X157851769Y-104543867D01*
X157863938Y-104546288D01*
X157863939Y-104546288D01*
X157904184Y-104554293D01*
X157910252Y-104555500D01*
X158328500Y-104555500D01*
X158396621Y-104575502D01*
X158443114Y-104629158D01*
X158454500Y-104681500D01*
X158454500Y-107747283D01*
X158434498Y-107815404D01*
X158380842Y-107861897D01*
X158355268Y-107869240D01*
X158355402Y-107869741D01*
X158347426Y-107871878D01*
X158339238Y-107872956D01*
X158193159Y-107933464D01*
X158067718Y-108029718D01*
X157971464Y-108155159D01*
X157910956Y-108301238D01*
X157890318Y-108458000D01*
X157910956Y-108614762D01*
X157971464Y-108760841D01*
X158067718Y-108886282D01*
X158193159Y-108982536D01*
X158339238Y-109043044D01*
X158496000Y-109063682D01*
X158504188Y-109062604D01*
X158644574Y-109044122D01*
X158652762Y-109043044D01*
X158798841Y-108982536D01*
X158924282Y-108886282D01*
X159020536Y-108760841D01*
X159081044Y-108614762D01*
X159101682Y-108458000D01*
X159085690Y-108336528D01*
X159091100Y-108287133D01*
X159090588Y-108287043D01*
X159091965Y-108279233D01*
X159097130Y-108249942D01*
X159099509Y-108239210D01*
X159109264Y-108202807D01*
X159105979Y-108165257D01*
X159105500Y-108154276D01*
X159105500Y-104681500D01*
X159125502Y-104613379D01*
X159132673Y-104607165D01*
X164747866Y-104607165D01*
X164782952Y-104864970D01*
X164855758Y-105114757D01*
X164964686Y-105351039D01*
X164967246Y-105354944D01*
X164967249Y-105354949D01*
X165104775Y-105564712D01*
X165104779Y-105564717D01*
X165107341Y-105568625D01*
X165174887Y-105644304D01*
X165263618Y-105743718D01*
X165280591Y-105762735D01*
X165480629Y-105929105D01*
X165703061Y-106064080D01*
X165707375Y-106065889D01*
X165707377Y-106065890D01*
X165938686Y-106162886D01*
X165938691Y-106162888D01*
X165943001Y-106164695D01*
X165947533Y-106165846D01*
X165947536Y-106165847D01*
X166004005Y-106180188D01*
X166195177Y-106228739D01*
X166411286Y-106250500D01*
X166566044Y-106250500D01*
X166568369Y-106250327D01*
X166568375Y-106250327D01*
X166754814Y-106236472D01*
X166754818Y-106236471D01*
X166759466Y-106236126D01*
X167013232Y-106178705D01*
X167030474Y-106172000D01*
X167251370Y-106086098D01*
X167251372Y-106086097D01*
X167255723Y-106084405D01*
X167291285Y-106064080D01*
X167390088Y-106007609D01*
X167481612Y-105955299D01*
X167685936Y-105794223D01*
X167864208Y-105604714D01*
X168012511Y-105390937D01*
X168030258Y-105354949D01*
X168125521Y-105161775D01*
X168125522Y-105161772D01*
X168127586Y-105157587D01*
X168206906Y-104909792D01*
X168248728Y-104652994D01*
X168250737Y-104499552D01*
X168252073Y-104397512D01*
X168252073Y-104397509D01*
X168252134Y-104392835D01*
X168217048Y-104135030D01*
X168210765Y-104113472D01*
X168174089Y-103987644D01*
X168144242Y-103885243D01*
X168035314Y-103648961D01*
X167962551Y-103537978D01*
X167895225Y-103435288D01*
X167895221Y-103435283D01*
X167892659Y-103431375D01*
X167777590Y-103302451D01*
X167722526Y-103240757D01*
X167722524Y-103240755D01*
X167719409Y-103237265D01*
X167519371Y-103070895D01*
X167296939Y-102935920D01*
X167260999Y-102920849D01*
X167061314Y-102837114D01*
X167061309Y-102837112D01*
X167056999Y-102835305D01*
X167052467Y-102834154D01*
X167052464Y-102834153D01*
X166927185Y-102802337D01*
X166804823Y-102771261D01*
X166588714Y-102749500D01*
X166433956Y-102749500D01*
X166431631Y-102749673D01*
X166431625Y-102749673D01*
X166245186Y-102763528D01*
X166245182Y-102763529D01*
X166240534Y-102763874D01*
X165986768Y-102821295D01*
X165982416Y-102822987D01*
X165982414Y-102822988D01*
X165748630Y-102913902D01*
X165748628Y-102913903D01*
X165744277Y-102915595D01*
X165740223Y-102917912D01*
X165740221Y-102917913D01*
X165704467Y-102938348D01*
X165518388Y-103044701D01*
X165314064Y-103205777D01*
X165135792Y-103395286D01*
X164987489Y-103609063D01*
X164985423Y-103613253D01*
X164985421Y-103613256D01*
X164891676Y-103803354D01*
X164872414Y-103842413D01*
X164870992Y-103846856D01*
X164870991Y-103846858D01*
X164860066Y-103880989D01*
X164793094Y-104090208D01*
X164751272Y-104347006D01*
X164750288Y-104422181D01*
X164748281Y-104575502D01*
X164747866Y-104607165D01*
X159132673Y-104607165D01*
X159179158Y-104566886D01*
X159231500Y-104555500D01*
X159649748Y-104555500D01*
X159655816Y-104554293D01*
X159696061Y-104546288D01*
X159696062Y-104546288D01*
X159708231Y-104543867D01*
X159774552Y-104499552D01*
X159818867Y-104433231D01*
X159825670Y-104399033D01*
X159829293Y-104380816D01*
X159830500Y-104374748D01*
X159830500Y-102635252D01*
X159818867Y-102576769D01*
X159774552Y-102510448D01*
X159708231Y-102466133D01*
X159696062Y-102463712D01*
X159696061Y-102463712D01*
X159655816Y-102455707D01*
X159649748Y-102454500D01*
X157910252Y-102454500D01*
X157904184Y-102455707D01*
X157863939Y-102463712D01*
X157863938Y-102463712D01*
X157851769Y-102466133D01*
X157785448Y-102510448D01*
X157741133Y-102576769D01*
X157729500Y-102635252D01*
X157729500Y-102919016D01*
X157709498Y-102987137D01*
X157655842Y-103033630D01*
X157585568Y-103043734D01*
X157520988Y-103014240D01*
X157487950Y-102969258D01*
X157442972Y-102865814D01*
X157438105Y-102856739D01*
X157322426Y-102677926D01*
X157316136Y-102669757D01*
X157172806Y-102512240D01*
X157165273Y-102505215D01*
X156998139Y-102373222D01*
X156989552Y-102367517D01*
X156803117Y-102264599D01*
X156793705Y-102260369D01*
X156592959Y-102189280D01*
X156582988Y-102186646D01*
X156511837Y-102173972D01*
X156498540Y-102175432D01*
X156494000Y-102189989D01*
X156494000Y-104823517D01*
X155986000Y-104823517D01*
X155986000Y-102188102D01*
X155982082Y-102174758D01*
X155967806Y-102172771D01*
X155929324Y-102178660D01*
X155919288Y-102181051D01*
X155716868Y-102247212D01*
X155707359Y-102251209D01*
X155518463Y-102349542D01*
X155509738Y-102355036D01*
X155339433Y-102482905D01*
X155331726Y-102489748D01*
X155184590Y-102643717D01*
X155178104Y-102651727D01*
X155058098Y-102827649D01*
X155053000Y-102836623D01*
X154963338Y-103029783D01*
X154959775Y-103039470D01*
X154931012Y-103143185D01*
X154893533Y-103203483D01*
X154829405Y-103233946D01*
X154758986Y-103224903D01*
X154704636Y-103179224D01*
X154688973Y-103145933D01*
X154688143Y-103143185D01*
X154675935Y-103102749D01*
X154579218Y-102920849D01*
X154499404Y-102822988D01*
X154452906Y-102765975D01*
X154452903Y-102765972D01*
X154449011Y-102761200D01*
X154435250Y-102749816D01*
X154295025Y-102633811D01*
X154295021Y-102633809D01*
X154290275Y-102629882D01*
X154109055Y-102531897D01*
X153912254Y-102470977D01*
X153906129Y-102470333D01*
X153906128Y-102470333D01*
X153713498Y-102450087D01*
X153713496Y-102450087D01*
X153707369Y-102449443D01*
X153620529Y-102457346D01*
X153508342Y-102467555D01*
X153508339Y-102467556D01*
X153502203Y-102468114D01*
X153304572Y-102526280D01*
X153122002Y-102621726D01*
X153117201Y-102625586D01*
X153117198Y-102625588D01*
X152966254Y-102746950D01*
X152961447Y-102750815D01*
X152829024Y-102908630D01*
X152826056Y-102914028D01*
X152826053Y-102914033D01*
X152741151Y-103068470D01*
X152729776Y-103089162D01*
X152667484Y-103285532D01*
X152666798Y-103291649D01*
X152666797Y-103291653D01*
X152651517Y-103427883D01*
X152644520Y-103490262D01*
X152214138Y-103490262D01*
X152195480Y-103299970D01*
X152135935Y-103102749D01*
X152039218Y-102920849D01*
X151959404Y-102822988D01*
X151912906Y-102765975D01*
X151912903Y-102765972D01*
X151909011Y-102761200D01*
X151895250Y-102749816D01*
X151755025Y-102633811D01*
X151755021Y-102633809D01*
X151750275Y-102629882D01*
X151569055Y-102531897D01*
X151372254Y-102470977D01*
X151366129Y-102470333D01*
X151366128Y-102470333D01*
X151173498Y-102450087D01*
X151173496Y-102450087D01*
X151167369Y-102449443D01*
X151080529Y-102457346D01*
X150968342Y-102467555D01*
X150968339Y-102467556D01*
X150962203Y-102468114D01*
X150764572Y-102526280D01*
X150582002Y-102621726D01*
X150577201Y-102625586D01*
X150577198Y-102625588D01*
X150426254Y-102746950D01*
X150421447Y-102750815D01*
X150289024Y-102908630D01*
X150286056Y-102914028D01*
X150286053Y-102914033D01*
X150201151Y-103068470D01*
X150189776Y-103089162D01*
X150127484Y-103285532D01*
X150126798Y-103291649D01*
X150126797Y-103291653D01*
X150111517Y-103427883D01*
X150104520Y-103490262D01*
X131890500Y-103490262D01*
X131890500Y-102635252D01*
X131878867Y-102576769D01*
X131834552Y-102510448D01*
X131768231Y-102466133D01*
X131756062Y-102463712D01*
X131756061Y-102463712D01*
X131715816Y-102455707D01*
X131709748Y-102454500D01*
X129970252Y-102454500D01*
X129964184Y-102455707D01*
X129923939Y-102463712D01*
X129923938Y-102463712D01*
X129911769Y-102466133D01*
X129845448Y-102510448D01*
X129801133Y-102576769D01*
X129789500Y-102635252D01*
X129789500Y-104374748D01*
X128893142Y-104374748D01*
X128946781Y-104332841D01*
X129027951Y-104269424D01*
X129042590Y-104252465D01*
X129158540Y-104118134D01*
X129158540Y-104118133D01*
X129162564Y-104113472D01*
X129172673Y-104095678D01*
X129244217Y-103969737D01*
X129264323Y-103934344D01*
X129329351Y-103738863D01*
X129355171Y-103534474D01*
X129355583Y-103505000D01*
X129335480Y-103299970D01*
X129275935Y-103102749D01*
X129179218Y-102920849D01*
X129099404Y-102822988D01*
X129052906Y-102765975D01*
X129052903Y-102765972D01*
X129049011Y-102761200D01*
X129035250Y-102749816D01*
X128895025Y-102633811D01*
X128895021Y-102633809D01*
X128890275Y-102629882D01*
X128709055Y-102531897D01*
X128512254Y-102470977D01*
X128506129Y-102470333D01*
X128506128Y-102470333D01*
X128313498Y-102450087D01*
X128313496Y-102450087D01*
X128307369Y-102449443D01*
X128220529Y-102457346D01*
X128108342Y-102467555D01*
X128108339Y-102467556D01*
X128102203Y-102468114D01*
X127904572Y-102526280D01*
X127722002Y-102621726D01*
X127717201Y-102625586D01*
X127717198Y-102625588D01*
X127566254Y-102746950D01*
X127561447Y-102750815D01*
X127429024Y-102908630D01*
X127426056Y-102914028D01*
X127426053Y-102914033D01*
X127341151Y-103068470D01*
X127329776Y-103089162D01*
X127267484Y-103285532D01*
X127266798Y-103291649D01*
X127266797Y-103291653D01*
X127251517Y-103427883D01*
X127244520Y-103490262D01*
X126814138Y-103490262D01*
X126795480Y-103299970D01*
X126735935Y-103102749D01*
X126639218Y-102920849D01*
X126559404Y-102822988D01*
X126512906Y-102765975D01*
X126512903Y-102765972D01*
X126509011Y-102761200D01*
X126495250Y-102749816D01*
X126355025Y-102633811D01*
X126355021Y-102633809D01*
X126350275Y-102629882D01*
X126169055Y-102531897D01*
X125972254Y-102470977D01*
X125966129Y-102470333D01*
X125966128Y-102470333D01*
X125773498Y-102450087D01*
X125773496Y-102450087D01*
X125767369Y-102449443D01*
X125680529Y-102457346D01*
X125568342Y-102467555D01*
X125568339Y-102467556D01*
X125562203Y-102468114D01*
X125364572Y-102526280D01*
X125182002Y-102621726D01*
X125177201Y-102625586D01*
X125177198Y-102625588D01*
X125026254Y-102746950D01*
X125021447Y-102750815D01*
X124889024Y-102908630D01*
X124886056Y-102914028D01*
X124886053Y-102914033D01*
X124801151Y-103068470D01*
X124789776Y-103089162D01*
X124727484Y-103285532D01*
X124726798Y-103291649D01*
X124726797Y-103291653D01*
X124711517Y-103427883D01*
X124704520Y-103490262D01*
X124274138Y-103490262D01*
X124255480Y-103299970D01*
X124195935Y-103102749D01*
X124099218Y-102920849D01*
X124019404Y-102822988D01*
X123972906Y-102765975D01*
X123972903Y-102765972D01*
X123969011Y-102761200D01*
X123955250Y-102749816D01*
X123815025Y-102633811D01*
X123815021Y-102633809D01*
X123810275Y-102629882D01*
X123629055Y-102531897D01*
X123432254Y-102470977D01*
X123426129Y-102470333D01*
X123426128Y-102470333D01*
X123233498Y-102450087D01*
X123233496Y-102450087D01*
X123227369Y-102449443D01*
X123140529Y-102457346D01*
X123028342Y-102467555D01*
X123028339Y-102467556D01*
X123022203Y-102468114D01*
X122824572Y-102526280D01*
X122642002Y-102621726D01*
X122637201Y-102625586D01*
X122637198Y-102625588D01*
X122486254Y-102746950D01*
X122481447Y-102750815D01*
X122349024Y-102908630D01*
X122346056Y-102914028D01*
X122346053Y-102914033D01*
X122261151Y-103068470D01*
X122249776Y-103089162D01*
X122187484Y-103285532D01*
X122186798Y-103291649D01*
X122186797Y-103291653D01*
X122171517Y-103427883D01*
X122164520Y-103490262D01*
X116931267Y-103490262D01*
X116895225Y-103435288D01*
X116895221Y-103435283D01*
X116892659Y-103431375D01*
X116777590Y-103302451D01*
X116722526Y-103240757D01*
X116722524Y-103240755D01*
X116719409Y-103237265D01*
X116519371Y-103070895D01*
X116296939Y-102935920D01*
X116260999Y-102920849D01*
X116061314Y-102837114D01*
X116061309Y-102837112D01*
X116056999Y-102835305D01*
X116052467Y-102834154D01*
X116052464Y-102834153D01*
X115927185Y-102802337D01*
X115804823Y-102771261D01*
X115588714Y-102749500D01*
X115433956Y-102749500D01*
X115431631Y-102749673D01*
X115431625Y-102749673D01*
X115245186Y-102763528D01*
X115245182Y-102763529D01*
X115240534Y-102763874D01*
X114986768Y-102821295D01*
X114982416Y-102822987D01*
X114982414Y-102822988D01*
X114748630Y-102913902D01*
X114748628Y-102913903D01*
X114744277Y-102915595D01*
X114740223Y-102917912D01*
X114740221Y-102917913D01*
X114704467Y-102938348D01*
X114518388Y-103044701D01*
X114314064Y-103205777D01*
X114135792Y-103395286D01*
X113987489Y-103609063D01*
X113985423Y-103613253D01*
X113985421Y-103613256D01*
X113891676Y-103803354D01*
X113872414Y-103842413D01*
X113870992Y-103846856D01*
X113870991Y-103846858D01*
X113860066Y-103880989D01*
X113793094Y-104090208D01*
X113751272Y-104347006D01*
X113750288Y-104422181D01*
X113748281Y-104575502D01*
X113747866Y-104607165D01*
X100001000Y-104607165D01*
X100001000Y-100127000D01*
X100021002Y-100058879D01*
X100074658Y-100012386D01*
X100127000Y-100001000D01*
X132873000Y-100001000D01*
X132941121Y-100021002D01*
G37*
%TD.AperFunction*%
%TD*%
M02*
