%TF.GenerationSoftware,KiCad,Pcbnew,6.0.11-2627ca5db0~126~ubuntu20.04.1*%
%TF.CreationDate,2024-09-22T13:49:42-05:00*%
%TF.ProjectId,modbus_rtu_mirror_base_88x37x59mm,6d6f6462-7573-45f7-9274-755f6d697272,rev?*%
%TF.SameCoordinates,Original*%
%TF.FileFunction,Legend,Top*%
%TF.FilePolarity,Positive*%
%FSLAX46Y46*%
G04 Gerber Fmt 4.6, Leading zero omitted, Abs format (unit mm)*
G04 Created by KiCad (PCBNEW 6.0.11-2627ca5db0~126~ubuntu20.04.1) date 2024-09-22 13:49:42*
%MOMM*%
%LPD*%
G01*
G04 APERTURE LIST*
%TA.AperFunction,Profile*%
%ADD10C,0.100000*%
%TD*%
%ADD11C,0.200000*%
%ADD12C,0.187500*%
%ADD13C,0.300000*%
%ADD14C,0.150000*%
%ADD15C,0.120000*%
G04 APERTURE END LIST*
D10*
X133000000Y-101500000D02*
X149000000Y-101500000D01*
X149000000Y-131000000D02*
X149000000Y-129500000D01*
X149000000Y-100000000D02*
X149000000Y-101500000D01*
X133000000Y-129500000D02*
X149000000Y-129500000D01*
X100000000Y-100000000D02*
X100000000Y-131000000D01*
X100000000Y-131000000D02*
X133000000Y-131000000D01*
X182000000Y-100000000D02*
X182000000Y-131000000D01*
X149000000Y-131000000D02*
X182000000Y-131000000D01*
X100000000Y-100000000D02*
X133000000Y-100000000D01*
X133000000Y-100000000D02*
X133000000Y-101500000D01*
X133000000Y-131000000D02*
X133000000Y-129500000D01*
X149000000Y-100000000D02*
X182000000Y-100000000D01*
D11*
X100650476Y-101190904D02*
X100650476Y-100390904D01*
X100917142Y-100962333D01*
X101183809Y-100390904D01*
X101183809Y-101190904D01*
X101717142Y-100390904D02*
X101869523Y-100390904D01*
X101945714Y-100429000D01*
X102021904Y-100505190D01*
X102060000Y-100657571D01*
X102060000Y-100924238D01*
X102021904Y-101076619D01*
X101945714Y-101152809D01*
X101869523Y-101190904D01*
X101717142Y-101190904D01*
X101640952Y-101152809D01*
X101564761Y-101076619D01*
X101526666Y-100924238D01*
X101526666Y-100657571D01*
X101564761Y-100505190D01*
X101640952Y-100429000D01*
X101717142Y-100390904D01*
X102402857Y-101190904D02*
X102402857Y-100390904D01*
X102593333Y-100390904D01*
X102707619Y-100429000D01*
X102783809Y-100505190D01*
X102821904Y-100581380D01*
X102860000Y-100733761D01*
X102860000Y-100848047D01*
X102821904Y-101000428D01*
X102783809Y-101076619D01*
X102707619Y-101152809D01*
X102593333Y-101190904D01*
X102402857Y-101190904D01*
X103469523Y-100771857D02*
X103583809Y-100809952D01*
X103621904Y-100848047D01*
X103660000Y-100924238D01*
X103660000Y-101038523D01*
X103621904Y-101114714D01*
X103583809Y-101152809D01*
X103507619Y-101190904D01*
X103202857Y-101190904D01*
X103202857Y-100390904D01*
X103469523Y-100390904D01*
X103545714Y-100429000D01*
X103583809Y-100467095D01*
X103621904Y-100543285D01*
X103621904Y-100619476D01*
X103583809Y-100695666D01*
X103545714Y-100733761D01*
X103469523Y-100771857D01*
X103202857Y-100771857D01*
X104002857Y-100390904D02*
X104002857Y-101038523D01*
X104040952Y-101114714D01*
X104079047Y-101152809D01*
X104155238Y-101190904D01*
X104307619Y-101190904D01*
X104383809Y-101152809D01*
X104421904Y-101114714D01*
X104460000Y-101038523D01*
X104460000Y-100390904D01*
X104802857Y-101152809D02*
X104917142Y-101190904D01*
X105107619Y-101190904D01*
X105183809Y-101152809D01*
X105221904Y-101114714D01*
X105260000Y-101038523D01*
X105260000Y-100962333D01*
X105221904Y-100886142D01*
X105183809Y-100848047D01*
X105107619Y-100809952D01*
X104955238Y-100771857D01*
X104879047Y-100733761D01*
X104840952Y-100695666D01*
X104802857Y-100619476D01*
X104802857Y-100543285D01*
X104840952Y-100467095D01*
X104879047Y-100429000D01*
X104955238Y-100390904D01*
X105145714Y-100390904D01*
X105260000Y-100429000D01*
X106669523Y-101190904D02*
X106402857Y-100809952D01*
X106212380Y-101190904D02*
X106212380Y-100390904D01*
X106517142Y-100390904D01*
X106593333Y-100429000D01*
X106631428Y-100467095D01*
X106669523Y-100543285D01*
X106669523Y-100657571D01*
X106631428Y-100733761D01*
X106593333Y-100771857D01*
X106517142Y-100809952D01*
X106212380Y-100809952D01*
X106898095Y-100390904D02*
X107355238Y-100390904D01*
X107126666Y-101190904D02*
X107126666Y-100390904D01*
X107621904Y-100390904D02*
X107621904Y-101038523D01*
X107660000Y-101114714D01*
X107698095Y-101152809D01*
X107774285Y-101190904D01*
X107926666Y-101190904D01*
X108002857Y-101152809D01*
X108040952Y-101114714D01*
X108079047Y-101038523D01*
X108079047Y-100390904D01*
X109069523Y-101190904D02*
X109069523Y-100390904D01*
X109336190Y-100962333D01*
X109602857Y-100390904D01*
X109602857Y-101190904D01*
X109983809Y-101190904D02*
X109983809Y-100390904D01*
X110821904Y-101190904D02*
X110555238Y-100809952D01*
X110364761Y-101190904D02*
X110364761Y-100390904D01*
X110669523Y-100390904D01*
X110745714Y-100429000D01*
X110783809Y-100467095D01*
X110821904Y-100543285D01*
X110821904Y-100657571D01*
X110783809Y-100733761D01*
X110745714Y-100771857D01*
X110669523Y-100809952D01*
X110364761Y-100809952D01*
X111621904Y-101190904D02*
X111355238Y-100809952D01*
X111164761Y-101190904D02*
X111164761Y-100390904D01*
X111469523Y-100390904D01*
X111545714Y-100429000D01*
X111583809Y-100467095D01*
X111621904Y-100543285D01*
X111621904Y-100657571D01*
X111583809Y-100733761D01*
X111545714Y-100771857D01*
X111469523Y-100809952D01*
X111164761Y-100809952D01*
X112117142Y-100390904D02*
X112269523Y-100390904D01*
X112345714Y-100429000D01*
X112421904Y-100505190D01*
X112460000Y-100657571D01*
X112460000Y-100924238D01*
X112421904Y-101076619D01*
X112345714Y-101152809D01*
X112269523Y-101190904D01*
X112117142Y-101190904D01*
X112040952Y-101152809D01*
X111964761Y-101076619D01*
X111926666Y-100924238D01*
X111926666Y-100657571D01*
X111964761Y-100505190D01*
X112040952Y-100429000D01*
X112117142Y-100390904D01*
X113260000Y-101190904D02*
X112993333Y-100809952D01*
X112802857Y-101190904D02*
X112802857Y-100390904D01*
X113107619Y-100390904D01*
X113183809Y-100429000D01*
X113221904Y-100467095D01*
X113260000Y-100543285D01*
X113260000Y-100657571D01*
X113221904Y-100733761D01*
X113183809Y-100771857D01*
X113107619Y-100809952D01*
X112802857Y-100809952D01*
X100917142Y-102059857D02*
X101031428Y-102097952D01*
X101069523Y-102136047D01*
X101107619Y-102212238D01*
X101107619Y-102326523D01*
X101069523Y-102402714D01*
X101031428Y-102440809D01*
X100955238Y-102478904D01*
X100650476Y-102478904D01*
X100650476Y-101678904D01*
X100917142Y-101678904D01*
X100993333Y-101717000D01*
X101031428Y-101755095D01*
X101069523Y-101831285D01*
X101069523Y-101907476D01*
X101031428Y-101983666D01*
X100993333Y-102021761D01*
X100917142Y-102059857D01*
X100650476Y-102059857D01*
X101412380Y-102250333D02*
X101793333Y-102250333D01*
X101336190Y-102478904D02*
X101602857Y-101678904D01*
X101869523Y-102478904D01*
X102098095Y-102440809D02*
X102212380Y-102478904D01*
X102402857Y-102478904D01*
X102479047Y-102440809D01*
X102517142Y-102402714D01*
X102555238Y-102326523D01*
X102555238Y-102250333D01*
X102517142Y-102174142D01*
X102479047Y-102136047D01*
X102402857Y-102097952D01*
X102250476Y-102059857D01*
X102174285Y-102021761D01*
X102136190Y-101983666D01*
X102098095Y-101907476D01*
X102098095Y-101831285D01*
X102136190Y-101755095D01*
X102174285Y-101717000D01*
X102250476Y-101678904D01*
X102440952Y-101678904D01*
X102555238Y-101717000D01*
X102898095Y-102059857D02*
X103164761Y-102059857D01*
X103279047Y-102478904D02*
X102898095Y-102478904D01*
X102898095Y-101678904D01*
X103279047Y-101678904D01*
D12*
X134820428Y-104542714D02*
X134820428Y-104292714D01*
X135213285Y-104185571D02*
X135213285Y-104542714D01*
X134463285Y-104542714D01*
X134463285Y-104185571D01*
X135213285Y-103864142D02*
X134463285Y-103864142D01*
X135213285Y-103435571D01*
X134463285Y-103435571D01*
X135213285Y-102685571D02*
X135213285Y-103114142D01*
X135213285Y-102899857D02*
X134463285Y-102899857D01*
X134570428Y-102971285D01*
X134641857Y-103042714D01*
X134677571Y-103114142D01*
X133193285Y-104560571D02*
X133193285Y-104132000D01*
X133943285Y-104346285D02*
X133193285Y-104346285D01*
X133193285Y-103953428D02*
X133943285Y-103453428D01*
X133193285Y-103453428D02*
X133943285Y-103953428D01*
X133943285Y-102774857D02*
X133943285Y-103203428D01*
X133943285Y-102989142D02*
X133193285Y-102989142D01*
X133300428Y-103060571D01*
X133371857Y-103132000D01*
X133407571Y-103203428D01*
X148516571Y-104596285D02*
X148516571Y-104024857D01*
X148802285Y-104310571D02*
X148230857Y-104310571D01*
X148052285Y-103310571D02*
X148052285Y-103667714D01*
X148409428Y-103703428D01*
X148373714Y-103667714D01*
X148338000Y-103596285D01*
X148338000Y-103417714D01*
X148373714Y-103346285D01*
X148409428Y-103310571D01*
X148480857Y-103274857D01*
X148659428Y-103274857D01*
X148730857Y-103310571D01*
X148766571Y-103346285D01*
X148802285Y-103417714D01*
X148802285Y-103596285D01*
X148766571Y-103667714D01*
X148730857Y-103703428D01*
X148052285Y-103060571D02*
X148802285Y-102810571D01*
X148052285Y-102560571D01*
D11*
X172853333Y-118154047D02*
X172853333Y-117773095D01*
X173081904Y-118230238D02*
X172281904Y-117963571D01*
X173081904Y-117696904D01*
X172548571Y-116477857D02*
X173081904Y-116477857D01*
X172243809Y-116668333D02*
X172815238Y-116858809D01*
X172815238Y-116363571D01*
X172624761Y-115944523D02*
X172586666Y-116020714D01*
X172548571Y-116058809D01*
X172472380Y-116096904D01*
X172434285Y-116096904D01*
X172358095Y-116058809D01*
X172320000Y-116020714D01*
X172281904Y-115944523D01*
X172281904Y-115792142D01*
X172320000Y-115715952D01*
X172358095Y-115677857D01*
X172434285Y-115639761D01*
X172472380Y-115639761D01*
X172548571Y-115677857D01*
X172586666Y-115715952D01*
X172624761Y-115792142D01*
X172624761Y-115944523D01*
X172662857Y-116020714D01*
X172700952Y-116058809D01*
X172777142Y-116096904D01*
X172929523Y-116096904D01*
X173005714Y-116058809D01*
X173043809Y-116020714D01*
X173081904Y-115944523D01*
X173081904Y-115792142D01*
X173043809Y-115715952D01*
X173005714Y-115677857D01*
X172929523Y-115639761D01*
X172777142Y-115639761D01*
X172700952Y-115677857D01*
X172662857Y-115715952D01*
X172624761Y-115792142D01*
X172281904Y-114915952D02*
X172281904Y-115296904D01*
X172662857Y-115335000D01*
X172624761Y-115296904D01*
X172586666Y-115220714D01*
X172586666Y-115030238D01*
X172624761Y-114954047D01*
X172662857Y-114915952D01*
X172739047Y-114877857D01*
X172929523Y-114877857D01*
X173005714Y-114915952D01*
X173043809Y-114954047D01*
X173081904Y-115030238D01*
X173081904Y-115220714D01*
X173043809Y-115296904D01*
X173005714Y-115335000D01*
X172777142Y-114535000D02*
X172777142Y-113925476D01*
X173081904Y-113125476D02*
X173081904Y-113582619D01*
X173081904Y-113354047D02*
X172281904Y-113354047D01*
X172396190Y-113430238D01*
X172472380Y-113506428D01*
X172510476Y-113582619D01*
X172662857Y-111906428D02*
X172700952Y-111792142D01*
X172739047Y-111754047D01*
X172815238Y-111715952D01*
X172929523Y-111715952D01*
X173005714Y-111754047D01*
X173043809Y-111792142D01*
X173081904Y-111868333D01*
X173081904Y-112173095D01*
X172281904Y-112173095D01*
X172281904Y-111906428D01*
X172320000Y-111830238D01*
X172358095Y-111792142D01*
X172434285Y-111754047D01*
X172510476Y-111754047D01*
X172586666Y-111792142D01*
X172624761Y-111830238D01*
X172662857Y-111906428D01*
X172662857Y-112173095D01*
D12*
X145816785Y-117507982D02*
X145459642Y-117757982D01*
X145816785Y-117936553D02*
X145066785Y-117936553D01*
X145066785Y-117650839D01*
X145102500Y-117579410D01*
X145138214Y-117543696D01*
X145209642Y-117507982D01*
X145316785Y-117507982D01*
X145388214Y-117543696D01*
X145423928Y-117579410D01*
X145459642Y-117650839D01*
X145459642Y-117936553D01*
X145066785Y-116972267D02*
X145602500Y-116972267D01*
X145709642Y-117007982D01*
X145781071Y-117079410D01*
X145816785Y-117186553D01*
X145816785Y-117257982D01*
X145316785Y-116293696D02*
X145816785Y-116293696D01*
X145031071Y-116472267D02*
X145566785Y-116650839D01*
X145566785Y-116186553D01*
X145531071Y-115900839D02*
X145531071Y-115329410D01*
X145066785Y-115079410D02*
X145066785Y-114650839D01*
X145816785Y-114865125D02*
X145066785Y-114865125D01*
X145423928Y-114400839D02*
X145423928Y-114150839D01*
X145816785Y-114043696D02*
X145816785Y-114400839D01*
X145066785Y-114400839D01*
X145066785Y-114043696D01*
X145816785Y-113293696D02*
X145459642Y-113543696D01*
X145816785Y-113722267D02*
X145066785Y-113722267D01*
X145066785Y-113436553D01*
X145102500Y-113365125D01*
X145138214Y-113329410D01*
X145209642Y-113293696D01*
X145316785Y-113293696D01*
X145388214Y-113329410D01*
X145423928Y-113365125D01*
X145459642Y-113436553D01*
X145459642Y-113722267D01*
X145816785Y-112972267D02*
X145066785Y-112972267D01*
X145602500Y-112722267D01*
X145066785Y-112472267D01*
X145816785Y-112472267D01*
X145816785Y-112115125D02*
X145066785Y-112115125D01*
X145816785Y-111757982D02*
X145066785Y-111757982D01*
X145816785Y-111329410D01*
X145066785Y-111329410D01*
X145602500Y-111007982D02*
X145602500Y-110650839D01*
X145816785Y-111079410D02*
X145066785Y-110829410D01*
X145816785Y-110579410D01*
X145066785Y-110436553D02*
X145066785Y-110007982D01*
X145816785Y-110222267D02*
X145066785Y-110222267D01*
X145531071Y-109757982D02*
X145531071Y-109186553D01*
X145138214Y-108865125D02*
X145102500Y-108829410D01*
X145066785Y-108757982D01*
X145066785Y-108579410D01*
X145102500Y-108507982D01*
X145138214Y-108472267D01*
X145209642Y-108436553D01*
X145281071Y-108436553D01*
X145388214Y-108472267D01*
X145816785Y-108900839D01*
X145816785Y-108436553D01*
X147024285Y-117507982D02*
X146667142Y-117757982D01*
X147024285Y-117936553D02*
X146274285Y-117936553D01*
X146274285Y-117650839D01*
X146310000Y-117579410D01*
X146345714Y-117543696D01*
X146417142Y-117507982D01*
X146524285Y-117507982D01*
X146595714Y-117543696D01*
X146631428Y-117579410D01*
X146667142Y-117650839D01*
X146667142Y-117936553D01*
X146274285Y-116972267D02*
X146810000Y-116972267D01*
X146917142Y-117007982D01*
X146988571Y-117079410D01*
X147024285Y-117186553D01*
X147024285Y-117257982D01*
X146274285Y-116257982D02*
X146274285Y-116615125D01*
X146631428Y-116650839D01*
X146595714Y-116615125D01*
X146560000Y-116543696D01*
X146560000Y-116365125D01*
X146595714Y-116293696D01*
X146631428Y-116257982D01*
X146702857Y-116222267D01*
X146881428Y-116222267D01*
X146952857Y-116257982D01*
X146988571Y-116293696D01*
X147024285Y-116365125D01*
X147024285Y-116543696D01*
X146988571Y-116615125D01*
X146952857Y-116650839D01*
X146738571Y-115900839D02*
X146738571Y-115329410D01*
X147024285Y-114972267D02*
X146274285Y-114972267D01*
X146274285Y-114686553D01*
X146310000Y-114615125D01*
X146345714Y-114579410D01*
X146417142Y-114543696D01*
X146524285Y-114543696D01*
X146595714Y-114579410D01*
X146631428Y-114615125D01*
X146667142Y-114686553D01*
X146667142Y-114972267D01*
X146274285Y-114222267D02*
X146881428Y-114222267D01*
X146952857Y-114186553D01*
X146988571Y-114150839D01*
X147024285Y-114079410D01*
X147024285Y-113936553D01*
X146988571Y-113865125D01*
X146952857Y-113829410D01*
X146881428Y-113793696D01*
X146274285Y-113793696D01*
X147024285Y-113079410D02*
X147024285Y-113436553D01*
X146274285Y-113436553D01*
X147024285Y-112472267D02*
X147024285Y-112829410D01*
X146274285Y-112829410D01*
X146738571Y-112222267D02*
X146738571Y-111650839D01*
X146274285Y-111293696D02*
X146881428Y-111293696D01*
X146952857Y-111257982D01*
X146988571Y-111222267D01*
X147024285Y-111150839D01*
X147024285Y-111007982D01*
X146988571Y-110936553D01*
X146952857Y-110900839D01*
X146881428Y-110865125D01*
X146274285Y-110865125D01*
X147024285Y-110507982D02*
X146274285Y-110507982D01*
X146274285Y-110222267D01*
X146310000Y-110150839D01*
X146345714Y-110115125D01*
X146417142Y-110079410D01*
X146524285Y-110079410D01*
X146595714Y-110115125D01*
X146631428Y-110150839D01*
X146667142Y-110222267D01*
X146667142Y-110507982D01*
X146738571Y-109757982D02*
X146738571Y-109186553D01*
X146345714Y-108865125D02*
X146310000Y-108829410D01*
X146274285Y-108757982D01*
X146274285Y-108579410D01*
X146310000Y-108507982D01*
X146345714Y-108472267D01*
X146417142Y-108436553D01*
X146488571Y-108436553D01*
X146595714Y-108472267D01*
X147024285Y-108900839D01*
X147024285Y-108436553D01*
X148231785Y-117507982D02*
X147874642Y-117757982D01*
X148231785Y-117936553D02*
X147481785Y-117936553D01*
X147481785Y-117650839D01*
X147517500Y-117579410D01*
X147553214Y-117543696D01*
X147624642Y-117507982D01*
X147731785Y-117507982D01*
X147803214Y-117543696D01*
X147838928Y-117579410D01*
X147874642Y-117650839D01*
X147874642Y-117936553D01*
X147481785Y-116972267D02*
X148017500Y-116972267D01*
X148124642Y-117007982D01*
X148196071Y-117079410D01*
X148231785Y-117186553D01*
X148231785Y-117257982D01*
X147481785Y-116293696D02*
X147481785Y-116436553D01*
X147517500Y-116507982D01*
X147553214Y-116543696D01*
X147660357Y-116615125D01*
X147803214Y-116650839D01*
X148088928Y-116650839D01*
X148160357Y-116615125D01*
X148196071Y-116579410D01*
X148231785Y-116507982D01*
X148231785Y-116365125D01*
X148196071Y-116293696D01*
X148160357Y-116257982D01*
X148088928Y-116222267D01*
X147910357Y-116222267D01*
X147838928Y-116257982D01*
X147803214Y-116293696D01*
X147767500Y-116365125D01*
X147767500Y-116507982D01*
X147803214Y-116579410D01*
X147838928Y-116615125D01*
X147910357Y-116650839D01*
X147946071Y-115900839D02*
X147946071Y-115329410D01*
X148231785Y-114972267D02*
X147481785Y-114972267D01*
X147481785Y-114686553D01*
X147517500Y-114615125D01*
X147553214Y-114579410D01*
X147624642Y-114543696D01*
X147731785Y-114543696D01*
X147803214Y-114579410D01*
X147838928Y-114615125D01*
X147874642Y-114686553D01*
X147874642Y-114972267D01*
X147481785Y-114222267D02*
X148088928Y-114222267D01*
X148160357Y-114186553D01*
X148196071Y-114150839D01*
X148231785Y-114079410D01*
X148231785Y-113936553D01*
X148196071Y-113865125D01*
X148160357Y-113829410D01*
X148088928Y-113793696D01*
X147481785Y-113793696D01*
X148231785Y-113079410D02*
X148231785Y-113436553D01*
X147481785Y-113436553D01*
X148231785Y-112472267D02*
X148231785Y-112829410D01*
X147481785Y-112829410D01*
X147946071Y-112222267D02*
X147946071Y-111650839D01*
X148231785Y-111293696D02*
X147481785Y-111293696D01*
X147481785Y-111115125D01*
X147517500Y-111007982D01*
X147588928Y-110936553D01*
X147660357Y-110900839D01*
X147803214Y-110865125D01*
X147910357Y-110865125D01*
X148053214Y-110900839D01*
X148124642Y-110936553D01*
X148196071Y-111007982D01*
X148231785Y-111115125D01*
X148231785Y-111293696D01*
X147481785Y-110615125D02*
X148231785Y-110436553D01*
X147696071Y-110293696D01*
X148231785Y-110150839D01*
X147481785Y-109972267D01*
X147946071Y-109686553D02*
X147946071Y-109115125D01*
X147553214Y-108793696D02*
X147517500Y-108757982D01*
X147481785Y-108686553D01*
X147481785Y-108507982D01*
X147517500Y-108436553D01*
X147553214Y-108400839D01*
X147624642Y-108365125D01*
X147696071Y-108365125D01*
X147803214Y-108400839D01*
X148231785Y-108829410D01*
X148231785Y-108365125D01*
X136610285Y-104114142D02*
X136253142Y-104364142D01*
X136610285Y-104542714D02*
X135860285Y-104542714D01*
X135860285Y-104257000D01*
X135896000Y-104185571D01*
X135931714Y-104149857D01*
X136003142Y-104114142D01*
X136110285Y-104114142D01*
X136181714Y-104149857D01*
X136217428Y-104185571D01*
X136253142Y-104257000D01*
X136253142Y-104542714D01*
X135860285Y-103864142D02*
X136610285Y-103364142D01*
X135860285Y-103364142D02*
X136610285Y-103864142D01*
X136610285Y-102685571D02*
X136610285Y-103114142D01*
X136610285Y-102899857D02*
X135860285Y-102899857D01*
X135967428Y-102971285D01*
X136038857Y-103042714D01*
X136074571Y-103114142D01*
D11*
X172853333Y-108883047D02*
X172853333Y-108502095D01*
X173081904Y-108959238D02*
X172281904Y-108692571D01*
X173081904Y-108425904D01*
X172548571Y-107206857D02*
X173081904Y-107206857D01*
X172243809Y-107397333D02*
X172815238Y-107587809D01*
X172815238Y-107092571D01*
X172624761Y-106673523D02*
X172586666Y-106749714D01*
X172548571Y-106787809D01*
X172472380Y-106825904D01*
X172434285Y-106825904D01*
X172358095Y-106787809D01*
X172320000Y-106749714D01*
X172281904Y-106673523D01*
X172281904Y-106521142D01*
X172320000Y-106444952D01*
X172358095Y-106406857D01*
X172434285Y-106368761D01*
X172472380Y-106368761D01*
X172548571Y-106406857D01*
X172586666Y-106444952D01*
X172624761Y-106521142D01*
X172624761Y-106673523D01*
X172662857Y-106749714D01*
X172700952Y-106787809D01*
X172777142Y-106825904D01*
X172929523Y-106825904D01*
X173005714Y-106787809D01*
X173043809Y-106749714D01*
X173081904Y-106673523D01*
X173081904Y-106521142D01*
X173043809Y-106444952D01*
X173005714Y-106406857D01*
X172929523Y-106368761D01*
X172777142Y-106368761D01*
X172700952Y-106406857D01*
X172662857Y-106444952D01*
X172624761Y-106521142D01*
X172281904Y-105644952D02*
X172281904Y-106025904D01*
X172662857Y-106064000D01*
X172624761Y-106025904D01*
X172586666Y-105949714D01*
X172586666Y-105759238D01*
X172624761Y-105683047D01*
X172662857Y-105644952D01*
X172739047Y-105606857D01*
X172929523Y-105606857D01*
X173005714Y-105644952D01*
X173043809Y-105683047D01*
X173081904Y-105759238D01*
X173081904Y-105949714D01*
X173043809Y-106025904D01*
X173005714Y-106064000D01*
X172777142Y-105264000D02*
X172777142Y-104654476D01*
X172358095Y-104311619D02*
X172320000Y-104273523D01*
X172281904Y-104197333D01*
X172281904Y-104006857D01*
X172320000Y-103930666D01*
X172358095Y-103892571D01*
X172434285Y-103854476D01*
X172510476Y-103854476D01*
X172624761Y-103892571D01*
X173081904Y-104349714D01*
X173081904Y-103854476D01*
X172662857Y-102635428D02*
X172700952Y-102521142D01*
X172739047Y-102483047D01*
X172815238Y-102444952D01*
X172929523Y-102444952D01*
X173005714Y-102483047D01*
X173043809Y-102521142D01*
X173081904Y-102597333D01*
X173081904Y-102902095D01*
X172281904Y-102902095D01*
X172281904Y-102635428D01*
X172320000Y-102559238D01*
X172358095Y-102521142D01*
X172434285Y-102483047D01*
X172510476Y-102483047D01*
X172586666Y-102521142D01*
X172624761Y-102559238D01*
X172662857Y-102635428D01*
X172662857Y-102902095D01*
D13*
X103159857Y-108708000D02*
X103874142Y-108708000D01*
X103017000Y-109136571D02*
X103517000Y-107636571D01*
X104017000Y-109136571D01*
X105374142Y-108993714D02*
X105302714Y-109065142D01*
X105088428Y-109136571D01*
X104945571Y-109136571D01*
X104731285Y-109065142D01*
X104588428Y-108922285D01*
X104517000Y-108779428D01*
X104445571Y-108493714D01*
X104445571Y-108279428D01*
X104517000Y-107993714D01*
X104588428Y-107850857D01*
X104731285Y-107708000D01*
X104945571Y-107636571D01*
X105088428Y-107636571D01*
X105302714Y-107708000D01*
X105374142Y-107779428D01*
D12*
X146818000Y-104076428D02*
X146782285Y-104147857D01*
X146782285Y-104255000D01*
X146818000Y-104362142D01*
X146889428Y-104433571D01*
X146960857Y-104469285D01*
X147103714Y-104505000D01*
X147210857Y-104505000D01*
X147353714Y-104469285D01*
X147425142Y-104433571D01*
X147496571Y-104362142D01*
X147532285Y-104255000D01*
X147532285Y-104183571D01*
X147496571Y-104076428D01*
X147460857Y-104040714D01*
X147210857Y-104040714D01*
X147210857Y-104183571D01*
X147532285Y-103719285D02*
X146782285Y-103719285D01*
X147532285Y-103290714D01*
X146782285Y-103290714D01*
X147532285Y-102933571D02*
X146782285Y-102933571D01*
X146782285Y-102755000D01*
X146818000Y-102647857D01*
X146889428Y-102576428D01*
X146960857Y-102540714D01*
X147103714Y-102505000D01*
X147210857Y-102505000D01*
X147353714Y-102540714D01*
X147425142Y-102576428D01*
X147496571Y-102647857D01*
X147532285Y-102755000D01*
X147532285Y-102933571D01*
D11*
X172853333Y-128314047D02*
X172853333Y-127933095D01*
X173081904Y-128390238D02*
X172281904Y-128123571D01*
X173081904Y-127856904D01*
X172548571Y-126637857D02*
X173081904Y-126637857D01*
X172243809Y-126828333D02*
X172815238Y-127018809D01*
X172815238Y-126523571D01*
X172624761Y-126104523D02*
X172586666Y-126180714D01*
X172548571Y-126218809D01*
X172472380Y-126256904D01*
X172434285Y-126256904D01*
X172358095Y-126218809D01*
X172320000Y-126180714D01*
X172281904Y-126104523D01*
X172281904Y-125952142D01*
X172320000Y-125875952D01*
X172358095Y-125837857D01*
X172434285Y-125799761D01*
X172472380Y-125799761D01*
X172548571Y-125837857D01*
X172586666Y-125875952D01*
X172624761Y-125952142D01*
X172624761Y-126104523D01*
X172662857Y-126180714D01*
X172700952Y-126218809D01*
X172777142Y-126256904D01*
X172929523Y-126256904D01*
X173005714Y-126218809D01*
X173043809Y-126180714D01*
X173081904Y-126104523D01*
X173081904Y-125952142D01*
X173043809Y-125875952D01*
X173005714Y-125837857D01*
X172929523Y-125799761D01*
X172777142Y-125799761D01*
X172700952Y-125837857D01*
X172662857Y-125875952D01*
X172624761Y-125952142D01*
X172281904Y-125075952D02*
X172281904Y-125456904D01*
X172662857Y-125495000D01*
X172624761Y-125456904D01*
X172586666Y-125380714D01*
X172586666Y-125190238D01*
X172624761Y-125114047D01*
X172662857Y-125075952D01*
X172739047Y-125037857D01*
X172929523Y-125037857D01*
X173005714Y-125075952D01*
X173043809Y-125114047D01*
X173081904Y-125190238D01*
X173081904Y-125380714D01*
X173043809Y-125456904D01*
X173005714Y-125495000D01*
X172777142Y-124695000D02*
X172777142Y-124085476D01*
X173081904Y-123285476D02*
X173081904Y-123742619D01*
X173081904Y-123514047D02*
X172281904Y-123514047D01*
X172396190Y-123590238D01*
X172472380Y-123666428D01*
X172510476Y-123742619D01*
X172662857Y-122066428D02*
X172700952Y-121952142D01*
X172739047Y-121914047D01*
X172815238Y-121875952D01*
X172929523Y-121875952D01*
X173005714Y-121914047D01*
X173043809Y-121952142D01*
X173081904Y-122028333D01*
X173081904Y-122333095D01*
X172281904Y-122333095D01*
X172281904Y-122066428D01*
X172320000Y-121990238D01*
X172358095Y-121952142D01*
X172434285Y-121914047D01*
X172510476Y-121914047D01*
X172586666Y-121952142D01*
X172624761Y-121990238D01*
X172662857Y-122066428D01*
X172662857Y-122333095D01*
D12*
X146262285Y-103987142D02*
X145905142Y-104237142D01*
X146262285Y-104415714D02*
X145512285Y-104415714D01*
X145512285Y-104130000D01*
X145548000Y-104058571D01*
X145583714Y-104022857D01*
X145655142Y-103987142D01*
X145762285Y-103987142D01*
X145833714Y-104022857D01*
X145869428Y-104058571D01*
X145905142Y-104130000D01*
X145905142Y-104415714D01*
X145512285Y-103737142D02*
X146262285Y-103237142D01*
X145512285Y-103237142D02*
X146262285Y-103737142D01*
X145583714Y-102987142D02*
X145548000Y-102951428D01*
X145512285Y-102880000D01*
X145512285Y-102701428D01*
X145548000Y-102630000D01*
X145583714Y-102594285D01*
X145655142Y-102558571D01*
X145726571Y-102558571D01*
X145833714Y-102594285D01*
X146262285Y-103022857D01*
X146262285Y-102558571D01*
X144599428Y-104415714D02*
X144599428Y-104165714D01*
X144992285Y-104058571D02*
X144992285Y-104415714D01*
X144242285Y-104415714D01*
X144242285Y-104058571D01*
X144992285Y-103737142D02*
X144242285Y-103737142D01*
X144992285Y-103308571D01*
X144242285Y-103308571D01*
X144313714Y-102987142D02*
X144278000Y-102951428D01*
X144242285Y-102880000D01*
X144242285Y-102701428D01*
X144278000Y-102630000D01*
X144313714Y-102594285D01*
X144385142Y-102558571D01*
X144456571Y-102558571D01*
X144563714Y-102594285D01*
X144992285Y-103022857D01*
X144992285Y-102558571D01*
D13*
X103032857Y-122805000D02*
X103747142Y-122805000D01*
X102890000Y-123233571D02*
X103390000Y-121733571D01*
X103890000Y-123233571D01*
X105247142Y-123090714D02*
X105175714Y-123162142D01*
X104961428Y-123233571D01*
X104818571Y-123233571D01*
X104604285Y-123162142D01*
X104461428Y-123019285D01*
X104390000Y-122876428D01*
X104318571Y-122590714D01*
X104318571Y-122376428D01*
X104390000Y-122090714D01*
X104461428Y-121947857D01*
X104604285Y-121805000D01*
X104818571Y-121733571D01*
X104961428Y-121733571D01*
X105175714Y-121805000D01*
X105247142Y-121876428D01*
D12*
X137257285Y-104687571D02*
X137257285Y-104259000D01*
X138007285Y-104473285D02*
X137257285Y-104473285D01*
X137257285Y-104080428D02*
X138007285Y-103580428D01*
X137257285Y-103580428D02*
X138007285Y-104080428D01*
X137328714Y-103330428D02*
X137293000Y-103294714D01*
X137257285Y-103223285D01*
X137257285Y-103044714D01*
X137293000Y-102973285D01*
X137328714Y-102937571D01*
X137400142Y-102901857D01*
X137471571Y-102901857D01*
X137578714Y-102937571D01*
X138007285Y-103366142D01*
X138007285Y-102901857D01*
X145816785Y-128175982D02*
X145459642Y-128425982D01*
X145816785Y-128604553D02*
X145066785Y-128604553D01*
X145066785Y-128318839D01*
X145102500Y-128247410D01*
X145138214Y-128211696D01*
X145209642Y-128175982D01*
X145316785Y-128175982D01*
X145388214Y-128211696D01*
X145423928Y-128247410D01*
X145459642Y-128318839D01*
X145459642Y-128604553D01*
X145066785Y-127640267D02*
X145602500Y-127640267D01*
X145709642Y-127675982D01*
X145781071Y-127747410D01*
X145816785Y-127854553D01*
X145816785Y-127925982D01*
X145816785Y-126890267D02*
X145816785Y-127318839D01*
X145816785Y-127104553D02*
X145066785Y-127104553D01*
X145173928Y-127175982D01*
X145245357Y-127247410D01*
X145281071Y-127318839D01*
X145531071Y-126568839D02*
X145531071Y-125997410D01*
X145066785Y-125747410D02*
X145066785Y-125318839D01*
X145816785Y-125533125D02*
X145066785Y-125533125D01*
X145423928Y-125068839D02*
X145423928Y-124818839D01*
X145816785Y-124711696D02*
X145816785Y-125068839D01*
X145066785Y-125068839D01*
X145066785Y-124711696D01*
X145816785Y-123961696D02*
X145459642Y-124211696D01*
X145816785Y-124390267D02*
X145066785Y-124390267D01*
X145066785Y-124104553D01*
X145102500Y-124033125D01*
X145138214Y-123997410D01*
X145209642Y-123961696D01*
X145316785Y-123961696D01*
X145388214Y-123997410D01*
X145423928Y-124033125D01*
X145459642Y-124104553D01*
X145459642Y-124390267D01*
X145816785Y-123640267D02*
X145066785Y-123640267D01*
X145602500Y-123390267D01*
X145066785Y-123140267D01*
X145816785Y-123140267D01*
X145816785Y-122783125D02*
X145066785Y-122783125D01*
X145816785Y-122425982D02*
X145066785Y-122425982D01*
X145816785Y-121997410D01*
X145066785Y-121997410D01*
X145602500Y-121675982D02*
X145602500Y-121318839D01*
X145816785Y-121747410D02*
X145066785Y-121497410D01*
X145816785Y-121247410D01*
X145066785Y-121104553D02*
X145066785Y-120675982D01*
X145816785Y-120890267D02*
X145066785Y-120890267D01*
X145531071Y-120425982D02*
X145531071Y-119854553D01*
X145816785Y-119104553D02*
X145816785Y-119533125D01*
X145816785Y-119318839D02*
X145066785Y-119318839D01*
X145173928Y-119390267D01*
X145245357Y-119461696D01*
X145281071Y-119533125D01*
X147024285Y-128175982D02*
X146667142Y-128425982D01*
X147024285Y-128604553D02*
X146274285Y-128604553D01*
X146274285Y-128318839D01*
X146310000Y-128247410D01*
X146345714Y-128211696D01*
X146417142Y-128175982D01*
X146524285Y-128175982D01*
X146595714Y-128211696D01*
X146631428Y-128247410D01*
X146667142Y-128318839D01*
X146667142Y-128604553D01*
X146274285Y-127640267D02*
X146810000Y-127640267D01*
X146917142Y-127675982D01*
X146988571Y-127747410D01*
X147024285Y-127854553D01*
X147024285Y-127925982D01*
X146345714Y-127318839D02*
X146310000Y-127283125D01*
X146274285Y-127211696D01*
X146274285Y-127033125D01*
X146310000Y-126961696D01*
X146345714Y-126925982D01*
X146417142Y-126890267D01*
X146488571Y-126890267D01*
X146595714Y-126925982D01*
X147024285Y-127354553D01*
X147024285Y-126890267D01*
X146738571Y-126568839D02*
X146738571Y-125997410D01*
X147024285Y-125640267D02*
X146274285Y-125640267D01*
X146274285Y-125354553D01*
X146310000Y-125283125D01*
X146345714Y-125247410D01*
X146417142Y-125211696D01*
X146524285Y-125211696D01*
X146595714Y-125247410D01*
X146631428Y-125283125D01*
X146667142Y-125354553D01*
X146667142Y-125640267D01*
X146274285Y-124890267D02*
X146881428Y-124890267D01*
X146952857Y-124854553D01*
X146988571Y-124818839D01*
X147024285Y-124747410D01*
X147024285Y-124604553D01*
X146988571Y-124533125D01*
X146952857Y-124497410D01*
X146881428Y-124461696D01*
X146274285Y-124461696D01*
X147024285Y-123747410D02*
X147024285Y-124104553D01*
X146274285Y-124104553D01*
X147024285Y-123140267D02*
X147024285Y-123497410D01*
X146274285Y-123497410D01*
X146738571Y-122890267D02*
X146738571Y-122318839D01*
X146274285Y-121961696D02*
X146881428Y-121961696D01*
X146952857Y-121925982D01*
X146988571Y-121890267D01*
X147024285Y-121818839D01*
X147024285Y-121675982D01*
X146988571Y-121604553D01*
X146952857Y-121568839D01*
X146881428Y-121533125D01*
X146274285Y-121533125D01*
X147024285Y-121175982D02*
X146274285Y-121175982D01*
X146274285Y-120890267D01*
X146310000Y-120818839D01*
X146345714Y-120783125D01*
X146417142Y-120747410D01*
X146524285Y-120747410D01*
X146595714Y-120783125D01*
X146631428Y-120818839D01*
X146667142Y-120890267D01*
X146667142Y-121175982D01*
X146738571Y-120425982D02*
X146738571Y-119854553D01*
X147024285Y-119104553D02*
X147024285Y-119533125D01*
X147024285Y-119318839D02*
X146274285Y-119318839D01*
X146381428Y-119390267D01*
X146452857Y-119461696D01*
X146488571Y-119533125D01*
X148231785Y-128175982D02*
X147874642Y-128425982D01*
X148231785Y-128604553D02*
X147481785Y-128604553D01*
X147481785Y-128318839D01*
X147517500Y-128247410D01*
X147553214Y-128211696D01*
X147624642Y-128175982D01*
X147731785Y-128175982D01*
X147803214Y-128211696D01*
X147838928Y-128247410D01*
X147874642Y-128318839D01*
X147874642Y-128604553D01*
X147481785Y-127640267D02*
X148017500Y-127640267D01*
X148124642Y-127675982D01*
X148196071Y-127747410D01*
X148231785Y-127854553D01*
X148231785Y-127925982D01*
X147481785Y-127354553D02*
X147481785Y-126890267D01*
X147767500Y-127140267D01*
X147767500Y-127033125D01*
X147803214Y-126961696D01*
X147838928Y-126925982D01*
X147910357Y-126890267D01*
X148088928Y-126890267D01*
X148160357Y-126925982D01*
X148196071Y-126961696D01*
X148231785Y-127033125D01*
X148231785Y-127247410D01*
X148196071Y-127318839D01*
X148160357Y-127354553D01*
X147946071Y-126568839D02*
X147946071Y-125997410D01*
X148231785Y-125640267D02*
X147481785Y-125640267D01*
X147481785Y-125354553D01*
X147517500Y-125283125D01*
X147553214Y-125247410D01*
X147624642Y-125211696D01*
X147731785Y-125211696D01*
X147803214Y-125247410D01*
X147838928Y-125283125D01*
X147874642Y-125354553D01*
X147874642Y-125640267D01*
X147481785Y-124890267D02*
X148088928Y-124890267D01*
X148160357Y-124854553D01*
X148196071Y-124818839D01*
X148231785Y-124747410D01*
X148231785Y-124604553D01*
X148196071Y-124533125D01*
X148160357Y-124497410D01*
X148088928Y-124461696D01*
X147481785Y-124461696D01*
X148231785Y-123747410D02*
X148231785Y-124104553D01*
X147481785Y-124104553D01*
X148231785Y-123140267D02*
X148231785Y-123497410D01*
X147481785Y-123497410D01*
X147946071Y-122890267D02*
X147946071Y-122318839D01*
X148231785Y-121961696D02*
X147481785Y-121961696D01*
X147481785Y-121783125D01*
X147517500Y-121675982D01*
X147588928Y-121604553D01*
X147660357Y-121568839D01*
X147803214Y-121533125D01*
X147910357Y-121533125D01*
X148053214Y-121568839D01*
X148124642Y-121604553D01*
X148196071Y-121675982D01*
X148231785Y-121783125D01*
X148231785Y-121961696D01*
X147481785Y-121283125D02*
X148231785Y-121104553D01*
X147696071Y-120961696D01*
X148231785Y-120818839D01*
X147481785Y-120640267D01*
X147946071Y-120354553D02*
X147946071Y-119783125D01*
X148231785Y-119033125D02*
X148231785Y-119461696D01*
X148231785Y-119247410D02*
X147481785Y-119247410D01*
X147588928Y-119318839D01*
X147660357Y-119390267D01*
X147696071Y-119461696D01*
D14*
%TO.C,J3*%
X172553380Y-119840333D02*
X173267666Y-119840333D01*
X173410523Y-119887952D01*
X173505761Y-119983190D01*
X173553380Y-120126047D01*
X173553380Y-120221285D01*
X172553380Y-119459380D02*
X172553380Y-118840333D01*
X172934333Y-119173666D01*
X172934333Y-119030809D01*
X172981952Y-118935571D01*
X173029571Y-118887952D01*
X173124809Y-118840333D01*
X173362904Y-118840333D01*
X173458142Y-118887952D01*
X173505761Y-118935571D01*
X173553380Y-119030809D01*
X173553380Y-119316523D01*
X173505761Y-119411761D01*
X173458142Y-119459380D01*
%TO.C,U2*%
X150317095Y-106767380D02*
X150317095Y-107576904D01*
X150364714Y-107672142D01*
X150412333Y-107719761D01*
X150507571Y-107767380D01*
X150698047Y-107767380D01*
X150793285Y-107719761D01*
X150840904Y-107672142D01*
X150888523Y-107576904D01*
X150888523Y-106767380D01*
X151317095Y-106862619D02*
X151364714Y-106815000D01*
X151459952Y-106767380D01*
X151698047Y-106767380D01*
X151793285Y-106815000D01*
X151840904Y-106862619D01*
X151888523Y-106957857D01*
X151888523Y-107053095D01*
X151840904Y-107195952D01*
X151269476Y-107767380D01*
X151888523Y-107767380D01*
%TO.C,D1*%
X163345904Y-116162380D02*
X163345904Y-115162380D01*
X163584000Y-115162380D01*
X163726857Y-115210000D01*
X163822095Y-115305238D01*
X163869714Y-115400476D01*
X163917333Y-115590952D01*
X163917333Y-115733809D01*
X163869714Y-115924285D01*
X163822095Y-116019523D01*
X163726857Y-116114761D01*
X163584000Y-116162380D01*
X163345904Y-116162380D01*
X164869714Y-116162380D02*
X164298285Y-116162380D01*
X164584000Y-116162380D02*
X164584000Y-115162380D01*
X164488761Y-115305238D01*
X164393523Y-115400476D01*
X164298285Y-115448095D01*
%TO.C,R6*%
X169801380Y-113069666D02*
X169325190Y-113403000D01*
X169801380Y-113641095D02*
X168801380Y-113641095D01*
X168801380Y-113260142D01*
X168849000Y-113164904D01*
X168896619Y-113117285D01*
X168991857Y-113069666D01*
X169134714Y-113069666D01*
X169229952Y-113117285D01*
X169277571Y-113164904D01*
X169325190Y-113260142D01*
X169325190Y-113641095D01*
X168801380Y-112212523D02*
X168801380Y-112403000D01*
X168849000Y-112498238D01*
X168896619Y-112545857D01*
X169039476Y-112641095D01*
X169229952Y-112688714D01*
X169610904Y-112688714D01*
X169706142Y-112641095D01*
X169753761Y-112593476D01*
X169801380Y-112498238D01*
X169801380Y-112307761D01*
X169753761Y-112212523D01*
X169706142Y-112164904D01*
X169610904Y-112117285D01*
X169372809Y-112117285D01*
X169277571Y-112164904D01*
X169229952Y-112212523D01*
X169182333Y-112307761D01*
X169182333Y-112498238D01*
X169229952Y-112593476D01*
X169277571Y-112641095D01*
X169372809Y-112688714D01*
%TO.C,RJ2*%
X155452380Y-126802380D02*
X155119047Y-126326190D01*
X154880952Y-126802380D02*
X154880952Y-125802380D01*
X155261904Y-125802380D01*
X155357142Y-125850000D01*
X155404761Y-125897619D01*
X155452380Y-125992857D01*
X155452380Y-126135714D01*
X155404761Y-126230952D01*
X155357142Y-126278571D01*
X155261904Y-126326190D01*
X154880952Y-126326190D01*
X156166666Y-125802380D02*
X156166666Y-126516666D01*
X156119047Y-126659523D01*
X156023809Y-126754761D01*
X155880952Y-126802380D01*
X155785714Y-126802380D01*
X156595238Y-125897619D02*
X156642857Y-125850000D01*
X156738095Y-125802380D01*
X156976190Y-125802380D01*
X157071428Y-125850000D01*
X157119047Y-125897619D01*
X157166666Y-125992857D01*
X157166666Y-126088095D01*
X157119047Y-126230952D01*
X156547619Y-126802380D01*
X157166666Y-126802380D01*
%TO.C,J2*%
X172553380Y-129873333D02*
X173267666Y-129873333D01*
X173410523Y-129920952D01*
X173505761Y-130016190D01*
X173553380Y-130159047D01*
X173553380Y-130254285D01*
X172648619Y-129444761D02*
X172601000Y-129397142D01*
X172553380Y-129301904D01*
X172553380Y-129063809D01*
X172601000Y-128968571D01*
X172648619Y-128920952D01*
X172743857Y-128873333D01*
X172839095Y-128873333D01*
X172981952Y-128920952D01*
X173553380Y-129492380D01*
X173553380Y-128873333D01*
%TO.C,J5*%
X160562380Y-103838333D02*
X161276666Y-103838333D01*
X161419523Y-103885952D01*
X161514761Y-103981190D01*
X161562380Y-104124047D01*
X161562380Y-104219285D01*
X160562380Y-102885952D02*
X160562380Y-103362142D01*
X161038571Y-103409761D01*
X160990952Y-103362142D01*
X160943333Y-103266904D01*
X160943333Y-103028809D01*
X160990952Y-102933571D01*
X161038571Y-102885952D01*
X161133809Y-102838333D01*
X161371904Y-102838333D01*
X161467142Y-102885952D01*
X161514761Y-102933571D01*
X161562380Y-103028809D01*
X161562380Y-103266904D01*
X161514761Y-103362142D01*
X161467142Y-103409761D01*
%TO.C,R3*%
X169801380Y-127531666D02*
X169325190Y-127865000D01*
X169801380Y-128103095D02*
X168801380Y-128103095D01*
X168801380Y-127722142D01*
X168849000Y-127626904D01*
X168896619Y-127579285D01*
X168991857Y-127531666D01*
X169134714Y-127531666D01*
X169229952Y-127579285D01*
X169277571Y-127626904D01*
X169325190Y-127722142D01*
X169325190Y-128103095D01*
X168801380Y-127198333D02*
X168801380Y-126579285D01*
X169182333Y-126912619D01*
X169182333Y-126769761D01*
X169229952Y-126674523D01*
X169277571Y-126626904D01*
X169372809Y-126579285D01*
X169610904Y-126579285D01*
X169706142Y-126626904D01*
X169753761Y-126674523D01*
X169801380Y-126769761D01*
X169801380Y-127055476D01*
X169753761Y-127150714D01*
X169706142Y-127198333D01*
%TO.C,R4*%
X169801380Y-104052666D02*
X169325190Y-104386000D01*
X169801380Y-104624095D02*
X168801380Y-104624095D01*
X168801380Y-104243142D01*
X168849000Y-104147904D01*
X168896619Y-104100285D01*
X168991857Y-104052666D01*
X169134714Y-104052666D01*
X169229952Y-104100285D01*
X169277571Y-104147904D01*
X169325190Y-104243142D01*
X169325190Y-104624095D01*
X169134714Y-103195523D02*
X169801380Y-103195523D01*
X168753761Y-103433619D02*
X169468047Y-103671714D01*
X169468047Y-103052666D01*
%TO.C,RJ4*%
X150952380Y-122802380D02*
X150619047Y-122326190D01*
X150380952Y-122802380D02*
X150380952Y-121802380D01*
X150761904Y-121802380D01*
X150857142Y-121850000D01*
X150904761Y-121897619D01*
X150952380Y-121992857D01*
X150952380Y-122135714D01*
X150904761Y-122230952D01*
X150857142Y-122278571D01*
X150761904Y-122326190D01*
X150380952Y-122326190D01*
X151666666Y-121802380D02*
X151666666Y-122516666D01*
X151619047Y-122659523D01*
X151523809Y-122754761D01*
X151380952Y-122802380D01*
X151285714Y-122802380D01*
X152571428Y-122135714D02*
X152571428Y-122802380D01*
X152333333Y-121754761D02*
X152095238Y-122469047D01*
X152714285Y-122469047D01*
%TO.C,C1*%
X157440333Y-115038142D02*
X157392714Y-115085761D01*
X157249857Y-115133380D01*
X157154619Y-115133380D01*
X157011761Y-115085761D01*
X156916523Y-114990523D01*
X156868904Y-114895285D01*
X156821285Y-114704809D01*
X156821285Y-114561952D01*
X156868904Y-114371476D01*
X156916523Y-114276238D01*
X157011761Y-114181000D01*
X157154619Y-114133380D01*
X157249857Y-114133380D01*
X157392714Y-114181000D01*
X157440333Y-114228619D01*
X158392714Y-115133380D02*
X157821285Y-115133380D01*
X158107000Y-115133380D02*
X158107000Y-114133380D01*
X158011761Y-114276238D01*
X157916523Y-114371476D01*
X157821285Y-114419095D01*
%TO.C,RJ6*%
X159952380Y-122802380D02*
X159619047Y-122326190D01*
X159380952Y-122802380D02*
X159380952Y-121802380D01*
X159761904Y-121802380D01*
X159857142Y-121850000D01*
X159904761Y-121897619D01*
X159952380Y-121992857D01*
X159952380Y-122135714D01*
X159904761Y-122230952D01*
X159857142Y-122278571D01*
X159761904Y-122326190D01*
X159380952Y-122326190D01*
X160666666Y-121802380D02*
X160666666Y-122516666D01*
X160619047Y-122659523D01*
X160523809Y-122754761D01*
X160380952Y-122802380D01*
X160285714Y-122802380D01*
X161571428Y-121802380D02*
X161380952Y-121802380D01*
X161285714Y-121850000D01*
X161238095Y-121897619D01*
X161142857Y-122040476D01*
X161095238Y-122230952D01*
X161095238Y-122611904D01*
X161142857Y-122707142D01*
X161190476Y-122754761D01*
X161285714Y-122802380D01*
X161476190Y-122802380D01*
X161571428Y-122754761D01*
X161619047Y-122707142D01*
X161666666Y-122611904D01*
X161666666Y-122373809D01*
X161619047Y-122278571D01*
X161571428Y-122230952D01*
X161476190Y-122183333D01*
X161285714Y-122183333D01*
X161190476Y-122230952D01*
X161142857Y-122278571D01*
X161095238Y-122373809D01*
%TO.C,J1*%
X107783380Y-109426333D02*
X108497666Y-109426333D01*
X108640523Y-109473952D01*
X108735761Y-109569190D01*
X108783380Y-109712047D01*
X108783380Y-109807285D01*
X108783380Y-108426333D02*
X108783380Y-108997761D01*
X108783380Y-108712047D02*
X107783380Y-108712047D01*
X107926238Y-108807285D01*
X108021476Y-108902523D01*
X108069095Y-108997761D01*
%TO.C,R2*%
X169801380Y-122832666D02*
X169325190Y-123166000D01*
X169801380Y-123404095D02*
X168801380Y-123404095D01*
X168801380Y-123023142D01*
X168849000Y-122927904D01*
X168896619Y-122880285D01*
X168991857Y-122832666D01*
X169134714Y-122832666D01*
X169229952Y-122880285D01*
X169277571Y-122927904D01*
X169325190Y-123023142D01*
X169325190Y-123404095D01*
X168896619Y-122451714D02*
X168849000Y-122404095D01*
X168801380Y-122308857D01*
X168801380Y-122070761D01*
X168849000Y-121975523D01*
X168896619Y-121927904D01*
X168991857Y-121880285D01*
X169087095Y-121880285D01*
X169229952Y-121927904D01*
X169801380Y-122499333D01*
X169801380Y-121880285D01*
%TO.C,J4*%
X172426380Y-109807333D02*
X173140666Y-109807333D01*
X173283523Y-109854952D01*
X173378761Y-109950190D01*
X173426380Y-110093047D01*
X173426380Y-110188285D01*
X172759714Y-108902571D02*
X173426380Y-108902571D01*
X172378761Y-109140666D02*
X173093047Y-109378761D01*
X173093047Y-108759714D01*
%TO.C,C2*%
X157313333Y-107545142D02*
X157265714Y-107592761D01*
X157122857Y-107640380D01*
X157027619Y-107640380D01*
X156884761Y-107592761D01*
X156789523Y-107497523D01*
X156741904Y-107402285D01*
X156694285Y-107211809D01*
X156694285Y-107068952D01*
X156741904Y-106878476D01*
X156789523Y-106783238D01*
X156884761Y-106688000D01*
X157027619Y-106640380D01*
X157122857Y-106640380D01*
X157265714Y-106688000D01*
X157313333Y-106735619D01*
X157694285Y-106735619D02*
X157741904Y-106688000D01*
X157837142Y-106640380D01*
X158075238Y-106640380D01*
X158170476Y-106688000D01*
X158218095Y-106735619D01*
X158265714Y-106830857D01*
X158265714Y-106926095D01*
X158218095Y-107068952D01*
X157646666Y-107640380D01*
X158265714Y-107640380D01*
%TO.C,PS1*%
X109037380Y-128468285D02*
X108037380Y-128468285D01*
X108037380Y-128087333D01*
X108085000Y-127992095D01*
X108132619Y-127944476D01*
X108227857Y-127896857D01*
X108370714Y-127896857D01*
X108465952Y-127944476D01*
X108513571Y-127992095D01*
X108561190Y-128087333D01*
X108561190Y-128468285D01*
X108989761Y-127515904D02*
X109037380Y-127373047D01*
X109037380Y-127134952D01*
X108989761Y-127039714D01*
X108942142Y-126992095D01*
X108846904Y-126944476D01*
X108751666Y-126944476D01*
X108656428Y-126992095D01*
X108608809Y-127039714D01*
X108561190Y-127134952D01*
X108513571Y-127325428D01*
X108465952Y-127420666D01*
X108418333Y-127468285D01*
X108323095Y-127515904D01*
X108227857Y-127515904D01*
X108132619Y-127468285D01*
X108085000Y-127420666D01*
X108037380Y-127325428D01*
X108037380Y-127087333D01*
X108085000Y-126944476D01*
X109037380Y-125992095D02*
X109037380Y-126563523D01*
X109037380Y-126277809D02*
X108037380Y-126277809D01*
X108180238Y-126373047D01*
X108275476Y-126468285D01*
X108323095Y-126563523D01*
%TO.C,R1*%
X169801380Y-118260666D02*
X169325190Y-118594000D01*
X169801380Y-118832095D02*
X168801380Y-118832095D01*
X168801380Y-118451142D01*
X168849000Y-118355904D01*
X168896619Y-118308285D01*
X168991857Y-118260666D01*
X169134714Y-118260666D01*
X169229952Y-118308285D01*
X169277571Y-118355904D01*
X169325190Y-118451142D01*
X169325190Y-118832095D01*
X169801380Y-117308285D02*
X169801380Y-117879714D01*
X169801380Y-117594000D02*
X168801380Y-117594000D01*
X168944238Y-117689238D01*
X169039476Y-117784476D01*
X169087095Y-117879714D01*
%TO.C,R5*%
X169801380Y-108751666D02*
X169325190Y-109085000D01*
X169801380Y-109323095D02*
X168801380Y-109323095D01*
X168801380Y-108942142D01*
X168849000Y-108846904D01*
X168896619Y-108799285D01*
X168991857Y-108751666D01*
X169134714Y-108751666D01*
X169229952Y-108799285D01*
X169277571Y-108846904D01*
X169325190Y-108942142D01*
X169325190Y-109323095D01*
X168801380Y-107846904D02*
X168801380Y-108323095D01*
X169277571Y-108370714D01*
X169229952Y-108323095D01*
X169182333Y-108227857D01*
X169182333Y-107989761D01*
X169229952Y-107894523D01*
X169277571Y-107846904D01*
X169372809Y-107799285D01*
X169610904Y-107799285D01*
X169706142Y-107846904D01*
X169753761Y-107894523D01*
X169801380Y-107989761D01*
X169801380Y-108227857D01*
X169753761Y-108323095D01*
X169706142Y-108370714D01*
%TO.C,U1*%
X150571095Y-114670380D02*
X150571095Y-115479904D01*
X150618714Y-115575142D01*
X150666333Y-115622761D01*
X150761571Y-115670380D01*
X150952047Y-115670380D01*
X151047285Y-115622761D01*
X151094904Y-115575142D01*
X151142523Y-115479904D01*
X151142523Y-114670380D01*
X152142523Y-115670380D02*
X151571095Y-115670380D01*
X151856809Y-115670380D02*
X151856809Y-114670380D01*
X151761571Y-114813238D01*
X151666333Y-114908476D01*
X151571095Y-114956095D01*
%TO.C,D2*%
X163218904Y-110447380D02*
X163218904Y-109447380D01*
X163457000Y-109447380D01*
X163599857Y-109495000D01*
X163695095Y-109590238D01*
X163742714Y-109685476D01*
X163790333Y-109875952D01*
X163790333Y-110018809D01*
X163742714Y-110209285D01*
X163695095Y-110304523D01*
X163599857Y-110399761D01*
X163457000Y-110447380D01*
X163218904Y-110447380D01*
X164171285Y-109542619D02*
X164218904Y-109495000D01*
X164314142Y-109447380D01*
X164552238Y-109447380D01*
X164647476Y-109495000D01*
X164695095Y-109542619D01*
X164742714Y-109637857D01*
X164742714Y-109733095D01*
X164695095Y-109875952D01*
X164123666Y-110447380D01*
X164742714Y-110447380D01*
%TO.C,J6*%
X120229380Y-103965333D02*
X120943666Y-103965333D01*
X121086523Y-104012952D01*
X121181761Y-104108190D01*
X121229380Y-104251047D01*
X121229380Y-104346285D01*
X120229380Y-103060571D02*
X120229380Y-103251047D01*
X120277000Y-103346285D01*
X120324619Y-103393904D01*
X120467476Y-103489142D01*
X120657952Y-103536761D01*
X121038904Y-103536761D01*
X121134142Y-103489142D01*
X121181761Y-103441523D01*
X121229380Y-103346285D01*
X121229380Y-103155809D01*
X121181761Y-103060571D01*
X121134142Y-103012952D01*
X121038904Y-102965333D01*
X120800809Y-102965333D01*
X120705571Y-103012952D01*
X120657952Y-103060571D01*
X120610333Y-103155809D01*
X120610333Y-103346285D01*
X120657952Y-103441523D01*
X120705571Y-103489142D01*
X120800809Y-103536761D01*
%TO.C,RJ1*%
X150952380Y-126802380D02*
X150619047Y-126326190D01*
X150380952Y-126802380D02*
X150380952Y-125802380D01*
X150761904Y-125802380D01*
X150857142Y-125850000D01*
X150904761Y-125897619D01*
X150952380Y-125992857D01*
X150952380Y-126135714D01*
X150904761Y-126230952D01*
X150857142Y-126278571D01*
X150761904Y-126326190D01*
X150380952Y-126326190D01*
X151666666Y-125802380D02*
X151666666Y-126516666D01*
X151619047Y-126659523D01*
X151523809Y-126754761D01*
X151380952Y-126802380D01*
X151285714Y-126802380D01*
X152666666Y-126802380D02*
X152095238Y-126802380D01*
X152380952Y-126802380D02*
X152380952Y-125802380D01*
X152285714Y-125945238D01*
X152190476Y-126040476D01*
X152095238Y-126088095D01*
%TO.C,RJ3*%
X159952380Y-126802380D02*
X159619047Y-126326190D01*
X159380952Y-126802380D02*
X159380952Y-125802380D01*
X159761904Y-125802380D01*
X159857142Y-125850000D01*
X159904761Y-125897619D01*
X159952380Y-125992857D01*
X159952380Y-126135714D01*
X159904761Y-126230952D01*
X159857142Y-126278571D01*
X159761904Y-126326190D01*
X159380952Y-126326190D01*
X160666666Y-125802380D02*
X160666666Y-126516666D01*
X160619047Y-126659523D01*
X160523809Y-126754761D01*
X160380952Y-126802380D01*
X160285714Y-126802380D01*
X161047619Y-125802380D02*
X161666666Y-125802380D01*
X161333333Y-126183333D01*
X161476190Y-126183333D01*
X161571428Y-126230952D01*
X161619047Y-126278571D01*
X161666666Y-126373809D01*
X161666666Y-126611904D01*
X161619047Y-126707142D01*
X161571428Y-126754761D01*
X161476190Y-126802380D01*
X161190476Y-126802380D01*
X161095238Y-126754761D01*
X161047619Y-126707142D01*
%TO.C,RJ5*%
X155452380Y-122802380D02*
X155119047Y-122326190D01*
X154880952Y-122802380D02*
X154880952Y-121802380D01*
X155261904Y-121802380D01*
X155357142Y-121850000D01*
X155404761Y-121897619D01*
X155452380Y-121992857D01*
X155452380Y-122135714D01*
X155404761Y-122230952D01*
X155357142Y-122278571D01*
X155261904Y-122326190D01*
X154880952Y-122326190D01*
X156166666Y-121802380D02*
X156166666Y-122516666D01*
X156119047Y-122659523D01*
X156023809Y-122754761D01*
X155880952Y-122802380D01*
X155785714Y-122802380D01*
X157119047Y-121802380D02*
X156642857Y-121802380D01*
X156595238Y-122278571D01*
X156642857Y-122230952D01*
X156738095Y-122183333D01*
X156976190Y-122183333D01*
X157071428Y-122230952D01*
X157119047Y-122278571D01*
X157166666Y-122373809D01*
X157166666Y-122611904D01*
X157119047Y-122707142D01*
X157071428Y-122754761D01*
X156976190Y-122802380D01*
X156738095Y-122802380D01*
X156642857Y-122754761D01*
X156595238Y-122707142D01*
D15*
%TO.C,J3*%
X181561000Y-120560000D02*
X181561000Y-110440000D01*
X173840000Y-110440000D02*
X181561000Y-110440000D01*
X180960000Y-120800000D02*
X181800000Y-120800000D01*
X180900000Y-120560000D02*
X180900000Y-110440000D01*
X175600000Y-120560000D02*
X175600000Y-110440000D01*
X180300000Y-120560000D02*
X180300000Y-110440000D01*
X173840000Y-120560000D02*
X181561000Y-120560000D01*
X178976000Y-114180000D02*
X179069000Y-114274000D01*
X181800000Y-120800000D02*
X181800000Y-120200000D01*
X173840000Y-120560000D02*
X173840000Y-110440000D01*
X176725000Y-111930000D02*
X176784000Y-111989000D01*
X179216000Y-114010000D02*
X179274000Y-114069000D01*
X176931000Y-111725000D02*
X177024000Y-111819000D01*
X178789000Y-116515999D02*
G75*
G03*
X177210911Y-116516047I-789000J-1484001D01*
G01*
X177211000Y-119484000D02*
G75*
G03*
X178789089Y-119483953I789000J1483995D01*
G01*
X176516000Y-117211000D02*
G75*
G03*
X176516047Y-118789089I1483995J-789000D01*
G01*
X179484000Y-118789000D02*
G75*
G03*
X179680450Y-117970617I-1483995J788998D01*
G01*
X179680000Y-118000000D02*
G75*
G03*
X179483352Y-117211288I-1680000J0D01*
G01*
X175550000Y-113000000D02*
G75*
G03*
X175550000Y-113000000I-550000J0D01*
G01*
X175550000Y-118000000D02*
G75*
G03*
X175550000Y-118000000I-550000J0D01*
G01*
X179680000Y-113000000D02*
G75*
G03*
X179680000Y-113000000I-1680000J0D01*
G01*
%TO.C,U2*%
X154000000Y-108184000D02*
X150550000Y-108184000D01*
X154000000Y-108184000D02*
X155950000Y-108184000D01*
X154000000Y-113304000D02*
X152050000Y-113304000D01*
X154000000Y-113304000D02*
X155950000Y-113304000D01*
%TO.C,D1*%
X164084000Y-119670000D02*
X164734000Y-119670000D01*
X164084000Y-116550000D02*
X164734000Y-116550000D01*
X164084000Y-116550000D02*
X162409000Y-116550000D01*
X164084000Y-119670000D02*
X163434000Y-119670000D01*
%TO.C,R6*%
X171735000Y-112675936D02*
X171735000Y-113130064D01*
X170265000Y-112675936D02*
X170265000Y-113130064D01*
%TO.C,RJ2*%
X155772936Y-128735000D02*
X156227064Y-128735000D01*
X155772936Y-127265000D02*
X156227064Y-127265000D01*
%TO.C,J2*%
X176725000Y-121930000D02*
X176784000Y-121989000D01*
X173840000Y-130560000D02*
X181561000Y-130560000D01*
X181800000Y-130800000D02*
X181800000Y-130200000D01*
X180900000Y-130560000D02*
X180900000Y-120440000D01*
X180300000Y-130560000D02*
X180300000Y-120440000D01*
X181561000Y-130560000D02*
X181561000Y-120440000D01*
X178976000Y-124180000D02*
X179069000Y-124274000D01*
X173840000Y-130560000D02*
X173840000Y-120440000D01*
X175600000Y-130560000D02*
X175600000Y-120440000D01*
X173840000Y-120440000D02*
X181561000Y-120440000D01*
X179216000Y-124010000D02*
X179274000Y-124069000D01*
X180960000Y-130800000D02*
X181800000Y-130800000D01*
X176931000Y-121725000D02*
X177024000Y-121819000D01*
X178789000Y-126515999D02*
G75*
G03*
X177210911Y-126516047I-789000J-1484001D01*
G01*
X176516000Y-127211000D02*
G75*
G03*
X176516047Y-128789089I1483995J-789000D01*
G01*
X179680000Y-128000000D02*
G75*
G03*
X179483352Y-127211288I-1680000J0D01*
G01*
X177211000Y-129484000D02*
G75*
G03*
X178789089Y-129483953I789000J1483995D01*
G01*
X179484000Y-128789000D02*
G75*
G03*
X179680450Y-127970617I-1483995J788998D01*
G01*
X179680000Y-123000000D02*
G75*
G03*
X179680000Y-123000000I-1680000J0D01*
G01*
X175550000Y-123000000D02*
G75*
G03*
X175550000Y-123000000I-550000J0D01*
G01*
X175550000Y-128000000D02*
G75*
G03*
X175550000Y-128000000I-550000J0D01*
G01*
%TO.C,J5*%
X157510000Y-102175000D02*
X157510000Y-104835000D01*
X157510000Y-104835000D02*
X149830000Y-104835000D01*
X158780000Y-102175000D02*
X160110000Y-102175000D01*
X149830000Y-102175000D02*
X149830000Y-104835000D01*
X160110000Y-102175000D02*
X160110000Y-103505000D01*
X157510000Y-102175000D02*
X149830000Y-102175000D01*
%TO.C,R3*%
X171735000Y-127010936D02*
X171735000Y-127465064D01*
X170265000Y-127010936D02*
X170265000Y-127465064D01*
%TO.C,R4*%
X170265000Y-103658936D02*
X170265000Y-104113064D01*
X171735000Y-103658936D02*
X171735000Y-104113064D01*
%TO.C,RJ4*%
X151272936Y-123265000D02*
X151727064Y-123265000D01*
X151272936Y-124735000D02*
X151727064Y-124735000D01*
%TO.C,C1*%
X154338748Y-113946000D02*
X154861252Y-113946000D01*
X154338748Y-115416000D02*
X154861252Y-115416000D01*
%TO.C,RJ6*%
X160272936Y-123265000D02*
X160727064Y-123265000D01*
X160272936Y-124735000D02*
X160727064Y-124735000D01*
%TO.C,J1*%
X108160000Y-120560000D02*
X100439000Y-120560000D01*
X106400000Y-110440000D02*
X106400000Y-120560000D01*
X105069000Y-119275000D02*
X104976000Y-119181000D01*
X101040000Y-110200000D02*
X100200000Y-110200000D01*
X102784000Y-116990000D02*
X102726000Y-116931000D01*
X103024000Y-116820000D02*
X102931000Y-116726000D01*
X105275000Y-119070000D02*
X105216000Y-119011000D01*
X101100000Y-110440000D02*
X101100000Y-120560000D01*
X108160000Y-110440000D02*
X108160000Y-120560000D01*
X100439000Y-110440000D02*
X100439000Y-120560000D01*
X108160000Y-110440000D02*
X100439000Y-110440000D01*
X100200000Y-110200000D02*
X100200000Y-110800000D01*
X101700000Y-110440000D02*
X101700000Y-120560000D01*
X102320000Y-113000000D02*
G75*
G03*
X102516648Y-113788712I1680000J0D01*
G01*
X103211000Y-114484001D02*
G75*
G03*
X104789089Y-114483953I789000J1484001D01*
G01*
X105484000Y-113789000D02*
G75*
G03*
X105483953Y-112210911I-1483995J789000D01*
G01*
X102516000Y-112211000D02*
G75*
G03*
X102319550Y-113029383I1483995J-788998D01*
G01*
X104789000Y-111516000D02*
G75*
G03*
X103210911Y-111516047I-789000J-1483995D01*
G01*
X107550000Y-113000000D02*
G75*
G03*
X107550000Y-113000000I-550000J0D01*
G01*
X107550000Y-118000000D02*
G75*
G03*
X107550000Y-118000000I-550000J0D01*
G01*
X105680000Y-118000000D02*
G75*
G03*
X105680000Y-118000000I-1680000J0D01*
G01*
%TO.C,R2*%
X171735000Y-122438936D02*
X171735000Y-122893064D01*
X170265000Y-122438936D02*
X170265000Y-122893064D01*
%TO.C,J4*%
X179216000Y-104010000D02*
X179274000Y-104069000D01*
X180900000Y-110560000D02*
X180900000Y-100440000D01*
X181800000Y-110800000D02*
X181800000Y-110200000D01*
X173840000Y-100440000D02*
X181561000Y-100440000D01*
X180300000Y-110560000D02*
X180300000Y-100440000D01*
X176725000Y-101930000D02*
X176784000Y-101989000D01*
X173840000Y-110560000D02*
X181561000Y-110560000D01*
X181561000Y-110560000D02*
X181561000Y-100440000D01*
X180960000Y-110800000D02*
X181800000Y-110800000D01*
X173840000Y-110560000D02*
X173840000Y-100440000D01*
X178976000Y-104180000D02*
X179069000Y-104274000D01*
X175600000Y-110560000D02*
X175600000Y-100440000D01*
X176931000Y-101725000D02*
X177024000Y-101819000D01*
X179680000Y-108000000D02*
G75*
G03*
X179483352Y-107211288I-1680000J0D01*
G01*
X176516000Y-107211000D02*
G75*
G03*
X176516047Y-108789089I1483995J-789000D01*
G01*
X177211000Y-109484000D02*
G75*
G03*
X178789089Y-109483953I789000J1483995D01*
G01*
X179484000Y-108789000D02*
G75*
G03*
X179680450Y-107970617I-1483995J788998D01*
G01*
X178789000Y-106515999D02*
G75*
G03*
X177210911Y-106516047I-789000J-1484001D01*
G01*
X175550000Y-103000000D02*
G75*
G03*
X175550000Y-103000000I-550000J0D01*
G01*
X179680000Y-103000000D02*
G75*
G03*
X179680000Y-103000000I-1680000J0D01*
G01*
X175550000Y-108000000D02*
G75*
G03*
X175550000Y-108000000I-550000J0D01*
G01*
%TO.C,C2*%
X154338748Y-107669000D02*
X154861252Y-107669000D01*
X154338748Y-106199000D02*
X154861252Y-106199000D01*
%TO.C,PS1*%
X144195000Y-108351000D02*
X109995000Y-108351000D01*
X109995000Y-108351000D02*
X109995000Y-128551000D01*
X109995000Y-128551000D02*
X144195000Y-128551000D01*
X109605000Y-114951000D02*
X109605000Y-116961000D01*
X144195000Y-128551000D02*
X144195000Y-108351000D01*
%TO.C,R1*%
X170265000Y-117866936D02*
X170265000Y-118321064D01*
X171735000Y-117866936D02*
X171735000Y-118321064D01*
%TO.C,R5*%
X171735000Y-108230936D02*
X171735000Y-108685064D01*
X170265000Y-108230936D02*
X170265000Y-108685064D01*
%TO.C,U1*%
X154000000Y-116058000D02*
X150550000Y-116058000D01*
X154000000Y-121178000D02*
X155950000Y-121178000D01*
X154000000Y-116058000D02*
X155950000Y-116058000D01*
X154000000Y-121178000D02*
X152050000Y-121178000D01*
%TO.C,D2*%
X163957000Y-110835000D02*
X162282000Y-110835000D01*
X163957000Y-113955000D02*
X163307000Y-113955000D01*
X163957000Y-113955000D02*
X164607000Y-113955000D01*
X163957000Y-110835000D02*
X164607000Y-110835000D01*
%TO.C,J6*%
X132170000Y-102175000D02*
X132170000Y-103505000D01*
X121890000Y-102175000D02*
X121890000Y-104835000D01*
X129570000Y-102175000D02*
X121890000Y-102175000D01*
X130840000Y-102175000D02*
X132170000Y-102175000D01*
X129570000Y-102175000D02*
X129570000Y-104835000D01*
X129570000Y-104835000D02*
X121890000Y-104835000D01*
%TO.C,RJ1*%
X151272936Y-128735000D02*
X151727064Y-128735000D01*
X151272936Y-127265000D02*
X151727064Y-127265000D01*
%TO.C,RJ3*%
X160272936Y-127265000D02*
X160727064Y-127265000D01*
X160272936Y-128735000D02*
X160727064Y-128735000D01*
%TO.C,RJ5*%
X155772936Y-124735000D02*
X156227064Y-124735000D01*
X155772936Y-123265000D02*
X156227064Y-123265000D01*
%TD*%
M02*
