M48
; DRILL file {KiCad 6.0.11-2627ca5db0~126~ubuntu20.04.1} date dom 22 sep 2024 13:49:36
; FORMAT={-:-/ absolute / metric / decimal}
; #@! TF.CreationDate,2024-09-22T13:49:36-05:00
; #@! TF.GenerationSoftware,Kicad,Pcbnew,6.0.11-2627ca5db0~126~ubuntu20.04.1
; #@! TF.FileFunction,Plated,1,2,PTH
FMAT,2
METRIC
; #@! TA.AperFunction,Plated,PTH,ViaDrill
T1C0.400
; #@! TA.AperFunction,Plated,PTH,ComponentDrill
T2C1.000
; #@! TA.AperFunction,Plated,PTH,ComponentDrill
T3C1.300
%
G90
G05
T1
X153.107Y-121.983
X155.194Y-122.428
X156.585Y-113.577
X158.016Y-118.717
X158.496Y-108.458
X160.147Y-126.492
X161.29Y-110.654
X161.29Y-112.141
X162.052Y-121.673
X163.576Y-129.159
X163.703Y-121.539
X165.481Y-109.22
X168.656Y-114.681
X169.164Y-123.444
X172.593Y-106.172
X172.72Y-119.38
X173.482Y-116.84
X175.26Y-119.507
T2
X112.395Y-115.951
X112.395Y-120.951
X123.22Y-103.505
X125.76Y-103.505
X128.3Y-103.505
X130.84Y-103.505
X141.795Y-110.751
X141.795Y-126.151
X151.16Y-103.505
X153.7Y-103.505
X156.24Y-103.505
X158.78Y-103.505
T3
X104.0Y-113.0
X104.0Y-118.0
X178.0Y-103.0
X178.0Y-108.0
X178.0Y-113.0
X178.0Y-118.0
X178.0Y-123.0
X178.0Y-128.0
T0
M30
