%TF.GenerationSoftware,KiCad,Pcbnew,6.0.11-2627ca5db0~126~ubuntu20.04.1*%
%TF.CreationDate,2024-09-22T13:49:42-05:00*%
%TF.ProjectId,modbus_rtu_mirror_base_88x37x59mm,6d6f6462-7573-45f7-9274-755f6d697272,rev?*%
%TF.SameCoordinates,Original*%
%TF.FileFunction,Soldermask,Bot*%
%TF.FilePolarity,Negative*%
%FSLAX46Y46*%
G04 Gerber Fmt 4.6, Leading zero omitted, Abs format (unit mm)*
G04 Created by KiCad (PCBNEW 6.0.11-2627ca5db0~126~ubuntu20.04.1) date 2024-09-22 13:49:42*
%MOMM*%
%LPD*%
G01*
G04 APERTURE LIST*
%TA.AperFunction,Profile*%
%ADD10C,0.100000*%
%TD*%
%ADD11R,2.500000X2.500000*%
%ADD12C,2.500000*%
%ADD13R,1.700000X1.700000*%
%ADD14O,1.700000X1.700000*%
%ADD15C,3.000000*%
%ADD16R,2.300000X2.000000*%
%ADD17C,2.300000*%
G04 APERTURE END LIST*
D10*
X133000000Y-101500000D02*
X149000000Y-101500000D01*
X149000000Y-131000000D02*
X149000000Y-129500000D01*
X149000000Y-100000000D02*
X149000000Y-101500000D01*
X133000000Y-129500000D02*
X149000000Y-129500000D01*
X100000000Y-100000000D02*
X100000000Y-131000000D01*
X100000000Y-131000000D02*
X133000000Y-131000000D01*
X182000000Y-100000000D02*
X182000000Y-131000000D01*
X149000000Y-131000000D02*
X182000000Y-131000000D01*
X100000000Y-100000000D02*
X133000000Y-100000000D01*
X133000000Y-100000000D02*
X133000000Y-101500000D01*
X133000000Y-131000000D02*
X133000000Y-129500000D01*
X149000000Y-100000000D02*
X182000000Y-100000000D01*
D11*
%TO.C,J3*%
X178000000Y-118000000D03*
D12*
X178000000Y-113000000D03*
%TD*%
D11*
%TO.C,J2*%
X178000000Y-128000000D03*
D12*
X178000000Y-123000000D03*
%TD*%
D13*
%TO.C,J5*%
X158780000Y-103505000D03*
D14*
X156240000Y-103505000D03*
X153700000Y-103505000D03*
X151160000Y-103505000D03*
%TD*%
D15*
%TO.C,MH03*%
X166500000Y-126500000D03*
%TD*%
%TO.C,MH02*%
X166500000Y-104500000D03*
%TD*%
D11*
%TO.C,J1*%
X104000000Y-113000000D03*
D12*
X104000000Y-118000000D03*
%TD*%
D11*
%TO.C,J4*%
X178000000Y-108000000D03*
D12*
X178000000Y-103000000D03*
%TD*%
D16*
%TO.C,PS1*%
X112395000Y-115951000D03*
D17*
X112395000Y-120951000D03*
X141795000Y-110751000D03*
X141795000Y-126151000D03*
%TD*%
D13*
%TO.C,J6*%
X130840000Y-103505000D03*
D14*
X128300000Y-103505000D03*
X125760000Y-103505000D03*
X123220000Y-103505000D03*
%TD*%
D15*
%TO.C,MH00*%
X115500000Y-104500000D03*
%TD*%
%TO.C,MH01*%
X115500000Y-126500000D03*
%TD*%
M02*
