<?xml version="1.0" standalone="no"?>
 <!DOCTYPE svg PUBLIC "-//W3C//DTD SVG 1.1//EN" 
 "http://www.w3.org/Graphics/SVG/1.1/DTD/svg11.dtd"> 
<svg xmlns="http://www.w3.org/2000/svg" version="1.1" 
    width="29.7002cm" height="21.0007cm" viewBox="0 0 116930 82680 ">
<title>SVG Picture created as ETH_HUB_PLATE_SLIM-F_SilkS.svg date 2021/09/08 19:19:44 </title>
  <desc>Picture generated by PCBNEW </desc>
<g style="fill:#000000; fill-opacity:1;stroke:#000000; stroke-opacity:1;
stroke-linecap:round; stroke-linejoin:round; "
 transform="translate(0 0) scale(1 1)">
</g>
<g style="fill:#000000; fill-opacity:0.0; 
stroke:#000000; stroke-width:-0.000393701; stroke-opacity:1; 
stroke-linecap:round; stroke-linejoin:round;">
</g>
<g style="fill:#000000; fill-opacity:0.0; 
stroke:#000000; stroke-width:47.2441; stroke-opacity:1; 
stroke-linecap:round; stroke-linejoin:round;">
<path d="M39370 57244
L63188 57244
" />
</g>
<g style="fill:#000000; fill-opacity:0.0; 
stroke:#000000; stroke-width:19.685; stroke-opacity:1; 
stroke-linecap:round; stroke-linejoin:round;">
<path d="M39370 60787
L63188 60787
" />
<path d="M63188 39370
L63188 60787
" />
<path d="M39370 39370
L63188 39370
" />
<path d="M39370 39370
L39370 60787
" />
<g >
</g>
<g >
</g>
<g >
</g>
<g >
</g>
<g >
</g>
<g >
</g>
</g>
<g style="fill:#000000; fill-opacity:0.0; 
stroke:#000000; stroke-width:19.685; stroke-opacity:1; 
stroke-linecap:round; stroke-linejoin:round;">
</g>
<g style="fill:#000000; fill-opacity:0.0; 
stroke:#000000; stroke-width:59.0551; stroke-opacity:1; 
stroke-linecap:round; stroke-linejoin:round;">
<text x="51181.1" y="51181.1"
textLength="1764.06" font-size="524.934" lengthAdjust="spacingAndGlyphs"
text-anchor="middle" opacity="0">REF**</text>
<path d="M50656 51162
L50524 50974
" />
<path d="M50431 51162
L50431 50768
L50581 50768
L50618 50787
L50637 50806
L50656 50843
L50656 50899
L50637 50937
L50618 50956
L50581 50974
L50431 50974
" />
<path d="M50824 50956
L50956 50956
" />
<path d="M51012 51162
L50824 51162
L50824 50768
L51012 50768
" />
<path d="M51312 50956
L51181 50956
" />
<path d="M51181 51162
L51181 50768
L51368 50768
" />
<path d="M51574 50768
L51574 50862
" />
<path d="M51481 50824
L51574 50862
L51668 50824
" />
<path d="M51518 50937
L51574 50862
L51631 50937
" />
<path d="M51874 50768
L51874 50862
" />
<path d="M51781 50824
L51874 50862
L51968 50824
" />
<path d="M51818 50937
L51874 50862
L51931 50937
" />
<text x="48346.5" y="40039.4"
textLength="1764.06" font-size="524.934" lengthAdjust="spacingAndGlyphs"
text-anchor="middle" opacity="0">REF**</text>
<path d="M47821 40020
L47690 39833
" />
<path d="M47596 40020
L47596 39626
L47746 39626
L47784 39645
L47802 39664
L47821 39701
L47821 39758
L47802 39795
L47784 39814
L47746 39833
L47596 39833
" />
<path d="M47990 39814
L48121 39814
" />
<path d="M48177 40020
L47990 40020
L47990 39626
L48177 39626
" />
<path d="M48477 39814
L48346 39814
" />
<path d="M48346 40020
L48346 39626
L48533 39626
" />
<path d="M48740 39626
L48740 39720
" />
<path d="M48646 39683
L48740 39720
L48833 39683
" />
<path d="M48683 39795
L48740 39720
L48796 39795
" />
<path d="M49040 39626
L49040 39720
" />
<path d="M48946 39683
L49040 39720
L49133 39683
" />
<path d="M48983 39795
L49040 39720
L49096 39795
" />
<text x="61614.2" y="54212.6"
textLength="1764.06" font-size="524.934" lengthAdjust="spacingAndGlyphs"
text-anchor="middle" opacity="0">REF**</text>
<path d="M61089 54193
L60958 54006
" />
<path d="M60864 54193
L60864 53800
L61014 53800
L61051 53818
L61070 53837
L61089 53875
L61089 53931
L61070 53968
L61051 53987
L61014 54006
L60864 54006
" />
<path d="M61257 53987
L61389 53987
" />
<path d="M61445 54193
L61257 54193
L61257 53800
L61445 53800
" />
<path d="M61745 53987
L61614 53987
" />
<path d="M61614 54193
L61614 53800
L61801 53800
" />
<path d="M62007 53800
L62007 53893
" />
<path d="M61914 53856
L62007 53893
L62101 53856
" />
<path d="M61951 53968
L62007 53893
L62064 53968
" />
<path d="M62307 53800
L62307 53893
" />
<path d="M62214 53856
L62307 53893
L62401 53856
" />
<path d="M62251 53968
L62307 53893
L62364 53968
" />
<text x="40944.9" y="54212.6"
textLength="1764.06" font-size="524.934" lengthAdjust="spacingAndGlyphs"
text-anchor="middle" opacity="0">REF**</text>
<path d="M40419 54193
L40288 54006
" />
<path d="M40194 54193
L40194 53800
L40344 53800
L40382 53818
L40401 53837
L40419 53875
L40419 53931
L40401 53968
L40382 53987
L40344 54006
L40194 54006
" />
<path d="M40588 53987
L40719 53987
" />
<path d="M40776 54193
L40588 54193
L40588 53800
L40776 53800
" />
<path d="M41076 53987
L40944 53987
" />
<path d="M40944 54193
L40944 53800
L41132 53800
" />
<path d="M41338 53800
L41338 53893
" />
<path d="M41244 53856
L41338 53893
L41432 53856
" />
<path d="M41282 53968
L41338 53893
L41394 53968
" />
<path d="M41638 53800
L41638 53893
" />
<path d="M41544 53856
L41638 53893
L41732 53856
" />
<path d="M41582 53968
L41638 53893
L41694 53968
" />
<text x="61614.2" y="39488.2"
textLength="1764.06" font-size="524.934" lengthAdjust="spacingAndGlyphs"
text-anchor="middle" opacity="0">REF**</text>
<path d="M61089 39469
L60958 39281
" />
<path d="M60864 39469
L60864 39075
L61014 39075
L61051 39094
L61070 39113
L61089 39150
L61089 39206
L61070 39244
L61051 39263
L61014 39281
L60864 39281
" />
<path d="M61257 39263
L61389 39263
" />
<path d="M61445 39469
L61257 39469
L61257 39075
L61445 39075
" />
<path d="M61745 39263
L61614 39263
" />
<path d="M61614 39469
L61614 39075
L61801 39075
" />
<path d="M62007 39075
L62007 39169
" />
<path d="M61914 39131
L62007 39169
L62101 39131
" />
<path d="M61951 39244
L62007 39169
L62064 39244
" />
<path d="M62307 39075
L62307 39169
" />
<path d="M62214 39131
L62307 39169
L62401 39131
" />
<path d="M62251 39244
L62307 39169
L62364 39244
" />
<text x="40944.9" y="39488.2"
textLength="1764.06" font-size="524.934" lengthAdjust="spacingAndGlyphs"
text-anchor="middle" opacity="0">REF**</text>
<path d="M40419 39469
L40288 39281
" />
<path d="M40194 39469
L40194 39075
L40344 39075
L40382 39094
L40401 39113
L40419 39150
L40419 39206
L40401 39244
L40382 39263
L40344 39281
L40194 39281
" />
<path d="M40588 39263
L40719 39263
" />
<path d="M40776 39469
L40588 39469
L40588 39075
L40776 39075
" />
<path d="M41076 39263
L40944 39263
" />
<path d="M40944 39469
L40944 39075
L41132 39075
" />
<path d="M41338 39075
L41338 39169
" />
<path d="M41244 39131
L41338 39169
L41432 39131
" />
<path d="M41282 39244
L41338 39169
L41394 39244
" />
<path d="M41638 39075
L41638 39169
" />
<path d="M41544 39131
L41638 39169
L41732 39131
" />
<path d="M41582 39244
L41638 39169
L41694 39244
" />
<g >
</g>
</g> 
</svg>
