G04 #@! TF.GenerationSoftware,KiCad,Pcbnew,5.1.5+dfsg1-2build2*
G04 #@! TF.CreationDate,2021-09-08T22:35:55-05:00*
G04 #@! TF.ProjectId,ETH_HUB_PLATE_SLIM,4554485f-4855-4425-9f50-4c4154455f53,rev?*
G04 #@! TF.SameCoordinates,Original*
G04 #@! TF.FileFunction,Copper,L1,Top*
G04 #@! TF.FilePolarity,Positive*
%FSLAX46Y46*%
G04 Gerber Fmt 4.6, Leading zero omitted, Abs format (unit mm)*
G04 Created by KiCad (PCBNEW 5.1.5+dfsg1-2build2) date 2021-09-08 22:35:55*
%MOMM*%
%LPD*%
G04 APERTURE LIST*
%ADD10C,0.050000*%
%ADD11R,1.700000X1.700000*%
%ADD12C,0.254000*%
G04 APERTURE END LIST*
D10*
X100000000Y-154400000D02*
X160150000Y-154400000D01*
X160150000Y-100000000D02*
X160150000Y-154400000D01*
X100000000Y-100000000D02*
X160150000Y-100000000D01*
X100000000Y-100000000D02*
X100000000Y-154400000D01*
D11*
X157988000Y-152273000D03*
X102235000Y-152273000D03*
D12*
G36*
X159490001Y-153740000D02*
G01*
X158991531Y-153740000D01*
X159082180Y-153712502D01*
X159192494Y-153653537D01*
X159289185Y-153574185D01*
X159368537Y-153477494D01*
X159427502Y-153367180D01*
X159463812Y-153247482D01*
X159476072Y-153123000D01*
X159473000Y-152558750D01*
X159314250Y-152400000D01*
X158115000Y-152400000D01*
X158115000Y-152420000D01*
X157861000Y-152420000D01*
X157861000Y-152400000D01*
X156661750Y-152400000D01*
X156503000Y-152558750D01*
X156499928Y-153123000D01*
X156512188Y-153247482D01*
X156548498Y-153367180D01*
X156607463Y-153477494D01*
X156686815Y-153574185D01*
X156783506Y-153653537D01*
X156893820Y-153712502D01*
X156984469Y-153740000D01*
X103238531Y-153740000D01*
X103329180Y-153712502D01*
X103439494Y-153653537D01*
X103536185Y-153574185D01*
X103615537Y-153477494D01*
X103674502Y-153367180D01*
X103710812Y-153247482D01*
X103723072Y-153123000D01*
X103720000Y-152558750D01*
X103561250Y-152400000D01*
X102362000Y-152400000D01*
X102362000Y-152420000D01*
X102108000Y-152420000D01*
X102108000Y-152400000D01*
X100908750Y-152400000D01*
X100750000Y-152558750D01*
X100746928Y-153123000D01*
X100759188Y-153247482D01*
X100795498Y-153367180D01*
X100854463Y-153477494D01*
X100933815Y-153574185D01*
X101030506Y-153653537D01*
X101140820Y-153712502D01*
X101231469Y-153740000D01*
X100660000Y-153740000D01*
X100660000Y-151423000D01*
X100746928Y-151423000D01*
X100750000Y-151987250D01*
X100908750Y-152146000D01*
X102108000Y-152146000D01*
X102108000Y-150946750D01*
X102362000Y-150946750D01*
X102362000Y-152146000D01*
X103561250Y-152146000D01*
X103720000Y-151987250D01*
X103723072Y-151423000D01*
X103710812Y-151298518D01*
X103674502Y-151178820D01*
X103615537Y-151068506D01*
X103536185Y-150971815D01*
X103439494Y-150892463D01*
X103329180Y-150833498D01*
X103209482Y-150797188D01*
X103085000Y-150784928D01*
X102520750Y-150788000D01*
X102362000Y-150946750D01*
X102108000Y-150946750D01*
X101949250Y-150788000D01*
X101385000Y-150784928D01*
X101260518Y-150797188D01*
X101140820Y-150833498D01*
X101030506Y-150892463D01*
X100933815Y-150971815D01*
X100854463Y-151068506D01*
X100795498Y-151178820D01*
X100759188Y-151298518D01*
X100746928Y-151423000D01*
X100660000Y-151423000D01*
X100660000Y-149679872D01*
X108340000Y-149679872D01*
X108340000Y-150120128D01*
X108425890Y-150551925D01*
X108594369Y-150958669D01*
X108838962Y-151324729D01*
X109150271Y-151636038D01*
X109516331Y-151880631D01*
X109923075Y-152049110D01*
X110354872Y-152135000D01*
X110795128Y-152135000D01*
X111226925Y-152049110D01*
X111633669Y-151880631D01*
X111999729Y-151636038D01*
X112311038Y-151324729D01*
X112555631Y-150958669D01*
X112724110Y-150551925D01*
X112810000Y-150120128D01*
X112810000Y-149679872D01*
X121340000Y-149679872D01*
X121340000Y-150120128D01*
X121425890Y-150551925D01*
X121594369Y-150958669D01*
X121838962Y-151324729D01*
X122150271Y-151636038D01*
X122516331Y-151880631D01*
X122923075Y-152049110D01*
X123354872Y-152135000D01*
X123795128Y-152135000D01*
X124226925Y-152049110D01*
X124633669Y-151880631D01*
X124999729Y-151636038D01*
X125311038Y-151324729D01*
X125555631Y-150958669D01*
X125724110Y-150551925D01*
X125810000Y-150120128D01*
X125810000Y-149679872D01*
X134340000Y-149679872D01*
X134340000Y-150120128D01*
X134425890Y-150551925D01*
X134594369Y-150958669D01*
X134838962Y-151324729D01*
X135150271Y-151636038D01*
X135516331Y-151880631D01*
X135923075Y-152049110D01*
X136354872Y-152135000D01*
X136795128Y-152135000D01*
X137226925Y-152049110D01*
X137633669Y-151880631D01*
X137999729Y-151636038D01*
X138311038Y-151324729D01*
X138555631Y-150958669D01*
X138724110Y-150551925D01*
X138810000Y-150120128D01*
X138810000Y-149679872D01*
X147340000Y-149679872D01*
X147340000Y-150120128D01*
X147425890Y-150551925D01*
X147594369Y-150958669D01*
X147838962Y-151324729D01*
X148150271Y-151636038D01*
X148516331Y-151880631D01*
X148923075Y-152049110D01*
X149354872Y-152135000D01*
X149795128Y-152135000D01*
X150226925Y-152049110D01*
X150633669Y-151880631D01*
X150999729Y-151636038D01*
X151212767Y-151423000D01*
X156499928Y-151423000D01*
X156503000Y-151987250D01*
X156661750Y-152146000D01*
X157861000Y-152146000D01*
X157861000Y-150946750D01*
X158115000Y-150946750D01*
X158115000Y-152146000D01*
X159314250Y-152146000D01*
X159473000Y-151987250D01*
X159476072Y-151423000D01*
X159463812Y-151298518D01*
X159427502Y-151178820D01*
X159368537Y-151068506D01*
X159289185Y-150971815D01*
X159192494Y-150892463D01*
X159082180Y-150833498D01*
X158962482Y-150797188D01*
X158838000Y-150784928D01*
X158273750Y-150788000D01*
X158115000Y-150946750D01*
X157861000Y-150946750D01*
X157702250Y-150788000D01*
X157138000Y-150784928D01*
X157013518Y-150797188D01*
X156893820Y-150833498D01*
X156783506Y-150892463D01*
X156686815Y-150971815D01*
X156607463Y-151068506D01*
X156548498Y-151178820D01*
X156512188Y-151298518D01*
X156499928Y-151423000D01*
X151212767Y-151423000D01*
X151311038Y-151324729D01*
X151555631Y-150958669D01*
X151724110Y-150551925D01*
X151810000Y-150120128D01*
X151810000Y-149679872D01*
X151724110Y-149248075D01*
X151555631Y-148841331D01*
X151311038Y-148475271D01*
X150999729Y-148163962D01*
X150633669Y-147919369D01*
X150226925Y-147750890D01*
X149795128Y-147665000D01*
X149354872Y-147665000D01*
X148923075Y-147750890D01*
X148516331Y-147919369D01*
X148150271Y-148163962D01*
X147838962Y-148475271D01*
X147594369Y-148841331D01*
X147425890Y-149248075D01*
X147340000Y-149679872D01*
X138810000Y-149679872D01*
X138724110Y-149248075D01*
X138555631Y-148841331D01*
X138311038Y-148475271D01*
X137999729Y-148163962D01*
X137633669Y-147919369D01*
X137226925Y-147750890D01*
X136795128Y-147665000D01*
X136354872Y-147665000D01*
X135923075Y-147750890D01*
X135516331Y-147919369D01*
X135150271Y-148163962D01*
X134838962Y-148475271D01*
X134594369Y-148841331D01*
X134425890Y-149248075D01*
X134340000Y-149679872D01*
X125810000Y-149679872D01*
X125724110Y-149248075D01*
X125555631Y-148841331D01*
X125311038Y-148475271D01*
X124999729Y-148163962D01*
X124633669Y-147919369D01*
X124226925Y-147750890D01*
X123795128Y-147665000D01*
X123354872Y-147665000D01*
X122923075Y-147750890D01*
X122516331Y-147919369D01*
X122150271Y-148163962D01*
X121838962Y-148475271D01*
X121594369Y-148841331D01*
X121425890Y-149248075D01*
X121340000Y-149679872D01*
X112810000Y-149679872D01*
X112724110Y-149248075D01*
X112555631Y-148841331D01*
X112311038Y-148475271D01*
X111999729Y-148163962D01*
X111633669Y-147919369D01*
X111226925Y-147750890D01*
X110795128Y-147665000D01*
X110354872Y-147665000D01*
X109923075Y-147750890D01*
X109516331Y-147919369D01*
X109150271Y-148163962D01*
X108838962Y-148475271D01*
X108594369Y-148841331D01*
X108425890Y-149248075D01*
X108340000Y-149679872D01*
X100660000Y-149679872D01*
X100660000Y-140879872D01*
X101765000Y-140879872D01*
X101765000Y-141320128D01*
X101850890Y-141751925D01*
X102019369Y-142158669D01*
X102263962Y-142524729D01*
X102575271Y-142836038D01*
X102941331Y-143080631D01*
X103348075Y-143249110D01*
X103779872Y-143335000D01*
X104220128Y-143335000D01*
X104651925Y-143249110D01*
X105058669Y-143080631D01*
X105424729Y-142836038D01*
X105736038Y-142524729D01*
X105980631Y-142158669D01*
X106149110Y-141751925D01*
X106235000Y-141320128D01*
X106235000Y-140879872D01*
X153915000Y-140879872D01*
X153915000Y-141320128D01*
X154000890Y-141751925D01*
X154169369Y-142158669D01*
X154413962Y-142524729D01*
X154725271Y-142836038D01*
X155091331Y-143080631D01*
X155498075Y-143249110D01*
X155929872Y-143335000D01*
X156370128Y-143335000D01*
X156801925Y-143249110D01*
X157208669Y-143080631D01*
X157574729Y-142836038D01*
X157886038Y-142524729D01*
X158130631Y-142158669D01*
X158299110Y-141751925D01*
X158385000Y-141320128D01*
X158385000Y-140879872D01*
X158299110Y-140448075D01*
X158130631Y-140041331D01*
X157886038Y-139675271D01*
X157574729Y-139363962D01*
X157208669Y-139119369D01*
X156801925Y-138950890D01*
X156370128Y-138865000D01*
X155929872Y-138865000D01*
X155498075Y-138950890D01*
X155091331Y-139119369D01*
X154725271Y-139363962D01*
X154413962Y-139675271D01*
X154169369Y-140041331D01*
X154000890Y-140448075D01*
X153915000Y-140879872D01*
X106235000Y-140879872D01*
X106149110Y-140448075D01*
X105980631Y-140041331D01*
X105736038Y-139675271D01*
X105424729Y-139363962D01*
X105058669Y-139119369D01*
X104651925Y-138950890D01*
X104220128Y-138865000D01*
X103779872Y-138865000D01*
X103348075Y-138950890D01*
X102941331Y-139119369D01*
X102575271Y-139363962D01*
X102263962Y-139675271D01*
X102019369Y-140041331D01*
X101850890Y-140448075D01*
X101765000Y-140879872D01*
X100660000Y-140879872D01*
X100660000Y-133479872D01*
X127665000Y-133479872D01*
X127665000Y-133920128D01*
X127750890Y-134351925D01*
X127919369Y-134758669D01*
X128163962Y-135124729D01*
X128475271Y-135436038D01*
X128841331Y-135680631D01*
X129248075Y-135849110D01*
X129679872Y-135935000D01*
X130120128Y-135935000D01*
X130551925Y-135849110D01*
X130958669Y-135680631D01*
X131324729Y-135436038D01*
X131636038Y-135124729D01*
X131880631Y-134758669D01*
X132049110Y-134351925D01*
X132135000Y-133920128D01*
X132135000Y-133479872D01*
X132049110Y-133048075D01*
X131880631Y-132641331D01*
X131636038Y-132275271D01*
X131324729Y-131963962D01*
X130958669Y-131719369D01*
X130551925Y-131550890D01*
X130120128Y-131465000D01*
X129679872Y-131465000D01*
X129248075Y-131550890D01*
X128841331Y-131719369D01*
X128475271Y-131963962D01*
X128163962Y-132275271D01*
X127919369Y-132641331D01*
X127750890Y-133048075D01*
X127665000Y-133479872D01*
X100660000Y-133479872D01*
X100660000Y-103779872D01*
X101765000Y-103779872D01*
X101765000Y-104220128D01*
X101850890Y-104651925D01*
X102019369Y-105058669D01*
X102263962Y-105424729D01*
X102575271Y-105736038D01*
X102941331Y-105980631D01*
X103348075Y-106149110D01*
X103779872Y-106235000D01*
X104220128Y-106235000D01*
X104651925Y-106149110D01*
X105058669Y-105980631D01*
X105424729Y-105736038D01*
X105736038Y-105424729D01*
X105899645Y-105179872D01*
X120765000Y-105179872D01*
X120765000Y-105620128D01*
X120850890Y-106051925D01*
X121019369Y-106458669D01*
X121263962Y-106824729D01*
X121575271Y-107136038D01*
X121941331Y-107380631D01*
X122348075Y-107549110D01*
X122779872Y-107635000D01*
X123220128Y-107635000D01*
X123651925Y-107549110D01*
X124058669Y-107380631D01*
X124424729Y-107136038D01*
X124736038Y-106824729D01*
X124980631Y-106458669D01*
X125149110Y-106051925D01*
X125235000Y-105620128D01*
X125235000Y-105179872D01*
X125149110Y-104748075D01*
X124980631Y-104341331D01*
X124736038Y-103975271D01*
X124540639Y-103779872D01*
X153915000Y-103779872D01*
X153915000Y-104220128D01*
X154000890Y-104651925D01*
X154169369Y-105058669D01*
X154413962Y-105424729D01*
X154725271Y-105736038D01*
X155091331Y-105980631D01*
X155498075Y-106149110D01*
X155929872Y-106235000D01*
X156370128Y-106235000D01*
X156801925Y-106149110D01*
X157208669Y-105980631D01*
X157574729Y-105736038D01*
X157886038Y-105424729D01*
X158130631Y-105058669D01*
X158299110Y-104651925D01*
X158385000Y-104220128D01*
X158385000Y-103779872D01*
X158299110Y-103348075D01*
X158130631Y-102941331D01*
X157886038Y-102575271D01*
X157574729Y-102263962D01*
X157208669Y-102019369D01*
X156801925Y-101850890D01*
X156370128Y-101765000D01*
X155929872Y-101765000D01*
X155498075Y-101850890D01*
X155091331Y-102019369D01*
X154725271Y-102263962D01*
X154413962Y-102575271D01*
X154169369Y-102941331D01*
X154000890Y-103348075D01*
X153915000Y-103779872D01*
X124540639Y-103779872D01*
X124424729Y-103663962D01*
X124058669Y-103419369D01*
X123651925Y-103250890D01*
X123220128Y-103165000D01*
X122779872Y-103165000D01*
X122348075Y-103250890D01*
X121941331Y-103419369D01*
X121575271Y-103663962D01*
X121263962Y-103975271D01*
X121019369Y-104341331D01*
X120850890Y-104748075D01*
X120765000Y-105179872D01*
X105899645Y-105179872D01*
X105980631Y-105058669D01*
X106149110Y-104651925D01*
X106235000Y-104220128D01*
X106235000Y-103779872D01*
X106149110Y-103348075D01*
X105980631Y-102941331D01*
X105736038Y-102575271D01*
X105424729Y-102263962D01*
X105058669Y-102019369D01*
X104651925Y-101850890D01*
X104220128Y-101765000D01*
X103779872Y-101765000D01*
X103348075Y-101850890D01*
X102941331Y-102019369D01*
X102575271Y-102263962D01*
X102263962Y-102575271D01*
X102019369Y-102941331D01*
X101850890Y-103348075D01*
X101765000Y-103779872D01*
X100660000Y-103779872D01*
X100660000Y-100660000D01*
X159490000Y-100660000D01*
X159490001Y-153740000D01*
G37*
X159490001Y-153740000D02*
X158991531Y-153740000D01*
X159082180Y-153712502D01*
X159192494Y-153653537D01*
X159289185Y-153574185D01*
X159368537Y-153477494D01*
X159427502Y-153367180D01*
X159463812Y-153247482D01*
X159476072Y-153123000D01*
X159473000Y-152558750D01*
X159314250Y-152400000D01*
X158115000Y-152400000D01*
X158115000Y-152420000D01*
X157861000Y-152420000D01*
X157861000Y-152400000D01*
X156661750Y-152400000D01*
X156503000Y-152558750D01*
X156499928Y-153123000D01*
X156512188Y-153247482D01*
X156548498Y-153367180D01*
X156607463Y-153477494D01*
X156686815Y-153574185D01*
X156783506Y-153653537D01*
X156893820Y-153712502D01*
X156984469Y-153740000D01*
X103238531Y-153740000D01*
X103329180Y-153712502D01*
X103439494Y-153653537D01*
X103536185Y-153574185D01*
X103615537Y-153477494D01*
X103674502Y-153367180D01*
X103710812Y-153247482D01*
X103723072Y-153123000D01*
X103720000Y-152558750D01*
X103561250Y-152400000D01*
X102362000Y-152400000D01*
X102362000Y-152420000D01*
X102108000Y-152420000D01*
X102108000Y-152400000D01*
X100908750Y-152400000D01*
X100750000Y-152558750D01*
X100746928Y-153123000D01*
X100759188Y-153247482D01*
X100795498Y-153367180D01*
X100854463Y-153477494D01*
X100933815Y-153574185D01*
X101030506Y-153653537D01*
X101140820Y-153712502D01*
X101231469Y-153740000D01*
X100660000Y-153740000D01*
X100660000Y-151423000D01*
X100746928Y-151423000D01*
X100750000Y-151987250D01*
X100908750Y-152146000D01*
X102108000Y-152146000D01*
X102108000Y-150946750D01*
X102362000Y-150946750D01*
X102362000Y-152146000D01*
X103561250Y-152146000D01*
X103720000Y-151987250D01*
X103723072Y-151423000D01*
X103710812Y-151298518D01*
X103674502Y-151178820D01*
X103615537Y-151068506D01*
X103536185Y-150971815D01*
X103439494Y-150892463D01*
X103329180Y-150833498D01*
X103209482Y-150797188D01*
X103085000Y-150784928D01*
X102520750Y-150788000D01*
X102362000Y-150946750D01*
X102108000Y-150946750D01*
X101949250Y-150788000D01*
X101385000Y-150784928D01*
X101260518Y-150797188D01*
X101140820Y-150833498D01*
X101030506Y-150892463D01*
X100933815Y-150971815D01*
X100854463Y-151068506D01*
X100795498Y-151178820D01*
X100759188Y-151298518D01*
X100746928Y-151423000D01*
X100660000Y-151423000D01*
X100660000Y-149679872D01*
X108340000Y-149679872D01*
X108340000Y-150120128D01*
X108425890Y-150551925D01*
X108594369Y-150958669D01*
X108838962Y-151324729D01*
X109150271Y-151636038D01*
X109516331Y-151880631D01*
X109923075Y-152049110D01*
X110354872Y-152135000D01*
X110795128Y-152135000D01*
X111226925Y-152049110D01*
X111633669Y-151880631D01*
X111999729Y-151636038D01*
X112311038Y-151324729D01*
X112555631Y-150958669D01*
X112724110Y-150551925D01*
X112810000Y-150120128D01*
X112810000Y-149679872D01*
X121340000Y-149679872D01*
X121340000Y-150120128D01*
X121425890Y-150551925D01*
X121594369Y-150958669D01*
X121838962Y-151324729D01*
X122150271Y-151636038D01*
X122516331Y-151880631D01*
X122923075Y-152049110D01*
X123354872Y-152135000D01*
X123795128Y-152135000D01*
X124226925Y-152049110D01*
X124633669Y-151880631D01*
X124999729Y-151636038D01*
X125311038Y-151324729D01*
X125555631Y-150958669D01*
X125724110Y-150551925D01*
X125810000Y-150120128D01*
X125810000Y-149679872D01*
X134340000Y-149679872D01*
X134340000Y-150120128D01*
X134425890Y-150551925D01*
X134594369Y-150958669D01*
X134838962Y-151324729D01*
X135150271Y-151636038D01*
X135516331Y-151880631D01*
X135923075Y-152049110D01*
X136354872Y-152135000D01*
X136795128Y-152135000D01*
X137226925Y-152049110D01*
X137633669Y-151880631D01*
X137999729Y-151636038D01*
X138311038Y-151324729D01*
X138555631Y-150958669D01*
X138724110Y-150551925D01*
X138810000Y-150120128D01*
X138810000Y-149679872D01*
X147340000Y-149679872D01*
X147340000Y-150120128D01*
X147425890Y-150551925D01*
X147594369Y-150958669D01*
X147838962Y-151324729D01*
X148150271Y-151636038D01*
X148516331Y-151880631D01*
X148923075Y-152049110D01*
X149354872Y-152135000D01*
X149795128Y-152135000D01*
X150226925Y-152049110D01*
X150633669Y-151880631D01*
X150999729Y-151636038D01*
X151212767Y-151423000D01*
X156499928Y-151423000D01*
X156503000Y-151987250D01*
X156661750Y-152146000D01*
X157861000Y-152146000D01*
X157861000Y-150946750D01*
X158115000Y-150946750D01*
X158115000Y-152146000D01*
X159314250Y-152146000D01*
X159473000Y-151987250D01*
X159476072Y-151423000D01*
X159463812Y-151298518D01*
X159427502Y-151178820D01*
X159368537Y-151068506D01*
X159289185Y-150971815D01*
X159192494Y-150892463D01*
X159082180Y-150833498D01*
X158962482Y-150797188D01*
X158838000Y-150784928D01*
X158273750Y-150788000D01*
X158115000Y-150946750D01*
X157861000Y-150946750D01*
X157702250Y-150788000D01*
X157138000Y-150784928D01*
X157013518Y-150797188D01*
X156893820Y-150833498D01*
X156783506Y-150892463D01*
X156686815Y-150971815D01*
X156607463Y-151068506D01*
X156548498Y-151178820D01*
X156512188Y-151298518D01*
X156499928Y-151423000D01*
X151212767Y-151423000D01*
X151311038Y-151324729D01*
X151555631Y-150958669D01*
X151724110Y-150551925D01*
X151810000Y-150120128D01*
X151810000Y-149679872D01*
X151724110Y-149248075D01*
X151555631Y-148841331D01*
X151311038Y-148475271D01*
X150999729Y-148163962D01*
X150633669Y-147919369D01*
X150226925Y-147750890D01*
X149795128Y-147665000D01*
X149354872Y-147665000D01*
X148923075Y-147750890D01*
X148516331Y-147919369D01*
X148150271Y-148163962D01*
X147838962Y-148475271D01*
X147594369Y-148841331D01*
X147425890Y-149248075D01*
X147340000Y-149679872D01*
X138810000Y-149679872D01*
X138724110Y-149248075D01*
X138555631Y-148841331D01*
X138311038Y-148475271D01*
X137999729Y-148163962D01*
X137633669Y-147919369D01*
X137226925Y-147750890D01*
X136795128Y-147665000D01*
X136354872Y-147665000D01*
X135923075Y-147750890D01*
X135516331Y-147919369D01*
X135150271Y-148163962D01*
X134838962Y-148475271D01*
X134594369Y-148841331D01*
X134425890Y-149248075D01*
X134340000Y-149679872D01*
X125810000Y-149679872D01*
X125724110Y-149248075D01*
X125555631Y-148841331D01*
X125311038Y-148475271D01*
X124999729Y-148163962D01*
X124633669Y-147919369D01*
X124226925Y-147750890D01*
X123795128Y-147665000D01*
X123354872Y-147665000D01*
X122923075Y-147750890D01*
X122516331Y-147919369D01*
X122150271Y-148163962D01*
X121838962Y-148475271D01*
X121594369Y-148841331D01*
X121425890Y-149248075D01*
X121340000Y-149679872D01*
X112810000Y-149679872D01*
X112724110Y-149248075D01*
X112555631Y-148841331D01*
X112311038Y-148475271D01*
X111999729Y-148163962D01*
X111633669Y-147919369D01*
X111226925Y-147750890D01*
X110795128Y-147665000D01*
X110354872Y-147665000D01*
X109923075Y-147750890D01*
X109516331Y-147919369D01*
X109150271Y-148163962D01*
X108838962Y-148475271D01*
X108594369Y-148841331D01*
X108425890Y-149248075D01*
X108340000Y-149679872D01*
X100660000Y-149679872D01*
X100660000Y-140879872D01*
X101765000Y-140879872D01*
X101765000Y-141320128D01*
X101850890Y-141751925D01*
X102019369Y-142158669D01*
X102263962Y-142524729D01*
X102575271Y-142836038D01*
X102941331Y-143080631D01*
X103348075Y-143249110D01*
X103779872Y-143335000D01*
X104220128Y-143335000D01*
X104651925Y-143249110D01*
X105058669Y-143080631D01*
X105424729Y-142836038D01*
X105736038Y-142524729D01*
X105980631Y-142158669D01*
X106149110Y-141751925D01*
X106235000Y-141320128D01*
X106235000Y-140879872D01*
X153915000Y-140879872D01*
X153915000Y-141320128D01*
X154000890Y-141751925D01*
X154169369Y-142158669D01*
X154413962Y-142524729D01*
X154725271Y-142836038D01*
X155091331Y-143080631D01*
X155498075Y-143249110D01*
X155929872Y-143335000D01*
X156370128Y-143335000D01*
X156801925Y-143249110D01*
X157208669Y-143080631D01*
X157574729Y-142836038D01*
X157886038Y-142524729D01*
X158130631Y-142158669D01*
X158299110Y-141751925D01*
X158385000Y-141320128D01*
X158385000Y-140879872D01*
X158299110Y-140448075D01*
X158130631Y-140041331D01*
X157886038Y-139675271D01*
X157574729Y-139363962D01*
X157208669Y-139119369D01*
X156801925Y-138950890D01*
X156370128Y-138865000D01*
X155929872Y-138865000D01*
X155498075Y-138950890D01*
X155091331Y-139119369D01*
X154725271Y-139363962D01*
X154413962Y-139675271D01*
X154169369Y-140041331D01*
X154000890Y-140448075D01*
X153915000Y-140879872D01*
X106235000Y-140879872D01*
X106149110Y-140448075D01*
X105980631Y-140041331D01*
X105736038Y-139675271D01*
X105424729Y-139363962D01*
X105058669Y-139119369D01*
X104651925Y-138950890D01*
X104220128Y-138865000D01*
X103779872Y-138865000D01*
X103348075Y-138950890D01*
X102941331Y-139119369D01*
X102575271Y-139363962D01*
X102263962Y-139675271D01*
X102019369Y-140041331D01*
X101850890Y-140448075D01*
X101765000Y-140879872D01*
X100660000Y-140879872D01*
X100660000Y-133479872D01*
X127665000Y-133479872D01*
X127665000Y-133920128D01*
X127750890Y-134351925D01*
X127919369Y-134758669D01*
X128163962Y-135124729D01*
X128475271Y-135436038D01*
X128841331Y-135680631D01*
X129248075Y-135849110D01*
X129679872Y-135935000D01*
X130120128Y-135935000D01*
X130551925Y-135849110D01*
X130958669Y-135680631D01*
X131324729Y-135436038D01*
X131636038Y-135124729D01*
X131880631Y-134758669D01*
X132049110Y-134351925D01*
X132135000Y-133920128D01*
X132135000Y-133479872D01*
X132049110Y-133048075D01*
X131880631Y-132641331D01*
X131636038Y-132275271D01*
X131324729Y-131963962D01*
X130958669Y-131719369D01*
X130551925Y-131550890D01*
X130120128Y-131465000D01*
X129679872Y-131465000D01*
X129248075Y-131550890D01*
X128841331Y-131719369D01*
X128475271Y-131963962D01*
X128163962Y-132275271D01*
X127919369Y-132641331D01*
X127750890Y-133048075D01*
X127665000Y-133479872D01*
X100660000Y-133479872D01*
X100660000Y-103779872D01*
X101765000Y-103779872D01*
X101765000Y-104220128D01*
X101850890Y-104651925D01*
X102019369Y-105058669D01*
X102263962Y-105424729D01*
X102575271Y-105736038D01*
X102941331Y-105980631D01*
X103348075Y-106149110D01*
X103779872Y-106235000D01*
X104220128Y-106235000D01*
X104651925Y-106149110D01*
X105058669Y-105980631D01*
X105424729Y-105736038D01*
X105736038Y-105424729D01*
X105899645Y-105179872D01*
X120765000Y-105179872D01*
X120765000Y-105620128D01*
X120850890Y-106051925D01*
X121019369Y-106458669D01*
X121263962Y-106824729D01*
X121575271Y-107136038D01*
X121941331Y-107380631D01*
X122348075Y-107549110D01*
X122779872Y-107635000D01*
X123220128Y-107635000D01*
X123651925Y-107549110D01*
X124058669Y-107380631D01*
X124424729Y-107136038D01*
X124736038Y-106824729D01*
X124980631Y-106458669D01*
X125149110Y-106051925D01*
X125235000Y-105620128D01*
X125235000Y-105179872D01*
X125149110Y-104748075D01*
X124980631Y-104341331D01*
X124736038Y-103975271D01*
X124540639Y-103779872D01*
X153915000Y-103779872D01*
X153915000Y-104220128D01*
X154000890Y-104651925D01*
X154169369Y-105058669D01*
X154413962Y-105424729D01*
X154725271Y-105736038D01*
X155091331Y-105980631D01*
X155498075Y-106149110D01*
X155929872Y-106235000D01*
X156370128Y-106235000D01*
X156801925Y-106149110D01*
X157208669Y-105980631D01*
X157574729Y-105736038D01*
X157886038Y-105424729D01*
X158130631Y-105058669D01*
X158299110Y-104651925D01*
X158385000Y-104220128D01*
X158385000Y-103779872D01*
X158299110Y-103348075D01*
X158130631Y-102941331D01*
X157886038Y-102575271D01*
X157574729Y-102263962D01*
X157208669Y-102019369D01*
X156801925Y-101850890D01*
X156370128Y-101765000D01*
X155929872Y-101765000D01*
X155498075Y-101850890D01*
X155091331Y-102019369D01*
X154725271Y-102263962D01*
X154413962Y-102575271D01*
X154169369Y-102941331D01*
X154000890Y-103348075D01*
X153915000Y-103779872D01*
X124540639Y-103779872D01*
X124424729Y-103663962D01*
X124058669Y-103419369D01*
X123651925Y-103250890D01*
X123220128Y-103165000D01*
X122779872Y-103165000D01*
X122348075Y-103250890D01*
X121941331Y-103419369D01*
X121575271Y-103663962D01*
X121263962Y-103975271D01*
X121019369Y-104341331D01*
X120850890Y-104748075D01*
X120765000Y-105179872D01*
X105899645Y-105179872D01*
X105980631Y-105058669D01*
X106149110Y-104651925D01*
X106235000Y-104220128D01*
X106235000Y-103779872D01*
X106149110Y-103348075D01*
X105980631Y-102941331D01*
X105736038Y-102575271D01*
X105424729Y-102263962D01*
X105058669Y-102019369D01*
X104651925Y-101850890D01*
X104220128Y-101765000D01*
X103779872Y-101765000D01*
X103348075Y-101850890D01*
X102941331Y-102019369D01*
X102575271Y-102263962D01*
X102263962Y-102575271D01*
X102019369Y-102941331D01*
X101850890Y-103348075D01*
X101765000Y-103779872D01*
X100660000Y-103779872D01*
X100660000Y-100660000D01*
X159490000Y-100660000D01*
X159490001Y-153740000D01*
M02*
