<?xml version="1.0" standalone="no"?>
 <!DOCTYPE svg PUBLIC "-//W3C//DTD SVG 1.1//EN" 
 "http://www.w3.org/Graphics/SVG/1.1/DTD/svg11.dtd"> 
<svg xmlns="http://www.w3.org/2000/svg" version="1.1" 
    width="29.7002cm" height="21.0007cm" viewBox="0 0 116930 82680 ">
<title>SVG Picture created as ETH_HUB_PLATE_SLIM-F_SilkS.svg date 2021/09/08 20:27:29 </title>
  <desc>Picture generated by PCBNEW </desc>
<g style="fill:#000000; fill-opacity:1;stroke:#000000; stroke-opacity:1;
stroke-linecap:round; stroke-linejoin:round; "
 transform="translate(0 0) scale(1 1)">
</g>
<g style="fill:#000000; fill-opacity:0.0; 
stroke:#000000; stroke-width:-0.000393701; stroke-opacity:1; 
stroke-linecap:round; stroke-linejoin:round;">
</g>
<g style="fill:#000000; fill-opacity:0.0; 
stroke:#000000; stroke-width:47.2441; stroke-opacity:1; 
stroke-linecap:round; stroke-linejoin:round;">
<path d="M39370 57244
L63051 57244
" />
</g>
<g style="fill:#000000; fill-opacity:0.0; 
stroke:#000000; stroke-width:19.685; stroke-opacity:1; 
stroke-linecap:round; stroke-linejoin:round;">
<path d="M39370 60787
L63051 60787
" />
<path d="M63051 39370
L63051 60787
" />
<path d="M39370 39370
L63051 39370
" />
<path d="M39370 39370
L39370 60787
" />
<g >
</g>
<g >
</g>
<g >
</g>
<g >
</g>
<g >
</g>
<g >
</g>
</g>
<g style="fill:#000000; fill-opacity:0.0; 
stroke:#000000; stroke-width:19.685; stroke-opacity:1; 
stroke-linecap:round; stroke-linejoin:round;">
</g>
<g style="fill:#000000; fill-opacity:0.0; 
stroke:#000000; stroke-width:59.0551; stroke-opacity:1; 
stroke-linecap:round; stroke-linejoin:round;">
<text x="51141.7" y="51181.1"
textLength="1764.06" font-size="524.934" lengthAdjust="spacingAndGlyphs"
text-anchor="middle" opacity="0">REF**</text>
<path d="M50616 51162
L50485 50974
" />
<path d="M50391 51162
L50391 50768
L50541 50768
L50579 50787
L50598 50806
L50616 50843
L50616 50899
L50598 50937
L50579 50956
L50541 50974
L50391 50974
" />
<path d="M50785 50956
L50916 50956
" />
<path d="M50973 51162
L50785 51162
L50785 50768
L50973 50768
" />
<path d="M51272 50956
L51141 50956
" />
<path d="M51141 51162
L51141 50768
L51329 50768
" />
<path d="M51535 50768
L51535 50862
" />
<path d="M51441 50824
L51535 50862
L51629 50824
" />
<path d="M51479 50937
L51535 50862
L51591 50937
" />
<path d="M51835 50768
L51835 50862
" />
<path d="M51741 50824
L51835 50862
L51929 50824
" />
<path d="M51779 50937
L51835 50862
L51891 50937
" />
<text x="48425.2" y="40039.4"
textLength="1764.06" font-size="524.934" lengthAdjust="spacingAndGlyphs"
text-anchor="middle" opacity="0">REF**</text>
<path d="M47900 40020
L47769 39833
" />
<path d="M47675 40020
L47675 39626
L47825 39626
L47862 39645
L47881 39664
L47900 39701
L47900 39758
L47881 39795
L47862 39814
L47825 39833
L47675 39833
" />
<path d="M48068 39814
L48200 39814
" />
<path d="M48256 40020
L48068 40020
L48068 39626
L48256 39626
" />
<path d="M48556 39814
L48425 39814
" />
<path d="M48425 40020
L48425 39626
L48612 39626
" />
<path d="M48818 39626
L48818 39720
" />
<path d="M48725 39683
L48818 39720
L48912 39683
" />
<path d="M48762 39795
L48818 39720
L48875 39795
" />
<path d="M49118 39626
L49118 39720
" />
<path d="M49025 39683
L49118 39720
L49212 39683
" />
<path d="M49062 39795
L49118 39720
L49175 39795
" />
<text x="61476.4" y="54094.5"
textLength="1764.06" font-size="524.934" lengthAdjust="spacingAndGlyphs"
text-anchor="middle" opacity="0">REF**</text>
<path d="M60951 54075
L60820 53888
" />
<path d="M60726 54075
L60726 53682
L60876 53682
L60913 53700
L60932 53719
L60951 53757
L60951 53813
L60932 53850
L60913 53869
L60876 53888
L60726 53888
" />
<path d="M61120 53869
L61251 53869
" />
<path d="M61307 54075
L61120 54075
L61120 53682
L61307 53682
" />
<path d="M61607 53869
L61476 53869
" />
<path d="M61476 54075
L61476 53682
L61663 53682
" />
<path d="M61870 53682
L61870 53775
" />
<path d="M61776 53738
L61870 53775
L61963 53738
" />
<path d="M61813 53850
L61870 53775
L61926 53850
" />
<path d="M62170 53682
L62170 53775
" />
<path d="M62076 53738
L62170 53775
L62263 53738
" />
<path d="M62113 53850
L62170 53775
L62226 53850
" />
<text x="40944.9" y="54094.5"
textLength="1764.06" font-size="524.934" lengthAdjust="spacingAndGlyphs"
text-anchor="middle" opacity="0">REF**</text>
<path d="M40419 54075
L40288 53888
" />
<path d="M40194 54075
L40194 53682
L40344 53682
L40382 53700
L40401 53719
L40419 53757
L40419 53813
L40401 53850
L40382 53869
L40344 53888
L40194 53888
" />
<path d="M40588 53869
L40719 53869
" />
<path d="M40776 54075
L40588 54075
L40588 53682
L40776 53682
" />
<path d="M41076 53869
L40944 53869
" />
<path d="M40944 54075
L40944 53682
L41132 53682
" />
<path d="M41338 53682
L41338 53775
" />
<path d="M41244 53738
L41338 53775
L41432 53738
" />
<path d="M41282 53850
L41338 53775
L41394 53850
" />
<path d="M41638 53682
L41638 53775
" />
<path d="M41544 53738
L41638 53775
L41732 53738
" />
<path d="M41582 53850
L41638 53775
L41694 53850
" />
<text x="61476.4" y="39488.2"
textLength="1764.06" font-size="524.934" lengthAdjust="spacingAndGlyphs"
text-anchor="middle" opacity="0">REF**</text>
<path d="M60951 39469
L60820 39281
" />
<path d="M60726 39469
L60726 39075
L60876 39075
L60913 39094
L60932 39113
L60951 39150
L60951 39206
L60932 39244
L60913 39263
L60876 39281
L60726 39281
" />
<path d="M61120 39263
L61251 39263
" />
<path d="M61307 39469
L61120 39469
L61120 39075
L61307 39075
" />
<path d="M61607 39263
L61476 39263
" />
<path d="M61476 39469
L61476 39075
L61663 39075
" />
<path d="M61870 39075
L61870 39169
" />
<path d="M61776 39131
L61870 39169
L61963 39131
" />
<path d="M61813 39244
L61870 39169
L61926 39244
" />
<path d="M62170 39075
L62170 39169
" />
<path d="M62076 39131
L62170 39169
L62263 39131
" />
<path d="M62113 39244
L62170 39169
L62226 39244
" />
<text x="40944.9" y="39488.2"
textLength="1764.06" font-size="524.934" lengthAdjust="spacingAndGlyphs"
text-anchor="middle" opacity="0">REF**</text>
<path d="M40419 39469
L40288 39281
" />
<path d="M40194 39469
L40194 39075
L40344 39075
L40382 39094
L40401 39113
L40419 39150
L40419 39206
L40401 39244
L40382 39263
L40344 39281
L40194 39281
" />
<path d="M40588 39263
L40719 39263
" />
<path d="M40776 39469
L40588 39469
L40588 39075
L40776 39075
" />
<path d="M41076 39263
L40944 39263
" />
<path d="M40944 39469
L40944 39075
L41132 39075
" />
<path d="M41338 39075
L41338 39169
" />
<path d="M41244 39131
L41338 39169
L41432 39131
" />
<path d="M41282 39244
L41338 39169
L41394 39244
" />
<path d="M41638 39075
L41638 39169
" />
<path d="M41544 39131
L41638 39169
L41732 39131
" />
<path d="M41582 39244
L41638 39169
L41694 39244
" />
<g >
</g>
</g> 
</svg>
