<?xml version="1.0" standalone="no"?>
 <!DOCTYPE svg PUBLIC "-//W3C//DTD SVG 1.1//EN" 
 "http://www.w3.org/Graphics/SVG/1.1/DTD/svg11.dtd"> 
<svg xmlns="http://www.w3.org/2000/svg" version="1.1" 
    width="29.7002cm" height="21.0007cm" viewBox="0 0 116930 82680 ">
<title>SVG Picture created as ETH_HUB_PLATE_SLIM-B_Mask.svg date 2021/09/08 20:27:29 </title>
  <desc>Picture generated by PCBNEW </desc>
<g style="fill:#000000; fill-opacity:1;stroke:#000000; stroke-opacity:1;
stroke-linecap:round; stroke-linejoin:round; "
 transform="translate(0 0) scale(1 1)">
</g>
<g style="fill:#000000; fill-opacity:0.0; 
stroke:#000000; stroke-width:-0.000393701; stroke-opacity:1; 
stroke-linecap:round; stroke-linejoin:round;">
</g>
<g style="fill:#000000; fill-opacity:0.0; 
stroke:#000000; stroke-width:19.685; stroke-opacity:1; 
stroke-linecap:round; stroke-linejoin:round;">
<path d="M39370 60787
L63051 60787
" />
<path d="M63051 39370
L63051 60787
" />
<path d="M39370 39370
L63051 39370
" />
<path d="M39370 39370
L39370 60787
" />
</g>
<g style="fill:#000000; fill-opacity:1.0; 
stroke:#000000; stroke-width:0; stroke-opacity:1; 
stroke-linecap:round; stroke-linejoin:round;">
<path style="fill:#000000; fill-opacity:1.0; 
stroke:#000000; stroke-width:0; stroke-opacity:1; 
stroke-linecap:round; stroke-linejoin:round;fill-rule:evenodd;"
d="M 61624.1,54917.8
61666,54926.2
61784.3,54975.2
61890.7,55046.3
61981.3,55136.8
62052.4,55243.3
62101.4,55361.6
62126.4,55487.2
62126.4,55615.2
62101.4,55740.8
62052.4,55859.1
61981.3,55965.5
61890.7,56056.1
61784.3,56127.2
61666,56176.2
61624.1,56184.5
61540.4,56201.2
61412.4,56201.2
61328.6,56184.5
61286.8,56176.2
61168.5,56127.2
61062,56056.1
60971.5,55965.5
60900.4,55859.1
60851.4,55740.8
60826.4,55615.2
60826.4,55487.2
60851.4,55361.6
60900.4,55243.3
60971.5,55136.8
61062,55046.3
61168.5,54975.2
61286.8,54926.2
61328.6,54917.8
61412.4,54901.2
61540.4,54901.2
Z" /> 
<path style="fill:#000000; fill-opacity:1.0; 
stroke:#000000; stroke-width:0; stroke-opacity:1; 
stroke-linecap:round; stroke-linejoin:round;fill-rule:evenodd;"
d="M 41092.6,54917.8
41134.5,54926.2
41252.8,54975.2
41359.2,55046.3
41449.8,55136.8
41520.9,55243.3
41569.9,55361.6
41594.9,55487.2
41594.9,55615.2
41569.9,55740.8
41520.9,55859.1
41449.8,55965.5
41359.2,56056.1
41252.8,56127.2
41134.5,56176.2
41092.6,56184.5
41008.9,56201.2
40880.9,56201.2
40797.1,56184.5
40755.3,56176.2
40637,56127.2
40530.5,56056.1
40440,55965.5
40368.9,55859.1
40319.9,55740.8
40294.9,55615.2
40294.9,55487.2
40319.9,55361.6
40368.9,55243.3
40440,55136.8
40530.5,55046.3
40637,54975.2
40755.3,54926.2
40797.1,54917.8
40880.9,54901.2
41008.9,54901.2
Z" /> 
<path style="fill:#000000; fill-opacity:1.0; 
stroke:#000000; stroke-width:0; stroke-opacity:1; 
stroke-linecap:round; stroke-linejoin:round;fill-rule:evenodd;"
d="M 51289.5,52004.4
51331.3,52012.8
51449.6,52061.8
51556.1,52132.9
51646.6,52223.4
51717.8,52329.9
51766.8,52448.2
51791.7,52573.8
51791.7,52701.8
51766.8,52827.4
51717.8,52945.7
51646.6,53052.1
51556.1,53142.7
51449.6,53213.8
51331.3,53262.8
51289.5,53271.1
51205.8,53287.8
51077.7,53287.8
50994,53271.1
50952.1,53262.8
50833.8,53213.8
50727.4,53142.7
50636.8,53052.1
50565.7,52945.7
50516.7,52827.4
50491.7,52701.8
50491.7,52573.8
50516.7,52448.2
50565.7,52329.9
50636.8,52223.4
50727.4,52132.9
50833.8,52061.8
50952.1,52012.8
50994,52004.4
51077.7,51987.8
51205.8,51987.8
Z" /> 
<path style="fill:#000000; fill-opacity:1.0; 
stroke:#000000; stroke-width:0; stroke-opacity:1; 
stroke-linecap:round; stroke-linejoin:round;fill-rule:evenodd;"
d="M 48572.9,40862.7
48614.8,40871
48733.1,40920
48839.5,40991.2
48930.1,41081.7
48965.3,41134.5
49001.2,41188.2
49050.2,41306.5
49075.2,41432
49075.2,41560.1
49068.3,41594.9
49050.2,41685.7
49001.2,41804
48930.1,41910.4
48839.5,42001
48733.1,42072.1
48614.8,42121.1
48572.9,42129.4
48489.2,42146.1
48361.2,42146.1
48277.5,42129.4
48235.6,42121.1
48117.3,42072.1
48010.8,42001
47920.3,41910.4
47849.2,41804
47800.2,41685.7
47782.1,41594.9
47775.2,41560.1
47775.2,41432
47800.2,41306.5
47849.2,41188.2
47885.1,41134.5
47920.3,41081.7
48010.8,40991.2
48117.3,40920
48235.6,40871
48277.5,40862.7
48361.2,40846.1
48489.2,40846.1
Z" /> 
<path style="fill:#000000; fill-opacity:1.0; 
stroke:#000000; stroke-width:0; stroke-opacity:1; 
stroke-linecap:round; stroke-linejoin:round;fill-rule:evenodd;"
d="M 61624.1,40311.5
61666,40319.9
61784.3,40368.9
61890.7,40440
61981.3,40530.5
61981.3,40530.5
62052.4,40637
62101.4,40755.3
62124.4,40871
62126.4,40880.9
62126.4,41008.9
62101.4,41134.5
62052.4,41252.8
61981.3,41359.2
61890.7,41449.8
61784.3,41520.9
61666,41569.9
61624.1,41578.2
61540.4,41594.9
61412.4,41594.9
61328.6,41578.2
61286.8,41569.9
61168.5,41520.9
61062,41449.8
60971.5,41359.2
60900.4,41252.8
60851.4,41134.5
60826.4,41008.9
60826.4,40880.9
60828.3,40871
60851.4,40755.3
60900.4,40637
60971.5,40530.5
60971.5,40530.5
61062,40440
61168.5,40368.9
61286.8,40319.9
61328.6,40311.5
61412.4,40294.9
61540.4,40294.9
Z" /> 
<path style="fill:#000000; fill-opacity:1.0; 
stroke:#000000; stroke-width:0; stroke-opacity:1; 
stroke-linecap:round; stroke-linejoin:round;fill-rule:evenodd;"
d="M 41092.6,40311.5
41134.5,40319.9
41252.8,40368.9
41359.2,40440
41449.8,40530.5
41449.8,40530.5
41520.9,40637
41569.9,40755.3
41592.9,40871
41594.9,40880.9
41594.9,41008.9
41569.9,41134.5
41520.9,41252.8
41449.8,41359.2
41359.2,41449.8
41252.8,41520.9
41134.5,41569.9
41092.6,41578.2
41008.9,41594.9
40880.9,41594.9
40797.1,41578.2
40755.3,41569.9
40637,41520.9
40530.5,41449.8
40440,41359.2
40368.9,41252.8
40319.9,41134.5
40294.9,41008.9
40294.9,40880.9
40296.8,40871
40319.9,40755.3
40368.9,40637
40440,40530.5
40440,40530.5
40530.5,40440
40637,40368.9
40755.3,40319.9
40797.1,40311.5
40880.9,40294.9
41008.9,40294.9
Z" /> 
</g> 
</svg>
