<?xml version="1.0" standalone="no"?>
 <!DOCTYPE svg PUBLIC "-//W3C//DTD SVG 1.1//EN" 
 "http://www.w3.org/Graphics/SVG/1.1/DTD/svg11.dtd"> 
<svg xmlns="http://www.w3.org/2000/svg" version="1.1" 
    width="29.7002cm" height="21.0007cm" viewBox="0 0 116930 82680 ">
<title>SVG Picture created as ETH_HUB_PLATE_SLIM-F_Mask.svg date 2021/09/08 19:19:44 </title>
  <desc>Picture generated by PCBNEW </desc>
<g style="fill:#000000; fill-opacity:1;stroke:#000000; stroke-opacity:1;
stroke-linecap:round; stroke-linejoin:round; "
 transform="translate(0 0) scale(1 1)">
</g>
<g style="fill:#000000; fill-opacity:0.0; 
stroke:#000000; stroke-width:-0.000393701; stroke-opacity:1; 
stroke-linecap:round; stroke-linejoin:round;">
</g>
<g style="fill:#000000; fill-opacity:0.0; 
stroke:#000000; stroke-width:19.685; stroke-opacity:1; 
stroke-linecap:round; stroke-linejoin:round;">
<path d="M39370 60787
L63188 60787
" />
<path d="M63188 39370
L63188 60787
" />
<path d="M39370 39370
L63188 39370
" />
<path d="M39370 39370
L39370 60787
" />
</g>
<g style="fill:#000000; fill-opacity:1.0; 
stroke:#000000; stroke-width:0; stroke-opacity:1; 
stroke-linecap:round; stroke-linejoin:round;">
<path style="fill:#000000; fill-opacity:1.0; 
stroke:#000000; stroke-width:0; stroke-opacity:1; 
stroke-linecap:round; stroke-linejoin:round;fill-rule:evenodd;"
d="M 61761.9,55035.9
61803.8,55044.3
61922.1,55093.3
62028.5,55164.4
62119.1,55254.9
62190.2,55361.4
62239.2,55479.7
62264.2,55605.3
62264.2,55733.3
62239.2,55858.9
62190.2,55977.2
62119.1,56083.6
62028.5,56174.2
61922.1,56245.3
61803.8,56294.3
61761.9,56302.6
61678.2,56319.3
61550.2,56319.3
61466.4,56302.6
61424.6,56294.3
61306.3,56245.3
61199.8,56174.2
61109.3,56083.6
61038.2,55977.2
60989.2,55858.9
60964.2,55733.3
60964.2,55605.3
60989.2,55479.7
61038.2,55361.4
61109.3,55254.9
61199.8,55164.4
61306.3,55093.3
61424.6,55044.3
61466.4,55035.9
61550.2,55019.3
61678.2,55019.3
Z" /> 
<path style="fill:#000000; fill-opacity:1.0; 
stroke:#000000; stroke-width:0; stroke-opacity:1; 
stroke-linecap:round; stroke-linejoin:round;fill-rule:evenodd;"
d="M 41092.6,55035.9
41134.5,55044.3
41252.8,55093.3
41359.2,55164.4
41449.8,55254.9
41520.9,55361.4
41569.9,55479.7
41594.9,55605.3
41594.9,55733.3
41569.9,55858.9
41520.9,55977.2
41449.8,56083.6
41359.2,56174.2
41252.8,56245.3
41134.5,56294.3
41092.6,56302.6
41008.9,56319.3
40880.9,56319.3
40797.1,56302.6
40755.3,56294.3
40637,56245.3
40530.5,56174.2
40440,56083.6
40368.9,55977.2
40319.9,55858.9
40294.9,55733.3
40294.9,55605.3
40319.9,55479.7
40368.9,55361.4
40440,55254.9
40530.5,55164.4
40637,55093.3
40755.3,55044.3
40797.1,55035.9
40880.9,55019.3
41008.9,55019.3
Z" /> 
<path style="fill:#000000; fill-opacity:1.0; 
stroke:#000000; stroke-width:0; stroke-opacity:1; 
stroke-linecap:round; stroke-linejoin:round;fill-rule:evenodd;"
d="M 51328.8,52004.4
51370.7,52012.8
51489,52061.8
51595.5,52132.9
51686,52223.4
51757.1,52329.9
51806.1,52448.2
51831.1,52573.8
51831.1,52701.8
51806.1,52827.4
51757.1,52945.7
51686,53052.1
51595.5,53142.7
51489,53213.8
51370.7,53262.8
51328.8,53271.1
51245.1,53287.8
51117.1,53287.8
51033.4,53271.1
50991.5,53262.8
50873.2,53213.8
50766.8,53142.7
50676.2,53052.1
50605.1,52945.7
50556.1,52827.4
50531.1,52701.8
50531.1,52573.8
50556.1,52448.2
50605.1,52329.9
50676.2,52223.4
50766.8,52132.9
50873.2,52061.8
50991.5,52012.8
51033.4,52004.4
51117.1,51987.8
51245.1,51987.8
Z" /> 
<path style="fill:#000000; fill-opacity:1.0; 
stroke:#000000; stroke-width:0; stroke-opacity:1; 
stroke-linecap:round; stroke-linejoin:round;fill-rule:evenodd;"
d="M 48494.2,40862.7
48536.1,40871
48654.3,40920
48760.8,40991.2
48851.3,41081.7
48886.6,41134.5
48922.5,41188.2
48971.5,41306.5
48996.5,41432
48996.5,41560.1
48989.5,41594.9
48971.5,41685.7
48922.5,41804
48851.3,41910.4
48760.8,42001
48654.3,42072.1
48536.1,42121.1
48494.2,42129.4
48410.5,42146.1
48282.4,42146.1
48198.7,42129.4
48156.9,42121.1
48038.6,42072.1
47932.1,42001
47841.6,41910.4
47770.4,41804
47721.4,41685.7
47703.4,41594.9
47696.5,41560.1
47696.5,41432
47721.4,41306.5
47770.4,41188.2
47806.3,41134.5
47841.6,41081.7
47932.1,40991.2
48038.6,40920
48156.9,40871
48198.7,40862.7
48282.4,40846.1
48410.5,40846.1
Z" /> 
<path style="fill:#000000; fill-opacity:1.0; 
stroke:#000000; stroke-width:0; stroke-opacity:1; 
stroke-linecap:round; stroke-linejoin:round;fill-rule:evenodd;"
d="M 61761.9,40311.5
61803.8,40319.9
61922.1,40368.9
62028.5,40440
62119.1,40530.5
62119.1,40530.5
62190.2,40637
62239.2,40755.3
62262.2,40871
62264.2,40880.9
62264.2,41008.9
62239.2,41134.5
62190.2,41252.8
62119.1,41359.2
62028.5,41449.8
61922.1,41520.9
61803.8,41569.9
61761.9,41578.2
61678.2,41594.9
61550.2,41594.9
61466.4,41578.2
61424.6,41569.9
61306.3,41520.9
61199.8,41449.8
61109.3,41359.2
61038.2,41252.8
60989.2,41134.5
60964.2,41008.9
60964.2,40880.9
60966.1,40871
60989.2,40755.3
61038.2,40637
61109.3,40530.5
61109.3,40530.5
61199.8,40440
61306.3,40368.9
61424.6,40319.9
61466.4,40311.5
61550.2,40294.9
61678.2,40294.9
Z" /> 
<path style="fill:#000000; fill-opacity:1.0; 
stroke:#000000; stroke-width:0; stroke-opacity:1; 
stroke-linecap:round; stroke-linejoin:round;fill-rule:evenodd;"
d="M 41092.6,40311.5
41134.5,40319.9
41252.8,40368.9
41359.2,40440
41449.8,40530.5
41449.8,40530.5
41520.9,40637
41569.9,40755.3
41592.9,40871
41594.9,40880.9
41594.9,41008.9
41569.9,41134.5
41520.9,41252.8
41449.8,41359.2
41359.2,41449.8
41252.8,41520.9
41134.5,41569.9
41092.6,41578.2
41008.9,41594.9
40880.9,41594.9
40797.1,41578.2
40755.3,41569.9
40637,41520.9
40530.5,41449.8
40440,41359.2
40368.9,41252.8
40319.9,41134.5
40294.9,41008.9
40294.9,40880.9
40296.8,40871
40319.9,40755.3
40368.9,40637
40440,40530.5
40440,40530.5
40530.5,40440
40637,40368.9
40755.3,40319.9
40797.1,40311.5
40880.9,40294.9
41008.9,40294.9
Z" /> 
</g> 
</svg>
