M48
; DRILL file {KiCad 5.1.5+dfsg1-2build2} date jue 15 jul 2021 16:01:05
; FORMAT={-:-/ absolute / metric / decimal}
; #@! TF.CreationDate,2021-07-15T16:01:05-05:00
; #@! TF.GenerationSoftware,Kicad,Pcbnew,5.1.5+dfsg1-2build2
; #@! TF.FileFunction,Plated,1,2,PTH
FMAT,2
METRIC
T1C0.700
T2C0.800
T3C0.800
T4C0.900
T5C1.200
%
G90
G05
T1
X154.857Y-101.346
X116.967Y-101.346
X116.967Y-143.806
X116.967Y-146.346
X154.857Y-143.806
X154.857Y-146.346
X154.857Y-98.806
X116.967Y-98.806
T2
X112.141Y-140.504
X117.141Y-140.504
X150.031Y-140.504
X155.031Y-140.504
X150.031Y-95.504
X155.031Y-95.504
X112.141Y-95.504
X117.141Y-95.504
T3
X95.602Y-99.582
X95.602Y-144.582
X133.492Y-99.582
X123.492Y-144.582
X133.492Y-144.582
X161.382Y-144.582
X123.492Y-99.582
X161.382Y-99.582
T4
X112.395Y-98.679
X112.395Y-101.219
X142.992Y-74.66
X144.262Y-72.12
X145.532Y-74.66
X146.802Y-72.12
X148.072Y-74.66
X149.342Y-72.12
X150.612Y-74.66
X151.882Y-72.12
X150.285Y-143.679
X150.285Y-146.219
X142.992Y-80.629
X144.262Y-78.089
X145.532Y-80.629
X146.802Y-78.089
X148.072Y-80.629
X149.342Y-78.089
X150.612Y-80.629
X151.882Y-78.089
X142.992Y-119.66
X144.262Y-117.12
X145.532Y-119.66
X146.802Y-117.12
X148.072Y-119.66
X149.342Y-117.12
X150.612Y-119.66
X151.882Y-117.12
X105.102Y-74.66
X106.372Y-72.12
X107.642Y-74.66
X108.912Y-72.12
X110.182Y-74.66
X111.452Y-72.12
X112.722Y-74.66
X113.992Y-72.12
X112.395Y-143.679
X112.395Y-146.219
X105.102Y-125.629
X106.372Y-123.089
X107.642Y-125.629
X108.912Y-123.089
X110.182Y-125.629
X111.452Y-123.089
X112.722Y-125.629
X113.992Y-123.089
X105.102Y-80.629
X106.372Y-78.089
X107.642Y-80.629
X108.912Y-78.089
X110.182Y-80.629
X111.452Y-78.089
X112.722Y-80.629
X113.992Y-78.089
X142.992Y-125.629
X144.262Y-123.089
X145.532Y-125.629
X146.802Y-123.089
X148.072Y-125.629
X149.342Y-123.089
X150.612Y-125.629
X151.882Y-123.089
X150.285Y-98.679
X150.285Y-101.219
X105.102Y-119.66
X106.372Y-117.12
X107.642Y-119.66
X108.912Y-117.12
X110.182Y-119.66
X111.452Y-117.12
X112.722Y-119.66
X113.992Y-117.12
T5
X103.378Y-143.171
X106.878Y-143.171
X141.268Y-98.171
X144.768Y-98.171
X103.378Y-98.171
X106.878Y-98.171
X141.268Y-143.171
X144.768Y-143.171
T0
M30
