M48
; DRILL file {KiCad 5.1.5+dfsg1-2build2} date jue 15 jul 2021 16:01:05
; FORMAT={-:-/ absolute / metric / decimal}
; #@! TF.CreationDate,2021-07-15T16:01:05-05:00
; #@! TF.GenerationSoftware,Kicad,Pcbnew,5.1.5+dfsg1-2build2
; #@! TF.FileFunction,NonPlated,1,2,NPTH
FMAT,2
METRIC
T1C3.200
T2C3.450
%
G90
G05
T1
X123.492Y-80.082
X133.492Y-112.582
X123.492Y-92.582
X133.492Y-80.082
X123.492Y-112.582
X123.492Y-67.582
X133.492Y-125.082
X161.382Y-80.082
X161.382Y-67.582
X95.602Y-137.582
X123.492Y-137.582
X95.602Y-112.582
X95.602Y-67.582
X95.602Y-125.082
X161.382Y-92.582
X95.602Y-92.582
X133.492Y-67.582
X161.382Y-125.082
X161.382Y-112.582
X133.492Y-137.582
X95.602Y-80.082
X133.492Y-92.582
X123.492Y-125.082
X161.382Y-137.582
T2
X141.722Y-65.77
X153.152Y-65.77
X141.722Y-86.979
X153.152Y-86.979
X141.722Y-110.77
X153.152Y-110.77
X103.832Y-65.77
X115.262Y-65.77
X103.832Y-131.979
X115.262Y-131.979
X103.832Y-86.979
X115.262Y-86.979
X141.722Y-131.979
X153.152Y-131.979
X103.832Y-110.77
X115.262Y-110.77
T0
M30
