G04 #@! TF.GenerationSoftware,KiCad,Pcbnew,5.1.5+dfsg1-2build2*
G04 #@! TF.CreationDate,2021-07-15T16:03:10-05:00*
G04 #@! TF.ProjectId,,58585858-5858-4585-9858-585858585858,rev?*
G04 #@! TF.SameCoordinates,Original*
G04 #@! TF.FileFunction,Soldermask,Top*
G04 #@! TF.FilePolarity,Negative*
%FSLAX46Y46*%
G04 Gerber Fmt 4.6, Leading zero omitted, Abs format (unit mm)*
G04 Created by KiCad (PCBNEW 5.1.5+dfsg1-2build2) date 2021-07-15 16:03:10*
%MOMM*%
%LPD*%
G04 APERTURE LIST*
%ADD10C,0.100000*%
G04 APERTURE END LIST*
D10*
G36*
X151236000Y-147170000D02*
G01*
X149334000Y-147170000D01*
X149334000Y-145268000D01*
X151236000Y-145268000D01*
X151236000Y-147170000D01*
G37*
G36*
X113346000Y-147170000D02*
G01*
X111444000Y-147170000D01*
X111444000Y-145268000D01*
X113346000Y-145268000D01*
X113346000Y-147170000D01*
G37*
G36*
X155076059Y-145623860D02*
G01*
X155212732Y-145680472D01*
X155335735Y-145762660D01*
X155440340Y-145867265D01*
X155522528Y-145990268D01*
X155579140Y-146126941D01*
X155608000Y-146272033D01*
X155608000Y-146419967D01*
X155579140Y-146565059D01*
X155522528Y-146701732D01*
X155440340Y-146824735D01*
X155335735Y-146929340D01*
X155212732Y-147011528D01*
X155212731Y-147011529D01*
X155212730Y-147011529D01*
X155076059Y-147068140D01*
X154930968Y-147097000D01*
X154783032Y-147097000D01*
X154637941Y-147068140D01*
X154501270Y-147011529D01*
X154501269Y-147011529D01*
X154501268Y-147011528D01*
X154378265Y-146929340D01*
X154273660Y-146824735D01*
X154191472Y-146701732D01*
X154134860Y-146565059D01*
X154106000Y-146419967D01*
X154106000Y-146272033D01*
X154134860Y-146126941D01*
X154191472Y-145990268D01*
X154273660Y-145867265D01*
X154378265Y-145762660D01*
X154501268Y-145680472D01*
X154637941Y-145623860D01*
X154783032Y-145595000D01*
X154930968Y-145595000D01*
X155076059Y-145623860D01*
G37*
G36*
X117186059Y-145623860D02*
G01*
X117322732Y-145680472D01*
X117445735Y-145762660D01*
X117550340Y-145867265D01*
X117632528Y-145990268D01*
X117689140Y-146126941D01*
X117718000Y-146272033D01*
X117718000Y-146419967D01*
X117689140Y-146565059D01*
X117632528Y-146701732D01*
X117550340Y-146824735D01*
X117445735Y-146929340D01*
X117322732Y-147011528D01*
X117322731Y-147011529D01*
X117322730Y-147011529D01*
X117186059Y-147068140D01*
X117040968Y-147097000D01*
X116893032Y-147097000D01*
X116747941Y-147068140D01*
X116611270Y-147011529D01*
X116611269Y-147011529D01*
X116611268Y-147011528D01*
X116488265Y-146929340D01*
X116383660Y-146824735D01*
X116301472Y-146701732D01*
X116244860Y-146565059D01*
X116216000Y-146419967D01*
X116216000Y-146272033D01*
X116244860Y-146126941D01*
X116301472Y-145990268D01*
X116383660Y-145867265D01*
X116488265Y-145762660D01*
X116611268Y-145680472D01*
X116747941Y-145623860D01*
X116893032Y-145595000D01*
X117040968Y-145595000D01*
X117186059Y-145623860D01*
G37*
G36*
X133798416Y-143571879D02*
G01*
X133989592Y-143651067D01*
X133989594Y-143651068D01*
X134161648Y-143766031D01*
X134307969Y-143912352D01*
X134383278Y-144025059D01*
X134422933Y-144084408D01*
X134502121Y-144275584D01*
X134542490Y-144478534D01*
X134542490Y-144685466D01*
X134502121Y-144888416D01*
X134422933Y-145079592D01*
X134422932Y-145079594D01*
X134307969Y-145251648D01*
X134161648Y-145397969D01*
X133989594Y-145512932D01*
X133989593Y-145512933D01*
X133989592Y-145512933D01*
X133798416Y-145592121D01*
X133595466Y-145632490D01*
X133388534Y-145632490D01*
X133185584Y-145592121D01*
X132994408Y-145512933D01*
X132994407Y-145512933D01*
X132994406Y-145512932D01*
X132822352Y-145397969D01*
X132676031Y-145251648D01*
X132561068Y-145079594D01*
X132561067Y-145079592D01*
X132481879Y-144888416D01*
X132441510Y-144685466D01*
X132441510Y-144478534D01*
X132481879Y-144275584D01*
X132561067Y-144084408D01*
X132600723Y-144025059D01*
X132676031Y-143912352D01*
X132822352Y-143766031D01*
X132994406Y-143651068D01*
X132994408Y-143651067D01*
X133185584Y-143571879D01*
X133388534Y-143531510D01*
X133595466Y-143531510D01*
X133798416Y-143571879D01*
G37*
G36*
X123798416Y-143571879D02*
G01*
X123989592Y-143651067D01*
X123989594Y-143651068D01*
X124161648Y-143766031D01*
X124307969Y-143912352D01*
X124383278Y-144025059D01*
X124422933Y-144084408D01*
X124502121Y-144275584D01*
X124542490Y-144478534D01*
X124542490Y-144685466D01*
X124502121Y-144888416D01*
X124422933Y-145079592D01*
X124422932Y-145079594D01*
X124307969Y-145251648D01*
X124161648Y-145397969D01*
X123989594Y-145512932D01*
X123989593Y-145512933D01*
X123989592Y-145512933D01*
X123798416Y-145592121D01*
X123595466Y-145632490D01*
X123388534Y-145632490D01*
X123185584Y-145592121D01*
X122994408Y-145512933D01*
X122994407Y-145512933D01*
X122994406Y-145512932D01*
X122822352Y-145397969D01*
X122676031Y-145251648D01*
X122561068Y-145079594D01*
X122561067Y-145079592D01*
X122481879Y-144888416D01*
X122441510Y-144685466D01*
X122441510Y-144478534D01*
X122481879Y-144275584D01*
X122561067Y-144084408D01*
X122600723Y-144025059D01*
X122676031Y-143912352D01*
X122822352Y-143766031D01*
X122994406Y-143651068D01*
X122994408Y-143651067D01*
X123185584Y-143571879D01*
X123388534Y-143531510D01*
X123595466Y-143531510D01*
X123798416Y-143571879D01*
G37*
G36*
X95908416Y-143571879D02*
G01*
X96099592Y-143651067D01*
X96099594Y-143651068D01*
X96271648Y-143766031D01*
X96417969Y-143912352D01*
X96493278Y-144025059D01*
X96532933Y-144084408D01*
X96612121Y-144275584D01*
X96652490Y-144478534D01*
X96652490Y-144685466D01*
X96612121Y-144888416D01*
X96532933Y-145079592D01*
X96532932Y-145079594D01*
X96417969Y-145251648D01*
X96271648Y-145397969D01*
X96099594Y-145512932D01*
X96099593Y-145512933D01*
X96099592Y-145512933D01*
X95908416Y-145592121D01*
X95705466Y-145632490D01*
X95498534Y-145632490D01*
X95295584Y-145592121D01*
X95104408Y-145512933D01*
X95104407Y-145512933D01*
X95104406Y-145512932D01*
X94932352Y-145397969D01*
X94786031Y-145251648D01*
X94671068Y-145079594D01*
X94671067Y-145079592D01*
X94591879Y-144888416D01*
X94551510Y-144685466D01*
X94551510Y-144478534D01*
X94591879Y-144275584D01*
X94671067Y-144084408D01*
X94710723Y-144025059D01*
X94786031Y-143912352D01*
X94932352Y-143766031D01*
X95104406Y-143651068D01*
X95104408Y-143651067D01*
X95295584Y-143571879D01*
X95498534Y-143531510D01*
X95705466Y-143531510D01*
X95908416Y-143571879D01*
G37*
G36*
X161688416Y-143571879D02*
G01*
X161879592Y-143651067D01*
X161879594Y-143651068D01*
X162051648Y-143766031D01*
X162197969Y-143912352D01*
X162273278Y-144025059D01*
X162312933Y-144084408D01*
X162392121Y-144275584D01*
X162432490Y-144478534D01*
X162432490Y-144685466D01*
X162392121Y-144888416D01*
X162312933Y-145079592D01*
X162312932Y-145079594D01*
X162197969Y-145251648D01*
X162051648Y-145397969D01*
X161879594Y-145512932D01*
X161879593Y-145512933D01*
X161879592Y-145512933D01*
X161688416Y-145592121D01*
X161485466Y-145632490D01*
X161278534Y-145632490D01*
X161075584Y-145592121D01*
X160884408Y-145512933D01*
X160884407Y-145512933D01*
X160884406Y-145512932D01*
X160712352Y-145397969D01*
X160566031Y-145251648D01*
X160451068Y-145079594D01*
X160451067Y-145079592D01*
X160371879Y-144888416D01*
X160331510Y-144685466D01*
X160331510Y-144478534D01*
X160371879Y-144275584D01*
X160451067Y-144084408D01*
X160490723Y-144025059D01*
X160566031Y-143912352D01*
X160712352Y-143766031D01*
X160884406Y-143651068D01*
X160884408Y-143651067D01*
X161075584Y-143571879D01*
X161278534Y-143531510D01*
X161485466Y-143531510D01*
X161688416Y-143571879D01*
G37*
G36*
X112672395Y-142764546D02*
G01*
X112845466Y-142836234D01*
X112845467Y-142836235D01*
X113001227Y-142940310D01*
X113133690Y-143072773D01*
X113133691Y-143072775D01*
X113237766Y-143228534D01*
X113309454Y-143401605D01*
X113346000Y-143585333D01*
X113346000Y-143772667D01*
X113309454Y-143956395D01*
X113237766Y-144129466D01*
X113186081Y-144206818D01*
X113133690Y-144285227D01*
X113001227Y-144417690D01*
X112922818Y-144470081D01*
X112845466Y-144521766D01*
X112672395Y-144593454D01*
X112488667Y-144630000D01*
X112301333Y-144630000D01*
X112117605Y-144593454D01*
X111944534Y-144521766D01*
X111867182Y-144470081D01*
X111788773Y-144417690D01*
X111656310Y-144285227D01*
X111603919Y-144206818D01*
X111552234Y-144129466D01*
X111480546Y-143956395D01*
X111444000Y-143772667D01*
X111444000Y-143585333D01*
X111480546Y-143401605D01*
X111552234Y-143228534D01*
X111656309Y-143072775D01*
X111656310Y-143072773D01*
X111788773Y-142940310D01*
X111944533Y-142836235D01*
X111944534Y-142836234D01*
X112117605Y-142764546D01*
X112301333Y-142728000D01*
X112488667Y-142728000D01*
X112672395Y-142764546D01*
G37*
G36*
X150562395Y-142764546D02*
G01*
X150735466Y-142836234D01*
X150735467Y-142836235D01*
X150891227Y-142940310D01*
X151023690Y-143072773D01*
X151023691Y-143072775D01*
X151127766Y-143228534D01*
X151199454Y-143401605D01*
X151236000Y-143585333D01*
X151236000Y-143772667D01*
X151199454Y-143956395D01*
X151127766Y-144129466D01*
X151076081Y-144206818D01*
X151023690Y-144285227D01*
X150891227Y-144417690D01*
X150812818Y-144470081D01*
X150735466Y-144521766D01*
X150562395Y-144593454D01*
X150378667Y-144630000D01*
X150191333Y-144630000D01*
X150007605Y-144593454D01*
X149834534Y-144521766D01*
X149757182Y-144470081D01*
X149678773Y-144417690D01*
X149546310Y-144285227D01*
X149493919Y-144206818D01*
X149442234Y-144129466D01*
X149370546Y-143956395D01*
X149334000Y-143772667D01*
X149334000Y-143585333D01*
X149370546Y-143401605D01*
X149442234Y-143228534D01*
X149546309Y-143072775D01*
X149546310Y-143072773D01*
X149678773Y-142940310D01*
X149834533Y-142836235D01*
X149834534Y-142836234D01*
X150007605Y-142764546D01*
X150191333Y-142728000D01*
X150378667Y-142728000D01*
X150562395Y-142764546D01*
G37*
G36*
X155020320Y-143072773D02*
G01*
X155076059Y-143083860D01*
X155212732Y-143140472D01*
X155335735Y-143222660D01*
X155440340Y-143327265D01*
X155490012Y-143401605D01*
X155522529Y-143450270D01*
X155579140Y-143586941D01*
X155608000Y-143732032D01*
X155608000Y-143879968D01*
X155592798Y-143956395D01*
X155579140Y-144025059D01*
X155522528Y-144161732D01*
X155440340Y-144284735D01*
X155335735Y-144389340D01*
X155212732Y-144471528D01*
X155212731Y-144471529D01*
X155212730Y-144471529D01*
X155076059Y-144528140D01*
X154930968Y-144557000D01*
X154783032Y-144557000D01*
X154637941Y-144528140D01*
X154501270Y-144471529D01*
X154501269Y-144471529D01*
X154501268Y-144471528D01*
X154378265Y-144389340D01*
X154273660Y-144284735D01*
X154191472Y-144161732D01*
X154134860Y-144025059D01*
X154121202Y-143956395D01*
X154106000Y-143879968D01*
X154106000Y-143732032D01*
X154134860Y-143586941D01*
X154191471Y-143450270D01*
X154223988Y-143401605D01*
X154273660Y-143327265D01*
X154378265Y-143222660D01*
X154501268Y-143140472D01*
X154637941Y-143083860D01*
X154693680Y-143072773D01*
X154783032Y-143055000D01*
X154930968Y-143055000D01*
X155020320Y-143072773D01*
G37*
G36*
X117130320Y-143072773D02*
G01*
X117186059Y-143083860D01*
X117322732Y-143140472D01*
X117445735Y-143222660D01*
X117550340Y-143327265D01*
X117600012Y-143401605D01*
X117632529Y-143450270D01*
X117689140Y-143586941D01*
X117718000Y-143732032D01*
X117718000Y-143879968D01*
X117702798Y-143956395D01*
X117689140Y-144025059D01*
X117632528Y-144161732D01*
X117550340Y-144284735D01*
X117445735Y-144389340D01*
X117322732Y-144471528D01*
X117322731Y-144471529D01*
X117322730Y-144471529D01*
X117186059Y-144528140D01*
X117040968Y-144557000D01*
X116893032Y-144557000D01*
X116747941Y-144528140D01*
X116611270Y-144471529D01*
X116611269Y-144471529D01*
X116611268Y-144471528D01*
X116488265Y-144389340D01*
X116383660Y-144284735D01*
X116301472Y-144161732D01*
X116244860Y-144025059D01*
X116231202Y-143956395D01*
X116216000Y-143879968D01*
X116216000Y-143732032D01*
X116244860Y-143586941D01*
X116301471Y-143450270D01*
X116333988Y-143401605D01*
X116383660Y-143327265D01*
X116488265Y-143222660D01*
X116611268Y-143140472D01*
X116747941Y-143083860D01*
X116803680Y-143072773D01*
X116893032Y-143055000D01*
X117040968Y-143055000D01*
X117130320Y-143072773D01*
G37*
G36*
X107242903Y-141968075D02*
G01*
X107470571Y-142062378D01*
X107675466Y-142199285D01*
X107849715Y-142373534D01*
X107849716Y-142373536D01*
X107986623Y-142578431D01*
X108080925Y-142806097D01*
X108129000Y-143047786D01*
X108129000Y-143294214D01*
X108080925Y-143535903D01*
X107999686Y-143732033D01*
X107986622Y-143763571D01*
X107849715Y-143968466D01*
X107675466Y-144142715D01*
X107470571Y-144279622D01*
X107470570Y-144279623D01*
X107470569Y-144279623D01*
X107242903Y-144373925D01*
X107001214Y-144422000D01*
X106754786Y-144422000D01*
X106513097Y-144373925D01*
X106285431Y-144279623D01*
X106285430Y-144279623D01*
X106285429Y-144279622D01*
X106080534Y-144142715D01*
X105906285Y-143968466D01*
X105769378Y-143763571D01*
X105756315Y-143732033D01*
X105675075Y-143535903D01*
X105627000Y-143294214D01*
X105627000Y-143047786D01*
X105675075Y-142806097D01*
X105769377Y-142578431D01*
X105906284Y-142373536D01*
X105906285Y-142373534D01*
X106080534Y-142199285D01*
X106285429Y-142062378D01*
X106513097Y-141968075D01*
X106754786Y-141920000D01*
X107001214Y-141920000D01*
X107242903Y-141968075D01*
G37*
G36*
X104629000Y-144422000D02*
G01*
X102127000Y-144422000D01*
X102127000Y-141920000D01*
X104629000Y-141920000D01*
X104629000Y-144422000D01*
G37*
G36*
X145132903Y-141968075D02*
G01*
X145360571Y-142062378D01*
X145565466Y-142199285D01*
X145739715Y-142373534D01*
X145739716Y-142373536D01*
X145876623Y-142578431D01*
X145970925Y-142806097D01*
X146019000Y-143047786D01*
X146019000Y-143294214D01*
X145970925Y-143535903D01*
X145889686Y-143732033D01*
X145876622Y-143763571D01*
X145739715Y-143968466D01*
X145565466Y-144142715D01*
X145360571Y-144279622D01*
X145360570Y-144279623D01*
X145360569Y-144279623D01*
X145132903Y-144373925D01*
X144891214Y-144422000D01*
X144644786Y-144422000D01*
X144403097Y-144373925D01*
X144175431Y-144279623D01*
X144175430Y-144279623D01*
X144175429Y-144279622D01*
X143970534Y-144142715D01*
X143796285Y-143968466D01*
X143659378Y-143763571D01*
X143646315Y-143732033D01*
X143565075Y-143535903D01*
X143517000Y-143294214D01*
X143517000Y-143047786D01*
X143565075Y-142806097D01*
X143659377Y-142578431D01*
X143796284Y-142373536D01*
X143796285Y-142373534D01*
X143970534Y-142199285D01*
X144175429Y-142062378D01*
X144403097Y-141968075D01*
X144644786Y-141920000D01*
X144891214Y-141920000D01*
X145132903Y-141968075D01*
G37*
G36*
X142519000Y-144422000D02*
G01*
X140017000Y-144422000D01*
X140017000Y-141920000D01*
X142519000Y-141920000D01*
X142519000Y-144422000D01*
G37*
G36*
X150279228Y-139685703D02*
G01*
X150434100Y-139749853D01*
X150573481Y-139842985D01*
X150692015Y-139961519D01*
X150785147Y-140100900D01*
X150849297Y-140255772D01*
X150882000Y-140420184D01*
X150882000Y-140587816D01*
X150849297Y-140752228D01*
X150785147Y-140907100D01*
X150692015Y-141046481D01*
X150573481Y-141165015D01*
X150434100Y-141258147D01*
X150279228Y-141322297D01*
X150114816Y-141355000D01*
X149947184Y-141355000D01*
X149782772Y-141322297D01*
X149627900Y-141258147D01*
X149488519Y-141165015D01*
X149369985Y-141046481D01*
X149276853Y-140907100D01*
X149212703Y-140752228D01*
X149180000Y-140587816D01*
X149180000Y-140420184D01*
X149212703Y-140255772D01*
X149276853Y-140100900D01*
X149369985Y-139961519D01*
X149488519Y-139842985D01*
X149627900Y-139749853D01*
X149782772Y-139685703D01*
X149947184Y-139653000D01*
X150114816Y-139653000D01*
X150279228Y-139685703D01*
G37*
G36*
X117389228Y-139685703D02*
G01*
X117544100Y-139749853D01*
X117683481Y-139842985D01*
X117802015Y-139961519D01*
X117895147Y-140100900D01*
X117959297Y-140255772D01*
X117992000Y-140420184D01*
X117992000Y-140587816D01*
X117959297Y-140752228D01*
X117895147Y-140907100D01*
X117802015Y-141046481D01*
X117683481Y-141165015D01*
X117544100Y-141258147D01*
X117389228Y-141322297D01*
X117224816Y-141355000D01*
X117057184Y-141355000D01*
X116892772Y-141322297D01*
X116737900Y-141258147D01*
X116598519Y-141165015D01*
X116479985Y-141046481D01*
X116386853Y-140907100D01*
X116322703Y-140752228D01*
X116290000Y-140587816D01*
X116290000Y-140420184D01*
X116322703Y-140255772D01*
X116386853Y-140100900D01*
X116479985Y-139961519D01*
X116598519Y-139842985D01*
X116737900Y-139749853D01*
X116892772Y-139685703D01*
X117057184Y-139653000D01*
X117224816Y-139653000D01*
X117389228Y-139685703D01*
G37*
G36*
X112389228Y-139685703D02*
G01*
X112544100Y-139749853D01*
X112683481Y-139842985D01*
X112802015Y-139961519D01*
X112895147Y-140100900D01*
X112959297Y-140255772D01*
X112992000Y-140420184D01*
X112992000Y-140587816D01*
X112959297Y-140752228D01*
X112895147Y-140907100D01*
X112802015Y-141046481D01*
X112683481Y-141165015D01*
X112544100Y-141258147D01*
X112389228Y-141322297D01*
X112224816Y-141355000D01*
X112057184Y-141355000D01*
X111892772Y-141322297D01*
X111737900Y-141258147D01*
X111598519Y-141165015D01*
X111479985Y-141046481D01*
X111386853Y-140907100D01*
X111322703Y-140752228D01*
X111290000Y-140587816D01*
X111290000Y-140420184D01*
X111322703Y-140255772D01*
X111386853Y-140100900D01*
X111479985Y-139961519D01*
X111598519Y-139842985D01*
X111737900Y-139749853D01*
X111892772Y-139685703D01*
X112057184Y-139653000D01*
X112224816Y-139653000D01*
X112389228Y-139685703D01*
G37*
G36*
X155279228Y-139685703D02*
G01*
X155434100Y-139749853D01*
X155573481Y-139842985D01*
X155692015Y-139961519D01*
X155785147Y-140100900D01*
X155849297Y-140255772D01*
X155882000Y-140420184D01*
X155882000Y-140587816D01*
X155849297Y-140752228D01*
X155785147Y-140907100D01*
X155692015Y-141046481D01*
X155573481Y-141165015D01*
X155434100Y-141258147D01*
X155279228Y-141322297D01*
X155114816Y-141355000D01*
X154947184Y-141355000D01*
X154782772Y-141322297D01*
X154627900Y-141258147D01*
X154488519Y-141165015D01*
X154369985Y-141046481D01*
X154276853Y-140907100D01*
X154212703Y-140752228D01*
X154180000Y-140587816D01*
X154180000Y-140420184D01*
X154212703Y-140255772D01*
X154276853Y-140100900D01*
X154369985Y-139961519D01*
X154488519Y-139842985D01*
X154627900Y-139749853D01*
X154782772Y-139685703D01*
X154947184Y-139653000D01*
X155114816Y-139653000D01*
X155279228Y-139685703D01*
G37*
G36*
X161757256Y-135973298D02*
G01*
X161863579Y-135994447D01*
X162164042Y-136118903D01*
X162434451Y-136299585D01*
X162664415Y-136529549D01*
X162845097Y-136799958D01*
X162969553Y-137100421D01*
X163033000Y-137419391D01*
X163033000Y-137744609D01*
X162969553Y-138063579D01*
X162845097Y-138364042D01*
X162664415Y-138634451D01*
X162434451Y-138864415D01*
X162164042Y-139045097D01*
X161863579Y-139169553D01*
X161757256Y-139190702D01*
X161544611Y-139233000D01*
X161219389Y-139233000D01*
X161006744Y-139190702D01*
X160900421Y-139169553D01*
X160599958Y-139045097D01*
X160329549Y-138864415D01*
X160099585Y-138634451D01*
X159918903Y-138364042D01*
X159794447Y-138063579D01*
X159731000Y-137744609D01*
X159731000Y-137419391D01*
X159794447Y-137100421D01*
X159918903Y-136799958D01*
X160099585Y-136529549D01*
X160329549Y-136299585D01*
X160599958Y-136118903D01*
X160900421Y-135994447D01*
X161006744Y-135973298D01*
X161219389Y-135931000D01*
X161544611Y-135931000D01*
X161757256Y-135973298D01*
G37*
G36*
X95977256Y-135973298D02*
G01*
X96083579Y-135994447D01*
X96384042Y-136118903D01*
X96654451Y-136299585D01*
X96884415Y-136529549D01*
X97065097Y-136799958D01*
X97189553Y-137100421D01*
X97253000Y-137419391D01*
X97253000Y-137744609D01*
X97189553Y-138063579D01*
X97065097Y-138364042D01*
X96884415Y-138634451D01*
X96654451Y-138864415D01*
X96384042Y-139045097D01*
X96083579Y-139169553D01*
X95977256Y-139190702D01*
X95764611Y-139233000D01*
X95439389Y-139233000D01*
X95226744Y-139190702D01*
X95120421Y-139169553D01*
X94819958Y-139045097D01*
X94549549Y-138864415D01*
X94319585Y-138634451D01*
X94138903Y-138364042D01*
X94014447Y-138063579D01*
X93951000Y-137744609D01*
X93951000Y-137419391D01*
X94014447Y-137100421D01*
X94138903Y-136799958D01*
X94319585Y-136529549D01*
X94549549Y-136299585D01*
X94819958Y-136118903D01*
X95120421Y-135994447D01*
X95226744Y-135973298D01*
X95439389Y-135931000D01*
X95764611Y-135931000D01*
X95977256Y-135973298D01*
G37*
G36*
X133867256Y-135973298D02*
G01*
X133973579Y-135994447D01*
X134274042Y-136118903D01*
X134544451Y-136299585D01*
X134774415Y-136529549D01*
X134955097Y-136799958D01*
X135079553Y-137100421D01*
X135143000Y-137419391D01*
X135143000Y-137744609D01*
X135079553Y-138063579D01*
X134955097Y-138364042D01*
X134774415Y-138634451D01*
X134544451Y-138864415D01*
X134274042Y-139045097D01*
X133973579Y-139169553D01*
X133867256Y-139190702D01*
X133654611Y-139233000D01*
X133329389Y-139233000D01*
X133116744Y-139190702D01*
X133010421Y-139169553D01*
X132709958Y-139045097D01*
X132439549Y-138864415D01*
X132209585Y-138634451D01*
X132028903Y-138364042D01*
X131904447Y-138063579D01*
X131841000Y-137744609D01*
X131841000Y-137419391D01*
X131904447Y-137100421D01*
X132028903Y-136799958D01*
X132209585Y-136529549D01*
X132439549Y-136299585D01*
X132709958Y-136118903D01*
X133010421Y-135994447D01*
X133116744Y-135973298D01*
X133329389Y-135931000D01*
X133654611Y-135931000D01*
X133867256Y-135973298D01*
G37*
G36*
X123867256Y-135973298D02*
G01*
X123973579Y-135994447D01*
X124274042Y-136118903D01*
X124544451Y-136299585D01*
X124774415Y-136529549D01*
X124955097Y-136799958D01*
X125079553Y-137100421D01*
X125143000Y-137419391D01*
X125143000Y-137744609D01*
X125079553Y-138063579D01*
X124955097Y-138364042D01*
X124774415Y-138634451D01*
X124544451Y-138864415D01*
X124274042Y-139045097D01*
X123973579Y-139169553D01*
X123867256Y-139190702D01*
X123654611Y-139233000D01*
X123329389Y-139233000D01*
X123116744Y-139190702D01*
X123010421Y-139169553D01*
X122709958Y-139045097D01*
X122439549Y-138864415D01*
X122209585Y-138634451D01*
X122028903Y-138364042D01*
X121904447Y-138063579D01*
X121841000Y-137744609D01*
X121841000Y-137419391D01*
X121904447Y-137100421D01*
X122028903Y-136799958D01*
X122209585Y-136529549D01*
X122439549Y-136299585D01*
X122709958Y-136118903D01*
X123010421Y-135994447D01*
X123116744Y-135973298D01*
X123329389Y-135931000D01*
X123654611Y-135931000D01*
X123867256Y-135973298D01*
G37*
G36*
X115809208Y-130175093D02*
G01*
X116150617Y-130316510D01*
X116150619Y-130316511D01*
X116457880Y-130521816D01*
X116719184Y-130783120D01*
X116924490Y-131090383D01*
X117065907Y-131431792D01*
X117138000Y-131794229D01*
X117138000Y-132163771D01*
X117065907Y-132526208D01*
X116924490Y-132867617D01*
X116924489Y-132867619D01*
X116719184Y-133174880D01*
X116457880Y-133436184D01*
X116150619Y-133641489D01*
X116150618Y-133641490D01*
X116150617Y-133641490D01*
X115809208Y-133782907D01*
X115446771Y-133855000D01*
X115077229Y-133855000D01*
X114714792Y-133782907D01*
X114373383Y-133641490D01*
X114373382Y-133641490D01*
X114373381Y-133641489D01*
X114066120Y-133436184D01*
X113804816Y-133174880D01*
X113599511Y-132867619D01*
X113599510Y-132867617D01*
X113458093Y-132526208D01*
X113386000Y-132163771D01*
X113386000Y-131794229D01*
X113458093Y-131431792D01*
X113599510Y-131090383D01*
X113804816Y-130783120D01*
X114066120Y-130521816D01*
X114373381Y-130316511D01*
X114373383Y-130316510D01*
X114714792Y-130175093D01*
X115077229Y-130103000D01*
X115446771Y-130103000D01*
X115809208Y-130175093D01*
G37*
G36*
X142269208Y-130175093D02*
G01*
X142610617Y-130316510D01*
X142610619Y-130316511D01*
X142917880Y-130521816D01*
X143179184Y-130783120D01*
X143384490Y-131090383D01*
X143525907Y-131431792D01*
X143598000Y-131794229D01*
X143598000Y-132163771D01*
X143525907Y-132526208D01*
X143384490Y-132867617D01*
X143384489Y-132867619D01*
X143179184Y-133174880D01*
X142917880Y-133436184D01*
X142610619Y-133641489D01*
X142610618Y-133641490D01*
X142610617Y-133641490D01*
X142269208Y-133782907D01*
X141906771Y-133855000D01*
X141537229Y-133855000D01*
X141174792Y-133782907D01*
X140833383Y-133641490D01*
X140833382Y-133641490D01*
X140833381Y-133641489D01*
X140526120Y-133436184D01*
X140264816Y-133174880D01*
X140059511Y-132867619D01*
X140059510Y-132867617D01*
X139918093Y-132526208D01*
X139846000Y-132163771D01*
X139846000Y-131794229D01*
X139918093Y-131431792D01*
X140059510Y-131090383D01*
X140264816Y-130783120D01*
X140526120Y-130521816D01*
X140833381Y-130316511D01*
X140833383Y-130316510D01*
X141174792Y-130175093D01*
X141537229Y-130103000D01*
X141906771Y-130103000D01*
X142269208Y-130175093D01*
G37*
G36*
X153699208Y-130175093D02*
G01*
X154040617Y-130316510D01*
X154040619Y-130316511D01*
X154347880Y-130521816D01*
X154609184Y-130783120D01*
X154814490Y-131090383D01*
X154955907Y-131431792D01*
X155028000Y-131794229D01*
X155028000Y-132163771D01*
X154955907Y-132526208D01*
X154814490Y-132867617D01*
X154814489Y-132867619D01*
X154609184Y-133174880D01*
X154347880Y-133436184D01*
X154040619Y-133641489D01*
X154040618Y-133641490D01*
X154040617Y-133641490D01*
X153699208Y-133782907D01*
X153336771Y-133855000D01*
X152967229Y-133855000D01*
X152604792Y-133782907D01*
X152263383Y-133641490D01*
X152263382Y-133641490D01*
X152263381Y-133641489D01*
X151956120Y-133436184D01*
X151694816Y-133174880D01*
X151489511Y-132867619D01*
X151489510Y-132867617D01*
X151348093Y-132526208D01*
X151276000Y-132163771D01*
X151276000Y-131794229D01*
X151348093Y-131431792D01*
X151489510Y-131090383D01*
X151694816Y-130783120D01*
X151956120Y-130521816D01*
X152263381Y-130316511D01*
X152263383Y-130316510D01*
X152604792Y-130175093D01*
X152967229Y-130103000D01*
X153336771Y-130103000D01*
X153699208Y-130175093D01*
G37*
G36*
X104379208Y-130175093D02*
G01*
X104720617Y-130316510D01*
X104720619Y-130316511D01*
X105027880Y-130521816D01*
X105289184Y-130783120D01*
X105494490Y-131090383D01*
X105635907Y-131431792D01*
X105708000Y-131794229D01*
X105708000Y-132163771D01*
X105635907Y-132526208D01*
X105494490Y-132867617D01*
X105494489Y-132867619D01*
X105289184Y-133174880D01*
X105027880Y-133436184D01*
X104720619Y-133641489D01*
X104720618Y-133641490D01*
X104720617Y-133641490D01*
X104379208Y-133782907D01*
X104016771Y-133855000D01*
X103647229Y-133855000D01*
X103284792Y-133782907D01*
X102943383Y-133641490D01*
X102943382Y-133641490D01*
X102943381Y-133641489D01*
X102636120Y-133436184D01*
X102374816Y-133174880D01*
X102169511Y-132867619D01*
X102169510Y-132867617D01*
X102028093Y-132526208D01*
X101956000Y-132163771D01*
X101956000Y-131794229D01*
X102028093Y-131431792D01*
X102169510Y-131090383D01*
X102374816Y-130783120D01*
X102636120Y-130521816D01*
X102943381Y-130316511D01*
X102943383Y-130316510D01*
X103284792Y-130175093D01*
X103647229Y-130103000D01*
X104016771Y-130103000D01*
X104379208Y-130175093D01*
G37*
G36*
X133842702Y-123468414D02*
G01*
X133973579Y-123494447D01*
X134186037Y-123582450D01*
X134227458Y-123599607D01*
X134274042Y-123618903D01*
X134544451Y-123799585D01*
X134774415Y-124029549D01*
X134774416Y-124029551D01*
X134955098Y-124299960D01*
X135079553Y-124600422D01*
X135143000Y-124919389D01*
X135143000Y-125244611D01*
X135113014Y-125395358D01*
X135079553Y-125563579D01*
X135019776Y-125707893D01*
X134955677Y-125862643D01*
X134955097Y-125864042D01*
X134774415Y-126134451D01*
X134544451Y-126364415D01*
X134274042Y-126545097D01*
X133973579Y-126669553D01*
X133867256Y-126690702D01*
X133654611Y-126733000D01*
X133329389Y-126733000D01*
X133116744Y-126690702D01*
X133010421Y-126669553D01*
X132709958Y-126545097D01*
X132439549Y-126364415D01*
X132209585Y-126134451D01*
X132028903Y-125864042D01*
X132028324Y-125862643D01*
X131964224Y-125707893D01*
X131904447Y-125563579D01*
X131870986Y-125395358D01*
X131841000Y-125244611D01*
X131841000Y-124919389D01*
X131904447Y-124600422D01*
X132028902Y-124299960D01*
X132209584Y-124029551D01*
X132209585Y-124029549D01*
X132439549Y-123799585D01*
X132709958Y-123618903D01*
X132756543Y-123599607D01*
X132797963Y-123582450D01*
X133010421Y-123494447D01*
X133141298Y-123468414D01*
X133329389Y-123431000D01*
X133654611Y-123431000D01*
X133842702Y-123468414D01*
G37*
G36*
X161732702Y-123468414D02*
G01*
X161863579Y-123494447D01*
X162076037Y-123582450D01*
X162117458Y-123599607D01*
X162164042Y-123618903D01*
X162434451Y-123799585D01*
X162664415Y-124029549D01*
X162664416Y-124029551D01*
X162845098Y-124299960D01*
X162969553Y-124600422D01*
X163033000Y-124919389D01*
X163033000Y-125244611D01*
X163003014Y-125395358D01*
X162969553Y-125563579D01*
X162909776Y-125707893D01*
X162845677Y-125862643D01*
X162845097Y-125864042D01*
X162664415Y-126134451D01*
X162434451Y-126364415D01*
X162164042Y-126545097D01*
X161863579Y-126669553D01*
X161757256Y-126690702D01*
X161544611Y-126733000D01*
X161219389Y-126733000D01*
X161006744Y-126690702D01*
X160900421Y-126669553D01*
X160599958Y-126545097D01*
X160329549Y-126364415D01*
X160099585Y-126134451D01*
X159918903Y-125864042D01*
X159918324Y-125862643D01*
X159854224Y-125707893D01*
X159794447Y-125563579D01*
X159760986Y-125395358D01*
X159731000Y-125244611D01*
X159731000Y-124919389D01*
X159794447Y-124600422D01*
X159918902Y-124299960D01*
X160099584Y-124029551D01*
X160099585Y-124029549D01*
X160329549Y-123799585D01*
X160599958Y-123618903D01*
X160646543Y-123599607D01*
X160687963Y-123582450D01*
X160900421Y-123494447D01*
X161031298Y-123468414D01*
X161219389Y-123431000D01*
X161544611Y-123431000D01*
X161732702Y-123468414D01*
G37*
G36*
X123842702Y-123468414D02*
G01*
X123973579Y-123494447D01*
X124186037Y-123582450D01*
X124227458Y-123599607D01*
X124274042Y-123618903D01*
X124544451Y-123799585D01*
X124774415Y-124029549D01*
X124774416Y-124029551D01*
X124955098Y-124299960D01*
X125079553Y-124600422D01*
X125143000Y-124919389D01*
X125143000Y-125244611D01*
X125113014Y-125395358D01*
X125079553Y-125563579D01*
X125019776Y-125707893D01*
X124955677Y-125862643D01*
X124955097Y-125864042D01*
X124774415Y-126134451D01*
X124544451Y-126364415D01*
X124274042Y-126545097D01*
X123973579Y-126669553D01*
X123867256Y-126690702D01*
X123654611Y-126733000D01*
X123329389Y-126733000D01*
X123116744Y-126690702D01*
X123010421Y-126669553D01*
X122709958Y-126545097D01*
X122439549Y-126364415D01*
X122209585Y-126134451D01*
X122028903Y-125864042D01*
X122028324Y-125862643D01*
X121964224Y-125707893D01*
X121904447Y-125563579D01*
X121870986Y-125395358D01*
X121841000Y-125244611D01*
X121841000Y-124919389D01*
X121904447Y-124600422D01*
X122028902Y-124299960D01*
X122209584Y-124029551D01*
X122209585Y-124029549D01*
X122439549Y-123799585D01*
X122709958Y-123618903D01*
X122756543Y-123599607D01*
X122797963Y-123582450D01*
X123010421Y-123494447D01*
X123141298Y-123468414D01*
X123329389Y-123431000D01*
X123654611Y-123431000D01*
X123842702Y-123468414D01*
G37*
G36*
X95952702Y-123468414D02*
G01*
X96083579Y-123494447D01*
X96296037Y-123582450D01*
X96337458Y-123599607D01*
X96384042Y-123618903D01*
X96654451Y-123799585D01*
X96884415Y-124029549D01*
X96884416Y-124029551D01*
X97065098Y-124299960D01*
X97189553Y-124600422D01*
X97253000Y-124919389D01*
X97253000Y-125244611D01*
X97223014Y-125395358D01*
X97189553Y-125563579D01*
X97129776Y-125707893D01*
X97065677Y-125862643D01*
X97065097Y-125864042D01*
X96884415Y-126134451D01*
X96654451Y-126364415D01*
X96384042Y-126545097D01*
X96083579Y-126669553D01*
X95977256Y-126690702D01*
X95764611Y-126733000D01*
X95439389Y-126733000D01*
X95226744Y-126690702D01*
X95120421Y-126669553D01*
X94819958Y-126545097D01*
X94549549Y-126364415D01*
X94319585Y-126134451D01*
X94138903Y-125864042D01*
X94138324Y-125862643D01*
X94074224Y-125707893D01*
X94014447Y-125563579D01*
X93980986Y-125395358D01*
X93951000Y-125244611D01*
X93951000Y-124919389D01*
X94014447Y-124600422D01*
X94138902Y-124299960D01*
X94319584Y-124029551D01*
X94319585Y-124029549D01*
X94549549Y-123799585D01*
X94819958Y-123618903D01*
X94866543Y-123599607D01*
X94907963Y-123582450D01*
X95120421Y-123494447D01*
X95251298Y-123468414D01*
X95439389Y-123431000D01*
X95764611Y-123431000D01*
X95952702Y-123468414D01*
G37*
G36*
X112955642Y-124858781D02*
G01*
X113101414Y-124919162D01*
X113101416Y-124919163D01*
X113232608Y-125006822D01*
X113344178Y-125118392D01*
X113428514Y-125244611D01*
X113431838Y-125249586D01*
X113492219Y-125395358D01*
X113523000Y-125550107D01*
X113523000Y-125707893D01*
X113492219Y-125862642D01*
X113491639Y-125864042D01*
X113431837Y-126008416D01*
X113344178Y-126139608D01*
X113232608Y-126251178D01*
X113101416Y-126338837D01*
X113101415Y-126338838D01*
X113101414Y-126338838D01*
X112955642Y-126399219D01*
X112800893Y-126430000D01*
X112643107Y-126430000D01*
X112488358Y-126399219D01*
X112342586Y-126338838D01*
X112342585Y-126338838D01*
X112342584Y-126338837D01*
X112211392Y-126251178D01*
X112099822Y-126139608D01*
X112012163Y-126008416D01*
X111952361Y-125864042D01*
X111951781Y-125862642D01*
X111921000Y-125707893D01*
X111921000Y-125550107D01*
X111951781Y-125395358D01*
X112012162Y-125249586D01*
X112015486Y-125244611D01*
X112099822Y-125118392D01*
X112211392Y-125006822D01*
X112342584Y-124919163D01*
X112342586Y-124919162D01*
X112488358Y-124858781D01*
X112643107Y-124828000D01*
X112800893Y-124828000D01*
X112955642Y-124858781D01*
G37*
G36*
X150845642Y-124858781D02*
G01*
X150991414Y-124919162D01*
X150991416Y-124919163D01*
X151122608Y-125006822D01*
X151234178Y-125118392D01*
X151318514Y-125244611D01*
X151321838Y-125249586D01*
X151382219Y-125395358D01*
X151413000Y-125550107D01*
X151413000Y-125707893D01*
X151382219Y-125862642D01*
X151381639Y-125864042D01*
X151321837Y-126008416D01*
X151234178Y-126139608D01*
X151122608Y-126251178D01*
X150991416Y-126338837D01*
X150991415Y-126338838D01*
X150991414Y-126338838D01*
X150845642Y-126399219D01*
X150690893Y-126430000D01*
X150533107Y-126430000D01*
X150378358Y-126399219D01*
X150232586Y-126338838D01*
X150232585Y-126338838D01*
X150232584Y-126338837D01*
X150101392Y-126251178D01*
X149989822Y-126139608D01*
X149902163Y-126008416D01*
X149842361Y-125864042D01*
X149841781Y-125862642D01*
X149811000Y-125707893D01*
X149811000Y-125550107D01*
X149841781Y-125395358D01*
X149902162Y-125249586D01*
X149905486Y-125244611D01*
X149989822Y-125118392D01*
X150101392Y-125006822D01*
X150232584Y-124919163D01*
X150232586Y-124919162D01*
X150378358Y-124858781D01*
X150533107Y-124828000D01*
X150690893Y-124828000D01*
X150845642Y-124858781D01*
G37*
G36*
X148305642Y-124858781D02*
G01*
X148451414Y-124919162D01*
X148451416Y-124919163D01*
X148582608Y-125006822D01*
X148694178Y-125118392D01*
X148778514Y-125244611D01*
X148781838Y-125249586D01*
X148842219Y-125395358D01*
X148873000Y-125550107D01*
X148873000Y-125707893D01*
X148842219Y-125862642D01*
X148841639Y-125864042D01*
X148781837Y-126008416D01*
X148694178Y-126139608D01*
X148582608Y-126251178D01*
X148451416Y-126338837D01*
X148451415Y-126338838D01*
X148451414Y-126338838D01*
X148305642Y-126399219D01*
X148150893Y-126430000D01*
X147993107Y-126430000D01*
X147838358Y-126399219D01*
X147692586Y-126338838D01*
X147692585Y-126338838D01*
X147692584Y-126338837D01*
X147561392Y-126251178D01*
X147449822Y-126139608D01*
X147362163Y-126008416D01*
X147302361Y-125864042D01*
X147301781Y-125862642D01*
X147271000Y-125707893D01*
X147271000Y-125550107D01*
X147301781Y-125395358D01*
X147362162Y-125249586D01*
X147365486Y-125244611D01*
X147449822Y-125118392D01*
X147561392Y-125006822D01*
X147692584Y-124919163D01*
X147692586Y-124919162D01*
X147838358Y-124858781D01*
X147993107Y-124828000D01*
X148150893Y-124828000D01*
X148305642Y-124858781D01*
G37*
G36*
X143793000Y-126430000D02*
G01*
X142191000Y-126430000D01*
X142191000Y-124828000D01*
X143793000Y-124828000D01*
X143793000Y-126430000D01*
G37*
G36*
X110415642Y-124858781D02*
G01*
X110561414Y-124919162D01*
X110561416Y-124919163D01*
X110692608Y-125006822D01*
X110804178Y-125118392D01*
X110888514Y-125244611D01*
X110891838Y-125249586D01*
X110952219Y-125395358D01*
X110983000Y-125550107D01*
X110983000Y-125707893D01*
X110952219Y-125862642D01*
X110951639Y-125864042D01*
X110891837Y-126008416D01*
X110804178Y-126139608D01*
X110692608Y-126251178D01*
X110561416Y-126338837D01*
X110561415Y-126338838D01*
X110561414Y-126338838D01*
X110415642Y-126399219D01*
X110260893Y-126430000D01*
X110103107Y-126430000D01*
X109948358Y-126399219D01*
X109802586Y-126338838D01*
X109802585Y-126338838D01*
X109802584Y-126338837D01*
X109671392Y-126251178D01*
X109559822Y-126139608D01*
X109472163Y-126008416D01*
X109412361Y-125864042D01*
X109411781Y-125862642D01*
X109381000Y-125707893D01*
X109381000Y-125550107D01*
X109411781Y-125395358D01*
X109472162Y-125249586D01*
X109475486Y-125244611D01*
X109559822Y-125118392D01*
X109671392Y-125006822D01*
X109802584Y-124919163D01*
X109802586Y-124919162D01*
X109948358Y-124858781D01*
X110103107Y-124828000D01*
X110260893Y-124828000D01*
X110415642Y-124858781D01*
G37*
G36*
X107875642Y-124858781D02*
G01*
X108021414Y-124919162D01*
X108021416Y-124919163D01*
X108152608Y-125006822D01*
X108264178Y-125118392D01*
X108348514Y-125244611D01*
X108351838Y-125249586D01*
X108412219Y-125395358D01*
X108443000Y-125550107D01*
X108443000Y-125707893D01*
X108412219Y-125862642D01*
X108411639Y-125864042D01*
X108351837Y-126008416D01*
X108264178Y-126139608D01*
X108152608Y-126251178D01*
X108021416Y-126338837D01*
X108021415Y-126338838D01*
X108021414Y-126338838D01*
X107875642Y-126399219D01*
X107720893Y-126430000D01*
X107563107Y-126430000D01*
X107408358Y-126399219D01*
X107262586Y-126338838D01*
X107262585Y-126338838D01*
X107262584Y-126338837D01*
X107131392Y-126251178D01*
X107019822Y-126139608D01*
X106932163Y-126008416D01*
X106872361Y-125864042D01*
X106871781Y-125862642D01*
X106841000Y-125707893D01*
X106841000Y-125550107D01*
X106871781Y-125395358D01*
X106932162Y-125249586D01*
X106935486Y-125244611D01*
X107019822Y-125118392D01*
X107131392Y-125006822D01*
X107262584Y-124919163D01*
X107262586Y-124919162D01*
X107408358Y-124858781D01*
X107563107Y-124828000D01*
X107720893Y-124828000D01*
X107875642Y-124858781D01*
G37*
G36*
X105903000Y-126430000D02*
G01*
X104301000Y-126430000D01*
X104301000Y-124828000D01*
X105903000Y-124828000D01*
X105903000Y-126430000D01*
G37*
G36*
X145765642Y-124858781D02*
G01*
X145911414Y-124919162D01*
X145911416Y-124919163D01*
X146042608Y-125006822D01*
X146154178Y-125118392D01*
X146238514Y-125244611D01*
X146241838Y-125249586D01*
X146302219Y-125395358D01*
X146333000Y-125550107D01*
X146333000Y-125707893D01*
X146302219Y-125862642D01*
X146301639Y-125864042D01*
X146241837Y-126008416D01*
X146154178Y-126139608D01*
X146042608Y-126251178D01*
X145911416Y-126338837D01*
X145911415Y-126338838D01*
X145911414Y-126338838D01*
X145765642Y-126399219D01*
X145610893Y-126430000D01*
X145453107Y-126430000D01*
X145298358Y-126399219D01*
X145152586Y-126338838D01*
X145152585Y-126338838D01*
X145152584Y-126338837D01*
X145021392Y-126251178D01*
X144909822Y-126139608D01*
X144822163Y-126008416D01*
X144762361Y-125864042D01*
X144761781Y-125862642D01*
X144731000Y-125707893D01*
X144731000Y-125550107D01*
X144761781Y-125395358D01*
X144822162Y-125249586D01*
X144825486Y-125244611D01*
X144909822Y-125118392D01*
X145021392Y-125006822D01*
X145152584Y-124919163D01*
X145152586Y-124919162D01*
X145298358Y-124858781D01*
X145453107Y-124828000D01*
X145610893Y-124828000D01*
X145765642Y-124858781D01*
G37*
G36*
X109145642Y-122318781D02*
G01*
X109291414Y-122379162D01*
X109291416Y-122379163D01*
X109422608Y-122466822D01*
X109534178Y-122578392D01*
X109621837Y-122709584D01*
X109621838Y-122709586D01*
X109682219Y-122855358D01*
X109713000Y-123010107D01*
X109713000Y-123167893D01*
X109682219Y-123322642D01*
X109637335Y-123431000D01*
X109621837Y-123468416D01*
X109534178Y-123599608D01*
X109422608Y-123711178D01*
X109291416Y-123798837D01*
X109291415Y-123798838D01*
X109291414Y-123798838D01*
X109145642Y-123859219D01*
X108990893Y-123890000D01*
X108833107Y-123890000D01*
X108678358Y-123859219D01*
X108532586Y-123798838D01*
X108532585Y-123798838D01*
X108532584Y-123798837D01*
X108401392Y-123711178D01*
X108289822Y-123599608D01*
X108202163Y-123468416D01*
X108186665Y-123431000D01*
X108141781Y-123322642D01*
X108111000Y-123167893D01*
X108111000Y-123010107D01*
X108141781Y-122855358D01*
X108202162Y-122709586D01*
X108202163Y-122709584D01*
X108289822Y-122578392D01*
X108401392Y-122466822D01*
X108532584Y-122379163D01*
X108532586Y-122379162D01*
X108678358Y-122318781D01*
X108833107Y-122288000D01*
X108990893Y-122288000D01*
X109145642Y-122318781D01*
G37*
G36*
X149575642Y-122318781D02*
G01*
X149721414Y-122379162D01*
X149721416Y-122379163D01*
X149852608Y-122466822D01*
X149964178Y-122578392D01*
X150051837Y-122709584D01*
X150051838Y-122709586D01*
X150112219Y-122855358D01*
X150143000Y-123010107D01*
X150143000Y-123167893D01*
X150112219Y-123322642D01*
X150067335Y-123431000D01*
X150051837Y-123468416D01*
X149964178Y-123599608D01*
X149852608Y-123711178D01*
X149721416Y-123798837D01*
X149721415Y-123798838D01*
X149721414Y-123798838D01*
X149575642Y-123859219D01*
X149420893Y-123890000D01*
X149263107Y-123890000D01*
X149108358Y-123859219D01*
X148962586Y-123798838D01*
X148962585Y-123798838D01*
X148962584Y-123798837D01*
X148831392Y-123711178D01*
X148719822Y-123599608D01*
X148632163Y-123468416D01*
X148616665Y-123431000D01*
X148571781Y-123322642D01*
X148541000Y-123167893D01*
X148541000Y-123010107D01*
X148571781Y-122855358D01*
X148632162Y-122709586D01*
X148632163Y-122709584D01*
X148719822Y-122578392D01*
X148831392Y-122466822D01*
X148962584Y-122379163D01*
X148962586Y-122379162D01*
X149108358Y-122318781D01*
X149263107Y-122288000D01*
X149420893Y-122288000D01*
X149575642Y-122318781D01*
G37*
G36*
X106605642Y-122318781D02*
G01*
X106751414Y-122379162D01*
X106751416Y-122379163D01*
X106882608Y-122466822D01*
X106994178Y-122578392D01*
X107081837Y-122709584D01*
X107081838Y-122709586D01*
X107142219Y-122855358D01*
X107173000Y-123010107D01*
X107173000Y-123167893D01*
X107142219Y-123322642D01*
X107097335Y-123431000D01*
X107081837Y-123468416D01*
X106994178Y-123599608D01*
X106882608Y-123711178D01*
X106751416Y-123798837D01*
X106751415Y-123798838D01*
X106751414Y-123798838D01*
X106605642Y-123859219D01*
X106450893Y-123890000D01*
X106293107Y-123890000D01*
X106138358Y-123859219D01*
X105992586Y-123798838D01*
X105992585Y-123798838D01*
X105992584Y-123798837D01*
X105861392Y-123711178D01*
X105749822Y-123599608D01*
X105662163Y-123468416D01*
X105646665Y-123431000D01*
X105601781Y-123322642D01*
X105571000Y-123167893D01*
X105571000Y-123010107D01*
X105601781Y-122855358D01*
X105662162Y-122709586D01*
X105662163Y-122709584D01*
X105749822Y-122578392D01*
X105861392Y-122466822D01*
X105992584Y-122379163D01*
X105992586Y-122379162D01*
X106138358Y-122318781D01*
X106293107Y-122288000D01*
X106450893Y-122288000D01*
X106605642Y-122318781D01*
G37*
G36*
X111685642Y-122318781D02*
G01*
X111831414Y-122379162D01*
X111831416Y-122379163D01*
X111962608Y-122466822D01*
X112074178Y-122578392D01*
X112161837Y-122709584D01*
X112161838Y-122709586D01*
X112222219Y-122855358D01*
X112253000Y-123010107D01*
X112253000Y-123167893D01*
X112222219Y-123322642D01*
X112177335Y-123431000D01*
X112161837Y-123468416D01*
X112074178Y-123599608D01*
X111962608Y-123711178D01*
X111831416Y-123798837D01*
X111831415Y-123798838D01*
X111831414Y-123798838D01*
X111685642Y-123859219D01*
X111530893Y-123890000D01*
X111373107Y-123890000D01*
X111218358Y-123859219D01*
X111072586Y-123798838D01*
X111072585Y-123798838D01*
X111072584Y-123798837D01*
X110941392Y-123711178D01*
X110829822Y-123599608D01*
X110742163Y-123468416D01*
X110726665Y-123431000D01*
X110681781Y-123322642D01*
X110651000Y-123167893D01*
X110651000Y-123010107D01*
X110681781Y-122855358D01*
X110742162Y-122709586D01*
X110742163Y-122709584D01*
X110829822Y-122578392D01*
X110941392Y-122466822D01*
X111072584Y-122379163D01*
X111072586Y-122379162D01*
X111218358Y-122318781D01*
X111373107Y-122288000D01*
X111530893Y-122288000D01*
X111685642Y-122318781D01*
G37*
G36*
X114225642Y-122318781D02*
G01*
X114371414Y-122379162D01*
X114371416Y-122379163D01*
X114502608Y-122466822D01*
X114614178Y-122578392D01*
X114701837Y-122709584D01*
X114701838Y-122709586D01*
X114762219Y-122855358D01*
X114793000Y-123010107D01*
X114793000Y-123167893D01*
X114762219Y-123322642D01*
X114717335Y-123431000D01*
X114701837Y-123468416D01*
X114614178Y-123599608D01*
X114502608Y-123711178D01*
X114371416Y-123798837D01*
X114371415Y-123798838D01*
X114371414Y-123798838D01*
X114225642Y-123859219D01*
X114070893Y-123890000D01*
X113913107Y-123890000D01*
X113758358Y-123859219D01*
X113612586Y-123798838D01*
X113612585Y-123798838D01*
X113612584Y-123798837D01*
X113481392Y-123711178D01*
X113369822Y-123599608D01*
X113282163Y-123468416D01*
X113266665Y-123431000D01*
X113221781Y-123322642D01*
X113191000Y-123167893D01*
X113191000Y-123010107D01*
X113221781Y-122855358D01*
X113282162Y-122709586D01*
X113282163Y-122709584D01*
X113369822Y-122578392D01*
X113481392Y-122466822D01*
X113612584Y-122379163D01*
X113612586Y-122379162D01*
X113758358Y-122318781D01*
X113913107Y-122288000D01*
X114070893Y-122288000D01*
X114225642Y-122318781D01*
G37*
G36*
X144495642Y-122318781D02*
G01*
X144641414Y-122379162D01*
X144641416Y-122379163D01*
X144772608Y-122466822D01*
X144884178Y-122578392D01*
X144971837Y-122709584D01*
X144971838Y-122709586D01*
X145032219Y-122855358D01*
X145063000Y-123010107D01*
X145063000Y-123167893D01*
X145032219Y-123322642D01*
X144987335Y-123431000D01*
X144971837Y-123468416D01*
X144884178Y-123599608D01*
X144772608Y-123711178D01*
X144641416Y-123798837D01*
X144641415Y-123798838D01*
X144641414Y-123798838D01*
X144495642Y-123859219D01*
X144340893Y-123890000D01*
X144183107Y-123890000D01*
X144028358Y-123859219D01*
X143882586Y-123798838D01*
X143882585Y-123798838D01*
X143882584Y-123798837D01*
X143751392Y-123711178D01*
X143639822Y-123599608D01*
X143552163Y-123468416D01*
X143536665Y-123431000D01*
X143491781Y-123322642D01*
X143461000Y-123167893D01*
X143461000Y-123010107D01*
X143491781Y-122855358D01*
X143552162Y-122709586D01*
X143552163Y-122709584D01*
X143639822Y-122578392D01*
X143751392Y-122466822D01*
X143882584Y-122379163D01*
X143882586Y-122379162D01*
X144028358Y-122318781D01*
X144183107Y-122288000D01*
X144340893Y-122288000D01*
X144495642Y-122318781D01*
G37*
G36*
X147035642Y-122318781D02*
G01*
X147181414Y-122379162D01*
X147181416Y-122379163D01*
X147312608Y-122466822D01*
X147424178Y-122578392D01*
X147511837Y-122709584D01*
X147511838Y-122709586D01*
X147572219Y-122855358D01*
X147603000Y-123010107D01*
X147603000Y-123167893D01*
X147572219Y-123322642D01*
X147527335Y-123431000D01*
X147511837Y-123468416D01*
X147424178Y-123599608D01*
X147312608Y-123711178D01*
X147181416Y-123798837D01*
X147181415Y-123798838D01*
X147181414Y-123798838D01*
X147035642Y-123859219D01*
X146880893Y-123890000D01*
X146723107Y-123890000D01*
X146568358Y-123859219D01*
X146422586Y-123798838D01*
X146422585Y-123798838D01*
X146422584Y-123798837D01*
X146291392Y-123711178D01*
X146179822Y-123599608D01*
X146092163Y-123468416D01*
X146076665Y-123431000D01*
X146031781Y-123322642D01*
X146001000Y-123167893D01*
X146001000Y-123010107D01*
X146031781Y-122855358D01*
X146092162Y-122709586D01*
X146092163Y-122709584D01*
X146179822Y-122578392D01*
X146291392Y-122466822D01*
X146422584Y-122379163D01*
X146422586Y-122379162D01*
X146568358Y-122318781D01*
X146723107Y-122288000D01*
X146880893Y-122288000D01*
X147035642Y-122318781D01*
G37*
G36*
X152115642Y-122318781D02*
G01*
X152261414Y-122379162D01*
X152261416Y-122379163D01*
X152392608Y-122466822D01*
X152504178Y-122578392D01*
X152591837Y-122709584D01*
X152591838Y-122709586D01*
X152652219Y-122855358D01*
X152683000Y-123010107D01*
X152683000Y-123167893D01*
X152652219Y-123322642D01*
X152607335Y-123431000D01*
X152591837Y-123468416D01*
X152504178Y-123599608D01*
X152392608Y-123711178D01*
X152261416Y-123798837D01*
X152261415Y-123798838D01*
X152261414Y-123798838D01*
X152115642Y-123859219D01*
X151960893Y-123890000D01*
X151803107Y-123890000D01*
X151648358Y-123859219D01*
X151502586Y-123798838D01*
X151502585Y-123798838D01*
X151502584Y-123798837D01*
X151371392Y-123711178D01*
X151259822Y-123599608D01*
X151172163Y-123468416D01*
X151156665Y-123431000D01*
X151111781Y-123322642D01*
X151081000Y-123167893D01*
X151081000Y-123010107D01*
X151111781Y-122855358D01*
X151172162Y-122709586D01*
X151172163Y-122709584D01*
X151259822Y-122578392D01*
X151371392Y-122466822D01*
X151502584Y-122379163D01*
X151502586Y-122379162D01*
X151648358Y-122318781D01*
X151803107Y-122288000D01*
X151960893Y-122288000D01*
X152115642Y-122318781D01*
G37*
G36*
X145765642Y-118889781D02*
G01*
X145911414Y-118950162D01*
X145911416Y-118950163D01*
X146042608Y-119037822D01*
X146154178Y-119149392D01*
X146241837Y-119280584D01*
X146241838Y-119280586D01*
X146302219Y-119426358D01*
X146333000Y-119581107D01*
X146333000Y-119738893D01*
X146302219Y-119893642D01*
X146241838Y-120039414D01*
X146241837Y-120039416D01*
X146154178Y-120170608D01*
X146042608Y-120282178D01*
X145911416Y-120369837D01*
X145911415Y-120369838D01*
X145911414Y-120369838D01*
X145765642Y-120430219D01*
X145610893Y-120461000D01*
X145453107Y-120461000D01*
X145298358Y-120430219D01*
X145152586Y-120369838D01*
X145152585Y-120369838D01*
X145152584Y-120369837D01*
X145021392Y-120282178D01*
X144909822Y-120170608D01*
X144822163Y-120039416D01*
X144822162Y-120039414D01*
X144761781Y-119893642D01*
X144731000Y-119738893D01*
X144731000Y-119581107D01*
X144761781Y-119426358D01*
X144822162Y-119280586D01*
X144822163Y-119280584D01*
X144909822Y-119149392D01*
X145021392Y-119037822D01*
X145152584Y-118950163D01*
X145152586Y-118950162D01*
X145298358Y-118889781D01*
X145453107Y-118859000D01*
X145610893Y-118859000D01*
X145765642Y-118889781D01*
G37*
G36*
X143225642Y-118889781D02*
G01*
X143371414Y-118950162D01*
X143371416Y-118950163D01*
X143502608Y-119037822D01*
X143614178Y-119149392D01*
X143701837Y-119280584D01*
X143701838Y-119280586D01*
X143762219Y-119426358D01*
X143793000Y-119581107D01*
X143793000Y-119738893D01*
X143762219Y-119893642D01*
X143701838Y-120039414D01*
X143701837Y-120039416D01*
X143614178Y-120170608D01*
X143502608Y-120282178D01*
X143371416Y-120369837D01*
X143371415Y-120369838D01*
X143371414Y-120369838D01*
X143225642Y-120430219D01*
X143070893Y-120461000D01*
X142913107Y-120461000D01*
X142758358Y-120430219D01*
X142612586Y-120369838D01*
X142612585Y-120369838D01*
X142612584Y-120369837D01*
X142481392Y-120282178D01*
X142369822Y-120170608D01*
X142282163Y-120039416D01*
X142282162Y-120039414D01*
X142221781Y-119893642D01*
X142191000Y-119738893D01*
X142191000Y-119581107D01*
X142221781Y-119426358D01*
X142282162Y-119280586D01*
X142282163Y-119280584D01*
X142369822Y-119149392D01*
X142481392Y-119037822D01*
X142612584Y-118950163D01*
X142612586Y-118950162D01*
X142758358Y-118889781D01*
X142913107Y-118859000D01*
X143070893Y-118859000D01*
X143225642Y-118889781D01*
G37*
G36*
X148305642Y-118889781D02*
G01*
X148451414Y-118950162D01*
X148451416Y-118950163D01*
X148582608Y-119037822D01*
X148694178Y-119149392D01*
X148781837Y-119280584D01*
X148781838Y-119280586D01*
X148842219Y-119426358D01*
X148873000Y-119581107D01*
X148873000Y-119738893D01*
X148842219Y-119893642D01*
X148781838Y-120039414D01*
X148781837Y-120039416D01*
X148694178Y-120170608D01*
X148582608Y-120282178D01*
X148451416Y-120369837D01*
X148451415Y-120369838D01*
X148451414Y-120369838D01*
X148305642Y-120430219D01*
X148150893Y-120461000D01*
X147993107Y-120461000D01*
X147838358Y-120430219D01*
X147692586Y-120369838D01*
X147692585Y-120369838D01*
X147692584Y-120369837D01*
X147561392Y-120282178D01*
X147449822Y-120170608D01*
X147362163Y-120039416D01*
X147362162Y-120039414D01*
X147301781Y-119893642D01*
X147271000Y-119738893D01*
X147271000Y-119581107D01*
X147301781Y-119426358D01*
X147362162Y-119280586D01*
X147362163Y-119280584D01*
X147449822Y-119149392D01*
X147561392Y-119037822D01*
X147692584Y-118950163D01*
X147692586Y-118950162D01*
X147838358Y-118889781D01*
X147993107Y-118859000D01*
X148150893Y-118859000D01*
X148305642Y-118889781D01*
G37*
G36*
X150845642Y-118889781D02*
G01*
X150991414Y-118950162D01*
X150991416Y-118950163D01*
X151122608Y-119037822D01*
X151234178Y-119149392D01*
X151321837Y-119280584D01*
X151321838Y-119280586D01*
X151382219Y-119426358D01*
X151413000Y-119581107D01*
X151413000Y-119738893D01*
X151382219Y-119893642D01*
X151321838Y-120039414D01*
X151321837Y-120039416D01*
X151234178Y-120170608D01*
X151122608Y-120282178D01*
X150991416Y-120369837D01*
X150991415Y-120369838D01*
X150991414Y-120369838D01*
X150845642Y-120430219D01*
X150690893Y-120461000D01*
X150533107Y-120461000D01*
X150378358Y-120430219D01*
X150232586Y-120369838D01*
X150232585Y-120369838D01*
X150232584Y-120369837D01*
X150101392Y-120282178D01*
X149989822Y-120170608D01*
X149902163Y-120039416D01*
X149902162Y-120039414D01*
X149841781Y-119893642D01*
X149811000Y-119738893D01*
X149811000Y-119581107D01*
X149841781Y-119426358D01*
X149902162Y-119280586D01*
X149902163Y-119280584D01*
X149989822Y-119149392D01*
X150101392Y-119037822D01*
X150232584Y-118950163D01*
X150232586Y-118950162D01*
X150378358Y-118889781D01*
X150533107Y-118859000D01*
X150690893Y-118859000D01*
X150845642Y-118889781D01*
G37*
G36*
X107875642Y-118889781D02*
G01*
X108021414Y-118950162D01*
X108021416Y-118950163D01*
X108152608Y-119037822D01*
X108264178Y-119149392D01*
X108351837Y-119280584D01*
X108351838Y-119280586D01*
X108412219Y-119426358D01*
X108443000Y-119581107D01*
X108443000Y-119738893D01*
X108412219Y-119893642D01*
X108351838Y-120039414D01*
X108351837Y-120039416D01*
X108264178Y-120170608D01*
X108152608Y-120282178D01*
X108021416Y-120369837D01*
X108021415Y-120369838D01*
X108021414Y-120369838D01*
X107875642Y-120430219D01*
X107720893Y-120461000D01*
X107563107Y-120461000D01*
X107408358Y-120430219D01*
X107262586Y-120369838D01*
X107262585Y-120369838D01*
X107262584Y-120369837D01*
X107131392Y-120282178D01*
X107019822Y-120170608D01*
X106932163Y-120039416D01*
X106932162Y-120039414D01*
X106871781Y-119893642D01*
X106841000Y-119738893D01*
X106841000Y-119581107D01*
X106871781Y-119426358D01*
X106932162Y-119280586D01*
X106932163Y-119280584D01*
X107019822Y-119149392D01*
X107131392Y-119037822D01*
X107262584Y-118950163D01*
X107262586Y-118950162D01*
X107408358Y-118889781D01*
X107563107Y-118859000D01*
X107720893Y-118859000D01*
X107875642Y-118889781D01*
G37*
G36*
X110415642Y-118889781D02*
G01*
X110561414Y-118950162D01*
X110561416Y-118950163D01*
X110692608Y-119037822D01*
X110804178Y-119149392D01*
X110891837Y-119280584D01*
X110891838Y-119280586D01*
X110952219Y-119426358D01*
X110983000Y-119581107D01*
X110983000Y-119738893D01*
X110952219Y-119893642D01*
X110891838Y-120039414D01*
X110891837Y-120039416D01*
X110804178Y-120170608D01*
X110692608Y-120282178D01*
X110561416Y-120369837D01*
X110561415Y-120369838D01*
X110561414Y-120369838D01*
X110415642Y-120430219D01*
X110260893Y-120461000D01*
X110103107Y-120461000D01*
X109948358Y-120430219D01*
X109802586Y-120369838D01*
X109802585Y-120369838D01*
X109802584Y-120369837D01*
X109671392Y-120282178D01*
X109559822Y-120170608D01*
X109472163Y-120039416D01*
X109472162Y-120039414D01*
X109411781Y-119893642D01*
X109381000Y-119738893D01*
X109381000Y-119581107D01*
X109411781Y-119426358D01*
X109472162Y-119280586D01*
X109472163Y-119280584D01*
X109559822Y-119149392D01*
X109671392Y-119037822D01*
X109802584Y-118950163D01*
X109802586Y-118950162D01*
X109948358Y-118889781D01*
X110103107Y-118859000D01*
X110260893Y-118859000D01*
X110415642Y-118889781D01*
G37*
G36*
X112955642Y-118889781D02*
G01*
X113101414Y-118950162D01*
X113101416Y-118950163D01*
X113232608Y-119037822D01*
X113344178Y-119149392D01*
X113431837Y-119280584D01*
X113431838Y-119280586D01*
X113492219Y-119426358D01*
X113523000Y-119581107D01*
X113523000Y-119738893D01*
X113492219Y-119893642D01*
X113431838Y-120039414D01*
X113431837Y-120039416D01*
X113344178Y-120170608D01*
X113232608Y-120282178D01*
X113101416Y-120369837D01*
X113101415Y-120369838D01*
X113101414Y-120369838D01*
X112955642Y-120430219D01*
X112800893Y-120461000D01*
X112643107Y-120461000D01*
X112488358Y-120430219D01*
X112342586Y-120369838D01*
X112342585Y-120369838D01*
X112342584Y-120369837D01*
X112211392Y-120282178D01*
X112099822Y-120170608D01*
X112012163Y-120039416D01*
X112012162Y-120039414D01*
X111951781Y-119893642D01*
X111921000Y-119738893D01*
X111921000Y-119581107D01*
X111951781Y-119426358D01*
X112012162Y-119280586D01*
X112012163Y-119280584D01*
X112099822Y-119149392D01*
X112211392Y-119037822D01*
X112342584Y-118950163D01*
X112342586Y-118950162D01*
X112488358Y-118889781D01*
X112643107Y-118859000D01*
X112800893Y-118859000D01*
X112955642Y-118889781D01*
G37*
G36*
X105335642Y-118889781D02*
G01*
X105481414Y-118950162D01*
X105481416Y-118950163D01*
X105612608Y-119037822D01*
X105724178Y-119149392D01*
X105811837Y-119280584D01*
X105811838Y-119280586D01*
X105872219Y-119426358D01*
X105903000Y-119581107D01*
X105903000Y-119738893D01*
X105872219Y-119893642D01*
X105811838Y-120039414D01*
X105811837Y-120039416D01*
X105724178Y-120170608D01*
X105612608Y-120282178D01*
X105481416Y-120369837D01*
X105481415Y-120369838D01*
X105481414Y-120369838D01*
X105335642Y-120430219D01*
X105180893Y-120461000D01*
X105023107Y-120461000D01*
X104868358Y-120430219D01*
X104722586Y-120369838D01*
X104722585Y-120369838D01*
X104722584Y-120369837D01*
X104591392Y-120282178D01*
X104479822Y-120170608D01*
X104392163Y-120039416D01*
X104392162Y-120039414D01*
X104331781Y-119893642D01*
X104301000Y-119738893D01*
X104301000Y-119581107D01*
X104331781Y-119426358D01*
X104392162Y-119280586D01*
X104392163Y-119280584D01*
X104479822Y-119149392D01*
X104591392Y-119037822D01*
X104722584Y-118950163D01*
X104722586Y-118950162D01*
X104868358Y-118889781D01*
X105023107Y-118859000D01*
X105180893Y-118859000D01*
X105335642Y-118889781D01*
G37*
G36*
X144495642Y-116349781D02*
G01*
X144641414Y-116410162D01*
X144641416Y-116410163D01*
X144772608Y-116497822D01*
X144884178Y-116609392D01*
X144971837Y-116740584D01*
X144971838Y-116740586D01*
X145032219Y-116886358D01*
X145063000Y-117041107D01*
X145063000Y-117198893D01*
X145032219Y-117353642D01*
X144971838Y-117499414D01*
X144971837Y-117499416D01*
X144884178Y-117630608D01*
X144772608Y-117742178D01*
X144641416Y-117829837D01*
X144641415Y-117829838D01*
X144641414Y-117829838D01*
X144495642Y-117890219D01*
X144340893Y-117921000D01*
X144183107Y-117921000D01*
X144028358Y-117890219D01*
X143882586Y-117829838D01*
X143882585Y-117829838D01*
X143882584Y-117829837D01*
X143751392Y-117742178D01*
X143639822Y-117630608D01*
X143552163Y-117499416D01*
X143552162Y-117499414D01*
X143491781Y-117353642D01*
X143461000Y-117198893D01*
X143461000Y-117041107D01*
X143491781Y-116886358D01*
X143552162Y-116740586D01*
X143552163Y-116740584D01*
X143639822Y-116609392D01*
X143751392Y-116497822D01*
X143882584Y-116410163D01*
X143882586Y-116410162D01*
X144028358Y-116349781D01*
X144183107Y-116319000D01*
X144340893Y-116319000D01*
X144495642Y-116349781D01*
G37*
G36*
X114793000Y-117921000D02*
G01*
X113191000Y-117921000D01*
X113191000Y-116319000D01*
X114793000Y-116319000D01*
X114793000Y-117921000D01*
G37*
G36*
X147035642Y-116349781D02*
G01*
X147181414Y-116410162D01*
X147181416Y-116410163D01*
X147312608Y-116497822D01*
X147424178Y-116609392D01*
X147511837Y-116740584D01*
X147511838Y-116740586D01*
X147572219Y-116886358D01*
X147603000Y-117041107D01*
X147603000Y-117198893D01*
X147572219Y-117353642D01*
X147511838Y-117499414D01*
X147511837Y-117499416D01*
X147424178Y-117630608D01*
X147312608Y-117742178D01*
X147181416Y-117829837D01*
X147181415Y-117829838D01*
X147181414Y-117829838D01*
X147035642Y-117890219D01*
X146880893Y-117921000D01*
X146723107Y-117921000D01*
X146568358Y-117890219D01*
X146422586Y-117829838D01*
X146422585Y-117829838D01*
X146422584Y-117829837D01*
X146291392Y-117742178D01*
X146179822Y-117630608D01*
X146092163Y-117499416D01*
X146092162Y-117499414D01*
X146031781Y-117353642D01*
X146001000Y-117198893D01*
X146001000Y-117041107D01*
X146031781Y-116886358D01*
X146092162Y-116740586D01*
X146092163Y-116740584D01*
X146179822Y-116609392D01*
X146291392Y-116497822D01*
X146422584Y-116410163D01*
X146422586Y-116410162D01*
X146568358Y-116349781D01*
X146723107Y-116319000D01*
X146880893Y-116319000D01*
X147035642Y-116349781D01*
G37*
G36*
X149575642Y-116349781D02*
G01*
X149721414Y-116410162D01*
X149721416Y-116410163D01*
X149852608Y-116497822D01*
X149964178Y-116609392D01*
X150051837Y-116740584D01*
X150051838Y-116740586D01*
X150112219Y-116886358D01*
X150143000Y-117041107D01*
X150143000Y-117198893D01*
X150112219Y-117353642D01*
X150051838Y-117499414D01*
X150051837Y-117499416D01*
X149964178Y-117630608D01*
X149852608Y-117742178D01*
X149721416Y-117829837D01*
X149721415Y-117829838D01*
X149721414Y-117829838D01*
X149575642Y-117890219D01*
X149420893Y-117921000D01*
X149263107Y-117921000D01*
X149108358Y-117890219D01*
X148962586Y-117829838D01*
X148962585Y-117829838D01*
X148962584Y-117829837D01*
X148831392Y-117742178D01*
X148719822Y-117630608D01*
X148632163Y-117499416D01*
X148632162Y-117499414D01*
X148571781Y-117353642D01*
X148541000Y-117198893D01*
X148541000Y-117041107D01*
X148571781Y-116886358D01*
X148632162Y-116740586D01*
X148632163Y-116740584D01*
X148719822Y-116609392D01*
X148831392Y-116497822D01*
X148962584Y-116410163D01*
X148962586Y-116410162D01*
X149108358Y-116349781D01*
X149263107Y-116319000D01*
X149420893Y-116319000D01*
X149575642Y-116349781D01*
G37*
G36*
X152683000Y-117921000D02*
G01*
X151081000Y-117921000D01*
X151081000Y-116319000D01*
X152683000Y-116319000D01*
X152683000Y-117921000D01*
G37*
G36*
X109145642Y-116349781D02*
G01*
X109291414Y-116410162D01*
X109291416Y-116410163D01*
X109422608Y-116497822D01*
X109534178Y-116609392D01*
X109621837Y-116740584D01*
X109621838Y-116740586D01*
X109682219Y-116886358D01*
X109713000Y-117041107D01*
X109713000Y-117198893D01*
X109682219Y-117353642D01*
X109621838Y-117499414D01*
X109621837Y-117499416D01*
X109534178Y-117630608D01*
X109422608Y-117742178D01*
X109291416Y-117829837D01*
X109291415Y-117829838D01*
X109291414Y-117829838D01*
X109145642Y-117890219D01*
X108990893Y-117921000D01*
X108833107Y-117921000D01*
X108678358Y-117890219D01*
X108532586Y-117829838D01*
X108532585Y-117829838D01*
X108532584Y-117829837D01*
X108401392Y-117742178D01*
X108289822Y-117630608D01*
X108202163Y-117499416D01*
X108202162Y-117499414D01*
X108141781Y-117353642D01*
X108111000Y-117198893D01*
X108111000Y-117041107D01*
X108141781Y-116886358D01*
X108202162Y-116740586D01*
X108202163Y-116740584D01*
X108289822Y-116609392D01*
X108401392Y-116497822D01*
X108532584Y-116410163D01*
X108532586Y-116410162D01*
X108678358Y-116349781D01*
X108833107Y-116319000D01*
X108990893Y-116319000D01*
X109145642Y-116349781D01*
G37*
G36*
X106605642Y-116349781D02*
G01*
X106751414Y-116410162D01*
X106751416Y-116410163D01*
X106882608Y-116497822D01*
X106994178Y-116609392D01*
X107081837Y-116740584D01*
X107081838Y-116740586D01*
X107142219Y-116886358D01*
X107173000Y-117041107D01*
X107173000Y-117198893D01*
X107142219Y-117353642D01*
X107081838Y-117499414D01*
X107081837Y-117499416D01*
X106994178Y-117630608D01*
X106882608Y-117742178D01*
X106751416Y-117829837D01*
X106751415Y-117829838D01*
X106751414Y-117829838D01*
X106605642Y-117890219D01*
X106450893Y-117921000D01*
X106293107Y-117921000D01*
X106138358Y-117890219D01*
X105992586Y-117829838D01*
X105992585Y-117829838D01*
X105992584Y-117829837D01*
X105861392Y-117742178D01*
X105749822Y-117630608D01*
X105662163Y-117499416D01*
X105662162Y-117499414D01*
X105601781Y-117353642D01*
X105571000Y-117198893D01*
X105571000Y-117041107D01*
X105601781Y-116886358D01*
X105662162Y-116740586D01*
X105662163Y-116740584D01*
X105749822Y-116609392D01*
X105861392Y-116497822D01*
X105992584Y-116410163D01*
X105992586Y-116410162D01*
X106138358Y-116349781D01*
X106293107Y-116319000D01*
X106450893Y-116319000D01*
X106605642Y-116349781D01*
G37*
G36*
X111685642Y-116349781D02*
G01*
X111831414Y-116410162D01*
X111831416Y-116410163D01*
X111962608Y-116497822D01*
X112074178Y-116609392D01*
X112161837Y-116740584D01*
X112161838Y-116740586D01*
X112222219Y-116886358D01*
X112253000Y-117041107D01*
X112253000Y-117198893D01*
X112222219Y-117353642D01*
X112161838Y-117499414D01*
X112161837Y-117499416D01*
X112074178Y-117630608D01*
X111962608Y-117742178D01*
X111831416Y-117829837D01*
X111831415Y-117829838D01*
X111831414Y-117829838D01*
X111685642Y-117890219D01*
X111530893Y-117921000D01*
X111373107Y-117921000D01*
X111218358Y-117890219D01*
X111072586Y-117829838D01*
X111072585Y-117829838D01*
X111072584Y-117829837D01*
X110941392Y-117742178D01*
X110829822Y-117630608D01*
X110742163Y-117499416D01*
X110742162Y-117499414D01*
X110681781Y-117353642D01*
X110651000Y-117198893D01*
X110651000Y-117041107D01*
X110681781Y-116886358D01*
X110742162Y-116740586D01*
X110742163Y-116740584D01*
X110829822Y-116609392D01*
X110941392Y-116497822D01*
X111072584Y-116410163D01*
X111072586Y-116410162D01*
X111218358Y-116349781D01*
X111373107Y-116319000D01*
X111530893Y-116319000D01*
X111685642Y-116349781D01*
G37*
G36*
X95977256Y-110973298D02*
G01*
X96083579Y-110994447D01*
X96384042Y-111118903D01*
X96654451Y-111299585D01*
X96884415Y-111529549D01*
X97065097Y-111799958D01*
X97189553Y-112100421D01*
X97253000Y-112419391D01*
X97253000Y-112744609D01*
X97189553Y-113063579D01*
X97065097Y-113364042D01*
X96884415Y-113634451D01*
X96654451Y-113864415D01*
X96384042Y-114045097D01*
X96083579Y-114169553D01*
X95977256Y-114190702D01*
X95764611Y-114233000D01*
X95439389Y-114233000D01*
X95226744Y-114190702D01*
X95120421Y-114169553D01*
X94819958Y-114045097D01*
X94549549Y-113864415D01*
X94319585Y-113634451D01*
X94138903Y-113364042D01*
X94014447Y-113063579D01*
X93951000Y-112744609D01*
X93951000Y-112419391D01*
X94014447Y-112100421D01*
X94138903Y-111799958D01*
X94319585Y-111529549D01*
X94549549Y-111299585D01*
X94819958Y-111118903D01*
X95120421Y-110994447D01*
X95226744Y-110973298D01*
X95439389Y-110931000D01*
X95764611Y-110931000D01*
X95977256Y-110973298D01*
G37*
G36*
X161757256Y-110973298D02*
G01*
X161863579Y-110994447D01*
X162164042Y-111118903D01*
X162434451Y-111299585D01*
X162664415Y-111529549D01*
X162845097Y-111799958D01*
X162969553Y-112100421D01*
X163033000Y-112419391D01*
X163033000Y-112744609D01*
X162969553Y-113063579D01*
X162845097Y-113364042D01*
X162664415Y-113634451D01*
X162434451Y-113864415D01*
X162164042Y-114045097D01*
X161863579Y-114169553D01*
X161757256Y-114190702D01*
X161544611Y-114233000D01*
X161219389Y-114233000D01*
X161006744Y-114190702D01*
X160900421Y-114169553D01*
X160599958Y-114045097D01*
X160329549Y-113864415D01*
X160099585Y-113634451D01*
X159918903Y-113364042D01*
X159794447Y-113063579D01*
X159731000Y-112744609D01*
X159731000Y-112419391D01*
X159794447Y-112100421D01*
X159918903Y-111799958D01*
X160099585Y-111529549D01*
X160329549Y-111299585D01*
X160599958Y-111118903D01*
X160900421Y-110994447D01*
X161006744Y-110973298D01*
X161219389Y-110931000D01*
X161544611Y-110931000D01*
X161757256Y-110973298D01*
G37*
G36*
X133867256Y-110973298D02*
G01*
X133973579Y-110994447D01*
X134274042Y-111118903D01*
X134544451Y-111299585D01*
X134774415Y-111529549D01*
X134955097Y-111799958D01*
X135079553Y-112100421D01*
X135143000Y-112419391D01*
X135143000Y-112744609D01*
X135079553Y-113063579D01*
X134955097Y-113364042D01*
X134774415Y-113634451D01*
X134544451Y-113864415D01*
X134274042Y-114045097D01*
X133973579Y-114169553D01*
X133867256Y-114190702D01*
X133654611Y-114233000D01*
X133329389Y-114233000D01*
X133116744Y-114190702D01*
X133010421Y-114169553D01*
X132709958Y-114045097D01*
X132439549Y-113864415D01*
X132209585Y-113634451D01*
X132028903Y-113364042D01*
X131904447Y-113063579D01*
X131841000Y-112744609D01*
X131841000Y-112419391D01*
X131904447Y-112100421D01*
X132028903Y-111799958D01*
X132209585Y-111529549D01*
X132439549Y-111299585D01*
X132709958Y-111118903D01*
X133010421Y-110994447D01*
X133116744Y-110973298D01*
X133329389Y-110931000D01*
X133654611Y-110931000D01*
X133867256Y-110973298D01*
G37*
G36*
X123867256Y-110973298D02*
G01*
X123973579Y-110994447D01*
X124274042Y-111118903D01*
X124544451Y-111299585D01*
X124774415Y-111529549D01*
X124955097Y-111799958D01*
X125079553Y-112100421D01*
X125143000Y-112419391D01*
X125143000Y-112744609D01*
X125079553Y-113063579D01*
X124955097Y-113364042D01*
X124774415Y-113634451D01*
X124544451Y-113864415D01*
X124274042Y-114045097D01*
X123973579Y-114169553D01*
X123867256Y-114190702D01*
X123654611Y-114233000D01*
X123329389Y-114233000D01*
X123116744Y-114190702D01*
X123010421Y-114169553D01*
X122709958Y-114045097D01*
X122439549Y-113864415D01*
X122209585Y-113634451D01*
X122028903Y-113364042D01*
X121904447Y-113063579D01*
X121841000Y-112744609D01*
X121841000Y-112419391D01*
X121904447Y-112100421D01*
X122028903Y-111799958D01*
X122209585Y-111529549D01*
X122439549Y-111299585D01*
X122709958Y-111118903D01*
X123010421Y-110994447D01*
X123116744Y-110973298D01*
X123329389Y-110931000D01*
X123654611Y-110931000D01*
X123867256Y-110973298D01*
G37*
G36*
X153699208Y-108966093D02*
G01*
X154040617Y-109107510D01*
X154040619Y-109107511D01*
X154347880Y-109312816D01*
X154609184Y-109574120D01*
X154814490Y-109881383D01*
X154955907Y-110222792D01*
X155028000Y-110585229D01*
X155028000Y-110954771D01*
X154955907Y-111317208D01*
X154867952Y-111529549D01*
X154814489Y-111658619D01*
X154609184Y-111965880D01*
X154347880Y-112227184D01*
X154040619Y-112432489D01*
X154040618Y-112432490D01*
X154040617Y-112432490D01*
X153699208Y-112573907D01*
X153336771Y-112646000D01*
X152967229Y-112646000D01*
X152604792Y-112573907D01*
X152263383Y-112432490D01*
X152263382Y-112432490D01*
X152263381Y-112432489D01*
X151956120Y-112227184D01*
X151694816Y-111965880D01*
X151489511Y-111658619D01*
X151436048Y-111529549D01*
X151348093Y-111317208D01*
X151276000Y-110954771D01*
X151276000Y-110585229D01*
X151348093Y-110222792D01*
X151489510Y-109881383D01*
X151694816Y-109574120D01*
X151956120Y-109312816D01*
X152263381Y-109107511D01*
X152263383Y-109107510D01*
X152604792Y-108966093D01*
X152967229Y-108894000D01*
X153336771Y-108894000D01*
X153699208Y-108966093D01*
G37*
G36*
X142269208Y-108966093D02*
G01*
X142610617Y-109107510D01*
X142610619Y-109107511D01*
X142917880Y-109312816D01*
X143179184Y-109574120D01*
X143384490Y-109881383D01*
X143525907Y-110222792D01*
X143598000Y-110585229D01*
X143598000Y-110954771D01*
X143525907Y-111317208D01*
X143437952Y-111529549D01*
X143384489Y-111658619D01*
X143179184Y-111965880D01*
X142917880Y-112227184D01*
X142610619Y-112432489D01*
X142610618Y-112432490D01*
X142610617Y-112432490D01*
X142269208Y-112573907D01*
X141906771Y-112646000D01*
X141537229Y-112646000D01*
X141174792Y-112573907D01*
X140833383Y-112432490D01*
X140833382Y-112432490D01*
X140833381Y-112432489D01*
X140526120Y-112227184D01*
X140264816Y-111965880D01*
X140059511Y-111658619D01*
X140006048Y-111529549D01*
X139918093Y-111317208D01*
X139846000Y-110954771D01*
X139846000Y-110585229D01*
X139918093Y-110222792D01*
X140059510Y-109881383D01*
X140264816Y-109574120D01*
X140526120Y-109312816D01*
X140833381Y-109107511D01*
X140833383Y-109107510D01*
X141174792Y-108966093D01*
X141537229Y-108894000D01*
X141906771Y-108894000D01*
X142269208Y-108966093D01*
G37*
G36*
X104379208Y-108966093D02*
G01*
X104720617Y-109107510D01*
X104720619Y-109107511D01*
X105027880Y-109312816D01*
X105289184Y-109574120D01*
X105494490Y-109881383D01*
X105635907Y-110222792D01*
X105708000Y-110585229D01*
X105708000Y-110954771D01*
X105635907Y-111317208D01*
X105547952Y-111529549D01*
X105494489Y-111658619D01*
X105289184Y-111965880D01*
X105027880Y-112227184D01*
X104720619Y-112432489D01*
X104720618Y-112432490D01*
X104720617Y-112432490D01*
X104379208Y-112573907D01*
X104016771Y-112646000D01*
X103647229Y-112646000D01*
X103284792Y-112573907D01*
X102943383Y-112432490D01*
X102943382Y-112432490D01*
X102943381Y-112432489D01*
X102636120Y-112227184D01*
X102374816Y-111965880D01*
X102169511Y-111658619D01*
X102116048Y-111529549D01*
X102028093Y-111317208D01*
X101956000Y-110954771D01*
X101956000Y-110585229D01*
X102028093Y-110222792D01*
X102169510Y-109881383D01*
X102374816Y-109574120D01*
X102636120Y-109312816D01*
X102943381Y-109107511D01*
X102943383Y-109107510D01*
X103284792Y-108966093D01*
X103647229Y-108894000D01*
X104016771Y-108894000D01*
X104379208Y-108966093D01*
G37*
G36*
X115809208Y-108966093D02*
G01*
X116150617Y-109107510D01*
X116150619Y-109107511D01*
X116457880Y-109312816D01*
X116719184Y-109574120D01*
X116924490Y-109881383D01*
X117065907Y-110222792D01*
X117138000Y-110585229D01*
X117138000Y-110954771D01*
X117065907Y-111317208D01*
X116977952Y-111529549D01*
X116924489Y-111658619D01*
X116719184Y-111965880D01*
X116457880Y-112227184D01*
X116150619Y-112432489D01*
X116150618Y-112432490D01*
X116150617Y-112432490D01*
X115809208Y-112573907D01*
X115446771Y-112646000D01*
X115077229Y-112646000D01*
X114714792Y-112573907D01*
X114373383Y-112432490D01*
X114373382Y-112432490D01*
X114373381Y-112432489D01*
X114066120Y-112227184D01*
X113804816Y-111965880D01*
X113599511Y-111658619D01*
X113546048Y-111529549D01*
X113458093Y-111317208D01*
X113386000Y-110954771D01*
X113386000Y-110585229D01*
X113458093Y-110222792D01*
X113599510Y-109881383D01*
X113804816Y-109574120D01*
X114066120Y-109312816D01*
X114373381Y-109107511D01*
X114373383Y-109107510D01*
X114714792Y-108966093D01*
X115077229Y-108894000D01*
X115446771Y-108894000D01*
X115809208Y-108966093D01*
G37*
G36*
X151236000Y-102170000D02*
G01*
X149334000Y-102170000D01*
X149334000Y-100268000D01*
X151236000Y-100268000D01*
X151236000Y-102170000D01*
G37*
G36*
X113346000Y-102170000D02*
G01*
X111444000Y-102170000D01*
X111444000Y-100268000D01*
X113346000Y-100268000D01*
X113346000Y-102170000D01*
G37*
G36*
X155076059Y-100623860D02*
G01*
X155212732Y-100680472D01*
X155335735Y-100762660D01*
X155440340Y-100867265D01*
X155522528Y-100990268D01*
X155579140Y-101126941D01*
X155608000Y-101272033D01*
X155608000Y-101419967D01*
X155579140Y-101565059D01*
X155522528Y-101701732D01*
X155440340Y-101824735D01*
X155335735Y-101929340D01*
X155212732Y-102011528D01*
X155212731Y-102011529D01*
X155212730Y-102011529D01*
X155076059Y-102068140D01*
X154930968Y-102097000D01*
X154783032Y-102097000D01*
X154637941Y-102068140D01*
X154501270Y-102011529D01*
X154501269Y-102011529D01*
X154501268Y-102011528D01*
X154378265Y-101929340D01*
X154273660Y-101824735D01*
X154191472Y-101701732D01*
X154134860Y-101565059D01*
X154106000Y-101419967D01*
X154106000Y-101272033D01*
X154134860Y-101126941D01*
X154191472Y-100990268D01*
X154273660Y-100867265D01*
X154378265Y-100762660D01*
X154501268Y-100680472D01*
X154637941Y-100623860D01*
X154783032Y-100595000D01*
X154930968Y-100595000D01*
X155076059Y-100623860D01*
G37*
G36*
X117186059Y-100623860D02*
G01*
X117322732Y-100680472D01*
X117445735Y-100762660D01*
X117550340Y-100867265D01*
X117632528Y-100990268D01*
X117689140Y-101126941D01*
X117718000Y-101272033D01*
X117718000Y-101419967D01*
X117689140Y-101565059D01*
X117632528Y-101701732D01*
X117550340Y-101824735D01*
X117445735Y-101929340D01*
X117322732Y-102011528D01*
X117322731Y-102011529D01*
X117322730Y-102011529D01*
X117186059Y-102068140D01*
X117040968Y-102097000D01*
X116893032Y-102097000D01*
X116747941Y-102068140D01*
X116611270Y-102011529D01*
X116611269Y-102011529D01*
X116611268Y-102011528D01*
X116488265Y-101929340D01*
X116383660Y-101824735D01*
X116301472Y-101701732D01*
X116244860Y-101565059D01*
X116216000Y-101419967D01*
X116216000Y-101272033D01*
X116244860Y-101126941D01*
X116301472Y-100990268D01*
X116383660Y-100867265D01*
X116488265Y-100762660D01*
X116611268Y-100680472D01*
X116747941Y-100623860D01*
X116893032Y-100595000D01*
X117040968Y-100595000D01*
X117186059Y-100623860D01*
G37*
G36*
X123798416Y-98571879D02*
G01*
X123989592Y-98651067D01*
X123989594Y-98651068D01*
X124161648Y-98766031D01*
X124307969Y-98912352D01*
X124383278Y-99025059D01*
X124422933Y-99084408D01*
X124502121Y-99275584D01*
X124542490Y-99478534D01*
X124542490Y-99685466D01*
X124502121Y-99888416D01*
X124422933Y-100079592D01*
X124422932Y-100079594D01*
X124307969Y-100251648D01*
X124161648Y-100397969D01*
X123989594Y-100512932D01*
X123989593Y-100512933D01*
X123989592Y-100512933D01*
X123798416Y-100592121D01*
X123595466Y-100632490D01*
X123388534Y-100632490D01*
X123185584Y-100592121D01*
X122994408Y-100512933D01*
X122994407Y-100512933D01*
X122994406Y-100512932D01*
X122822352Y-100397969D01*
X122676031Y-100251648D01*
X122561068Y-100079594D01*
X122561067Y-100079592D01*
X122481879Y-99888416D01*
X122441510Y-99685466D01*
X122441510Y-99478534D01*
X122481879Y-99275584D01*
X122561067Y-99084408D01*
X122600723Y-99025059D01*
X122676031Y-98912352D01*
X122822352Y-98766031D01*
X122994406Y-98651068D01*
X122994408Y-98651067D01*
X123185584Y-98571879D01*
X123388534Y-98531510D01*
X123595466Y-98531510D01*
X123798416Y-98571879D01*
G37*
G36*
X95908416Y-98571879D02*
G01*
X96099592Y-98651067D01*
X96099594Y-98651068D01*
X96271648Y-98766031D01*
X96417969Y-98912352D01*
X96493278Y-99025059D01*
X96532933Y-99084408D01*
X96612121Y-99275584D01*
X96652490Y-99478534D01*
X96652490Y-99685466D01*
X96612121Y-99888416D01*
X96532933Y-100079592D01*
X96532932Y-100079594D01*
X96417969Y-100251648D01*
X96271648Y-100397969D01*
X96099594Y-100512932D01*
X96099593Y-100512933D01*
X96099592Y-100512933D01*
X95908416Y-100592121D01*
X95705466Y-100632490D01*
X95498534Y-100632490D01*
X95295584Y-100592121D01*
X95104408Y-100512933D01*
X95104407Y-100512933D01*
X95104406Y-100512932D01*
X94932352Y-100397969D01*
X94786031Y-100251648D01*
X94671068Y-100079594D01*
X94671067Y-100079592D01*
X94591879Y-99888416D01*
X94551510Y-99685466D01*
X94551510Y-99478534D01*
X94591879Y-99275584D01*
X94671067Y-99084408D01*
X94710723Y-99025059D01*
X94786031Y-98912352D01*
X94932352Y-98766031D01*
X95104406Y-98651068D01*
X95104408Y-98651067D01*
X95295584Y-98571879D01*
X95498534Y-98531510D01*
X95705466Y-98531510D01*
X95908416Y-98571879D01*
G37*
G36*
X133798416Y-98571879D02*
G01*
X133989592Y-98651067D01*
X133989594Y-98651068D01*
X134161648Y-98766031D01*
X134307969Y-98912352D01*
X134383278Y-99025059D01*
X134422933Y-99084408D01*
X134502121Y-99275584D01*
X134542490Y-99478534D01*
X134542490Y-99685466D01*
X134502121Y-99888416D01*
X134422933Y-100079592D01*
X134422932Y-100079594D01*
X134307969Y-100251648D01*
X134161648Y-100397969D01*
X133989594Y-100512932D01*
X133989593Y-100512933D01*
X133989592Y-100512933D01*
X133798416Y-100592121D01*
X133595466Y-100632490D01*
X133388534Y-100632490D01*
X133185584Y-100592121D01*
X132994408Y-100512933D01*
X132994407Y-100512933D01*
X132994406Y-100512932D01*
X132822352Y-100397969D01*
X132676031Y-100251648D01*
X132561068Y-100079594D01*
X132561067Y-100079592D01*
X132481879Y-99888416D01*
X132441510Y-99685466D01*
X132441510Y-99478534D01*
X132481879Y-99275584D01*
X132561067Y-99084408D01*
X132600723Y-99025059D01*
X132676031Y-98912352D01*
X132822352Y-98766031D01*
X132994406Y-98651068D01*
X132994408Y-98651067D01*
X133185584Y-98571879D01*
X133388534Y-98531510D01*
X133595466Y-98531510D01*
X133798416Y-98571879D01*
G37*
G36*
X161688416Y-98571879D02*
G01*
X161879592Y-98651067D01*
X161879594Y-98651068D01*
X162051648Y-98766031D01*
X162197969Y-98912352D01*
X162273278Y-99025059D01*
X162312933Y-99084408D01*
X162392121Y-99275584D01*
X162432490Y-99478534D01*
X162432490Y-99685466D01*
X162392121Y-99888416D01*
X162312933Y-100079592D01*
X162312932Y-100079594D01*
X162197969Y-100251648D01*
X162051648Y-100397969D01*
X161879594Y-100512932D01*
X161879593Y-100512933D01*
X161879592Y-100512933D01*
X161688416Y-100592121D01*
X161485466Y-100632490D01*
X161278534Y-100632490D01*
X161075584Y-100592121D01*
X160884408Y-100512933D01*
X160884407Y-100512933D01*
X160884406Y-100512932D01*
X160712352Y-100397969D01*
X160566031Y-100251648D01*
X160451068Y-100079594D01*
X160451067Y-100079592D01*
X160371879Y-99888416D01*
X160331510Y-99685466D01*
X160331510Y-99478534D01*
X160371879Y-99275584D01*
X160451067Y-99084408D01*
X160490723Y-99025059D01*
X160566031Y-98912352D01*
X160712352Y-98766031D01*
X160884406Y-98651068D01*
X160884408Y-98651067D01*
X161075584Y-98571879D01*
X161278534Y-98531510D01*
X161485466Y-98531510D01*
X161688416Y-98571879D01*
G37*
G36*
X150562395Y-97764546D02*
G01*
X150735466Y-97836234D01*
X150735467Y-97836235D01*
X150891227Y-97940310D01*
X151023690Y-98072773D01*
X151023691Y-98072775D01*
X151127766Y-98228534D01*
X151199454Y-98401605D01*
X151236000Y-98585333D01*
X151236000Y-98772667D01*
X151199454Y-98956395D01*
X151127766Y-99129466D01*
X151076081Y-99206818D01*
X151023690Y-99285227D01*
X150891227Y-99417690D01*
X150812818Y-99470081D01*
X150735466Y-99521766D01*
X150562395Y-99593454D01*
X150378667Y-99630000D01*
X150191333Y-99630000D01*
X150007605Y-99593454D01*
X149834534Y-99521766D01*
X149757182Y-99470081D01*
X149678773Y-99417690D01*
X149546310Y-99285227D01*
X149493919Y-99206818D01*
X149442234Y-99129466D01*
X149370546Y-98956395D01*
X149334000Y-98772667D01*
X149334000Y-98585333D01*
X149370546Y-98401605D01*
X149442234Y-98228534D01*
X149546309Y-98072775D01*
X149546310Y-98072773D01*
X149678773Y-97940310D01*
X149834533Y-97836235D01*
X149834534Y-97836234D01*
X150007605Y-97764546D01*
X150191333Y-97728000D01*
X150378667Y-97728000D01*
X150562395Y-97764546D01*
G37*
G36*
X112672395Y-97764546D02*
G01*
X112845466Y-97836234D01*
X112845467Y-97836235D01*
X113001227Y-97940310D01*
X113133690Y-98072773D01*
X113133691Y-98072775D01*
X113237766Y-98228534D01*
X113309454Y-98401605D01*
X113346000Y-98585333D01*
X113346000Y-98772667D01*
X113309454Y-98956395D01*
X113237766Y-99129466D01*
X113186081Y-99206818D01*
X113133690Y-99285227D01*
X113001227Y-99417690D01*
X112922818Y-99470081D01*
X112845466Y-99521766D01*
X112672395Y-99593454D01*
X112488667Y-99630000D01*
X112301333Y-99630000D01*
X112117605Y-99593454D01*
X111944534Y-99521766D01*
X111867182Y-99470081D01*
X111788773Y-99417690D01*
X111656310Y-99285227D01*
X111603919Y-99206818D01*
X111552234Y-99129466D01*
X111480546Y-98956395D01*
X111444000Y-98772667D01*
X111444000Y-98585333D01*
X111480546Y-98401605D01*
X111552234Y-98228534D01*
X111656309Y-98072775D01*
X111656310Y-98072773D01*
X111788773Y-97940310D01*
X111944533Y-97836235D01*
X111944534Y-97836234D01*
X112117605Y-97764546D01*
X112301333Y-97728000D01*
X112488667Y-97728000D01*
X112672395Y-97764546D01*
G37*
G36*
X117130320Y-98072773D02*
G01*
X117186059Y-98083860D01*
X117322732Y-98140472D01*
X117445735Y-98222660D01*
X117550340Y-98327265D01*
X117600012Y-98401605D01*
X117632529Y-98450270D01*
X117689140Y-98586941D01*
X117718000Y-98732032D01*
X117718000Y-98879968D01*
X117702798Y-98956395D01*
X117689140Y-99025059D01*
X117632528Y-99161732D01*
X117550340Y-99284735D01*
X117445735Y-99389340D01*
X117322732Y-99471528D01*
X117322731Y-99471529D01*
X117322730Y-99471529D01*
X117186059Y-99528140D01*
X117040968Y-99557000D01*
X116893032Y-99557000D01*
X116747941Y-99528140D01*
X116611270Y-99471529D01*
X116611269Y-99471529D01*
X116611268Y-99471528D01*
X116488265Y-99389340D01*
X116383660Y-99284735D01*
X116301472Y-99161732D01*
X116244860Y-99025059D01*
X116231202Y-98956395D01*
X116216000Y-98879968D01*
X116216000Y-98732032D01*
X116244860Y-98586941D01*
X116301471Y-98450270D01*
X116333988Y-98401605D01*
X116383660Y-98327265D01*
X116488265Y-98222660D01*
X116611268Y-98140472D01*
X116747941Y-98083860D01*
X116803680Y-98072773D01*
X116893032Y-98055000D01*
X117040968Y-98055000D01*
X117130320Y-98072773D01*
G37*
G36*
X155020320Y-98072773D02*
G01*
X155076059Y-98083860D01*
X155212732Y-98140472D01*
X155335735Y-98222660D01*
X155440340Y-98327265D01*
X155490012Y-98401605D01*
X155522529Y-98450270D01*
X155579140Y-98586941D01*
X155608000Y-98732032D01*
X155608000Y-98879968D01*
X155592798Y-98956395D01*
X155579140Y-99025059D01*
X155522528Y-99161732D01*
X155440340Y-99284735D01*
X155335735Y-99389340D01*
X155212732Y-99471528D01*
X155212731Y-99471529D01*
X155212730Y-99471529D01*
X155076059Y-99528140D01*
X154930968Y-99557000D01*
X154783032Y-99557000D01*
X154637941Y-99528140D01*
X154501270Y-99471529D01*
X154501269Y-99471529D01*
X154501268Y-99471528D01*
X154378265Y-99389340D01*
X154273660Y-99284735D01*
X154191472Y-99161732D01*
X154134860Y-99025059D01*
X154121202Y-98956395D01*
X154106000Y-98879968D01*
X154106000Y-98732032D01*
X154134860Y-98586941D01*
X154191471Y-98450270D01*
X154223988Y-98401605D01*
X154273660Y-98327265D01*
X154378265Y-98222660D01*
X154501268Y-98140472D01*
X154637941Y-98083860D01*
X154693680Y-98072773D01*
X154783032Y-98055000D01*
X154930968Y-98055000D01*
X155020320Y-98072773D01*
G37*
G36*
X145132903Y-96968075D02*
G01*
X145360571Y-97062378D01*
X145565466Y-97199285D01*
X145739715Y-97373534D01*
X145739716Y-97373536D01*
X145876623Y-97578431D01*
X145970925Y-97806097D01*
X146019000Y-98047786D01*
X146019000Y-98294214D01*
X145970925Y-98535903D01*
X145889686Y-98732033D01*
X145876622Y-98763571D01*
X145739715Y-98968466D01*
X145565466Y-99142715D01*
X145360571Y-99279622D01*
X145360570Y-99279623D01*
X145360569Y-99279623D01*
X145132903Y-99373925D01*
X144891214Y-99422000D01*
X144644786Y-99422000D01*
X144403097Y-99373925D01*
X144175431Y-99279623D01*
X144175430Y-99279623D01*
X144175429Y-99279622D01*
X143970534Y-99142715D01*
X143796285Y-98968466D01*
X143659378Y-98763571D01*
X143646315Y-98732033D01*
X143565075Y-98535903D01*
X143517000Y-98294214D01*
X143517000Y-98047786D01*
X143565075Y-97806097D01*
X143659377Y-97578431D01*
X143796284Y-97373536D01*
X143796285Y-97373534D01*
X143970534Y-97199285D01*
X144175429Y-97062378D01*
X144403097Y-96968075D01*
X144644786Y-96920000D01*
X144891214Y-96920000D01*
X145132903Y-96968075D01*
G37*
G36*
X142519000Y-99422000D02*
G01*
X140017000Y-99422000D01*
X140017000Y-96920000D01*
X142519000Y-96920000D01*
X142519000Y-99422000D01*
G37*
G36*
X107242903Y-96968075D02*
G01*
X107470571Y-97062378D01*
X107675466Y-97199285D01*
X107849715Y-97373534D01*
X107849716Y-97373536D01*
X107986623Y-97578431D01*
X108080925Y-97806097D01*
X108129000Y-98047786D01*
X108129000Y-98294214D01*
X108080925Y-98535903D01*
X107999686Y-98732033D01*
X107986622Y-98763571D01*
X107849715Y-98968466D01*
X107675466Y-99142715D01*
X107470571Y-99279622D01*
X107470570Y-99279623D01*
X107470569Y-99279623D01*
X107242903Y-99373925D01*
X107001214Y-99422000D01*
X106754786Y-99422000D01*
X106513097Y-99373925D01*
X106285431Y-99279623D01*
X106285430Y-99279623D01*
X106285429Y-99279622D01*
X106080534Y-99142715D01*
X105906285Y-98968466D01*
X105769378Y-98763571D01*
X105756315Y-98732033D01*
X105675075Y-98535903D01*
X105627000Y-98294214D01*
X105627000Y-98047786D01*
X105675075Y-97806097D01*
X105769377Y-97578431D01*
X105906284Y-97373536D01*
X105906285Y-97373534D01*
X106080534Y-97199285D01*
X106285429Y-97062378D01*
X106513097Y-96968075D01*
X106754786Y-96920000D01*
X107001214Y-96920000D01*
X107242903Y-96968075D01*
G37*
G36*
X104629000Y-99422000D02*
G01*
X102127000Y-99422000D01*
X102127000Y-96920000D01*
X104629000Y-96920000D01*
X104629000Y-99422000D01*
G37*
G36*
X150279228Y-94685703D02*
G01*
X150434100Y-94749853D01*
X150573481Y-94842985D01*
X150692015Y-94961519D01*
X150785147Y-95100900D01*
X150849297Y-95255772D01*
X150882000Y-95420184D01*
X150882000Y-95587816D01*
X150849297Y-95752228D01*
X150785147Y-95907100D01*
X150692015Y-96046481D01*
X150573481Y-96165015D01*
X150434100Y-96258147D01*
X150279228Y-96322297D01*
X150114816Y-96355000D01*
X149947184Y-96355000D01*
X149782772Y-96322297D01*
X149627900Y-96258147D01*
X149488519Y-96165015D01*
X149369985Y-96046481D01*
X149276853Y-95907100D01*
X149212703Y-95752228D01*
X149180000Y-95587816D01*
X149180000Y-95420184D01*
X149212703Y-95255772D01*
X149276853Y-95100900D01*
X149369985Y-94961519D01*
X149488519Y-94842985D01*
X149627900Y-94749853D01*
X149782772Y-94685703D01*
X149947184Y-94653000D01*
X150114816Y-94653000D01*
X150279228Y-94685703D01*
G37*
G36*
X155279228Y-94685703D02*
G01*
X155434100Y-94749853D01*
X155573481Y-94842985D01*
X155692015Y-94961519D01*
X155785147Y-95100900D01*
X155849297Y-95255772D01*
X155882000Y-95420184D01*
X155882000Y-95587816D01*
X155849297Y-95752228D01*
X155785147Y-95907100D01*
X155692015Y-96046481D01*
X155573481Y-96165015D01*
X155434100Y-96258147D01*
X155279228Y-96322297D01*
X155114816Y-96355000D01*
X154947184Y-96355000D01*
X154782772Y-96322297D01*
X154627900Y-96258147D01*
X154488519Y-96165015D01*
X154369985Y-96046481D01*
X154276853Y-95907100D01*
X154212703Y-95752228D01*
X154180000Y-95587816D01*
X154180000Y-95420184D01*
X154212703Y-95255772D01*
X154276853Y-95100900D01*
X154369985Y-94961519D01*
X154488519Y-94842985D01*
X154627900Y-94749853D01*
X154782772Y-94685703D01*
X154947184Y-94653000D01*
X155114816Y-94653000D01*
X155279228Y-94685703D01*
G37*
G36*
X117389228Y-94685703D02*
G01*
X117544100Y-94749853D01*
X117683481Y-94842985D01*
X117802015Y-94961519D01*
X117895147Y-95100900D01*
X117959297Y-95255772D01*
X117992000Y-95420184D01*
X117992000Y-95587816D01*
X117959297Y-95752228D01*
X117895147Y-95907100D01*
X117802015Y-96046481D01*
X117683481Y-96165015D01*
X117544100Y-96258147D01*
X117389228Y-96322297D01*
X117224816Y-96355000D01*
X117057184Y-96355000D01*
X116892772Y-96322297D01*
X116737900Y-96258147D01*
X116598519Y-96165015D01*
X116479985Y-96046481D01*
X116386853Y-95907100D01*
X116322703Y-95752228D01*
X116290000Y-95587816D01*
X116290000Y-95420184D01*
X116322703Y-95255772D01*
X116386853Y-95100900D01*
X116479985Y-94961519D01*
X116598519Y-94842985D01*
X116737900Y-94749853D01*
X116892772Y-94685703D01*
X117057184Y-94653000D01*
X117224816Y-94653000D01*
X117389228Y-94685703D01*
G37*
G36*
X112389228Y-94685703D02*
G01*
X112544100Y-94749853D01*
X112683481Y-94842985D01*
X112802015Y-94961519D01*
X112895147Y-95100900D01*
X112959297Y-95255772D01*
X112992000Y-95420184D01*
X112992000Y-95587816D01*
X112959297Y-95752228D01*
X112895147Y-95907100D01*
X112802015Y-96046481D01*
X112683481Y-96165015D01*
X112544100Y-96258147D01*
X112389228Y-96322297D01*
X112224816Y-96355000D01*
X112057184Y-96355000D01*
X111892772Y-96322297D01*
X111737900Y-96258147D01*
X111598519Y-96165015D01*
X111479985Y-96046481D01*
X111386853Y-95907100D01*
X111322703Y-95752228D01*
X111290000Y-95587816D01*
X111290000Y-95420184D01*
X111322703Y-95255772D01*
X111386853Y-95100900D01*
X111479985Y-94961519D01*
X111598519Y-94842985D01*
X111737900Y-94749853D01*
X111892772Y-94685703D01*
X112057184Y-94653000D01*
X112224816Y-94653000D01*
X112389228Y-94685703D01*
G37*
G36*
X123867256Y-90973298D02*
G01*
X123973579Y-90994447D01*
X124274042Y-91118903D01*
X124544451Y-91299585D01*
X124774415Y-91529549D01*
X124955097Y-91799958D01*
X125079553Y-92100421D01*
X125143000Y-92419391D01*
X125143000Y-92744609D01*
X125079553Y-93063579D01*
X124955097Y-93364042D01*
X124774415Y-93634451D01*
X124544451Y-93864415D01*
X124274042Y-94045097D01*
X123973579Y-94169553D01*
X123867256Y-94190702D01*
X123654611Y-94233000D01*
X123329389Y-94233000D01*
X123116744Y-94190702D01*
X123010421Y-94169553D01*
X122709958Y-94045097D01*
X122439549Y-93864415D01*
X122209585Y-93634451D01*
X122028903Y-93364042D01*
X121904447Y-93063579D01*
X121841000Y-92744609D01*
X121841000Y-92419391D01*
X121904447Y-92100421D01*
X122028903Y-91799958D01*
X122209585Y-91529549D01*
X122439549Y-91299585D01*
X122709958Y-91118903D01*
X123010421Y-90994447D01*
X123116744Y-90973298D01*
X123329389Y-90931000D01*
X123654611Y-90931000D01*
X123867256Y-90973298D01*
G37*
G36*
X161757256Y-90973298D02*
G01*
X161863579Y-90994447D01*
X162164042Y-91118903D01*
X162434451Y-91299585D01*
X162664415Y-91529549D01*
X162845097Y-91799958D01*
X162969553Y-92100421D01*
X163033000Y-92419391D01*
X163033000Y-92744609D01*
X162969553Y-93063579D01*
X162845097Y-93364042D01*
X162664415Y-93634451D01*
X162434451Y-93864415D01*
X162164042Y-94045097D01*
X161863579Y-94169553D01*
X161757256Y-94190702D01*
X161544611Y-94233000D01*
X161219389Y-94233000D01*
X161006744Y-94190702D01*
X160900421Y-94169553D01*
X160599958Y-94045097D01*
X160329549Y-93864415D01*
X160099585Y-93634451D01*
X159918903Y-93364042D01*
X159794447Y-93063579D01*
X159731000Y-92744609D01*
X159731000Y-92419391D01*
X159794447Y-92100421D01*
X159918903Y-91799958D01*
X160099585Y-91529549D01*
X160329549Y-91299585D01*
X160599958Y-91118903D01*
X160900421Y-90994447D01*
X161006744Y-90973298D01*
X161219389Y-90931000D01*
X161544611Y-90931000D01*
X161757256Y-90973298D01*
G37*
G36*
X133867256Y-90973298D02*
G01*
X133973579Y-90994447D01*
X134274042Y-91118903D01*
X134544451Y-91299585D01*
X134774415Y-91529549D01*
X134955097Y-91799958D01*
X135079553Y-92100421D01*
X135143000Y-92419391D01*
X135143000Y-92744609D01*
X135079553Y-93063579D01*
X134955097Y-93364042D01*
X134774415Y-93634451D01*
X134544451Y-93864415D01*
X134274042Y-94045097D01*
X133973579Y-94169553D01*
X133867256Y-94190702D01*
X133654611Y-94233000D01*
X133329389Y-94233000D01*
X133116744Y-94190702D01*
X133010421Y-94169553D01*
X132709958Y-94045097D01*
X132439549Y-93864415D01*
X132209585Y-93634451D01*
X132028903Y-93364042D01*
X131904447Y-93063579D01*
X131841000Y-92744609D01*
X131841000Y-92419391D01*
X131904447Y-92100421D01*
X132028903Y-91799958D01*
X132209585Y-91529549D01*
X132439549Y-91299585D01*
X132709958Y-91118903D01*
X133010421Y-90994447D01*
X133116744Y-90973298D01*
X133329389Y-90931000D01*
X133654611Y-90931000D01*
X133867256Y-90973298D01*
G37*
G36*
X95977256Y-90973298D02*
G01*
X96083579Y-90994447D01*
X96384042Y-91118903D01*
X96654451Y-91299585D01*
X96884415Y-91529549D01*
X97065097Y-91799958D01*
X97189553Y-92100421D01*
X97253000Y-92419391D01*
X97253000Y-92744609D01*
X97189553Y-93063579D01*
X97065097Y-93364042D01*
X96884415Y-93634451D01*
X96654451Y-93864415D01*
X96384042Y-94045097D01*
X96083579Y-94169553D01*
X95977256Y-94190702D01*
X95764611Y-94233000D01*
X95439389Y-94233000D01*
X95226744Y-94190702D01*
X95120421Y-94169553D01*
X94819958Y-94045097D01*
X94549549Y-93864415D01*
X94319585Y-93634451D01*
X94138903Y-93364042D01*
X94014447Y-93063579D01*
X93951000Y-92744609D01*
X93951000Y-92419391D01*
X94014447Y-92100421D01*
X94138903Y-91799958D01*
X94319585Y-91529549D01*
X94549549Y-91299585D01*
X94819958Y-91118903D01*
X95120421Y-90994447D01*
X95226744Y-90973298D01*
X95439389Y-90931000D01*
X95764611Y-90931000D01*
X95977256Y-90973298D01*
G37*
G36*
X115809208Y-85175093D02*
G01*
X116150617Y-85316510D01*
X116150619Y-85316511D01*
X116457880Y-85521816D01*
X116719184Y-85783120D01*
X116924490Y-86090383D01*
X117065907Y-86431792D01*
X117138000Y-86794229D01*
X117138000Y-87163771D01*
X117065907Y-87526208D01*
X116924490Y-87867617D01*
X116924489Y-87867619D01*
X116719184Y-88174880D01*
X116457880Y-88436184D01*
X116150619Y-88641489D01*
X116150618Y-88641490D01*
X116150617Y-88641490D01*
X115809208Y-88782907D01*
X115446771Y-88855000D01*
X115077229Y-88855000D01*
X114714792Y-88782907D01*
X114373383Y-88641490D01*
X114373382Y-88641490D01*
X114373381Y-88641489D01*
X114066120Y-88436184D01*
X113804816Y-88174880D01*
X113599511Y-87867619D01*
X113599510Y-87867617D01*
X113458093Y-87526208D01*
X113386000Y-87163771D01*
X113386000Y-86794229D01*
X113458093Y-86431792D01*
X113599510Y-86090383D01*
X113804816Y-85783120D01*
X114066120Y-85521816D01*
X114373381Y-85316511D01*
X114373383Y-85316510D01*
X114714792Y-85175093D01*
X115077229Y-85103000D01*
X115446771Y-85103000D01*
X115809208Y-85175093D01*
G37*
G36*
X142269208Y-85175093D02*
G01*
X142610617Y-85316510D01*
X142610619Y-85316511D01*
X142917880Y-85521816D01*
X143179184Y-85783120D01*
X143384490Y-86090383D01*
X143525907Y-86431792D01*
X143598000Y-86794229D01*
X143598000Y-87163771D01*
X143525907Y-87526208D01*
X143384490Y-87867617D01*
X143384489Y-87867619D01*
X143179184Y-88174880D01*
X142917880Y-88436184D01*
X142610619Y-88641489D01*
X142610618Y-88641490D01*
X142610617Y-88641490D01*
X142269208Y-88782907D01*
X141906771Y-88855000D01*
X141537229Y-88855000D01*
X141174792Y-88782907D01*
X140833383Y-88641490D01*
X140833382Y-88641490D01*
X140833381Y-88641489D01*
X140526120Y-88436184D01*
X140264816Y-88174880D01*
X140059511Y-87867619D01*
X140059510Y-87867617D01*
X139918093Y-87526208D01*
X139846000Y-87163771D01*
X139846000Y-86794229D01*
X139918093Y-86431792D01*
X140059510Y-86090383D01*
X140264816Y-85783120D01*
X140526120Y-85521816D01*
X140833381Y-85316511D01*
X140833383Y-85316510D01*
X141174792Y-85175093D01*
X141537229Y-85103000D01*
X141906771Y-85103000D01*
X142269208Y-85175093D01*
G37*
G36*
X104379208Y-85175093D02*
G01*
X104720617Y-85316510D01*
X104720619Y-85316511D01*
X105027880Y-85521816D01*
X105289184Y-85783120D01*
X105494490Y-86090383D01*
X105635907Y-86431792D01*
X105708000Y-86794229D01*
X105708000Y-87163771D01*
X105635907Y-87526208D01*
X105494490Y-87867617D01*
X105494489Y-87867619D01*
X105289184Y-88174880D01*
X105027880Y-88436184D01*
X104720619Y-88641489D01*
X104720618Y-88641490D01*
X104720617Y-88641490D01*
X104379208Y-88782907D01*
X104016771Y-88855000D01*
X103647229Y-88855000D01*
X103284792Y-88782907D01*
X102943383Y-88641490D01*
X102943382Y-88641490D01*
X102943381Y-88641489D01*
X102636120Y-88436184D01*
X102374816Y-88174880D01*
X102169511Y-87867619D01*
X102169510Y-87867617D01*
X102028093Y-87526208D01*
X101956000Y-87163771D01*
X101956000Y-86794229D01*
X102028093Y-86431792D01*
X102169510Y-86090383D01*
X102374816Y-85783120D01*
X102636120Y-85521816D01*
X102943381Y-85316511D01*
X102943383Y-85316510D01*
X103284792Y-85175093D01*
X103647229Y-85103000D01*
X104016771Y-85103000D01*
X104379208Y-85175093D01*
G37*
G36*
X153699208Y-85175093D02*
G01*
X154040617Y-85316510D01*
X154040619Y-85316511D01*
X154347880Y-85521816D01*
X154609184Y-85783120D01*
X154814490Y-86090383D01*
X154955907Y-86431792D01*
X155028000Y-86794229D01*
X155028000Y-87163771D01*
X154955907Y-87526208D01*
X154814490Y-87867617D01*
X154814489Y-87867619D01*
X154609184Y-88174880D01*
X154347880Y-88436184D01*
X154040619Y-88641489D01*
X154040618Y-88641490D01*
X154040617Y-88641490D01*
X153699208Y-88782907D01*
X153336771Y-88855000D01*
X152967229Y-88855000D01*
X152604792Y-88782907D01*
X152263383Y-88641490D01*
X152263382Y-88641490D01*
X152263381Y-88641489D01*
X151956120Y-88436184D01*
X151694816Y-88174880D01*
X151489511Y-87867619D01*
X151489510Y-87867617D01*
X151348093Y-87526208D01*
X151276000Y-87163771D01*
X151276000Y-86794229D01*
X151348093Y-86431792D01*
X151489510Y-86090383D01*
X151694816Y-85783120D01*
X151956120Y-85521816D01*
X152263381Y-85316511D01*
X152263383Y-85316510D01*
X152604792Y-85175093D01*
X152967229Y-85103000D01*
X153336771Y-85103000D01*
X153699208Y-85175093D01*
G37*
G36*
X95952702Y-78468414D02*
G01*
X96083579Y-78494447D01*
X96296037Y-78582450D01*
X96337458Y-78599607D01*
X96384042Y-78618903D01*
X96654451Y-78799585D01*
X96884415Y-79029549D01*
X96884416Y-79029551D01*
X97065098Y-79299960D01*
X97189553Y-79600422D01*
X97253000Y-79919389D01*
X97253000Y-80244611D01*
X97223014Y-80395358D01*
X97189553Y-80563579D01*
X97129776Y-80707893D01*
X97065677Y-80862643D01*
X97065097Y-80864042D01*
X96884415Y-81134451D01*
X96654451Y-81364415D01*
X96384042Y-81545097D01*
X96083579Y-81669553D01*
X95977256Y-81690702D01*
X95764611Y-81733000D01*
X95439389Y-81733000D01*
X95226744Y-81690702D01*
X95120421Y-81669553D01*
X94819958Y-81545097D01*
X94549549Y-81364415D01*
X94319585Y-81134451D01*
X94138903Y-80864042D01*
X94138324Y-80862643D01*
X94074224Y-80707893D01*
X94014447Y-80563579D01*
X93980986Y-80395358D01*
X93951000Y-80244611D01*
X93951000Y-79919389D01*
X94014447Y-79600422D01*
X94138902Y-79299960D01*
X94319584Y-79029551D01*
X94319585Y-79029549D01*
X94549549Y-78799585D01*
X94819958Y-78618903D01*
X94866543Y-78599607D01*
X94907963Y-78582450D01*
X95120421Y-78494447D01*
X95251298Y-78468414D01*
X95439389Y-78431000D01*
X95764611Y-78431000D01*
X95952702Y-78468414D01*
G37*
G36*
X133842702Y-78468414D02*
G01*
X133973579Y-78494447D01*
X134186037Y-78582450D01*
X134227458Y-78599607D01*
X134274042Y-78618903D01*
X134544451Y-78799585D01*
X134774415Y-79029549D01*
X134774416Y-79029551D01*
X134955098Y-79299960D01*
X135079553Y-79600422D01*
X135143000Y-79919389D01*
X135143000Y-80244611D01*
X135113014Y-80395358D01*
X135079553Y-80563579D01*
X135019776Y-80707893D01*
X134955677Y-80862643D01*
X134955097Y-80864042D01*
X134774415Y-81134451D01*
X134544451Y-81364415D01*
X134274042Y-81545097D01*
X133973579Y-81669553D01*
X133867256Y-81690702D01*
X133654611Y-81733000D01*
X133329389Y-81733000D01*
X133116744Y-81690702D01*
X133010421Y-81669553D01*
X132709958Y-81545097D01*
X132439549Y-81364415D01*
X132209585Y-81134451D01*
X132028903Y-80864042D01*
X132028324Y-80862643D01*
X131964224Y-80707893D01*
X131904447Y-80563579D01*
X131870986Y-80395358D01*
X131841000Y-80244611D01*
X131841000Y-79919389D01*
X131904447Y-79600422D01*
X132028902Y-79299960D01*
X132209584Y-79029551D01*
X132209585Y-79029549D01*
X132439549Y-78799585D01*
X132709958Y-78618903D01*
X132756543Y-78599607D01*
X132797963Y-78582450D01*
X133010421Y-78494447D01*
X133141298Y-78468414D01*
X133329389Y-78431000D01*
X133654611Y-78431000D01*
X133842702Y-78468414D01*
G37*
G36*
X123842702Y-78468414D02*
G01*
X123973579Y-78494447D01*
X124186037Y-78582450D01*
X124227458Y-78599607D01*
X124274042Y-78618903D01*
X124544451Y-78799585D01*
X124774415Y-79029549D01*
X124774416Y-79029551D01*
X124955098Y-79299960D01*
X125079553Y-79600422D01*
X125143000Y-79919389D01*
X125143000Y-80244611D01*
X125113014Y-80395358D01*
X125079553Y-80563579D01*
X125019776Y-80707893D01*
X124955677Y-80862643D01*
X124955097Y-80864042D01*
X124774415Y-81134451D01*
X124544451Y-81364415D01*
X124274042Y-81545097D01*
X123973579Y-81669553D01*
X123867256Y-81690702D01*
X123654611Y-81733000D01*
X123329389Y-81733000D01*
X123116744Y-81690702D01*
X123010421Y-81669553D01*
X122709958Y-81545097D01*
X122439549Y-81364415D01*
X122209585Y-81134451D01*
X122028903Y-80864042D01*
X122028324Y-80862643D01*
X121964224Y-80707893D01*
X121904447Y-80563579D01*
X121870986Y-80395358D01*
X121841000Y-80244611D01*
X121841000Y-79919389D01*
X121904447Y-79600422D01*
X122028902Y-79299960D01*
X122209584Y-79029551D01*
X122209585Y-79029549D01*
X122439549Y-78799585D01*
X122709958Y-78618903D01*
X122756543Y-78599607D01*
X122797963Y-78582450D01*
X123010421Y-78494447D01*
X123141298Y-78468414D01*
X123329389Y-78431000D01*
X123654611Y-78431000D01*
X123842702Y-78468414D01*
G37*
G36*
X161732702Y-78468414D02*
G01*
X161863579Y-78494447D01*
X162076037Y-78582450D01*
X162117458Y-78599607D01*
X162164042Y-78618903D01*
X162434451Y-78799585D01*
X162664415Y-79029549D01*
X162664416Y-79029551D01*
X162845098Y-79299960D01*
X162969553Y-79600422D01*
X163033000Y-79919389D01*
X163033000Y-80244611D01*
X163003014Y-80395358D01*
X162969553Y-80563579D01*
X162909776Y-80707893D01*
X162845677Y-80862643D01*
X162845097Y-80864042D01*
X162664415Y-81134451D01*
X162434451Y-81364415D01*
X162164042Y-81545097D01*
X161863579Y-81669553D01*
X161757256Y-81690702D01*
X161544611Y-81733000D01*
X161219389Y-81733000D01*
X161006744Y-81690702D01*
X160900421Y-81669553D01*
X160599958Y-81545097D01*
X160329549Y-81364415D01*
X160099585Y-81134451D01*
X159918903Y-80864042D01*
X159918324Y-80862643D01*
X159854224Y-80707893D01*
X159794447Y-80563579D01*
X159760986Y-80395358D01*
X159731000Y-80244611D01*
X159731000Y-79919389D01*
X159794447Y-79600422D01*
X159918902Y-79299960D01*
X160099584Y-79029551D01*
X160099585Y-79029549D01*
X160329549Y-78799585D01*
X160599958Y-78618903D01*
X160646543Y-78599607D01*
X160687963Y-78582450D01*
X160900421Y-78494447D01*
X161031298Y-78468414D01*
X161219389Y-78431000D01*
X161544611Y-78431000D01*
X161732702Y-78468414D01*
G37*
G36*
X150845642Y-79858781D02*
G01*
X150991414Y-79919162D01*
X150991416Y-79919163D01*
X151122608Y-80006822D01*
X151234178Y-80118392D01*
X151318514Y-80244611D01*
X151321838Y-80249586D01*
X151382219Y-80395358D01*
X151413000Y-80550107D01*
X151413000Y-80707893D01*
X151382219Y-80862642D01*
X151381639Y-80864042D01*
X151321837Y-81008416D01*
X151234178Y-81139608D01*
X151122608Y-81251178D01*
X150991416Y-81338837D01*
X150991415Y-81338838D01*
X150991414Y-81338838D01*
X150845642Y-81399219D01*
X150690893Y-81430000D01*
X150533107Y-81430000D01*
X150378358Y-81399219D01*
X150232586Y-81338838D01*
X150232585Y-81338838D01*
X150232584Y-81338837D01*
X150101392Y-81251178D01*
X149989822Y-81139608D01*
X149902163Y-81008416D01*
X149842361Y-80864042D01*
X149841781Y-80862642D01*
X149811000Y-80707893D01*
X149811000Y-80550107D01*
X149841781Y-80395358D01*
X149902162Y-80249586D01*
X149905486Y-80244611D01*
X149989822Y-80118392D01*
X150101392Y-80006822D01*
X150232584Y-79919163D01*
X150232586Y-79919162D01*
X150378358Y-79858781D01*
X150533107Y-79828000D01*
X150690893Y-79828000D01*
X150845642Y-79858781D01*
G37*
G36*
X148305642Y-79858781D02*
G01*
X148451414Y-79919162D01*
X148451416Y-79919163D01*
X148582608Y-80006822D01*
X148694178Y-80118392D01*
X148778514Y-80244611D01*
X148781838Y-80249586D01*
X148842219Y-80395358D01*
X148873000Y-80550107D01*
X148873000Y-80707893D01*
X148842219Y-80862642D01*
X148841639Y-80864042D01*
X148781837Y-81008416D01*
X148694178Y-81139608D01*
X148582608Y-81251178D01*
X148451416Y-81338837D01*
X148451415Y-81338838D01*
X148451414Y-81338838D01*
X148305642Y-81399219D01*
X148150893Y-81430000D01*
X147993107Y-81430000D01*
X147838358Y-81399219D01*
X147692586Y-81338838D01*
X147692585Y-81338838D01*
X147692584Y-81338837D01*
X147561392Y-81251178D01*
X147449822Y-81139608D01*
X147362163Y-81008416D01*
X147302361Y-80864042D01*
X147301781Y-80862642D01*
X147271000Y-80707893D01*
X147271000Y-80550107D01*
X147301781Y-80395358D01*
X147362162Y-80249586D01*
X147365486Y-80244611D01*
X147449822Y-80118392D01*
X147561392Y-80006822D01*
X147692584Y-79919163D01*
X147692586Y-79919162D01*
X147838358Y-79858781D01*
X147993107Y-79828000D01*
X148150893Y-79828000D01*
X148305642Y-79858781D01*
G37*
G36*
X143793000Y-81430000D02*
G01*
X142191000Y-81430000D01*
X142191000Y-79828000D01*
X143793000Y-79828000D01*
X143793000Y-81430000D01*
G37*
G36*
X105903000Y-81430000D02*
G01*
X104301000Y-81430000D01*
X104301000Y-79828000D01*
X105903000Y-79828000D01*
X105903000Y-81430000D01*
G37*
G36*
X145765642Y-79858781D02*
G01*
X145911414Y-79919162D01*
X145911416Y-79919163D01*
X146042608Y-80006822D01*
X146154178Y-80118392D01*
X146238514Y-80244611D01*
X146241838Y-80249586D01*
X146302219Y-80395358D01*
X146333000Y-80550107D01*
X146333000Y-80707893D01*
X146302219Y-80862642D01*
X146301639Y-80864042D01*
X146241837Y-81008416D01*
X146154178Y-81139608D01*
X146042608Y-81251178D01*
X145911416Y-81338837D01*
X145911415Y-81338838D01*
X145911414Y-81338838D01*
X145765642Y-81399219D01*
X145610893Y-81430000D01*
X145453107Y-81430000D01*
X145298358Y-81399219D01*
X145152586Y-81338838D01*
X145152585Y-81338838D01*
X145152584Y-81338837D01*
X145021392Y-81251178D01*
X144909822Y-81139608D01*
X144822163Y-81008416D01*
X144762361Y-80864042D01*
X144761781Y-80862642D01*
X144731000Y-80707893D01*
X144731000Y-80550107D01*
X144761781Y-80395358D01*
X144822162Y-80249586D01*
X144825486Y-80244611D01*
X144909822Y-80118392D01*
X145021392Y-80006822D01*
X145152584Y-79919163D01*
X145152586Y-79919162D01*
X145298358Y-79858781D01*
X145453107Y-79828000D01*
X145610893Y-79828000D01*
X145765642Y-79858781D01*
G37*
G36*
X110415642Y-79858781D02*
G01*
X110561414Y-79919162D01*
X110561416Y-79919163D01*
X110692608Y-80006822D01*
X110804178Y-80118392D01*
X110888514Y-80244611D01*
X110891838Y-80249586D01*
X110952219Y-80395358D01*
X110983000Y-80550107D01*
X110983000Y-80707893D01*
X110952219Y-80862642D01*
X110951639Y-80864042D01*
X110891837Y-81008416D01*
X110804178Y-81139608D01*
X110692608Y-81251178D01*
X110561416Y-81338837D01*
X110561415Y-81338838D01*
X110561414Y-81338838D01*
X110415642Y-81399219D01*
X110260893Y-81430000D01*
X110103107Y-81430000D01*
X109948358Y-81399219D01*
X109802586Y-81338838D01*
X109802585Y-81338838D01*
X109802584Y-81338837D01*
X109671392Y-81251178D01*
X109559822Y-81139608D01*
X109472163Y-81008416D01*
X109412361Y-80864042D01*
X109411781Y-80862642D01*
X109381000Y-80707893D01*
X109381000Y-80550107D01*
X109411781Y-80395358D01*
X109472162Y-80249586D01*
X109475486Y-80244611D01*
X109559822Y-80118392D01*
X109671392Y-80006822D01*
X109802584Y-79919163D01*
X109802586Y-79919162D01*
X109948358Y-79858781D01*
X110103107Y-79828000D01*
X110260893Y-79828000D01*
X110415642Y-79858781D01*
G37*
G36*
X112955642Y-79858781D02*
G01*
X113101414Y-79919162D01*
X113101416Y-79919163D01*
X113232608Y-80006822D01*
X113344178Y-80118392D01*
X113428514Y-80244611D01*
X113431838Y-80249586D01*
X113492219Y-80395358D01*
X113523000Y-80550107D01*
X113523000Y-80707893D01*
X113492219Y-80862642D01*
X113491639Y-80864042D01*
X113431837Y-81008416D01*
X113344178Y-81139608D01*
X113232608Y-81251178D01*
X113101416Y-81338837D01*
X113101415Y-81338838D01*
X113101414Y-81338838D01*
X112955642Y-81399219D01*
X112800893Y-81430000D01*
X112643107Y-81430000D01*
X112488358Y-81399219D01*
X112342586Y-81338838D01*
X112342585Y-81338838D01*
X112342584Y-81338837D01*
X112211392Y-81251178D01*
X112099822Y-81139608D01*
X112012163Y-81008416D01*
X111952361Y-80864042D01*
X111951781Y-80862642D01*
X111921000Y-80707893D01*
X111921000Y-80550107D01*
X111951781Y-80395358D01*
X112012162Y-80249586D01*
X112015486Y-80244611D01*
X112099822Y-80118392D01*
X112211392Y-80006822D01*
X112342584Y-79919163D01*
X112342586Y-79919162D01*
X112488358Y-79858781D01*
X112643107Y-79828000D01*
X112800893Y-79828000D01*
X112955642Y-79858781D01*
G37*
G36*
X107875642Y-79858781D02*
G01*
X108021414Y-79919162D01*
X108021416Y-79919163D01*
X108152608Y-80006822D01*
X108264178Y-80118392D01*
X108348514Y-80244611D01*
X108351838Y-80249586D01*
X108412219Y-80395358D01*
X108443000Y-80550107D01*
X108443000Y-80707893D01*
X108412219Y-80862642D01*
X108411639Y-80864042D01*
X108351837Y-81008416D01*
X108264178Y-81139608D01*
X108152608Y-81251178D01*
X108021416Y-81338837D01*
X108021415Y-81338838D01*
X108021414Y-81338838D01*
X107875642Y-81399219D01*
X107720893Y-81430000D01*
X107563107Y-81430000D01*
X107408358Y-81399219D01*
X107262586Y-81338838D01*
X107262585Y-81338838D01*
X107262584Y-81338837D01*
X107131392Y-81251178D01*
X107019822Y-81139608D01*
X106932163Y-81008416D01*
X106872361Y-80864042D01*
X106871781Y-80862642D01*
X106841000Y-80707893D01*
X106841000Y-80550107D01*
X106871781Y-80395358D01*
X106932162Y-80249586D01*
X106935486Y-80244611D01*
X107019822Y-80118392D01*
X107131392Y-80006822D01*
X107262584Y-79919163D01*
X107262586Y-79919162D01*
X107408358Y-79858781D01*
X107563107Y-79828000D01*
X107720893Y-79828000D01*
X107875642Y-79858781D01*
G37*
G36*
X149575642Y-77318781D02*
G01*
X149721414Y-77379162D01*
X149721416Y-77379163D01*
X149852608Y-77466822D01*
X149964178Y-77578392D01*
X150051837Y-77709584D01*
X150051838Y-77709586D01*
X150112219Y-77855358D01*
X150143000Y-78010107D01*
X150143000Y-78167893D01*
X150112219Y-78322642D01*
X150067335Y-78431000D01*
X150051837Y-78468416D01*
X149964178Y-78599608D01*
X149852608Y-78711178D01*
X149721416Y-78798837D01*
X149721415Y-78798838D01*
X149721414Y-78798838D01*
X149575642Y-78859219D01*
X149420893Y-78890000D01*
X149263107Y-78890000D01*
X149108358Y-78859219D01*
X148962586Y-78798838D01*
X148962585Y-78798838D01*
X148962584Y-78798837D01*
X148831392Y-78711178D01*
X148719822Y-78599608D01*
X148632163Y-78468416D01*
X148616665Y-78431000D01*
X148571781Y-78322642D01*
X148541000Y-78167893D01*
X148541000Y-78010107D01*
X148571781Y-77855358D01*
X148632162Y-77709586D01*
X148632163Y-77709584D01*
X148719822Y-77578392D01*
X148831392Y-77466822D01*
X148962584Y-77379163D01*
X148962586Y-77379162D01*
X149108358Y-77318781D01*
X149263107Y-77288000D01*
X149420893Y-77288000D01*
X149575642Y-77318781D01*
G37*
G36*
X147035642Y-77318781D02*
G01*
X147181414Y-77379162D01*
X147181416Y-77379163D01*
X147312608Y-77466822D01*
X147424178Y-77578392D01*
X147511837Y-77709584D01*
X147511838Y-77709586D01*
X147572219Y-77855358D01*
X147603000Y-78010107D01*
X147603000Y-78167893D01*
X147572219Y-78322642D01*
X147527335Y-78431000D01*
X147511837Y-78468416D01*
X147424178Y-78599608D01*
X147312608Y-78711178D01*
X147181416Y-78798837D01*
X147181415Y-78798838D01*
X147181414Y-78798838D01*
X147035642Y-78859219D01*
X146880893Y-78890000D01*
X146723107Y-78890000D01*
X146568358Y-78859219D01*
X146422586Y-78798838D01*
X146422585Y-78798838D01*
X146422584Y-78798837D01*
X146291392Y-78711178D01*
X146179822Y-78599608D01*
X146092163Y-78468416D01*
X146076665Y-78431000D01*
X146031781Y-78322642D01*
X146001000Y-78167893D01*
X146001000Y-78010107D01*
X146031781Y-77855358D01*
X146092162Y-77709586D01*
X146092163Y-77709584D01*
X146179822Y-77578392D01*
X146291392Y-77466822D01*
X146422584Y-77379163D01*
X146422586Y-77379162D01*
X146568358Y-77318781D01*
X146723107Y-77288000D01*
X146880893Y-77288000D01*
X147035642Y-77318781D01*
G37*
G36*
X114225642Y-77318781D02*
G01*
X114371414Y-77379162D01*
X114371416Y-77379163D01*
X114502608Y-77466822D01*
X114614178Y-77578392D01*
X114701837Y-77709584D01*
X114701838Y-77709586D01*
X114762219Y-77855358D01*
X114793000Y-78010107D01*
X114793000Y-78167893D01*
X114762219Y-78322642D01*
X114717335Y-78431000D01*
X114701837Y-78468416D01*
X114614178Y-78599608D01*
X114502608Y-78711178D01*
X114371416Y-78798837D01*
X114371415Y-78798838D01*
X114371414Y-78798838D01*
X114225642Y-78859219D01*
X114070893Y-78890000D01*
X113913107Y-78890000D01*
X113758358Y-78859219D01*
X113612586Y-78798838D01*
X113612585Y-78798838D01*
X113612584Y-78798837D01*
X113481392Y-78711178D01*
X113369822Y-78599608D01*
X113282163Y-78468416D01*
X113266665Y-78431000D01*
X113221781Y-78322642D01*
X113191000Y-78167893D01*
X113191000Y-78010107D01*
X113221781Y-77855358D01*
X113282162Y-77709586D01*
X113282163Y-77709584D01*
X113369822Y-77578392D01*
X113481392Y-77466822D01*
X113612584Y-77379163D01*
X113612586Y-77379162D01*
X113758358Y-77318781D01*
X113913107Y-77288000D01*
X114070893Y-77288000D01*
X114225642Y-77318781D01*
G37*
G36*
X111685642Y-77318781D02*
G01*
X111831414Y-77379162D01*
X111831416Y-77379163D01*
X111962608Y-77466822D01*
X112074178Y-77578392D01*
X112161837Y-77709584D01*
X112161838Y-77709586D01*
X112222219Y-77855358D01*
X112253000Y-78010107D01*
X112253000Y-78167893D01*
X112222219Y-78322642D01*
X112177335Y-78431000D01*
X112161837Y-78468416D01*
X112074178Y-78599608D01*
X111962608Y-78711178D01*
X111831416Y-78798837D01*
X111831415Y-78798838D01*
X111831414Y-78798838D01*
X111685642Y-78859219D01*
X111530893Y-78890000D01*
X111373107Y-78890000D01*
X111218358Y-78859219D01*
X111072586Y-78798838D01*
X111072585Y-78798838D01*
X111072584Y-78798837D01*
X110941392Y-78711178D01*
X110829822Y-78599608D01*
X110742163Y-78468416D01*
X110726665Y-78431000D01*
X110681781Y-78322642D01*
X110651000Y-78167893D01*
X110651000Y-78010107D01*
X110681781Y-77855358D01*
X110742162Y-77709586D01*
X110742163Y-77709584D01*
X110829822Y-77578392D01*
X110941392Y-77466822D01*
X111072584Y-77379163D01*
X111072586Y-77379162D01*
X111218358Y-77318781D01*
X111373107Y-77288000D01*
X111530893Y-77288000D01*
X111685642Y-77318781D01*
G37*
G36*
X144495642Y-77318781D02*
G01*
X144641414Y-77379162D01*
X144641416Y-77379163D01*
X144772608Y-77466822D01*
X144884178Y-77578392D01*
X144971837Y-77709584D01*
X144971838Y-77709586D01*
X145032219Y-77855358D01*
X145063000Y-78010107D01*
X145063000Y-78167893D01*
X145032219Y-78322642D01*
X144987335Y-78431000D01*
X144971837Y-78468416D01*
X144884178Y-78599608D01*
X144772608Y-78711178D01*
X144641416Y-78798837D01*
X144641415Y-78798838D01*
X144641414Y-78798838D01*
X144495642Y-78859219D01*
X144340893Y-78890000D01*
X144183107Y-78890000D01*
X144028358Y-78859219D01*
X143882586Y-78798838D01*
X143882585Y-78798838D01*
X143882584Y-78798837D01*
X143751392Y-78711178D01*
X143639822Y-78599608D01*
X143552163Y-78468416D01*
X143536665Y-78431000D01*
X143491781Y-78322642D01*
X143461000Y-78167893D01*
X143461000Y-78010107D01*
X143491781Y-77855358D01*
X143552162Y-77709586D01*
X143552163Y-77709584D01*
X143639822Y-77578392D01*
X143751392Y-77466822D01*
X143882584Y-77379163D01*
X143882586Y-77379162D01*
X144028358Y-77318781D01*
X144183107Y-77288000D01*
X144340893Y-77288000D01*
X144495642Y-77318781D01*
G37*
G36*
X109145642Y-77318781D02*
G01*
X109291414Y-77379162D01*
X109291416Y-77379163D01*
X109422608Y-77466822D01*
X109534178Y-77578392D01*
X109621837Y-77709584D01*
X109621838Y-77709586D01*
X109682219Y-77855358D01*
X109713000Y-78010107D01*
X109713000Y-78167893D01*
X109682219Y-78322642D01*
X109637335Y-78431000D01*
X109621837Y-78468416D01*
X109534178Y-78599608D01*
X109422608Y-78711178D01*
X109291416Y-78798837D01*
X109291415Y-78798838D01*
X109291414Y-78798838D01*
X109145642Y-78859219D01*
X108990893Y-78890000D01*
X108833107Y-78890000D01*
X108678358Y-78859219D01*
X108532586Y-78798838D01*
X108532585Y-78798838D01*
X108532584Y-78798837D01*
X108401392Y-78711178D01*
X108289822Y-78599608D01*
X108202163Y-78468416D01*
X108186665Y-78431000D01*
X108141781Y-78322642D01*
X108111000Y-78167893D01*
X108111000Y-78010107D01*
X108141781Y-77855358D01*
X108202162Y-77709586D01*
X108202163Y-77709584D01*
X108289822Y-77578392D01*
X108401392Y-77466822D01*
X108532584Y-77379163D01*
X108532586Y-77379162D01*
X108678358Y-77318781D01*
X108833107Y-77288000D01*
X108990893Y-77288000D01*
X109145642Y-77318781D01*
G37*
G36*
X106605642Y-77318781D02*
G01*
X106751414Y-77379162D01*
X106751416Y-77379163D01*
X106882608Y-77466822D01*
X106994178Y-77578392D01*
X107081837Y-77709584D01*
X107081838Y-77709586D01*
X107142219Y-77855358D01*
X107173000Y-78010107D01*
X107173000Y-78167893D01*
X107142219Y-78322642D01*
X107097335Y-78431000D01*
X107081837Y-78468416D01*
X106994178Y-78599608D01*
X106882608Y-78711178D01*
X106751416Y-78798837D01*
X106751415Y-78798838D01*
X106751414Y-78798838D01*
X106605642Y-78859219D01*
X106450893Y-78890000D01*
X106293107Y-78890000D01*
X106138358Y-78859219D01*
X105992586Y-78798838D01*
X105992585Y-78798838D01*
X105992584Y-78798837D01*
X105861392Y-78711178D01*
X105749822Y-78599608D01*
X105662163Y-78468416D01*
X105646665Y-78431000D01*
X105601781Y-78322642D01*
X105571000Y-78167893D01*
X105571000Y-78010107D01*
X105601781Y-77855358D01*
X105662162Y-77709586D01*
X105662163Y-77709584D01*
X105749822Y-77578392D01*
X105861392Y-77466822D01*
X105992584Y-77379163D01*
X105992586Y-77379162D01*
X106138358Y-77318781D01*
X106293107Y-77288000D01*
X106450893Y-77288000D01*
X106605642Y-77318781D01*
G37*
G36*
X152115642Y-77318781D02*
G01*
X152261414Y-77379162D01*
X152261416Y-77379163D01*
X152392608Y-77466822D01*
X152504178Y-77578392D01*
X152591837Y-77709584D01*
X152591838Y-77709586D01*
X152652219Y-77855358D01*
X152683000Y-78010107D01*
X152683000Y-78167893D01*
X152652219Y-78322642D01*
X152607335Y-78431000D01*
X152591837Y-78468416D01*
X152504178Y-78599608D01*
X152392608Y-78711178D01*
X152261416Y-78798837D01*
X152261415Y-78798838D01*
X152261414Y-78798838D01*
X152115642Y-78859219D01*
X151960893Y-78890000D01*
X151803107Y-78890000D01*
X151648358Y-78859219D01*
X151502586Y-78798838D01*
X151502585Y-78798838D01*
X151502584Y-78798837D01*
X151371392Y-78711178D01*
X151259822Y-78599608D01*
X151172163Y-78468416D01*
X151156665Y-78431000D01*
X151111781Y-78322642D01*
X151081000Y-78167893D01*
X151081000Y-78010107D01*
X151111781Y-77855358D01*
X151172162Y-77709586D01*
X151172163Y-77709584D01*
X151259822Y-77578392D01*
X151371392Y-77466822D01*
X151502584Y-77379163D01*
X151502586Y-77379162D01*
X151648358Y-77318781D01*
X151803107Y-77288000D01*
X151960893Y-77288000D01*
X152115642Y-77318781D01*
G37*
G36*
X107875642Y-73889781D02*
G01*
X108021414Y-73950162D01*
X108021416Y-73950163D01*
X108152608Y-74037822D01*
X108264178Y-74149392D01*
X108351837Y-74280584D01*
X108351838Y-74280586D01*
X108412219Y-74426358D01*
X108443000Y-74581107D01*
X108443000Y-74738893D01*
X108412219Y-74893642D01*
X108351838Y-75039414D01*
X108351837Y-75039416D01*
X108264178Y-75170608D01*
X108152608Y-75282178D01*
X108021416Y-75369837D01*
X108021415Y-75369838D01*
X108021414Y-75369838D01*
X107875642Y-75430219D01*
X107720893Y-75461000D01*
X107563107Y-75461000D01*
X107408358Y-75430219D01*
X107262586Y-75369838D01*
X107262585Y-75369838D01*
X107262584Y-75369837D01*
X107131392Y-75282178D01*
X107019822Y-75170608D01*
X106932163Y-75039416D01*
X106932162Y-75039414D01*
X106871781Y-74893642D01*
X106841000Y-74738893D01*
X106841000Y-74581107D01*
X106871781Y-74426358D01*
X106932162Y-74280586D01*
X106932163Y-74280584D01*
X107019822Y-74149392D01*
X107131392Y-74037822D01*
X107262584Y-73950163D01*
X107262586Y-73950162D01*
X107408358Y-73889781D01*
X107563107Y-73859000D01*
X107720893Y-73859000D01*
X107875642Y-73889781D01*
G37*
G36*
X105335642Y-73889781D02*
G01*
X105481414Y-73950162D01*
X105481416Y-73950163D01*
X105612608Y-74037822D01*
X105724178Y-74149392D01*
X105811837Y-74280584D01*
X105811838Y-74280586D01*
X105872219Y-74426358D01*
X105903000Y-74581107D01*
X105903000Y-74738893D01*
X105872219Y-74893642D01*
X105811838Y-75039414D01*
X105811837Y-75039416D01*
X105724178Y-75170608D01*
X105612608Y-75282178D01*
X105481416Y-75369837D01*
X105481415Y-75369838D01*
X105481414Y-75369838D01*
X105335642Y-75430219D01*
X105180893Y-75461000D01*
X105023107Y-75461000D01*
X104868358Y-75430219D01*
X104722586Y-75369838D01*
X104722585Y-75369838D01*
X104722584Y-75369837D01*
X104591392Y-75282178D01*
X104479822Y-75170608D01*
X104392163Y-75039416D01*
X104392162Y-75039414D01*
X104331781Y-74893642D01*
X104301000Y-74738893D01*
X104301000Y-74581107D01*
X104331781Y-74426358D01*
X104392162Y-74280586D01*
X104392163Y-74280584D01*
X104479822Y-74149392D01*
X104591392Y-74037822D01*
X104722584Y-73950163D01*
X104722586Y-73950162D01*
X104868358Y-73889781D01*
X105023107Y-73859000D01*
X105180893Y-73859000D01*
X105335642Y-73889781D01*
G37*
G36*
X150845642Y-73889781D02*
G01*
X150991414Y-73950162D01*
X150991416Y-73950163D01*
X151122608Y-74037822D01*
X151234178Y-74149392D01*
X151321837Y-74280584D01*
X151321838Y-74280586D01*
X151382219Y-74426358D01*
X151413000Y-74581107D01*
X151413000Y-74738893D01*
X151382219Y-74893642D01*
X151321838Y-75039414D01*
X151321837Y-75039416D01*
X151234178Y-75170608D01*
X151122608Y-75282178D01*
X150991416Y-75369837D01*
X150991415Y-75369838D01*
X150991414Y-75369838D01*
X150845642Y-75430219D01*
X150690893Y-75461000D01*
X150533107Y-75461000D01*
X150378358Y-75430219D01*
X150232586Y-75369838D01*
X150232585Y-75369838D01*
X150232584Y-75369837D01*
X150101392Y-75282178D01*
X149989822Y-75170608D01*
X149902163Y-75039416D01*
X149902162Y-75039414D01*
X149841781Y-74893642D01*
X149811000Y-74738893D01*
X149811000Y-74581107D01*
X149841781Y-74426358D01*
X149902162Y-74280586D01*
X149902163Y-74280584D01*
X149989822Y-74149392D01*
X150101392Y-74037822D01*
X150232584Y-73950163D01*
X150232586Y-73950162D01*
X150378358Y-73889781D01*
X150533107Y-73859000D01*
X150690893Y-73859000D01*
X150845642Y-73889781D01*
G37*
G36*
X112955642Y-73889781D02*
G01*
X113101414Y-73950162D01*
X113101416Y-73950163D01*
X113232608Y-74037822D01*
X113344178Y-74149392D01*
X113431837Y-74280584D01*
X113431838Y-74280586D01*
X113492219Y-74426358D01*
X113523000Y-74581107D01*
X113523000Y-74738893D01*
X113492219Y-74893642D01*
X113431838Y-75039414D01*
X113431837Y-75039416D01*
X113344178Y-75170608D01*
X113232608Y-75282178D01*
X113101416Y-75369837D01*
X113101415Y-75369838D01*
X113101414Y-75369838D01*
X112955642Y-75430219D01*
X112800893Y-75461000D01*
X112643107Y-75461000D01*
X112488358Y-75430219D01*
X112342586Y-75369838D01*
X112342585Y-75369838D01*
X112342584Y-75369837D01*
X112211392Y-75282178D01*
X112099822Y-75170608D01*
X112012163Y-75039416D01*
X112012162Y-75039414D01*
X111951781Y-74893642D01*
X111921000Y-74738893D01*
X111921000Y-74581107D01*
X111951781Y-74426358D01*
X112012162Y-74280586D01*
X112012163Y-74280584D01*
X112099822Y-74149392D01*
X112211392Y-74037822D01*
X112342584Y-73950163D01*
X112342586Y-73950162D01*
X112488358Y-73889781D01*
X112643107Y-73859000D01*
X112800893Y-73859000D01*
X112955642Y-73889781D01*
G37*
G36*
X145765642Y-73889781D02*
G01*
X145911414Y-73950162D01*
X145911416Y-73950163D01*
X146042608Y-74037822D01*
X146154178Y-74149392D01*
X146241837Y-74280584D01*
X146241838Y-74280586D01*
X146302219Y-74426358D01*
X146333000Y-74581107D01*
X146333000Y-74738893D01*
X146302219Y-74893642D01*
X146241838Y-75039414D01*
X146241837Y-75039416D01*
X146154178Y-75170608D01*
X146042608Y-75282178D01*
X145911416Y-75369837D01*
X145911415Y-75369838D01*
X145911414Y-75369838D01*
X145765642Y-75430219D01*
X145610893Y-75461000D01*
X145453107Y-75461000D01*
X145298358Y-75430219D01*
X145152586Y-75369838D01*
X145152585Y-75369838D01*
X145152584Y-75369837D01*
X145021392Y-75282178D01*
X144909822Y-75170608D01*
X144822163Y-75039416D01*
X144822162Y-75039414D01*
X144761781Y-74893642D01*
X144731000Y-74738893D01*
X144731000Y-74581107D01*
X144761781Y-74426358D01*
X144822162Y-74280586D01*
X144822163Y-74280584D01*
X144909822Y-74149392D01*
X145021392Y-74037822D01*
X145152584Y-73950163D01*
X145152586Y-73950162D01*
X145298358Y-73889781D01*
X145453107Y-73859000D01*
X145610893Y-73859000D01*
X145765642Y-73889781D01*
G37*
G36*
X148305642Y-73889781D02*
G01*
X148451414Y-73950162D01*
X148451416Y-73950163D01*
X148582608Y-74037822D01*
X148694178Y-74149392D01*
X148781837Y-74280584D01*
X148781838Y-74280586D01*
X148842219Y-74426358D01*
X148873000Y-74581107D01*
X148873000Y-74738893D01*
X148842219Y-74893642D01*
X148781838Y-75039414D01*
X148781837Y-75039416D01*
X148694178Y-75170608D01*
X148582608Y-75282178D01*
X148451416Y-75369837D01*
X148451415Y-75369838D01*
X148451414Y-75369838D01*
X148305642Y-75430219D01*
X148150893Y-75461000D01*
X147993107Y-75461000D01*
X147838358Y-75430219D01*
X147692586Y-75369838D01*
X147692585Y-75369838D01*
X147692584Y-75369837D01*
X147561392Y-75282178D01*
X147449822Y-75170608D01*
X147362163Y-75039416D01*
X147362162Y-75039414D01*
X147301781Y-74893642D01*
X147271000Y-74738893D01*
X147271000Y-74581107D01*
X147301781Y-74426358D01*
X147362162Y-74280586D01*
X147362163Y-74280584D01*
X147449822Y-74149392D01*
X147561392Y-74037822D01*
X147692584Y-73950163D01*
X147692586Y-73950162D01*
X147838358Y-73889781D01*
X147993107Y-73859000D01*
X148150893Y-73859000D01*
X148305642Y-73889781D01*
G37*
G36*
X110415642Y-73889781D02*
G01*
X110561414Y-73950162D01*
X110561416Y-73950163D01*
X110692608Y-74037822D01*
X110804178Y-74149392D01*
X110891837Y-74280584D01*
X110891838Y-74280586D01*
X110952219Y-74426358D01*
X110983000Y-74581107D01*
X110983000Y-74738893D01*
X110952219Y-74893642D01*
X110891838Y-75039414D01*
X110891837Y-75039416D01*
X110804178Y-75170608D01*
X110692608Y-75282178D01*
X110561416Y-75369837D01*
X110561415Y-75369838D01*
X110561414Y-75369838D01*
X110415642Y-75430219D01*
X110260893Y-75461000D01*
X110103107Y-75461000D01*
X109948358Y-75430219D01*
X109802586Y-75369838D01*
X109802585Y-75369838D01*
X109802584Y-75369837D01*
X109671392Y-75282178D01*
X109559822Y-75170608D01*
X109472163Y-75039416D01*
X109472162Y-75039414D01*
X109411781Y-74893642D01*
X109381000Y-74738893D01*
X109381000Y-74581107D01*
X109411781Y-74426358D01*
X109472162Y-74280586D01*
X109472163Y-74280584D01*
X109559822Y-74149392D01*
X109671392Y-74037822D01*
X109802584Y-73950163D01*
X109802586Y-73950162D01*
X109948358Y-73889781D01*
X110103107Y-73859000D01*
X110260893Y-73859000D01*
X110415642Y-73889781D01*
G37*
G36*
X143225642Y-73889781D02*
G01*
X143371414Y-73950162D01*
X143371416Y-73950163D01*
X143502608Y-74037822D01*
X143614178Y-74149392D01*
X143701837Y-74280584D01*
X143701838Y-74280586D01*
X143762219Y-74426358D01*
X143793000Y-74581107D01*
X143793000Y-74738893D01*
X143762219Y-74893642D01*
X143701838Y-75039414D01*
X143701837Y-75039416D01*
X143614178Y-75170608D01*
X143502608Y-75282178D01*
X143371416Y-75369837D01*
X143371415Y-75369838D01*
X143371414Y-75369838D01*
X143225642Y-75430219D01*
X143070893Y-75461000D01*
X142913107Y-75461000D01*
X142758358Y-75430219D01*
X142612586Y-75369838D01*
X142612585Y-75369838D01*
X142612584Y-75369837D01*
X142481392Y-75282178D01*
X142369822Y-75170608D01*
X142282163Y-75039416D01*
X142282162Y-75039414D01*
X142221781Y-74893642D01*
X142191000Y-74738893D01*
X142191000Y-74581107D01*
X142221781Y-74426358D01*
X142282162Y-74280586D01*
X142282163Y-74280584D01*
X142369822Y-74149392D01*
X142481392Y-74037822D01*
X142612584Y-73950163D01*
X142612586Y-73950162D01*
X142758358Y-73889781D01*
X142913107Y-73859000D01*
X143070893Y-73859000D01*
X143225642Y-73889781D01*
G37*
G36*
X149575642Y-71349781D02*
G01*
X149721414Y-71410162D01*
X149721416Y-71410163D01*
X149852608Y-71497822D01*
X149964178Y-71609392D01*
X150051837Y-71740584D01*
X150051838Y-71740586D01*
X150112219Y-71886358D01*
X150143000Y-72041107D01*
X150143000Y-72198893D01*
X150112219Y-72353642D01*
X150051838Y-72499414D01*
X150051837Y-72499416D01*
X149964178Y-72630608D01*
X149852608Y-72742178D01*
X149721416Y-72829837D01*
X149721415Y-72829838D01*
X149721414Y-72829838D01*
X149575642Y-72890219D01*
X149420893Y-72921000D01*
X149263107Y-72921000D01*
X149108358Y-72890219D01*
X148962586Y-72829838D01*
X148962585Y-72829838D01*
X148962584Y-72829837D01*
X148831392Y-72742178D01*
X148719822Y-72630608D01*
X148632163Y-72499416D01*
X148632162Y-72499414D01*
X148571781Y-72353642D01*
X148541000Y-72198893D01*
X148541000Y-72041107D01*
X148571781Y-71886358D01*
X148632162Y-71740586D01*
X148632163Y-71740584D01*
X148719822Y-71609392D01*
X148831392Y-71497822D01*
X148962584Y-71410163D01*
X148962586Y-71410162D01*
X149108358Y-71349781D01*
X149263107Y-71319000D01*
X149420893Y-71319000D01*
X149575642Y-71349781D01*
G37*
G36*
X147035642Y-71349781D02*
G01*
X147181414Y-71410162D01*
X147181416Y-71410163D01*
X147312608Y-71497822D01*
X147424178Y-71609392D01*
X147511837Y-71740584D01*
X147511838Y-71740586D01*
X147572219Y-71886358D01*
X147603000Y-72041107D01*
X147603000Y-72198893D01*
X147572219Y-72353642D01*
X147511838Y-72499414D01*
X147511837Y-72499416D01*
X147424178Y-72630608D01*
X147312608Y-72742178D01*
X147181416Y-72829837D01*
X147181415Y-72829838D01*
X147181414Y-72829838D01*
X147035642Y-72890219D01*
X146880893Y-72921000D01*
X146723107Y-72921000D01*
X146568358Y-72890219D01*
X146422586Y-72829838D01*
X146422585Y-72829838D01*
X146422584Y-72829837D01*
X146291392Y-72742178D01*
X146179822Y-72630608D01*
X146092163Y-72499416D01*
X146092162Y-72499414D01*
X146031781Y-72353642D01*
X146001000Y-72198893D01*
X146001000Y-72041107D01*
X146031781Y-71886358D01*
X146092162Y-71740586D01*
X146092163Y-71740584D01*
X146179822Y-71609392D01*
X146291392Y-71497822D01*
X146422584Y-71410163D01*
X146422586Y-71410162D01*
X146568358Y-71349781D01*
X146723107Y-71319000D01*
X146880893Y-71319000D01*
X147035642Y-71349781D01*
G37*
G36*
X114793000Y-72921000D02*
G01*
X113191000Y-72921000D01*
X113191000Y-71319000D01*
X114793000Y-71319000D01*
X114793000Y-72921000D01*
G37*
G36*
X152683000Y-72921000D02*
G01*
X151081000Y-72921000D01*
X151081000Y-71319000D01*
X152683000Y-71319000D01*
X152683000Y-72921000D01*
G37*
G36*
X111685642Y-71349781D02*
G01*
X111831414Y-71410162D01*
X111831416Y-71410163D01*
X111962608Y-71497822D01*
X112074178Y-71609392D01*
X112161837Y-71740584D01*
X112161838Y-71740586D01*
X112222219Y-71886358D01*
X112253000Y-72041107D01*
X112253000Y-72198893D01*
X112222219Y-72353642D01*
X112161838Y-72499414D01*
X112161837Y-72499416D01*
X112074178Y-72630608D01*
X111962608Y-72742178D01*
X111831416Y-72829837D01*
X111831415Y-72829838D01*
X111831414Y-72829838D01*
X111685642Y-72890219D01*
X111530893Y-72921000D01*
X111373107Y-72921000D01*
X111218358Y-72890219D01*
X111072586Y-72829838D01*
X111072585Y-72829838D01*
X111072584Y-72829837D01*
X110941392Y-72742178D01*
X110829822Y-72630608D01*
X110742163Y-72499416D01*
X110742162Y-72499414D01*
X110681781Y-72353642D01*
X110651000Y-72198893D01*
X110651000Y-72041107D01*
X110681781Y-71886358D01*
X110742162Y-71740586D01*
X110742163Y-71740584D01*
X110829822Y-71609392D01*
X110941392Y-71497822D01*
X111072584Y-71410163D01*
X111072586Y-71410162D01*
X111218358Y-71349781D01*
X111373107Y-71319000D01*
X111530893Y-71319000D01*
X111685642Y-71349781D01*
G37*
G36*
X109145642Y-71349781D02*
G01*
X109291414Y-71410162D01*
X109291416Y-71410163D01*
X109422608Y-71497822D01*
X109534178Y-71609392D01*
X109621837Y-71740584D01*
X109621838Y-71740586D01*
X109682219Y-71886358D01*
X109713000Y-72041107D01*
X109713000Y-72198893D01*
X109682219Y-72353642D01*
X109621838Y-72499414D01*
X109621837Y-72499416D01*
X109534178Y-72630608D01*
X109422608Y-72742178D01*
X109291416Y-72829837D01*
X109291415Y-72829838D01*
X109291414Y-72829838D01*
X109145642Y-72890219D01*
X108990893Y-72921000D01*
X108833107Y-72921000D01*
X108678358Y-72890219D01*
X108532586Y-72829838D01*
X108532585Y-72829838D01*
X108532584Y-72829837D01*
X108401392Y-72742178D01*
X108289822Y-72630608D01*
X108202163Y-72499416D01*
X108202162Y-72499414D01*
X108141781Y-72353642D01*
X108111000Y-72198893D01*
X108111000Y-72041107D01*
X108141781Y-71886358D01*
X108202162Y-71740586D01*
X108202163Y-71740584D01*
X108289822Y-71609392D01*
X108401392Y-71497822D01*
X108532584Y-71410163D01*
X108532586Y-71410162D01*
X108678358Y-71349781D01*
X108833107Y-71319000D01*
X108990893Y-71319000D01*
X109145642Y-71349781D01*
G37*
G36*
X106605642Y-71349781D02*
G01*
X106751414Y-71410162D01*
X106751416Y-71410163D01*
X106882608Y-71497822D01*
X106994178Y-71609392D01*
X107081837Y-71740584D01*
X107081838Y-71740586D01*
X107142219Y-71886358D01*
X107173000Y-72041107D01*
X107173000Y-72198893D01*
X107142219Y-72353642D01*
X107081838Y-72499414D01*
X107081837Y-72499416D01*
X106994178Y-72630608D01*
X106882608Y-72742178D01*
X106751416Y-72829837D01*
X106751415Y-72829838D01*
X106751414Y-72829838D01*
X106605642Y-72890219D01*
X106450893Y-72921000D01*
X106293107Y-72921000D01*
X106138358Y-72890219D01*
X105992586Y-72829838D01*
X105992585Y-72829838D01*
X105992584Y-72829837D01*
X105861392Y-72742178D01*
X105749822Y-72630608D01*
X105662163Y-72499416D01*
X105662162Y-72499414D01*
X105601781Y-72353642D01*
X105571000Y-72198893D01*
X105571000Y-72041107D01*
X105601781Y-71886358D01*
X105662162Y-71740586D01*
X105662163Y-71740584D01*
X105749822Y-71609392D01*
X105861392Y-71497822D01*
X105992584Y-71410163D01*
X105992586Y-71410162D01*
X106138358Y-71349781D01*
X106293107Y-71319000D01*
X106450893Y-71319000D01*
X106605642Y-71349781D01*
G37*
G36*
X144495642Y-71349781D02*
G01*
X144641414Y-71410162D01*
X144641416Y-71410163D01*
X144772608Y-71497822D01*
X144884178Y-71609392D01*
X144971837Y-71740584D01*
X144971838Y-71740586D01*
X145032219Y-71886358D01*
X145063000Y-72041107D01*
X145063000Y-72198893D01*
X145032219Y-72353642D01*
X144971838Y-72499414D01*
X144971837Y-72499416D01*
X144884178Y-72630608D01*
X144772608Y-72742178D01*
X144641416Y-72829837D01*
X144641415Y-72829838D01*
X144641414Y-72829838D01*
X144495642Y-72890219D01*
X144340893Y-72921000D01*
X144183107Y-72921000D01*
X144028358Y-72890219D01*
X143882586Y-72829838D01*
X143882585Y-72829838D01*
X143882584Y-72829837D01*
X143751392Y-72742178D01*
X143639822Y-72630608D01*
X143552163Y-72499416D01*
X143552162Y-72499414D01*
X143491781Y-72353642D01*
X143461000Y-72198893D01*
X143461000Y-72041107D01*
X143491781Y-71886358D01*
X143552162Y-71740586D01*
X143552163Y-71740584D01*
X143639822Y-71609392D01*
X143751392Y-71497822D01*
X143882584Y-71410163D01*
X143882586Y-71410162D01*
X144028358Y-71349781D01*
X144183107Y-71319000D01*
X144340893Y-71319000D01*
X144495642Y-71349781D01*
G37*
G36*
X95977256Y-65973298D02*
G01*
X96083579Y-65994447D01*
X96384042Y-66118903D01*
X96654451Y-66299585D01*
X96884415Y-66529549D01*
X97065097Y-66799958D01*
X97189553Y-67100421D01*
X97253000Y-67419391D01*
X97253000Y-67744609D01*
X97189553Y-68063579D01*
X97065097Y-68364042D01*
X96884415Y-68634451D01*
X96654451Y-68864415D01*
X96384042Y-69045097D01*
X96083579Y-69169553D01*
X95977256Y-69190702D01*
X95764611Y-69233000D01*
X95439389Y-69233000D01*
X95226744Y-69190702D01*
X95120421Y-69169553D01*
X94819958Y-69045097D01*
X94549549Y-68864415D01*
X94319585Y-68634451D01*
X94138903Y-68364042D01*
X94014447Y-68063579D01*
X93951000Y-67744609D01*
X93951000Y-67419391D01*
X94014447Y-67100421D01*
X94138903Y-66799958D01*
X94319585Y-66529549D01*
X94549549Y-66299585D01*
X94819958Y-66118903D01*
X95120421Y-65994447D01*
X95226744Y-65973298D01*
X95439389Y-65931000D01*
X95764611Y-65931000D01*
X95977256Y-65973298D01*
G37*
G36*
X133867256Y-65973298D02*
G01*
X133973579Y-65994447D01*
X134274042Y-66118903D01*
X134544451Y-66299585D01*
X134774415Y-66529549D01*
X134955097Y-66799958D01*
X135079553Y-67100421D01*
X135143000Y-67419391D01*
X135143000Y-67744609D01*
X135079553Y-68063579D01*
X134955097Y-68364042D01*
X134774415Y-68634451D01*
X134544451Y-68864415D01*
X134274042Y-69045097D01*
X133973579Y-69169553D01*
X133867256Y-69190702D01*
X133654611Y-69233000D01*
X133329389Y-69233000D01*
X133116744Y-69190702D01*
X133010421Y-69169553D01*
X132709958Y-69045097D01*
X132439549Y-68864415D01*
X132209585Y-68634451D01*
X132028903Y-68364042D01*
X131904447Y-68063579D01*
X131841000Y-67744609D01*
X131841000Y-67419391D01*
X131904447Y-67100421D01*
X132028903Y-66799958D01*
X132209585Y-66529549D01*
X132439549Y-66299585D01*
X132709958Y-66118903D01*
X133010421Y-65994447D01*
X133116744Y-65973298D01*
X133329389Y-65931000D01*
X133654611Y-65931000D01*
X133867256Y-65973298D01*
G37*
G36*
X161757256Y-65973298D02*
G01*
X161863579Y-65994447D01*
X162164042Y-66118903D01*
X162434451Y-66299585D01*
X162664415Y-66529549D01*
X162845097Y-66799958D01*
X162969553Y-67100421D01*
X163033000Y-67419391D01*
X163033000Y-67744609D01*
X162969553Y-68063579D01*
X162845097Y-68364042D01*
X162664415Y-68634451D01*
X162434451Y-68864415D01*
X162164042Y-69045097D01*
X161863579Y-69169553D01*
X161757256Y-69190702D01*
X161544611Y-69233000D01*
X161219389Y-69233000D01*
X161006744Y-69190702D01*
X160900421Y-69169553D01*
X160599958Y-69045097D01*
X160329549Y-68864415D01*
X160099585Y-68634451D01*
X159918903Y-68364042D01*
X159794447Y-68063579D01*
X159731000Y-67744609D01*
X159731000Y-67419391D01*
X159794447Y-67100421D01*
X159918903Y-66799958D01*
X160099585Y-66529549D01*
X160329549Y-66299585D01*
X160599958Y-66118903D01*
X160900421Y-65994447D01*
X161006744Y-65973298D01*
X161219389Y-65931000D01*
X161544611Y-65931000D01*
X161757256Y-65973298D01*
G37*
G36*
X123867256Y-65973298D02*
G01*
X123973579Y-65994447D01*
X124274042Y-66118903D01*
X124544451Y-66299585D01*
X124774415Y-66529549D01*
X124955097Y-66799958D01*
X125079553Y-67100421D01*
X125143000Y-67419391D01*
X125143000Y-67744609D01*
X125079553Y-68063579D01*
X124955097Y-68364042D01*
X124774415Y-68634451D01*
X124544451Y-68864415D01*
X124274042Y-69045097D01*
X123973579Y-69169553D01*
X123867256Y-69190702D01*
X123654611Y-69233000D01*
X123329389Y-69233000D01*
X123116744Y-69190702D01*
X123010421Y-69169553D01*
X122709958Y-69045097D01*
X122439549Y-68864415D01*
X122209585Y-68634451D01*
X122028903Y-68364042D01*
X121904447Y-68063579D01*
X121841000Y-67744609D01*
X121841000Y-67419391D01*
X121904447Y-67100421D01*
X122028903Y-66799958D01*
X122209585Y-66529549D01*
X122439549Y-66299585D01*
X122709958Y-66118903D01*
X123010421Y-65994447D01*
X123116744Y-65973298D01*
X123329389Y-65931000D01*
X123654611Y-65931000D01*
X123867256Y-65973298D01*
G37*
G36*
X115809208Y-63966093D02*
G01*
X116150617Y-64107510D01*
X116150619Y-64107511D01*
X116457880Y-64312816D01*
X116719184Y-64574120D01*
X116924490Y-64881383D01*
X117065907Y-65222792D01*
X117138000Y-65585229D01*
X117138000Y-65954771D01*
X117065907Y-66317208D01*
X116977952Y-66529549D01*
X116924489Y-66658619D01*
X116719184Y-66965880D01*
X116457880Y-67227184D01*
X116150619Y-67432489D01*
X116150618Y-67432490D01*
X116150617Y-67432490D01*
X115809208Y-67573907D01*
X115446771Y-67646000D01*
X115077229Y-67646000D01*
X114714792Y-67573907D01*
X114373383Y-67432490D01*
X114373382Y-67432490D01*
X114373381Y-67432489D01*
X114066120Y-67227184D01*
X113804816Y-66965880D01*
X113599511Y-66658619D01*
X113546048Y-66529549D01*
X113458093Y-66317208D01*
X113386000Y-65954771D01*
X113386000Y-65585229D01*
X113458093Y-65222792D01*
X113599510Y-64881383D01*
X113804816Y-64574120D01*
X114066120Y-64312816D01*
X114373381Y-64107511D01*
X114373383Y-64107510D01*
X114714792Y-63966093D01*
X115077229Y-63894000D01*
X115446771Y-63894000D01*
X115809208Y-63966093D01*
G37*
G36*
X104379208Y-63966093D02*
G01*
X104720617Y-64107510D01*
X104720619Y-64107511D01*
X105027880Y-64312816D01*
X105289184Y-64574120D01*
X105494490Y-64881383D01*
X105635907Y-65222792D01*
X105708000Y-65585229D01*
X105708000Y-65954771D01*
X105635907Y-66317208D01*
X105547952Y-66529549D01*
X105494489Y-66658619D01*
X105289184Y-66965880D01*
X105027880Y-67227184D01*
X104720619Y-67432489D01*
X104720618Y-67432490D01*
X104720617Y-67432490D01*
X104379208Y-67573907D01*
X104016771Y-67646000D01*
X103647229Y-67646000D01*
X103284792Y-67573907D01*
X102943383Y-67432490D01*
X102943382Y-67432490D01*
X102943381Y-67432489D01*
X102636120Y-67227184D01*
X102374816Y-66965880D01*
X102169511Y-66658619D01*
X102116048Y-66529549D01*
X102028093Y-66317208D01*
X101956000Y-65954771D01*
X101956000Y-65585229D01*
X102028093Y-65222792D01*
X102169510Y-64881383D01*
X102374816Y-64574120D01*
X102636120Y-64312816D01*
X102943381Y-64107511D01*
X102943383Y-64107510D01*
X103284792Y-63966093D01*
X103647229Y-63894000D01*
X104016771Y-63894000D01*
X104379208Y-63966093D01*
G37*
G36*
X153699208Y-63966093D02*
G01*
X154040617Y-64107510D01*
X154040619Y-64107511D01*
X154347880Y-64312816D01*
X154609184Y-64574120D01*
X154814490Y-64881383D01*
X154955907Y-65222792D01*
X155028000Y-65585229D01*
X155028000Y-65954771D01*
X154955907Y-66317208D01*
X154867952Y-66529549D01*
X154814489Y-66658619D01*
X154609184Y-66965880D01*
X154347880Y-67227184D01*
X154040619Y-67432489D01*
X154040618Y-67432490D01*
X154040617Y-67432490D01*
X153699208Y-67573907D01*
X153336771Y-67646000D01*
X152967229Y-67646000D01*
X152604792Y-67573907D01*
X152263383Y-67432490D01*
X152263382Y-67432490D01*
X152263381Y-67432489D01*
X151956120Y-67227184D01*
X151694816Y-66965880D01*
X151489511Y-66658619D01*
X151436048Y-66529549D01*
X151348093Y-66317208D01*
X151276000Y-65954771D01*
X151276000Y-65585229D01*
X151348093Y-65222792D01*
X151489510Y-64881383D01*
X151694816Y-64574120D01*
X151956120Y-64312816D01*
X152263381Y-64107511D01*
X152263383Y-64107510D01*
X152604792Y-63966093D01*
X152967229Y-63894000D01*
X153336771Y-63894000D01*
X153699208Y-63966093D01*
G37*
G36*
X142269208Y-63966093D02*
G01*
X142610617Y-64107510D01*
X142610619Y-64107511D01*
X142917880Y-64312816D01*
X143179184Y-64574120D01*
X143384490Y-64881383D01*
X143525907Y-65222792D01*
X143598000Y-65585229D01*
X143598000Y-65954771D01*
X143525907Y-66317208D01*
X143437952Y-66529549D01*
X143384489Y-66658619D01*
X143179184Y-66965880D01*
X142917880Y-67227184D01*
X142610619Y-67432489D01*
X142610618Y-67432490D01*
X142610617Y-67432490D01*
X142269208Y-67573907D01*
X141906771Y-67646000D01*
X141537229Y-67646000D01*
X141174792Y-67573907D01*
X140833383Y-67432490D01*
X140833382Y-67432490D01*
X140833381Y-67432489D01*
X140526120Y-67227184D01*
X140264816Y-66965880D01*
X140059511Y-66658619D01*
X140006048Y-66529549D01*
X139918093Y-66317208D01*
X139846000Y-65954771D01*
X139846000Y-65585229D01*
X139918093Y-65222792D01*
X140059510Y-64881383D01*
X140264816Y-64574120D01*
X140526120Y-64312816D01*
X140833381Y-64107511D01*
X140833383Y-64107510D01*
X141174792Y-63966093D01*
X141537229Y-63894000D01*
X141906771Y-63894000D01*
X142269208Y-63966093D01*
G37*
M02*
