G04 #@! TF.GenerationSoftware,KiCad,Pcbnew,5.1.5+dfsg1-2build2*
G04 #@! TF.CreationDate,2021-07-15T15:49:03-05:00*
G04 #@! TF.ProjectId,DIN_RAIL_POE_INJECTOR,44494e5f-5241-4494-9c5f-504f455f494e,rev?*
G04 #@! TF.SameCoordinates,Original*
G04 #@! TF.FileFunction,Copper,L2,Bot*
G04 #@! TF.FilePolarity,Positive*
%FSLAX46Y46*%
G04 Gerber Fmt 4.6, Leading zero omitted, Abs format (unit mm)*
G04 Created by KiCad (PCBNEW 5.1.5+dfsg1-2build2) date 2021-07-15 15:49:03*
%MOMM*%
%LPD*%
G04 APERTURE LIST*
%ADD10C,0.010000*%
%ADD11C,1.998980*%
%ADD12C,3.650000*%
%ADD13R,1.500000X1.500000*%
%ADD14C,1.500000*%
%ADD15C,1.600000*%
%ADD16O,1.400000X1.400000*%
%ADD17C,1.400000*%
%ADD18C,1.800000*%
%ADD19R,1.800000X1.800000*%
%ADD20C,2.400000*%
%ADD21R,2.400000X2.400000*%
%ADD22C,0.500000*%
%ADD23C,0.254000*%
G04 APERTURE END LIST*
D10*
G36*
X132286186Y-126373931D02*
G01*
X132202365Y-126818555D01*
X131893080Y-126946053D01*
X131583794Y-127073551D01*
X131212754Y-126821246D01*
X131108843Y-126750996D01*
X131014913Y-126688272D01*
X130935348Y-126635938D01*
X130874530Y-126596857D01*
X130836843Y-126573893D01*
X130826579Y-126568942D01*
X130808090Y-126581676D01*
X130768580Y-126616882D01*
X130712478Y-126670062D01*
X130644213Y-126736718D01*
X130568214Y-126812354D01*
X130488908Y-126892472D01*
X130410725Y-126972574D01*
X130338093Y-127048164D01*
X130275441Y-127114745D01*
X130227197Y-127167818D01*
X130197790Y-127202887D01*
X130190759Y-127214623D01*
X130200877Y-127236260D01*
X130229241Y-127283662D01*
X130272871Y-127352193D01*
X130328782Y-127437215D01*
X130393994Y-127534093D01*
X130431781Y-127589350D01*
X130500657Y-127690248D01*
X130561860Y-127781299D01*
X130612422Y-127857970D01*
X130649372Y-127915728D01*
X130669742Y-127950043D01*
X130672803Y-127957254D01*
X130665864Y-127977748D01*
X130646949Y-128025513D01*
X130618913Y-128093832D01*
X130584609Y-128175989D01*
X130546891Y-128265270D01*
X130508613Y-128354958D01*
X130472630Y-128438338D01*
X130441794Y-128508694D01*
X130418961Y-128559310D01*
X130406983Y-128583471D01*
X130406276Y-128584422D01*
X130387469Y-128589036D01*
X130337382Y-128599328D01*
X130261207Y-128614287D01*
X130164135Y-128632901D01*
X130051357Y-128654159D01*
X129985558Y-128666418D01*
X129865050Y-128689362D01*
X129756203Y-128711195D01*
X129664524Y-128730722D01*
X129595519Y-128746748D01*
X129554696Y-128758079D01*
X129546489Y-128761674D01*
X129538452Y-128786006D01*
X129531967Y-128840959D01*
X129527030Y-128920108D01*
X129523636Y-129017026D01*
X129521782Y-129125287D01*
X129521462Y-129238465D01*
X129522673Y-129350135D01*
X129525410Y-129453868D01*
X129529669Y-129543241D01*
X129535445Y-129611826D01*
X129542733Y-129653197D01*
X129547105Y-129661810D01*
X129573236Y-129672133D01*
X129628607Y-129686892D01*
X129705893Y-129704352D01*
X129797770Y-129722780D01*
X129829842Y-129728741D01*
X129984476Y-129757066D01*
X130106625Y-129779876D01*
X130200327Y-129798080D01*
X130269616Y-129812583D01*
X130318529Y-129824292D01*
X130351103Y-129834115D01*
X130371372Y-129842956D01*
X130383374Y-129851724D01*
X130385053Y-129853457D01*
X130401816Y-129881371D01*
X130427386Y-129935695D01*
X130459212Y-130009777D01*
X130494740Y-130096965D01*
X130531417Y-130190608D01*
X130566689Y-130284052D01*
X130598004Y-130370647D01*
X130622807Y-130443740D01*
X130638546Y-130496678D01*
X130642668Y-130522811D01*
X130642324Y-130523726D01*
X130628359Y-130545086D01*
X130596678Y-130592084D01*
X130550609Y-130659827D01*
X130493482Y-130743423D01*
X130428627Y-130837982D01*
X130410157Y-130864854D01*
X130344301Y-130962275D01*
X130286350Y-131051163D01*
X130239462Y-131126412D01*
X130206793Y-131182920D01*
X130191500Y-131215581D01*
X130190759Y-131219593D01*
X130203608Y-131240684D01*
X130239112Y-131282464D01*
X130292707Y-131340445D01*
X130359829Y-131410135D01*
X130435913Y-131487045D01*
X130516396Y-131566683D01*
X130596713Y-131644561D01*
X130672301Y-131716186D01*
X130738595Y-131777070D01*
X130791031Y-131822721D01*
X130825045Y-131848650D01*
X130834455Y-131852883D01*
X130856357Y-131842912D01*
X130901200Y-131816020D01*
X130961679Y-131776736D01*
X131008211Y-131745117D01*
X131092525Y-131687098D01*
X131192374Y-131618784D01*
X131292527Y-131550579D01*
X131346373Y-131514075D01*
X131528629Y-131390800D01*
X131681619Y-131473520D01*
X131751318Y-131509759D01*
X131810586Y-131537926D01*
X131850689Y-131553991D01*
X131860897Y-131556226D01*
X131873171Y-131539722D01*
X131897387Y-131493082D01*
X131931737Y-131420609D01*
X131974412Y-131326606D01*
X132023606Y-131215374D01*
X132077510Y-131091215D01*
X132134316Y-130958432D01*
X132192218Y-130821327D01*
X132249407Y-130684202D01*
X132304076Y-130551358D01*
X132354416Y-130427098D01*
X132398620Y-130315725D01*
X132434881Y-130221539D01*
X132461391Y-130148844D01*
X132476342Y-130101941D01*
X132478746Y-130085833D01*
X132459689Y-130065286D01*
X132417964Y-130031933D01*
X132362294Y-129992702D01*
X132357622Y-129989599D01*
X132213736Y-129874423D01*
X132097717Y-129740053D01*
X132010570Y-129590784D01*
X131953301Y-129430913D01*
X131926914Y-129264737D01*
X131932415Y-129096552D01*
X131970810Y-128930655D01*
X132043105Y-128771342D01*
X132064374Y-128736487D01*
X132175004Y-128595737D01*
X132305698Y-128482714D01*
X132451936Y-128398003D01*
X132609192Y-128342194D01*
X132772943Y-128315874D01*
X132938667Y-128319630D01*
X133101838Y-128354050D01*
X133257935Y-128419723D01*
X133402433Y-128517235D01*
X133447131Y-128556813D01*
X133560888Y-128680703D01*
X133643782Y-128811124D01*
X133700644Y-128957315D01*
X133732313Y-129102088D01*
X133740131Y-129264860D01*
X133714062Y-129428440D01*
X133656755Y-129587298D01*
X133570856Y-129735906D01*
X133459014Y-129868735D01*
X133323877Y-129980256D01*
X133306117Y-129992011D01*
X133249850Y-130030508D01*
X133207077Y-130063863D01*
X133186628Y-130085160D01*
X133186331Y-130085833D01*
X133190721Y-130108871D01*
X133208124Y-130161157D01*
X133236732Y-130238390D01*
X133274735Y-130336268D01*
X133320326Y-130450491D01*
X133371697Y-130576758D01*
X133427038Y-130710767D01*
X133484542Y-130848218D01*
X133542399Y-130984808D01*
X133598802Y-131116237D01*
X133651942Y-131238205D01*
X133700010Y-131346409D01*
X133741199Y-131436549D01*
X133773699Y-131504323D01*
X133795703Y-131545430D01*
X133804564Y-131556226D01*
X133831640Y-131547819D01*
X133882303Y-131525272D01*
X133947817Y-131492613D01*
X133983841Y-131473520D01*
X134136832Y-131390800D01*
X134319088Y-131514075D01*
X134412125Y-131577228D01*
X134513985Y-131646727D01*
X134609438Y-131712165D01*
X134657250Y-131745117D01*
X134724495Y-131790273D01*
X134781436Y-131826057D01*
X134820646Y-131847938D01*
X134833381Y-131852563D01*
X134851917Y-131840085D01*
X134892941Y-131805252D01*
X134952475Y-131751678D01*
X135026542Y-131682983D01*
X135111165Y-131602781D01*
X135164685Y-131551286D01*
X135258319Y-131459286D01*
X135339241Y-131376999D01*
X135404177Y-131307945D01*
X135449858Y-131255644D01*
X135473011Y-131223616D01*
X135475232Y-131217116D01*
X135464924Y-131192394D01*
X135436439Y-131142405D01*
X135392937Y-131072212D01*
X135337577Y-130986875D01*
X135273520Y-130891456D01*
X135255303Y-130864854D01*
X135188927Y-130768167D01*
X135129378Y-130681117D01*
X135079984Y-130608595D01*
X135044075Y-130555493D01*
X135024981Y-130526703D01*
X135023136Y-130523726D01*
X135025895Y-130500782D01*
X135040538Y-130450336D01*
X135064513Y-130379041D01*
X135095266Y-130293547D01*
X135130244Y-130200507D01*
X135166893Y-130106574D01*
X135202661Y-130018399D01*
X135234994Y-129942634D01*
X135261338Y-129885931D01*
X135279142Y-129854943D01*
X135280407Y-129853457D01*
X135291294Y-129844601D01*
X135309682Y-129835843D01*
X135339606Y-129826277D01*
X135385103Y-129814996D01*
X135450209Y-129801093D01*
X135538961Y-129783663D01*
X135655393Y-129761798D01*
X135803542Y-129734591D01*
X135835618Y-129728741D01*
X135930686Y-129710374D01*
X136013565Y-129692405D01*
X136076930Y-129676569D01*
X136113458Y-129664600D01*
X136118356Y-129661810D01*
X136126427Y-129637072D01*
X136132987Y-129581790D01*
X136138033Y-129502389D01*
X136141559Y-129405296D01*
X136143561Y-129296938D01*
X136144036Y-129183740D01*
X136142977Y-129072128D01*
X136140382Y-128968529D01*
X136136246Y-128879368D01*
X136130563Y-128811072D01*
X136123331Y-128770066D01*
X136118971Y-128761674D01*
X136094698Y-128753208D01*
X136039426Y-128739435D01*
X135958662Y-128721550D01*
X135857912Y-128700748D01*
X135742683Y-128678223D01*
X135679902Y-128666418D01*
X135560787Y-128644151D01*
X135454565Y-128623979D01*
X135366427Y-128606915D01*
X135301566Y-128593969D01*
X135265174Y-128586155D01*
X135259184Y-128584422D01*
X135249061Y-128564890D01*
X135227662Y-128517843D01*
X135197839Y-128450003D01*
X135162445Y-128368091D01*
X135124332Y-128278828D01*
X135086353Y-128188935D01*
X135051360Y-128105135D01*
X135022206Y-128034147D01*
X135001743Y-127982694D01*
X134992823Y-127957497D01*
X134992657Y-127956396D01*
X135002769Y-127936519D01*
X135031117Y-127890777D01*
X135074723Y-127823717D01*
X135130606Y-127739884D01*
X135195787Y-127643826D01*
X135233679Y-127588650D01*
X135302725Y-127487481D01*
X135364050Y-127395630D01*
X135414663Y-127317744D01*
X135451571Y-127258469D01*
X135471782Y-127222451D01*
X135474701Y-127214377D01*
X135462153Y-127195584D01*
X135427463Y-127155457D01*
X135375063Y-127098493D01*
X135309384Y-127029185D01*
X135234856Y-126952031D01*
X135155913Y-126871525D01*
X135076983Y-126792163D01*
X135002500Y-126718440D01*
X134936894Y-126654852D01*
X134884596Y-126605894D01*
X134850039Y-126576061D01*
X134838478Y-126568942D01*
X134819654Y-126578953D01*
X134774631Y-126607078D01*
X134707787Y-126650454D01*
X134623499Y-126706218D01*
X134526144Y-126771506D01*
X134452707Y-126821246D01*
X134081667Y-127073551D01*
X133463095Y-126818555D01*
X133379275Y-126373931D01*
X133295454Y-125929307D01*
X132370006Y-125929307D01*
X132286186Y-126373931D01*
G37*
X132286186Y-126373931D02*
X132202365Y-126818555D01*
X131893080Y-126946053D01*
X131583794Y-127073551D01*
X131212754Y-126821246D01*
X131108843Y-126750996D01*
X131014913Y-126688272D01*
X130935348Y-126635938D01*
X130874530Y-126596857D01*
X130836843Y-126573893D01*
X130826579Y-126568942D01*
X130808090Y-126581676D01*
X130768580Y-126616882D01*
X130712478Y-126670062D01*
X130644213Y-126736718D01*
X130568214Y-126812354D01*
X130488908Y-126892472D01*
X130410725Y-126972574D01*
X130338093Y-127048164D01*
X130275441Y-127114745D01*
X130227197Y-127167818D01*
X130197790Y-127202887D01*
X130190759Y-127214623D01*
X130200877Y-127236260D01*
X130229241Y-127283662D01*
X130272871Y-127352193D01*
X130328782Y-127437215D01*
X130393994Y-127534093D01*
X130431781Y-127589350D01*
X130500657Y-127690248D01*
X130561860Y-127781299D01*
X130612422Y-127857970D01*
X130649372Y-127915728D01*
X130669742Y-127950043D01*
X130672803Y-127957254D01*
X130665864Y-127977748D01*
X130646949Y-128025513D01*
X130618913Y-128093832D01*
X130584609Y-128175989D01*
X130546891Y-128265270D01*
X130508613Y-128354958D01*
X130472630Y-128438338D01*
X130441794Y-128508694D01*
X130418961Y-128559310D01*
X130406983Y-128583471D01*
X130406276Y-128584422D01*
X130387469Y-128589036D01*
X130337382Y-128599328D01*
X130261207Y-128614287D01*
X130164135Y-128632901D01*
X130051357Y-128654159D01*
X129985558Y-128666418D01*
X129865050Y-128689362D01*
X129756203Y-128711195D01*
X129664524Y-128730722D01*
X129595519Y-128746748D01*
X129554696Y-128758079D01*
X129546489Y-128761674D01*
X129538452Y-128786006D01*
X129531967Y-128840959D01*
X129527030Y-128920108D01*
X129523636Y-129017026D01*
X129521782Y-129125287D01*
X129521462Y-129238465D01*
X129522673Y-129350135D01*
X129525410Y-129453868D01*
X129529669Y-129543241D01*
X129535445Y-129611826D01*
X129542733Y-129653197D01*
X129547105Y-129661810D01*
X129573236Y-129672133D01*
X129628607Y-129686892D01*
X129705893Y-129704352D01*
X129797770Y-129722780D01*
X129829842Y-129728741D01*
X129984476Y-129757066D01*
X130106625Y-129779876D01*
X130200327Y-129798080D01*
X130269616Y-129812583D01*
X130318529Y-129824292D01*
X130351103Y-129834115D01*
X130371372Y-129842956D01*
X130383374Y-129851724D01*
X130385053Y-129853457D01*
X130401816Y-129881371D01*
X130427386Y-129935695D01*
X130459212Y-130009777D01*
X130494740Y-130096965D01*
X130531417Y-130190608D01*
X130566689Y-130284052D01*
X130598004Y-130370647D01*
X130622807Y-130443740D01*
X130638546Y-130496678D01*
X130642668Y-130522811D01*
X130642324Y-130523726D01*
X130628359Y-130545086D01*
X130596678Y-130592084D01*
X130550609Y-130659827D01*
X130493482Y-130743423D01*
X130428627Y-130837982D01*
X130410157Y-130864854D01*
X130344301Y-130962275D01*
X130286350Y-131051163D01*
X130239462Y-131126412D01*
X130206793Y-131182920D01*
X130191500Y-131215581D01*
X130190759Y-131219593D01*
X130203608Y-131240684D01*
X130239112Y-131282464D01*
X130292707Y-131340445D01*
X130359829Y-131410135D01*
X130435913Y-131487045D01*
X130516396Y-131566683D01*
X130596713Y-131644561D01*
X130672301Y-131716186D01*
X130738595Y-131777070D01*
X130791031Y-131822721D01*
X130825045Y-131848650D01*
X130834455Y-131852883D01*
X130856357Y-131842912D01*
X130901200Y-131816020D01*
X130961679Y-131776736D01*
X131008211Y-131745117D01*
X131092525Y-131687098D01*
X131192374Y-131618784D01*
X131292527Y-131550579D01*
X131346373Y-131514075D01*
X131528629Y-131390800D01*
X131681619Y-131473520D01*
X131751318Y-131509759D01*
X131810586Y-131537926D01*
X131850689Y-131553991D01*
X131860897Y-131556226D01*
X131873171Y-131539722D01*
X131897387Y-131493082D01*
X131931737Y-131420609D01*
X131974412Y-131326606D01*
X132023606Y-131215374D01*
X132077510Y-131091215D01*
X132134316Y-130958432D01*
X132192218Y-130821327D01*
X132249407Y-130684202D01*
X132304076Y-130551358D01*
X132354416Y-130427098D01*
X132398620Y-130315725D01*
X132434881Y-130221539D01*
X132461391Y-130148844D01*
X132476342Y-130101941D01*
X132478746Y-130085833D01*
X132459689Y-130065286D01*
X132417964Y-130031933D01*
X132362294Y-129992702D01*
X132357622Y-129989599D01*
X132213736Y-129874423D01*
X132097717Y-129740053D01*
X132010570Y-129590784D01*
X131953301Y-129430913D01*
X131926914Y-129264737D01*
X131932415Y-129096552D01*
X131970810Y-128930655D01*
X132043105Y-128771342D01*
X132064374Y-128736487D01*
X132175004Y-128595737D01*
X132305698Y-128482714D01*
X132451936Y-128398003D01*
X132609192Y-128342194D01*
X132772943Y-128315874D01*
X132938667Y-128319630D01*
X133101838Y-128354050D01*
X133257935Y-128419723D01*
X133402433Y-128517235D01*
X133447131Y-128556813D01*
X133560888Y-128680703D01*
X133643782Y-128811124D01*
X133700644Y-128957315D01*
X133732313Y-129102088D01*
X133740131Y-129264860D01*
X133714062Y-129428440D01*
X133656755Y-129587298D01*
X133570856Y-129735906D01*
X133459014Y-129868735D01*
X133323877Y-129980256D01*
X133306117Y-129992011D01*
X133249850Y-130030508D01*
X133207077Y-130063863D01*
X133186628Y-130085160D01*
X133186331Y-130085833D01*
X133190721Y-130108871D01*
X133208124Y-130161157D01*
X133236732Y-130238390D01*
X133274735Y-130336268D01*
X133320326Y-130450491D01*
X133371697Y-130576758D01*
X133427038Y-130710767D01*
X133484542Y-130848218D01*
X133542399Y-130984808D01*
X133598802Y-131116237D01*
X133651942Y-131238205D01*
X133700010Y-131346409D01*
X133741199Y-131436549D01*
X133773699Y-131504323D01*
X133795703Y-131545430D01*
X133804564Y-131556226D01*
X133831640Y-131547819D01*
X133882303Y-131525272D01*
X133947817Y-131492613D01*
X133983841Y-131473520D01*
X134136832Y-131390800D01*
X134319088Y-131514075D01*
X134412125Y-131577228D01*
X134513985Y-131646727D01*
X134609438Y-131712165D01*
X134657250Y-131745117D01*
X134724495Y-131790273D01*
X134781436Y-131826057D01*
X134820646Y-131847938D01*
X134833381Y-131852563D01*
X134851917Y-131840085D01*
X134892941Y-131805252D01*
X134952475Y-131751678D01*
X135026542Y-131682983D01*
X135111165Y-131602781D01*
X135164685Y-131551286D01*
X135258319Y-131459286D01*
X135339241Y-131376999D01*
X135404177Y-131307945D01*
X135449858Y-131255644D01*
X135473011Y-131223616D01*
X135475232Y-131217116D01*
X135464924Y-131192394D01*
X135436439Y-131142405D01*
X135392937Y-131072212D01*
X135337577Y-130986875D01*
X135273520Y-130891456D01*
X135255303Y-130864854D01*
X135188927Y-130768167D01*
X135129378Y-130681117D01*
X135079984Y-130608595D01*
X135044075Y-130555493D01*
X135024981Y-130526703D01*
X135023136Y-130523726D01*
X135025895Y-130500782D01*
X135040538Y-130450336D01*
X135064513Y-130379041D01*
X135095266Y-130293547D01*
X135130244Y-130200507D01*
X135166893Y-130106574D01*
X135202661Y-130018399D01*
X135234994Y-129942634D01*
X135261338Y-129885931D01*
X135279142Y-129854943D01*
X135280407Y-129853457D01*
X135291294Y-129844601D01*
X135309682Y-129835843D01*
X135339606Y-129826277D01*
X135385103Y-129814996D01*
X135450209Y-129801093D01*
X135538961Y-129783663D01*
X135655393Y-129761798D01*
X135803542Y-129734591D01*
X135835618Y-129728741D01*
X135930686Y-129710374D01*
X136013565Y-129692405D01*
X136076930Y-129676569D01*
X136113458Y-129664600D01*
X136118356Y-129661810D01*
X136126427Y-129637072D01*
X136132987Y-129581790D01*
X136138033Y-129502389D01*
X136141559Y-129405296D01*
X136143561Y-129296938D01*
X136144036Y-129183740D01*
X136142977Y-129072128D01*
X136140382Y-128968529D01*
X136136246Y-128879368D01*
X136130563Y-128811072D01*
X136123331Y-128770066D01*
X136118971Y-128761674D01*
X136094698Y-128753208D01*
X136039426Y-128739435D01*
X135958662Y-128721550D01*
X135857912Y-128700748D01*
X135742683Y-128678223D01*
X135679902Y-128666418D01*
X135560787Y-128644151D01*
X135454565Y-128623979D01*
X135366427Y-128606915D01*
X135301566Y-128593969D01*
X135265174Y-128586155D01*
X135259184Y-128584422D01*
X135249061Y-128564890D01*
X135227662Y-128517843D01*
X135197839Y-128450003D01*
X135162445Y-128368091D01*
X135124332Y-128278828D01*
X135086353Y-128188935D01*
X135051360Y-128105135D01*
X135022206Y-128034147D01*
X135001743Y-127982694D01*
X134992823Y-127957497D01*
X134992657Y-127956396D01*
X135002769Y-127936519D01*
X135031117Y-127890777D01*
X135074723Y-127823717D01*
X135130606Y-127739884D01*
X135195787Y-127643826D01*
X135233679Y-127588650D01*
X135302725Y-127487481D01*
X135364050Y-127395630D01*
X135414663Y-127317744D01*
X135451571Y-127258469D01*
X135471782Y-127222451D01*
X135474701Y-127214377D01*
X135462153Y-127195584D01*
X135427463Y-127155457D01*
X135375063Y-127098493D01*
X135309384Y-127029185D01*
X135234856Y-126952031D01*
X135155913Y-126871525D01*
X135076983Y-126792163D01*
X135002500Y-126718440D01*
X134936894Y-126654852D01*
X134884596Y-126605894D01*
X134850039Y-126576061D01*
X134838478Y-126568942D01*
X134819654Y-126578953D01*
X134774631Y-126607078D01*
X134707787Y-126650454D01*
X134623499Y-126706218D01*
X134526144Y-126771506D01*
X134452707Y-126821246D01*
X134081667Y-127073551D01*
X133463095Y-126818555D01*
X133379275Y-126373931D01*
X133295454Y-125929307D01*
X132370006Y-125929307D01*
X132286186Y-126373931D01*
D11*
X132890000Y-142000000D03*
X105000000Y-142000000D03*
D12*
X124660000Y-129397000D03*
X113230000Y-129397000D03*
D13*
X114500000Y-123047000D03*
D14*
X115770000Y-120507000D03*
X117040000Y-123047000D03*
X118310000Y-120507000D03*
X119580000Y-123047000D03*
X120850000Y-120507000D03*
X122120000Y-123047000D03*
X123390000Y-120507000D03*
D15*
X126539000Y-137922000D03*
X121539000Y-137922000D03*
D16*
X126365000Y-143764000D03*
D17*
X126365000Y-141224000D03*
D18*
X121793000Y-141097000D03*
D19*
X121793000Y-143637000D03*
D20*
X116276000Y-140589000D03*
D21*
X112776000Y-140589000D03*
D12*
X113230000Y-108188000D03*
X124660000Y-108188000D03*
D13*
X123390000Y-114538000D03*
D14*
X122120000Y-117078000D03*
X120850000Y-114538000D03*
X119580000Y-117078000D03*
X118310000Y-114538000D03*
X117040000Y-117078000D03*
X115770000Y-114538000D03*
X114500000Y-117078000D03*
D22*
X120453000Y-118745000D02*
X122120000Y-117078000D01*
X117532000Y-118745000D02*
X120453000Y-118745000D01*
X115770000Y-120507000D02*
X117532000Y-118745000D01*
X115786000Y-121793000D02*
X117040000Y-123047000D01*
X112903000Y-114427000D02*
X112903000Y-119888000D01*
X114427000Y-112903000D02*
X112903000Y-114427000D01*
X119253000Y-112903000D02*
X114427000Y-112903000D01*
X114808000Y-121793000D02*
X115786000Y-121793000D01*
X112903000Y-119888000D02*
X114808000Y-121793000D01*
X120100001Y-113750001D02*
X119253000Y-112903000D01*
X120100001Y-113788001D02*
X120100001Y-113750001D01*
X120850000Y-114538000D02*
X120100001Y-113788001D01*
D23*
G36*
X137230001Y-144340000D02*
G01*
X127571406Y-144340000D01*
X127648696Y-144153405D01*
X127700000Y-143895486D01*
X127700000Y-143632514D01*
X127648696Y-143374595D01*
X127549474Y-143135050D01*
X131934555Y-143135050D01*
X132030258Y-143399399D01*
X132319787Y-143540238D01*
X132631229Y-143621885D01*
X132952615Y-143641205D01*
X133271595Y-143597454D01*
X133575911Y-143492314D01*
X133749742Y-143399399D01*
X133845445Y-143135050D01*
X132890000Y-142179605D01*
X131934555Y-143135050D01*
X127549474Y-143135050D01*
X127548061Y-143131641D01*
X127401962Y-142912987D01*
X127216013Y-142727038D01*
X126997359Y-142580939D01*
X126787470Y-142494000D01*
X126997359Y-142407061D01*
X127216013Y-142260962D01*
X127401962Y-142075013D01*
X127410246Y-142062615D01*
X131248795Y-142062615D01*
X131292546Y-142381595D01*
X131397686Y-142685911D01*
X131490601Y-142859742D01*
X131754950Y-142955445D01*
X132710395Y-142000000D01*
X133069605Y-142000000D01*
X134025050Y-142955445D01*
X134289399Y-142859742D01*
X134430238Y-142570213D01*
X134511885Y-142258771D01*
X134531205Y-141937385D01*
X134487454Y-141618405D01*
X134382314Y-141314089D01*
X134289399Y-141140258D01*
X134025050Y-141044555D01*
X133069605Y-142000000D01*
X132710395Y-142000000D01*
X131754950Y-141044555D01*
X131490601Y-141140258D01*
X131349762Y-141429787D01*
X131268115Y-141741229D01*
X131248795Y-142062615D01*
X127410246Y-142062615D01*
X127548061Y-141856359D01*
X127648696Y-141613405D01*
X127700000Y-141355486D01*
X127700000Y-141092514D01*
X127654735Y-140864950D01*
X131934555Y-140864950D01*
X132890000Y-141820395D01*
X133845445Y-140864950D01*
X133749742Y-140600601D01*
X133460213Y-140459762D01*
X133148771Y-140378115D01*
X132827385Y-140358795D01*
X132508405Y-140402546D01*
X132204089Y-140507686D01*
X132030258Y-140600601D01*
X131934555Y-140864950D01*
X127654735Y-140864950D01*
X127648696Y-140834595D01*
X127548061Y-140591641D01*
X127401962Y-140372987D01*
X127216013Y-140187038D01*
X126997359Y-140040939D01*
X126754405Y-139940304D01*
X126496486Y-139889000D01*
X126233514Y-139889000D01*
X125975595Y-139940304D01*
X125732641Y-140040939D01*
X125513987Y-140187038D01*
X125328038Y-140372987D01*
X125181939Y-140591641D01*
X125081304Y-140834595D01*
X125030000Y-141092514D01*
X125030000Y-141355486D01*
X125081304Y-141613405D01*
X125181939Y-141856359D01*
X125328038Y-142075013D01*
X125513987Y-142260962D01*
X125732641Y-142407061D01*
X125942530Y-142494000D01*
X125732641Y-142580939D01*
X125513987Y-142727038D01*
X125328038Y-142912987D01*
X125181939Y-143131641D01*
X125081304Y-143374595D01*
X125030000Y-143632514D01*
X125030000Y-143895486D01*
X125081304Y-144153405D01*
X125158594Y-144340000D01*
X123331072Y-144340000D01*
X123331072Y-142737000D01*
X123318812Y-142612518D01*
X123282502Y-142492820D01*
X123223537Y-142382506D01*
X123144185Y-142285815D01*
X123047494Y-142206463D01*
X122937180Y-142147498D01*
X122918873Y-142141944D01*
X122985312Y-142075505D01*
X123153299Y-141824095D01*
X123269011Y-141544743D01*
X123328000Y-141248184D01*
X123328000Y-140945816D01*
X123269011Y-140649257D01*
X123153299Y-140369905D01*
X122985312Y-140118495D01*
X122771505Y-139904688D01*
X122520095Y-139736701D01*
X122240743Y-139620989D01*
X121944184Y-139562000D01*
X121641816Y-139562000D01*
X121345257Y-139620989D01*
X121065905Y-139736701D01*
X120814495Y-139904688D01*
X120600688Y-140118495D01*
X120432701Y-140369905D01*
X120316989Y-140649257D01*
X120258000Y-140945816D01*
X120258000Y-141248184D01*
X120316989Y-141544743D01*
X120432701Y-141824095D01*
X120600688Y-142075505D01*
X120667127Y-142141944D01*
X120648820Y-142147498D01*
X120538506Y-142206463D01*
X120441815Y-142285815D01*
X120362463Y-142382506D01*
X120303498Y-142492820D01*
X120267188Y-142612518D01*
X120254928Y-142737000D01*
X120254928Y-144340000D01*
X100660000Y-144340000D01*
X100660000Y-143135050D01*
X104044555Y-143135050D01*
X104140258Y-143399399D01*
X104429787Y-143540238D01*
X104741229Y-143621885D01*
X105062615Y-143641205D01*
X105381595Y-143597454D01*
X105685911Y-143492314D01*
X105859742Y-143399399D01*
X105955445Y-143135050D01*
X105000000Y-142179605D01*
X104044555Y-143135050D01*
X100660000Y-143135050D01*
X100660000Y-142062615D01*
X103358795Y-142062615D01*
X103402546Y-142381595D01*
X103507686Y-142685911D01*
X103600601Y-142859742D01*
X103864950Y-142955445D01*
X104820395Y-142000000D01*
X105179605Y-142000000D01*
X106135050Y-142955445D01*
X106399399Y-142859742D01*
X106540238Y-142570213D01*
X106621885Y-142258771D01*
X106641205Y-141937385D01*
X106597454Y-141618405D01*
X106492314Y-141314089D01*
X106399399Y-141140258D01*
X106135050Y-141044555D01*
X105179605Y-142000000D01*
X104820395Y-142000000D01*
X103864950Y-141044555D01*
X103600601Y-141140258D01*
X103459762Y-141429787D01*
X103378115Y-141741229D01*
X103358795Y-142062615D01*
X100660000Y-142062615D01*
X100660000Y-140864950D01*
X104044555Y-140864950D01*
X105000000Y-141820395D01*
X105955445Y-140864950D01*
X105859742Y-140600601D01*
X105570213Y-140459762D01*
X105258771Y-140378115D01*
X104937385Y-140358795D01*
X104618405Y-140402546D01*
X104314089Y-140507686D01*
X104140258Y-140600601D01*
X104044555Y-140864950D01*
X100660000Y-140864950D01*
X100660000Y-139389000D01*
X110937928Y-139389000D01*
X110937928Y-141789000D01*
X110950188Y-141913482D01*
X110986498Y-142033180D01*
X111045463Y-142143494D01*
X111124815Y-142240185D01*
X111221506Y-142319537D01*
X111331820Y-142378502D01*
X111451518Y-142414812D01*
X111576000Y-142427072D01*
X113976000Y-142427072D01*
X114100482Y-142414812D01*
X114220180Y-142378502D01*
X114330494Y-142319537D01*
X114427185Y-142240185D01*
X114506537Y-142143494D01*
X114565502Y-142033180D01*
X114601812Y-141913482D01*
X114614072Y-141789000D01*
X114614072Y-141371838D01*
X114649844Y-141458199D01*
X114850662Y-141758744D01*
X115106256Y-142014338D01*
X115406801Y-142215156D01*
X115740750Y-142353482D01*
X116095268Y-142424000D01*
X116456732Y-142424000D01*
X116811250Y-142353482D01*
X117145199Y-142215156D01*
X117445744Y-142014338D01*
X117701338Y-141758744D01*
X117902156Y-141458199D01*
X118040482Y-141124250D01*
X118111000Y-140769732D01*
X118111000Y-140408268D01*
X118040482Y-140053750D01*
X117902156Y-139719801D01*
X117701338Y-139419256D01*
X117445744Y-139163662D01*
X117145199Y-138962844D01*
X116811250Y-138824518D01*
X116456732Y-138754000D01*
X116095268Y-138754000D01*
X115740750Y-138824518D01*
X115406801Y-138962844D01*
X115106256Y-139163662D01*
X114850662Y-139419256D01*
X114649844Y-139719801D01*
X114614072Y-139806162D01*
X114614072Y-139389000D01*
X114601812Y-139264518D01*
X114565502Y-139144820D01*
X114506537Y-139034506D01*
X114427185Y-138937815D01*
X114330494Y-138858463D01*
X114220180Y-138799498D01*
X114100482Y-138763188D01*
X113976000Y-138750928D01*
X111576000Y-138750928D01*
X111451518Y-138763188D01*
X111331820Y-138799498D01*
X111221506Y-138858463D01*
X111124815Y-138937815D01*
X111045463Y-139034506D01*
X110986498Y-139144820D01*
X110950188Y-139264518D01*
X110937928Y-139389000D01*
X100660000Y-139389000D01*
X100660000Y-137780665D01*
X120104000Y-137780665D01*
X120104000Y-138063335D01*
X120159147Y-138340574D01*
X120267320Y-138601727D01*
X120424363Y-138836759D01*
X120624241Y-139036637D01*
X120859273Y-139193680D01*
X121120426Y-139301853D01*
X121397665Y-139357000D01*
X121680335Y-139357000D01*
X121957574Y-139301853D01*
X122218727Y-139193680D01*
X122453759Y-139036637D01*
X122653637Y-138836759D01*
X122810680Y-138601727D01*
X122918853Y-138340574D01*
X122974000Y-138063335D01*
X122974000Y-137780665D01*
X125104000Y-137780665D01*
X125104000Y-138063335D01*
X125159147Y-138340574D01*
X125267320Y-138601727D01*
X125424363Y-138836759D01*
X125624241Y-139036637D01*
X125859273Y-139193680D01*
X126120426Y-139301853D01*
X126397665Y-139357000D01*
X126680335Y-139357000D01*
X126957574Y-139301853D01*
X127218727Y-139193680D01*
X127453759Y-139036637D01*
X127653637Y-138836759D01*
X127810680Y-138601727D01*
X127918853Y-138340574D01*
X127974000Y-138063335D01*
X127974000Y-137780665D01*
X127918853Y-137503426D01*
X127810680Y-137242273D01*
X127653637Y-137007241D01*
X127453759Y-136807363D01*
X127218727Y-136650320D01*
X126957574Y-136542147D01*
X126680335Y-136487000D01*
X126397665Y-136487000D01*
X126120426Y-136542147D01*
X125859273Y-136650320D01*
X125624241Y-136807363D01*
X125424363Y-137007241D01*
X125267320Y-137242273D01*
X125159147Y-137503426D01*
X125104000Y-137780665D01*
X122974000Y-137780665D01*
X122918853Y-137503426D01*
X122810680Y-137242273D01*
X122653637Y-137007241D01*
X122453759Y-136807363D01*
X122218727Y-136650320D01*
X121957574Y-136542147D01*
X121680335Y-136487000D01*
X121397665Y-136487000D01*
X121120426Y-136542147D01*
X120859273Y-136650320D01*
X120624241Y-136807363D01*
X120424363Y-137007241D01*
X120267320Y-137242273D01*
X120159147Y-137503426D01*
X120104000Y-137780665D01*
X100660000Y-137780665D01*
X100660000Y-134779872D01*
X102765000Y-134779872D01*
X102765000Y-135220128D01*
X102850890Y-135651925D01*
X103019369Y-136058669D01*
X103263962Y-136424729D01*
X103575271Y-136736038D01*
X103941331Y-136980631D01*
X104348075Y-137149110D01*
X104779872Y-137235000D01*
X105220128Y-137235000D01*
X105651925Y-137149110D01*
X106058669Y-136980631D01*
X106424729Y-136736038D01*
X106736038Y-136424729D01*
X106980631Y-136058669D01*
X107149110Y-135651925D01*
X107235000Y-135220128D01*
X107235000Y-134779872D01*
X130655000Y-134779872D01*
X130655000Y-135220128D01*
X130740890Y-135651925D01*
X130909369Y-136058669D01*
X131153962Y-136424729D01*
X131465271Y-136736038D01*
X131831331Y-136980631D01*
X132238075Y-137149110D01*
X132669872Y-137235000D01*
X133110128Y-137235000D01*
X133541925Y-137149110D01*
X133948669Y-136980631D01*
X134314729Y-136736038D01*
X134626038Y-136424729D01*
X134870631Y-136058669D01*
X135039110Y-135651925D01*
X135125000Y-135220128D01*
X135125000Y-134779872D01*
X135039110Y-134348075D01*
X134870631Y-133941331D01*
X134626038Y-133575271D01*
X134314729Y-133263962D01*
X133948669Y-133019369D01*
X133541925Y-132850890D01*
X133110128Y-132765000D01*
X132669872Y-132765000D01*
X132238075Y-132850890D01*
X131831331Y-133019369D01*
X131465271Y-133263962D01*
X131153962Y-133575271D01*
X130909369Y-133941331D01*
X130740890Y-134348075D01*
X130655000Y-134779872D01*
X107235000Y-134779872D01*
X107149110Y-134348075D01*
X106980631Y-133941331D01*
X106736038Y-133575271D01*
X106424729Y-133263962D01*
X106058669Y-133019369D01*
X105651925Y-132850890D01*
X105220128Y-132765000D01*
X104779872Y-132765000D01*
X104348075Y-132850890D01*
X103941331Y-133019369D01*
X103575271Y-133263962D01*
X103263962Y-133575271D01*
X103019369Y-133941331D01*
X102850890Y-134348075D01*
X102765000Y-134779872D01*
X100660000Y-134779872D01*
X100660000Y-129154711D01*
X110770000Y-129154711D01*
X110770000Y-129639289D01*
X110864536Y-130114556D01*
X111049976Y-130562247D01*
X111319193Y-130965159D01*
X111661841Y-131307807D01*
X112064753Y-131577024D01*
X112512444Y-131762464D01*
X112987711Y-131857000D01*
X113472289Y-131857000D01*
X113947556Y-131762464D01*
X114395247Y-131577024D01*
X114798159Y-131307807D01*
X115140807Y-130965159D01*
X115410024Y-130562247D01*
X115595464Y-130114556D01*
X115690000Y-129639289D01*
X115690000Y-129154711D01*
X122200000Y-129154711D01*
X122200000Y-129639289D01*
X122294536Y-130114556D01*
X122479976Y-130562247D01*
X122749193Y-130965159D01*
X123091841Y-131307807D01*
X123494753Y-131577024D01*
X123942444Y-131762464D01*
X124417711Y-131857000D01*
X124902289Y-131857000D01*
X125377556Y-131762464D01*
X125825247Y-131577024D01*
X126228159Y-131307807D01*
X126570807Y-130965159D01*
X126840024Y-130562247D01*
X127025464Y-130114556D01*
X127120000Y-129639289D01*
X127120000Y-129236469D01*
X128881465Y-129236469D01*
X128881465Y-129236655D01*
X128881466Y-129236663D01*
X128881500Y-129245405D01*
X128882711Y-129357075D01*
X128882765Y-129357574D01*
X128882722Y-129358081D01*
X128882896Y-129367016D01*
X128885633Y-129470748D01*
X128885922Y-129473065D01*
X128885772Y-129475403D01*
X128886135Y-129484332D01*
X128890394Y-129573705D01*
X128891438Y-129580834D01*
X128891238Y-129588040D01*
X128891927Y-129596950D01*
X128897703Y-129665535D01*
X128902127Y-129689609D01*
X128903661Y-129714049D01*
X128905150Y-129722860D01*
X128912438Y-129764231D01*
X128919836Y-129790744D01*
X128924289Y-129817898D01*
X128936580Y-129850751D01*
X128946009Y-129884541D01*
X128954590Y-129901536D01*
X128957301Y-129910269D01*
X128962302Y-129919501D01*
X128968057Y-129934884D01*
X128972046Y-129942880D01*
X128976418Y-129951493D01*
X128992769Y-129977146D01*
X129002309Y-129996040D01*
X129007050Y-130002110D01*
X129016793Y-130020097D01*
X129031319Y-130037629D01*
X129043553Y-130056823D01*
X129071069Y-130085604D01*
X129096485Y-130116279D01*
X129114142Y-130130657D01*
X129129869Y-130147107D01*
X129162455Y-130169999D01*
X129193341Y-130195149D01*
X129213446Y-130205820D01*
X129232076Y-130218907D01*
X129268492Y-130235034D01*
X129303670Y-130253705D01*
X129311958Y-130257046D01*
X129338089Y-130267369D01*
X129369423Y-130276328D01*
X129399782Y-130288180D01*
X129408401Y-130290542D01*
X129463771Y-130305301D01*
X129471487Y-130306568D01*
X129478873Y-130309130D01*
X129487576Y-130311160D01*
X129564862Y-130328620D01*
X129568140Y-130329030D01*
X129571284Y-130330036D01*
X129580033Y-130331854D01*
X129671910Y-130350282D01*
X129671976Y-130350289D01*
X129672046Y-130350310D01*
X129680821Y-130352004D01*
X129712892Y-130357965D01*
X129712984Y-130357973D01*
X129714529Y-130358267D01*
X129868030Y-130386385D01*
X129924919Y-130397008D01*
X129934047Y-130420314D01*
X129935814Y-130424994D01*
X129900838Y-130475989D01*
X129882729Y-130502336D01*
X129882656Y-130502468D01*
X129879938Y-130506429D01*
X129814082Y-130603850D01*
X129813665Y-130604620D01*
X129813109Y-130605294D01*
X129808176Y-130612746D01*
X129750226Y-130701634D01*
X129749256Y-130703497D01*
X129747947Y-130705153D01*
X129743169Y-130712704D01*
X129696281Y-130787953D01*
X129693562Y-130793448D01*
X129689919Y-130798383D01*
X129685393Y-130806088D01*
X129652724Y-130862596D01*
X129643138Y-130883696D01*
X129631030Y-130903461D01*
X129627184Y-130911527D01*
X129611891Y-130944188D01*
X129606982Y-130958057D01*
X129600065Y-130971032D01*
X129586180Y-131016835D01*
X129570217Y-131061937D01*
X129568098Y-131076481D01*
X129563828Y-131090565D01*
X129562144Y-131099341D01*
X129561403Y-131103354D01*
X129557892Y-131144607D01*
X129551665Y-131185546D01*
X129552608Y-131206709D01*
X129550812Y-131227810D01*
X129555380Y-131268951D01*
X129557223Y-131310328D01*
X129562259Y-131330908D01*
X129564596Y-131351953D01*
X129577072Y-131391437D01*
X129586914Y-131431655D01*
X129595846Y-131450853D01*
X129602229Y-131471055D01*
X129622137Y-131507364D01*
X129639602Y-131544903D01*
X129644199Y-131552567D01*
X129657048Y-131573658D01*
X129684586Y-131610268D01*
X129710176Y-131648268D01*
X129715915Y-131655118D01*
X129751419Y-131696898D01*
X129757830Y-131703098D01*
X129763117Y-131710283D01*
X129769137Y-131716887D01*
X129822732Y-131774868D01*
X129824306Y-131776268D01*
X129825591Y-131777941D01*
X129831745Y-131784421D01*
X129898868Y-131854111D01*
X129898888Y-131854128D01*
X129904844Y-131860234D01*
X129980928Y-131937144D01*
X129981021Y-131937221D01*
X129985759Y-131941975D01*
X130066242Y-132021613D01*
X130066343Y-132021695D01*
X130070878Y-132026154D01*
X130151195Y-132104032D01*
X130151269Y-132104091D01*
X130156507Y-132109124D01*
X130232095Y-132180749D01*
X130232507Y-132181069D01*
X130232855Y-132181469D01*
X130239395Y-132187559D01*
X130305689Y-132248443D01*
X130308918Y-132250873D01*
X130311656Y-132253855D01*
X130318355Y-132259769D01*
X130370791Y-132305420D01*
X130384129Y-132314914D01*
X130395966Y-132326233D01*
X130403035Y-132331699D01*
X130437049Y-132357628D01*
X130442288Y-132360866D01*
X130446876Y-132364971D01*
X130482189Y-132385872D01*
X130492258Y-132393717D01*
X130509418Y-132402356D01*
X130543300Y-132423297D01*
X130549063Y-132425454D01*
X130554365Y-132428592D01*
X130562489Y-132432315D01*
X130571899Y-132436547D01*
X130588327Y-132442082D01*
X130603824Y-132449884D01*
X130644611Y-132461212D01*
X130660282Y-132467077D01*
X130664627Y-132467790D01*
X130690267Y-132476429D01*
X130707462Y-132478668D01*
X130724174Y-132483310D01*
X130769279Y-132486719D01*
X130814127Y-132492560D01*
X130831431Y-132491417D01*
X130848725Y-132492724D01*
X130893627Y-132487308D01*
X130938762Y-132484326D01*
X130955518Y-132479842D01*
X130972733Y-132477766D01*
X131015732Y-132463731D01*
X131059423Y-132452040D01*
X131074981Y-132444391D01*
X131091473Y-132439008D01*
X131099631Y-132435362D01*
X131121534Y-132425391D01*
X131148971Y-132409500D01*
X131177815Y-132396325D01*
X131185510Y-132391782D01*
X131230353Y-132364890D01*
X131236005Y-132360700D01*
X131242294Y-132357550D01*
X131249822Y-132352735D01*
X131310301Y-132313451D01*
X131312016Y-132312082D01*
X131313954Y-132311060D01*
X131321380Y-132306089D01*
X131367912Y-132274470D01*
X131368026Y-132274375D01*
X131371015Y-132272349D01*
X131454704Y-132214760D01*
X131553136Y-132147416D01*
X131574568Y-132132820D01*
X131612695Y-132148094D01*
X131659193Y-132161630D01*
X131690403Y-132172224D01*
X131699160Y-132175453D01*
X131700579Y-132175679D01*
X131705090Y-132177210D01*
X131713806Y-132179181D01*
X131724014Y-132181416D01*
X131729317Y-132182044D01*
X131732623Y-132183006D01*
X131751453Y-132184664D01*
X131773388Y-132187260D01*
X131822516Y-132195074D01*
X131835326Y-132194590D01*
X131848055Y-132196097D01*
X131897622Y-132192239D01*
X131947333Y-132190363D01*
X131959811Y-132187399D01*
X131972584Y-132186405D01*
X132020460Y-132172993D01*
X132068858Y-132161497D01*
X132080515Y-132156169D01*
X132092860Y-132152711D01*
X132137236Y-132130246D01*
X132182462Y-132109576D01*
X132192863Y-132102085D01*
X132204300Y-132096295D01*
X132243471Y-132065636D01*
X132283817Y-132036578D01*
X132292562Y-132027212D01*
X132302660Y-132019309D01*
X132335124Y-131981632D01*
X132369064Y-131945285D01*
X132374446Y-131938152D01*
X132386720Y-131921648D01*
X132410895Y-131881475D01*
X132437000Y-131842537D01*
X132441173Y-131834635D01*
X132465389Y-131787995D01*
X132468057Y-131781339D01*
X132471832Y-131775240D01*
X132475715Y-131767192D01*
X132510065Y-131694719D01*
X132510335Y-131693966D01*
X132510746Y-131693278D01*
X132514497Y-131685167D01*
X132557172Y-131591164D01*
X132557216Y-131591035D01*
X132559724Y-131585469D01*
X132608918Y-131474237D01*
X132608968Y-131474085D01*
X132610666Y-131470248D01*
X132664570Y-131346089D01*
X132664615Y-131345949D01*
X132665925Y-131342945D01*
X132722731Y-131210162D01*
X132722774Y-131210027D01*
X132723895Y-131207422D01*
X132781797Y-131070318D01*
X132781837Y-131070189D01*
X132782905Y-131067678D01*
X132832699Y-130948284D01*
X132835494Y-130955053D01*
X132835558Y-130955173D01*
X132836624Y-130957772D01*
X132894128Y-131095224D01*
X132894194Y-131095347D01*
X132895230Y-131097840D01*
X132953087Y-131234429D01*
X132953151Y-131234546D01*
X132954270Y-131237205D01*
X133010673Y-131368634D01*
X133010746Y-131368767D01*
X133012072Y-131371868D01*
X133065212Y-131493837D01*
X133065288Y-131493973D01*
X133067057Y-131498031D01*
X133115125Y-131606235D01*
X133115184Y-131606339D01*
X133117903Y-131612400D01*
X133159092Y-131702540D01*
X133159829Y-131703808D01*
X133160312Y-131705194D01*
X133164120Y-131713279D01*
X133196620Y-131781053D01*
X133201674Y-131789391D01*
X133205289Y-131798449D01*
X133209451Y-131806357D01*
X133231455Y-131847464D01*
X133263744Y-131895771D01*
X133295376Y-131944521D01*
X133300860Y-131951297D01*
X133300867Y-131951308D01*
X133300875Y-131951316D01*
X133300998Y-131951468D01*
X133309859Y-131962264D01*
X133353600Y-132006039D01*
X133397038Y-132049705D01*
X133397633Y-132050106D01*
X133398147Y-132050620D01*
X133449308Y-132084897D01*
X133500649Y-132119464D01*
X133501323Y-132119747D01*
X133501916Y-132120144D01*
X133558789Y-132143844D01*
X133615838Y-132167767D01*
X133616540Y-132167911D01*
X133617211Y-132168190D01*
X133677816Y-132180434D01*
X133738214Y-132192778D01*
X133738938Y-132192782D01*
X133739644Y-132192925D01*
X133801542Y-132193165D01*
X133863118Y-132193541D01*
X133863821Y-132193406D01*
X133864549Y-132193409D01*
X133925249Y-132181634D01*
X133985792Y-132170031D01*
X133987095Y-132169636D01*
X133987169Y-132169622D01*
X133987246Y-132169591D01*
X133994344Y-132167441D01*
X134021420Y-132159034D01*
X134052015Y-132146142D01*
X134083670Y-132136106D01*
X134091001Y-132132904D01*
X134152728Y-132175020D01*
X134246981Y-132239635D01*
X134294063Y-132272085D01*
X134294133Y-132272124D01*
X134300461Y-132276437D01*
X134367706Y-132321594D01*
X134372323Y-132324078D01*
X134376423Y-132327345D01*
X134383956Y-132332152D01*
X134440898Y-132367937D01*
X134451837Y-132373402D01*
X134461788Y-132380517D01*
X134469561Y-132384926D01*
X134508771Y-132406807D01*
X134551775Y-132425562D01*
X134576522Y-132437825D01*
X134584831Y-132442328D01*
X134586912Y-132442974D01*
X134593799Y-132446387D01*
X134602177Y-132449495D01*
X134614912Y-132454120D01*
X134620584Y-132455572D01*
X134623262Y-132456740D01*
X134636364Y-132459612D01*
X134659818Y-132465616D01*
X134704117Y-132479374D01*
X134720231Y-132481082D01*
X134735916Y-132485098D01*
X134782205Y-132487653D01*
X134828327Y-132492543D01*
X134844463Y-132491090D01*
X134860632Y-132491982D01*
X134906534Y-132485498D01*
X134952729Y-132481337D01*
X134968273Y-132476777D01*
X134984311Y-132474512D01*
X135028101Y-132459228D01*
X135072586Y-132446179D01*
X135086943Y-132438690D01*
X135102240Y-132433351D01*
X135142218Y-132409858D01*
X135150137Y-132405728D01*
X135155670Y-132403409D01*
X135159424Y-132400883D01*
X135183331Y-132388413D01*
X135190778Y-132383475D01*
X135209315Y-132370996D01*
X135233390Y-132351117D01*
X135259302Y-132333682D01*
X135266154Y-132327946D01*
X135307177Y-132293113D01*
X135310489Y-132289691D01*
X135314365Y-132286918D01*
X135321049Y-132280986D01*
X135380583Y-132227413D01*
X135380816Y-132227157D01*
X135381092Y-132226954D01*
X135387686Y-132220923D01*
X135461753Y-132152229D01*
X135461829Y-132152143D01*
X135466794Y-132147503D01*
X135551417Y-132067301D01*
X135551525Y-132067176D01*
X135554904Y-132063970D01*
X135608425Y-132012475D01*
X135608505Y-132012382D01*
X135613233Y-132007800D01*
X135706866Y-131915800D01*
X135707524Y-131915014D01*
X135708326Y-131914362D01*
X135714636Y-131908034D01*
X135795558Y-131825747D01*
X135797253Y-131823648D01*
X135799311Y-131821899D01*
X135805478Y-131815432D01*
X135870414Y-131746378D01*
X135874882Y-131740585D01*
X135880277Y-131735647D01*
X135886202Y-131728958D01*
X135931883Y-131676657D01*
X135946417Y-131656308D01*
X135963241Y-131637794D01*
X135968526Y-131630589D01*
X135991679Y-131598561D01*
X136003953Y-131577525D01*
X136004777Y-131576535D01*
X136006389Y-131573575D01*
X136022373Y-131551945D01*
X136037159Y-131520616D01*
X136054628Y-131490677D01*
X136060023Y-131475064D01*
X136064504Y-131466834D01*
X136068358Y-131454511D01*
X136075684Y-131438988D01*
X136078633Y-131430552D01*
X136080854Y-131424052D01*
X136087731Y-131394881D01*
X136095423Y-131372620D01*
X136096574Y-131364284D01*
X136101785Y-131347622D01*
X136104250Y-131324805D01*
X136109513Y-131302479D01*
X136110941Y-131262867D01*
X136112234Y-131250902D01*
X136112512Y-131248889D01*
X136112491Y-131248525D01*
X136115201Y-131223438D01*
X136113187Y-131200580D01*
X136114014Y-131177654D01*
X136107719Y-131138505D01*
X136104240Y-131099013D01*
X136097827Y-131076989D01*
X136094184Y-131054331D01*
X136080405Y-131017153D01*
X136069322Y-130979088D01*
X136065940Y-130970816D01*
X136055632Y-130946094D01*
X136039134Y-130915369D01*
X136025353Y-130883332D01*
X136020983Y-130875537D01*
X135992498Y-130825548D01*
X135988250Y-130819542D01*
X135985093Y-130812891D01*
X135980438Y-130805262D01*
X135936936Y-130735069D01*
X135935631Y-130733361D01*
X135934666Y-130731432D01*
X135929854Y-130723902D01*
X135874494Y-130638565D01*
X135874138Y-130638119D01*
X135873873Y-130637609D01*
X135868944Y-130630155D01*
X135804887Y-130534737D01*
X135804799Y-130534631D01*
X135801572Y-130529847D01*
X135783355Y-130503245D01*
X135783327Y-130503211D01*
X135782935Y-130502632D01*
X135729641Y-130425002D01*
X135740571Y-130396990D01*
X135772346Y-130391023D01*
X135918982Y-130364093D01*
X135950447Y-130358355D01*
X135950562Y-130358322D01*
X135957020Y-130357121D01*
X136052088Y-130338754D01*
X136054765Y-130337959D01*
X136057548Y-130337675D01*
X136066294Y-130335842D01*
X136149173Y-130317873D01*
X136154500Y-130316159D01*
X136160055Y-130315415D01*
X136168739Y-130313308D01*
X136232105Y-130297472D01*
X136249555Y-130291247D01*
X136267700Y-130287476D01*
X136276211Y-130284752D01*
X136312739Y-130272783D01*
X136367456Y-130248716D01*
X136370282Y-130247501D01*
X136402228Y-130235410D01*
X136410744Y-130230103D01*
X136422433Y-130225077D01*
X136426934Y-130222555D01*
X136427074Y-130222493D01*
X136427196Y-130222408D01*
X136430229Y-130220708D01*
X136435127Y-130217918D01*
X136470967Y-130192573D01*
X136508235Y-130169348D01*
X136521867Y-130156578D01*
X136537109Y-130145799D01*
X136567340Y-130113979D01*
X136599391Y-130083954D01*
X136610283Y-130068779D01*
X136623141Y-130055245D01*
X136646624Y-130018147D01*
X136672224Y-129982480D01*
X136679957Y-129965488D01*
X136689947Y-129949706D01*
X136705775Y-129908757D01*
X136723962Y-129868794D01*
X136726792Y-129860318D01*
X136734863Y-129835580D01*
X136747505Y-129778408D01*
X136760853Y-129721354D01*
X136761817Y-129713687D01*
X136761832Y-129713620D01*
X136761833Y-129713559D01*
X136761968Y-129712488D01*
X136768528Y-129657206D01*
X136768794Y-129644155D01*
X136771070Y-129631295D01*
X136771699Y-129622381D01*
X136776745Y-129542980D01*
X136776600Y-129538739D01*
X136777225Y-129534544D01*
X136777611Y-129525616D01*
X136781137Y-129428523D01*
X136781061Y-129427289D01*
X136781223Y-129426052D01*
X136781450Y-129417118D01*
X136783452Y-129308761D01*
X136783444Y-129308661D01*
X136783456Y-129308559D01*
X136783555Y-129299624D01*
X136784029Y-129186612D01*
X136784030Y-129186604D01*
X136784007Y-129177668D01*
X136782948Y-129066056D01*
X136782893Y-129065549D01*
X136782938Y-129065036D01*
X136782776Y-129056101D01*
X136780181Y-128952503D01*
X136779892Y-128950164D01*
X136780047Y-128947802D01*
X136779695Y-128938873D01*
X136775559Y-128849712D01*
X136774512Y-128842496D01*
X136774721Y-128835207D01*
X136774042Y-128826296D01*
X136768359Y-128758000D01*
X136763889Y-128733541D01*
X136762327Y-128708725D01*
X136760836Y-128699914D01*
X136753604Y-128658908D01*
X136745407Y-128629553D01*
X136740192Y-128599531D01*
X136728651Y-128569549D01*
X136720010Y-128538605D01*
X136706270Y-128511408D01*
X136702693Y-128502115D01*
X136698193Y-128489457D01*
X136697140Y-128487689D01*
X136695321Y-128482963D01*
X136691256Y-128475005D01*
X136686896Y-128466613D01*
X136672343Y-128444249D01*
X136663688Y-128427117D01*
X136652693Y-128413045D01*
X136634288Y-128382136D01*
X136625737Y-128372630D01*
X136618769Y-128361922D01*
X136588371Y-128330722D01*
X136586785Y-128328692D01*
X136584323Y-128326567D01*
X136584058Y-128326295D01*
X136550755Y-128289272D01*
X136540518Y-128281606D01*
X136531604Y-128272457D01*
X136490608Y-128244232D01*
X136450774Y-128214403D01*
X136439258Y-128208878D01*
X136428724Y-128201626D01*
X136383022Y-128181900D01*
X136376613Y-128178826D01*
X136375178Y-128177943D01*
X136373380Y-128177275D01*
X136338157Y-128160377D01*
X136329740Y-128157376D01*
X136305467Y-128148910D01*
X136281358Y-128143065D01*
X136258101Y-128134419D01*
X136249445Y-128132198D01*
X136194173Y-128118425D01*
X136190257Y-128117847D01*
X136186512Y-128116566D01*
X136177801Y-128114573D01*
X136097036Y-128096688D01*
X136096925Y-128096675D01*
X136096813Y-128096638D01*
X136088074Y-128094771D01*
X135987324Y-128073969D01*
X135987209Y-128073957D01*
X135980695Y-128072636D01*
X135865466Y-128050111D01*
X135865305Y-128050096D01*
X135860952Y-128049246D01*
X135798171Y-128037441D01*
X135798129Y-128037437D01*
X135797504Y-128037316D01*
X135712940Y-128021508D01*
X135724383Y-128004643D01*
X135761251Y-127950959D01*
X135761300Y-127950871D01*
X135762301Y-127949425D01*
X135831347Y-127848256D01*
X135831409Y-127848143D01*
X135834994Y-127842854D01*
X135896319Y-127751003D01*
X135896351Y-127750943D01*
X135900695Y-127744360D01*
X135951308Y-127666474D01*
X135952106Y-127664936D01*
X135953177Y-127663580D01*
X135957953Y-127656028D01*
X135994861Y-127596753D01*
X135999358Y-127587658D01*
X136005277Y-127579420D01*
X136009704Y-127571658D01*
X136029915Y-127535640D01*
X136049252Y-127491585D01*
X136050944Y-127488158D01*
X136063521Y-127465156D01*
X136065666Y-127458340D01*
X136070559Y-127448430D01*
X136073656Y-127440047D01*
X136076575Y-127431973D01*
X136078172Y-127425698D01*
X136080117Y-127421266D01*
X136085644Y-127396332D01*
X136087599Y-127388648D01*
X136101018Y-127346010D01*
X136102970Y-127328240D01*
X136107376Y-127310925D01*
X136109774Y-127266305D01*
X136114658Y-127221851D01*
X136113121Y-127204037D01*
X136114080Y-127186198D01*
X136107765Y-127141957D01*
X136103922Y-127097407D01*
X136098956Y-127080238D01*
X136096431Y-127062546D01*
X136081638Y-127020360D01*
X136069218Y-126977419D01*
X136061012Y-126961541D01*
X136055098Y-126944676D01*
X136032401Y-126906180D01*
X136024480Y-126890854D01*
X136022754Y-126886835D01*
X136021330Y-126884759D01*
X136011871Y-126866456D01*
X136006960Y-126858990D01*
X135994412Y-126840197D01*
X135972061Y-126812920D01*
X135952109Y-126783827D01*
X135946312Y-126777026D01*
X135911622Y-126736899D01*
X135907693Y-126733163D01*
X135904491Y-126728790D01*
X135898487Y-126722171D01*
X135846087Y-126665208D01*
X135845884Y-126665026D01*
X135845712Y-126664799D01*
X135839610Y-126658270D01*
X135773931Y-126588962D01*
X135773826Y-126588871D01*
X135769698Y-126584538D01*
X135695170Y-126507384D01*
X135695053Y-126507285D01*
X135691819Y-126503940D01*
X135612875Y-126423434D01*
X135612754Y-126423332D01*
X135609695Y-126420214D01*
X135530765Y-126340851D01*
X135530641Y-126340749D01*
X135527205Y-126337300D01*
X135452722Y-126263577D01*
X135452627Y-126263499D01*
X135447925Y-126258879D01*
X135382319Y-126195291D01*
X135381466Y-126194613D01*
X135380758Y-126193783D01*
X135374277Y-126187630D01*
X135321979Y-126138672D01*
X135315281Y-126133531D01*
X135309543Y-126127333D01*
X135302819Y-126121446D01*
X135268262Y-126091613D01*
X135230040Y-126064646D01*
X135193193Y-126035833D01*
X135185616Y-126031095D01*
X135174056Y-126023976D01*
X135168660Y-126021341D01*
X135166200Y-126019606D01*
X135158726Y-126016278D01*
X135146751Y-126008080D01*
X135103810Y-125989680D01*
X135061813Y-125969175D01*
X135046504Y-125965123D01*
X135031941Y-125958883D01*
X134986219Y-125949169D01*
X134941064Y-125937218D01*
X134925261Y-125936217D01*
X134909762Y-125932924D01*
X134863038Y-125932276D01*
X134816408Y-125929322D01*
X134800705Y-125931411D01*
X134784868Y-125931191D01*
X134738917Y-125939629D01*
X134692592Y-125945791D01*
X134677591Y-125950891D01*
X134662016Y-125953751D01*
X134618578Y-125970953D01*
X134574333Y-125985995D01*
X134560614Y-125993908D01*
X134545885Y-125999741D01*
X134537967Y-126003882D01*
X134519143Y-126013893D01*
X134504288Y-126023764D01*
X134488191Y-126031474D01*
X134480580Y-126036156D01*
X134435556Y-126064281D01*
X134434720Y-126064925D01*
X134433778Y-126065396D01*
X134426248Y-126070208D01*
X134359404Y-126113584D01*
X134359289Y-126113676D01*
X134354658Y-126116694D01*
X134270369Y-126172458D01*
X134270246Y-126172558D01*
X134267038Y-126174677D01*
X134169683Y-126239965D01*
X134169573Y-126240056D01*
X134167239Y-126241613D01*
X134093802Y-126291352D01*
X134093747Y-126291398D01*
X134092830Y-126292012D01*
X134023937Y-126338859D01*
X134008197Y-126255367D01*
X134008197Y-126255366D01*
X133924376Y-125810742D01*
X133924181Y-125810074D01*
X133924118Y-125809383D01*
X133906648Y-125750026D01*
X133889368Y-125690842D01*
X133889049Y-125690229D01*
X133888852Y-125689559D01*
X133860163Y-125634683D01*
X133831739Y-125580025D01*
X133831305Y-125579483D01*
X133830983Y-125578867D01*
X133792351Y-125530818D01*
X133753684Y-125482511D01*
X133753151Y-125482062D01*
X133752717Y-125481522D01*
X133705381Y-125441803D01*
X133658173Y-125402017D01*
X133657567Y-125401682D01*
X133657033Y-125401234D01*
X133602605Y-125371312D01*
X133548847Y-125341607D01*
X133548190Y-125341397D01*
X133547577Y-125341060D01*
X133488530Y-125322330D01*
X133429870Y-125303582D01*
X133429179Y-125303503D01*
X133428517Y-125303293D01*
X133367115Y-125296405D01*
X133305773Y-125289390D01*
X133305081Y-125289447D01*
X133304390Y-125289369D01*
X133295454Y-125289307D01*
X132370006Y-125289307D01*
X132369316Y-125289375D01*
X132368621Y-125289308D01*
X132306946Y-125295490D01*
X132245696Y-125301496D01*
X132245032Y-125301696D01*
X132244338Y-125301766D01*
X132185190Y-125319764D01*
X132126121Y-125337598D01*
X132125506Y-125337925D01*
X132124842Y-125338127D01*
X132070382Y-125367234D01*
X132015835Y-125396237D01*
X132015297Y-125396676D01*
X132014683Y-125397004D01*
X131966722Y-125436293D01*
X131919040Y-125475182D01*
X131918600Y-125475714D01*
X131918058Y-125476158D01*
X131878593Y-125524074D01*
X131839422Y-125571424D01*
X131839092Y-125572034D01*
X131838649Y-125572572D01*
X131809371Y-125627003D01*
X131780014Y-125681297D01*
X131779808Y-125681962D01*
X131779479Y-125682574D01*
X131761338Y-125741628D01*
X131743078Y-125800617D01*
X131743005Y-125801308D01*
X131742801Y-125801973D01*
X131741084Y-125810743D01*
X131657269Y-126255340D01*
X131657264Y-126255366D01*
X131641524Y-126338859D01*
X131572630Y-126292012D01*
X131572552Y-126291970D01*
X131571202Y-126291043D01*
X131467291Y-126220793D01*
X131467157Y-126220720D01*
X131464259Y-126218756D01*
X131370329Y-126156032D01*
X131370187Y-126155956D01*
X131366614Y-126153570D01*
X131287049Y-126101236D01*
X131286948Y-126101183D01*
X131281331Y-126097518D01*
X131220513Y-126058437D01*
X131217671Y-126056981D01*
X131215149Y-126055028D01*
X131207551Y-126050325D01*
X131169864Y-126027361D01*
X131145668Y-126015687D01*
X131122921Y-126001390D01*
X131114899Y-125997451D01*
X131104635Y-125992500D01*
X131086202Y-125985736D01*
X131068847Y-125976569D01*
X131057643Y-125973220D01*
X131057366Y-125973086D01*
X131056074Y-125972750D01*
X131027693Y-125964266D01*
X130987374Y-125949471D01*
X130967989Y-125946418D01*
X130949174Y-125940793D01*
X130906399Y-125936717D01*
X130863989Y-125930037D01*
X130844380Y-125930807D01*
X130824831Y-125928944D01*
X130782095Y-125933252D01*
X130739179Y-125934937D01*
X130720086Y-125939503D01*
X130700555Y-125941472D01*
X130659467Y-125954000D01*
X130617698Y-125963989D01*
X130599859Y-125972175D01*
X130581079Y-125977901D01*
X130543202Y-125998173D01*
X130504174Y-126016082D01*
X130488268Y-126027574D01*
X130470954Y-126036841D01*
X130463559Y-126041859D01*
X130445070Y-126054593D01*
X130417968Y-126077461D01*
X130389030Y-126097952D01*
X130382317Y-126103851D01*
X130342806Y-126139057D01*
X130339135Y-126143036D01*
X130334818Y-126146297D01*
X130328290Y-126152399D01*
X130272187Y-126205579D01*
X130272009Y-126205784D01*
X130271795Y-126205951D01*
X130265358Y-126212150D01*
X130197093Y-126278805D01*
X130196999Y-126278916D01*
X130192749Y-126283088D01*
X130116750Y-126358724D01*
X130116651Y-126358844D01*
X130113366Y-126362117D01*
X130034061Y-126442234D01*
X130033961Y-126442357D01*
X130030907Y-126445443D01*
X129952724Y-126525545D01*
X129952628Y-126525665D01*
X129949237Y-126529145D01*
X129876605Y-126604735D01*
X129876526Y-126604835D01*
X129872002Y-126609577D01*
X129809349Y-126676158D01*
X129808709Y-126676988D01*
X129807917Y-126677684D01*
X129801861Y-126684255D01*
X129753617Y-126737328D01*
X129748632Y-126744023D01*
X129742584Y-126749786D01*
X129736795Y-126756593D01*
X129707388Y-126791662D01*
X129681363Y-126829698D01*
X129653422Y-126866341D01*
X129648776Y-126873974D01*
X129641745Y-126885710D01*
X129638846Y-126891835D01*
X129636854Y-126894747D01*
X129631012Y-126908390D01*
X129616968Y-126938066D01*
X129591437Y-126990092D01*
X129590261Y-126994500D01*
X129588315Y-126998612D01*
X129574192Y-127054732D01*
X129559240Y-127110777D01*
X129558943Y-127115328D01*
X129557832Y-127119741D01*
X129554876Y-127177572D01*
X129551096Y-127235418D01*
X129551688Y-127239935D01*
X129551455Y-127244485D01*
X129559798Y-127301847D01*
X129567319Y-127359266D01*
X129568776Y-127363580D01*
X129569432Y-127368091D01*
X129588744Y-127422704D01*
X129594415Y-127439496D01*
X129595365Y-127443515D01*
X129596941Y-127446973D01*
X129607286Y-127477605D01*
X129611015Y-127485726D01*
X129621133Y-127507363D01*
X129635483Y-127531568D01*
X129647152Y-127557179D01*
X129651687Y-127564879D01*
X129680051Y-127612281D01*
X129682677Y-127615830D01*
X129684620Y-127619800D01*
X129689367Y-127627371D01*
X129732997Y-127695902D01*
X129733155Y-127696103D01*
X129733275Y-127696340D01*
X129738133Y-127703840D01*
X129794044Y-127788862D01*
X129794118Y-127788953D01*
X129797860Y-127794597D01*
X129863072Y-127891475D01*
X129863171Y-127891595D01*
X129865706Y-127895358D01*
X129903178Y-127950153D01*
X129903195Y-127950178D01*
X129951965Y-128021623D01*
X129933074Y-128025184D01*
X129868337Y-128037245D01*
X129868221Y-128037278D01*
X129865856Y-128037712D01*
X129745348Y-128060656D01*
X129745223Y-128060693D01*
X129739183Y-128061861D01*
X129630336Y-128083694D01*
X129630262Y-128083716D01*
X129622878Y-128085236D01*
X129531199Y-128104763D01*
X129529861Y-128105188D01*
X129528460Y-128105352D01*
X129519742Y-128107314D01*
X129450736Y-128123340D01*
X129442046Y-128126277D01*
X129432976Y-128127732D01*
X129424349Y-128130063D01*
X129383526Y-128141394D01*
X129345284Y-128156160D01*
X129306116Y-128168326D01*
X129297906Y-128171855D01*
X129289699Y-128175450D01*
X129277651Y-128182198D01*
X129264714Y-128187041D01*
X129223240Y-128212677D01*
X129180725Y-128236492D01*
X129170219Y-128245451D01*
X129158467Y-128252715D01*
X129122760Y-128285921D01*
X129085682Y-128317538D01*
X129077117Y-128328366D01*
X129066999Y-128337775D01*
X129038429Y-128377275D01*
X129008191Y-128415501D01*
X129001889Y-128427793D01*
X128993796Y-128438982D01*
X128973443Y-128483275D01*
X128951205Y-128526650D01*
X128947412Y-128539926D01*
X128941644Y-128552479D01*
X128938782Y-128560945D01*
X128930745Y-128585277D01*
X128917581Y-128643793D01*
X128903971Y-128702133D01*
X128903364Y-128706985D01*
X128903330Y-128707137D01*
X128903326Y-128707290D01*
X128902862Y-128711000D01*
X128896377Y-128765953D01*
X128896116Y-128779178D01*
X128893827Y-128792201D01*
X128893208Y-128801116D01*
X128888271Y-128880265D01*
X128888423Y-128884546D01*
X128887797Y-128888781D01*
X128887422Y-128897710D01*
X128884028Y-128994627D01*
X128884107Y-128995884D01*
X128883945Y-128997134D01*
X128883730Y-129006067D01*
X128881876Y-129114328D01*
X128881885Y-129114433D01*
X128881872Y-129114542D01*
X128881785Y-129123478D01*
X128881466Y-129236464D01*
X128881465Y-129236469D01*
X127120000Y-129236469D01*
X127120000Y-129154711D01*
X127025464Y-128679444D01*
X126840024Y-128231753D01*
X126570807Y-127828841D01*
X126228159Y-127486193D01*
X125825247Y-127216976D01*
X125377556Y-127031536D01*
X124902289Y-126937000D01*
X124417711Y-126937000D01*
X123942444Y-127031536D01*
X123494753Y-127216976D01*
X123091841Y-127486193D01*
X122749193Y-127828841D01*
X122479976Y-128231753D01*
X122294536Y-128679444D01*
X122200000Y-129154711D01*
X115690000Y-129154711D01*
X115595464Y-128679444D01*
X115410024Y-128231753D01*
X115140807Y-127828841D01*
X114798159Y-127486193D01*
X114395247Y-127216976D01*
X113947556Y-127031536D01*
X113472289Y-126937000D01*
X112987711Y-126937000D01*
X112512444Y-127031536D01*
X112064753Y-127216976D01*
X111661841Y-127486193D01*
X111319193Y-127828841D01*
X111049976Y-128231753D01*
X110864536Y-128679444D01*
X110770000Y-129154711D01*
X100660000Y-129154711D01*
X100660000Y-122279872D01*
X102765000Y-122279872D01*
X102765000Y-122720128D01*
X102850890Y-123151925D01*
X103019369Y-123558669D01*
X103263962Y-123924729D01*
X103575271Y-124236038D01*
X103941331Y-124480631D01*
X104348075Y-124649110D01*
X104779872Y-124735000D01*
X105220128Y-124735000D01*
X105651925Y-124649110D01*
X106058669Y-124480631D01*
X106424729Y-124236038D01*
X106736038Y-123924729D01*
X106980631Y-123558669D01*
X107149110Y-123151925D01*
X107235000Y-122720128D01*
X107235000Y-122279872D01*
X107149110Y-121848075D01*
X106980631Y-121441331D01*
X106736038Y-121075271D01*
X106424729Y-120763962D01*
X106058669Y-120519369D01*
X105651925Y-120350890D01*
X105220128Y-120265000D01*
X104779872Y-120265000D01*
X104348075Y-120350890D01*
X103941331Y-120519369D01*
X103575271Y-120763962D01*
X103263962Y-121075271D01*
X103019369Y-121441331D01*
X102850890Y-121848075D01*
X102765000Y-122279872D01*
X100660000Y-122279872D01*
X100660000Y-114427000D01*
X112013719Y-114427000D01*
X112018000Y-114470469D01*
X112018001Y-119844521D01*
X112013719Y-119888000D01*
X112030805Y-120061490D01*
X112081412Y-120228313D01*
X112163590Y-120382059D01*
X112246468Y-120483046D01*
X112246471Y-120483049D01*
X112274184Y-120516817D01*
X112307951Y-120544529D01*
X113483076Y-121719655D01*
X113395506Y-121766463D01*
X113298815Y-121845815D01*
X113219463Y-121942506D01*
X113160498Y-122052820D01*
X113124188Y-122172518D01*
X113111928Y-122297000D01*
X113111928Y-123797000D01*
X113124188Y-123921482D01*
X113160498Y-124041180D01*
X113219463Y-124151494D01*
X113298815Y-124248185D01*
X113395506Y-124327537D01*
X113505820Y-124386502D01*
X113625518Y-124422812D01*
X113750000Y-124435072D01*
X115250000Y-124435072D01*
X115374482Y-124422812D01*
X115494180Y-124386502D01*
X115604494Y-124327537D01*
X115701185Y-124248185D01*
X115780537Y-124151494D01*
X115839502Y-124041180D01*
X115875812Y-123921482D01*
X115886445Y-123813517D01*
X115964201Y-123929886D01*
X116157114Y-124122799D01*
X116383957Y-124274371D01*
X116636011Y-124378775D01*
X116903589Y-124432000D01*
X117176411Y-124432000D01*
X117443989Y-124378775D01*
X117696043Y-124274371D01*
X117922886Y-124122799D01*
X118115799Y-123929886D01*
X118267371Y-123703043D01*
X118310000Y-123600127D01*
X118352629Y-123703043D01*
X118504201Y-123929886D01*
X118697114Y-124122799D01*
X118923957Y-124274371D01*
X119176011Y-124378775D01*
X119443589Y-124432000D01*
X119716411Y-124432000D01*
X119983989Y-124378775D01*
X120236043Y-124274371D01*
X120462886Y-124122799D01*
X120655799Y-123929886D01*
X120807371Y-123703043D01*
X120850000Y-123600127D01*
X120892629Y-123703043D01*
X121044201Y-123929886D01*
X121237114Y-124122799D01*
X121463957Y-124274371D01*
X121716011Y-124378775D01*
X121983589Y-124432000D01*
X122256411Y-124432000D01*
X122523989Y-124378775D01*
X122776043Y-124274371D01*
X123002886Y-124122799D01*
X123195799Y-123929886D01*
X123347371Y-123703043D01*
X123451775Y-123450989D01*
X123505000Y-123183411D01*
X123505000Y-122910589D01*
X123451775Y-122643011D01*
X123347371Y-122390957D01*
X123273147Y-122279872D01*
X130655000Y-122279872D01*
X130655000Y-122720128D01*
X130740890Y-123151925D01*
X130909369Y-123558669D01*
X131153962Y-123924729D01*
X131465271Y-124236038D01*
X131831331Y-124480631D01*
X132238075Y-124649110D01*
X132669872Y-124735000D01*
X133110128Y-124735000D01*
X133541925Y-124649110D01*
X133948669Y-124480631D01*
X134314729Y-124236038D01*
X134626038Y-123924729D01*
X134870631Y-123558669D01*
X135039110Y-123151925D01*
X135125000Y-122720128D01*
X135125000Y-122279872D01*
X135039110Y-121848075D01*
X134870631Y-121441331D01*
X134626038Y-121075271D01*
X134314729Y-120763962D01*
X133948669Y-120519369D01*
X133541925Y-120350890D01*
X133110128Y-120265000D01*
X132669872Y-120265000D01*
X132238075Y-120350890D01*
X131831331Y-120519369D01*
X131465271Y-120763962D01*
X131153962Y-121075271D01*
X130909369Y-121441331D01*
X130740890Y-121848075D01*
X130655000Y-122279872D01*
X123273147Y-122279872D01*
X123195799Y-122164114D01*
X123002886Y-121971201D01*
X122776043Y-121819629D01*
X122523989Y-121715225D01*
X122256411Y-121662000D01*
X121983589Y-121662000D01*
X121716011Y-121715225D01*
X121463957Y-121819629D01*
X121237114Y-121971201D01*
X121044201Y-122164114D01*
X120892629Y-122390957D01*
X120850000Y-122493873D01*
X120807371Y-122390957D01*
X120655799Y-122164114D01*
X120462886Y-121971201D01*
X120236043Y-121819629D01*
X119983989Y-121715225D01*
X119716411Y-121662000D01*
X119443589Y-121662000D01*
X119176011Y-121715225D01*
X118923957Y-121819629D01*
X118697114Y-121971201D01*
X118504201Y-122164114D01*
X118352629Y-122390957D01*
X118310000Y-122493873D01*
X118267371Y-122390957D01*
X118115799Y-122164114D01*
X117922886Y-121971201D01*
X117696043Y-121819629D01*
X117443989Y-121715225D01*
X117176411Y-121662000D01*
X116906578Y-121662000D01*
X116740132Y-121495553D01*
X116845799Y-121389886D01*
X116997371Y-121163043D01*
X117040000Y-121060127D01*
X117082629Y-121163043D01*
X117234201Y-121389886D01*
X117427114Y-121582799D01*
X117653957Y-121734371D01*
X117906011Y-121838775D01*
X118173589Y-121892000D01*
X118446411Y-121892000D01*
X118713989Y-121838775D01*
X118966043Y-121734371D01*
X119192886Y-121582799D01*
X119385799Y-121389886D01*
X119537371Y-121163043D01*
X119580000Y-121060127D01*
X119622629Y-121163043D01*
X119774201Y-121389886D01*
X119967114Y-121582799D01*
X120193957Y-121734371D01*
X120446011Y-121838775D01*
X120713589Y-121892000D01*
X120986411Y-121892000D01*
X121253989Y-121838775D01*
X121506043Y-121734371D01*
X121732886Y-121582799D01*
X121925799Y-121389886D01*
X122077371Y-121163043D01*
X122120000Y-121060127D01*
X122162629Y-121163043D01*
X122314201Y-121389886D01*
X122507114Y-121582799D01*
X122733957Y-121734371D01*
X122986011Y-121838775D01*
X123253589Y-121892000D01*
X123526411Y-121892000D01*
X123793989Y-121838775D01*
X124046043Y-121734371D01*
X124272886Y-121582799D01*
X124465799Y-121389886D01*
X124617371Y-121163043D01*
X124721775Y-120910989D01*
X124775000Y-120643411D01*
X124775000Y-120370589D01*
X124721775Y-120103011D01*
X124617371Y-119850957D01*
X124465799Y-119624114D01*
X124272886Y-119431201D01*
X124046043Y-119279629D01*
X123793989Y-119175225D01*
X123526411Y-119122000D01*
X123253589Y-119122000D01*
X122986011Y-119175225D01*
X122733957Y-119279629D01*
X122507114Y-119431201D01*
X122314201Y-119624114D01*
X122162629Y-119850957D01*
X122120000Y-119953873D01*
X122077371Y-119850957D01*
X121925799Y-119624114D01*
X121732886Y-119431201D01*
X121506043Y-119279629D01*
X121268389Y-119181190D01*
X121986579Y-118463000D01*
X122256411Y-118463000D01*
X122523989Y-118409775D01*
X122776043Y-118305371D01*
X123002886Y-118153799D01*
X123195799Y-117960886D01*
X123347371Y-117734043D01*
X123451775Y-117481989D01*
X123505000Y-117214411D01*
X123505000Y-116941589D01*
X123451775Y-116674011D01*
X123347371Y-116421957D01*
X123195799Y-116195114D01*
X123002886Y-116002201D01*
X122888951Y-115926072D01*
X124140000Y-115926072D01*
X124264482Y-115913812D01*
X124384180Y-115877502D01*
X124494494Y-115818537D01*
X124591185Y-115739185D01*
X124670537Y-115642494D01*
X124729502Y-115532180D01*
X124765812Y-115412482D01*
X124778072Y-115288000D01*
X124778072Y-113788000D01*
X124765812Y-113663518D01*
X124729502Y-113543820D01*
X124670537Y-113433506D01*
X124591185Y-113336815D01*
X124494494Y-113257463D01*
X124384180Y-113198498D01*
X124264482Y-113162188D01*
X124140000Y-113149928D01*
X122640000Y-113149928D01*
X122515518Y-113162188D01*
X122395820Y-113198498D01*
X122285506Y-113257463D01*
X122188815Y-113336815D01*
X122109463Y-113433506D01*
X122050498Y-113543820D01*
X122014188Y-113663518D01*
X122003555Y-113771483D01*
X121925799Y-113655114D01*
X121732886Y-113462201D01*
X121506043Y-113310629D01*
X121253989Y-113206225D01*
X120986411Y-113153000D01*
X120754929Y-113153000D01*
X120728818Y-113121184D01*
X120695050Y-113093471D01*
X119909534Y-112307956D01*
X119881817Y-112274183D01*
X119747059Y-112163589D01*
X119593313Y-112081411D01*
X119426490Y-112030805D01*
X119296477Y-112018000D01*
X119296469Y-112018000D01*
X119253000Y-112013719D01*
X119209531Y-112018000D01*
X114470465Y-112018000D01*
X114426999Y-112013719D01*
X114383533Y-112018000D01*
X114383523Y-112018000D01*
X114253510Y-112030805D01*
X114086687Y-112081411D01*
X113932941Y-112163589D01*
X113932939Y-112163590D01*
X113932940Y-112163590D01*
X113831953Y-112246468D01*
X113831951Y-112246470D01*
X113798183Y-112274183D01*
X113770470Y-112307951D01*
X112307956Y-113770466D01*
X112274183Y-113798183D01*
X112163589Y-113932942D01*
X112081411Y-114086688D01*
X112030805Y-114253511D01*
X112018000Y-114383524D01*
X112018000Y-114383531D01*
X112013719Y-114427000D01*
X100660000Y-114427000D01*
X100660000Y-109779872D01*
X102765000Y-109779872D01*
X102765000Y-110220128D01*
X102850890Y-110651925D01*
X103019369Y-111058669D01*
X103263962Y-111424729D01*
X103575271Y-111736038D01*
X103941331Y-111980631D01*
X104348075Y-112149110D01*
X104779872Y-112235000D01*
X105220128Y-112235000D01*
X105651925Y-112149110D01*
X106058669Y-111980631D01*
X106424729Y-111736038D01*
X106736038Y-111424729D01*
X106980631Y-111058669D01*
X107149110Y-110651925D01*
X107235000Y-110220128D01*
X107235000Y-109779872D01*
X107149110Y-109348075D01*
X106980631Y-108941331D01*
X106736038Y-108575271D01*
X106424729Y-108263962D01*
X106058669Y-108019369D01*
X105880843Y-107945711D01*
X110770000Y-107945711D01*
X110770000Y-108430289D01*
X110864536Y-108905556D01*
X111049976Y-109353247D01*
X111319193Y-109756159D01*
X111661841Y-110098807D01*
X112064753Y-110368024D01*
X112512444Y-110553464D01*
X112987711Y-110648000D01*
X113472289Y-110648000D01*
X113947556Y-110553464D01*
X114395247Y-110368024D01*
X114798159Y-110098807D01*
X115140807Y-109756159D01*
X115410024Y-109353247D01*
X115595464Y-108905556D01*
X115690000Y-108430289D01*
X115690000Y-107945711D01*
X122200000Y-107945711D01*
X122200000Y-108430289D01*
X122294536Y-108905556D01*
X122479976Y-109353247D01*
X122749193Y-109756159D01*
X123091841Y-110098807D01*
X123494753Y-110368024D01*
X123942444Y-110553464D01*
X124417711Y-110648000D01*
X124902289Y-110648000D01*
X125377556Y-110553464D01*
X125825247Y-110368024D01*
X126228159Y-110098807D01*
X126547094Y-109779872D01*
X130655000Y-109779872D01*
X130655000Y-110220128D01*
X130740890Y-110651925D01*
X130909369Y-111058669D01*
X131153962Y-111424729D01*
X131465271Y-111736038D01*
X131831331Y-111980631D01*
X132238075Y-112149110D01*
X132669872Y-112235000D01*
X133110128Y-112235000D01*
X133541925Y-112149110D01*
X133948669Y-111980631D01*
X134314729Y-111736038D01*
X134626038Y-111424729D01*
X134870631Y-111058669D01*
X135039110Y-110651925D01*
X135125000Y-110220128D01*
X135125000Y-109779872D01*
X135039110Y-109348075D01*
X134870631Y-108941331D01*
X134626038Y-108575271D01*
X134314729Y-108263962D01*
X133948669Y-108019369D01*
X133541925Y-107850890D01*
X133110128Y-107765000D01*
X132669872Y-107765000D01*
X132238075Y-107850890D01*
X131831331Y-108019369D01*
X131465271Y-108263962D01*
X131153962Y-108575271D01*
X130909369Y-108941331D01*
X130740890Y-109348075D01*
X130655000Y-109779872D01*
X126547094Y-109779872D01*
X126570807Y-109756159D01*
X126840024Y-109353247D01*
X127025464Y-108905556D01*
X127120000Y-108430289D01*
X127120000Y-107945711D01*
X127025464Y-107470444D01*
X126840024Y-107022753D01*
X126570807Y-106619841D01*
X126228159Y-106277193D01*
X125825247Y-106007976D01*
X125377556Y-105822536D01*
X124902289Y-105728000D01*
X124417711Y-105728000D01*
X123942444Y-105822536D01*
X123494753Y-106007976D01*
X123091841Y-106277193D01*
X122749193Y-106619841D01*
X122479976Y-107022753D01*
X122294536Y-107470444D01*
X122200000Y-107945711D01*
X115690000Y-107945711D01*
X115595464Y-107470444D01*
X115410024Y-107022753D01*
X115140807Y-106619841D01*
X114798159Y-106277193D01*
X114395247Y-106007976D01*
X113947556Y-105822536D01*
X113472289Y-105728000D01*
X112987711Y-105728000D01*
X112512444Y-105822536D01*
X112064753Y-106007976D01*
X111661841Y-106277193D01*
X111319193Y-106619841D01*
X111049976Y-107022753D01*
X110864536Y-107470444D01*
X110770000Y-107945711D01*
X105880843Y-107945711D01*
X105651925Y-107850890D01*
X105220128Y-107765000D01*
X104779872Y-107765000D01*
X104348075Y-107850890D01*
X103941331Y-108019369D01*
X103575271Y-108263962D01*
X103263962Y-108575271D01*
X103019369Y-108941331D01*
X102850890Y-109348075D01*
X102765000Y-109779872D01*
X100660000Y-109779872D01*
X100660000Y-100660000D01*
X137230000Y-100660000D01*
X137230001Y-144340000D01*
G37*
X137230001Y-144340000D02*
X127571406Y-144340000D01*
X127648696Y-144153405D01*
X127700000Y-143895486D01*
X127700000Y-143632514D01*
X127648696Y-143374595D01*
X127549474Y-143135050D01*
X131934555Y-143135050D01*
X132030258Y-143399399D01*
X132319787Y-143540238D01*
X132631229Y-143621885D01*
X132952615Y-143641205D01*
X133271595Y-143597454D01*
X133575911Y-143492314D01*
X133749742Y-143399399D01*
X133845445Y-143135050D01*
X132890000Y-142179605D01*
X131934555Y-143135050D01*
X127549474Y-143135050D01*
X127548061Y-143131641D01*
X127401962Y-142912987D01*
X127216013Y-142727038D01*
X126997359Y-142580939D01*
X126787470Y-142494000D01*
X126997359Y-142407061D01*
X127216013Y-142260962D01*
X127401962Y-142075013D01*
X127410246Y-142062615D01*
X131248795Y-142062615D01*
X131292546Y-142381595D01*
X131397686Y-142685911D01*
X131490601Y-142859742D01*
X131754950Y-142955445D01*
X132710395Y-142000000D01*
X133069605Y-142000000D01*
X134025050Y-142955445D01*
X134289399Y-142859742D01*
X134430238Y-142570213D01*
X134511885Y-142258771D01*
X134531205Y-141937385D01*
X134487454Y-141618405D01*
X134382314Y-141314089D01*
X134289399Y-141140258D01*
X134025050Y-141044555D01*
X133069605Y-142000000D01*
X132710395Y-142000000D01*
X131754950Y-141044555D01*
X131490601Y-141140258D01*
X131349762Y-141429787D01*
X131268115Y-141741229D01*
X131248795Y-142062615D01*
X127410246Y-142062615D01*
X127548061Y-141856359D01*
X127648696Y-141613405D01*
X127700000Y-141355486D01*
X127700000Y-141092514D01*
X127654735Y-140864950D01*
X131934555Y-140864950D01*
X132890000Y-141820395D01*
X133845445Y-140864950D01*
X133749742Y-140600601D01*
X133460213Y-140459762D01*
X133148771Y-140378115D01*
X132827385Y-140358795D01*
X132508405Y-140402546D01*
X132204089Y-140507686D01*
X132030258Y-140600601D01*
X131934555Y-140864950D01*
X127654735Y-140864950D01*
X127648696Y-140834595D01*
X127548061Y-140591641D01*
X127401962Y-140372987D01*
X127216013Y-140187038D01*
X126997359Y-140040939D01*
X126754405Y-139940304D01*
X126496486Y-139889000D01*
X126233514Y-139889000D01*
X125975595Y-139940304D01*
X125732641Y-140040939D01*
X125513987Y-140187038D01*
X125328038Y-140372987D01*
X125181939Y-140591641D01*
X125081304Y-140834595D01*
X125030000Y-141092514D01*
X125030000Y-141355486D01*
X125081304Y-141613405D01*
X125181939Y-141856359D01*
X125328038Y-142075013D01*
X125513987Y-142260962D01*
X125732641Y-142407061D01*
X125942530Y-142494000D01*
X125732641Y-142580939D01*
X125513987Y-142727038D01*
X125328038Y-142912987D01*
X125181939Y-143131641D01*
X125081304Y-143374595D01*
X125030000Y-143632514D01*
X125030000Y-143895486D01*
X125081304Y-144153405D01*
X125158594Y-144340000D01*
X123331072Y-144340000D01*
X123331072Y-142737000D01*
X123318812Y-142612518D01*
X123282502Y-142492820D01*
X123223537Y-142382506D01*
X123144185Y-142285815D01*
X123047494Y-142206463D01*
X122937180Y-142147498D01*
X122918873Y-142141944D01*
X122985312Y-142075505D01*
X123153299Y-141824095D01*
X123269011Y-141544743D01*
X123328000Y-141248184D01*
X123328000Y-140945816D01*
X123269011Y-140649257D01*
X123153299Y-140369905D01*
X122985312Y-140118495D01*
X122771505Y-139904688D01*
X122520095Y-139736701D01*
X122240743Y-139620989D01*
X121944184Y-139562000D01*
X121641816Y-139562000D01*
X121345257Y-139620989D01*
X121065905Y-139736701D01*
X120814495Y-139904688D01*
X120600688Y-140118495D01*
X120432701Y-140369905D01*
X120316989Y-140649257D01*
X120258000Y-140945816D01*
X120258000Y-141248184D01*
X120316989Y-141544743D01*
X120432701Y-141824095D01*
X120600688Y-142075505D01*
X120667127Y-142141944D01*
X120648820Y-142147498D01*
X120538506Y-142206463D01*
X120441815Y-142285815D01*
X120362463Y-142382506D01*
X120303498Y-142492820D01*
X120267188Y-142612518D01*
X120254928Y-142737000D01*
X120254928Y-144340000D01*
X100660000Y-144340000D01*
X100660000Y-143135050D01*
X104044555Y-143135050D01*
X104140258Y-143399399D01*
X104429787Y-143540238D01*
X104741229Y-143621885D01*
X105062615Y-143641205D01*
X105381595Y-143597454D01*
X105685911Y-143492314D01*
X105859742Y-143399399D01*
X105955445Y-143135050D01*
X105000000Y-142179605D01*
X104044555Y-143135050D01*
X100660000Y-143135050D01*
X100660000Y-142062615D01*
X103358795Y-142062615D01*
X103402546Y-142381595D01*
X103507686Y-142685911D01*
X103600601Y-142859742D01*
X103864950Y-142955445D01*
X104820395Y-142000000D01*
X105179605Y-142000000D01*
X106135050Y-142955445D01*
X106399399Y-142859742D01*
X106540238Y-142570213D01*
X106621885Y-142258771D01*
X106641205Y-141937385D01*
X106597454Y-141618405D01*
X106492314Y-141314089D01*
X106399399Y-141140258D01*
X106135050Y-141044555D01*
X105179605Y-142000000D01*
X104820395Y-142000000D01*
X103864950Y-141044555D01*
X103600601Y-141140258D01*
X103459762Y-141429787D01*
X103378115Y-141741229D01*
X103358795Y-142062615D01*
X100660000Y-142062615D01*
X100660000Y-140864950D01*
X104044555Y-140864950D01*
X105000000Y-141820395D01*
X105955445Y-140864950D01*
X105859742Y-140600601D01*
X105570213Y-140459762D01*
X105258771Y-140378115D01*
X104937385Y-140358795D01*
X104618405Y-140402546D01*
X104314089Y-140507686D01*
X104140258Y-140600601D01*
X104044555Y-140864950D01*
X100660000Y-140864950D01*
X100660000Y-139389000D01*
X110937928Y-139389000D01*
X110937928Y-141789000D01*
X110950188Y-141913482D01*
X110986498Y-142033180D01*
X111045463Y-142143494D01*
X111124815Y-142240185D01*
X111221506Y-142319537D01*
X111331820Y-142378502D01*
X111451518Y-142414812D01*
X111576000Y-142427072D01*
X113976000Y-142427072D01*
X114100482Y-142414812D01*
X114220180Y-142378502D01*
X114330494Y-142319537D01*
X114427185Y-142240185D01*
X114506537Y-142143494D01*
X114565502Y-142033180D01*
X114601812Y-141913482D01*
X114614072Y-141789000D01*
X114614072Y-141371838D01*
X114649844Y-141458199D01*
X114850662Y-141758744D01*
X115106256Y-142014338D01*
X115406801Y-142215156D01*
X115740750Y-142353482D01*
X116095268Y-142424000D01*
X116456732Y-142424000D01*
X116811250Y-142353482D01*
X117145199Y-142215156D01*
X117445744Y-142014338D01*
X117701338Y-141758744D01*
X117902156Y-141458199D01*
X118040482Y-141124250D01*
X118111000Y-140769732D01*
X118111000Y-140408268D01*
X118040482Y-140053750D01*
X117902156Y-139719801D01*
X117701338Y-139419256D01*
X117445744Y-139163662D01*
X117145199Y-138962844D01*
X116811250Y-138824518D01*
X116456732Y-138754000D01*
X116095268Y-138754000D01*
X115740750Y-138824518D01*
X115406801Y-138962844D01*
X115106256Y-139163662D01*
X114850662Y-139419256D01*
X114649844Y-139719801D01*
X114614072Y-139806162D01*
X114614072Y-139389000D01*
X114601812Y-139264518D01*
X114565502Y-139144820D01*
X114506537Y-139034506D01*
X114427185Y-138937815D01*
X114330494Y-138858463D01*
X114220180Y-138799498D01*
X114100482Y-138763188D01*
X113976000Y-138750928D01*
X111576000Y-138750928D01*
X111451518Y-138763188D01*
X111331820Y-138799498D01*
X111221506Y-138858463D01*
X111124815Y-138937815D01*
X111045463Y-139034506D01*
X110986498Y-139144820D01*
X110950188Y-139264518D01*
X110937928Y-139389000D01*
X100660000Y-139389000D01*
X100660000Y-137780665D01*
X120104000Y-137780665D01*
X120104000Y-138063335D01*
X120159147Y-138340574D01*
X120267320Y-138601727D01*
X120424363Y-138836759D01*
X120624241Y-139036637D01*
X120859273Y-139193680D01*
X121120426Y-139301853D01*
X121397665Y-139357000D01*
X121680335Y-139357000D01*
X121957574Y-139301853D01*
X122218727Y-139193680D01*
X122453759Y-139036637D01*
X122653637Y-138836759D01*
X122810680Y-138601727D01*
X122918853Y-138340574D01*
X122974000Y-138063335D01*
X122974000Y-137780665D01*
X125104000Y-137780665D01*
X125104000Y-138063335D01*
X125159147Y-138340574D01*
X125267320Y-138601727D01*
X125424363Y-138836759D01*
X125624241Y-139036637D01*
X125859273Y-139193680D01*
X126120426Y-139301853D01*
X126397665Y-139357000D01*
X126680335Y-139357000D01*
X126957574Y-139301853D01*
X127218727Y-139193680D01*
X127453759Y-139036637D01*
X127653637Y-138836759D01*
X127810680Y-138601727D01*
X127918853Y-138340574D01*
X127974000Y-138063335D01*
X127974000Y-137780665D01*
X127918853Y-137503426D01*
X127810680Y-137242273D01*
X127653637Y-137007241D01*
X127453759Y-136807363D01*
X127218727Y-136650320D01*
X126957574Y-136542147D01*
X126680335Y-136487000D01*
X126397665Y-136487000D01*
X126120426Y-136542147D01*
X125859273Y-136650320D01*
X125624241Y-136807363D01*
X125424363Y-137007241D01*
X125267320Y-137242273D01*
X125159147Y-137503426D01*
X125104000Y-137780665D01*
X122974000Y-137780665D01*
X122918853Y-137503426D01*
X122810680Y-137242273D01*
X122653637Y-137007241D01*
X122453759Y-136807363D01*
X122218727Y-136650320D01*
X121957574Y-136542147D01*
X121680335Y-136487000D01*
X121397665Y-136487000D01*
X121120426Y-136542147D01*
X120859273Y-136650320D01*
X120624241Y-136807363D01*
X120424363Y-137007241D01*
X120267320Y-137242273D01*
X120159147Y-137503426D01*
X120104000Y-137780665D01*
X100660000Y-137780665D01*
X100660000Y-134779872D01*
X102765000Y-134779872D01*
X102765000Y-135220128D01*
X102850890Y-135651925D01*
X103019369Y-136058669D01*
X103263962Y-136424729D01*
X103575271Y-136736038D01*
X103941331Y-136980631D01*
X104348075Y-137149110D01*
X104779872Y-137235000D01*
X105220128Y-137235000D01*
X105651925Y-137149110D01*
X106058669Y-136980631D01*
X106424729Y-136736038D01*
X106736038Y-136424729D01*
X106980631Y-136058669D01*
X107149110Y-135651925D01*
X107235000Y-135220128D01*
X107235000Y-134779872D01*
X130655000Y-134779872D01*
X130655000Y-135220128D01*
X130740890Y-135651925D01*
X130909369Y-136058669D01*
X131153962Y-136424729D01*
X131465271Y-136736038D01*
X131831331Y-136980631D01*
X132238075Y-137149110D01*
X132669872Y-137235000D01*
X133110128Y-137235000D01*
X133541925Y-137149110D01*
X133948669Y-136980631D01*
X134314729Y-136736038D01*
X134626038Y-136424729D01*
X134870631Y-136058669D01*
X135039110Y-135651925D01*
X135125000Y-135220128D01*
X135125000Y-134779872D01*
X135039110Y-134348075D01*
X134870631Y-133941331D01*
X134626038Y-133575271D01*
X134314729Y-133263962D01*
X133948669Y-133019369D01*
X133541925Y-132850890D01*
X133110128Y-132765000D01*
X132669872Y-132765000D01*
X132238075Y-132850890D01*
X131831331Y-133019369D01*
X131465271Y-133263962D01*
X131153962Y-133575271D01*
X130909369Y-133941331D01*
X130740890Y-134348075D01*
X130655000Y-134779872D01*
X107235000Y-134779872D01*
X107149110Y-134348075D01*
X106980631Y-133941331D01*
X106736038Y-133575271D01*
X106424729Y-133263962D01*
X106058669Y-133019369D01*
X105651925Y-132850890D01*
X105220128Y-132765000D01*
X104779872Y-132765000D01*
X104348075Y-132850890D01*
X103941331Y-133019369D01*
X103575271Y-133263962D01*
X103263962Y-133575271D01*
X103019369Y-133941331D01*
X102850890Y-134348075D01*
X102765000Y-134779872D01*
X100660000Y-134779872D01*
X100660000Y-129154711D01*
X110770000Y-129154711D01*
X110770000Y-129639289D01*
X110864536Y-130114556D01*
X111049976Y-130562247D01*
X111319193Y-130965159D01*
X111661841Y-131307807D01*
X112064753Y-131577024D01*
X112512444Y-131762464D01*
X112987711Y-131857000D01*
X113472289Y-131857000D01*
X113947556Y-131762464D01*
X114395247Y-131577024D01*
X114798159Y-131307807D01*
X115140807Y-130965159D01*
X115410024Y-130562247D01*
X115595464Y-130114556D01*
X115690000Y-129639289D01*
X115690000Y-129154711D01*
X122200000Y-129154711D01*
X122200000Y-129639289D01*
X122294536Y-130114556D01*
X122479976Y-130562247D01*
X122749193Y-130965159D01*
X123091841Y-131307807D01*
X123494753Y-131577024D01*
X123942444Y-131762464D01*
X124417711Y-131857000D01*
X124902289Y-131857000D01*
X125377556Y-131762464D01*
X125825247Y-131577024D01*
X126228159Y-131307807D01*
X126570807Y-130965159D01*
X126840024Y-130562247D01*
X127025464Y-130114556D01*
X127120000Y-129639289D01*
X127120000Y-129236469D01*
X128881465Y-129236469D01*
X128881465Y-129236655D01*
X128881466Y-129236663D01*
X128881500Y-129245405D01*
X128882711Y-129357075D01*
X128882765Y-129357574D01*
X128882722Y-129358081D01*
X128882896Y-129367016D01*
X128885633Y-129470748D01*
X128885922Y-129473065D01*
X128885772Y-129475403D01*
X128886135Y-129484332D01*
X128890394Y-129573705D01*
X128891438Y-129580834D01*
X128891238Y-129588040D01*
X128891927Y-129596950D01*
X128897703Y-129665535D01*
X128902127Y-129689609D01*
X128903661Y-129714049D01*
X128905150Y-129722860D01*
X128912438Y-129764231D01*
X128919836Y-129790744D01*
X128924289Y-129817898D01*
X128936580Y-129850751D01*
X128946009Y-129884541D01*
X128954590Y-129901536D01*
X128957301Y-129910269D01*
X128962302Y-129919501D01*
X128968057Y-129934884D01*
X128972046Y-129942880D01*
X128976418Y-129951493D01*
X128992769Y-129977146D01*
X129002309Y-129996040D01*
X129007050Y-130002110D01*
X129016793Y-130020097D01*
X129031319Y-130037629D01*
X129043553Y-130056823D01*
X129071069Y-130085604D01*
X129096485Y-130116279D01*
X129114142Y-130130657D01*
X129129869Y-130147107D01*
X129162455Y-130169999D01*
X129193341Y-130195149D01*
X129213446Y-130205820D01*
X129232076Y-130218907D01*
X129268492Y-130235034D01*
X129303670Y-130253705D01*
X129311958Y-130257046D01*
X129338089Y-130267369D01*
X129369423Y-130276328D01*
X129399782Y-130288180D01*
X129408401Y-130290542D01*
X129463771Y-130305301D01*
X129471487Y-130306568D01*
X129478873Y-130309130D01*
X129487576Y-130311160D01*
X129564862Y-130328620D01*
X129568140Y-130329030D01*
X129571284Y-130330036D01*
X129580033Y-130331854D01*
X129671910Y-130350282D01*
X129671976Y-130350289D01*
X129672046Y-130350310D01*
X129680821Y-130352004D01*
X129712892Y-130357965D01*
X129712984Y-130357973D01*
X129714529Y-130358267D01*
X129868030Y-130386385D01*
X129924919Y-130397008D01*
X129934047Y-130420314D01*
X129935814Y-130424994D01*
X129900838Y-130475989D01*
X129882729Y-130502336D01*
X129882656Y-130502468D01*
X129879938Y-130506429D01*
X129814082Y-130603850D01*
X129813665Y-130604620D01*
X129813109Y-130605294D01*
X129808176Y-130612746D01*
X129750226Y-130701634D01*
X129749256Y-130703497D01*
X129747947Y-130705153D01*
X129743169Y-130712704D01*
X129696281Y-130787953D01*
X129693562Y-130793448D01*
X129689919Y-130798383D01*
X129685393Y-130806088D01*
X129652724Y-130862596D01*
X129643138Y-130883696D01*
X129631030Y-130903461D01*
X129627184Y-130911527D01*
X129611891Y-130944188D01*
X129606982Y-130958057D01*
X129600065Y-130971032D01*
X129586180Y-131016835D01*
X129570217Y-131061937D01*
X129568098Y-131076481D01*
X129563828Y-131090565D01*
X129562144Y-131099341D01*
X129561403Y-131103354D01*
X129557892Y-131144607D01*
X129551665Y-131185546D01*
X129552608Y-131206709D01*
X129550812Y-131227810D01*
X129555380Y-131268951D01*
X129557223Y-131310328D01*
X129562259Y-131330908D01*
X129564596Y-131351953D01*
X129577072Y-131391437D01*
X129586914Y-131431655D01*
X129595846Y-131450853D01*
X129602229Y-131471055D01*
X129622137Y-131507364D01*
X129639602Y-131544903D01*
X129644199Y-131552567D01*
X129657048Y-131573658D01*
X129684586Y-131610268D01*
X129710176Y-131648268D01*
X129715915Y-131655118D01*
X129751419Y-131696898D01*
X129757830Y-131703098D01*
X129763117Y-131710283D01*
X129769137Y-131716887D01*
X129822732Y-131774868D01*
X129824306Y-131776268D01*
X129825591Y-131777941D01*
X129831745Y-131784421D01*
X129898868Y-131854111D01*
X129898888Y-131854128D01*
X129904844Y-131860234D01*
X129980928Y-131937144D01*
X129981021Y-131937221D01*
X129985759Y-131941975D01*
X130066242Y-132021613D01*
X130066343Y-132021695D01*
X130070878Y-132026154D01*
X130151195Y-132104032D01*
X130151269Y-132104091D01*
X130156507Y-132109124D01*
X130232095Y-132180749D01*
X130232507Y-132181069D01*
X130232855Y-132181469D01*
X130239395Y-132187559D01*
X130305689Y-132248443D01*
X130308918Y-132250873D01*
X130311656Y-132253855D01*
X130318355Y-132259769D01*
X130370791Y-132305420D01*
X130384129Y-132314914D01*
X130395966Y-132326233D01*
X130403035Y-132331699D01*
X130437049Y-132357628D01*
X130442288Y-132360866D01*
X130446876Y-132364971D01*
X130482189Y-132385872D01*
X130492258Y-132393717D01*
X130509418Y-132402356D01*
X130543300Y-132423297D01*
X130549063Y-132425454D01*
X130554365Y-132428592D01*
X130562489Y-132432315D01*
X130571899Y-132436547D01*
X130588327Y-132442082D01*
X130603824Y-132449884D01*
X130644611Y-132461212D01*
X130660282Y-132467077D01*
X130664627Y-132467790D01*
X130690267Y-132476429D01*
X130707462Y-132478668D01*
X130724174Y-132483310D01*
X130769279Y-132486719D01*
X130814127Y-132492560D01*
X130831431Y-132491417D01*
X130848725Y-132492724D01*
X130893627Y-132487308D01*
X130938762Y-132484326D01*
X130955518Y-132479842D01*
X130972733Y-132477766D01*
X131015732Y-132463731D01*
X131059423Y-132452040D01*
X131074981Y-132444391D01*
X131091473Y-132439008D01*
X131099631Y-132435362D01*
X131121534Y-132425391D01*
X131148971Y-132409500D01*
X131177815Y-132396325D01*
X131185510Y-132391782D01*
X131230353Y-132364890D01*
X131236005Y-132360700D01*
X131242294Y-132357550D01*
X131249822Y-132352735D01*
X131310301Y-132313451D01*
X131312016Y-132312082D01*
X131313954Y-132311060D01*
X131321380Y-132306089D01*
X131367912Y-132274470D01*
X131368026Y-132274375D01*
X131371015Y-132272349D01*
X131454704Y-132214760D01*
X131553136Y-132147416D01*
X131574568Y-132132820D01*
X131612695Y-132148094D01*
X131659193Y-132161630D01*
X131690403Y-132172224D01*
X131699160Y-132175453D01*
X131700579Y-132175679D01*
X131705090Y-132177210D01*
X131713806Y-132179181D01*
X131724014Y-132181416D01*
X131729317Y-132182044D01*
X131732623Y-132183006D01*
X131751453Y-132184664D01*
X131773388Y-132187260D01*
X131822516Y-132195074D01*
X131835326Y-132194590D01*
X131848055Y-132196097D01*
X131897622Y-132192239D01*
X131947333Y-132190363D01*
X131959811Y-132187399D01*
X131972584Y-132186405D01*
X132020460Y-132172993D01*
X132068858Y-132161497D01*
X132080515Y-132156169D01*
X132092860Y-132152711D01*
X132137236Y-132130246D01*
X132182462Y-132109576D01*
X132192863Y-132102085D01*
X132204300Y-132096295D01*
X132243471Y-132065636D01*
X132283817Y-132036578D01*
X132292562Y-132027212D01*
X132302660Y-132019309D01*
X132335124Y-131981632D01*
X132369064Y-131945285D01*
X132374446Y-131938152D01*
X132386720Y-131921648D01*
X132410895Y-131881475D01*
X132437000Y-131842537D01*
X132441173Y-131834635D01*
X132465389Y-131787995D01*
X132468057Y-131781339D01*
X132471832Y-131775240D01*
X132475715Y-131767192D01*
X132510065Y-131694719D01*
X132510335Y-131693966D01*
X132510746Y-131693278D01*
X132514497Y-131685167D01*
X132557172Y-131591164D01*
X132557216Y-131591035D01*
X132559724Y-131585469D01*
X132608918Y-131474237D01*
X132608968Y-131474085D01*
X132610666Y-131470248D01*
X132664570Y-131346089D01*
X132664615Y-131345949D01*
X132665925Y-131342945D01*
X132722731Y-131210162D01*
X132722774Y-131210027D01*
X132723895Y-131207422D01*
X132781797Y-131070318D01*
X132781837Y-131070189D01*
X132782905Y-131067678D01*
X132832699Y-130948284D01*
X132835494Y-130955053D01*
X132835558Y-130955173D01*
X132836624Y-130957772D01*
X132894128Y-131095224D01*
X132894194Y-131095347D01*
X132895230Y-131097840D01*
X132953087Y-131234429D01*
X132953151Y-131234546D01*
X132954270Y-131237205D01*
X133010673Y-131368634D01*
X133010746Y-131368767D01*
X133012072Y-131371868D01*
X133065212Y-131493837D01*
X133065288Y-131493973D01*
X133067057Y-131498031D01*
X133115125Y-131606235D01*
X133115184Y-131606339D01*
X133117903Y-131612400D01*
X133159092Y-131702540D01*
X133159829Y-131703808D01*
X133160312Y-131705194D01*
X133164120Y-131713279D01*
X133196620Y-131781053D01*
X133201674Y-131789391D01*
X133205289Y-131798449D01*
X133209451Y-131806357D01*
X133231455Y-131847464D01*
X133263744Y-131895771D01*
X133295376Y-131944521D01*
X133300860Y-131951297D01*
X133300867Y-131951308D01*
X133300875Y-131951316D01*
X133300998Y-131951468D01*
X133309859Y-131962264D01*
X133353600Y-132006039D01*
X133397038Y-132049705D01*
X133397633Y-132050106D01*
X133398147Y-132050620D01*
X133449308Y-132084897D01*
X133500649Y-132119464D01*
X133501323Y-132119747D01*
X133501916Y-132120144D01*
X133558789Y-132143844D01*
X133615838Y-132167767D01*
X133616540Y-132167911D01*
X133617211Y-132168190D01*
X133677816Y-132180434D01*
X133738214Y-132192778D01*
X133738938Y-132192782D01*
X133739644Y-132192925D01*
X133801542Y-132193165D01*
X133863118Y-132193541D01*
X133863821Y-132193406D01*
X133864549Y-132193409D01*
X133925249Y-132181634D01*
X133985792Y-132170031D01*
X133987095Y-132169636D01*
X133987169Y-132169622D01*
X133987246Y-132169591D01*
X133994344Y-132167441D01*
X134021420Y-132159034D01*
X134052015Y-132146142D01*
X134083670Y-132136106D01*
X134091001Y-132132904D01*
X134152728Y-132175020D01*
X134246981Y-132239635D01*
X134294063Y-132272085D01*
X134294133Y-132272124D01*
X134300461Y-132276437D01*
X134367706Y-132321594D01*
X134372323Y-132324078D01*
X134376423Y-132327345D01*
X134383956Y-132332152D01*
X134440898Y-132367937D01*
X134451837Y-132373402D01*
X134461788Y-132380517D01*
X134469561Y-132384926D01*
X134508771Y-132406807D01*
X134551775Y-132425562D01*
X134576522Y-132437825D01*
X134584831Y-132442328D01*
X134586912Y-132442974D01*
X134593799Y-132446387D01*
X134602177Y-132449495D01*
X134614912Y-132454120D01*
X134620584Y-132455572D01*
X134623262Y-132456740D01*
X134636364Y-132459612D01*
X134659818Y-132465616D01*
X134704117Y-132479374D01*
X134720231Y-132481082D01*
X134735916Y-132485098D01*
X134782205Y-132487653D01*
X134828327Y-132492543D01*
X134844463Y-132491090D01*
X134860632Y-132491982D01*
X134906534Y-132485498D01*
X134952729Y-132481337D01*
X134968273Y-132476777D01*
X134984311Y-132474512D01*
X135028101Y-132459228D01*
X135072586Y-132446179D01*
X135086943Y-132438690D01*
X135102240Y-132433351D01*
X135142218Y-132409858D01*
X135150137Y-132405728D01*
X135155670Y-132403409D01*
X135159424Y-132400883D01*
X135183331Y-132388413D01*
X135190778Y-132383475D01*
X135209315Y-132370996D01*
X135233390Y-132351117D01*
X135259302Y-132333682D01*
X135266154Y-132327946D01*
X135307177Y-132293113D01*
X135310489Y-132289691D01*
X135314365Y-132286918D01*
X135321049Y-132280986D01*
X135380583Y-132227413D01*
X135380816Y-132227157D01*
X135381092Y-132226954D01*
X135387686Y-132220923D01*
X135461753Y-132152229D01*
X135461829Y-132152143D01*
X135466794Y-132147503D01*
X135551417Y-132067301D01*
X135551525Y-132067176D01*
X135554904Y-132063970D01*
X135608425Y-132012475D01*
X135608505Y-132012382D01*
X135613233Y-132007800D01*
X135706866Y-131915800D01*
X135707524Y-131915014D01*
X135708326Y-131914362D01*
X135714636Y-131908034D01*
X135795558Y-131825747D01*
X135797253Y-131823648D01*
X135799311Y-131821899D01*
X135805478Y-131815432D01*
X135870414Y-131746378D01*
X135874882Y-131740585D01*
X135880277Y-131735647D01*
X135886202Y-131728958D01*
X135931883Y-131676657D01*
X135946417Y-131656308D01*
X135963241Y-131637794D01*
X135968526Y-131630589D01*
X135991679Y-131598561D01*
X136003953Y-131577525D01*
X136004777Y-131576535D01*
X136006389Y-131573575D01*
X136022373Y-131551945D01*
X136037159Y-131520616D01*
X136054628Y-131490677D01*
X136060023Y-131475064D01*
X136064504Y-131466834D01*
X136068358Y-131454511D01*
X136075684Y-131438988D01*
X136078633Y-131430552D01*
X136080854Y-131424052D01*
X136087731Y-131394881D01*
X136095423Y-131372620D01*
X136096574Y-131364284D01*
X136101785Y-131347622D01*
X136104250Y-131324805D01*
X136109513Y-131302479D01*
X136110941Y-131262867D01*
X136112234Y-131250902D01*
X136112512Y-131248889D01*
X136112491Y-131248525D01*
X136115201Y-131223438D01*
X136113187Y-131200580D01*
X136114014Y-131177654D01*
X136107719Y-131138505D01*
X136104240Y-131099013D01*
X136097827Y-131076989D01*
X136094184Y-131054331D01*
X136080405Y-131017153D01*
X136069322Y-130979088D01*
X136065940Y-130970816D01*
X136055632Y-130946094D01*
X136039134Y-130915369D01*
X136025353Y-130883332D01*
X136020983Y-130875537D01*
X135992498Y-130825548D01*
X135988250Y-130819542D01*
X135985093Y-130812891D01*
X135980438Y-130805262D01*
X135936936Y-130735069D01*
X135935631Y-130733361D01*
X135934666Y-130731432D01*
X135929854Y-130723902D01*
X135874494Y-130638565D01*
X135874138Y-130638119D01*
X135873873Y-130637609D01*
X135868944Y-130630155D01*
X135804887Y-130534737D01*
X135804799Y-130534631D01*
X135801572Y-130529847D01*
X135783355Y-130503245D01*
X135783327Y-130503211D01*
X135782935Y-130502632D01*
X135729641Y-130425002D01*
X135740571Y-130396990D01*
X135772346Y-130391023D01*
X135918982Y-130364093D01*
X135950447Y-130358355D01*
X135950562Y-130358322D01*
X135957020Y-130357121D01*
X136052088Y-130338754D01*
X136054765Y-130337959D01*
X136057548Y-130337675D01*
X136066294Y-130335842D01*
X136149173Y-130317873D01*
X136154500Y-130316159D01*
X136160055Y-130315415D01*
X136168739Y-130313308D01*
X136232105Y-130297472D01*
X136249555Y-130291247D01*
X136267700Y-130287476D01*
X136276211Y-130284752D01*
X136312739Y-130272783D01*
X136367456Y-130248716D01*
X136370282Y-130247501D01*
X136402228Y-130235410D01*
X136410744Y-130230103D01*
X136422433Y-130225077D01*
X136426934Y-130222555D01*
X136427074Y-130222493D01*
X136427196Y-130222408D01*
X136430229Y-130220708D01*
X136435127Y-130217918D01*
X136470967Y-130192573D01*
X136508235Y-130169348D01*
X136521867Y-130156578D01*
X136537109Y-130145799D01*
X136567340Y-130113979D01*
X136599391Y-130083954D01*
X136610283Y-130068779D01*
X136623141Y-130055245D01*
X136646624Y-130018147D01*
X136672224Y-129982480D01*
X136679957Y-129965488D01*
X136689947Y-129949706D01*
X136705775Y-129908757D01*
X136723962Y-129868794D01*
X136726792Y-129860318D01*
X136734863Y-129835580D01*
X136747505Y-129778408D01*
X136760853Y-129721354D01*
X136761817Y-129713687D01*
X136761832Y-129713620D01*
X136761833Y-129713559D01*
X136761968Y-129712488D01*
X136768528Y-129657206D01*
X136768794Y-129644155D01*
X136771070Y-129631295D01*
X136771699Y-129622381D01*
X136776745Y-129542980D01*
X136776600Y-129538739D01*
X136777225Y-129534544D01*
X136777611Y-129525616D01*
X136781137Y-129428523D01*
X136781061Y-129427289D01*
X136781223Y-129426052D01*
X136781450Y-129417118D01*
X136783452Y-129308761D01*
X136783444Y-129308661D01*
X136783456Y-129308559D01*
X136783555Y-129299624D01*
X136784029Y-129186612D01*
X136784030Y-129186604D01*
X136784007Y-129177668D01*
X136782948Y-129066056D01*
X136782893Y-129065549D01*
X136782938Y-129065036D01*
X136782776Y-129056101D01*
X136780181Y-128952503D01*
X136779892Y-128950164D01*
X136780047Y-128947802D01*
X136779695Y-128938873D01*
X136775559Y-128849712D01*
X136774512Y-128842496D01*
X136774721Y-128835207D01*
X136774042Y-128826296D01*
X136768359Y-128758000D01*
X136763889Y-128733541D01*
X136762327Y-128708725D01*
X136760836Y-128699914D01*
X136753604Y-128658908D01*
X136745407Y-128629553D01*
X136740192Y-128599531D01*
X136728651Y-128569549D01*
X136720010Y-128538605D01*
X136706270Y-128511408D01*
X136702693Y-128502115D01*
X136698193Y-128489457D01*
X136697140Y-128487689D01*
X136695321Y-128482963D01*
X136691256Y-128475005D01*
X136686896Y-128466613D01*
X136672343Y-128444249D01*
X136663688Y-128427117D01*
X136652693Y-128413045D01*
X136634288Y-128382136D01*
X136625737Y-128372630D01*
X136618769Y-128361922D01*
X136588371Y-128330722D01*
X136586785Y-128328692D01*
X136584323Y-128326567D01*
X136584058Y-128326295D01*
X136550755Y-128289272D01*
X136540518Y-128281606D01*
X136531604Y-128272457D01*
X136490608Y-128244232D01*
X136450774Y-128214403D01*
X136439258Y-128208878D01*
X136428724Y-128201626D01*
X136383022Y-128181900D01*
X136376613Y-128178826D01*
X136375178Y-128177943D01*
X136373380Y-128177275D01*
X136338157Y-128160377D01*
X136329740Y-128157376D01*
X136305467Y-128148910D01*
X136281358Y-128143065D01*
X136258101Y-128134419D01*
X136249445Y-128132198D01*
X136194173Y-128118425D01*
X136190257Y-128117847D01*
X136186512Y-128116566D01*
X136177801Y-128114573D01*
X136097036Y-128096688D01*
X136096925Y-128096675D01*
X136096813Y-128096638D01*
X136088074Y-128094771D01*
X135987324Y-128073969D01*
X135987209Y-128073957D01*
X135980695Y-128072636D01*
X135865466Y-128050111D01*
X135865305Y-128050096D01*
X135860952Y-128049246D01*
X135798171Y-128037441D01*
X135798129Y-128037437D01*
X135797504Y-128037316D01*
X135712940Y-128021508D01*
X135724383Y-128004643D01*
X135761251Y-127950959D01*
X135761300Y-127950871D01*
X135762301Y-127949425D01*
X135831347Y-127848256D01*
X135831409Y-127848143D01*
X135834994Y-127842854D01*
X135896319Y-127751003D01*
X135896351Y-127750943D01*
X135900695Y-127744360D01*
X135951308Y-127666474D01*
X135952106Y-127664936D01*
X135953177Y-127663580D01*
X135957953Y-127656028D01*
X135994861Y-127596753D01*
X135999358Y-127587658D01*
X136005277Y-127579420D01*
X136009704Y-127571658D01*
X136029915Y-127535640D01*
X136049252Y-127491585D01*
X136050944Y-127488158D01*
X136063521Y-127465156D01*
X136065666Y-127458340D01*
X136070559Y-127448430D01*
X136073656Y-127440047D01*
X136076575Y-127431973D01*
X136078172Y-127425698D01*
X136080117Y-127421266D01*
X136085644Y-127396332D01*
X136087599Y-127388648D01*
X136101018Y-127346010D01*
X136102970Y-127328240D01*
X136107376Y-127310925D01*
X136109774Y-127266305D01*
X136114658Y-127221851D01*
X136113121Y-127204037D01*
X136114080Y-127186198D01*
X136107765Y-127141957D01*
X136103922Y-127097407D01*
X136098956Y-127080238D01*
X136096431Y-127062546D01*
X136081638Y-127020360D01*
X136069218Y-126977419D01*
X136061012Y-126961541D01*
X136055098Y-126944676D01*
X136032401Y-126906180D01*
X136024480Y-126890854D01*
X136022754Y-126886835D01*
X136021330Y-126884759D01*
X136011871Y-126866456D01*
X136006960Y-126858990D01*
X135994412Y-126840197D01*
X135972061Y-126812920D01*
X135952109Y-126783827D01*
X135946312Y-126777026D01*
X135911622Y-126736899D01*
X135907693Y-126733163D01*
X135904491Y-126728790D01*
X135898487Y-126722171D01*
X135846087Y-126665208D01*
X135845884Y-126665026D01*
X135845712Y-126664799D01*
X135839610Y-126658270D01*
X135773931Y-126588962D01*
X135773826Y-126588871D01*
X135769698Y-126584538D01*
X135695170Y-126507384D01*
X135695053Y-126507285D01*
X135691819Y-126503940D01*
X135612875Y-126423434D01*
X135612754Y-126423332D01*
X135609695Y-126420214D01*
X135530765Y-126340851D01*
X135530641Y-126340749D01*
X135527205Y-126337300D01*
X135452722Y-126263577D01*
X135452627Y-126263499D01*
X135447925Y-126258879D01*
X135382319Y-126195291D01*
X135381466Y-126194613D01*
X135380758Y-126193783D01*
X135374277Y-126187630D01*
X135321979Y-126138672D01*
X135315281Y-126133531D01*
X135309543Y-126127333D01*
X135302819Y-126121446D01*
X135268262Y-126091613D01*
X135230040Y-126064646D01*
X135193193Y-126035833D01*
X135185616Y-126031095D01*
X135174056Y-126023976D01*
X135168660Y-126021341D01*
X135166200Y-126019606D01*
X135158726Y-126016278D01*
X135146751Y-126008080D01*
X135103810Y-125989680D01*
X135061813Y-125969175D01*
X135046504Y-125965123D01*
X135031941Y-125958883D01*
X134986219Y-125949169D01*
X134941064Y-125937218D01*
X134925261Y-125936217D01*
X134909762Y-125932924D01*
X134863038Y-125932276D01*
X134816408Y-125929322D01*
X134800705Y-125931411D01*
X134784868Y-125931191D01*
X134738917Y-125939629D01*
X134692592Y-125945791D01*
X134677591Y-125950891D01*
X134662016Y-125953751D01*
X134618578Y-125970953D01*
X134574333Y-125985995D01*
X134560614Y-125993908D01*
X134545885Y-125999741D01*
X134537967Y-126003882D01*
X134519143Y-126013893D01*
X134504288Y-126023764D01*
X134488191Y-126031474D01*
X134480580Y-126036156D01*
X134435556Y-126064281D01*
X134434720Y-126064925D01*
X134433778Y-126065396D01*
X134426248Y-126070208D01*
X134359404Y-126113584D01*
X134359289Y-126113676D01*
X134354658Y-126116694D01*
X134270369Y-126172458D01*
X134270246Y-126172558D01*
X134267038Y-126174677D01*
X134169683Y-126239965D01*
X134169573Y-126240056D01*
X134167239Y-126241613D01*
X134093802Y-126291352D01*
X134093747Y-126291398D01*
X134092830Y-126292012D01*
X134023937Y-126338859D01*
X134008197Y-126255367D01*
X134008197Y-126255366D01*
X133924376Y-125810742D01*
X133924181Y-125810074D01*
X133924118Y-125809383D01*
X133906648Y-125750026D01*
X133889368Y-125690842D01*
X133889049Y-125690229D01*
X133888852Y-125689559D01*
X133860163Y-125634683D01*
X133831739Y-125580025D01*
X133831305Y-125579483D01*
X133830983Y-125578867D01*
X133792351Y-125530818D01*
X133753684Y-125482511D01*
X133753151Y-125482062D01*
X133752717Y-125481522D01*
X133705381Y-125441803D01*
X133658173Y-125402017D01*
X133657567Y-125401682D01*
X133657033Y-125401234D01*
X133602605Y-125371312D01*
X133548847Y-125341607D01*
X133548190Y-125341397D01*
X133547577Y-125341060D01*
X133488530Y-125322330D01*
X133429870Y-125303582D01*
X133429179Y-125303503D01*
X133428517Y-125303293D01*
X133367115Y-125296405D01*
X133305773Y-125289390D01*
X133305081Y-125289447D01*
X133304390Y-125289369D01*
X133295454Y-125289307D01*
X132370006Y-125289307D01*
X132369316Y-125289375D01*
X132368621Y-125289308D01*
X132306946Y-125295490D01*
X132245696Y-125301496D01*
X132245032Y-125301696D01*
X132244338Y-125301766D01*
X132185190Y-125319764D01*
X132126121Y-125337598D01*
X132125506Y-125337925D01*
X132124842Y-125338127D01*
X132070382Y-125367234D01*
X132015835Y-125396237D01*
X132015297Y-125396676D01*
X132014683Y-125397004D01*
X131966722Y-125436293D01*
X131919040Y-125475182D01*
X131918600Y-125475714D01*
X131918058Y-125476158D01*
X131878593Y-125524074D01*
X131839422Y-125571424D01*
X131839092Y-125572034D01*
X131838649Y-125572572D01*
X131809371Y-125627003D01*
X131780014Y-125681297D01*
X131779808Y-125681962D01*
X131779479Y-125682574D01*
X131761338Y-125741628D01*
X131743078Y-125800617D01*
X131743005Y-125801308D01*
X131742801Y-125801973D01*
X131741084Y-125810743D01*
X131657269Y-126255340D01*
X131657264Y-126255366D01*
X131641524Y-126338859D01*
X131572630Y-126292012D01*
X131572552Y-126291970D01*
X131571202Y-126291043D01*
X131467291Y-126220793D01*
X131467157Y-126220720D01*
X131464259Y-126218756D01*
X131370329Y-126156032D01*
X131370187Y-126155956D01*
X131366614Y-126153570D01*
X131287049Y-126101236D01*
X131286948Y-126101183D01*
X131281331Y-126097518D01*
X131220513Y-126058437D01*
X131217671Y-126056981D01*
X131215149Y-126055028D01*
X131207551Y-126050325D01*
X131169864Y-126027361D01*
X131145668Y-126015687D01*
X131122921Y-126001390D01*
X131114899Y-125997451D01*
X131104635Y-125992500D01*
X131086202Y-125985736D01*
X131068847Y-125976569D01*
X131057643Y-125973220D01*
X131057366Y-125973086D01*
X131056074Y-125972750D01*
X131027693Y-125964266D01*
X130987374Y-125949471D01*
X130967989Y-125946418D01*
X130949174Y-125940793D01*
X130906399Y-125936717D01*
X130863989Y-125930037D01*
X130844380Y-125930807D01*
X130824831Y-125928944D01*
X130782095Y-125933252D01*
X130739179Y-125934937D01*
X130720086Y-125939503D01*
X130700555Y-125941472D01*
X130659467Y-125954000D01*
X130617698Y-125963989D01*
X130599859Y-125972175D01*
X130581079Y-125977901D01*
X130543202Y-125998173D01*
X130504174Y-126016082D01*
X130488268Y-126027574D01*
X130470954Y-126036841D01*
X130463559Y-126041859D01*
X130445070Y-126054593D01*
X130417968Y-126077461D01*
X130389030Y-126097952D01*
X130382317Y-126103851D01*
X130342806Y-126139057D01*
X130339135Y-126143036D01*
X130334818Y-126146297D01*
X130328290Y-126152399D01*
X130272187Y-126205579D01*
X130272009Y-126205784D01*
X130271795Y-126205951D01*
X130265358Y-126212150D01*
X130197093Y-126278805D01*
X130196999Y-126278916D01*
X130192749Y-126283088D01*
X130116750Y-126358724D01*
X130116651Y-126358844D01*
X130113366Y-126362117D01*
X130034061Y-126442234D01*
X130033961Y-126442357D01*
X130030907Y-126445443D01*
X129952724Y-126525545D01*
X129952628Y-126525665D01*
X129949237Y-126529145D01*
X129876605Y-126604735D01*
X129876526Y-126604835D01*
X129872002Y-126609577D01*
X129809349Y-126676158D01*
X129808709Y-126676988D01*
X129807917Y-126677684D01*
X129801861Y-126684255D01*
X129753617Y-126737328D01*
X129748632Y-126744023D01*
X129742584Y-126749786D01*
X129736795Y-126756593D01*
X129707388Y-126791662D01*
X129681363Y-126829698D01*
X129653422Y-126866341D01*
X129648776Y-126873974D01*
X129641745Y-126885710D01*
X129638846Y-126891835D01*
X129636854Y-126894747D01*
X129631012Y-126908390D01*
X129616968Y-126938066D01*
X129591437Y-126990092D01*
X129590261Y-126994500D01*
X129588315Y-126998612D01*
X129574192Y-127054732D01*
X129559240Y-127110777D01*
X129558943Y-127115328D01*
X129557832Y-127119741D01*
X129554876Y-127177572D01*
X129551096Y-127235418D01*
X129551688Y-127239935D01*
X129551455Y-127244485D01*
X129559798Y-127301847D01*
X129567319Y-127359266D01*
X129568776Y-127363580D01*
X129569432Y-127368091D01*
X129588744Y-127422704D01*
X129594415Y-127439496D01*
X129595365Y-127443515D01*
X129596941Y-127446973D01*
X129607286Y-127477605D01*
X129611015Y-127485726D01*
X129621133Y-127507363D01*
X129635483Y-127531568D01*
X129647152Y-127557179D01*
X129651687Y-127564879D01*
X129680051Y-127612281D01*
X129682677Y-127615830D01*
X129684620Y-127619800D01*
X129689367Y-127627371D01*
X129732997Y-127695902D01*
X129733155Y-127696103D01*
X129733275Y-127696340D01*
X129738133Y-127703840D01*
X129794044Y-127788862D01*
X129794118Y-127788953D01*
X129797860Y-127794597D01*
X129863072Y-127891475D01*
X129863171Y-127891595D01*
X129865706Y-127895358D01*
X129903178Y-127950153D01*
X129903195Y-127950178D01*
X129951965Y-128021623D01*
X129933074Y-128025184D01*
X129868337Y-128037245D01*
X129868221Y-128037278D01*
X129865856Y-128037712D01*
X129745348Y-128060656D01*
X129745223Y-128060693D01*
X129739183Y-128061861D01*
X129630336Y-128083694D01*
X129630262Y-128083716D01*
X129622878Y-128085236D01*
X129531199Y-128104763D01*
X129529861Y-128105188D01*
X129528460Y-128105352D01*
X129519742Y-128107314D01*
X129450736Y-128123340D01*
X129442046Y-128126277D01*
X129432976Y-128127732D01*
X129424349Y-128130063D01*
X129383526Y-128141394D01*
X129345284Y-128156160D01*
X129306116Y-128168326D01*
X129297906Y-128171855D01*
X129289699Y-128175450D01*
X129277651Y-128182198D01*
X129264714Y-128187041D01*
X129223240Y-128212677D01*
X129180725Y-128236492D01*
X129170219Y-128245451D01*
X129158467Y-128252715D01*
X129122760Y-128285921D01*
X129085682Y-128317538D01*
X129077117Y-128328366D01*
X129066999Y-128337775D01*
X129038429Y-128377275D01*
X129008191Y-128415501D01*
X129001889Y-128427793D01*
X128993796Y-128438982D01*
X128973443Y-128483275D01*
X128951205Y-128526650D01*
X128947412Y-128539926D01*
X128941644Y-128552479D01*
X128938782Y-128560945D01*
X128930745Y-128585277D01*
X128917581Y-128643793D01*
X128903971Y-128702133D01*
X128903364Y-128706985D01*
X128903330Y-128707137D01*
X128903326Y-128707290D01*
X128902862Y-128711000D01*
X128896377Y-128765953D01*
X128896116Y-128779178D01*
X128893827Y-128792201D01*
X128893208Y-128801116D01*
X128888271Y-128880265D01*
X128888423Y-128884546D01*
X128887797Y-128888781D01*
X128887422Y-128897710D01*
X128884028Y-128994627D01*
X128884107Y-128995884D01*
X128883945Y-128997134D01*
X128883730Y-129006067D01*
X128881876Y-129114328D01*
X128881885Y-129114433D01*
X128881872Y-129114542D01*
X128881785Y-129123478D01*
X128881466Y-129236464D01*
X128881465Y-129236469D01*
X127120000Y-129236469D01*
X127120000Y-129154711D01*
X127025464Y-128679444D01*
X126840024Y-128231753D01*
X126570807Y-127828841D01*
X126228159Y-127486193D01*
X125825247Y-127216976D01*
X125377556Y-127031536D01*
X124902289Y-126937000D01*
X124417711Y-126937000D01*
X123942444Y-127031536D01*
X123494753Y-127216976D01*
X123091841Y-127486193D01*
X122749193Y-127828841D01*
X122479976Y-128231753D01*
X122294536Y-128679444D01*
X122200000Y-129154711D01*
X115690000Y-129154711D01*
X115595464Y-128679444D01*
X115410024Y-128231753D01*
X115140807Y-127828841D01*
X114798159Y-127486193D01*
X114395247Y-127216976D01*
X113947556Y-127031536D01*
X113472289Y-126937000D01*
X112987711Y-126937000D01*
X112512444Y-127031536D01*
X112064753Y-127216976D01*
X111661841Y-127486193D01*
X111319193Y-127828841D01*
X111049976Y-128231753D01*
X110864536Y-128679444D01*
X110770000Y-129154711D01*
X100660000Y-129154711D01*
X100660000Y-122279872D01*
X102765000Y-122279872D01*
X102765000Y-122720128D01*
X102850890Y-123151925D01*
X103019369Y-123558669D01*
X103263962Y-123924729D01*
X103575271Y-124236038D01*
X103941331Y-124480631D01*
X104348075Y-124649110D01*
X104779872Y-124735000D01*
X105220128Y-124735000D01*
X105651925Y-124649110D01*
X106058669Y-124480631D01*
X106424729Y-124236038D01*
X106736038Y-123924729D01*
X106980631Y-123558669D01*
X107149110Y-123151925D01*
X107235000Y-122720128D01*
X107235000Y-122279872D01*
X107149110Y-121848075D01*
X106980631Y-121441331D01*
X106736038Y-121075271D01*
X106424729Y-120763962D01*
X106058669Y-120519369D01*
X105651925Y-120350890D01*
X105220128Y-120265000D01*
X104779872Y-120265000D01*
X104348075Y-120350890D01*
X103941331Y-120519369D01*
X103575271Y-120763962D01*
X103263962Y-121075271D01*
X103019369Y-121441331D01*
X102850890Y-121848075D01*
X102765000Y-122279872D01*
X100660000Y-122279872D01*
X100660000Y-114427000D01*
X112013719Y-114427000D01*
X112018000Y-114470469D01*
X112018001Y-119844521D01*
X112013719Y-119888000D01*
X112030805Y-120061490D01*
X112081412Y-120228313D01*
X112163590Y-120382059D01*
X112246468Y-120483046D01*
X112246471Y-120483049D01*
X112274184Y-120516817D01*
X112307951Y-120544529D01*
X113483076Y-121719655D01*
X113395506Y-121766463D01*
X113298815Y-121845815D01*
X113219463Y-121942506D01*
X113160498Y-122052820D01*
X113124188Y-122172518D01*
X113111928Y-122297000D01*
X113111928Y-123797000D01*
X113124188Y-123921482D01*
X113160498Y-124041180D01*
X113219463Y-124151494D01*
X113298815Y-124248185D01*
X113395506Y-124327537D01*
X113505820Y-124386502D01*
X113625518Y-124422812D01*
X113750000Y-124435072D01*
X115250000Y-124435072D01*
X115374482Y-124422812D01*
X115494180Y-124386502D01*
X115604494Y-124327537D01*
X115701185Y-124248185D01*
X115780537Y-124151494D01*
X115839502Y-124041180D01*
X115875812Y-123921482D01*
X115886445Y-123813517D01*
X115964201Y-123929886D01*
X116157114Y-124122799D01*
X116383957Y-124274371D01*
X116636011Y-124378775D01*
X116903589Y-124432000D01*
X117176411Y-124432000D01*
X117443989Y-124378775D01*
X117696043Y-124274371D01*
X117922886Y-124122799D01*
X118115799Y-123929886D01*
X118267371Y-123703043D01*
X118310000Y-123600127D01*
X118352629Y-123703043D01*
X118504201Y-123929886D01*
X118697114Y-124122799D01*
X118923957Y-124274371D01*
X119176011Y-124378775D01*
X119443589Y-124432000D01*
X119716411Y-124432000D01*
X119983989Y-124378775D01*
X120236043Y-124274371D01*
X120462886Y-124122799D01*
X120655799Y-123929886D01*
X120807371Y-123703043D01*
X120850000Y-123600127D01*
X120892629Y-123703043D01*
X121044201Y-123929886D01*
X121237114Y-124122799D01*
X121463957Y-124274371D01*
X121716011Y-124378775D01*
X121983589Y-124432000D01*
X122256411Y-124432000D01*
X122523989Y-124378775D01*
X122776043Y-124274371D01*
X123002886Y-124122799D01*
X123195799Y-123929886D01*
X123347371Y-123703043D01*
X123451775Y-123450989D01*
X123505000Y-123183411D01*
X123505000Y-122910589D01*
X123451775Y-122643011D01*
X123347371Y-122390957D01*
X123273147Y-122279872D01*
X130655000Y-122279872D01*
X130655000Y-122720128D01*
X130740890Y-123151925D01*
X130909369Y-123558669D01*
X131153962Y-123924729D01*
X131465271Y-124236038D01*
X131831331Y-124480631D01*
X132238075Y-124649110D01*
X132669872Y-124735000D01*
X133110128Y-124735000D01*
X133541925Y-124649110D01*
X133948669Y-124480631D01*
X134314729Y-124236038D01*
X134626038Y-123924729D01*
X134870631Y-123558669D01*
X135039110Y-123151925D01*
X135125000Y-122720128D01*
X135125000Y-122279872D01*
X135039110Y-121848075D01*
X134870631Y-121441331D01*
X134626038Y-121075271D01*
X134314729Y-120763962D01*
X133948669Y-120519369D01*
X133541925Y-120350890D01*
X133110128Y-120265000D01*
X132669872Y-120265000D01*
X132238075Y-120350890D01*
X131831331Y-120519369D01*
X131465271Y-120763962D01*
X131153962Y-121075271D01*
X130909369Y-121441331D01*
X130740890Y-121848075D01*
X130655000Y-122279872D01*
X123273147Y-122279872D01*
X123195799Y-122164114D01*
X123002886Y-121971201D01*
X122776043Y-121819629D01*
X122523989Y-121715225D01*
X122256411Y-121662000D01*
X121983589Y-121662000D01*
X121716011Y-121715225D01*
X121463957Y-121819629D01*
X121237114Y-121971201D01*
X121044201Y-122164114D01*
X120892629Y-122390957D01*
X120850000Y-122493873D01*
X120807371Y-122390957D01*
X120655799Y-122164114D01*
X120462886Y-121971201D01*
X120236043Y-121819629D01*
X119983989Y-121715225D01*
X119716411Y-121662000D01*
X119443589Y-121662000D01*
X119176011Y-121715225D01*
X118923957Y-121819629D01*
X118697114Y-121971201D01*
X118504201Y-122164114D01*
X118352629Y-122390957D01*
X118310000Y-122493873D01*
X118267371Y-122390957D01*
X118115799Y-122164114D01*
X117922886Y-121971201D01*
X117696043Y-121819629D01*
X117443989Y-121715225D01*
X117176411Y-121662000D01*
X116906578Y-121662000D01*
X116740132Y-121495553D01*
X116845799Y-121389886D01*
X116997371Y-121163043D01*
X117040000Y-121060127D01*
X117082629Y-121163043D01*
X117234201Y-121389886D01*
X117427114Y-121582799D01*
X117653957Y-121734371D01*
X117906011Y-121838775D01*
X118173589Y-121892000D01*
X118446411Y-121892000D01*
X118713989Y-121838775D01*
X118966043Y-121734371D01*
X119192886Y-121582799D01*
X119385799Y-121389886D01*
X119537371Y-121163043D01*
X119580000Y-121060127D01*
X119622629Y-121163043D01*
X119774201Y-121389886D01*
X119967114Y-121582799D01*
X120193957Y-121734371D01*
X120446011Y-121838775D01*
X120713589Y-121892000D01*
X120986411Y-121892000D01*
X121253989Y-121838775D01*
X121506043Y-121734371D01*
X121732886Y-121582799D01*
X121925799Y-121389886D01*
X122077371Y-121163043D01*
X122120000Y-121060127D01*
X122162629Y-121163043D01*
X122314201Y-121389886D01*
X122507114Y-121582799D01*
X122733957Y-121734371D01*
X122986011Y-121838775D01*
X123253589Y-121892000D01*
X123526411Y-121892000D01*
X123793989Y-121838775D01*
X124046043Y-121734371D01*
X124272886Y-121582799D01*
X124465799Y-121389886D01*
X124617371Y-121163043D01*
X124721775Y-120910989D01*
X124775000Y-120643411D01*
X124775000Y-120370589D01*
X124721775Y-120103011D01*
X124617371Y-119850957D01*
X124465799Y-119624114D01*
X124272886Y-119431201D01*
X124046043Y-119279629D01*
X123793989Y-119175225D01*
X123526411Y-119122000D01*
X123253589Y-119122000D01*
X122986011Y-119175225D01*
X122733957Y-119279629D01*
X122507114Y-119431201D01*
X122314201Y-119624114D01*
X122162629Y-119850957D01*
X122120000Y-119953873D01*
X122077371Y-119850957D01*
X121925799Y-119624114D01*
X121732886Y-119431201D01*
X121506043Y-119279629D01*
X121268389Y-119181190D01*
X121986579Y-118463000D01*
X122256411Y-118463000D01*
X122523989Y-118409775D01*
X122776043Y-118305371D01*
X123002886Y-118153799D01*
X123195799Y-117960886D01*
X123347371Y-117734043D01*
X123451775Y-117481989D01*
X123505000Y-117214411D01*
X123505000Y-116941589D01*
X123451775Y-116674011D01*
X123347371Y-116421957D01*
X123195799Y-116195114D01*
X123002886Y-116002201D01*
X122888951Y-115926072D01*
X124140000Y-115926072D01*
X124264482Y-115913812D01*
X124384180Y-115877502D01*
X124494494Y-115818537D01*
X124591185Y-115739185D01*
X124670537Y-115642494D01*
X124729502Y-115532180D01*
X124765812Y-115412482D01*
X124778072Y-115288000D01*
X124778072Y-113788000D01*
X124765812Y-113663518D01*
X124729502Y-113543820D01*
X124670537Y-113433506D01*
X124591185Y-113336815D01*
X124494494Y-113257463D01*
X124384180Y-113198498D01*
X124264482Y-113162188D01*
X124140000Y-113149928D01*
X122640000Y-113149928D01*
X122515518Y-113162188D01*
X122395820Y-113198498D01*
X122285506Y-113257463D01*
X122188815Y-113336815D01*
X122109463Y-113433506D01*
X122050498Y-113543820D01*
X122014188Y-113663518D01*
X122003555Y-113771483D01*
X121925799Y-113655114D01*
X121732886Y-113462201D01*
X121506043Y-113310629D01*
X121253989Y-113206225D01*
X120986411Y-113153000D01*
X120754929Y-113153000D01*
X120728818Y-113121184D01*
X120695050Y-113093471D01*
X119909534Y-112307956D01*
X119881817Y-112274183D01*
X119747059Y-112163589D01*
X119593313Y-112081411D01*
X119426490Y-112030805D01*
X119296477Y-112018000D01*
X119296469Y-112018000D01*
X119253000Y-112013719D01*
X119209531Y-112018000D01*
X114470465Y-112018000D01*
X114426999Y-112013719D01*
X114383533Y-112018000D01*
X114383523Y-112018000D01*
X114253510Y-112030805D01*
X114086687Y-112081411D01*
X113932941Y-112163589D01*
X113932939Y-112163590D01*
X113932940Y-112163590D01*
X113831953Y-112246468D01*
X113831951Y-112246470D01*
X113798183Y-112274183D01*
X113770470Y-112307951D01*
X112307956Y-113770466D01*
X112274183Y-113798183D01*
X112163589Y-113932942D01*
X112081411Y-114086688D01*
X112030805Y-114253511D01*
X112018000Y-114383524D01*
X112018000Y-114383531D01*
X112013719Y-114427000D01*
X100660000Y-114427000D01*
X100660000Y-109779872D01*
X102765000Y-109779872D01*
X102765000Y-110220128D01*
X102850890Y-110651925D01*
X103019369Y-111058669D01*
X103263962Y-111424729D01*
X103575271Y-111736038D01*
X103941331Y-111980631D01*
X104348075Y-112149110D01*
X104779872Y-112235000D01*
X105220128Y-112235000D01*
X105651925Y-112149110D01*
X106058669Y-111980631D01*
X106424729Y-111736038D01*
X106736038Y-111424729D01*
X106980631Y-111058669D01*
X107149110Y-110651925D01*
X107235000Y-110220128D01*
X107235000Y-109779872D01*
X107149110Y-109348075D01*
X106980631Y-108941331D01*
X106736038Y-108575271D01*
X106424729Y-108263962D01*
X106058669Y-108019369D01*
X105880843Y-107945711D01*
X110770000Y-107945711D01*
X110770000Y-108430289D01*
X110864536Y-108905556D01*
X111049976Y-109353247D01*
X111319193Y-109756159D01*
X111661841Y-110098807D01*
X112064753Y-110368024D01*
X112512444Y-110553464D01*
X112987711Y-110648000D01*
X113472289Y-110648000D01*
X113947556Y-110553464D01*
X114395247Y-110368024D01*
X114798159Y-110098807D01*
X115140807Y-109756159D01*
X115410024Y-109353247D01*
X115595464Y-108905556D01*
X115690000Y-108430289D01*
X115690000Y-107945711D01*
X122200000Y-107945711D01*
X122200000Y-108430289D01*
X122294536Y-108905556D01*
X122479976Y-109353247D01*
X122749193Y-109756159D01*
X123091841Y-110098807D01*
X123494753Y-110368024D01*
X123942444Y-110553464D01*
X124417711Y-110648000D01*
X124902289Y-110648000D01*
X125377556Y-110553464D01*
X125825247Y-110368024D01*
X126228159Y-110098807D01*
X126547094Y-109779872D01*
X130655000Y-109779872D01*
X130655000Y-110220128D01*
X130740890Y-110651925D01*
X130909369Y-111058669D01*
X131153962Y-111424729D01*
X131465271Y-111736038D01*
X131831331Y-111980631D01*
X132238075Y-112149110D01*
X132669872Y-112235000D01*
X133110128Y-112235000D01*
X133541925Y-112149110D01*
X133948669Y-111980631D01*
X134314729Y-111736038D01*
X134626038Y-111424729D01*
X134870631Y-111058669D01*
X135039110Y-110651925D01*
X135125000Y-110220128D01*
X135125000Y-109779872D01*
X135039110Y-109348075D01*
X134870631Y-108941331D01*
X134626038Y-108575271D01*
X134314729Y-108263962D01*
X133948669Y-108019369D01*
X133541925Y-107850890D01*
X133110128Y-107765000D01*
X132669872Y-107765000D01*
X132238075Y-107850890D01*
X131831331Y-108019369D01*
X131465271Y-108263962D01*
X131153962Y-108575271D01*
X130909369Y-108941331D01*
X130740890Y-109348075D01*
X130655000Y-109779872D01*
X126547094Y-109779872D01*
X126570807Y-109756159D01*
X126840024Y-109353247D01*
X127025464Y-108905556D01*
X127120000Y-108430289D01*
X127120000Y-107945711D01*
X127025464Y-107470444D01*
X126840024Y-107022753D01*
X126570807Y-106619841D01*
X126228159Y-106277193D01*
X125825247Y-106007976D01*
X125377556Y-105822536D01*
X124902289Y-105728000D01*
X124417711Y-105728000D01*
X123942444Y-105822536D01*
X123494753Y-106007976D01*
X123091841Y-106277193D01*
X122749193Y-106619841D01*
X122479976Y-107022753D01*
X122294536Y-107470444D01*
X122200000Y-107945711D01*
X115690000Y-107945711D01*
X115595464Y-107470444D01*
X115410024Y-107022753D01*
X115140807Y-106619841D01*
X114798159Y-106277193D01*
X114395247Y-106007976D01*
X113947556Y-105822536D01*
X113472289Y-105728000D01*
X112987711Y-105728000D01*
X112512444Y-105822536D01*
X112064753Y-106007976D01*
X111661841Y-106277193D01*
X111319193Y-106619841D01*
X111049976Y-107022753D01*
X110864536Y-107470444D01*
X110770000Y-107945711D01*
X105880843Y-107945711D01*
X105651925Y-107850890D01*
X105220128Y-107765000D01*
X104779872Y-107765000D01*
X104348075Y-107850890D01*
X103941331Y-108019369D01*
X103575271Y-108263962D01*
X103263962Y-108575271D01*
X103019369Y-108941331D01*
X102850890Y-109348075D01*
X102765000Y-109779872D01*
X100660000Y-109779872D01*
X100660000Y-100660000D01*
X137230000Y-100660000D01*
X137230001Y-144340000D01*
M02*
