M48
; DRILL file {KiCad 5.1.5+dfsg1-2build2} date jue 15 jul 2021 15:48:46
; FORMAT={-:-/ absolute / metric / decimal}
; #@! TF.CreationDate,2021-07-15T15:48:46-05:00
; #@! TF.GenerationSoftware,Kicad,Pcbnew,5.1.5+dfsg1-2build2
; #@! TF.FileFunction,Plated,1,2,PTH
FMAT,2
METRIC
T1C0.700
T2C0.800
T3C0.800
T4C0.900
T5C1.200
%
G90
G05
T1
X126.365Y-141.224
X126.365Y-143.764
T2
X121.539Y-137.922
X126.539Y-137.922
T3
X105.0Y-142.0
X132.89Y-142.0
T4
X114.5Y-123.047
X115.77Y-120.507
X117.04Y-123.047
X118.31Y-120.507
X119.58Y-123.047
X120.85Y-120.507
X122.12Y-123.047
X123.39Y-120.507
X121.793Y-141.097
X121.793Y-143.637
X114.5Y-117.078
X115.77Y-114.538
X117.04Y-117.078
X118.31Y-114.538
X119.58Y-117.078
X120.85Y-114.538
X122.12Y-117.078
X123.39Y-114.538
T5
X112.776Y-140.589
X116.276Y-140.589
T0
M30
