G04 #@! TF.GenerationSoftware,KiCad,Pcbnew,5.1.5+dfsg1-2build2*
G04 #@! TF.CreationDate,2021-07-15T15:49:03-05:00*
G04 #@! TF.ProjectId,DIN_RAIL_POE_INJECTOR,44494e5f-5241-4494-9c5f-504f455f494e,rev?*
G04 #@! TF.SameCoordinates,Original*
G04 #@! TF.FileFunction,Legend,Top*
G04 #@! TF.FilePolarity,Positive*
%FSLAX46Y46*%
G04 Gerber Fmt 4.6, Leading zero omitted, Abs format (unit mm)*
G04 Created by KiCad (PCBNEW 5.1.5+dfsg1-2build2) date 2021-07-15 15:49:03*
%MOMM*%
%LPD*%
G04 APERTURE LIST*
%ADD10C,0.150000*%
%ADD11C,0.120000*%
%ADD12C,0.010000*%
G04 APERTURE END LIST*
D10*
X128500333Y-112720380D02*
X128500333Y-111720380D01*
X128881285Y-111720380D01*
X128976523Y-111768000D01*
X129024142Y-111815619D01*
X129071761Y-111910857D01*
X129071761Y-112053714D01*
X129024142Y-112148952D01*
X128976523Y-112196571D01*
X128881285Y-112244190D01*
X128500333Y-112244190D01*
X129643190Y-112720380D02*
X129547952Y-112672761D01*
X129500333Y-112625142D01*
X129452714Y-112529904D01*
X129452714Y-112244190D01*
X129500333Y-112148952D01*
X129547952Y-112101333D01*
X129643190Y-112053714D01*
X129786047Y-112053714D01*
X129881285Y-112101333D01*
X129928904Y-112148952D01*
X129976523Y-112244190D01*
X129976523Y-112529904D01*
X129928904Y-112625142D01*
X129881285Y-112672761D01*
X129786047Y-112720380D01*
X129643190Y-112720380D01*
X130405095Y-112196571D02*
X130738428Y-112196571D01*
X130881285Y-112720380D02*
X130405095Y-112720380D01*
X130405095Y-111720380D01*
X130881285Y-111720380D01*
X128897142Y-128595380D02*
X128420952Y-128595380D01*
X128420952Y-127595380D01*
X129182857Y-128309666D02*
X129659047Y-128309666D01*
X129087619Y-128595380D02*
X129420952Y-127595380D01*
X129754285Y-128595380D01*
X130087619Y-128595380D02*
X130087619Y-127595380D01*
X130659047Y-128595380D01*
X130659047Y-127595380D01*
X119324428Y-144208142D02*
X119324428Y-143446238D01*
X119705380Y-143827190D02*
X118943476Y-143827190D01*
X119324428Y-142970047D02*
X119324428Y-142208142D01*
X119705380Y-142589095D02*
X118943476Y-142589095D01*
X119038714Y-140541476D02*
X119705380Y-140541476D01*
X118657761Y-140779571D02*
X119372047Y-141017666D01*
X119372047Y-140398619D01*
X118657761Y-139303380D02*
X119943476Y-140160523D01*
X118705380Y-138493857D02*
X118705380Y-138970047D01*
X119181571Y-139017666D01*
X119133952Y-138970047D01*
X119086333Y-138874809D01*
X119086333Y-138636714D01*
X119133952Y-138541476D01*
X119181571Y-138493857D01*
X119276809Y-138446238D01*
X119514904Y-138446238D01*
X119610142Y-138493857D01*
X119657761Y-138541476D01*
X119705380Y-138636714D01*
X119705380Y-138874809D01*
X119657761Y-138970047D01*
X119610142Y-139017666D01*
X109037428Y-144081142D02*
X109037428Y-143319238D01*
X109037428Y-142843047D02*
X109037428Y-142081142D01*
X108418380Y-140938285D02*
X108418380Y-140271619D01*
X109418380Y-140700190D01*
X108370761Y-139176380D02*
X109656476Y-140033523D01*
X108846952Y-138700190D02*
X108799333Y-138795428D01*
X108751714Y-138843047D01*
X108656476Y-138890666D01*
X108608857Y-138890666D01*
X108513619Y-138843047D01*
X108466000Y-138795428D01*
X108418380Y-138700190D01*
X108418380Y-138509714D01*
X108466000Y-138414476D01*
X108513619Y-138366857D01*
X108608857Y-138319238D01*
X108656476Y-138319238D01*
X108751714Y-138366857D01*
X108799333Y-138414476D01*
X108846952Y-138509714D01*
X108846952Y-138700190D01*
X108894571Y-138795428D01*
X108942190Y-138843047D01*
X109037428Y-138890666D01*
X109227904Y-138890666D01*
X109323142Y-138843047D01*
X109370761Y-138795428D01*
X109418380Y-138700190D01*
X109418380Y-138509714D01*
X109370761Y-138414476D01*
X109323142Y-138366857D01*
X109227904Y-138319238D01*
X109037428Y-138319238D01*
X108942190Y-138366857D01*
X108894571Y-138414476D01*
X108846952Y-138509714D01*
D11*
X127890000Y-100000000D02*
X127890000Y-145000000D01*
X110000000Y-100000000D02*
X110000000Y-145000000D01*
D12*
G36*
X105330814Y-125992931D02*
G01*
X105414635Y-126437555D01*
X105723920Y-126565053D01*
X106033206Y-126692551D01*
X106404246Y-126440246D01*
X106508157Y-126369996D01*
X106602087Y-126307272D01*
X106681652Y-126254938D01*
X106742470Y-126215857D01*
X106780157Y-126192893D01*
X106790421Y-126187942D01*
X106808910Y-126200676D01*
X106848420Y-126235882D01*
X106904522Y-126289062D01*
X106972787Y-126355718D01*
X107048786Y-126431354D01*
X107128092Y-126511472D01*
X107206275Y-126591574D01*
X107278907Y-126667164D01*
X107341559Y-126733745D01*
X107389803Y-126786818D01*
X107419210Y-126821887D01*
X107426241Y-126833623D01*
X107416123Y-126855260D01*
X107387759Y-126902662D01*
X107344129Y-126971193D01*
X107288218Y-127056215D01*
X107223006Y-127153093D01*
X107185219Y-127208350D01*
X107116343Y-127309248D01*
X107055140Y-127400299D01*
X107004578Y-127476970D01*
X106967628Y-127534728D01*
X106947258Y-127569043D01*
X106944197Y-127576254D01*
X106951136Y-127596748D01*
X106970051Y-127644513D01*
X106998087Y-127712832D01*
X107032391Y-127794989D01*
X107070109Y-127884270D01*
X107108387Y-127973958D01*
X107144370Y-128057338D01*
X107175206Y-128127694D01*
X107198039Y-128178310D01*
X107210017Y-128202471D01*
X107210724Y-128203422D01*
X107229531Y-128208036D01*
X107279618Y-128218328D01*
X107355793Y-128233287D01*
X107452865Y-128251901D01*
X107565643Y-128273159D01*
X107631442Y-128285418D01*
X107751950Y-128308362D01*
X107860797Y-128330195D01*
X107952476Y-128349722D01*
X108021481Y-128365748D01*
X108062304Y-128377079D01*
X108070511Y-128380674D01*
X108078548Y-128405006D01*
X108085033Y-128459959D01*
X108089970Y-128539108D01*
X108093364Y-128636026D01*
X108095218Y-128744287D01*
X108095538Y-128857465D01*
X108094327Y-128969135D01*
X108091590Y-129072868D01*
X108087331Y-129162241D01*
X108081555Y-129230826D01*
X108074267Y-129272197D01*
X108069895Y-129280810D01*
X108043764Y-129291133D01*
X107988393Y-129305892D01*
X107911107Y-129323352D01*
X107819230Y-129341780D01*
X107787158Y-129347741D01*
X107632524Y-129376066D01*
X107510375Y-129398876D01*
X107416673Y-129417080D01*
X107347384Y-129431583D01*
X107298471Y-129443292D01*
X107265897Y-129453115D01*
X107245628Y-129461956D01*
X107233626Y-129470724D01*
X107231947Y-129472457D01*
X107215184Y-129500371D01*
X107189614Y-129554695D01*
X107157788Y-129628777D01*
X107122260Y-129715965D01*
X107085583Y-129809608D01*
X107050311Y-129903052D01*
X107018996Y-129989647D01*
X106994193Y-130062740D01*
X106978454Y-130115678D01*
X106974332Y-130141811D01*
X106974676Y-130142726D01*
X106988641Y-130164086D01*
X107020322Y-130211084D01*
X107066391Y-130278827D01*
X107123518Y-130362423D01*
X107188373Y-130456982D01*
X107206843Y-130483854D01*
X107272699Y-130581275D01*
X107330650Y-130670163D01*
X107377538Y-130745412D01*
X107410207Y-130801920D01*
X107425500Y-130834581D01*
X107426241Y-130838593D01*
X107413392Y-130859684D01*
X107377888Y-130901464D01*
X107324293Y-130959445D01*
X107257171Y-131029135D01*
X107181087Y-131106045D01*
X107100604Y-131185683D01*
X107020287Y-131263561D01*
X106944699Y-131335186D01*
X106878405Y-131396070D01*
X106825969Y-131441721D01*
X106791955Y-131467650D01*
X106782545Y-131471883D01*
X106760643Y-131461912D01*
X106715800Y-131435020D01*
X106655321Y-131395736D01*
X106608789Y-131364117D01*
X106524475Y-131306098D01*
X106424626Y-131237784D01*
X106324473Y-131169579D01*
X106270627Y-131133075D01*
X106088371Y-131009800D01*
X105935381Y-131092520D01*
X105865682Y-131128759D01*
X105806414Y-131156926D01*
X105766311Y-131172991D01*
X105756103Y-131175226D01*
X105743829Y-131158722D01*
X105719613Y-131112082D01*
X105685263Y-131039609D01*
X105642588Y-130945606D01*
X105593394Y-130834374D01*
X105539490Y-130710215D01*
X105482684Y-130577432D01*
X105424782Y-130440327D01*
X105367593Y-130303202D01*
X105312924Y-130170358D01*
X105262584Y-130046098D01*
X105218380Y-129934725D01*
X105182119Y-129840539D01*
X105155609Y-129767844D01*
X105140658Y-129720941D01*
X105138254Y-129704833D01*
X105157311Y-129684286D01*
X105199036Y-129650933D01*
X105254706Y-129611702D01*
X105259378Y-129608599D01*
X105403264Y-129493423D01*
X105519283Y-129359053D01*
X105606430Y-129209784D01*
X105663699Y-129049913D01*
X105690086Y-128883737D01*
X105684585Y-128715552D01*
X105646190Y-128549655D01*
X105573895Y-128390342D01*
X105552626Y-128355487D01*
X105441996Y-128214737D01*
X105311302Y-128101714D01*
X105165064Y-128017003D01*
X105007808Y-127961194D01*
X104844057Y-127934874D01*
X104678333Y-127938630D01*
X104515162Y-127973050D01*
X104359065Y-128038723D01*
X104214567Y-128136235D01*
X104169869Y-128175813D01*
X104056112Y-128299703D01*
X103973218Y-128430124D01*
X103916356Y-128576315D01*
X103884687Y-128721088D01*
X103876869Y-128883860D01*
X103902938Y-129047440D01*
X103960245Y-129206298D01*
X104046144Y-129354906D01*
X104157986Y-129487735D01*
X104293123Y-129599256D01*
X104310883Y-129611011D01*
X104367150Y-129649508D01*
X104409923Y-129682863D01*
X104430372Y-129704160D01*
X104430669Y-129704833D01*
X104426279Y-129727871D01*
X104408876Y-129780157D01*
X104380268Y-129857390D01*
X104342265Y-129955268D01*
X104296674Y-130069491D01*
X104245303Y-130195758D01*
X104189962Y-130329767D01*
X104132458Y-130467218D01*
X104074601Y-130603808D01*
X104018198Y-130735237D01*
X103965058Y-130857205D01*
X103916990Y-130965409D01*
X103875801Y-131055549D01*
X103843301Y-131123323D01*
X103821297Y-131164430D01*
X103812436Y-131175226D01*
X103785360Y-131166819D01*
X103734697Y-131144272D01*
X103669183Y-131111613D01*
X103633159Y-131092520D01*
X103480168Y-131009800D01*
X103297912Y-131133075D01*
X103204875Y-131196228D01*
X103103015Y-131265727D01*
X103007562Y-131331165D01*
X102959750Y-131364117D01*
X102892505Y-131409273D01*
X102835564Y-131445057D01*
X102796354Y-131466938D01*
X102783619Y-131471563D01*
X102765083Y-131459085D01*
X102724059Y-131424252D01*
X102664525Y-131370678D01*
X102590458Y-131301983D01*
X102505835Y-131221781D01*
X102452315Y-131170286D01*
X102358681Y-131078286D01*
X102277759Y-130995999D01*
X102212823Y-130926945D01*
X102167142Y-130874644D01*
X102143989Y-130842616D01*
X102141768Y-130836116D01*
X102152076Y-130811394D01*
X102180561Y-130761405D01*
X102224063Y-130691212D01*
X102279423Y-130605875D01*
X102343480Y-130510456D01*
X102361697Y-130483854D01*
X102428073Y-130387167D01*
X102487622Y-130300117D01*
X102537016Y-130227595D01*
X102572925Y-130174493D01*
X102592019Y-130145703D01*
X102593864Y-130142726D01*
X102591105Y-130119782D01*
X102576462Y-130069336D01*
X102552487Y-129998041D01*
X102521734Y-129912547D01*
X102486756Y-129819507D01*
X102450107Y-129725574D01*
X102414339Y-129637399D01*
X102382006Y-129561634D01*
X102355662Y-129504931D01*
X102337858Y-129473943D01*
X102336593Y-129472457D01*
X102325706Y-129463601D01*
X102307318Y-129454843D01*
X102277394Y-129445277D01*
X102231897Y-129433996D01*
X102166791Y-129420093D01*
X102078039Y-129402663D01*
X101961607Y-129380798D01*
X101813458Y-129353591D01*
X101781382Y-129347741D01*
X101686314Y-129329374D01*
X101603435Y-129311405D01*
X101540070Y-129295569D01*
X101503542Y-129283600D01*
X101498644Y-129280810D01*
X101490573Y-129256072D01*
X101484013Y-129200790D01*
X101478967Y-129121389D01*
X101475441Y-129024296D01*
X101473439Y-128915938D01*
X101472964Y-128802740D01*
X101474023Y-128691128D01*
X101476618Y-128587529D01*
X101480754Y-128498368D01*
X101486437Y-128430072D01*
X101493669Y-128389066D01*
X101498029Y-128380674D01*
X101522302Y-128372208D01*
X101577574Y-128358435D01*
X101658338Y-128340550D01*
X101759088Y-128319748D01*
X101874317Y-128297223D01*
X101937098Y-128285418D01*
X102056213Y-128263151D01*
X102162435Y-128242979D01*
X102250573Y-128225915D01*
X102315434Y-128212969D01*
X102351826Y-128205155D01*
X102357816Y-128203422D01*
X102367939Y-128183890D01*
X102389338Y-128136843D01*
X102419161Y-128069003D01*
X102454555Y-127987091D01*
X102492668Y-127897828D01*
X102530647Y-127807935D01*
X102565640Y-127724135D01*
X102594794Y-127653147D01*
X102615257Y-127601694D01*
X102624177Y-127576497D01*
X102624343Y-127575396D01*
X102614231Y-127555519D01*
X102585883Y-127509777D01*
X102542277Y-127442717D01*
X102486394Y-127358884D01*
X102421213Y-127262826D01*
X102383321Y-127207650D01*
X102314275Y-127106481D01*
X102252950Y-127014630D01*
X102202337Y-126936744D01*
X102165429Y-126877469D01*
X102145218Y-126841451D01*
X102142299Y-126833377D01*
X102154847Y-126814584D01*
X102189537Y-126774457D01*
X102241937Y-126717493D01*
X102307616Y-126648185D01*
X102382144Y-126571031D01*
X102461087Y-126490525D01*
X102540017Y-126411163D01*
X102614500Y-126337440D01*
X102680106Y-126273852D01*
X102732404Y-126224894D01*
X102766961Y-126195061D01*
X102778522Y-126187942D01*
X102797346Y-126197953D01*
X102842369Y-126226078D01*
X102909213Y-126269454D01*
X102993501Y-126325218D01*
X103090856Y-126390506D01*
X103164293Y-126440246D01*
X103535333Y-126692551D01*
X104153905Y-126437555D01*
X104237725Y-125992931D01*
X104321546Y-125548307D01*
X105246994Y-125548307D01*
X105330814Y-125992931D01*
G37*
X105330814Y-125992931D02*
X105414635Y-126437555D01*
X105723920Y-126565053D01*
X106033206Y-126692551D01*
X106404246Y-126440246D01*
X106508157Y-126369996D01*
X106602087Y-126307272D01*
X106681652Y-126254938D01*
X106742470Y-126215857D01*
X106780157Y-126192893D01*
X106790421Y-126187942D01*
X106808910Y-126200676D01*
X106848420Y-126235882D01*
X106904522Y-126289062D01*
X106972787Y-126355718D01*
X107048786Y-126431354D01*
X107128092Y-126511472D01*
X107206275Y-126591574D01*
X107278907Y-126667164D01*
X107341559Y-126733745D01*
X107389803Y-126786818D01*
X107419210Y-126821887D01*
X107426241Y-126833623D01*
X107416123Y-126855260D01*
X107387759Y-126902662D01*
X107344129Y-126971193D01*
X107288218Y-127056215D01*
X107223006Y-127153093D01*
X107185219Y-127208350D01*
X107116343Y-127309248D01*
X107055140Y-127400299D01*
X107004578Y-127476970D01*
X106967628Y-127534728D01*
X106947258Y-127569043D01*
X106944197Y-127576254D01*
X106951136Y-127596748D01*
X106970051Y-127644513D01*
X106998087Y-127712832D01*
X107032391Y-127794989D01*
X107070109Y-127884270D01*
X107108387Y-127973958D01*
X107144370Y-128057338D01*
X107175206Y-128127694D01*
X107198039Y-128178310D01*
X107210017Y-128202471D01*
X107210724Y-128203422D01*
X107229531Y-128208036D01*
X107279618Y-128218328D01*
X107355793Y-128233287D01*
X107452865Y-128251901D01*
X107565643Y-128273159D01*
X107631442Y-128285418D01*
X107751950Y-128308362D01*
X107860797Y-128330195D01*
X107952476Y-128349722D01*
X108021481Y-128365748D01*
X108062304Y-128377079D01*
X108070511Y-128380674D01*
X108078548Y-128405006D01*
X108085033Y-128459959D01*
X108089970Y-128539108D01*
X108093364Y-128636026D01*
X108095218Y-128744287D01*
X108095538Y-128857465D01*
X108094327Y-128969135D01*
X108091590Y-129072868D01*
X108087331Y-129162241D01*
X108081555Y-129230826D01*
X108074267Y-129272197D01*
X108069895Y-129280810D01*
X108043764Y-129291133D01*
X107988393Y-129305892D01*
X107911107Y-129323352D01*
X107819230Y-129341780D01*
X107787158Y-129347741D01*
X107632524Y-129376066D01*
X107510375Y-129398876D01*
X107416673Y-129417080D01*
X107347384Y-129431583D01*
X107298471Y-129443292D01*
X107265897Y-129453115D01*
X107245628Y-129461956D01*
X107233626Y-129470724D01*
X107231947Y-129472457D01*
X107215184Y-129500371D01*
X107189614Y-129554695D01*
X107157788Y-129628777D01*
X107122260Y-129715965D01*
X107085583Y-129809608D01*
X107050311Y-129903052D01*
X107018996Y-129989647D01*
X106994193Y-130062740D01*
X106978454Y-130115678D01*
X106974332Y-130141811D01*
X106974676Y-130142726D01*
X106988641Y-130164086D01*
X107020322Y-130211084D01*
X107066391Y-130278827D01*
X107123518Y-130362423D01*
X107188373Y-130456982D01*
X107206843Y-130483854D01*
X107272699Y-130581275D01*
X107330650Y-130670163D01*
X107377538Y-130745412D01*
X107410207Y-130801920D01*
X107425500Y-130834581D01*
X107426241Y-130838593D01*
X107413392Y-130859684D01*
X107377888Y-130901464D01*
X107324293Y-130959445D01*
X107257171Y-131029135D01*
X107181087Y-131106045D01*
X107100604Y-131185683D01*
X107020287Y-131263561D01*
X106944699Y-131335186D01*
X106878405Y-131396070D01*
X106825969Y-131441721D01*
X106791955Y-131467650D01*
X106782545Y-131471883D01*
X106760643Y-131461912D01*
X106715800Y-131435020D01*
X106655321Y-131395736D01*
X106608789Y-131364117D01*
X106524475Y-131306098D01*
X106424626Y-131237784D01*
X106324473Y-131169579D01*
X106270627Y-131133075D01*
X106088371Y-131009800D01*
X105935381Y-131092520D01*
X105865682Y-131128759D01*
X105806414Y-131156926D01*
X105766311Y-131172991D01*
X105756103Y-131175226D01*
X105743829Y-131158722D01*
X105719613Y-131112082D01*
X105685263Y-131039609D01*
X105642588Y-130945606D01*
X105593394Y-130834374D01*
X105539490Y-130710215D01*
X105482684Y-130577432D01*
X105424782Y-130440327D01*
X105367593Y-130303202D01*
X105312924Y-130170358D01*
X105262584Y-130046098D01*
X105218380Y-129934725D01*
X105182119Y-129840539D01*
X105155609Y-129767844D01*
X105140658Y-129720941D01*
X105138254Y-129704833D01*
X105157311Y-129684286D01*
X105199036Y-129650933D01*
X105254706Y-129611702D01*
X105259378Y-129608599D01*
X105403264Y-129493423D01*
X105519283Y-129359053D01*
X105606430Y-129209784D01*
X105663699Y-129049913D01*
X105690086Y-128883737D01*
X105684585Y-128715552D01*
X105646190Y-128549655D01*
X105573895Y-128390342D01*
X105552626Y-128355487D01*
X105441996Y-128214737D01*
X105311302Y-128101714D01*
X105165064Y-128017003D01*
X105007808Y-127961194D01*
X104844057Y-127934874D01*
X104678333Y-127938630D01*
X104515162Y-127973050D01*
X104359065Y-128038723D01*
X104214567Y-128136235D01*
X104169869Y-128175813D01*
X104056112Y-128299703D01*
X103973218Y-128430124D01*
X103916356Y-128576315D01*
X103884687Y-128721088D01*
X103876869Y-128883860D01*
X103902938Y-129047440D01*
X103960245Y-129206298D01*
X104046144Y-129354906D01*
X104157986Y-129487735D01*
X104293123Y-129599256D01*
X104310883Y-129611011D01*
X104367150Y-129649508D01*
X104409923Y-129682863D01*
X104430372Y-129704160D01*
X104430669Y-129704833D01*
X104426279Y-129727871D01*
X104408876Y-129780157D01*
X104380268Y-129857390D01*
X104342265Y-129955268D01*
X104296674Y-130069491D01*
X104245303Y-130195758D01*
X104189962Y-130329767D01*
X104132458Y-130467218D01*
X104074601Y-130603808D01*
X104018198Y-130735237D01*
X103965058Y-130857205D01*
X103916990Y-130965409D01*
X103875801Y-131055549D01*
X103843301Y-131123323D01*
X103821297Y-131164430D01*
X103812436Y-131175226D01*
X103785360Y-131166819D01*
X103734697Y-131144272D01*
X103669183Y-131111613D01*
X103633159Y-131092520D01*
X103480168Y-131009800D01*
X103297912Y-131133075D01*
X103204875Y-131196228D01*
X103103015Y-131265727D01*
X103007562Y-131331165D01*
X102959750Y-131364117D01*
X102892505Y-131409273D01*
X102835564Y-131445057D01*
X102796354Y-131466938D01*
X102783619Y-131471563D01*
X102765083Y-131459085D01*
X102724059Y-131424252D01*
X102664525Y-131370678D01*
X102590458Y-131301983D01*
X102505835Y-131221781D01*
X102452315Y-131170286D01*
X102358681Y-131078286D01*
X102277759Y-130995999D01*
X102212823Y-130926945D01*
X102167142Y-130874644D01*
X102143989Y-130842616D01*
X102141768Y-130836116D01*
X102152076Y-130811394D01*
X102180561Y-130761405D01*
X102224063Y-130691212D01*
X102279423Y-130605875D01*
X102343480Y-130510456D01*
X102361697Y-130483854D01*
X102428073Y-130387167D01*
X102487622Y-130300117D01*
X102537016Y-130227595D01*
X102572925Y-130174493D01*
X102592019Y-130145703D01*
X102593864Y-130142726D01*
X102591105Y-130119782D01*
X102576462Y-130069336D01*
X102552487Y-129998041D01*
X102521734Y-129912547D01*
X102486756Y-129819507D01*
X102450107Y-129725574D01*
X102414339Y-129637399D01*
X102382006Y-129561634D01*
X102355662Y-129504931D01*
X102337858Y-129473943D01*
X102336593Y-129472457D01*
X102325706Y-129463601D01*
X102307318Y-129454843D01*
X102277394Y-129445277D01*
X102231897Y-129433996D01*
X102166791Y-129420093D01*
X102078039Y-129402663D01*
X101961607Y-129380798D01*
X101813458Y-129353591D01*
X101781382Y-129347741D01*
X101686314Y-129329374D01*
X101603435Y-129311405D01*
X101540070Y-129295569D01*
X101503542Y-129283600D01*
X101498644Y-129280810D01*
X101490573Y-129256072D01*
X101484013Y-129200790D01*
X101478967Y-129121389D01*
X101475441Y-129024296D01*
X101473439Y-128915938D01*
X101472964Y-128802740D01*
X101474023Y-128691128D01*
X101476618Y-128587529D01*
X101480754Y-128498368D01*
X101486437Y-128430072D01*
X101493669Y-128389066D01*
X101498029Y-128380674D01*
X101522302Y-128372208D01*
X101577574Y-128358435D01*
X101658338Y-128340550D01*
X101759088Y-128319748D01*
X101874317Y-128297223D01*
X101937098Y-128285418D01*
X102056213Y-128263151D01*
X102162435Y-128242979D01*
X102250573Y-128225915D01*
X102315434Y-128212969D01*
X102351826Y-128205155D01*
X102357816Y-128203422D01*
X102367939Y-128183890D01*
X102389338Y-128136843D01*
X102419161Y-128069003D01*
X102454555Y-127987091D01*
X102492668Y-127897828D01*
X102530647Y-127807935D01*
X102565640Y-127724135D01*
X102594794Y-127653147D01*
X102615257Y-127601694D01*
X102624177Y-127576497D01*
X102624343Y-127575396D01*
X102614231Y-127555519D01*
X102585883Y-127509777D01*
X102542277Y-127442717D01*
X102486394Y-127358884D01*
X102421213Y-127262826D01*
X102383321Y-127207650D01*
X102314275Y-127106481D01*
X102252950Y-127014630D01*
X102202337Y-126936744D01*
X102165429Y-126877469D01*
X102145218Y-126841451D01*
X102142299Y-126833377D01*
X102154847Y-126814584D01*
X102189537Y-126774457D01*
X102241937Y-126717493D01*
X102307616Y-126648185D01*
X102382144Y-126571031D01*
X102461087Y-126490525D01*
X102540017Y-126411163D01*
X102614500Y-126337440D01*
X102680106Y-126273852D01*
X102732404Y-126224894D01*
X102766961Y-126195061D01*
X102778522Y-126187942D01*
X102797346Y-126197953D01*
X102842369Y-126226078D01*
X102909213Y-126269454D01*
X102993501Y-126325218D01*
X103090856Y-126390506D01*
X103164293Y-126440246D01*
X103535333Y-126692551D01*
X104153905Y-126437555D01*
X104237725Y-125992931D01*
X104321546Y-125548307D01*
X105246994Y-125548307D01*
X105330814Y-125992931D01*
D11*
X110500000Y-123547000D02*
X111000000Y-123047000D01*
X110500000Y-122547000D02*
X110500000Y-123547000D01*
X111000000Y-123047000D02*
X110500000Y-122547000D01*
X126800000Y-119257000D02*
X111080000Y-119257000D01*
X111080000Y-119257000D02*
X111080000Y-135997000D01*
X126810000Y-119257000D02*
X126810000Y-135997000D01*
X126810000Y-135997000D02*
X111080000Y-135997000D01*
X126309000Y-138977000D02*
X126309000Y-138992000D01*
X126309000Y-136852000D02*
X126309000Y-136867000D01*
X121769000Y-138977000D02*
X121769000Y-138992000D01*
X121769000Y-136852000D02*
X121769000Y-136867000D01*
X121769000Y-138992000D02*
X126309000Y-138992000D01*
X121769000Y-136852000D02*
X126309000Y-136852000D01*
X126365000Y-142144000D02*
X126365000Y-142764000D01*
X127285000Y-141224000D02*
G75*
G03X127285000Y-141224000I-920000J0D01*
G01*
X122873000Y-143927000D02*
X123029000Y-143927000D01*
X120557000Y-143927000D02*
X120713000Y-143927000D01*
X122872837Y-141325870D02*
G75*
G02X122873000Y-143407961I-1079837J-1041130D01*
G01*
X120713163Y-141325870D02*
G75*
G03X120713000Y-143407961I1079837J-1041130D01*
G01*
X122871608Y-140694665D02*
G75*
G02X123028516Y-143927000I-1078608J-1672335D01*
G01*
X120714392Y-140694665D02*
G75*
G03X120557484Y-143927000I1078608J-1672335D01*
G01*
X110376000Y-144489000D02*
X111876000Y-144489000D01*
X110376000Y-142749000D02*
X110376000Y-144489000D01*
X118436000Y-137129000D02*
X118436000Y-144249000D01*
X110616000Y-137129000D02*
X110616000Y-144249000D01*
X110616000Y-144249000D02*
X118436000Y-144249000D01*
X110616000Y-137129000D02*
X118436000Y-137129000D01*
X110616000Y-142689000D02*
X118436000Y-142689000D01*
X117831000Y-140589000D02*
G75*
G03X117831000Y-140589000I-1555000J0D01*
G01*
X112803011Y-142144492D02*
G75*
G02X112168000Y-142021000I-27011J1555492D01*
G01*
X111343891Y-141196742D02*
G75*
G02X111344000Y-139981000I1432109J607742D01*
G01*
X112168258Y-139156891D02*
G75*
G02X113384000Y-139157000I607742J-1432109D01*
G01*
X114208109Y-139981258D02*
G75*
G02X114208000Y-141197000I-1432109J-607742D01*
G01*
X113383587Y-142020385D02*
G75*
G02X112776000Y-142144000I-607587J1431385D01*
G01*
X127390000Y-114038000D02*
X126890000Y-114538000D01*
X127390000Y-115038000D02*
X127390000Y-114038000D01*
X126890000Y-114538000D02*
X127390000Y-115038000D01*
X111090000Y-118328000D02*
X126810000Y-118328000D01*
X126810000Y-118328000D02*
X126810000Y-101588000D01*
X111080000Y-118328000D02*
X111080000Y-101588000D01*
X111080000Y-101588000D02*
X126810000Y-101588000D01*
D10*
X108632666Y-120737380D02*
X108632666Y-121451666D01*
X108585047Y-121594523D01*
X108489809Y-121689761D01*
X108346952Y-121737380D01*
X108251714Y-121737380D01*
X109061238Y-120832619D02*
X109108857Y-120785000D01*
X109204095Y-120737380D01*
X109442190Y-120737380D01*
X109537428Y-120785000D01*
X109585047Y-120832619D01*
X109632666Y-120927857D01*
X109632666Y-121023095D01*
X109585047Y-121165952D01*
X109013619Y-121737380D01*
X109632666Y-121737380D01*
X128952666Y-137977571D02*
X128619333Y-137977571D01*
X128619333Y-138501380D02*
X128619333Y-137501380D01*
X129095523Y-137501380D01*
X130000285Y-138501380D02*
X129428857Y-138501380D01*
X129714571Y-138501380D02*
X129714571Y-137501380D01*
X129619333Y-137644238D01*
X129524095Y-137739476D01*
X129428857Y-137787095D01*
X129611380Y-143168666D02*
X129135190Y-143502000D01*
X129611380Y-143740095D02*
X128611380Y-143740095D01*
X128611380Y-143359142D01*
X128659000Y-143263904D01*
X128706619Y-143216285D01*
X128801857Y-143168666D01*
X128944714Y-143168666D01*
X129039952Y-143216285D01*
X129087571Y-143263904D01*
X129135190Y-143359142D01*
X129135190Y-143740095D01*
X129611380Y-142216285D02*
X129611380Y-142787714D01*
X129611380Y-142502000D02*
X128611380Y-142502000D01*
X128754238Y-142597238D01*
X128849476Y-142692476D01*
X128897095Y-142787714D01*
X125039380Y-144248095D02*
X124039380Y-144248095D01*
X124039380Y-144010000D01*
X124087000Y-143867142D01*
X124182238Y-143771904D01*
X124277476Y-143724285D01*
X124467952Y-143676666D01*
X124610809Y-143676666D01*
X124801285Y-143724285D01*
X124896523Y-143771904D01*
X124991761Y-143867142D01*
X125039380Y-144010000D01*
X125039380Y-144248095D01*
X125039380Y-142724285D02*
X125039380Y-143295714D01*
X125039380Y-143010000D02*
X124039380Y-143010000D01*
X124182238Y-143105238D01*
X124277476Y-143200476D01*
X124325095Y-143295714D01*
X108505666Y-135977380D02*
X108505666Y-136691666D01*
X108458047Y-136834523D01*
X108362809Y-136929761D01*
X108219952Y-136977380D01*
X108124714Y-136977380D01*
X108886619Y-135977380D02*
X109505666Y-135977380D01*
X109172333Y-136358333D01*
X109315190Y-136358333D01*
X109410428Y-136405952D01*
X109458047Y-136453571D01*
X109505666Y-136548809D01*
X109505666Y-136786904D01*
X109458047Y-136882142D01*
X109410428Y-136929761D01*
X109315190Y-136977380D01*
X109029476Y-136977380D01*
X108934238Y-136929761D01*
X108886619Y-136882142D01*
X108759666Y-101052380D02*
X108759666Y-101766666D01*
X108712047Y-101909523D01*
X108616809Y-102004761D01*
X108473952Y-102052380D01*
X108378714Y-102052380D01*
X109759666Y-102052380D02*
X109188238Y-102052380D01*
X109473952Y-102052380D02*
X109473952Y-101052380D01*
X109378714Y-101195238D01*
X109283476Y-101290476D01*
X109188238Y-101338095D01*
M02*
